G04 #@! TF.GenerationSoftware,KiCad,Pcbnew,5.1.5+dfsg1-2build2*
G04 #@! TF.CreationDate,2020-08-06T15:55:44-04:00*
G04 #@! TF.ProjectId,Motor_Board,4d6f746f-725f-4426-9f61-72642e6b6963,rev?*
G04 #@! TF.SameCoordinates,Original*
G04 #@! TF.FileFunction,Copper,L4,Bot*
G04 #@! TF.FilePolarity,Positive*
%FSLAX46Y46*%
G04 Gerber Fmt 4.6, Leading zero omitted, Abs format (unit mm)*
G04 Created by KiCad (PCBNEW 5.1.5+dfsg1-2build2) date 2020-08-06 15:55:44*
%MOMM*%
%LPD*%
G04 APERTURE LIST*
%ADD10C,0.100000*%
G04 #@! TA.AperFunction,ComponentPad*
%ADD11R,1.700000X1.700000*%
G04 #@! TD*
G04 #@! TA.AperFunction,ComponentPad*
%ADD12O,1.700000X1.700000*%
G04 #@! TD*
G04 #@! TA.AperFunction,Conductor*
%ADD13R,2.850000X5.400000*%
G04 #@! TD*
G04 #@! TA.AperFunction,ViaPad*
%ADD14C,0.600000*%
G04 #@! TD*
G04 #@! TA.AperFunction,Conductor*
%ADD15R,1.750000X1.750000*%
G04 #@! TD*
G04 #@! TA.AperFunction,ViaPad*
%ADD16C,0.500000*%
G04 #@! TD*
G04 #@! TA.AperFunction,ViaPad*
%ADD17C,0.800000*%
G04 #@! TD*
G04 #@! TA.AperFunction,ViaPad*
%ADD18C,0.406400*%
G04 #@! TD*
G04 #@! TA.AperFunction,Conductor*
%ADD19C,0.304800*%
G04 #@! TD*
G04 #@! TA.AperFunction,Conductor*
%ADD20C,0.177800*%
G04 #@! TD*
G04 APERTURE END LIST*
D10*
G36*
X75311000Y-93091000D02*
G01*
X72771000Y-93091000D01*
X72771000Y-90678000D01*
X75311000Y-90678000D01*
X75311000Y-93091000D01*
G37*
X75311000Y-93091000D02*
X72771000Y-93091000D01*
X72771000Y-90678000D01*
X75311000Y-90678000D01*
X75311000Y-93091000D01*
G36*
X70104000Y-98552000D02*
G01*
X69342000Y-99314000D01*
X67691000Y-99314000D01*
X67691000Y-96012000D01*
X70104000Y-96012000D01*
X70104000Y-98552000D01*
G37*
X70104000Y-98552000D02*
X69342000Y-99314000D01*
X67691000Y-99314000D01*
X67691000Y-96012000D01*
X70104000Y-96012000D01*
X70104000Y-98552000D01*
G36*
X75692000Y-102489000D02*
G01*
X75692000Y-104521000D01*
X73787000Y-104521000D01*
X72644000Y-103378000D01*
X72644000Y-101473000D01*
X74676000Y-101473000D01*
X75692000Y-102489000D01*
G37*
X75692000Y-102489000D02*
X75692000Y-104521000D01*
X73787000Y-104521000D01*
X72644000Y-103378000D01*
X72644000Y-101473000D01*
X74676000Y-101473000D01*
X75692000Y-102489000D01*
G36*
X70739000Y-109728000D02*
G01*
X70739000Y-110744000D01*
X69342000Y-112141000D01*
X67691000Y-112141000D01*
X67691000Y-108839000D01*
X69850000Y-108839000D01*
X70739000Y-109728000D01*
G37*
X70739000Y-109728000D02*
X70739000Y-110744000D01*
X69342000Y-112141000D01*
X67691000Y-112141000D01*
X67691000Y-108839000D01*
X69850000Y-108839000D01*
X70739000Y-109728000D01*
G36*
X76200000Y-115062000D02*
G01*
X76200000Y-116967000D01*
X73914000Y-116967000D01*
X73914000Y-113665000D01*
X74803000Y-113665000D01*
X76200000Y-115062000D01*
G37*
X76200000Y-115062000D02*
X76200000Y-116967000D01*
X73914000Y-116967000D01*
X73914000Y-113665000D01*
X74803000Y-113665000D01*
X76200000Y-115062000D01*
G36*
X70231000Y-121666000D02*
G01*
X68453000Y-121666000D01*
X70231000Y-119888000D01*
X70231000Y-121666000D01*
G37*
X70231000Y-121666000D02*
X68453000Y-121666000D01*
X70231000Y-119888000D01*
X70231000Y-121666000D01*
G36*
X68453000Y-121666000D02*
G01*
X68453000Y-119888000D01*
X70231000Y-119888000D01*
X68453000Y-121666000D01*
G37*
X68453000Y-121666000D02*
X68453000Y-119888000D01*
X70231000Y-119888000D01*
X68453000Y-121666000D01*
G36*
X75565000Y-124841000D02*
G01*
X75565000Y-127381000D01*
X73914000Y-127381000D01*
X73279000Y-126746000D01*
X73279000Y-124206000D01*
X74930000Y-124206000D01*
X75565000Y-124841000D01*
G37*
X75565000Y-124841000D02*
X75565000Y-127381000D01*
X73914000Y-127381000D01*
X73279000Y-126746000D01*
X73279000Y-124206000D01*
X74930000Y-124206000D01*
X75565000Y-124841000D01*
G36*
X89662000Y-124968000D02*
G01*
X89662000Y-127000000D01*
X87630000Y-127000000D01*
X86360000Y-125730000D01*
X86360000Y-123698000D01*
X88392000Y-123698000D01*
X89662000Y-124968000D01*
G37*
X89662000Y-124968000D02*
X89662000Y-127000000D01*
X87630000Y-127000000D01*
X86360000Y-125730000D01*
X86360000Y-123698000D01*
X88392000Y-123698000D01*
X89662000Y-124968000D01*
G36*
X83185000Y-119380000D02*
G01*
X83185000Y-121793000D01*
X82042000Y-121793000D01*
X80772000Y-120523000D01*
X80772000Y-118491000D01*
X82296000Y-118491000D01*
X83185000Y-119380000D01*
G37*
X83185000Y-119380000D02*
X83185000Y-121793000D01*
X82042000Y-121793000D01*
X80772000Y-120523000D01*
X80772000Y-118491000D01*
X82296000Y-118491000D01*
X83185000Y-119380000D01*
G36*
X89535000Y-116078000D02*
G01*
X88011000Y-116078000D01*
X86360000Y-114427000D01*
X86360000Y-112903000D01*
X89535000Y-112903000D01*
X89535000Y-116078000D01*
G37*
X89535000Y-116078000D02*
X88011000Y-116078000D01*
X86360000Y-114427000D01*
X86360000Y-112903000D01*
X89535000Y-112903000D01*
X89535000Y-116078000D01*
G36*
X83820000Y-109093000D02*
G01*
X83820000Y-110744000D01*
X82042000Y-110744000D01*
X80899000Y-109601000D01*
X80899000Y-107569000D01*
X82296000Y-107569000D01*
X83820000Y-109093000D01*
G37*
X83820000Y-109093000D02*
X83820000Y-110744000D01*
X82042000Y-110744000D01*
X80899000Y-109601000D01*
X80899000Y-107569000D01*
X82296000Y-107569000D01*
X83820000Y-109093000D01*
G36*
X89662000Y-101981000D02*
G01*
X89662000Y-104013000D01*
X87503000Y-104013000D01*
X86360000Y-102870000D01*
X86360000Y-100711000D01*
X88392000Y-100711000D01*
X89662000Y-101981000D01*
G37*
X89662000Y-101981000D02*
X89662000Y-104013000D01*
X87503000Y-104013000D01*
X86360000Y-102870000D01*
X86360000Y-100711000D01*
X88392000Y-100711000D01*
X89662000Y-101981000D01*
G36*
X83312000Y-98933000D02*
G01*
X81661000Y-98933000D01*
X80137000Y-97409000D01*
X80137000Y-95631000D01*
X83312000Y-95631000D01*
X83312000Y-98933000D01*
G37*
X83312000Y-98933000D02*
X81661000Y-98933000D01*
X80137000Y-97409000D01*
X80137000Y-95631000D01*
X83312000Y-95631000D01*
X83312000Y-98933000D01*
G36*
X89662000Y-91821000D02*
G01*
X89662000Y-93980000D01*
X87503000Y-93980000D01*
X86360000Y-92837000D01*
X86360000Y-90678000D01*
X88519000Y-90678000D01*
X89662000Y-91821000D01*
G37*
X89662000Y-91821000D02*
X89662000Y-93980000D01*
X87503000Y-93980000D01*
X86360000Y-92837000D01*
X86360000Y-90678000D01*
X88519000Y-90678000D01*
X89662000Y-91821000D01*
G36*
X83693000Y-86614000D02*
G01*
X83693000Y-88900000D01*
X81661000Y-88900000D01*
X80391000Y-87630000D01*
X80391000Y-85598000D01*
X82677000Y-85598000D01*
X83693000Y-86614000D01*
G37*
X83693000Y-86614000D02*
X83693000Y-88900000D01*
X81661000Y-88900000D01*
X80391000Y-87630000D01*
X80391000Y-85598000D01*
X82677000Y-85598000D01*
X83693000Y-86614000D01*
G36*
X70993000Y-87376000D02*
G01*
X70993000Y-87884000D01*
X69723000Y-89154000D01*
X67691000Y-89154000D01*
X67691000Y-85979000D01*
X69596000Y-85979000D01*
X70993000Y-87376000D01*
G37*
X70993000Y-87376000D02*
X70993000Y-87884000D01*
X69723000Y-89154000D01*
X67691000Y-89154000D01*
X67691000Y-85979000D01*
X69596000Y-85979000D01*
X70993000Y-87376000D01*
D11*
G04 #@! TO.P,J2,1*
G04 #@! TO.N,GND*
X92608400Y-84937600D03*
D12*
G04 #@! TO.P,J2,2*
G04 #@! TO.N,/OUT_1a*
X92608400Y-87477600D03*
G04 #@! TO.P,J2,3*
G04 #@! TO.N,/OUT_1b*
X92608400Y-90017600D03*
G04 #@! TO.P,J2,4*
G04 #@! TO.N,/OUT_3a*
X92608400Y-92557600D03*
G04 #@! TO.P,J2,5*
G04 #@! TO.N,/OUT_3b*
X92608400Y-95097600D03*
G04 #@! TO.P,J2,6*
G04 #@! TO.N,/OUT_5a*
X92608400Y-97637600D03*
G04 #@! TO.P,J2,7*
G04 #@! TO.N,/OUT_5b*
X92608400Y-100177600D03*
G04 #@! TO.P,J2,8*
G04 #@! TO.N,/OUT_7a*
X92608400Y-102717600D03*
G04 #@! TO.P,J2,9*
G04 #@! TO.N,/OUT_7b*
X92608400Y-105257600D03*
G04 #@! TO.P,J2,10*
G04 #@! TO.N,GND*
X92608400Y-107797600D03*
G04 #@! TO.P,J2,11*
G04 #@! TO.N,/OUT_9a*
X92608400Y-110337600D03*
G04 #@! TO.P,J2,12*
G04 #@! TO.N,/OUT_9b*
X92608400Y-112877600D03*
G04 #@! TO.P,J2,13*
G04 #@! TO.N,/OUT_11a*
X92608400Y-115417600D03*
G04 #@! TO.P,J2,14*
G04 #@! TO.N,/OUT_11b*
X92608400Y-117957600D03*
G04 #@! TO.P,J2,15*
G04 #@! TO.N,/OUT_13a*
X92608400Y-120497600D03*
G04 #@! TO.P,J2,16*
G04 #@! TO.N,/OUT_13b*
X92608400Y-123037600D03*
G04 #@! TO.P,J2,17*
G04 #@! TO.N,/OUT_15a*
X92608400Y-125577600D03*
G04 #@! TO.P,J2,18*
G04 #@! TO.N,/OUT_15b*
X92608400Y-128117600D03*
G04 #@! TO.P,J2,19*
G04 #@! TO.N,GND*
X92608400Y-130657600D03*
G04 #@! TO.P,J2,20*
G04 #@! TO.N,+3V3*
X92608400Y-133197600D03*
G04 #@! TO.P,J2,21*
G04 #@! TO.N,Net-(J2-Pad21)*
X92608400Y-135737600D03*
G04 #@! TO.P,J2,22*
G04 #@! TO.N,Net-(J2-Pad22)*
X92608400Y-138277600D03*
G04 #@! TO.P,J2,23*
G04 #@! TO.N,+5V*
X92608400Y-140817600D03*
G04 #@! TO.P,J2,24*
X92608400Y-143357600D03*
G04 #@! TO.P,J2,25*
G04 #@! TO.N,GND*
X92608400Y-145897600D03*
G04 #@! TD*
G04 #@! TO.P,J1,25*
G04 #@! TO.N,GND*
X64668400Y-145897600D03*
G04 #@! TO.P,J1,24*
G04 #@! TO.N,/SOUT*
X64668400Y-143357600D03*
G04 #@! TO.P,J1,23*
G04 #@! TO.N,/SIN*
X64668400Y-140817600D03*
G04 #@! TO.P,J1,22*
G04 #@! TO.N,/SCLK*
X64668400Y-138277600D03*
G04 #@! TO.P,J1,21*
G04 #@! TO.N,/XLAT*
X64668400Y-135737600D03*
G04 #@! TO.P,J1,20*
G04 #@! TO.N,/GSCLK*
X64668400Y-133197600D03*
G04 #@! TO.P,J1,19*
G04 #@! TO.N,GND*
X64668400Y-130657600D03*
G04 #@! TO.P,J1,18*
G04 #@! TO.N,/OUT_14b*
X64668400Y-128117600D03*
G04 #@! TO.P,J1,17*
G04 #@! TO.N,/OUT_14a*
X64668400Y-125577600D03*
G04 #@! TO.P,J1,16*
G04 #@! TO.N,/OUT_12b*
X64668400Y-123037600D03*
G04 #@! TO.P,J1,15*
G04 #@! TO.N,/OUT_12a*
X64668400Y-120497600D03*
G04 #@! TO.P,J1,14*
G04 #@! TO.N,/OUT_10b*
X64668400Y-117957600D03*
G04 #@! TO.P,J1,13*
G04 #@! TO.N,/OUT_10a*
X64668400Y-115417600D03*
G04 #@! TO.P,J1,12*
G04 #@! TO.N,/OUT_8b*
X64668400Y-112877600D03*
G04 #@! TO.P,J1,11*
G04 #@! TO.N,/OUT_8a*
X64668400Y-110337600D03*
G04 #@! TO.P,J1,10*
G04 #@! TO.N,GND*
X64668400Y-107797600D03*
G04 #@! TO.P,J1,9*
G04 #@! TO.N,/OUT_6b*
X64668400Y-105257600D03*
G04 #@! TO.P,J1,8*
G04 #@! TO.N,/OUT_6a*
X64668400Y-102717600D03*
G04 #@! TO.P,J1,7*
G04 #@! TO.N,/OUT_4b*
X64668400Y-100177600D03*
G04 #@! TO.P,J1,6*
G04 #@! TO.N,/OUT_4a*
X64668400Y-97637600D03*
G04 #@! TO.P,J1,5*
G04 #@! TO.N,/OUT_2b*
X64668400Y-95097600D03*
G04 #@! TO.P,J1,4*
G04 #@! TO.N,/OUT_2a*
X64668400Y-92557600D03*
G04 #@! TO.P,J1,3*
G04 #@! TO.N,/OUT_0b*
X64668400Y-90017600D03*
G04 #@! TO.P,J1,2*
G04 #@! TO.N,/OUT_0a*
X64668400Y-87477600D03*
D11*
G04 #@! TO.P,J1,1*
G04 #@! TO.N,GND*
X64668400Y-84937600D03*
G04 #@! TD*
G04 #@! TO.P,J4,1*
G04 #@! TO.N,+24V*
X90068400Y-143357600D03*
D12*
G04 #@! TO.P,J4,2*
X87528400Y-143357600D03*
G04 #@! TO.P,J4,3*
X84988400Y-143357600D03*
G04 #@! TO.P,J4,4*
X82448400Y-143357600D03*
G04 #@! TO.P,J4,5*
X79908400Y-143357600D03*
G04 #@! TO.P,J4,6*
X77368400Y-143357600D03*
G04 #@! TO.P,J4,7*
X74828400Y-143357600D03*
G04 #@! TO.P,J4,8*
X72288400Y-143357600D03*
G04 #@! TO.P,J4,9*
X69748400Y-143357600D03*
G04 #@! TO.P,J4,10*
X67208400Y-143357600D03*
G04 #@! TD*
G04 #@! TO.P,J5,10*
G04 #@! TO.N,GND*
X90068400Y-145897600D03*
G04 #@! TO.P,J5,9*
X87528400Y-145897600D03*
G04 #@! TO.P,J5,8*
X84988400Y-145897600D03*
G04 #@! TO.P,J5,7*
X82448400Y-145897600D03*
G04 #@! TO.P,J5,6*
X79908400Y-145897600D03*
G04 #@! TO.P,J5,5*
X77368400Y-145897600D03*
G04 #@! TO.P,J5,4*
X74828400Y-145897600D03*
G04 #@! TO.P,J5,3*
X72288400Y-145897600D03*
G04 #@! TO.P,J5,2*
X69748400Y-145897600D03*
D11*
G04 #@! TO.P,J5,1*
X67208400Y-145897600D03*
G04 #@! TD*
D13*
G04 #@! TO.N,GND*
G04 #@! TO.C,U2*
X71247000Y-136779000D03*
D14*
X72372000Y-139179000D03*
X70122000Y-139179000D03*
X72372000Y-137579000D03*
X70122000Y-137579000D03*
X72372000Y-135979000D03*
X70122000Y-135979000D03*
X72372000Y-134379000D03*
X70122000Y-134379000D03*
G04 #@! TD*
G04 #@! TO.N,GND*
G04 #@! TO.C,U3*
X83203000Y-134379000D03*
X85453000Y-134379000D03*
X83203000Y-135979000D03*
X85453000Y-135979000D03*
X83203000Y-137579000D03*
X85453000Y-137579000D03*
X83203000Y-139179000D03*
X85453000Y-139179000D03*
D13*
X84328000Y-136779000D03*
G04 #@! TD*
D15*
G04 #@! TO.N,GND*
G04 #@! TO.C,U4*
X69342000Y-87626000D03*
D16*
X68717000Y-88251000D03*
X68717000Y-87001000D03*
X69967000Y-88251000D03*
X69967000Y-87001000D03*
G04 #@! TD*
G04 #@! TO.N,GND*
G04 #@! TO.C,U5*
X69967000Y-97038000D03*
X69967000Y-98288000D03*
X68717000Y-97038000D03*
X68717000Y-98288000D03*
D15*
X69342000Y-97663000D03*
G04 #@! TD*
G04 #@! TO.N,GND*
G04 #@! TO.C,U6*
X69342000Y-110490000D03*
D16*
X68717000Y-111115000D03*
X68717000Y-109865000D03*
X69967000Y-111115000D03*
X69967000Y-109865000D03*
G04 #@! TD*
D15*
G04 #@! TO.N,GND*
G04 #@! TO.C,U7*
X69401000Y-120718000D03*
D16*
X68776000Y-121343000D03*
X68776000Y-120093000D03*
X70026000Y-121343000D03*
X70026000Y-120093000D03*
G04 #@! TD*
D15*
G04 #@! TO.N,GND*
G04 #@! TO.C,U8*
X82042000Y-87253000D03*
D16*
X82667000Y-86628000D03*
X82667000Y-87878000D03*
X81417000Y-86628000D03*
X81417000Y-87878000D03*
G04 #@! TD*
D15*
G04 #@! TO.N,GND*
G04 #@! TO.C,U9*
X81661000Y-97282000D03*
D16*
X82286000Y-96657000D03*
X82286000Y-97907000D03*
X81036000Y-96657000D03*
X81036000Y-97907000D03*
G04 #@! TD*
G04 #@! TO.N,GND*
G04 #@! TO.C,U10*
X81925000Y-109845000D03*
X81925000Y-108595000D03*
X83175000Y-109845000D03*
X83175000Y-108595000D03*
D15*
X82550000Y-109220000D03*
G04 #@! TD*
D16*
G04 #@! TO.N,GND*
G04 #@! TO.C,U11*
X81798000Y-120767000D03*
X81798000Y-119517000D03*
X83048000Y-120767000D03*
X83048000Y-119517000D03*
D15*
X82423000Y-120142000D03*
G04 #@! TD*
D16*
G04 #@! TO.N,GND*
G04 #@! TO.C,U12*
X75047000Y-91704000D03*
X75047000Y-92954000D03*
X73797000Y-91704000D03*
X73797000Y-92954000D03*
D15*
X74422000Y-92329000D03*
G04 #@! TD*
G04 #@! TO.N,GND*
G04 #@! TO.C,U13*
X74168000Y-102997000D03*
D16*
X73543000Y-103622000D03*
X73543000Y-102372000D03*
X74793000Y-103622000D03*
X74793000Y-102372000D03*
G04 #@! TD*
G04 #@! TO.N,GND*
G04 #@! TO.C,U14*
X75174000Y-114691000D03*
X75174000Y-115941000D03*
X73924000Y-114691000D03*
X73924000Y-115941000D03*
D15*
X74549000Y-115316000D03*
G04 #@! TD*
G04 #@! TO.N,GND*
G04 #@! TO.C,U15*
X74236000Y-125798000D03*
D16*
X73611000Y-126423000D03*
X73611000Y-125173000D03*
X74861000Y-126423000D03*
X74861000Y-125173000D03*
G04 #@! TD*
G04 #@! TO.N,GND*
G04 #@! TO.C,U16*
X87386000Y-92954000D03*
X87386000Y-91704000D03*
X88636000Y-92954000D03*
X88636000Y-91704000D03*
D15*
X88011000Y-92329000D03*
G04 #@! TD*
D16*
G04 #@! TO.N,GND*
G04 #@! TO.C,U17*
X87386000Y-102987000D03*
X87386000Y-101737000D03*
X88636000Y-102987000D03*
X88636000Y-101737000D03*
D15*
X88011000Y-102362000D03*
G04 #@! TD*
G04 #@! TO.N,GND*
G04 #@! TO.C,U18*
X87943000Y-114495000D03*
D16*
X88568000Y-113870000D03*
X88568000Y-115120000D03*
X87318000Y-113870000D03*
X87318000Y-115120000D03*
G04 #@! TD*
G04 #@! TO.N,GND*
G04 #@! TO.C,U19*
X87386000Y-125974000D03*
X87386000Y-124724000D03*
X88636000Y-125974000D03*
X88636000Y-124724000D03*
D15*
X88011000Y-125349000D03*
G04 #@! TD*
D17*
G04 #@! TO.N,GND*
X67691000Y-89154000D03*
X67564000Y-99187000D03*
X67564000Y-112014000D03*
X67564000Y-122198200D03*
X81280000Y-83439000D03*
X87249000Y-88392000D03*
X81026000Y-93345000D03*
X87249000Y-110490000D03*
X87249000Y-98552000D03*
X81661000Y-116205000D03*
X77089000Y-130429000D03*
X74549000Y-141859000D03*
X89662000Y-112903000D03*
X91821000Y-121793000D03*
X74639429Y-106770429D03*
X85344000Y-94488000D03*
X74676000Y-84582000D03*
X69087999Y-104477200D03*
X76598041Y-119888000D03*
X87249000Y-119126000D03*
X86995000Y-85598000D03*
X78778011Y-130810000D03*
X91694000Y-98806000D03*
X91694000Y-88646000D03*
X88265000Y-108204000D03*
X80285930Y-103483070D03*
X70231000Y-129413000D03*
X87192153Y-121228153D03*
X78296580Y-96651317D03*
X77851000Y-138938000D03*
G04 #@! TO.N,+3V3*
X69088000Y-84963000D03*
X70935500Y-86163500D03*
X76134500Y-90866500D03*
X74041000Y-89789000D03*
X69088000Y-95123000D03*
X70993000Y-96012000D03*
X69088000Y-118110000D03*
X74295000Y-112776000D03*
X73914000Y-100330000D03*
X75819000Y-101346000D03*
X74022047Y-123107690D03*
X75865000Y-124033000D03*
X82296000Y-89789000D03*
X80472000Y-88946000D03*
X88265000Y-94869000D03*
X86487000Y-93980000D03*
X76138500Y-113853500D03*
X81915000Y-99822000D03*
X80010000Y-98806000D03*
X82804000Y-111760000D03*
X80899000Y-110871000D03*
X82677000Y-122682000D03*
X80772000Y-121793000D03*
X88138000Y-117094000D03*
X88265000Y-105029000D03*
X86360000Y-103886000D03*
X88265000Y-127889000D03*
X86360000Y-126873000D03*
X75692000Y-133477000D03*
X74930000Y-131445000D03*
X85598000Y-131953000D03*
X77851000Y-137795000D03*
X70739000Y-118491000D03*
X86360000Y-115951000D03*
X88646000Y-135128000D03*
X69215000Y-106680000D03*
X78486000Y-133858000D03*
X75438000Y-86995000D03*
X77216000Y-109855000D03*
X70739000Y-108712000D03*
X88392000Y-131191000D03*
G04 #@! TO.N,+24V*
X65659000Y-114173000D03*
X65532000Y-101346000D03*
X65532000Y-91186000D03*
X65659000Y-124206000D03*
X89535000Y-90805000D03*
X72390000Y-104521000D03*
X72771000Y-116840000D03*
X91694000Y-111506000D03*
X89662000Y-100838000D03*
X89535000Y-123825000D03*
X84074000Y-118491000D03*
X72898000Y-93853000D03*
X83693000Y-85598000D03*
X85230278Y-96265295D03*
X77724000Y-84582000D03*
X88519000Y-107061000D03*
X88519000Y-84963000D03*
X71755000Y-128524000D03*
X84061300Y-107518200D03*
D18*
G04 #@! TO.N,/SOUT*
X86134002Y-135255000D03*
X86106000Y-144526000D03*
G04 #@! TO.N,/SCLK*
X79677129Y-134493000D03*
X78740000Y-147193000D03*
X65913000Y-147320000D03*
G04 #@! TO.N,/XLAT*
X79375000Y-133858000D03*
X76200000Y-147701000D03*
X63246000Y-147574000D03*
D17*
G04 #@! TO.N,/OUT_1b*
X94107000Y-86360000D03*
G04 #@! TO.N,/OUT_3b*
X94107000Y-91186000D03*
G04 #@! TO.N,/OUT_5b*
X94107000Y-96393000D03*
G04 #@! TO.N,/OUT_7b*
X93980000Y-101473000D03*
G04 #@! TO.N,/OUT_9b*
X94107000Y-109093000D03*
G04 #@! TO.N,/OUT_11b*
X93980000Y-114046000D03*
G04 #@! TO.N,/OUT_13b*
X94107000Y-119126000D03*
G04 #@! TO.N,/OUT_15b*
X93980000Y-124206000D03*
D18*
G04 #@! TO.N,/H15a*
X80137000Y-137160000D03*
X80391000Y-125603000D03*
G04 #@! TO.N,/H14a*
X76439230Y-125588230D03*
X75425300Y-136436100D03*
G04 #@! TO.N,/H13a*
X80137000Y-138430000D03*
X80010000Y-120396000D03*
G04 #@! TO.N,/H12a*
X75438000Y-137668000D03*
X72944821Y-121158000D03*
G04 #@! TO.N,/H11a*
X80137000Y-139700000D03*
X83217093Y-114719100D03*
G04 #@! TO.N,/H10a*
X75438000Y-139014203D03*
X76962000Y-115062000D03*
G04 #@! TO.N,/H9a*
X80137000Y-140970000D03*
X82750589Y-127381000D03*
X78613000Y-109601000D03*
X78613000Y-127381000D03*
G04 #@! TO.N,/H8a*
X75438000Y-140335000D03*
X72898000Y-110270100D03*
G04 #@! TO.N,/H7a*
X88646000Y-140335000D03*
X85050138Y-102581900D03*
G04 #@! TO.N,/H6a*
X67056000Y-141097000D03*
X76581000Y-102743000D03*
X74295000Y-111887000D03*
X71829864Y-111920557D03*
G04 #@! TO.N,/H5a*
X88646000Y-139065000D03*
X80010000Y-113411000D03*
X78486000Y-97409000D03*
X83587380Y-113528021D03*
G04 #@! TO.N,/H4a*
X67056000Y-139700000D03*
X72136000Y-97536000D03*
G04 #@! TO.N,/H3a*
X88646000Y-137693406D03*
X84836000Y-92583000D03*
G04 #@! TO.N,/H2a*
X76976689Y-92133759D03*
X67104730Y-138351730D03*
G04 #@! TO.N,/H1a*
X88646000Y-136525000D03*
X79629000Y-87503000D03*
G04 #@! TO.N,/H0a*
X66255900Y-136982583D03*
X71628000Y-87376000D03*
G04 #@! TO.N,/H0b*
X66611510Y-136394597D03*
X72136000Y-86868000D03*
G04 #@! TO.N,/H1b*
X88646000Y-137109203D03*
X79121000Y-88011000D03*
G04 #@! TO.N,/H2b*
X76835000Y-91567000D03*
X66967121Y-137668000D03*
G04 #@! TO.N,/H3b*
X88646000Y-138303000D03*
X84963000Y-93218000D03*
G04 #@! TO.N,/H4b*
X67056000Y-139065000D03*
X72390000Y-96964510D03*
G04 #@! TO.N,/H5b*
X88646000Y-139700000D03*
X79540099Y-113775100D03*
X77978000Y-97790000D03*
X83058000Y-113775100D03*
G04 #@! TO.N,/H6b*
X67056000Y-140335000D03*
X70938191Y-119253000D03*
X72589211Y-118491000D03*
X76581000Y-102158797D03*
G04 #@! TO.N,/H7b*
X88646000Y-140970000D03*
X85598000Y-103124000D03*
G04 #@! TO.N,/H8b*
X75438000Y-140970000D03*
X72502963Y-109770100D03*
G04 #@! TO.N,/H9b*
X79121000Y-109982000D03*
X79121000Y-126873000D03*
X80137000Y-140335000D03*
X82394979Y-126852971D03*
G04 #@! TO.N,/H10b*
X75438000Y-139700000D03*
X76962000Y-114427000D03*
G04 #@! TO.N,/H11b*
X80137000Y-139014203D03*
X82804000Y-115189000D03*
G04 #@! TO.N,/H12b*
X75438000Y-138430000D03*
X72589211Y-120015000D03*
G04 #@! TO.N,/H13b*
X80137000Y-137744203D03*
X79540100Y-120904000D03*
G04 #@! TO.N,/H14b*
X75438000Y-137033000D03*
X76718764Y-125075246D03*
G04 #@! TO.N,/H15b*
X80032739Y-136398000D03*
X80032739Y-126365000D03*
G04 #@! TO.N,/PMODE*
X78105000Y-110490000D03*
X77470000Y-103251000D03*
X77470000Y-98171000D03*
X77470000Y-92583000D03*
X77470000Y-87884000D03*
X77470000Y-102108000D03*
X78090251Y-125447401D03*
X78105000Y-121666000D03*
X78105000Y-120015000D03*
X78105000Y-115570000D03*
X78105000Y-114300000D03*
X77523414Y-91927887D03*
X77851000Y-108966000D03*
X77978000Y-95631000D03*
G04 #@! TD*
D19*
G04 #@! TO.N,+3V3*
X69735000Y-84963000D02*
X70935500Y-86163500D01*
X69088000Y-84963000D02*
X69735000Y-84963000D01*
X74041000Y-89789000D02*
X75057000Y-89789000D01*
X75057000Y-89789000D02*
X76134500Y-90866500D01*
X70104000Y-95123000D02*
X70993000Y-96012000D01*
X69088000Y-95123000D02*
X70104000Y-95123000D01*
X74803000Y-100330000D02*
X75819000Y-101346000D01*
X73914000Y-100330000D02*
X74803000Y-100330000D01*
X74939690Y-123107690D02*
X75865000Y-124033000D01*
X74022047Y-123107690D02*
X74939690Y-123107690D01*
X81315000Y-89789000D02*
X80472000Y-88946000D01*
X82296000Y-89789000D02*
X81315000Y-89789000D01*
X87376000Y-94869000D02*
X86487000Y-93980000D01*
X88265000Y-94869000D02*
X87376000Y-94869000D01*
X75061000Y-112776000D02*
X76138500Y-113853500D01*
X74295000Y-112776000D02*
X75061000Y-112776000D01*
X81026000Y-99822000D02*
X80010000Y-98806000D01*
X81915000Y-99822000D02*
X81026000Y-99822000D01*
X81788000Y-111760000D02*
X80899000Y-110871000D01*
X82804000Y-111760000D02*
X81788000Y-111760000D01*
X81661000Y-122682000D02*
X80772000Y-121793000D01*
X82677000Y-122682000D02*
X81661000Y-122682000D01*
X87503000Y-105029000D02*
X86360000Y-103886000D01*
X88265000Y-105029000D02*
X87503000Y-105029000D01*
X87376000Y-127889000D02*
X86360000Y-126873000D01*
X88265000Y-127889000D02*
X87376000Y-127889000D01*
X70358000Y-118110000D02*
X69088000Y-118110000D01*
X70739000Y-118491000D02*
X70358000Y-118110000D01*
X86995000Y-115951000D02*
X88138000Y-117094000D01*
X86360000Y-115951000D02*
X86995000Y-115951000D01*
X69215000Y-107188000D02*
X70739000Y-108712000D01*
X69215000Y-106680000D02*
X69215000Y-107188000D01*
X88646000Y-131778219D02*
X88646000Y-135128000D01*
X88646000Y-131445000D02*
X88646000Y-131778219D01*
X88392000Y-131191000D02*
X88646000Y-131445000D01*
D20*
G04 #@! TO.N,/SOUT*
X86134002Y-144497998D02*
X86106000Y-144526000D01*
X86134002Y-135255000D02*
X86134002Y-144497998D01*
G04 #@! TO.N,/SCLK*
X65913000Y-139522200D02*
X64668400Y-138277600D01*
X65913000Y-147320000D02*
X65913000Y-139522200D01*
X79473930Y-134696199D02*
X79677129Y-134493000D01*
X79473930Y-138331070D02*
X79473930Y-134696199D01*
X78791699Y-146990699D02*
X78791699Y-139013301D01*
X78740000Y-147042398D02*
X78791699Y-146990699D01*
X78791699Y-139013301D02*
X79473930Y-138331070D01*
X78740000Y-147193000D02*
X78740000Y-147042398D01*
G04 #@! TO.N,/XLAT*
X63246000Y-137160000D02*
X64668400Y-135737600D01*
X63246000Y-147574000D02*
X63246000Y-137160000D01*
X76200000Y-141097000D02*
X76200000Y-147701000D01*
X76657220Y-140639780D02*
X76200000Y-141097000D01*
X76657220Y-137609872D02*
X76657220Y-140639780D01*
X77012829Y-136317889D02*
X77012829Y-137254263D01*
X77012829Y-137254263D02*
X76657220Y-137609872D01*
X79345718Y-133985000D02*
X77012829Y-136317889D01*
X79375000Y-133985000D02*
X79345718Y-133985000D01*
X79375000Y-133858000D02*
X79375000Y-133985000D01*
D19*
G04 #@! TO.N,/OUT_1b*
X94107000Y-88519000D02*
X92608400Y-90017600D01*
X94107000Y-86360000D02*
X94107000Y-88519000D01*
G04 #@! TO.N,/OUT_3b*
X94107000Y-93599000D02*
X92608400Y-95097600D01*
X94107000Y-91186000D02*
X94107000Y-93599000D01*
G04 #@! TO.N,/OUT_5b*
X94107000Y-98679000D02*
X92608400Y-100177600D01*
X94107000Y-96393000D02*
X94107000Y-98679000D01*
G04 #@! TO.N,/OUT_7b*
X93980000Y-103886000D02*
X92608400Y-105257600D01*
X93980000Y-101473000D02*
X93980000Y-103886000D01*
G04 #@! TO.N,/OUT_9b*
X94107000Y-111379000D02*
X92608400Y-112877600D01*
X94107000Y-109093000D02*
X94107000Y-111379000D01*
G04 #@! TO.N,/OUT_11b*
X93980000Y-116586000D02*
X92608400Y-117957600D01*
X93980000Y-114046000D02*
X93980000Y-116586000D01*
G04 #@! TO.N,/OUT_13b*
X94107000Y-121539000D02*
X92608400Y-123037600D01*
X94107000Y-119126000D02*
X94107000Y-121539000D01*
G04 #@! TO.N,/OUT_15b*
X93980000Y-126746000D02*
X92608400Y-128117600D01*
X93980000Y-124206000D02*
X93980000Y-126746000D01*
D20*
G04 #@! TO.N,/H15a*
X80502639Y-125714639D02*
X80391000Y-125603000D01*
X80502639Y-136794361D02*
X80502639Y-125714639D01*
X80137000Y-137160000D02*
X80502639Y-136794361D01*
G04 #@! TO.N,/H14a*
X76003091Y-126024369D02*
X76439230Y-125588230D01*
X75438000Y-132715000D02*
X76003091Y-132149909D01*
X75025299Y-133156983D02*
X75438000Y-132715000D01*
X75025299Y-136036099D02*
X75025299Y-133156983D01*
X76003091Y-132149909D02*
X76003091Y-126024369D01*
X75425300Y-136436100D02*
X75025299Y-136036099D01*
G04 #@! TO.N,/H13a*
X80010000Y-123698000D02*
X80010000Y-120396000D01*
X81216511Y-124904511D02*
X80010000Y-123698000D01*
X81216511Y-125975851D02*
X81216511Y-124904511D01*
X81213859Y-125978503D02*
X81216511Y-125975851D01*
X81213856Y-137640512D02*
X80424368Y-138430000D01*
X81213859Y-136331859D02*
X81213856Y-137640512D01*
X80424368Y-138430000D02*
X80137000Y-138430000D01*
X81213859Y-136331859D02*
X81213859Y-125978503D01*
G04 #@! TO.N,/H12a*
X75438000Y-137668000D02*
X75311000Y-137668000D01*
X75438000Y-137668000D02*
X74930000Y-137668000D01*
X74422000Y-137668000D02*
X74005529Y-137251529D01*
X74930000Y-137668000D02*
X74422000Y-137668000D01*
X74005529Y-136809379D02*
X74015610Y-136799298D01*
X74005529Y-137251529D02*
X74005529Y-136941471D01*
X74005529Y-136941471D02*
X74005529Y-136809379D01*
X74015610Y-136799298D02*
X74015609Y-128254793D01*
X74015609Y-128254793D02*
X72830531Y-127069715D01*
X72830531Y-127069715D02*
X72830531Y-121285000D01*
X72830531Y-121272290D02*
X72944821Y-121158000D01*
X72830531Y-121285000D02*
X72830531Y-121272290D01*
G04 #@! TO.N,/H11a*
X81925079Y-135392079D02*
X81925079Y-135001000D01*
X83312000Y-114814007D02*
X83217093Y-114719100D01*
X84740701Y-118170983D02*
X83312000Y-116742282D01*
X84740701Y-122107925D02*
X84740701Y-118170983D01*
X83312000Y-116742282D02*
X83312000Y-114814007D01*
X81927731Y-126601177D02*
X81927731Y-124920895D01*
X81925079Y-126603829D02*
X81927731Y-126601177D01*
X81927731Y-124920895D02*
X84740701Y-122107925D01*
X81925079Y-135392079D02*
X81925079Y-126603829D01*
X80424368Y-139700000D02*
X80137000Y-139700000D01*
X81925078Y-138199290D02*
X80424368Y-139700000D01*
X81925079Y-135392079D02*
X81925078Y-138199290D01*
G04 #@! TO.N,/H10a*
X75725368Y-139014203D02*
X75946000Y-138793571D01*
X75438000Y-139014203D02*
X75725368Y-139014203D01*
X75946000Y-137315276D02*
X76301610Y-136959666D01*
X75946000Y-138793571D02*
X75946000Y-137541000D01*
X75946000Y-137541000D02*
X75946000Y-137315276D01*
X76301610Y-136626610D02*
X76301610Y-135275298D01*
X76301610Y-136959666D02*
X76301610Y-136626610D01*
X76301610Y-135275298D02*
X76714311Y-134862597D01*
X76714311Y-134862597D02*
X76714311Y-133477000D01*
X76714311Y-132975311D02*
X76714311Y-132967781D01*
X76714311Y-132975311D02*
X76714311Y-132842000D01*
X76714311Y-133477000D02*
X76714311Y-133343689D01*
X76714311Y-133343689D02*
X76714311Y-132975311D01*
X77216000Y-115316000D02*
X76962000Y-115062000D01*
X77755701Y-127569219D02*
X77264741Y-127078259D01*
X77755701Y-130749017D02*
X77755701Y-127569219D01*
X76714311Y-131790407D02*
X77755701Y-130749017D01*
X76714311Y-133343689D02*
X76714311Y-131790407D01*
X77264741Y-115364741D02*
X77264741Y-115824000D01*
X77264741Y-125118315D02*
X77264741Y-125730000D01*
X77264741Y-126159741D02*
X77264741Y-124333000D01*
X77264741Y-127078259D02*
X77264741Y-126159741D01*
X77264741Y-126159741D02*
X77264741Y-125118315D01*
X77264741Y-124333000D02*
X77264741Y-118237000D01*
X77264741Y-118237000D02*
X77264741Y-115570000D01*
X77264741Y-115364741D02*
X76962000Y-115062000D01*
X77264741Y-115570000D02*
X77264741Y-115364741D01*
G04 #@! TO.N,/H9a*
X78613000Y-127000000D02*
X78613000Y-109601000D01*
X78613000Y-127381000D02*
X78613000Y-127000000D01*
X80424368Y-140970000D02*
X80137000Y-140970000D01*
X82636299Y-138758069D02*
X80424368Y-140970000D01*
X82636299Y-127495290D02*
X82636299Y-138758069D01*
X82750589Y-127381000D02*
X82636299Y-127495290D01*
G04 #@! TO.N,/H8a*
X72898000Y-115697000D02*
X72898000Y-110270100D01*
X72119311Y-117175029D02*
X72104299Y-117160017D01*
X72119311Y-127369403D02*
X72119311Y-117175029D01*
X72130908Y-127381000D02*
X72119311Y-127369403D01*
X73191850Y-128436850D02*
X72136000Y-127381000D01*
X72104299Y-117160017D02*
X72104299Y-116490701D01*
X73294311Y-139466403D02*
X73294310Y-128573684D01*
X72104299Y-116490701D02*
X72898000Y-115697000D01*
X73294310Y-128573684D02*
X73191850Y-128471224D01*
X74162908Y-140335000D02*
X73294311Y-139466403D01*
X72136000Y-127381000D02*
X72130908Y-127381000D01*
X73191850Y-128471224D02*
X73191850Y-128436850D01*
X75438000Y-140335000D02*
X74162908Y-140335000D01*
G04 #@! TO.N,/H7a*
X88933368Y-140335000D02*
X88646000Y-140335000D01*
X90684310Y-138584058D02*
X88933368Y-140335000D01*
X90684310Y-112377120D02*
X90684310Y-138584058D01*
X85807529Y-107500339D02*
X90684310Y-112377120D01*
X85807529Y-106807087D02*
X85807529Y-107500339D01*
X85128099Y-106127657D02*
X85807529Y-106807087D01*
X85128099Y-102659861D02*
X85128099Y-106127657D01*
X85050138Y-102581900D02*
X85128099Y-102659861D01*
G04 #@! TO.N,/H6a*
X67343368Y-141097000D02*
X68859458Y-139580910D01*
X67056000Y-141097000D02*
X67343368Y-141097000D01*
X68859458Y-139580910D02*
X68859458Y-139321818D01*
X68859458Y-139321818D02*
X68859458Y-136804458D01*
X68859458Y-136804458D02*
X68859458Y-136398000D01*
X76581000Y-109601000D02*
X76581000Y-102743000D01*
X74295000Y-111887000D02*
X76581000Y-109601000D01*
X68859458Y-129416824D02*
X68859458Y-136804458D01*
X71408091Y-126868191D02*
X68859458Y-129416824D01*
X71408091Y-117469625D02*
X71408091Y-117636091D01*
X71408091Y-117636091D02*
X71408091Y-126868191D01*
X71944154Y-112034847D02*
X71829864Y-111920557D01*
X71944154Y-115645030D02*
X71944154Y-112034847D01*
X71393080Y-116196104D02*
X71944154Y-115645030D01*
X71393079Y-117454613D02*
X71393080Y-116196104D01*
X71408091Y-117469625D02*
X71393079Y-117454613D01*
G04 #@! TO.N,/H5a*
X86969610Y-135534390D02*
X86969609Y-131834983D01*
X86969610Y-135534390D02*
X86969610Y-135266750D01*
X86969609Y-131834983D02*
X86152313Y-131017687D01*
X86152313Y-131017687D02*
X85807530Y-130672903D01*
X80010000Y-110357908D02*
X80270311Y-110097597D01*
X80010000Y-113411000D02*
X80010000Y-110357908D01*
X80270311Y-110097597D02*
X80270310Y-107072402D01*
X85194721Y-122659721D02*
X85451920Y-122402522D01*
X85451921Y-122402521D02*
X85194721Y-122659721D01*
X85451920Y-122402522D02*
X85067721Y-122786721D01*
X80270310Y-107072402D02*
X80007454Y-106809546D01*
X80007454Y-106809546D02*
X79121000Y-105923092D01*
X78549511Y-98488511D02*
X78549511Y-98167943D01*
X80007454Y-106804454D02*
X78549511Y-105346511D01*
X80007454Y-106809546D02*
X80007454Y-106804454D01*
X78549511Y-105346511D02*
X78549511Y-99250511D01*
X78549511Y-99250511D02*
X78549511Y-98996511D01*
X78549511Y-99250511D02*
X78549511Y-97759879D01*
X78549511Y-98167943D02*
X78549511Y-97759879D01*
X78486000Y-97696368D02*
X78486000Y-97409000D01*
X78549511Y-97759879D02*
X78486000Y-97696368D01*
X85004221Y-122850221D02*
X85194721Y-122659721D01*
X84626469Y-123227973D02*
X85004221Y-122850221D01*
X84626469Y-129491843D02*
X84626469Y-123227973D01*
X86152313Y-131017687D02*
X84626469Y-129491843D01*
X84048610Y-113989251D02*
X83587380Y-113528021D01*
X84048610Y-116473078D02*
X84048610Y-113989251D01*
X85451919Y-117876387D02*
X84048610Y-116473078D01*
X85451920Y-122402522D02*
X85451919Y-117876387D01*
X86969610Y-137388610D02*
X88646000Y-139065000D01*
X86969610Y-135534390D02*
X86969610Y-137388610D01*
G04 #@! TO.N,/H4a*
X67343368Y-139700000D02*
X68148238Y-138895128D01*
X67056000Y-139700000D02*
X67343368Y-139700000D01*
X68148238Y-138895128D02*
X68148239Y-135910297D01*
X68148239Y-135910297D02*
X68148239Y-128981239D01*
X68148239Y-128981239D02*
X68148239Y-128651000D01*
X72003908Y-97536000D02*
X72136000Y-97536000D01*
X71551830Y-97988078D02*
X72003908Y-97536000D01*
X71551830Y-98882170D02*
X71551830Y-97988078D01*
X71551830Y-99191956D02*
X71551830Y-98882170D01*
X71761311Y-111293657D02*
X71761311Y-107956311D01*
X68326000Y-114728967D02*
X71761311Y-111293657D01*
X68326000Y-118364000D02*
X68326000Y-114728967D01*
X70166062Y-119253000D02*
X69215000Y-119253000D01*
X70542701Y-119629639D02*
X70166062Y-119253000D01*
X70542701Y-121862299D02*
X70542701Y-119629639D01*
X71761311Y-107956311D02*
X71551829Y-107746829D01*
X69215000Y-119253000D02*
X68326000Y-118364000D01*
X68148239Y-124256761D02*
X70542701Y-121862299D01*
X68148239Y-128981239D02*
X68148239Y-124256761D01*
X71551830Y-99771170D02*
X71551829Y-99771171D01*
X71551830Y-98120170D02*
X71551830Y-99771170D01*
X71551829Y-99771171D02*
X71551829Y-99644171D01*
X71551829Y-107746829D02*
X71551829Y-99771171D01*
G04 #@! TO.N,/H3a*
X84201000Y-93218000D02*
X84836000Y-92583000D01*
X84201000Y-106206374D02*
X84201000Y-93218000D01*
X85096310Y-107101684D02*
X84201000Y-106206374D01*
X85096311Y-109418249D02*
X85096310Y-107101684D01*
X85693299Y-125825299D02*
X85693299Y-124999701D01*
X85693299Y-123669864D02*
X85693299Y-124237701D01*
X85693299Y-124237701D02*
X85693299Y-125825299D01*
X85693299Y-125825299D02*
X85693299Y-126904701D01*
X86525452Y-119799452D02*
X86518748Y-119792748D01*
X86525452Y-122837713D02*
X86525452Y-119799452D01*
X86203082Y-123160082D02*
X86525452Y-122837713D01*
X86203082Y-123160082D02*
X85693299Y-123669864D01*
X85115440Y-109437378D02*
X85096311Y-109418249D01*
X85115440Y-116031184D02*
X85115440Y-109437378D01*
X86518748Y-117434492D02*
X85115440Y-116031184D01*
X86518748Y-119665748D02*
X86518748Y-117434492D01*
X86525452Y-119672452D02*
X86518748Y-119665748D01*
X86525452Y-119799452D02*
X86525452Y-119672452D01*
X89973091Y-131785373D02*
X85693299Y-127505581D01*
X89973091Y-136653683D02*
X89973091Y-131785373D01*
X88933368Y-137693406D02*
X89973091Y-136653683D01*
X85693299Y-127505581D02*
X85693299Y-125349000D01*
X88646000Y-137693406D02*
X88933368Y-137693406D01*
G04 #@! TO.N,/H2a*
X66851931Y-111710069D02*
X66851931Y-111506000D01*
X70840610Y-98897360D02*
X70840610Y-97654016D01*
X66851931Y-102886039D02*
X70840610Y-98897360D01*
X66851931Y-111710069D02*
X66851931Y-102886039D01*
X72000017Y-96494609D02*
X71356813Y-97137813D01*
X76976689Y-92133759D02*
X76976689Y-92507281D01*
X70840610Y-97654016D02*
X71356813Y-97137813D01*
X71356813Y-97137813D02*
X71801313Y-96693313D01*
X71801313Y-96693313D02*
X72000016Y-96494610D01*
X74667016Y-93827610D02*
X75656360Y-93827610D01*
X75656360Y-93827610D02*
X76105985Y-93377985D01*
X71801313Y-96693313D02*
X74667016Y-93827610D01*
X76976689Y-92507281D02*
X76105985Y-93377985D01*
X66851931Y-112577023D02*
X66851931Y-111710069D01*
X67392530Y-113117622D02*
X66851931Y-112577023D01*
X66851931Y-115475511D02*
X67392531Y-114934911D01*
X66851931Y-122731931D02*
X66851931Y-115475511D01*
X67392531Y-114934911D02*
X67392530Y-113117622D01*
X67437019Y-123317019D02*
X66851931Y-122731931D01*
X67437020Y-135641112D02*
X67437019Y-123317019D01*
X67437021Y-138019439D02*
X67437020Y-135641112D01*
X67104730Y-138351730D02*
X67437021Y-138019439D01*
G04 #@! TO.N,/H1a*
X79343299Y-101094673D02*
X79343299Y-98379971D01*
X88646000Y-136525000D02*
X87680829Y-135559829D01*
X79343299Y-98379971D02*
X79629000Y-98094270D01*
X84709000Y-109533846D02*
X84709000Y-108712000D01*
X87680829Y-131540387D02*
X85337689Y-129197247D01*
X85337689Y-129197247D02*
X85337689Y-123522567D01*
X85337689Y-123522567D02*
X86163140Y-122697118D01*
X87680829Y-135559829D02*
X87680829Y-131540387D01*
X86163140Y-122697118D02*
X86163139Y-117581791D01*
X84759830Y-116178482D02*
X84759830Y-109584676D01*
X79629000Y-98094270D02*
X79629000Y-87503000D01*
X84709000Y-108712000D02*
X84740701Y-107248983D01*
X86163139Y-117581791D02*
X84759830Y-116178482D01*
X82810311Y-104561685D02*
X79343299Y-101094673D01*
X84740701Y-107248983D02*
X82810311Y-105318593D01*
X84759830Y-109584676D02*
X84709000Y-109533846D01*
X82810311Y-105318593D02*
X82810311Y-104561685D01*
G04 #@! TO.N,/H0a*
X66255900Y-136734441D02*
X66255900Y-136982583D01*
X66141609Y-136620150D02*
X66255900Y-136734441D01*
X66325700Y-124526018D02*
X66325700Y-124206000D01*
X66141609Y-126339609D02*
X66141609Y-124710109D01*
X66141609Y-126027103D02*
X66141609Y-126339609D01*
X66141609Y-124710109D02*
X66325700Y-124526018D01*
X66141609Y-126339609D02*
X66141609Y-136620150D01*
X66325701Y-124428299D02*
X66325701Y-124526017D01*
X65785101Y-123345383D02*
X66325701Y-123885983D01*
X66198701Y-101822299D02*
X65785101Y-102235899D01*
X65785101Y-102235899D02*
X65785101Y-113029101D01*
X66325701Y-123885983D02*
X66325701Y-124428299D01*
X65785101Y-113029101D02*
X66325701Y-113569701D01*
X66198701Y-93474673D02*
X66198701Y-101822299D01*
X66325701Y-113569701D02*
X66325701Y-114493017D01*
X66325701Y-114493017D02*
X65785101Y-115033617D01*
X65785101Y-115033617D02*
X65785101Y-123345383D01*
X66805482Y-92867892D02*
X67263687Y-92409687D01*
X66805482Y-92867892D02*
X66628687Y-93044687D01*
X66628687Y-93044687D02*
X66198701Y-93474673D01*
X71628000Y-88045374D02*
X71628000Y-87376000D01*
X66628687Y-93044687D02*
X71628000Y-88045374D01*
G04 #@! TO.N,/H0b*
X72136000Y-88040282D02*
X72136000Y-86868000D01*
X66675000Y-93501282D02*
X72136000Y-88040282D01*
X66675000Y-99301378D02*
X66675000Y-93501282D01*
X66681311Y-99307689D02*
X66675000Y-99301378D01*
X66611510Y-136394597D02*
X66611510Y-136334490D01*
X66675000Y-125996620D02*
X66681310Y-125990310D01*
X66681311Y-114640315D02*
X66681311Y-113422403D01*
X66611510Y-136334490D02*
X66675000Y-136271000D01*
X66294000Y-102235000D02*
X66681311Y-101847689D01*
X66681310Y-125990310D02*
X66681310Y-123738684D01*
X66675000Y-136271000D02*
X66675000Y-125996620D01*
X66681311Y-113422403D02*
X66140711Y-112881803D01*
X66681310Y-123738684D02*
X66140711Y-123198085D01*
X66681311Y-101847689D02*
X66681311Y-99307689D01*
X66140711Y-123198085D02*
X66140711Y-115180915D01*
X66140711Y-115180915D02*
X66681311Y-114640315D01*
X66140711Y-112881803D02*
X66140711Y-102383197D01*
X66140711Y-102383197D02*
X66288908Y-102235000D01*
X66288908Y-102235000D02*
X66294000Y-102235000D01*
G04 #@! TO.N,/H1b*
X87325220Y-135585220D02*
X87325220Y-135382000D01*
X88358632Y-137109203D02*
X88646000Y-137109203D01*
X87325220Y-136075791D02*
X88358632Y-137109203D01*
X87325220Y-133527780D02*
X87325220Y-136075791D01*
X87325220Y-135585220D02*
X87325220Y-133527780D01*
X87325220Y-131687686D02*
X87325220Y-133527780D01*
X84353390Y-109753390D02*
X84404220Y-109804220D01*
X78905121Y-98315241D02*
X78905121Y-101159403D01*
X79121000Y-88011000D02*
X79121000Y-98099362D01*
X79121000Y-98099362D02*
X78905121Y-98315241D01*
X78905121Y-101159403D02*
X82454701Y-104708983D01*
X84982079Y-129344545D02*
X87325220Y-131687686D01*
X82454701Y-104708983D02*
X82454701Y-106936419D01*
X84404220Y-109804220D02*
X84404220Y-116325780D01*
X82454701Y-106936419D02*
X84353390Y-108835108D01*
X84353390Y-108835108D02*
X84353390Y-109753390D01*
X84404220Y-116325780D02*
X85807530Y-117729090D01*
X85807530Y-117729090D02*
X85807530Y-122549820D01*
X85807530Y-122549820D02*
X84982079Y-123375271D01*
X84982079Y-123375271D02*
X84982079Y-129344545D01*
G04 #@! TO.N,/H2b*
X67036921Y-124186921D02*
X67036921Y-123591387D01*
X67036921Y-124820613D02*
X67036921Y-124186921D01*
X67036921Y-123591387D02*
X66496321Y-123050787D01*
X67036921Y-113264921D02*
X66496321Y-112724321D01*
X67036921Y-113684079D02*
X67036921Y-113264921D01*
X67036921Y-113684079D02*
X67036921Y-113538000D01*
X66496321Y-112724321D02*
X66496321Y-111708321D01*
X66496321Y-111708321D02*
X66496321Y-111506000D01*
X76454000Y-91948000D02*
X76835000Y-91567000D01*
X76454000Y-92527062D02*
X76454000Y-91948000D01*
X75509062Y-93472000D02*
X76454000Y-92527062D01*
X70485000Y-97506718D02*
X74519718Y-93472000D01*
X74519718Y-93472000D02*
X75509062Y-93472000D01*
X70485000Y-98750062D02*
X70485000Y-97506718D01*
X66496321Y-102738741D02*
X70485000Y-98750062D01*
X66496321Y-111708321D02*
X66496321Y-102738741D01*
X67081411Y-136296411D02*
X67081411Y-135788409D01*
X67081411Y-136880589D02*
X67081411Y-136296411D01*
X67081411Y-136296411D02*
X67081411Y-135788411D01*
X67081411Y-135788411D02*
X67081411Y-125755411D01*
X67036921Y-114787613D02*
X67036921Y-113684079D01*
X66496321Y-115328213D02*
X67036921Y-114787613D01*
X66496321Y-123050787D02*
X66496321Y-115328213D01*
X67081411Y-123635877D02*
X66496321Y-123050787D01*
X67081411Y-125755411D02*
X67081411Y-123635877D01*
X67081411Y-137266342D02*
X67081411Y-136880589D01*
X66967121Y-137668000D02*
X66967121Y-137629879D01*
X67081412Y-137515589D02*
X67081412Y-137033001D01*
X66967121Y-137629879D02*
X67081412Y-137515589D01*
G04 #@! TO.N,/H3b*
X90328701Y-112524419D02*
X90328701Y-113223017D01*
X86184141Y-108379859D02*
X90328701Y-112524419D01*
X86801984Y-108997702D02*
X86184141Y-108379859D01*
X84582000Y-106084466D02*
X84582000Y-103251000D01*
X84582000Y-103251000D02*
X84556610Y-93624390D01*
X85451919Y-106954385D02*
X84582000Y-106084466D01*
X84556610Y-93624390D02*
X84963000Y-93218000D01*
X85451919Y-107647637D02*
X85451919Y-106954385D01*
X86184141Y-108379859D02*
X85451919Y-107647637D01*
X88933368Y-138303000D02*
X88646000Y-138303000D01*
X90328701Y-136907667D02*
X88933368Y-138303000D01*
X90328701Y-112524419D02*
X90328701Y-136907667D01*
G04 #@! TO.N,/H4b*
X67792630Y-137434276D02*
X67792629Y-134467629D01*
X67792629Y-138328371D02*
X67792630Y-137434276D01*
X67056000Y-139065000D02*
X67792629Y-138328371D01*
X67792629Y-129057371D02*
X67792629Y-128778000D01*
X71196220Y-99044658D02*
X71196220Y-97801314D01*
X72033024Y-96964510D02*
X72390000Y-96964510D01*
X71196220Y-97801314D02*
X71608267Y-97389267D01*
X71608267Y-97389267D02*
X72033024Y-96964510D01*
X68230701Y-122518217D02*
X68230701Y-121951701D01*
X67792629Y-129311371D02*
X67792629Y-129057371D01*
X67792629Y-134467629D02*
X67792629Y-129311371D01*
X68230701Y-121507299D02*
X68230701Y-122523299D01*
X68230701Y-121507299D02*
X68230701Y-121951701D01*
X68230701Y-118771609D02*
X68230701Y-121507299D01*
X68230701Y-118771609D02*
X68230701Y-122518217D01*
X67792629Y-124942629D02*
X67792630Y-124109462D01*
X67792629Y-129311371D02*
X67792629Y-124942629D01*
X67970391Y-118511299D02*
X67970391Y-118465610D01*
X68230701Y-118771609D02*
X67970391Y-118511299D01*
X68230701Y-123671391D02*
X68230701Y-118771609D01*
X67792630Y-124109462D02*
X68230701Y-123671391D01*
X71196220Y-97840780D02*
X71196219Y-99044659D01*
X67970390Y-114581669D02*
X67970390Y-118516390D01*
X69559030Y-112993030D02*
X67970390Y-114581669D01*
X68199000Y-118745000D02*
X67970390Y-118511298D01*
X68230701Y-118771609D02*
X68199000Y-118745000D01*
X68963296Y-113588763D02*
X69559030Y-112993030D01*
X67970390Y-118516390D02*
X68199000Y-118745000D01*
X71196219Y-104816845D02*
X71196219Y-104571781D01*
X71196219Y-104571781D02*
X71196219Y-99044659D01*
X71405701Y-111146359D02*
X69559030Y-112993030D01*
X71405701Y-108108701D02*
X71405701Y-111146359D01*
X71196219Y-107899219D02*
X71405701Y-108108701D01*
X71196219Y-104571781D02*
X71196219Y-107899219D01*
G04 #@! TO.N,/H5b*
X86603903Y-134884097D02*
X86614000Y-135128000D01*
X86614000Y-135128000D02*
X86614000Y-135636000D01*
X79540099Y-113775100D02*
X79540099Y-110324901D01*
X79914701Y-109950299D02*
X79914701Y-107219701D01*
X79540099Y-110324901D02*
X79914701Y-109950299D01*
X85096311Y-122255223D02*
X84816267Y-122535267D01*
X79375000Y-106680000D02*
X78486000Y-105791000D01*
X79914701Y-107219701D02*
X79375000Y-106680000D01*
X78193901Y-98005901D02*
X77978000Y-97790000D01*
X78193901Y-105498901D02*
X78193901Y-98005901D01*
X79375000Y-106680000D02*
X78193901Y-105498901D01*
X84625767Y-122725767D02*
X84816267Y-122535267D01*
X84270859Y-123080675D02*
X84625767Y-122725767D01*
X84270859Y-129639141D02*
X84270859Y-123080675D01*
X86614000Y-131982282D02*
X84270859Y-129639141D01*
X86614000Y-135636000D02*
X86614000Y-131982282D01*
X85096310Y-122255224D02*
X84816267Y-122535267D01*
X85096310Y-118023684D02*
X85096311Y-118624311D01*
X83693000Y-116620374D02*
X85096310Y-118023684D01*
X83693000Y-114427000D02*
X83693000Y-116620374D01*
X83185000Y-113919000D02*
X83693000Y-114427000D01*
X85096311Y-118624311D02*
X85096310Y-122255224D01*
X83185000Y-113902100D02*
X83185000Y-113919000D01*
X83058000Y-113775100D02*
X83185000Y-113902100D01*
X88358632Y-139700000D02*
X88646000Y-139700000D01*
X86614000Y-137955368D02*
X88358632Y-139700000D01*
X86614000Y-135636000D02*
X86614000Y-137955368D01*
G04 #@! TO.N,/H6b*
X67343368Y-140335000D02*
X68503848Y-139174520D01*
X68503848Y-139174520D02*
X68503848Y-136474152D01*
X68503848Y-136474152D02*
X68503848Y-136194847D01*
X71052481Y-119367290D02*
X70938191Y-119253000D01*
X71052481Y-123444000D02*
X71052481Y-119367290D01*
X68503847Y-139174521D02*
X67437000Y-140241368D01*
X67343368Y-140335000D02*
X67056000Y-140335000D01*
X67437000Y-140241368D02*
X67343368Y-140335000D01*
X68503848Y-130378152D02*
X68503849Y-129269525D01*
X68503848Y-130378152D02*
X68503847Y-139174521D01*
X68503849Y-129269525D02*
X71052481Y-126720893D01*
X71052481Y-126720893D02*
X71052481Y-125670519D01*
X71052481Y-125670519D02*
X71052481Y-123444000D01*
X71052481Y-126056611D02*
X71052481Y-125670519D01*
X73437701Y-117160017D02*
X72589211Y-118008507D01*
X73437701Y-116519983D02*
X73437701Y-117160017D01*
X73279000Y-116361282D02*
X73437701Y-116519983D01*
X73279000Y-112207546D02*
X73279000Y-116361282D01*
X76111099Y-109375447D02*
X73279000Y-112207546D01*
X76111099Y-102341330D02*
X76111099Y-109375447D01*
X72589211Y-118008507D02*
X72589211Y-118491000D01*
X76293632Y-102158797D02*
X76111099Y-102341330D01*
X76581000Y-102158797D02*
X76293632Y-102158797D01*
G04 #@! TO.N,/H7b*
X89615184Y-140288184D02*
X90220827Y-139682539D01*
X88933368Y-140970000D02*
X89615184Y-140288184D01*
X91039919Y-112229821D02*
X91039920Y-113517612D01*
X86163139Y-107353041D02*
X91039919Y-112229821D01*
X86163139Y-106659789D02*
X86163139Y-107353041D01*
X85598000Y-106094650D02*
X86163139Y-106659789D01*
X85598000Y-103124000D02*
X85598000Y-106094650D01*
X88933368Y-140970000D02*
X88646000Y-140970000D01*
X91039919Y-138863449D02*
X88933368Y-140970000D01*
X91039920Y-137902920D02*
X91039919Y-138863449D01*
X91039920Y-113517612D02*
X91039920Y-137902920D01*
G04 #@! TO.N,/H8b*
X72299764Y-109973299D02*
X72299764Y-115792328D01*
X72502963Y-109770100D02*
X72299764Y-109973299D01*
X74295000Y-140970000D02*
X75438000Y-140970000D01*
X72938701Y-139613701D02*
X74295000Y-140970000D01*
X72938701Y-128720983D02*
X72938701Y-139613701D01*
X71882000Y-127635000D02*
X72938701Y-128720983D01*
X71763701Y-117322327D02*
X71763701Y-127516701D01*
X71748689Y-117307315D02*
X71763701Y-117322327D01*
X71748689Y-116343403D02*
X71748689Y-117307315D01*
X71763701Y-127516701D02*
X71882000Y-127635000D01*
X72299764Y-115792328D02*
X71748689Y-116343403D01*
G04 #@! TO.N,/H9b*
X79070199Y-110032801D02*
X79121000Y-109982000D01*
X79070199Y-126534831D02*
X79070199Y-110032801D01*
X79121000Y-126585632D02*
X79070199Y-126534831D01*
X79121000Y-126873000D02*
X79121000Y-126585632D01*
X80424368Y-140335000D02*
X80137000Y-140335000D01*
X82280687Y-138478681D02*
X80424368Y-140335000D01*
X82280689Y-137175311D02*
X82280687Y-138478681D01*
X82280689Y-126967261D02*
X82280689Y-137175311D01*
X82394979Y-126852971D02*
X82280689Y-126967261D01*
G04 #@! TO.N,/H10b*
X75725368Y-139700000D02*
X76301610Y-139123758D01*
X75438000Y-139700000D02*
X75725368Y-139700000D01*
X76301610Y-137462574D02*
X76657220Y-137106964D01*
X76301610Y-139123758D02*
X76301610Y-137462574D01*
X76657220Y-136829780D02*
X76657220Y-135422596D01*
X76657220Y-137106964D02*
X76657220Y-136829780D01*
X76657220Y-136829780D02*
X76657220Y-136565596D01*
X76893408Y-135186408D02*
X76903592Y-135186408D01*
X76657220Y-135422596D02*
X76893408Y-135186408D01*
X76893408Y-135186408D02*
X77069921Y-135009895D01*
X76903592Y-135176224D02*
X77069921Y-135009895D01*
X76903592Y-135186408D02*
X76903592Y-135176224D01*
X77089000Y-131918626D02*
X78111311Y-130896315D01*
X77069921Y-132861079D02*
X77069921Y-131937705D01*
X77069921Y-135009895D02*
X77069921Y-132861079D01*
X77069921Y-131937705D02*
X77389313Y-131618313D01*
X77069921Y-132861079D02*
X77069921Y-131972079D01*
X78111311Y-130896315D02*
X78111311Y-129787689D01*
X78111311Y-129787689D02*
X78111311Y-129667000D01*
X77620351Y-114704351D02*
X77343000Y-114427000D01*
X77620351Y-126930961D02*
X77620351Y-114704351D01*
X77343000Y-114427000D02*
X76962000Y-114427000D01*
X78111310Y-127421920D02*
X77620351Y-126930961D01*
X78111311Y-129787689D02*
X78111310Y-127421920D01*
G04 #@! TO.N,/H11b*
X81569469Y-135727531D02*
X81569469Y-135382000D01*
X81569469Y-126456531D02*
X81569469Y-135727531D01*
X81572121Y-126453879D02*
X81569469Y-126456531D01*
X81572121Y-124773597D02*
X81572121Y-126453879D01*
X83170359Y-123175359D02*
X83566000Y-122779718D01*
X83170359Y-123175359D02*
X81572121Y-124773597D01*
X83566000Y-118969718D02*
X83407299Y-118811017D01*
X83566000Y-118969718D02*
X82833282Y-118237000D01*
X83566000Y-122779718D02*
X83566000Y-119126000D01*
X83566000Y-119126000D02*
X83566000Y-118969718D01*
X82833282Y-115218282D02*
X82804000Y-115189000D01*
X82833282Y-118237000D02*
X82833282Y-115218282D01*
X80424368Y-139014203D02*
X80137000Y-139014203D01*
X81569469Y-137869102D02*
X80424368Y-139014203D01*
X81569469Y-135727531D02*
X81569469Y-137869102D01*
G04 #@! TO.N,/H12b*
X75438000Y-138430000D02*
X74930000Y-138430000D01*
X74930000Y-138430000D02*
X74295000Y-138430000D01*
X74295000Y-138430000D02*
X73649919Y-137784919D01*
X73649919Y-137784919D02*
X73649919Y-136662081D01*
X73649919Y-136662081D02*
X73660000Y-136652000D01*
X73660000Y-132715000D02*
X73660000Y-128402092D01*
X73660000Y-136652000D02*
X73660000Y-132715000D01*
X73660000Y-132715000D02*
X73660000Y-132588000D01*
X73660000Y-128402092D02*
X72474921Y-127217013D01*
X72474921Y-120129290D02*
X72589211Y-120015000D01*
X72474921Y-127217013D02*
X72474921Y-120129290D01*
G04 #@! TO.N,/H13b*
X80858249Y-136103249D02*
X80858249Y-135890000D01*
X79654390Y-121018290D02*
X79540100Y-120904000D01*
X79654390Y-123845298D02*
X79654390Y-121018290D01*
X80860901Y-125056901D02*
X80645000Y-124841000D01*
X80860901Y-125828553D02*
X80860901Y-125056901D01*
X80858249Y-125831205D02*
X80860901Y-125828553D01*
X80645000Y-124841000D02*
X79654390Y-123845298D01*
X80424368Y-137744203D02*
X80137000Y-137744203D01*
X80858247Y-137310324D02*
X80424368Y-137744203D01*
X80858249Y-135468249D02*
X80858247Y-137310324D01*
X80858249Y-136103249D02*
X80858249Y-135468249D01*
X80858249Y-135468249D02*
X80858249Y-125831205D01*
G04 #@! TO.N,/H14b*
X75725368Y-137033000D02*
X75946000Y-136812368D01*
X75438000Y-137033000D02*
X75725368Y-137033000D01*
X76358701Y-134715299D02*
X75946000Y-135128000D01*
X76358701Y-132746701D02*
X76358701Y-134715299D01*
X75946000Y-136812368D02*
X75946000Y-135128000D01*
X76358701Y-132746701D02*
X76358701Y-126333299D01*
X76909131Y-125265613D02*
X76718764Y-125075246D01*
X76909131Y-125782869D02*
X76909131Y-125265613D01*
X76358701Y-126333299D02*
X76581000Y-126111000D01*
X76581000Y-126111000D02*
X76909131Y-125782869D01*
G04 #@! TO.N,/H15b*
X80032739Y-136398000D02*
X80147029Y-136283710D01*
X80147029Y-136283710D02*
X80147029Y-136017000D01*
X80147029Y-136017000D02*
X80147029Y-126492000D01*
X80147029Y-126479290D02*
X80032739Y-126365000D01*
X80147029Y-126492000D02*
X80147029Y-126479290D01*
G04 #@! TO.N,/PMODE*
X77470000Y-97028000D02*
X77470000Y-98171000D01*
X77470000Y-87884000D02*
X77470000Y-92583000D01*
X77470000Y-102108000D02*
X77470000Y-103243000D01*
X77470000Y-98171000D02*
X77470000Y-102108000D01*
X78105000Y-125432652D02*
X78090251Y-125447401D01*
X78105000Y-121666000D02*
X78105000Y-125432652D01*
X78105000Y-120015000D02*
X78105000Y-121666000D01*
X78105000Y-115570000D02*
X78105000Y-120015000D01*
X78105000Y-114681000D02*
X78105000Y-115570000D01*
X78105000Y-114300000D02*
X78105000Y-110490000D01*
X78105000Y-114681000D02*
X78105000Y-114300000D01*
X78105000Y-109220000D02*
X77851000Y-108966000D01*
X78105000Y-110490000D02*
X78105000Y-109220000D01*
X77470000Y-93726000D02*
X77470000Y-92583000D01*
X77470000Y-94331718D02*
X77470000Y-93726000D01*
X77978000Y-94839718D02*
X77470000Y-94331718D01*
X77470000Y-96520000D02*
X77978000Y-96012000D01*
X77470000Y-97028000D02*
X77470000Y-96520000D01*
X77978000Y-95631000D02*
X77978000Y-94839718D01*
X77978000Y-96012000D02*
X77978000Y-95631000D01*
G04 #@! TD*
M02*
