M48
; DRILL file {KiCad 5.1.5+dfsg1-2build2} date Thu 06 Aug 2020 03:55:50 PM EDT
; FORMAT={-:-/ absolute / inch / decimal}
; #@! TF.CreationDate,2020-08-06T15:55:50-04:00
; #@! TF.GenerationSoftware,Kicad,Pcbnew,5.1.5+dfsg1-2build2
; #@! TF.FileFunction,Plated,1,4,PTH
FMAT,2
INCH
T1C0.0079
T2C0.0080
T3C0.0118
T4C0.0157
T5C0.0394
%
G90
G05
T1
X2.7054Y-3.8204
X2.7054Y-3.8696
X2.7546Y-3.8204
X2.7546Y-3.8696
X2.8981Y-4.9281
X2.8981Y-4.9773
X2.9473Y-4.9281
X2.9473Y-4.9773
X3.1904Y-3.8054
X3.1904Y-3.8546
X3.2396Y-3.8054
X3.2396Y-3.8546
X2.9104Y-4.5154
X2.9104Y-4.5646
X2.9596Y-4.5154
X2.9596Y-4.5646
X3.2054Y-3.4106
X3.2054Y-3.4598
X3.2546Y-3.4106
X3.2546Y-3.4598
X2.9054Y-3.6104
X2.9054Y-3.6596
X2.9546Y-3.6104
X2.9546Y-3.6596
X2.8954Y-4.0304
X2.8954Y-4.0796
X2.9446Y-4.0304
X2.9446Y-4.0796
X3.2204Y-4.7054
X3.2204Y-4.7546
X3.2696Y-4.7054
X3.2696Y-4.7546
X2.7054Y-3.4252
X2.7054Y-3.4744
X2.7546Y-3.4252
X2.7546Y-3.4744
X3.4404Y-4.9104
X3.4404Y-4.9596
X3.4896Y-4.9104
X3.4896Y-4.9596
X3.2254Y-4.2754
X3.2254Y-4.3246
X3.2746Y-4.2754
X3.2746Y-4.3246
X2.7077Y-4.7281
X2.7077Y-4.7773
X2.7569Y-4.7281
X2.7569Y-4.7773
X3.4377Y-4.4831
X3.4377Y-4.5323
X3.4869Y-4.4831
X3.4869Y-4.5323
X3.4404Y-4.0054
X3.4404Y-4.0546
X3.4896Y-4.0054
X3.4896Y-4.0546
X3.4404Y-3.6104
X3.4404Y-3.6596
X3.4896Y-3.6104
X3.4896Y-3.6596
X2.7054Y-4.3254
X2.7054Y-4.3746
X2.7546Y-4.3254
X2.7546Y-4.3746
T2
X2.49Y-5.81
X2.595Y-5.8
X2.6085Y-5.393
X2.6225Y-5.3699
X2.6365Y-5.42
X2.64Y-5.475
X2.64Y-5.5
X2.64Y-5.525
X2.64Y-5.555
X2.6419Y-5.4469
X2.7928Y-4.695
X2.82Y-3.44
X2.8279Y-4.4063
X2.84Y-3.42
X2.84Y-3.84
X2.85Y-3.8175
X2.8544Y-4.3217
X2.8578Y-4.665
X2.8578Y-4.725
X2.87Y-4.3413
X2.8718Y-4.77
X2.925Y-4.405
X2.9695Y-5.3715
X2.97Y-5.395
X2.97Y-5.42
X2.97Y-5.45
X2.97Y-5.473
X2.97Y-5.5
X2.97Y-5.525
X2.97Y-5.55
X3.0Y-5.815
X3.0094Y-4.9444
X3.015Y-4.022
X3.015Y-4.045
X3.0204Y-4.9242
X3.025Y-3.605
X3.03Y-4.505
X3.03Y-4.53
X3.0306Y-3.6273
X3.05Y-3.46
X3.05Y-3.645
X3.05Y-3.865
X3.05Y-4.02
X3.05Y-4.065
X3.0521Y-3.6192
X3.065Y-4.29
X3.07Y-3.765
X3.07Y-3.85
X3.0744Y-4.9389
X3.075Y-4.35
X3.075Y-4.5
X3.075Y-4.55
X3.075Y-4.725
X3.075Y-4.79
X3.09Y-3.835
X3.095Y-4.315
X3.095Y-5.015
X3.1Y-5.795
X3.115Y-3.465
X3.115Y-4.33
X3.115Y-4.995
X3.125Y-5.27
X3.1315Y-4.4793
X3.1315Y-4.76
X3.135Y-3.445
X3.1369Y-5.295
X3.15Y-4.465
X3.15Y-4.74
X3.1509Y-4.975
X3.1509Y-5.37
X3.155Y-5.4
X3.155Y-5.423
X3.155Y-5.45
X3.155Y-5.473
X3.155Y-5.5
X3.155Y-5.525
X3.155Y-5.55
X3.165Y-4.945
X3.2439Y-4.9942
X3.2579Y-5.015
X3.26Y-4.535
X3.27Y-4.4793
X3.2763Y-4.5165
X3.2908Y-4.4696
X3.34Y-3.645
X3.345Y-3.67
X3.3484Y-4.0387
X3.37Y-4.06
X3.39Y-5.69
X3.3911Y-5.325
X3.49Y-5.375
X3.49Y-5.398
X3.49Y-5.421
X3.49Y-5.445
X3.49Y-5.475
X3.49Y-5.5
X3.49Y-5.525
X3.49Y-5.55
T3
X2.7607Y-5.2905
X2.7607Y-5.3535
X2.7607Y-5.4165
X2.7607Y-5.4795
X2.8493Y-5.2905
X2.8493Y-5.3535
X2.8493Y-5.4165
X2.8493Y-5.4795
X3.2757Y-5.2905
X3.2757Y-5.3535
X3.2757Y-5.4165
X3.2757Y-5.4795
X3.3643Y-5.2905
X3.3643Y-5.3535
X3.3643Y-5.4165
X3.3643Y-5.4795
T4
X2.58Y-3.59
X2.58Y-3.99
X2.585Y-4.495
X2.585Y-4.89
X2.66Y-3.905
X2.66Y-4.41
X2.66Y-4.811
X2.665Y-3.51
X2.72Y-4.1133
X2.72Y-3.345
X2.72Y-3.745
X2.72Y-4.65
X2.725Y-4.2
X2.765Y-5.095
X2.785Y-4.28
X2.785Y-4.665
X2.7927Y-3.3923
X2.795Y-3.78
X2.825Y-5.06
X2.85Y-4.115
X2.865Y-4.6
X2.87Y-3.695
X2.91Y-3.95
X2.9143Y-4.8468
X2.915Y-3.535
X2.925Y-4.44
X2.935Y-5.585
X2.9386Y-4.2036
X2.94Y-3.33
X2.95Y-5.175
X2.97Y-3.425
X2.98Y-5.255
X2.985Y-3.99
X2.9868Y-4.8832
X2.9974Y-3.5774
X2.9976Y-4.4824
X3.0157Y-4.72
X3.035Y-5.135
X3.04Y-4.325
X3.06Y-3.33
X3.065Y-5.425
X3.065Y-5.47
X3.0825Y-3.8052
X3.09Y-5.27
X3.1015Y-5.15
X3.15Y-3.89
X3.1609Y-4.0741
X3.1682Y-3.5018
X3.18Y-4.795
X3.185Y-4.365
X3.19Y-3.675
X3.2Y-3.285
X3.215Y-4.575
X3.225Y-3.93
X3.24Y-3.535
X3.255Y-4.83
X3.26Y-4.4
X3.295Y-3.37
X3.3095Y-4.233
X3.31Y-4.665
X3.3555Y-3.79
X3.36Y-3.72
X3.37Y-5.195
X3.4Y-4.09
X3.4Y-4.565
X3.4Y-4.995
X3.405Y-3.7
X3.425Y-3.37
X3.4328Y-4.7728
X3.435Y-3.48
X3.435Y-3.88
X3.435Y-4.35
X3.435Y-4.69
X3.47Y-4.61
X3.475Y-3.735
X3.475Y-4.135
X3.475Y-4.26
X3.475Y-5.035
X3.48Y-5.165
X3.485Y-3.345
X3.485Y-4.215
X3.49Y-5.32
X3.525Y-3.575
X3.525Y-4.875
X3.53Y-3.97
X3.53Y-4.445
X3.61Y-3.49
X3.61Y-3.89
X3.61Y-4.39
X3.615Y-4.795
X3.7Y-3.995
X3.7Y-4.49
X3.7Y-4.89
X3.705Y-3.4
X3.705Y-3.59
X3.705Y-3.795
X3.705Y-4.295
X3.705Y-4.69
T5
X3.646Y-3.344
X3.646Y-3.444
X3.646Y-3.544
X3.646Y-3.644
X3.646Y-3.744
X3.646Y-3.844
X3.646Y-3.944
X3.646Y-4.044
X3.646Y-4.144
X3.646Y-4.244
X3.646Y-4.344
X3.646Y-4.444
X3.646Y-4.544
X3.646Y-4.644
X3.646Y-4.744
X3.646Y-4.844
X3.646Y-4.944
X3.646Y-5.044
X3.646Y-5.144
X3.646Y-5.244
X3.646Y-5.344
X3.646Y-5.444
X3.646Y-5.544
X3.646Y-5.644
X3.646Y-5.744
X2.546Y-3.344
X2.546Y-3.444
X2.546Y-3.544
X2.546Y-3.644
X2.546Y-3.744
X2.546Y-3.844
X2.546Y-3.944
X2.546Y-4.044
X2.546Y-4.144
X2.546Y-4.244
X2.546Y-4.344
X2.546Y-4.444
X2.546Y-4.544
X2.546Y-4.644
X2.546Y-4.744
X2.546Y-4.844
X2.546Y-4.944
X2.546Y-5.044
X2.546Y-5.144
X2.546Y-5.244
X2.546Y-5.344
X2.546Y-5.444
X2.546Y-5.544
X2.546Y-5.644
X2.546Y-5.744
X2.646Y-5.744
X2.746Y-5.744
X2.846Y-5.744
X2.946Y-5.744
X3.046Y-5.744
X3.146Y-5.744
X3.246Y-5.744
X3.346Y-5.744
X3.446Y-5.744
X3.546Y-5.744
X2.646Y-5.644
X2.746Y-5.644
X2.846Y-5.644
X2.946Y-5.644
X3.046Y-5.644
X3.146Y-5.644
X3.246Y-5.644
X3.346Y-5.644
X3.446Y-5.644
X3.546Y-5.644
T0
M30
