G04 #@! TF.FileFunction,Soldermask,Top*
%FSLAX46Y46*%
G04 Gerber Fmt 4.6, Leading zero omitted, Abs format (unit mm)*
G04 Created by KiCad (PCBNEW 4.0.3+e1-6302~38~ubuntu14.04.1-stable) date Fri Aug 19 15:31:16 2016*
%MOMM*%
%LPD*%
G01*
G04 APERTURE LIST*
%ADD10C,0.100000*%
%ADD11C,0.150000*%
%ADD12C,1.900000*%
%ADD13C,4.210000*%
%ADD14C,1.924000*%
%ADD15C,1.797000*%
%ADD16C,1.400000*%
%ADD17R,1.924000X1.924000*%
G04 APERTURE END LIST*
D10*
D11*
X304800000Y-16510000D02*
X304800000Y-270510000D01*
X25400000Y-16510000D02*
X25400000Y-270510000D01*
X25400000Y-270510000D02*
X304800000Y-270510000D01*
X25400000Y-16510000D02*
X304800000Y-16510000D01*
D12*
X290210000Y-256540000D03*
X272710000Y-256540000D03*
D13*
X288460000Y-264450000D03*
D12*
X269210000Y-256540000D03*
X286710000Y-256540000D03*
X283210000Y-256540000D03*
X265710000Y-256540000D03*
X290210000Y-253540000D03*
X279710000Y-256540000D03*
X286710000Y-253540000D03*
X276210000Y-256540000D03*
D13*
X267460000Y-264450000D03*
D12*
X283210000Y-253540000D03*
X279710000Y-253540000D03*
X276210000Y-253540000D03*
X272710000Y-253540000D03*
X269210000Y-253540000D03*
X265710000Y-253540000D03*
D14*
X116205000Y-243840000D03*
X118745000Y-243840000D03*
X121285000Y-243840000D03*
X123825000Y-243840000D03*
X126365000Y-243840000D03*
X128905000Y-243840000D03*
X131445000Y-243840000D03*
X133985000Y-243840000D03*
X136525000Y-243840000D03*
X136525000Y-261620000D03*
X133985000Y-261620000D03*
X131445000Y-261620000D03*
X128905000Y-261620000D03*
X126365000Y-261620000D03*
X123825000Y-261620000D03*
X121285000Y-261620000D03*
X118745000Y-261620000D03*
X116205000Y-261620000D03*
D15*
X157797500Y-240665000D03*
X157797500Y-243205000D03*
X157797500Y-245745000D03*
X157797500Y-248285000D03*
X157797500Y-250825000D03*
X157797500Y-253365000D03*
X157797500Y-255905000D03*
X157797500Y-260985000D03*
X157797500Y-263525000D03*
X157797500Y-266065000D03*
X157797500Y-268605000D03*
X157797500Y-258445000D03*
X173037500Y-258445000D03*
X173037500Y-268605000D03*
X173037500Y-266065000D03*
X173037500Y-263525000D03*
X173037500Y-260985000D03*
X173037500Y-255905000D03*
X173037500Y-253365000D03*
X173037500Y-250825000D03*
X173037500Y-248285000D03*
X173037500Y-245745000D03*
X173037500Y-243205000D03*
X173037500Y-240665000D03*
X256857500Y-234950000D03*
X256857500Y-232410000D03*
X256857500Y-229870000D03*
X256857500Y-227330000D03*
X256857500Y-224790000D03*
X256857500Y-222250000D03*
X256857500Y-219710000D03*
X256857500Y-217170000D03*
X256857500Y-214630000D03*
X256857500Y-212090000D03*
X256857500Y-209550000D03*
X256857500Y-207010000D03*
X256857500Y-204470000D03*
X256857500Y-201930000D03*
X256857500Y-199390000D03*
X256857500Y-196850000D03*
X256857500Y-194310000D03*
X256857500Y-191770000D03*
X256857500Y-189230000D03*
X256857500Y-186690000D03*
X256857500Y-184150000D03*
X256857500Y-181610000D03*
X256857500Y-179070000D03*
X256857500Y-176530000D03*
X256857500Y-173990000D03*
X228917500Y-173990000D03*
X228917500Y-176530000D03*
X228917500Y-179070000D03*
X228917500Y-181610000D03*
X228917500Y-184150000D03*
X228917500Y-186690000D03*
X228917500Y-189230000D03*
X228917500Y-191770000D03*
X228917500Y-194310000D03*
X228917500Y-196850000D03*
X228917500Y-199390000D03*
X228917500Y-201930000D03*
X228917500Y-204470000D03*
X228917500Y-207010000D03*
X228917500Y-209550000D03*
X228917500Y-212090000D03*
X228917500Y-214630000D03*
X228917500Y-217170000D03*
X228917500Y-219710000D03*
X228917500Y-222250000D03*
X228917500Y-224790000D03*
X228917500Y-227330000D03*
X228917500Y-229870000D03*
X228917500Y-232410000D03*
X228917500Y-234950000D03*
X218122500Y-234950000D03*
X218122500Y-232410000D03*
X218122500Y-229870000D03*
X218122500Y-227330000D03*
X218122500Y-224790000D03*
X218122500Y-222250000D03*
X218122500Y-219710000D03*
X218122500Y-217170000D03*
X218122500Y-214630000D03*
X218122500Y-212090000D03*
X218122500Y-209550000D03*
X218122500Y-207010000D03*
X218122500Y-204470000D03*
X218122500Y-201930000D03*
X218122500Y-199390000D03*
X218122500Y-196850000D03*
X218122500Y-194310000D03*
X218122500Y-191770000D03*
X218122500Y-189230000D03*
X218122500Y-186690000D03*
X218122500Y-184150000D03*
X218122500Y-181610000D03*
X218122500Y-179070000D03*
X218122500Y-176530000D03*
X218122500Y-173990000D03*
X190182500Y-173990000D03*
X190182500Y-176530000D03*
X190182500Y-179070000D03*
X190182500Y-181610000D03*
X190182500Y-184150000D03*
X190182500Y-186690000D03*
X190182500Y-189230000D03*
X190182500Y-191770000D03*
X190182500Y-194310000D03*
X190182500Y-196850000D03*
X190182500Y-199390000D03*
X190182500Y-201930000D03*
X190182500Y-204470000D03*
X190182500Y-207010000D03*
X190182500Y-209550000D03*
X190182500Y-212090000D03*
X190182500Y-214630000D03*
X190182500Y-217170000D03*
X190182500Y-219710000D03*
X190182500Y-222250000D03*
X190182500Y-224790000D03*
X190182500Y-227330000D03*
X190182500Y-229870000D03*
X190182500Y-232410000D03*
X190182500Y-234950000D03*
X63182500Y-234950000D03*
X63182500Y-232410000D03*
X63182500Y-229870000D03*
X63182500Y-227330000D03*
X63182500Y-224790000D03*
X63182500Y-222250000D03*
X63182500Y-219710000D03*
X63182500Y-217170000D03*
X63182500Y-214630000D03*
X63182500Y-212090000D03*
X63182500Y-209550000D03*
X63182500Y-207010000D03*
X63182500Y-204470000D03*
X63182500Y-201930000D03*
X63182500Y-199390000D03*
X63182500Y-196850000D03*
X63182500Y-194310000D03*
X63182500Y-191770000D03*
X63182500Y-189230000D03*
X63182500Y-186690000D03*
X63182500Y-184150000D03*
X63182500Y-181610000D03*
X63182500Y-179070000D03*
X63182500Y-176530000D03*
X63182500Y-173990000D03*
X35242500Y-173990000D03*
X35242500Y-176530000D03*
X35242500Y-179070000D03*
X35242500Y-181610000D03*
X35242500Y-184150000D03*
X35242500Y-186690000D03*
X35242500Y-189230000D03*
X35242500Y-191770000D03*
X35242500Y-194310000D03*
X35242500Y-196850000D03*
X35242500Y-199390000D03*
X35242500Y-201930000D03*
X35242500Y-204470000D03*
X35242500Y-207010000D03*
X35242500Y-209550000D03*
X35242500Y-212090000D03*
X35242500Y-214630000D03*
X35242500Y-217170000D03*
X35242500Y-219710000D03*
X35242500Y-222250000D03*
X35242500Y-224790000D03*
X35242500Y-227330000D03*
X35242500Y-229870000D03*
X35242500Y-232410000D03*
X35242500Y-234950000D03*
D14*
X95567500Y-20637500D03*
X93027500Y-20637500D03*
X90487500Y-20637500D03*
X87947500Y-20637500D03*
X85407500Y-20637500D03*
X82867500Y-20637500D03*
X80327500Y-20637500D03*
X95567500Y-23177500D03*
X93027500Y-23177500D03*
X90487500Y-23177500D03*
X87947500Y-23177500D03*
X85407500Y-23177500D03*
X82867500Y-23177500D03*
X80327500Y-23177500D03*
X44132500Y-37147500D03*
X41592500Y-37147500D03*
X39052500Y-37147500D03*
X36512500Y-37147500D03*
X33972500Y-37147500D03*
X31432500Y-37147500D03*
X28892500Y-37147500D03*
X44132500Y-39687500D03*
X41592500Y-39687500D03*
X39052500Y-39687500D03*
X36512500Y-39687500D03*
X33972500Y-39687500D03*
X31432500Y-39687500D03*
X28892500Y-39687500D03*
D15*
X101917500Y-234950000D03*
X101917500Y-232410000D03*
X101917500Y-229870000D03*
X101917500Y-227330000D03*
X101917500Y-224790000D03*
X101917500Y-222250000D03*
X101917500Y-219710000D03*
X101917500Y-217170000D03*
X101917500Y-214630000D03*
X101917500Y-212090000D03*
X101917500Y-209550000D03*
X101917500Y-207010000D03*
X101917500Y-204470000D03*
X101917500Y-201930000D03*
X101917500Y-199390000D03*
X101917500Y-196850000D03*
X101917500Y-194310000D03*
X101917500Y-191770000D03*
X101917500Y-189230000D03*
X101917500Y-186690000D03*
X101917500Y-184150000D03*
X101917500Y-181610000D03*
X101917500Y-179070000D03*
X101917500Y-176530000D03*
X101917500Y-173990000D03*
X73977500Y-173990000D03*
X73977500Y-176530000D03*
X73977500Y-179070000D03*
X73977500Y-181610000D03*
X73977500Y-184150000D03*
X73977500Y-186690000D03*
X73977500Y-189230000D03*
X73977500Y-191770000D03*
X73977500Y-194310000D03*
X73977500Y-196850000D03*
X73977500Y-199390000D03*
X73977500Y-201930000D03*
X73977500Y-204470000D03*
X73977500Y-207010000D03*
X73977500Y-209550000D03*
X73977500Y-212090000D03*
X73977500Y-214630000D03*
X73977500Y-217170000D03*
X73977500Y-219710000D03*
X73977500Y-222250000D03*
X73977500Y-224790000D03*
X73977500Y-227330000D03*
X73977500Y-229870000D03*
X73977500Y-232410000D03*
X73977500Y-234950000D03*
X140652500Y-234950000D03*
X140652500Y-232410000D03*
X140652500Y-229870000D03*
X140652500Y-227330000D03*
X140652500Y-224790000D03*
X140652500Y-222250000D03*
X140652500Y-219710000D03*
X140652500Y-217170000D03*
X140652500Y-214630000D03*
X140652500Y-212090000D03*
X140652500Y-209550000D03*
X140652500Y-207010000D03*
X140652500Y-204470000D03*
X140652500Y-201930000D03*
X140652500Y-199390000D03*
X140652500Y-196850000D03*
X140652500Y-194310000D03*
X140652500Y-191770000D03*
X140652500Y-189230000D03*
X140652500Y-186690000D03*
X140652500Y-184150000D03*
X140652500Y-181610000D03*
X140652500Y-179070000D03*
X140652500Y-176530000D03*
X140652500Y-173990000D03*
X112712500Y-173990000D03*
X112712500Y-176530000D03*
X112712500Y-179070000D03*
X112712500Y-181610000D03*
X112712500Y-184150000D03*
X112712500Y-186690000D03*
X112712500Y-189230000D03*
X112712500Y-191770000D03*
X112712500Y-194310000D03*
X112712500Y-196850000D03*
X112712500Y-199390000D03*
X112712500Y-201930000D03*
X112712500Y-204470000D03*
X112712500Y-207010000D03*
X112712500Y-209550000D03*
X112712500Y-212090000D03*
X112712500Y-214630000D03*
X112712500Y-217170000D03*
X112712500Y-219710000D03*
X112712500Y-222250000D03*
X112712500Y-224790000D03*
X112712500Y-227330000D03*
X112712500Y-229870000D03*
X112712500Y-232410000D03*
X112712500Y-234950000D03*
X179387500Y-234950000D03*
X179387500Y-232410000D03*
X179387500Y-229870000D03*
X179387500Y-227330000D03*
X179387500Y-224790000D03*
X179387500Y-222250000D03*
X179387500Y-219710000D03*
X179387500Y-217170000D03*
X179387500Y-214630000D03*
X179387500Y-212090000D03*
X179387500Y-209550000D03*
X179387500Y-207010000D03*
X179387500Y-204470000D03*
X179387500Y-201930000D03*
X179387500Y-199390000D03*
X179387500Y-196850000D03*
X179387500Y-194310000D03*
X179387500Y-191770000D03*
X179387500Y-189230000D03*
X179387500Y-186690000D03*
X179387500Y-184150000D03*
X179387500Y-181610000D03*
X179387500Y-179070000D03*
X179387500Y-176530000D03*
X179387500Y-173990000D03*
X151447500Y-173990000D03*
X151447500Y-176530000D03*
X151447500Y-179070000D03*
X151447500Y-181610000D03*
X151447500Y-184150000D03*
X151447500Y-186690000D03*
X151447500Y-189230000D03*
X151447500Y-191770000D03*
X151447500Y-194310000D03*
X151447500Y-196850000D03*
X151447500Y-199390000D03*
X151447500Y-201930000D03*
X151447500Y-204470000D03*
X151447500Y-207010000D03*
X151447500Y-209550000D03*
X151447500Y-212090000D03*
X151447500Y-214630000D03*
X151447500Y-217170000D03*
X151447500Y-219710000D03*
X151447500Y-222250000D03*
X151447500Y-224790000D03*
X151447500Y-227330000D03*
X151447500Y-229870000D03*
X151447500Y-232410000D03*
X151447500Y-234950000D03*
X295592500Y-234950000D03*
X295592500Y-232410000D03*
X295592500Y-229870000D03*
X295592500Y-227330000D03*
X295592500Y-224790000D03*
X295592500Y-222250000D03*
X295592500Y-219710000D03*
X295592500Y-217170000D03*
X295592500Y-214630000D03*
X295592500Y-212090000D03*
X295592500Y-209550000D03*
X295592500Y-207010000D03*
X295592500Y-204470000D03*
X295592500Y-201930000D03*
X295592500Y-199390000D03*
X295592500Y-196850000D03*
X295592500Y-194310000D03*
X295592500Y-191770000D03*
X295592500Y-189230000D03*
X295592500Y-186690000D03*
X295592500Y-184150000D03*
X295592500Y-181610000D03*
X295592500Y-179070000D03*
X295592500Y-176530000D03*
X295592500Y-173990000D03*
X267652500Y-173990000D03*
X267652500Y-176530000D03*
X267652500Y-179070000D03*
X267652500Y-181610000D03*
X267652500Y-184150000D03*
X267652500Y-186690000D03*
X267652500Y-189230000D03*
X267652500Y-191770000D03*
X267652500Y-194310000D03*
X267652500Y-196850000D03*
X267652500Y-199390000D03*
X267652500Y-201930000D03*
X267652500Y-204470000D03*
X267652500Y-207010000D03*
X267652500Y-209550000D03*
X267652500Y-212090000D03*
X267652500Y-214630000D03*
X267652500Y-217170000D03*
X267652500Y-219710000D03*
X267652500Y-222250000D03*
X267652500Y-224790000D03*
X267652500Y-227330000D03*
X267652500Y-229870000D03*
X267652500Y-232410000D03*
X267652500Y-234950000D03*
D14*
X215582500Y-37147500D03*
X213042500Y-37147500D03*
X210502500Y-37147500D03*
X207962500Y-37147500D03*
X205422500Y-37147500D03*
X202882500Y-37147500D03*
X200342500Y-37147500D03*
X215582500Y-39687500D03*
X213042500Y-39687500D03*
X210502500Y-39687500D03*
X207962500Y-39687500D03*
X205422500Y-39687500D03*
X202882500Y-39687500D03*
X200342500Y-39687500D03*
D15*
X235267500Y-240665000D03*
X235267500Y-243205000D03*
X235267500Y-245745000D03*
X235267500Y-248285000D03*
X235267500Y-250825000D03*
X235267500Y-253365000D03*
X235267500Y-255905000D03*
X235267500Y-260985000D03*
X235267500Y-263525000D03*
X235267500Y-266065000D03*
X235267500Y-268605000D03*
X235267500Y-258445000D03*
X250507500Y-258445000D03*
X250507500Y-268605000D03*
X250507500Y-266065000D03*
X250507500Y-263525000D03*
X250507500Y-260985000D03*
X250507500Y-255905000D03*
X250507500Y-253365000D03*
X250507500Y-250825000D03*
X250507500Y-248285000D03*
X250507500Y-245745000D03*
X250507500Y-243205000D03*
X250507500Y-240665000D03*
X80327500Y-240665000D03*
X80327500Y-243205000D03*
X80327500Y-245745000D03*
X80327500Y-248285000D03*
X80327500Y-250825000D03*
X80327500Y-253365000D03*
X80327500Y-255905000D03*
X80327500Y-260985000D03*
X80327500Y-263525000D03*
X80327500Y-266065000D03*
X80327500Y-268605000D03*
X80327500Y-258445000D03*
X95567500Y-258445000D03*
X95567500Y-268605000D03*
X95567500Y-266065000D03*
X95567500Y-263525000D03*
X95567500Y-260985000D03*
X95567500Y-255905000D03*
X95567500Y-253365000D03*
X95567500Y-250825000D03*
X95567500Y-248285000D03*
X95567500Y-245745000D03*
X95567500Y-243205000D03*
X95567500Y-240665000D03*
X282892500Y-232410000D03*
X293052500Y-232410000D03*
X290512500Y-232410000D03*
X287972500Y-232410000D03*
X285432500Y-232410000D03*
X280352500Y-232410000D03*
X277812500Y-232410000D03*
X275272500Y-232410000D03*
X272732500Y-232410000D03*
X270192500Y-232410000D03*
X244157500Y-232410000D03*
X254317500Y-232410000D03*
X251777500Y-232410000D03*
X249237500Y-232410000D03*
X246697500Y-232410000D03*
X241617500Y-232410000D03*
X239077500Y-232410000D03*
X236537500Y-232410000D03*
X233997500Y-232410000D03*
X231457500Y-232410000D03*
X205422500Y-232410000D03*
X215582500Y-232410000D03*
X213042500Y-232410000D03*
X210502500Y-232410000D03*
X207962500Y-232410000D03*
X202882500Y-232410000D03*
X200342500Y-232410000D03*
X197802500Y-232410000D03*
X195262500Y-232410000D03*
X192722500Y-232410000D03*
X166687500Y-232410000D03*
X176847500Y-232410000D03*
X174307500Y-232410000D03*
X171767500Y-232410000D03*
X169227500Y-232410000D03*
X164147500Y-232410000D03*
X161607500Y-232410000D03*
X159067500Y-232410000D03*
X156527500Y-232410000D03*
X153987500Y-232410000D03*
X127952500Y-232410000D03*
X138112500Y-232410000D03*
X135572500Y-232410000D03*
X133032500Y-232410000D03*
X130492500Y-232410000D03*
X125412500Y-232410000D03*
X122872500Y-232410000D03*
X120332500Y-232410000D03*
X117792500Y-232410000D03*
X115252500Y-232410000D03*
X89217500Y-232410000D03*
X99377500Y-232410000D03*
X96837500Y-232410000D03*
X94297500Y-232410000D03*
X91757500Y-232410000D03*
X86677500Y-232410000D03*
X84137500Y-232410000D03*
X81597500Y-232410000D03*
X79057500Y-232410000D03*
X76517500Y-232410000D03*
X50482500Y-232410000D03*
X60642500Y-232410000D03*
X58102500Y-232410000D03*
X55562500Y-232410000D03*
X53022500Y-232410000D03*
X47942500Y-232410000D03*
X45402500Y-232410000D03*
X42862500Y-232410000D03*
X40322500Y-232410000D03*
X37782500Y-232410000D03*
X280352500Y-234950000D03*
X270192500Y-234950000D03*
X272732500Y-234950000D03*
X275272500Y-234950000D03*
X277812500Y-234950000D03*
X282892500Y-234950000D03*
X285432500Y-234950000D03*
X287972500Y-234950000D03*
X290512500Y-234950000D03*
X293052500Y-234950000D03*
X241617500Y-234950000D03*
X231457500Y-234950000D03*
X233997500Y-234950000D03*
X236537500Y-234950000D03*
X239077500Y-234950000D03*
X244157500Y-234950000D03*
X246697500Y-234950000D03*
X249237500Y-234950000D03*
X251777500Y-234950000D03*
X254317500Y-234950000D03*
X202882500Y-234950000D03*
X192722500Y-234950000D03*
X195262500Y-234950000D03*
X197802500Y-234950000D03*
X200342500Y-234950000D03*
X205422500Y-234950000D03*
X207962500Y-234950000D03*
X210502500Y-234950000D03*
X213042500Y-234950000D03*
X215582500Y-234950000D03*
X164147500Y-234950000D03*
X153987500Y-234950000D03*
X156527500Y-234950000D03*
X159067500Y-234950000D03*
X161607500Y-234950000D03*
X166687500Y-234950000D03*
X169227500Y-234950000D03*
X171767500Y-234950000D03*
X174307500Y-234950000D03*
X176847500Y-234950000D03*
X125412500Y-234950000D03*
X115252500Y-234950000D03*
X117792500Y-234950000D03*
X120332500Y-234950000D03*
X122872500Y-234950000D03*
X127952500Y-234950000D03*
X130492500Y-234950000D03*
X133032500Y-234950000D03*
X135572500Y-234950000D03*
X138112500Y-234950000D03*
X86677500Y-234950000D03*
X76517500Y-234950000D03*
X79057500Y-234950000D03*
X81597500Y-234950000D03*
X84137500Y-234950000D03*
X89217500Y-234950000D03*
X91757500Y-234950000D03*
X94297500Y-234950000D03*
X96837500Y-234950000D03*
X99377500Y-234950000D03*
X47942500Y-234950000D03*
X37782500Y-234950000D03*
X40322500Y-234950000D03*
X42862500Y-234950000D03*
X45402500Y-234950000D03*
X50482500Y-234950000D03*
X53022500Y-234950000D03*
X55562500Y-234950000D03*
X58102500Y-234950000D03*
X60642500Y-234950000D03*
D14*
X112712500Y-37147500D03*
X110172500Y-37147500D03*
X107632500Y-37147500D03*
X105092500Y-37147500D03*
X102552500Y-37147500D03*
X100012500Y-37147500D03*
X97472500Y-37147500D03*
X112712500Y-39687500D03*
X110172500Y-39687500D03*
X107632500Y-39687500D03*
X105092500Y-39687500D03*
X102552500Y-39687500D03*
X100012500Y-39687500D03*
X97472500Y-39687500D03*
X181292500Y-37147500D03*
X178752500Y-37147500D03*
X176212500Y-37147500D03*
X173672500Y-37147500D03*
X171132500Y-37147500D03*
X168592500Y-37147500D03*
X166052500Y-37147500D03*
X181292500Y-39687500D03*
X178752500Y-39687500D03*
X176212500Y-39687500D03*
X173672500Y-39687500D03*
X171132500Y-39687500D03*
X168592500Y-39687500D03*
X166052500Y-39687500D03*
X249872500Y-37147500D03*
X247332500Y-37147500D03*
X244792500Y-37147500D03*
X242252500Y-37147500D03*
X239712500Y-37147500D03*
X237172500Y-37147500D03*
X234632500Y-37147500D03*
X249872500Y-39687500D03*
X247332500Y-39687500D03*
X244792500Y-39687500D03*
X242252500Y-39687500D03*
X239712500Y-39687500D03*
X237172500Y-39687500D03*
X234632500Y-39687500D03*
X78422500Y-37147500D03*
X75882500Y-37147500D03*
X73342500Y-37147500D03*
X70802500Y-37147500D03*
X68262500Y-37147500D03*
X65722500Y-37147500D03*
X63182500Y-37147500D03*
X78422500Y-39687500D03*
X75882500Y-39687500D03*
X73342500Y-39687500D03*
X70802500Y-39687500D03*
X68262500Y-39687500D03*
X65722500Y-39687500D03*
X63182500Y-39687500D03*
X147002500Y-37147500D03*
X144462500Y-37147500D03*
X141922500Y-37147500D03*
X139382500Y-37147500D03*
X136842500Y-37147500D03*
X134302500Y-37147500D03*
X131762500Y-37147500D03*
X147002500Y-39687500D03*
X144462500Y-39687500D03*
X141922500Y-39687500D03*
X139382500Y-39687500D03*
X136842500Y-39687500D03*
X134302500Y-39687500D03*
X131762500Y-39687500D03*
X284162500Y-37147500D03*
X281622500Y-37147500D03*
X279082500Y-37147500D03*
X276542500Y-37147500D03*
X274002500Y-37147500D03*
X271462500Y-37147500D03*
X268922500Y-37147500D03*
X284162500Y-39687500D03*
X281622500Y-39687500D03*
X279082500Y-39687500D03*
X276542500Y-39687500D03*
X274002500Y-39687500D03*
X271462500Y-39687500D03*
X268922500Y-39687500D03*
X61277500Y-20637500D03*
X58737500Y-20637500D03*
X56197500Y-20637500D03*
X53657500Y-20637500D03*
X51117500Y-20637500D03*
X48577500Y-20637500D03*
X46037500Y-20637500D03*
X61277500Y-23177500D03*
X58737500Y-23177500D03*
X56197500Y-23177500D03*
X53657500Y-23177500D03*
X51117500Y-23177500D03*
X48577500Y-23177500D03*
X46037500Y-23177500D03*
X129857500Y-20637500D03*
X127317500Y-20637500D03*
X124777500Y-20637500D03*
X122237500Y-20637500D03*
X119697500Y-20637500D03*
X117157500Y-20637500D03*
X114617500Y-20637500D03*
X129857500Y-23177500D03*
X127317500Y-23177500D03*
X124777500Y-23177500D03*
X122237500Y-23177500D03*
X119697500Y-23177500D03*
X117157500Y-23177500D03*
X114617500Y-23177500D03*
X198437500Y-20637500D03*
X195897500Y-20637500D03*
X193357500Y-20637500D03*
X190817500Y-20637500D03*
X188277500Y-20637500D03*
X185737500Y-20637500D03*
X183197500Y-20637500D03*
X198437500Y-23177500D03*
X195897500Y-23177500D03*
X193357500Y-23177500D03*
X190817500Y-23177500D03*
X188277500Y-23177500D03*
X185737500Y-23177500D03*
X183197500Y-23177500D03*
X267017500Y-20637500D03*
X264477500Y-20637500D03*
X261937500Y-20637500D03*
X259397500Y-20637500D03*
X256857500Y-20637500D03*
X254317500Y-20637500D03*
X251777500Y-20637500D03*
X267017500Y-23177500D03*
X264477500Y-23177500D03*
X261937500Y-23177500D03*
X259397500Y-23177500D03*
X256857500Y-23177500D03*
X254317500Y-23177500D03*
X251777500Y-23177500D03*
X164147500Y-20637500D03*
X161607500Y-20637500D03*
X159067500Y-20637500D03*
X156527500Y-20637500D03*
X153987500Y-20637500D03*
X151447500Y-20637500D03*
X148907500Y-20637500D03*
X164147500Y-23177500D03*
X161607500Y-23177500D03*
X159067500Y-23177500D03*
X156527500Y-23177500D03*
X153987500Y-23177500D03*
X151447500Y-23177500D03*
X148907500Y-23177500D03*
X232727500Y-20637500D03*
X230187500Y-20637500D03*
X227647500Y-20637500D03*
X225107500Y-20637500D03*
X222567500Y-20637500D03*
X220027500Y-20637500D03*
X217487500Y-20637500D03*
X232727500Y-23177500D03*
X230187500Y-23177500D03*
X227647500Y-23177500D03*
X225107500Y-23177500D03*
X222567500Y-23177500D03*
X220027500Y-23177500D03*
X217487500Y-23177500D03*
X301307500Y-20637500D03*
X298767500Y-20637500D03*
X296227500Y-20637500D03*
X293687500Y-20637500D03*
X291147500Y-20637500D03*
X288607500Y-20637500D03*
X286067500Y-20637500D03*
X301307500Y-23177500D03*
X298767500Y-23177500D03*
X296227500Y-23177500D03*
X293687500Y-23177500D03*
X291147500Y-23177500D03*
X288607500Y-23177500D03*
X286067500Y-23177500D03*
D16*
X299402500Y-227310000D03*
X299402500Y-224810000D03*
X263842500Y-227310000D03*
X263842500Y-224810000D03*
X260667500Y-227310000D03*
X260667500Y-224810000D03*
X225107500Y-227310000D03*
X225107500Y-224810000D03*
X221932500Y-227310000D03*
X221932500Y-224810000D03*
X186372500Y-227310000D03*
X186372500Y-224810000D03*
X183197500Y-227310000D03*
X183197500Y-224810000D03*
X147637500Y-227310000D03*
X147637500Y-224810000D03*
X144462500Y-227310000D03*
X144462500Y-224810000D03*
X108902500Y-227310000D03*
X108902500Y-224810000D03*
X105727500Y-227310000D03*
X105727500Y-224810000D03*
X70167500Y-227310000D03*
X70167500Y-224810000D03*
X66992500Y-227310000D03*
X66992500Y-224810000D03*
X31432500Y-227310000D03*
X31432500Y-224810000D03*
D15*
X41592500Y-240665000D03*
X41592500Y-243205000D03*
X41592500Y-245745000D03*
X41592500Y-248285000D03*
X41592500Y-250825000D03*
X41592500Y-253365000D03*
X41592500Y-255905000D03*
X41592500Y-260985000D03*
X41592500Y-263525000D03*
X41592500Y-266065000D03*
X41592500Y-268605000D03*
X41592500Y-258445000D03*
X56832500Y-258445000D03*
X56832500Y-268605000D03*
X56832500Y-266065000D03*
X56832500Y-263525000D03*
X56832500Y-260985000D03*
X56832500Y-255905000D03*
X56832500Y-253365000D03*
X56832500Y-250825000D03*
X56832500Y-248285000D03*
X56832500Y-245745000D03*
X56832500Y-243205000D03*
X56832500Y-240665000D03*
D14*
X255905000Y-257175000D03*
X258445000Y-257175000D03*
X255905000Y-259715000D03*
X258445000Y-259715000D03*
X255905000Y-262255000D03*
X258445000Y-262255000D03*
X207670400Y-262416925D03*
X204901800Y-262416925D03*
X202133200Y-262416925D03*
X199364600Y-262416925D03*
X209054700Y-259572125D03*
X206286100Y-259572125D03*
X203517500Y-259572125D03*
X200748900Y-259572125D03*
D17*
X197980300Y-259572125D03*
D13*
X216141300Y-262416925D03*
X191147700Y-262416925D03*
X216014300Y-254415925D03*
X191020700Y-254415925D03*
D17*
X209054700Y-252815725D03*
D14*
X206286100Y-252815725D03*
X203517500Y-252815725D03*
X200748900Y-252815725D03*
X197980300Y-252815725D03*
X207670400Y-255660525D03*
X204901800Y-255660525D03*
X202133200Y-255660525D03*
X199364600Y-255660525D03*
D15*
X31432500Y-212090000D03*
X31432500Y-222250000D03*
X31432500Y-219710000D03*
X31432500Y-217170000D03*
X31432500Y-214630000D03*
X31432500Y-209550000D03*
X31432500Y-207010000D03*
X31432500Y-204470000D03*
X31432500Y-201930000D03*
X31432500Y-199390000D03*
X66992500Y-212090000D03*
X66992500Y-222250000D03*
X66992500Y-219710000D03*
X66992500Y-217170000D03*
X66992500Y-214630000D03*
X66992500Y-209550000D03*
X66992500Y-207010000D03*
X66992500Y-204470000D03*
X66992500Y-201930000D03*
X66992500Y-199390000D03*
X70167500Y-212090000D03*
X70167500Y-222250000D03*
X70167500Y-219710000D03*
X70167500Y-217170000D03*
X70167500Y-214630000D03*
X70167500Y-209550000D03*
X70167500Y-207010000D03*
X70167500Y-204470000D03*
X70167500Y-201930000D03*
X70167500Y-199390000D03*
X105727500Y-212090000D03*
X105727500Y-222250000D03*
X105727500Y-219710000D03*
X105727500Y-217170000D03*
X105727500Y-214630000D03*
X105727500Y-209550000D03*
X105727500Y-207010000D03*
X105727500Y-204470000D03*
X105727500Y-201930000D03*
X105727500Y-199390000D03*
X108902500Y-212090000D03*
X108902500Y-222250000D03*
X108902500Y-219710000D03*
X108902500Y-217170000D03*
X108902500Y-214630000D03*
X108902500Y-209550000D03*
X108902500Y-207010000D03*
X108902500Y-204470000D03*
X108902500Y-201930000D03*
X108902500Y-199390000D03*
X144462500Y-212090000D03*
X144462500Y-222250000D03*
X144462500Y-219710000D03*
X144462500Y-217170000D03*
X144462500Y-214630000D03*
X144462500Y-209550000D03*
X144462500Y-207010000D03*
X144462500Y-204470000D03*
X144462500Y-201930000D03*
X144462500Y-199390000D03*
X147637500Y-212090000D03*
X147637500Y-222250000D03*
X147637500Y-219710000D03*
X147637500Y-217170000D03*
X147637500Y-214630000D03*
X147637500Y-209550000D03*
X147637500Y-207010000D03*
X147637500Y-204470000D03*
X147637500Y-201930000D03*
X147637500Y-199390000D03*
X183197500Y-212090000D03*
X183197500Y-222250000D03*
X183197500Y-219710000D03*
X183197500Y-217170000D03*
X183197500Y-214630000D03*
X183197500Y-209550000D03*
X183197500Y-207010000D03*
X183197500Y-204470000D03*
X183197500Y-201930000D03*
X183197500Y-199390000D03*
X186372500Y-212090000D03*
X186372500Y-222250000D03*
X186372500Y-219710000D03*
X186372500Y-217170000D03*
X186372500Y-214630000D03*
X186372500Y-209550000D03*
X186372500Y-207010000D03*
X186372500Y-204470000D03*
X186372500Y-201930000D03*
X186372500Y-199390000D03*
X221932500Y-212090000D03*
X221932500Y-222250000D03*
X221932500Y-219710000D03*
X221932500Y-217170000D03*
X221932500Y-214630000D03*
X221932500Y-209550000D03*
X221932500Y-207010000D03*
X221932500Y-204470000D03*
X221932500Y-201930000D03*
X221932500Y-199390000D03*
X225107500Y-212090000D03*
X225107500Y-222250000D03*
X225107500Y-219710000D03*
X225107500Y-217170000D03*
X225107500Y-214630000D03*
X225107500Y-209550000D03*
X225107500Y-207010000D03*
X225107500Y-204470000D03*
X225107500Y-201930000D03*
X225107500Y-199390000D03*
X260667500Y-212090000D03*
X260667500Y-222250000D03*
X260667500Y-219710000D03*
X260667500Y-217170000D03*
X260667500Y-214630000D03*
X260667500Y-209550000D03*
X260667500Y-207010000D03*
X260667500Y-204470000D03*
X260667500Y-201930000D03*
X260667500Y-199390000D03*
X263842500Y-212090000D03*
X263842500Y-222250000D03*
X263842500Y-219710000D03*
X263842500Y-217170000D03*
X263842500Y-214630000D03*
X263842500Y-209550000D03*
X263842500Y-207010000D03*
X263842500Y-204470000D03*
X263842500Y-201930000D03*
X263842500Y-199390000D03*
X299402500Y-212090000D03*
X299402500Y-222250000D03*
X299402500Y-219710000D03*
X299402500Y-217170000D03*
X299402500Y-214630000D03*
X299402500Y-209550000D03*
X299402500Y-207010000D03*
X299402500Y-204470000D03*
X299402500Y-201930000D03*
X299402500Y-199390000D03*
D16*
X61912500Y-261282500D03*
X61912500Y-258782500D03*
X100647500Y-261282500D03*
X100647500Y-258782500D03*
X178117500Y-261282500D03*
X178117500Y-258782500D03*
X255587500Y-265767500D03*
X255587500Y-268267500D03*
M02*
