G04 #@! TF.FileFunction,Legend,Top*
%FSLAX46Y46*%
G04 Gerber Fmt 4.6, Leading zero omitted, Abs format (unit mm)*
G04 Created by KiCad (PCBNEW 4.0.3+e1-6302~38~ubuntu14.04.1-stable) date Fri Aug 19 15:31:16 2016*
%MOMM*%
%LPD*%
G01*
G04 APERTURE LIST*
%ADD10C,0.100000*%
%ADD11C,0.200000*%
%ADD12C,0.215900*%
%ADD13C,1.016000*%
%ADD14C,0.635000*%
%ADD15C,0.317500*%
%ADD16C,0.508000*%
%ADD17C,0.150000*%
%ADD18C,0.254000*%
G04 APERTURE END LIST*
D10*
D11*
X109855000Y-241300000D02*
X142875000Y-241300000D01*
X109855000Y-264160000D02*
X109855000Y-241300000D01*
X142875000Y-264160000D02*
X109855000Y-264160000D01*
X142875000Y-241300000D02*
X142875000Y-264160000D01*
D12*
X260350001Y-257471333D02*
X261196667Y-257471333D01*
X260180667Y-257979333D02*
X260773334Y-256201333D01*
X261366001Y-257979333D01*
X262297334Y-256201333D02*
X262466667Y-256201333D01*
X262636001Y-256286000D01*
X262720667Y-256370667D01*
X262805334Y-256540000D01*
X262890001Y-256878667D01*
X262890001Y-257302000D01*
X262805334Y-257640667D01*
X262720667Y-257810000D01*
X262636001Y-257894667D01*
X262466667Y-257979333D01*
X262297334Y-257979333D01*
X262128001Y-257894667D01*
X262043334Y-257810000D01*
X261958667Y-257640667D01*
X261874001Y-257302000D01*
X261874001Y-256878667D01*
X261958667Y-256540000D01*
X262043334Y-256370667D01*
X262128001Y-256286000D01*
X262297334Y-256201333D01*
X260350001Y-260011333D02*
X261196667Y-260011333D01*
X260180667Y-260519333D02*
X260773334Y-258741333D01*
X261366001Y-260519333D01*
X262890001Y-260519333D02*
X261874001Y-260519333D01*
X262382001Y-260519333D02*
X262382001Y-258741333D01*
X262212667Y-258995333D01*
X262043334Y-259164667D01*
X261874001Y-259249333D01*
D11*
X297497500Y-236855000D02*
X265747500Y-236855000D01*
X297497500Y-172085000D02*
X297497500Y-236855000D01*
X265747500Y-172085000D02*
X297497500Y-172085000D01*
X265747500Y-236855000D02*
X265747500Y-172085000D01*
X258762500Y-236855000D02*
X227012500Y-236855000D01*
X258762500Y-172085000D02*
X258762500Y-236855000D01*
X227012500Y-172085000D02*
X258762500Y-172085000D01*
X227012500Y-236855000D02*
X227012500Y-172085000D01*
X220027500Y-236855000D02*
X188277500Y-236855000D01*
X220027500Y-172085000D02*
X220027500Y-236855000D01*
X188277500Y-172085000D02*
X220027500Y-172085000D01*
X188277500Y-236855000D02*
X188277500Y-172085000D01*
X181292500Y-236855000D02*
X149542500Y-236855000D01*
X181292500Y-172085000D02*
X181292500Y-236855000D01*
X149542500Y-172085000D02*
X181292500Y-172085000D01*
X149542500Y-236855000D02*
X149542500Y-172085000D01*
X142557500Y-236855000D02*
X110807500Y-236855000D01*
X142557500Y-172085000D02*
X142557500Y-236855000D01*
X110807500Y-172085000D02*
X142557500Y-172085000D01*
X110807500Y-236855000D02*
X110807500Y-172085000D01*
X72072500Y-172085000D02*
X72072500Y-236855000D01*
X103822500Y-172085000D02*
X72072500Y-172085000D01*
X103822500Y-236855000D02*
X103822500Y-172085000D01*
X72072500Y-236855000D02*
X103822500Y-236855000D01*
X33337500Y-236855000D02*
X33655000Y-236855000D01*
X33337500Y-172085000D02*
X33337500Y-236855000D01*
X33655000Y-172085000D02*
X33337500Y-172085000D01*
X65087500Y-172085000D02*
X64770000Y-172085000D01*
X65087500Y-236855000D02*
X65087500Y-172085000D01*
X64770000Y-236855000D02*
X65087500Y-236855000D01*
D13*
X268287500Y-170497500D02*
X267017500Y-170497500D01*
D11*
X267652500Y-171132500D02*
X268287500Y-170497500D01*
X267017500Y-170497500D02*
X267652500Y-171132500D01*
X269240000Y-170027600D02*
X266065000Y-170027600D01*
D14*
X267652500Y-171450000D02*
X268922500Y-170180000D01*
X266382500Y-170180000D02*
X267652500Y-171450000D01*
D11*
X265747500Y-169862500D02*
X267652500Y-171767500D01*
X269557500Y-169862500D02*
X265747500Y-169862500D01*
X267652500Y-171767500D02*
X269557500Y-169862500D01*
X228917500Y-171767500D02*
X230822500Y-169862500D01*
X230822500Y-169862500D02*
X227012500Y-169862500D01*
X227012500Y-169862500D02*
X228917500Y-171767500D01*
D14*
X227647500Y-170180000D02*
X228917500Y-171450000D01*
X228917500Y-171450000D02*
X230187500Y-170180000D01*
D11*
X230505000Y-170027600D02*
X227330000Y-170027600D01*
X228282500Y-170497500D02*
X228917500Y-171132500D01*
X228917500Y-171132500D02*
X229552500Y-170497500D01*
D13*
X229552500Y-170497500D02*
X228282500Y-170497500D01*
X190817500Y-170497500D02*
X189547500Y-170497500D01*
D11*
X190182500Y-171132500D02*
X190817500Y-170497500D01*
X189547500Y-170497500D02*
X190182500Y-171132500D01*
X191770000Y-170027600D02*
X188595000Y-170027600D01*
D14*
X190182500Y-171450000D02*
X191452500Y-170180000D01*
X188912500Y-170180000D02*
X190182500Y-171450000D01*
D11*
X188277500Y-169862500D02*
X190182500Y-171767500D01*
X192087500Y-169862500D02*
X188277500Y-169862500D01*
X190182500Y-171767500D02*
X192087500Y-169862500D01*
X151447500Y-171767500D02*
X153352500Y-169862500D01*
X153352500Y-169862500D02*
X149542500Y-169862500D01*
X149542500Y-169862500D02*
X151447500Y-171767500D01*
D14*
X150177500Y-170180000D02*
X151447500Y-171450000D01*
X151447500Y-171450000D02*
X152717500Y-170180000D01*
D11*
X153035000Y-170027600D02*
X149860000Y-170027600D01*
X150812500Y-170497500D02*
X151447500Y-171132500D01*
X151447500Y-171132500D02*
X152082500Y-170497500D01*
D13*
X152082500Y-170497500D02*
X150812500Y-170497500D01*
X113347500Y-170497500D02*
X112077500Y-170497500D01*
D11*
X112712500Y-171132500D02*
X113347500Y-170497500D01*
X112077500Y-170497500D02*
X112712500Y-171132500D01*
X114300000Y-170027600D02*
X111125000Y-170027600D01*
D14*
X112712500Y-171450000D02*
X113982500Y-170180000D01*
X111442500Y-170180000D02*
X112712500Y-171450000D01*
D11*
X110807500Y-169862500D02*
X112712500Y-171767500D01*
X114617500Y-169862500D02*
X110807500Y-169862500D01*
X112712500Y-171767500D02*
X114617500Y-169862500D01*
X73977500Y-171767500D02*
X75882500Y-169862500D01*
X75882500Y-169862500D02*
X72072500Y-169862500D01*
X72072500Y-169862500D02*
X73977500Y-171767500D01*
D14*
X72707500Y-170180000D02*
X73977500Y-171450000D01*
X73977500Y-171450000D02*
X75247500Y-170180000D01*
D11*
X75565000Y-170027600D02*
X72390000Y-170027600D01*
X73342500Y-170497500D02*
X73977500Y-171132500D01*
X73977500Y-171132500D02*
X74612500Y-170497500D01*
D13*
X74612500Y-170497500D02*
X73342500Y-170497500D01*
X35877500Y-170497500D02*
X34607500Y-170497500D01*
D11*
X35242500Y-171132500D02*
X35877500Y-170497500D01*
X34607500Y-170497500D02*
X35242500Y-171132500D01*
X36830000Y-170027600D02*
X33655000Y-170027600D01*
D14*
X35242500Y-171450000D02*
X36512500Y-170180000D01*
X33972500Y-170180000D02*
X35242500Y-171450000D01*
D11*
X33337500Y-169862500D02*
X35242500Y-171767500D01*
X37147500Y-169862500D02*
X33337500Y-169862500D01*
X35242500Y-171767500D02*
X37147500Y-169862500D01*
X64770000Y-172085000D02*
X33655000Y-172085000D01*
X33655000Y-236855000D02*
X64770000Y-236855000D01*
D15*
X115343214Y-269119048D02*
X114496548Y-267909524D01*
X113891786Y-269119048D02*
X113891786Y-266579048D01*
X114859405Y-266579048D01*
X115101310Y-266700000D01*
X115222262Y-266820952D01*
X115343214Y-267062857D01*
X115343214Y-267425714D01*
X115222262Y-267667619D01*
X115101310Y-267788571D01*
X114859405Y-267909524D01*
X113891786Y-267909524D01*
X116310834Y-268998095D02*
X116673691Y-269119048D01*
X117278453Y-269119048D01*
X117520357Y-268998095D01*
X117641310Y-268877143D01*
X117762262Y-268635238D01*
X117762262Y-268393333D01*
X117641310Y-268151429D01*
X117520357Y-268030476D01*
X117278453Y-267909524D01*
X116794643Y-267788571D01*
X116552738Y-267667619D01*
X116431786Y-267546667D01*
X116310834Y-267304762D01*
X116310834Y-267062857D01*
X116431786Y-266820952D01*
X116552738Y-266700000D01*
X116794643Y-266579048D01*
X117399405Y-266579048D01*
X117762262Y-266700000D01*
X118850834Y-268151429D02*
X120786072Y-268151429D01*
X123084167Y-267425714D02*
X123084167Y-269119048D01*
X122479405Y-266458095D02*
X121874644Y-268272381D01*
X123447024Y-268272381D01*
X124777501Y-267667619D02*
X124535596Y-267546667D01*
X124414644Y-267425714D01*
X124293692Y-267183810D01*
X124293692Y-267062857D01*
X124414644Y-266820952D01*
X124535596Y-266700000D01*
X124777501Y-266579048D01*
X125261311Y-266579048D01*
X125503215Y-266700000D01*
X125624168Y-266820952D01*
X125745120Y-267062857D01*
X125745120Y-267183810D01*
X125624168Y-267425714D01*
X125503215Y-267546667D01*
X125261311Y-267667619D01*
X124777501Y-267667619D01*
X124535596Y-267788571D01*
X124414644Y-267909524D01*
X124293692Y-268151429D01*
X124293692Y-268635238D01*
X124414644Y-268877143D01*
X124535596Y-268998095D01*
X124777501Y-269119048D01*
X125261311Y-269119048D01*
X125503215Y-268998095D01*
X125624168Y-268877143D01*
X125745120Y-268635238D01*
X125745120Y-268151429D01*
X125624168Y-267909524D01*
X125503215Y-267788571D01*
X125261311Y-267667619D01*
X128043216Y-266579048D02*
X126833692Y-266579048D01*
X126712740Y-267788571D01*
X126833692Y-267667619D01*
X127075597Y-267546667D01*
X127680359Y-267546667D01*
X127922263Y-267667619D01*
X128043216Y-267788571D01*
X128164168Y-268030476D01*
X128164168Y-268635238D01*
X128043216Y-268877143D01*
X127922263Y-268998095D01*
X127680359Y-269119048D01*
X127075597Y-269119048D01*
X126833692Y-268998095D01*
X126712740Y-268877143D01*
X131187978Y-269119048D02*
X131187978Y-266579048D01*
X131187978Y-267546667D02*
X131429883Y-267425714D01*
X131913692Y-267425714D01*
X132155597Y-267546667D01*
X132276549Y-267667619D01*
X132397502Y-267909524D01*
X132397502Y-268635238D01*
X132276549Y-268877143D01*
X132155597Y-268998095D01*
X131913692Y-269119048D01*
X131429883Y-269119048D01*
X131187978Y-268998095D01*
X133848930Y-269119048D02*
X133607025Y-268998095D01*
X133486073Y-268877143D01*
X133365121Y-268635238D01*
X133365121Y-267909524D01*
X133486073Y-267667619D01*
X133607025Y-267546667D01*
X133848930Y-267425714D01*
X134211787Y-267425714D01*
X134453692Y-267546667D01*
X134574644Y-267667619D01*
X134695597Y-267909524D01*
X134695597Y-268635238D01*
X134574644Y-268877143D01*
X134453692Y-268998095D01*
X134211787Y-269119048D01*
X133848930Y-269119048D01*
X136872739Y-269119048D02*
X136872739Y-267788571D01*
X136751787Y-267546667D01*
X136509882Y-267425714D01*
X136026073Y-267425714D01*
X135784168Y-267546667D01*
X136872739Y-268998095D02*
X136630835Y-269119048D01*
X136026073Y-269119048D01*
X135784168Y-268998095D01*
X135663216Y-268756190D01*
X135663216Y-268514286D01*
X135784168Y-268272381D01*
X136026073Y-268151429D01*
X136630835Y-268151429D01*
X136872739Y-268030476D01*
X138082263Y-269119048D02*
X138082263Y-267425714D01*
X138082263Y-267909524D02*
X138203215Y-267667619D01*
X138324168Y-267546667D01*
X138566072Y-267425714D01*
X138807977Y-267425714D01*
X140743215Y-269119048D02*
X140743215Y-266579048D01*
X140743215Y-268998095D02*
X140501311Y-269119048D01*
X140017501Y-269119048D01*
X139775596Y-268998095D01*
X139654644Y-268877143D01*
X139533692Y-268635238D01*
X139533692Y-267909524D01*
X139654644Y-267667619D01*
X139775596Y-267546667D01*
X140017501Y-267425714D01*
X140501311Y-267425714D01*
X140743215Y-267546667D01*
D11*
X143510000Y-243522500D02*
X145415000Y-245427500D01*
X145415000Y-245427500D02*
X145415000Y-241617500D01*
X145415000Y-241617500D02*
X143510000Y-243522500D01*
D14*
X145097500Y-242252500D02*
X143827500Y-243522500D01*
X143827500Y-243522500D02*
X145097500Y-244792500D01*
D11*
X145249900Y-245110000D02*
X145249900Y-241935000D01*
X144780000Y-242887500D02*
X144145000Y-243522500D01*
X144145000Y-243522500D02*
X144780000Y-244157500D01*
D13*
X144780000Y-244157500D02*
X144780000Y-242887500D01*
D16*
X188322858Y-248103571D02*
X187052858Y-246289286D01*
X186145715Y-248103571D02*
X186145715Y-244293571D01*
X187597143Y-244293571D01*
X187960001Y-244475000D01*
X188141429Y-244656429D01*
X188322858Y-245019286D01*
X188322858Y-245563571D01*
X188141429Y-245926429D01*
X187960001Y-246107857D01*
X187597143Y-246289286D01*
X186145715Y-246289286D01*
X189774286Y-247922143D02*
X190318572Y-248103571D01*
X191225715Y-248103571D01*
X191588572Y-247922143D01*
X191770001Y-247740714D01*
X191951429Y-247377857D01*
X191951429Y-247015000D01*
X191770001Y-246652143D01*
X191588572Y-246470714D01*
X191225715Y-246289286D01*
X190500001Y-246107857D01*
X190137143Y-245926429D01*
X189955715Y-245745000D01*
X189774286Y-245382143D01*
X189774286Y-245019286D01*
X189955715Y-244656429D01*
X190137143Y-244475000D01*
X190500001Y-244293571D01*
X191407143Y-244293571D01*
X191951429Y-244475000D01*
X193584286Y-246652143D02*
X196487143Y-246652143D01*
X199934286Y-245563571D02*
X199934286Y-248103571D01*
X199027143Y-244112143D02*
X198120000Y-246833571D01*
X200478572Y-246833571D01*
X202474286Y-245926429D02*
X202111428Y-245745000D01*
X201930000Y-245563571D01*
X201748571Y-245200714D01*
X201748571Y-245019286D01*
X201930000Y-244656429D01*
X202111428Y-244475000D01*
X202474286Y-244293571D01*
X203200000Y-244293571D01*
X203562857Y-244475000D01*
X203744286Y-244656429D01*
X203925714Y-245019286D01*
X203925714Y-245200714D01*
X203744286Y-245563571D01*
X203562857Y-245745000D01*
X203200000Y-245926429D01*
X202474286Y-245926429D01*
X202111428Y-246107857D01*
X201930000Y-246289286D01*
X201748571Y-246652143D01*
X201748571Y-247377857D01*
X201930000Y-247740714D01*
X202111428Y-247922143D01*
X202474286Y-248103571D01*
X203200000Y-248103571D01*
X203562857Y-247922143D01*
X203744286Y-247740714D01*
X203925714Y-247377857D01*
X203925714Y-246652143D01*
X203744286Y-246289286D01*
X203562857Y-246107857D01*
X203200000Y-245926429D01*
X207372857Y-244293571D02*
X205558571Y-244293571D01*
X205377142Y-246107857D01*
X205558571Y-245926429D01*
X205921428Y-245745000D01*
X206828571Y-245745000D01*
X207191428Y-245926429D01*
X207372857Y-246107857D01*
X207554285Y-246470714D01*
X207554285Y-247377857D01*
X207372857Y-247740714D01*
X207191428Y-247922143D01*
X206828571Y-248103571D01*
X205921428Y-248103571D01*
X205558571Y-247922143D01*
X205377142Y-247740714D01*
X212089999Y-248103571D02*
X212089999Y-244293571D01*
X212089999Y-245745000D02*
X212452856Y-245563571D01*
X213178570Y-245563571D01*
X213541427Y-245745000D01*
X213722856Y-245926429D01*
X213904285Y-246289286D01*
X213904285Y-247377857D01*
X213722856Y-247740714D01*
X213541427Y-247922143D01*
X213178570Y-248103571D01*
X212452856Y-248103571D01*
X212089999Y-247922143D01*
X217169999Y-245563571D02*
X217169999Y-248103571D01*
X215537142Y-245563571D02*
X215537142Y-247559286D01*
X215718570Y-247922143D01*
X216081428Y-248103571D01*
X216625713Y-248103571D01*
X216988570Y-247922143D01*
X217169999Y-247740714D01*
X218802856Y-247922143D02*
X219165713Y-248103571D01*
X219891428Y-248103571D01*
X220254285Y-247922143D01*
X220435713Y-247559286D01*
X220435713Y-247377857D01*
X220254285Y-247015000D01*
X219891428Y-246833571D01*
X219347142Y-246833571D01*
X218984285Y-246652143D01*
X218802856Y-246289286D01*
X218802856Y-246107857D01*
X218984285Y-245745000D01*
X219347142Y-245563571D01*
X219891428Y-245563571D01*
X220254285Y-245745000D01*
X223157143Y-252548571D02*
X223157143Y-255632857D01*
X223338571Y-255995714D01*
X223520000Y-256177143D01*
X223882857Y-256358571D01*
X224608571Y-256358571D01*
X224971429Y-256177143D01*
X225152857Y-255995714D01*
X225334286Y-255632857D01*
X225334286Y-252548571D01*
X229325715Y-255995714D02*
X229144286Y-256177143D01*
X228600000Y-256358571D01*
X228237143Y-256358571D01*
X227692858Y-256177143D01*
X227330000Y-255814286D01*
X227148572Y-255451429D01*
X226967143Y-254725714D01*
X226967143Y-254181429D01*
X227148572Y-253455714D01*
X227330000Y-253092857D01*
X227692858Y-252730000D01*
X228237143Y-252548571D01*
X228600000Y-252548571D01*
X229144286Y-252730000D01*
X229325715Y-252911429D01*
X230595715Y-252548571D02*
X232954286Y-252548571D01*
X231684286Y-254000000D01*
X232228572Y-254000000D01*
X232591429Y-254181429D01*
X232772858Y-254362857D01*
X232954286Y-254725714D01*
X232954286Y-255632857D01*
X232772858Y-255995714D01*
X232591429Y-256177143D01*
X232228572Y-256358571D01*
X231140000Y-256358571D01*
X230777143Y-256177143D01*
X230595715Y-255995714D01*
X145687143Y-252231071D02*
X145687143Y-255315357D01*
X145868571Y-255678214D01*
X146050000Y-255859643D01*
X146412857Y-256041071D01*
X147138571Y-256041071D01*
X147501429Y-255859643D01*
X147682857Y-255678214D01*
X147864286Y-255315357D01*
X147864286Y-252231071D01*
X151855715Y-255678214D02*
X151674286Y-255859643D01*
X151130000Y-256041071D01*
X150767143Y-256041071D01*
X150222858Y-255859643D01*
X149860000Y-255496786D01*
X149678572Y-255133929D01*
X149497143Y-254408214D01*
X149497143Y-253863929D01*
X149678572Y-253138214D01*
X149860000Y-252775357D01*
X150222858Y-252412500D01*
X150767143Y-252231071D01*
X151130000Y-252231071D01*
X151674286Y-252412500D01*
X151855715Y-252593929D01*
X153307143Y-252593929D02*
X153488572Y-252412500D01*
X153851429Y-252231071D01*
X154758572Y-252231071D01*
X155121429Y-252412500D01*
X155302858Y-252593929D01*
X155484286Y-252956786D01*
X155484286Y-253319643D01*
X155302858Y-253863929D01*
X153125715Y-256041071D01*
X155484286Y-256041071D01*
X68217143Y-252231071D02*
X68217143Y-255315357D01*
X68398571Y-255678214D01*
X68580000Y-255859643D01*
X68942857Y-256041071D01*
X69668571Y-256041071D01*
X70031429Y-255859643D01*
X70212857Y-255678214D01*
X70394286Y-255315357D01*
X70394286Y-252231071D01*
X74385715Y-255678214D02*
X74204286Y-255859643D01*
X73660000Y-256041071D01*
X73297143Y-256041071D01*
X72752858Y-255859643D01*
X72390000Y-255496786D01*
X72208572Y-255133929D01*
X72027143Y-254408214D01*
X72027143Y-253863929D01*
X72208572Y-253138214D01*
X72390000Y-252775357D01*
X72752858Y-252412500D01*
X73297143Y-252231071D01*
X73660000Y-252231071D01*
X74204286Y-252412500D01*
X74385715Y-252593929D01*
X78014286Y-256041071D02*
X75837143Y-256041071D01*
X76925715Y-256041071D02*
X76925715Y-252231071D01*
X76562858Y-252775357D01*
X76200000Y-253138214D01*
X75837143Y-253319643D01*
X29482143Y-252548571D02*
X29482143Y-255632857D01*
X29663571Y-255995714D01*
X29845000Y-256177143D01*
X30207857Y-256358571D01*
X30933571Y-256358571D01*
X31296429Y-256177143D01*
X31477857Y-255995714D01*
X31659286Y-255632857D01*
X31659286Y-252548571D01*
X35650715Y-255995714D02*
X35469286Y-256177143D01*
X34925000Y-256358571D01*
X34562143Y-256358571D01*
X34017858Y-256177143D01*
X33655000Y-255814286D01*
X33473572Y-255451429D01*
X33292143Y-254725714D01*
X33292143Y-254181429D01*
X33473572Y-253455714D01*
X33655000Y-253092857D01*
X34017858Y-252730000D01*
X34562143Y-252548571D01*
X34925000Y-252548571D01*
X35469286Y-252730000D01*
X35650715Y-252911429D01*
X38009286Y-252548571D02*
X38372143Y-252548571D01*
X38735000Y-252730000D01*
X38916429Y-252911429D01*
X39097858Y-253274286D01*
X39279286Y-254000000D01*
X39279286Y-254907143D01*
X39097858Y-255632857D01*
X38916429Y-255995714D01*
X38735000Y-256177143D01*
X38372143Y-256358571D01*
X38009286Y-256358571D01*
X37646429Y-256177143D01*
X37465000Y-255995714D01*
X37283572Y-255632857D01*
X37102143Y-254907143D01*
X37102143Y-254000000D01*
X37283572Y-253274286D01*
X37465000Y-252911429D01*
X37646429Y-252730000D01*
X38009286Y-252548571D01*
D15*
X253008192Y-250327583D02*
X254217715Y-250327583D01*
X252766287Y-251053298D02*
X253612953Y-248513298D01*
X254459620Y-251053298D01*
X256394858Y-251053298D02*
X256394858Y-248513298D01*
X256394858Y-250932345D02*
X256152954Y-251053298D01*
X255669144Y-251053298D01*
X255427239Y-250932345D01*
X255306287Y-250811393D01*
X255185335Y-250569488D01*
X255185335Y-249843774D01*
X255306287Y-249601869D01*
X255427239Y-249480917D01*
X255669144Y-249359964D01*
X256152954Y-249359964D01*
X256394858Y-249480917D01*
X258692953Y-251053298D02*
X258692953Y-248513298D01*
X258692953Y-250932345D02*
X258451049Y-251053298D01*
X257967239Y-251053298D01*
X257725334Y-250932345D01*
X257604382Y-250811393D01*
X257483430Y-250569488D01*
X257483430Y-249843774D01*
X257604382Y-249601869D01*
X257725334Y-249480917D01*
X257967239Y-249359964D01*
X258451049Y-249359964D01*
X258692953Y-249480917D01*
X259902477Y-251053298D02*
X259902477Y-249359964D01*
X259902477Y-249843774D02*
X260023429Y-249601869D01*
X260144382Y-249480917D01*
X260386286Y-249359964D01*
X260628191Y-249359964D01*
X262442477Y-250932345D02*
X262200572Y-251053298D01*
X261716763Y-251053298D01*
X261474858Y-250932345D01*
X261353906Y-250690440D01*
X261353906Y-249722821D01*
X261474858Y-249480917D01*
X261716763Y-249359964D01*
X262200572Y-249359964D01*
X262442477Y-249480917D01*
X262563429Y-249722821D01*
X262563429Y-249964726D01*
X261353906Y-250206631D01*
X263531049Y-250932345D02*
X263772953Y-251053298D01*
X264256763Y-251053298D01*
X264498668Y-250932345D01*
X264619620Y-250690440D01*
X264619620Y-250569488D01*
X264498668Y-250327583D01*
X264256763Y-250206631D01*
X263893906Y-250206631D01*
X263652001Y-250085679D01*
X263531049Y-249843774D01*
X263531049Y-249722821D01*
X263652001Y-249480917D01*
X263893906Y-249359964D01*
X264256763Y-249359964D01*
X264498668Y-249480917D01*
X265587239Y-250932345D02*
X265829143Y-251053298D01*
X266312953Y-251053298D01*
X266554858Y-250932345D01*
X266675810Y-250690440D01*
X266675810Y-250569488D01*
X266554858Y-250327583D01*
X266312953Y-250206631D01*
X265950096Y-250206631D01*
X265708191Y-250085679D01*
X265587239Y-249843774D01*
X265587239Y-249722821D01*
X265708191Y-249480917D01*
X265950096Y-249359964D01*
X266312953Y-249359964D01*
X266554858Y-249480917D01*
D12*
X271314332Y-240487200D02*
X271568332Y-240571867D01*
X271652999Y-240656533D01*
X271737665Y-240825867D01*
X271737665Y-241079867D01*
X271652999Y-241249200D01*
X271568332Y-241333867D01*
X271398999Y-241418533D01*
X270721665Y-241418533D01*
X270721665Y-239640533D01*
X271314332Y-239640533D01*
X271483665Y-239725200D01*
X271568332Y-239809867D01*
X271652999Y-239979200D01*
X271652999Y-240148533D01*
X271568332Y-240317867D01*
X271483665Y-240402533D01*
X271314332Y-240487200D01*
X270721665Y-240487200D01*
X272753665Y-241418533D02*
X272584332Y-241333867D01*
X272499665Y-241249200D01*
X272414999Y-241079867D01*
X272414999Y-240571867D01*
X272499665Y-240402533D01*
X272584332Y-240317867D01*
X272753665Y-240233200D01*
X273007665Y-240233200D01*
X273176999Y-240317867D01*
X273261665Y-240402533D01*
X273346332Y-240571867D01*
X273346332Y-241079867D01*
X273261665Y-241249200D01*
X273176999Y-241333867D01*
X273007665Y-241418533D01*
X272753665Y-241418533D01*
X274023666Y-241333867D02*
X274192999Y-241418533D01*
X274531666Y-241418533D01*
X274700999Y-241333867D01*
X274785666Y-241164533D01*
X274785666Y-241079867D01*
X274700999Y-240910533D01*
X274531666Y-240825867D01*
X274277666Y-240825867D01*
X274108332Y-240741200D01*
X274023666Y-240571867D01*
X274023666Y-240487200D01*
X274108332Y-240317867D01*
X274277666Y-240233200D01*
X274531666Y-240233200D01*
X274700999Y-240317867D01*
X275293665Y-240233200D02*
X275970999Y-240233200D01*
X275547665Y-239640533D02*
X275547665Y-241164533D01*
X275632332Y-241333867D01*
X275801665Y-241418533D01*
X275970999Y-241418533D01*
X276817665Y-241418533D02*
X276648332Y-241333867D01*
X276563665Y-241249200D01*
X276478999Y-241079867D01*
X276478999Y-240571867D01*
X276563665Y-240402533D01*
X276648332Y-240317867D01*
X276817665Y-240233200D01*
X277071665Y-240233200D01*
X277240999Y-240317867D01*
X277325665Y-240402533D01*
X277410332Y-240571867D01*
X277410332Y-241079867D01*
X277325665Y-241249200D01*
X277240999Y-241333867D01*
X277071665Y-241418533D01*
X276817665Y-241418533D01*
X278172332Y-240233200D02*
X278172332Y-241418533D01*
X278172332Y-240402533D02*
X278256999Y-240317867D01*
X278426332Y-240233200D01*
X278680332Y-240233200D01*
X278849666Y-240317867D01*
X278934332Y-240487200D01*
X278934332Y-241418533D01*
X281135666Y-239640533D02*
X281135666Y-241079867D01*
X281220333Y-241249200D01*
X281305000Y-241333867D01*
X281474333Y-241418533D01*
X281813000Y-241418533D01*
X281982333Y-241333867D01*
X282067000Y-241249200D01*
X282151666Y-241079867D01*
X282151666Y-239640533D01*
X282998333Y-240233200D02*
X282998333Y-241418533D01*
X282998333Y-240402533D02*
X283083000Y-240317867D01*
X283252333Y-240233200D01*
X283506333Y-240233200D01*
X283675667Y-240317867D01*
X283760333Y-240487200D01*
X283760333Y-241418533D01*
X284607000Y-241418533D02*
X284607000Y-240233200D01*
X284607000Y-239640533D02*
X284522334Y-239725200D01*
X284607000Y-239809867D01*
X284691667Y-239725200D01*
X284607000Y-239640533D01*
X284607000Y-239809867D01*
X285284334Y-240233200D02*
X285707667Y-241418533D01*
X286131001Y-240233200D01*
X287485668Y-241333867D02*
X287316334Y-241418533D01*
X286977668Y-241418533D01*
X286808334Y-241333867D01*
X286723668Y-241164533D01*
X286723668Y-240487200D01*
X286808334Y-240317867D01*
X286977668Y-240233200D01*
X287316334Y-240233200D01*
X287485668Y-240317867D01*
X287570334Y-240487200D01*
X287570334Y-240656533D01*
X286723668Y-240825867D01*
X288332334Y-241418533D02*
X288332334Y-240233200D01*
X288332334Y-240571867D02*
X288417001Y-240402533D01*
X288501668Y-240317867D01*
X288671001Y-240233200D01*
X288840334Y-240233200D01*
X289348335Y-241333867D02*
X289517668Y-241418533D01*
X289856335Y-241418533D01*
X290025668Y-241333867D01*
X290110335Y-241164533D01*
X290110335Y-241079867D01*
X290025668Y-240910533D01*
X289856335Y-240825867D01*
X289602335Y-240825867D01*
X289433001Y-240741200D01*
X289348335Y-240571867D01*
X289348335Y-240487200D01*
X289433001Y-240317867D01*
X289602335Y-240233200D01*
X289856335Y-240233200D01*
X290025668Y-240317867D01*
X290872334Y-241418533D02*
X290872334Y-240233200D01*
X290872334Y-239640533D02*
X290787668Y-239725200D01*
X290872334Y-239809867D01*
X290957001Y-239725200D01*
X290872334Y-239640533D01*
X290872334Y-239809867D01*
X291465001Y-240233200D02*
X292142335Y-240233200D01*
X291719001Y-239640533D02*
X291719001Y-241164533D01*
X291803668Y-241333867D01*
X291973001Y-241418533D01*
X292142335Y-241418533D01*
X292565668Y-240233200D02*
X292989001Y-241418533D01*
X293412335Y-240233200D02*
X292989001Y-241418533D01*
X292819668Y-241841867D01*
X292735001Y-241926533D01*
X292565668Y-242011200D01*
X295444335Y-240487200D02*
X296037002Y-240487200D01*
X296291002Y-241418533D02*
X295444335Y-241418533D01*
X295444335Y-239640533D01*
X296291002Y-239640533D01*
X297053002Y-241418533D02*
X297053002Y-239640533D01*
X297476336Y-239640533D01*
X297730336Y-239725200D01*
X297899669Y-239894533D01*
X297984336Y-240063867D01*
X298069002Y-240402533D01*
X298069002Y-240656533D01*
X297984336Y-240995200D01*
X297899669Y-241164533D01*
X297730336Y-241333867D01*
X297476336Y-241418533D01*
X297053002Y-241418533D01*
X299423669Y-240487200D02*
X298831002Y-240487200D01*
X298831002Y-241418533D02*
X298831002Y-239640533D01*
X299677669Y-239640533D01*
X267038665Y-244216767D02*
X266869331Y-244301433D01*
X266530665Y-244301433D01*
X266361331Y-244216767D01*
X266276665Y-244047433D01*
X266276665Y-243370100D01*
X266361331Y-243200767D01*
X266530665Y-243116100D01*
X266869331Y-243116100D01*
X267038665Y-243200767D01*
X267123331Y-243370100D01*
X267123331Y-243539433D01*
X266276665Y-243708767D01*
X267631331Y-242523433D02*
X268223998Y-244301433D01*
X268816665Y-242523433D01*
X269747998Y-242523433D02*
X270086665Y-242523433D01*
X270255998Y-242608100D01*
X270425331Y-242777433D01*
X270509998Y-243116100D01*
X270509998Y-243708767D01*
X270425331Y-244047433D01*
X270255998Y-244216767D01*
X270086665Y-244301433D01*
X269747998Y-244301433D01*
X269578665Y-244216767D01*
X269409331Y-244047433D01*
X269324665Y-243708767D01*
X269324665Y-243116100D01*
X269409331Y-242777433D01*
X269578665Y-242608100D01*
X269747998Y-242523433D01*
X272118665Y-244301433D02*
X271271998Y-244301433D01*
X271271998Y-242523433D01*
X272457331Y-242523433D02*
X273049998Y-244301433D01*
X273642665Y-242523433D01*
X274235331Y-243370100D02*
X274827998Y-243370100D01*
X275081998Y-244301433D02*
X274235331Y-244301433D01*
X274235331Y-242523433D01*
X275081998Y-242523433D01*
X276859998Y-244301433D02*
X276267332Y-243454767D01*
X275843998Y-244301433D02*
X275843998Y-242523433D01*
X276521332Y-242523433D01*
X276690665Y-242608100D01*
X276775332Y-242692767D01*
X276859998Y-242862100D01*
X276859998Y-243116100D01*
X276775332Y-243285433D01*
X276690665Y-243370100D01*
X276521332Y-243454767D01*
X275843998Y-243454767D01*
X278976665Y-244301433D02*
X278976665Y-242523433D01*
X279569332Y-243793433D01*
X280161999Y-242523433D01*
X280161999Y-244301433D01*
X281262665Y-244301433D02*
X281093332Y-244216767D01*
X281008665Y-244132100D01*
X280923999Y-243962767D01*
X280923999Y-243454767D01*
X281008665Y-243285433D01*
X281093332Y-243200767D01*
X281262665Y-243116100D01*
X281516665Y-243116100D01*
X281685999Y-243200767D01*
X281770665Y-243285433D01*
X281855332Y-243454767D01*
X281855332Y-243962767D01*
X281770665Y-244132100D01*
X281685999Y-244216767D01*
X281516665Y-244301433D01*
X281262665Y-244301433D01*
X282363332Y-243116100D02*
X283040666Y-243116100D01*
X282617332Y-242523433D02*
X282617332Y-244047433D01*
X282701999Y-244216767D01*
X282871332Y-244301433D01*
X283040666Y-244301433D01*
X283633332Y-244301433D02*
X283633332Y-242523433D01*
X284395332Y-244301433D02*
X284395332Y-243370100D01*
X284310666Y-243200767D01*
X284141332Y-243116100D01*
X283887332Y-243116100D01*
X283717999Y-243200767D01*
X283633332Y-243285433D01*
X285919333Y-244216767D02*
X285749999Y-244301433D01*
X285411333Y-244301433D01*
X285241999Y-244216767D01*
X285157333Y-244047433D01*
X285157333Y-243370100D01*
X285241999Y-243200767D01*
X285411333Y-243116100D01*
X285749999Y-243116100D01*
X285919333Y-243200767D01*
X286003999Y-243370100D01*
X286003999Y-243539433D01*
X285157333Y-243708767D01*
X286765999Y-244301433D02*
X286765999Y-243116100D01*
X286765999Y-243454767D02*
X286850666Y-243285433D01*
X286935333Y-243200767D01*
X287104666Y-243116100D01*
X287273999Y-243116100D01*
X288459333Y-243370100D02*
X288713333Y-243454767D01*
X288798000Y-243539433D01*
X288882666Y-243708767D01*
X288882666Y-243962767D01*
X288798000Y-244132100D01*
X288713333Y-244216767D01*
X288544000Y-244301433D01*
X287866666Y-244301433D01*
X287866666Y-242523433D01*
X288459333Y-242523433D01*
X288628666Y-242608100D01*
X288713333Y-242692767D01*
X288798000Y-242862100D01*
X288798000Y-243031433D01*
X288713333Y-243200767D01*
X288628666Y-243285433D01*
X288459333Y-243370100D01*
X287866666Y-243370100D01*
X289898666Y-244301433D02*
X289729333Y-244216767D01*
X289644666Y-244132100D01*
X289560000Y-243962767D01*
X289560000Y-243454767D01*
X289644666Y-243285433D01*
X289729333Y-243200767D01*
X289898666Y-243116100D01*
X290152666Y-243116100D01*
X290322000Y-243200767D01*
X290406666Y-243285433D01*
X290491333Y-243454767D01*
X290491333Y-243962767D01*
X290406666Y-244132100D01*
X290322000Y-244216767D01*
X290152666Y-244301433D01*
X289898666Y-244301433D01*
X292015333Y-244301433D02*
X292015333Y-243370100D01*
X291930667Y-243200767D01*
X291761333Y-243116100D01*
X291422667Y-243116100D01*
X291253333Y-243200767D01*
X292015333Y-244216767D02*
X291846000Y-244301433D01*
X291422667Y-244301433D01*
X291253333Y-244216767D01*
X291168667Y-244047433D01*
X291168667Y-243878100D01*
X291253333Y-243708767D01*
X291422667Y-243624100D01*
X291846000Y-243624100D01*
X292015333Y-243539433D01*
X292862000Y-244301433D02*
X292862000Y-243116100D01*
X292862000Y-243454767D02*
X292946667Y-243285433D01*
X293031334Y-243200767D01*
X293200667Y-243116100D01*
X293370000Y-243116100D01*
X294724667Y-244301433D02*
X294724667Y-242523433D01*
X294724667Y-244216767D02*
X294555334Y-244301433D01*
X294216667Y-244301433D01*
X294047334Y-244216767D01*
X293962667Y-244132100D01*
X293878001Y-243962767D01*
X293878001Y-243454767D01*
X293962667Y-243285433D01*
X294047334Y-243200767D01*
X294216667Y-243116100D01*
X294555334Y-243116100D01*
X294724667Y-243200767D01*
X297942001Y-244301433D02*
X297349335Y-243454767D01*
X296926001Y-244301433D02*
X296926001Y-242523433D01*
X297603335Y-242523433D01*
X297772668Y-242608100D01*
X297857335Y-242692767D01*
X297942001Y-242862100D01*
X297942001Y-243116100D01*
X297857335Y-243285433D01*
X297772668Y-243370100D01*
X297603335Y-243454767D01*
X296926001Y-243454767D01*
X299381335Y-244216767D02*
X299212001Y-244301433D01*
X298873335Y-244301433D01*
X298704001Y-244216767D01*
X298619335Y-244047433D01*
X298619335Y-243370100D01*
X298704001Y-243200767D01*
X298873335Y-243116100D01*
X299212001Y-243116100D01*
X299381335Y-243200767D01*
X299466001Y-243370100D01*
X299466001Y-243539433D01*
X298619335Y-243708767D01*
X300058668Y-243116100D02*
X300482001Y-244301433D01*
X300905335Y-243116100D01*
X303530002Y-243370100D02*
X303784002Y-243454767D01*
X303868669Y-243539433D01*
X303953335Y-243708767D01*
X303953335Y-243962767D01*
X303868669Y-244132100D01*
X303784002Y-244216767D01*
X303614669Y-244301433D01*
X302937335Y-244301433D01*
X302937335Y-242523433D01*
X303530002Y-242523433D01*
X303699335Y-242608100D01*
X303784002Y-242692767D01*
X303868669Y-242862100D01*
X303868669Y-243031433D01*
X303784002Y-243200767D01*
X303699335Y-243285433D01*
X303530002Y-243370100D01*
X302937335Y-243370100D01*
X270213667Y-245406333D02*
X271399000Y-245406333D01*
X270213667Y-247184333D01*
X271399000Y-247184333D01*
X272838333Y-247184333D02*
X272838333Y-246253000D01*
X272753667Y-246083667D01*
X272584333Y-245999000D01*
X272245667Y-245999000D01*
X272076333Y-246083667D01*
X272838333Y-247099667D02*
X272669000Y-247184333D01*
X272245667Y-247184333D01*
X272076333Y-247099667D01*
X271991667Y-246930333D01*
X271991667Y-246761000D01*
X272076333Y-246591667D01*
X272245667Y-246507000D01*
X272669000Y-246507000D01*
X272838333Y-246422333D01*
X274447000Y-247099667D02*
X274277667Y-247184333D01*
X273939000Y-247184333D01*
X273769667Y-247099667D01*
X273685000Y-247015000D01*
X273600334Y-246845667D01*
X273600334Y-246337667D01*
X273685000Y-246168333D01*
X273769667Y-246083667D01*
X273939000Y-245999000D01*
X274277667Y-245999000D01*
X274447000Y-246083667D01*
X275209000Y-247184333D02*
X275209000Y-245406333D01*
X275971000Y-247184333D02*
X275971000Y-246253000D01*
X275886334Y-246083667D01*
X275717000Y-245999000D01*
X275463000Y-245999000D01*
X275293667Y-246083667D01*
X275209000Y-246168333D01*
X279188334Y-247015000D02*
X279103668Y-247099667D01*
X278849668Y-247184333D01*
X278680334Y-247184333D01*
X278426334Y-247099667D01*
X278257001Y-246930333D01*
X278172334Y-246761000D01*
X278087668Y-246422333D01*
X278087668Y-246168333D01*
X278172334Y-245829667D01*
X278257001Y-245660333D01*
X278426334Y-245491000D01*
X278680334Y-245406333D01*
X278849668Y-245406333D01*
X279103668Y-245491000D01*
X279188334Y-245575667D01*
X280204334Y-247184333D02*
X280035001Y-247099667D01*
X279950334Y-247015000D01*
X279865668Y-246845667D01*
X279865668Y-246337667D01*
X279950334Y-246168333D01*
X280035001Y-246083667D01*
X280204334Y-245999000D01*
X280458334Y-245999000D01*
X280627668Y-246083667D01*
X280712334Y-246168333D01*
X280797001Y-246337667D01*
X280797001Y-246845667D01*
X280712334Y-247015000D01*
X280627668Y-247099667D01*
X280458334Y-247184333D01*
X280204334Y-247184333D01*
X281813001Y-247184333D02*
X281643668Y-247099667D01*
X281559001Y-246930333D01*
X281559001Y-245406333D01*
X282744334Y-247184333D02*
X282575001Y-247099667D01*
X282490334Y-246930333D01*
X282490334Y-245406333D01*
X283421667Y-247184333D02*
X283421667Y-245999000D01*
X283421667Y-245406333D02*
X283337001Y-245491000D01*
X283421667Y-245575667D01*
X283506334Y-245491000D01*
X283421667Y-245406333D01*
X283421667Y-245575667D01*
X284268334Y-245999000D02*
X284268334Y-247184333D01*
X284268334Y-246168333D02*
X284353001Y-246083667D01*
X284522334Y-245999000D01*
X284776334Y-245999000D01*
X284945668Y-246083667D01*
X285030334Y-246253000D01*
X285030334Y-247184333D01*
X285792335Y-247099667D02*
X285961668Y-247184333D01*
X286300335Y-247184333D01*
X286469668Y-247099667D01*
X286554335Y-246930333D01*
X286554335Y-246845667D01*
X286469668Y-246676333D01*
X286300335Y-246591667D01*
X286046335Y-246591667D01*
X285877001Y-246507000D01*
X285792335Y-246337667D01*
X285792335Y-246253000D01*
X285877001Y-246083667D01*
X286046335Y-245999000D01*
X286300335Y-245999000D01*
X286469668Y-246083667D01*
X289009668Y-245406333D02*
X289179001Y-245406333D01*
X289348335Y-245491000D01*
X289433001Y-245575667D01*
X289517668Y-245745000D01*
X289602335Y-246083667D01*
X289602335Y-246507000D01*
X289517668Y-246845667D01*
X289433001Y-247015000D01*
X289348335Y-247099667D01*
X289179001Y-247184333D01*
X289009668Y-247184333D01*
X288840335Y-247099667D01*
X288755668Y-247015000D01*
X288671001Y-246845667D01*
X288586335Y-246507000D01*
X288586335Y-246083667D01*
X288671001Y-245745000D01*
X288755668Y-245575667D01*
X288840335Y-245491000D01*
X289009668Y-245406333D01*
X290618334Y-246168333D02*
X290449001Y-246083667D01*
X290364334Y-245999000D01*
X290279668Y-245829667D01*
X290279668Y-245745000D01*
X290364334Y-245575667D01*
X290449001Y-245491000D01*
X290618334Y-245406333D01*
X290957001Y-245406333D01*
X291126334Y-245491000D01*
X291211001Y-245575667D01*
X291295668Y-245745000D01*
X291295668Y-245829667D01*
X291211001Y-245999000D01*
X291126334Y-246083667D01*
X290957001Y-246168333D01*
X290618334Y-246168333D01*
X290449001Y-246253000D01*
X290364334Y-246337667D01*
X290279668Y-246507000D01*
X290279668Y-246845667D01*
X290364334Y-247015000D01*
X290449001Y-247099667D01*
X290618334Y-247184333D01*
X290957001Y-247184333D01*
X291126334Y-247099667D01*
X291211001Y-247015000D01*
X291295668Y-246845667D01*
X291295668Y-246507000D01*
X291211001Y-246337667D01*
X291126334Y-246253000D01*
X290957001Y-246168333D01*
X293327667Y-245321667D02*
X291803667Y-247607667D01*
X293835668Y-245575667D02*
X293920334Y-245491000D01*
X294089668Y-245406333D01*
X294513001Y-245406333D01*
X294682334Y-245491000D01*
X294767001Y-245575667D01*
X294851668Y-245745000D01*
X294851668Y-245914333D01*
X294767001Y-246168333D01*
X293751001Y-247184333D01*
X294851668Y-247184333D01*
X295952334Y-245406333D02*
X296121667Y-245406333D01*
X296291001Y-245491000D01*
X296375667Y-245575667D01*
X296460334Y-245745000D01*
X296545001Y-246083667D01*
X296545001Y-246507000D01*
X296460334Y-246845667D01*
X296375667Y-247015000D01*
X296291001Y-247099667D01*
X296121667Y-247184333D01*
X295952334Y-247184333D01*
X295783001Y-247099667D01*
X295698334Y-247015000D01*
X295613667Y-246845667D01*
X295529001Y-246507000D01*
X295529001Y-246083667D01*
X295613667Y-245745000D01*
X295698334Y-245575667D01*
X295783001Y-245491000D01*
X295952334Y-245406333D01*
X298238334Y-247184333D02*
X297222334Y-247184333D01*
X297730334Y-247184333D02*
X297730334Y-245406333D01*
X297561000Y-245660333D01*
X297391667Y-245829667D01*
X297222334Y-245914333D01*
X299762333Y-245406333D02*
X299423667Y-245406333D01*
X299254333Y-245491000D01*
X299169667Y-245575667D01*
X299000333Y-245829667D01*
X298915667Y-246168333D01*
X298915667Y-246845667D01*
X299000333Y-247015000D01*
X299085000Y-247099667D01*
X299254333Y-247184333D01*
X299593000Y-247184333D01*
X299762333Y-247099667D01*
X299847000Y-247015000D01*
X299931667Y-246845667D01*
X299931667Y-246422333D01*
X299847000Y-246253000D01*
X299762333Y-246168333D01*
X299593000Y-246083667D01*
X299254333Y-246083667D01*
X299085000Y-246168333D01*
X299000333Y-246253000D01*
X298915667Y-246422333D01*
X273727331Y-250067233D02*
X273727331Y-248289233D01*
X274489331Y-250067233D02*
X274489331Y-249135900D01*
X274404665Y-248966567D01*
X274235331Y-248881900D01*
X273981331Y-248881900D01*
X273811998Y-248966567D01*
X273727331Y-249051233D01*
X275081998Y-248881900D02*
X275759332Y-248881900D01*
X275335998Y-248289233D02*
X275335998Y-249813233D01*
X275420665Y-249982567D01*
X275589998Y-250067233D01*
X275759332Y-250067233D01*
X276097998Y-248881900D02*
X276775332Y-248881900D01*
X276351998Y-248289233D02*
X276351998Y-249813233D01*
X276436665Y-249982567D01*
X276605998Y-250067233D01*
X276775332Y-250067233D01*
X277367998Y-248881900D02*
X277367998Y-250659900D01*
X277367998Y-248966567D02*
X277537332Y-248881900D01*
X277875998Y-248881900D01*
X278045332Y-248966567D01*
X278129998Y-249051233D01*
X278214665Y-249220567D01*
X278214665Y-249728567D01*
X278129998Y-249897900D01*
X278045332Y-249982567D01*
X277875998Y-250067233D01*
X277537332Y-250067233D01*
X277367998Y-249982567D01*
X278976665Y-249897900D02*
X279061332Y-249982567D01*
X278976665Y-250067233D01*
X278891999Y-249982567D01*
X278976665Y-249897900D01*
X278976665Y-250067233D01*
X278976665Y-248966567D02*
X279061332Y-249051233D01*
X278976665Y-249135900D01*
X278891999Y-249051233D01*
X278976665Y-248966567D01*
X278976665Y-249135900D01*
X281093332Y-248204567D02*
X279569332Y-250490567D01*
X282955999Y-248204567D02*
X281431999Y-250490567D01*
X284226000Y-249982567D02*
X284056666Y-250067233D01*
X283718000Y-250067233D01*
X283548666Y-249982567D01*
X283464000Y-249813233D01*
X283464000Y-249135900D01*
X283548666Y-248966567D01*
X283718000Y-248881900D01*
X284056666Y-248881900D01*
X284226000Y-248966567D01*
X284310666Y-249135900D01*
X284310666Y-249305233D01*
X283464000Y-249474567D01*
X285834666Y-250067233D02*
X285834666Y-248289233D01*
X285834666Y-249982567D02*
X285665333Y-250067233D01*
X285326666Y-250067233D01*
X285157333Y-249982567D01*
X285072666Y-249897900D01*
X284988000Y-249728567D01*
X284988000Y-249220567D01*
X285072666Y-249051233D01*
X285157333Y-248966567D01*
X285326666Y-248881900D01*
X285665333Y-248881900D01*
X285834666Y-248966567D01*
X286427333Y-248881900D02*
X287104667Y-248881900D01*
X286681333Y-250067233D02*
X286681333Y-248543233D01*
X286766000Y-248373900D01*
X286935333Y-248289233D01*
X287104667Y-248289233D01*
X287697333Y-249897900D02*
X287782000Y-249982567D01*
X287697333Y-250067233D01*
X287612667Y-249982567D01*
X287697333Y-249897900D01*
X287697333Y-250067233D01*
X288544000Y-250067233D02*
X288544000Y-248289233D01*
X288544000Y-248966567D02*
X288713334Y-248881900D01*
X289052000Y-248881900D01*
X289221334Y-248966567D01*
X289306000Y-249051233D01*
X289390667Y-249220567D01*
X289390667Y-249728567D01*
X289306000Y-249897900D01*
X289221334Y-249982567D01*
X289052000Y-250067233D01*
X288713334Y-250067233D01*
X288544000Y-249982567D01*
X290914667Y-248881900D02*
X290914667Y-250067233D01*
X290152667Y-248881900D02*
X290152667Y-249813233D01*
X290237334Y-249982567D01*
X290406667Y-250067233D01*
X290660667Y-250067233D01*
X290830001Y-249982567D01*
X290914667Y-249897900D01*
X291761334Y-249897900D02*
X291846001Y-249982567D01*
X291761334Y-250067233D01*
X291676668Y-249982567D01*
X291761334Y-249897900D01*
X291761334Y-250067233D01*
X293285335Y-249982567D02*
X293116001Y-250067233D01*
X292777335Y-250067233D01*
X292608001Y-249982567D01*
X292523335Y-249813233D01*
X292523335Y-249135900D01*
X292608001Y-248966567D01*
X292777335Y-248881900D01*
X293116001Y-248881900D01*
X293285335Y-248966567D01*
X293370001Y-249135900D01*
X293370001Y-249305233D01*
X292523335Y-249474567D01*
X294894001Y-250067233D02*
X294894001Y-248289233D01*
X294894001Y-249982567D02*
X294724668Y-250067233D01*
X294386001Y-250067233D01*
X294216668Y-249982567D01*
X294132001Y-249897900D01*
X294047335Y-249728567D01*
X294047335Y-249220567D01*
X294132001Y-249051233D01*
X294216668Y-248966567D01*
X294386001Y-248881900D01*
X294724668Y-248881900D01*
X294894001Y-248966567D01*
X296502668Y-248881900D02*
X296502668Y-250067233D01*
X295740668Y-248881900D02*
X295740668Y-249813233D01*
X295825335Y-249982567D01*
X295994668Y-250067233D01*
X296248668Y-250067233D01*
X296418002Y-249982567D01*
X296502668Y-249897900D01*
X253238001Y-269409333D02*
X252222001Y-269409333D01*
X252730001Y-269409333D02*
X252730001Y-267631333D01*
X252560667Y-267885333D01*
X252391334Y-268054667D01*
X252222001Y-268139333D01*
X260350001Y-262551333D02*
X261196667Y-262551333D01*
X260180667Y-263059333D02*
X260773334Y-261281333D01*
X261366001Y-263059333D01*
X261874001Y-261450667D02*
X261958667Y-261366000D01*
X262128001Y-261281333D01*
X262551334Y-261281333D01*
X262720667Y-261366000D01*
X262805334Y-261450667D01*
X262890001Y-261620000D01*
X262890001Y-261789333D01*
X262805334Y-262043333D01*
X261789334Y-263059333D01*
X262890001Y-263059333D01*
X98298001Y-269409333D02*
X97282001Y-269409333D01*
X97790001Y-269409333D02*
X97790001Y-267631333D01*
X97620667Y-267885333D01*
X97451334Y-268054667D01*
X97282001Y-268139333D01*
X175768001Y-269409333D02*
X174752001Y-269409333D01*
X175260001Y-269409333D02*
X175260001Y-267631333D01*
X175090667Y-267885333D01*
X174921334Y-268054667D01*
X174752001Y-268139333D01*
X288163001Y-37951833D02*
X287147001Y-37951833D01*
X287655001Y-37951833D02*
X287655001Y-36173833D01*
X287485667Y-36427833D01*
X287316334Y-36597167D01*
X287147001Y-36681833D01*
X271018001Y-21441833D02*
X270002001Y-21441833D01*
X270510001Y-21441833D02*
X270510001Y-19663833D01*
X270340667Y-19917833D01*
X270171334Y-20087167D01*
X270002001Y-20171833D01*
X253873001Y-37951833D02*
X252857001Y-37951833D01*
X253365001Y-37951833D02*
X253365001Y-36173833D01*
X253195667Y-36427833D01*
X253026334Y-36597167D01*
X252857001Y-36681833D01*
D17*
X236503429Y-21086262D02*
X235936571Y-21086262D01*
X236220000Y-21086262D02*
X236220000Y-20094262D01*
X236125524Y-20235976D01*
X236031048Y-20330452D01*
X235936571Y-20377690D01*
D12*
X219583001Y-37951833D02*
X218567001Y-37951833D01*
X219075001Y-37951833D02*
X219075001Y-36173833D01*
X218905667Y-36427833D01*
X218736334Y-36597167D01*
X218567001Y-36681833D01*
X202438001Y-21441833D02*
X201422001Y-21441833D01*
X201930001Y-21441833D02*
X201930001Y-19663833D01*
X201760667Y-19917833D01*
X201591334Y-20087167D01*
X201422001Y-20171833D01*
X185293001Y-37951833D02*
X184277001Y-37951833D01*
X184785001Y-37951833D02*
X184785001Y-36173833D01*
X184615667Y-36427833D01*
X184446334Y-36597167D01*
X184277001Y-36681833D01*
X168148001Y-21441833D02*
X167132001Y-21441833D01*
X167640001Y-21441833D02*
X167640001Y-19663833D01*
X167470667Y-19917833D01*
X167301334Y-20087167D01*
X167132001Y-20171833D01*
X151003001Y-37951833D02*
X149987001Y-37951833D01*
X150495001Y-37951833D02*
X150495001Y-36173833D01*
X150325667Y-36427833D01*
X150156334Y-36597167D01*
X149987001Y-36681833D01*
X133858001Y-21441833D02*
X132842001Y-21441833D01*
X133350001Y-21441833D02*
X133350001Y-19663833D01*
X133180667Y-19917833D01*
X133011334Y-20087167D01*
X132842001Y-20171833D01*
X116713001Y-37951833D02*
X115697001Y-37951833D01*
X116205001Y-37951833D02*
X116205001Y-36173833D01*
X116035667Y-36427833D01*
X115866334Y-36597167D01*
X115697001Y-36681833D01*
X99568001Y-21441833D02*
X98552001Y-21441833D01*
X99060001Y-21441833D02*
X99060001Y-19663833D01*
X98890667Y-19917833D01*
X98721334Y-20087167D01*
X98552001Y-20171833D01*
X82423001Y-37951833D02*
X81407001Y-37951833D01*
X81915001Y-37951833D02*
X81915001Y-36173833D01*
X81745667Y-36427833D01*
X81576334Y-36597167D01*
X81407001Y-36681833D01*
X65278001Y-21441833D02*
X64262001Y-21441833D01*
X64770001Y-21441833D02*
X64770001Y-19663833D01*
X64600667Y-19917833D01*
X64431334Y-20087167D01*
X64262001Y-20171833D01*
X48133001Y-37951833D02*
X47117001Y-37951833D01*
X47625001Y-37951833D02*
X47625001Y-36173833D01*
X47455667Y-36427833D01*
X47286334Y-36597167D01*
X47117001Y-36681833D01*
X59563001Y-269409333D02*
X58547001Y-269409333D01*
X59055001Y-269409333D02*
X59055001Y-267631333D01*
X58885667Y-267885333D01*
X58716334Y-268054667D01*
X58547001Y-268139333D01*
D17*
X304800000Y-16510000D02*
X304800000Y-270510000D01*
X25400000Y-16510000D02*
X25400000Y-270510000D01*
X25400000Y-270510000D02*
X304800000Y-270510000D01*
X25400000Y-16510000D02*
X304800000Y-16510000D01*
X263460000Y-270200000D02*
X292460000Y-270200000D01*
X292460000Y-252040000D02*
X292460000Y-270200000D01*
X263460000Y-252040000D02*
X292460000Y-252040000D01*
X263460000Y-252040000D02*
X263460000Y-270200000D01*
X137795000Y-260350000D02*
X114935000Y-260350000D01*
X114935000Y-260350000D02*
X114935000Y-262890000D01*
X114935000Y-262890000D02*
X137795000Y-262890000D01*
X137795000Y-262890000D02*
X137795000Y-260350000D01*
X137795000Y-242570000D02*
X114935000Y-242570000D01*
X114935000Y-242570000D02*
X114935000Y-245110000D01*
X114935000Y-245110000D02*
X137795000Y-245110000D01*
X137795000Y-245110000D02*
X137795000Y-242570000D01*
X159067500Y-269875000D02*
X156527500Y-269875000D01*
X159067500Y-239395000D02*
X156527500Y-239395000D01*
X156527500Y-244475000D02*
X156527500Y-269875000D01*
X159067500Y-269875000D02*
X159067500Y-244475000D01*
X156527500Y-239395000D02*
X156527500Y-244475000D01*
X159067500Y-244475000D02*
X159067500Y-239395000D01*
X174307500Y-244475000D02*
X174307500Y-239395000D01*
X171767500Y-239395000D02*
X171767500Y-244475000D01*
X174307500Y-269875000D02*
X174307500Y-244475000D01*
X171767500Y-244475000D02*
X171767500Y-269875000D01*
X174307500Y-239395000D02*
X171767500Y-239395000D01*
X174307500Y-269875000D02*
X171767500Y-269875000D01*
X255587500Y-236220000D02*
X258127500Y-236220000D01*
X255587500Y-172720000D02*
X258127500Y-172720000D01*
X258127500Y-236220000D02*
X258127500Y-172720000D01*
X255587500Y-172720000D02*
X255587500Y-236220000D01*
X227647500Y-172720000D02*
X227647500Y-236220000D01*
X230187500Y-236220000D02*
X230187500Y-172720000D01*
X227647500Y-172720000D02*
X230187500Y-172720000D01*
X227647500Y-236220000D02*
X230187500Y-236220000D01*
X216852500Y-236220000D02*
X219392500Y-236220000D01*
X216852500Y-172720000D02*
X219392500Y-172720000D01*
X219392500Y-236220000D02*
X219392500Y-172720000D01*
X216852500Y-172720000D02*
X216852500Y-236220000D01*
X188912500Y-172720000D02*
X188912500Y-236220000D01*
X191452500Y-236220000D02*
X191452500Y-172720000D01*
X188912500Y-172720000D02*
X191452500Y-172720000D01*
X188912500Y-236220000D02*
X191452500Y-236220000D01*
X61912500Y-236220000D02*
X64452500Y-236220000D01*
X61912500Y-172720000D02*
X64452500Y-172720000D01*
X64452500Y-236220000D02*
X64452500Y-172720000D01*
X61912500Y-172720000D02*
X61912500Y-236220000D01*
X33972500Y-172720000D02*
X33972500Y-236220000D01*
X36512500Y-236220000D02*
X36512500Y-172720000D01*
X33972500Y-172720000D02*
X36512500Y-172720000D01*
X33972500Y-236220000D02*
X36512500Y-236220000D01*
X77787500Y-17462500D02*
X77787500Y-26352500D01*
X98107500Y-17462500D02*
X77787500Y-17462500D01*
X98107500Y-26352500D02*
X98107500Y-17462500D01*
X77787500Y-26352500D02*
X98107500Y-26352500D01*
X26352500Y-33972500D02*
X26352500Y-42862500D01*
X46672500Y-33972500D02*
X26352500Y-33972500D01*
X46672500Y-42862500D02*
X46672500Y-33972500D01*
X26352500Y-42862500D02*
X46672500Y-42862500D01*
X100647500Y-236220000D02*
X103187500Y-236220000D01*
X100647500Y-172720000D02*
X103187500Y-172720000D01*
X103187500Y-236220000D02*
X103187500Y-172720000D01*
X100647500Y-172720000D02*
X100647500Y-236220000D01*
X72707500Y-172720000D02*
X72707500Y-236220000D01*
X75247500Y-236220000D02*
X75247500Y-172720000D01*
X72707500Y-172720000D02*
X75247500Y-172720000D01*
X72707500Y-236220000D02*
X75247500Y-236220000D01*
X139382500Y-236220000D02*
X141922500Y-236220000D01*
X139382500Y-172720000D02*
X141922500Y-172720000D01*
X141922500Y-236220000D02*
X141922500Y-172720000D01*
X139382500Y-172720000D02*
X139382500Y-236220000D01*
X111442500Y-172720000D02*
X111442500Y-236220000D01*
X113982500Y-236220000D02*
X113982500Y-172720000D01*
X111442500Y-172720000D02*
X113982500Y-172720000D01*
X111442500Y-236220000D02*
X113982500Y-236220000D01*
X178117500Y-236220000D02*
X180657500Y-236220000D01*
X178117500Y-172720000D02*
X180657500Y-172720000D01*
X180657500Y-236220000D02*
X180657500Y-172720000D01*
X178117500Y-172720000D02*
X178117500Y-236220000D01*
X150177500Y-172720000D02*
X150177500Y-236220000D01*
X152717500Y-236220000D02*
X152717500Y-172720000D01*
X150177500Y-172720000D02*
X152717500Y-172720000D01*
X150177500Y-236220000D02*
X152717500Y-236220000D01*
X294322500Y-236220000D02*
X296862500Y-236220000D01*
X294322500Y-172720000D02*
X296862500Y-172720000D01*
X296862500Y-236220000D02*
X296862500Y-172720000D01*
X294322500Y-172720000D02*
X294322500Y-236220000D01*
X266382500Y-172720000D02*
X266382500Y-236220000D01*
X268922500Y-236220000D02*
X268922500Y-172720000D01*
X266382500Y-172720000D02*
X268922500Y-172720000D01*
X266382500Y-236220000D02*
X268922500Y-236220000D01*
X197802500Y-33972500D02*
X197802500Y-42862500D01*
X218122500Y-33972500D02*
X197802500Y-33972500D01*
X218122500Y-42862500D02*
X218122500Y-33972500D01*
X197802500Y-42862500D02*
X218122500Y-42862500D01*
X236537500Y-269875000D02*
X233997500Y-269875000D01*
X236537500Y-239395000D02*
X233997500Y-239395000D01*
X233997500Y-244475000D02*
X233997500Y-269875000D01*
X236537500Y-269875000D02*
X236537500Y-244475000D01*
X233997500Y-239395000D02*
X233997500Y-244475000D01*
X236537500Y-244475000D02*
X236537500Y-239395000D01*
X251777500Y-244475000D02*
X251777500Y-239395000D01*
X249237500Y-239395000D02*
X249237500Y-244475000D01*
X251777500Y-269875000D02*
X251777500Y-244475000D01*
X249237500Y-244475000D02*
X249237500Y-269875000D01*
X251777500Y-239395000D02*
X249237500Y-239395000D01*
X251777500Y-269875000D02*
X249237500Y-269875000D01*
X81597500Y-269875000D02*
X79057500Y-269875000D01*
X81597500Y-239395000D02*
X79057500Y-239395000D01*
X79057500Y-244475000D02*
X79057500Y-269875000D01*
X81597500Y-269875000D02*
X81597500Y-244475000D01*
X79057500Y-239395000D02*
X79057500Y-244475000D01*
X81597500Y-244475000D02*
X81597500Y-239395000D01*
X96837500Y-244475000D02*
X96837500Y-239395000D01*
X94297500Y-239395000D02*
X94297500Y-244475000D01*
X96837500Y-269875000D02*
X96837500Y-244475000D01*
X94297500Y-244475000D02*
X94297500Y-269875000D01*
X96837500Y-239395000D02*
X94297500Y-239395000D01*
X96837500Y-269875000D02*
X94297500Y-269875000D01*
X294322500Y-231140000D02*
X268922500Y-231140000D01*
X268922500Y-233680000D02*
X294322500Y-233680000D01*
X268922500Y-231140000D02*
X268922500Y-233680000D01*
X294322500Y-231140000D02*
X294322500Y-233680000D01*
X255587500Y-231140000D02*
X230187500Y-231140000D01*
X230187500Y-233680000D02*
X255587500Y-233680000D01*
X230187500Y-231140000D02*
X230187500Y-233680000D01*
X255587500Y-231140000D02*
X255587500Y-233680000D01*
X216852500Y-231140000D02*
X191452500Y-231140000D01*
X191452500Y-233680000D02*
X216852500Y-233680000D01*
X191452500Y-231140000D02*
X191452500Y-233680000D01*
X216852500Y-231140000D02*
X216852500Y-233680000D01*
X178117500Y-231140000D02*
X152717500Y-231140000D01*
X152717500Y-233680000D02*
X178117500Y-233680000D01*
X152717500Y-231140000D02*
X152717500Y-233680000D01*
X178117500Y-231140000D02*
X178117500Y-233680000D01*
X139382500Y-231140000D02*
X113982500Y-231140000D01*
X113982500Y-233680000D02*
X139382500Y-233680000D01*
X113982500Y-231140000D02*
X113982500Y-233680000D01*
X139382500Y-231140000D02*
X139382500Y-233680000D01*
X100647500Y-231140000D02*
X75247500Y-231140000D01*
X75247500Y-233680000D02*
X100647500Y-233680000D01*
X75247500Y-231140000D02*
X75247500Y-233680000D01*
X100647500Y-231140000D02*
X100647500Y-233680000D01*
X61912500Y-231140000D02*
X36512500Y-231140000D01*
X36512500Y-233680000D02*
X61912500Y-233680000D01*
X36512500Y-231140000D02*
X36512500Y-233680000D01*
X61912500Y-231140000D02*
X61912500Y-233680000D01*
X268922500Y-236220000D02*
X294322500Y-236220000D01*
X294322500Y-233680000D02*
X268922500Y-233680000D01*
X294322500Y-236220000D02*
X294322500Y-233680000D01*
X268922500Y-236220000D02*
X268922500Y-233680000D01*
X230187500Y-236220000D02*
X255587500Y-236220000D01*
X255587500Y-233680000D02*
X230187500Y-233680000D01*
X255587500Y-236220000D02*
X255587500Y-233680000D01*
X230187500Y-236220000D02*
X230187500Y-233680000D01*
X191452500Y-236220000D02*
X216852500Y-236220000D01*
X216852500Y-233680000D02*
X191452500Y-233680000D01*
X216852500Y-236220000D02*
X216852500Y-233680000D01*
X191452500Y-236220000D02*
X191452500Y-233680000D01*
X152717500Y-236220000D02*
X178117500Y-236220000D01*
X178117500Y-233680000D02*
X152717500Y-233680000D01*
X178117500Y-236220000D02*
X178117500Y-233680000D01*
X152717500Y-236220000D02*
X152717500Y-233680000D01*
X113982500Y-236220000D02*
X139382500Y-236220000D01*
X139382500Y-233680000D02*
X113982500Y-233680000D01*
X139382500Y-236220000D02*
X139382500Y-233680000D01*
X113982500Y-236220000D02*
X113982500Y-233680000D01*
X75247500Y-236220000D02*
X100647500Y-236220000D01*
X100647500Y-233680000D02*
X75247500Y-233680000D01*
X100647500Y-236220000D02*
X100647500Y-233680000D01*
X75247500Y-236220000D02*
X75247500Y-233680000D01*
X36512500Y-236220000D02*
X61912500Y-236220000D01*
X61912500Y-233680000D02*
X36512500Y-233680000D01*
X61912500Y-236220000D02*
X61912500Y-233680000D01*
X36512500Y-236220000D02*
X36512500Y-233680000D01*
X94932500Y-33972500D02*
X94932500Y-42862500D01*
X115252500Y-33972500D02*
X94932500Y-33972500D01*
X115252500Y-42862500D02*
X115252500Y-33972500D01*
X94932500Y-42862500D02*
X115252500Y-42862500D01*
X163512500Y-33972500D02*
X163512500Y-42862500D01*
X183832500Y-33972500D02*
X163512500Y-33972500D01*
X183832500Y-42862500D02*
X183832500Y-33972500D01*
X163512500Y-42862500D02*
X183832500Y-42862500D01*
X232092500Y-33972500D02*
X232092500Y-42862500D01*
X252412500Y-33972500D02*
X232092500Y-33972500D01*
X252412500Y-42862500D02*
X252412500Y-33972500D01*
X232092500Y-42862500D02*
X252412500Y-42862500D01*
X60642500Y-33972500D02*
X60642500Y-42862500D01*
X80962500Y-33972500D02*
X60642500Y-33972500D01*
X80962500Y-42862500D02*
X80962500Y-33972500D01*
X60642500Y-42862500D02*
X80962500Y-42862500D01*
X129222500Y-33972500D02*
X129222500Y-42862500D01*
X149542500Y-33972500D02*
X129222500Y-33972500D01*
X149542500Y-42862500D02*
X149542500Y-33972500D01*
X129222500Y-42862500D02*
X149542500Y-42862500D01*
X266382500Y-33972500D02*
X266382500Y-42862500D01*
X286702500Y-33972500D02*
X266382500Y-33972500D01*
X286702500Y-42862500D02*
X286702500Y-33972500D01*
X266382500Y-42862500D02*
X286702500Y-42862500D01*
X43497500Y-17462500D02*
X43497500Y-26352500D01*
X63817500Y-17462500D02*
X43497500Y-17462500D01*
X63817500Y-26352500D02*
X63817500Y-17462500D01*
X43497500Y-26352500D02*
X63817500Y-26352500D01*
X112077500Y-17462500D02*
X112077500Y-26352500D01*
X132397500Y-17462500D02*
X112077500Y-17462500D01*
X132397500Y-26352500D02*
X132397500Y-17462500D01*
X112077500Y-26352500D02*
X132397500Y-26352500D01*
X180657500Y-17462500D02*
X180657500Y-26352500D01*
X200977500Y-17462500D02*
X180657500Y-17462500D01*
X200977500Y-26352500D02*
X200977500Y-17462500D01*
X180657500Y-26352500D02*
X200977500Y-26352500D01*
X249237500Y-17462500D02*
X249237500Y-26352500D01*
X269557500Y-17462500D02*
X249237500Y-17462500D01*
X269557500Y-26352500D02*
X269557500Y-17462500D01*
X249237500Y-26352500D02*
X269557500Y-26352500D01*
X146367500Y-17462500D02*
X146367500Y-26352500D01*
X166687500Y-17462500D02*
X146367500Y-17462500D01*
X166687500Y-26352500D02*
X166687500Y-17462500D01*
X146367500Y-26352500D02*
X166687500Y-26352500D01*
X214947500Y-17462500D02*
X214947500Y-26352500D01*
X235267500Y-17462500D02*
X214947500Y-17462500D01*
X235267500Y-26352500D02*
X235267500Y-17462500D01*
X214947500Y-26352500D02*
X235267500Y-26352500D01*
X283527500Y-17462500D02*
X283527500Y-26352500D01*
X303847500Y-17462500D02*
X283527500Y-17462500D01*
X303847500Y-26352500D02*
X303847500Y-17462500D01*
X283527500Y-26352500D02*
X303847500Y-26352500D01*
X298652500Y-224060000D02*
X298652500Y-228060000D01*
X298652500Y-228060000D02*
X300152500Y-228060000D01*
X300152500Y-228060000D02*
X300152500Y-224060000D01*
X300152500Y-224060000D02*
X298652500Y-224060000D01*
X263092500Y-224060000D02*
X263092500Y-228060000D01*
X263092500Y-228060000D02*
X264592500Y-228060000D01*
X264592500Y-228060000D02*
X264592500Y-224060000D01*
X264592500Y-224060000D02*
X263092500Y-224060000D01*
X259917500Y-224060000D02*
X259917500Y-228060000D01*
X259917500Y-228060000D02*
X261417500Y-228060000D01*
X261417500Y-228060000D02*
X261417500Y-224060000D01*
X261417500Y-224060000D02*
X259917500Y-224060000D01*
X224357500Y-224060000D02*
X224357500Y-228060000D01*
X224357500Y-228060000D02*
X225857500Y-228060000D01*
X225857500Y-228060000D02*
X225857500Y-224060000D01*
X225857500Y-224060000D02*
X224357500Y-224060000D01*
X221182500Y-224060000D02*
X221182500Y-228060000D01*
X221182500Y-228060000D02*
X222682500Y-228060000D01*
X222682500Y-228060000D02*
X222682500Y-224060000D01*
X222682500Y-224060000D02*
X221182500Y-224060000D01*
X185622500Y-224060000D02*
X185622500Y-228060000D01*
X185622500Y-228060000D02*
X187122500Y-228060000D01*
X187122500Y-228060000D02*
X187122500Y-224060000D01*
X187122500Y-224060000D02*
X185622500Y-224060000D01*
X182447500Y-224060000D02*
X182447500Y-228060000D01*
X182447500Y-228060000D02*
X183947500Y-228060000D01*
X183947500Y-228060000D02*
X183947500Y-224060000D01*
X183947500Y-224060000D02*
X182447500Y-224060000D01*
X146887500Y-224060000D02*
X146887500Y-228060000D01*
X146887500Y-228060000D02*
X148387500Y-228060000D01*
X148387500Y-228060000D02*
X148387500Y-224060000D01*
X148387500Y-224060000D02*
X146887500Y-224060000D01*
X143712500Y-224060000D02*
X143712500Y-228060000D01*
X143712500Y-228060000D02*
X145212500Y-228060000D01*
X145212500Y-228060000D02*
X145212500Y-224060000D01*
X145212500Y-224060000D02*
X143712500Y-224060000D01*
X108152500Y-224060000D02*
X108152500Y-228060000D01*
X108152500Y-228060000D02*
X109652500Y-228060000D01*
X109652500Y-228060000D02*
X109652500Y-224060000D01*
X109652500Y-224060000D02*
X108152500Y-224060000D01*
X104977500Y-224060000D02*
X104977500Y-228060000D01*
X104977500Y-228060000D02*
X106477500Y-228060000D01*
X106477500Y-228060000D02*
X106477500Y-224060000D01*
X106477500Y-224060000D02*
X104977500Y-224060000D01*
X69417500Y-224060000D02*
X69417500Y-228060000D01*
X69417500Y-228060000D02*
X70917500Y-228060000D01*
X70917500Y-228060000D02*
X70917500Y-224060000D01*
X70917500Y-224060000D02*
X69417500Y-224060000D01*
X66242500Y-224060000D02*
X66242500Y-228060000D01*
X66242500Y-228060000D02*
X67742500Y-228060000D01*
X67742500Y-228060000D02*
X67742500Y-224060000D01*
X67742500Y-224060000D02*
X66242500Y-224060000D01*
X30682500Y-224060000D02*
X30682500Y-228060000D01*
X30682500Y-228060000D02*
X32182500Y-228060000D01*
X32182500Y-228060000D02*
X32182500Y-224060000D01*
X32182500Y-224060000D02*
X30682500Y-224060000D01*
X42862500Y-269875000D02*
X40322500Y-269875000D01*
X42862500Y-239395000D02*
X40322500Y-239395000D01*
X40322500Y-244475000D02*
X40322500Y-269875000D01*
X42862500Y-269875000D02*
X42862500Y-244475000D01*
X40322500Y-239395000D02*
X40322500Y-244475000D01*
X42862500Y-244475000D02*
X42862500Y-239395000D01*
X58102500Y-244475000D02*
X58102500Y-239395000D01*
X55562500Y-239395000D02*
X55562500Y-244475000D01*
X58102500Y-269875000D02*
X58102500Y-244475000D01*
X55562500Y-244475000D02*
X55562500Y-269875000D01*
X58102500Y-239395000D02*
X55562500Y-239395000D01*
X58102500Y-269875000D02*
X55562500Y-269875000D01*
X254635000Y-255905000D02*
X254635000Y-263525000D01*
X254635000Y-263525000D02*
X259715000Y-263525000D01*
X259715000Y-263525000D02*
X259715000Y-255905000D01*
X259715000Y-255905000D02*
X254635000Y-255905000D01*
X218808300Y-249666125D02*
X188226700Y-249666125D01*
X188226700Y-270494125D02*
X188226700Y-249666125D01*
X218808300Y-270494125D02*
X218808300Y-249666125D01*
X188226700Y-270494125D02*
X218808300Y-270494125D01*
X32702500Y-223520000D02*
X32702500Y-198120000D01*
X30162500Y-198120000D02*
X30162500Y-223520000D01*
X32702500Y-198120000D02*
X30162500Y-198120000D01*
X32702500Y-223520000D02*
X30162500Y-223520000D01*
X68262500Y-223520000D02*
X68262500Y-198120000D01*
X65722500Y-198120000D02*
X65722500Y-223520000D01*
X68262500Y-198120000D02*
X65722500Y-198120000D01*
X68262500Y-223520000D02*
X65722500Y-223520000D01*
X71437500Y-223520000D02*
X71437500Y-198120000D01*
X68897500Y-198120000D02*
X68897500Y-223520000D01*
X71437500Y-198120000D02*
X68897500Y-198120000D01*
X71437500Y-223520000D02*
X68897500Y-223520000D01*
X106997500Y-223520000D02*
X106997500Y-198120000D01*
X104457500Y-198120000D02*
X104457500Y-223520000D01*
X106997500Y-198120000D02*
X104457500Y-198120000D01*
X106997500Y-223520000D02*
X104457500Y-223520000D01*
X110172500Y-223520000D02*
X110172500Y-198120000D01*
X107632500Y-198120000D02*
X107632500Y-223520000D01*
X110172500Y-198120000D02*
X107632500Y-198120000D01*
X110172500Y-223520000D02*
X107632500Y-223520000D01*
X145732500Y-223520000D02*
X145732500Y-198120000D01*
X143192500Y-198120000D02*
X143192500Y-223520000D01*
X145732500Y-198120000D02*
X143192500Y-198120000D01*
X145732500Y-223520000D02*
X143192500Y-223520000D01*
X148907500Y-223520000D02*
X148907500Y-198120000D01*
X146367500Y-198120000D02*
X146367500Y-223520000D01*
X148907500Y-198120000D02*
X146367500Y-198120000D01*
X148907500Y-223520000D02*
X146367500Y-223520000D01*
X184467500Y-223520000D02*
X184467500Y-198120000D01*
X181927500Y-198120000D02*
X181927500Y-223520000D01*
X184467500Y-198120000D02*
X181927500Y-198120000D01*
X184467500Y-223520000D02*
X181927500Y-223520000D01*
X187642500Y-223520000D02*
X187642500Y-198120000D01*
X185102500Y-198120000D02*
X185102500Y-223520000D01*
X187642500Y-198120000D02*
X185102500Y-198120000D01*
X187642500Y-223520000D02*
X185102500Y-223520000D01*
X223202500Y-223520000D02*
X223202500Y-198120000D01*
X220662500Y-198120000D02*
X220662500Y-223520000D01*
X223202500Y-198120000D02*
X220662500Y-198120000D01*
X223202500Y-223520000D02*
X220662500Y-223520000D01*
X226377500Y-223520000D02*
X226377500Y-198120000D01*
X223837500Y-198120000D02*
X223837500Y-223520000D01*
X226377500Y-198120000D02*
X223837500Y-198120000D01*
X226377500Y-223520000D02*
X223837500Y-223520000D01*
X261937500Y-223520000D02*
X261937500Y-198120000D01*
X259397500Y-198120000D02*
X259397500Y-223520000D01*
X261937500Y-198120000D02*
X259397500Y-198120000D01*
X261937500Y-223520000D02*
X259397500Y-223520000D01*
X265112500Y-223520000D02*
X265112500Y-198120000D01*
X262572500Y-198120000D02*
X262572500Y-223520000D01*
X265112500Y-198120000D02*
X262572500Y-198120000D01*
X265112500Y-223520000D02*
X262572500Y-223520000D01*
X300672500Y-223520000D02*
X300672500Y-198120000D01*
X298132500Y-198120000D02*
X298132500Y-223520000D01*
X300672500Y-198120000D02*
X298132500Y-198120000D01*
X300672500Y-223520000D02*
X298132500Y-223520000D01*
X61162500Y-258032500D02*
X61162500Y-262032500D01*
X61162500Y-262032500D02*
X62662500Y-262032500D01*
X62662500Y-262032500D02*
X62662500Y-258032500D01*
X62662500Y-258032500D02*
X61162500Y-258032500D01*
X99897500Y-258032500D02*
X99897500Y-262032500D01*
X99897500Y-262032500D02*
X101397500Y-262032500D01*
X101397500Y-262032500D02*
X101397500Y-258032500D01*
X101397500Y-258032500D02*
X99897500Y-258032500D01*
X177367500Y-258032500D02*
X177367500Y-262032500D01*
X177367500Y-262032500D02*
X178867500Y-262032500D01*
X178867500Y-262032500D02*
X178867500Y-258032500D01*
X178867500Y-258032500D02*
X177367500Y-258032500D01*
X256337500Y-269017500D02*
X256337500Y-265017500D01*
X256337500Y-265017500D02*
X254837500Y-265017500D01*
X254837500Y-265017500D02*
X254837500Y-269017500D01*
X254837500Y-269017500D02*
X256337500Y-269017500D01*
D18*
X294703500Y-255756833D02*
X294703500Y-253978833D01*
X295380834Y-253978833D01*
X295550167Y-254063500D01*
X295634834Y-254148167D01*
X295719500Y-254317500D01*
X295719500Y-254571500D01*
X295634834Y-254740833D01*
X295550167Y-254825500D01*
X295380834Y-254910167D01*
X294703500Y-254910167D01*
X296312167Y-253978833D02*
X297412834Y-253978833D01*
X296820167Y-254656167D01*
X297074167Y-254656167D01*
X297243500Y-254740833D01*
X297328167Y-254825500D01*
X297412834Y-254994833D01*
X297412834Y-255418167D01*
X297328167Y-255587500D01*
X297243500Y-255672167D01*
X297074167Y-255756833D01*
X296566167Y-255756833D01*
X296396834Y-255672167D01*
X296312167Y-255587500D01*
X299106167Y-255756833D02*
X298090167Y-255756833D01*
X298598167Y-255756833D02*
X298598167Y-253978833D01*
X298428833Y-254232833D01*
X298259500Y-254402167D01*
X298090167Y-254486833D01*
D12*
X110320667Y-244644333D02*
X110320667Y-242866333D01*
X110913334Y-244136333D01*
X111506001Y-242866333D01*
X111506001Y-244644333D01*
X112606667Y-243628333D02*
X112437334Y-243543667D01*
X112352667Y-243459000D01*
X112268001Y-243289667D01*
X112268001Y-243205000D01*
X112352667Y-243035667D01*
X112437334Y-242951000D01*
X112606667Y-242866333D01*
X112945334Y-242866333D01*
X113114667Y-242951000D01*
X113199334Y-243035667D01*
X113284001Y-243205000D01*
X113284001Y-243289667D01*
X113199334Y-243459000D01*
X113114667Y-243543667D01*
X112945334Y-243628333D01*
X112606667Y-243628333D01*
X112437334Y-243713000D01*
X112352667Y-243797667D01*
X112268001Y-243967000D01*
X112268001Y-244305667D01*
X112352667Y-244475000D01*
X112437334Y-244559667D01*
X112606667Y-244644333D01*
X112945334Y-244644333D01*
X113114667Y-244559667D01*
X113199334Y-244475000D01*
X113284001Y-244305667D01*
X113284001Y-243967000D01*
X113199334Y-243797667D01*
X113114667Y-243713000D01*
X112945334Y-243628333D01*
X153267833Y-239691333D02*
X153267833Y-241130667D01*
X153352500Y-241300000D01*
X153437167Y-241384667D01*
X153606500Y-241469333D01*
X153945167Y-241469333D01*
X154114500Y-241384667D01*
X154199167Y-241300000D01*
X154283833Y-241130667D01*
X154283833Y-239691333D01*
X154961167Y-239691333D02*
X156061834Y-239691333D01*
X155469167Y-240368667D01*
X155723167Y-240368667D01*
X155892500Y-240453333D01*
X155977167Y-240538000D01*
X156061834Y-240707333D01*
X156061834Y-241130667D01*
X155977167Y-241300000D01*
X155892500Y-241384667D01*
X155723167Y-241469333D01*
X155215167Y-241469333D01*
X155045834Y-241384667D01*
X154961167Y-241300000D01*
X241448167Y-170349333D02*
X241448167Y-168571333D01*
X242040834Y-169841333D01*
X242633501Y-168571333D01*
X242633501Y-170349333D01*
X244242167Y-168571333D02*
X243903501Y-168571333D01*
X243734167Y-168656000D01*
X243649501Y-168740667D01*
X243480167Y-168994667D01*
X243395501Y-169333333D01*
X243395501Y-170010667D01*
X243480167Y-170180000D01*
X243564834Y-170264667D01*
X243734167Y-170349333D01*
X244072834Y-170349333D01*
X244242167Y-170264667D01*
X244326834Y-170180000D01*
X244411501Y-170010667D01*
X244411501Y-169587333D01*
X244326834Y-169418000D01*
X244242167Y-169333333D01*
X244072834Y-169248667D01*
X243734167Y-169248667D01*
X243564834Y-169333333D01*
X243480167Y-169418000D01*
X243395501Y-169587333D01*
X202713167Y-170349333D02*
X202713167Y-168571333D01*
X203305834Y-169841333D01*
X203898501Y-168571333D01*
X203898501Y-170349333D01*
X205591834Y-168571333D02*
X204745167Y-168571333D01*
X204660501Y-169418000D01*
X204745167Y-169333333D01*
X204914501Y-169248667D01*
X205337834Y-169248667D01*
X205507167Y-169333333D01*
X205591834Y-169418000D01*
X205676501Y-169587333D01*
X205676501Y-170010667D01*
X205591834Y-170180000D01*
X205507167Y-170264667D01*
X205337834Y-170349333D01*
X204914501Y-170349333D01*
X204745167Y-170264667D01*
X204660501Y-170180000D01*
X48090667Y-170349333D02*
X48090667Y-168571333D01*
X48683334Y-169841333D01*
X49276001Y-168571333D01*
X49276001Y-170349333D01*
X51054001Y-170349333D02*
X50038001Y-170349333D01*
X50546001Y-170349333D02*
X50546001Y-168571333D01*
X50376667Y-168825333D01*
X50207334Y-168994667D01*
X50038001Y-169079333D01*
X86635167Y-28744333D02*
X86635167Y-26966333D01*
X87312501Y-26966333D01*
X87481834Y-27051000D01*
X87566501Y-27135667D01*
X87651167Y-27305000D01*
X87651167Y-27559000D01*
X87566501Y-27728333D01*
X87481834Y-27813000D01*
X87312501Y-27897667D01*
X86635167Y-27897667D01*
X89175167Y-27559000D02*
X89175167Y-28744333D01*
X88751834Y-26881667D02*
X88328501Y-28151667D01*
X89429167Y-28151667D01*
X34353500Y-33506833D02*
X34353500Y-31728833D01*
X35030834Y-31728833D01*
X35200167Y-31813500D01*
X35284834Y-31898167D01*
X35369500Y-32067500D01*
X35369500Y-32321500D01*
X35284834Y-32490833D01*
X35200167Y-32575500D01*
X35030834Y-32660167D01*
X34353500Y-32660167D01*
X37062834Y-33506833D02*
X36046834Y-33506833D01*
X36554834Y-33506833D02*
X36554834Y-31728833D01*
X36385500Y-31982833D01*
X36216167Y-32152167D01*
X36046834Y-32236833D01*
X38586833Y-31728833D02*
X38248167Y-31728833D01*
X38078833Y-31813500D01*
X37994167Y-31898167D01*
X37824833Y-32152167D01*
X37740167Y-32490833D01*
X37740167Y-33168167D01*
X37824833Y-33337500D01*
X37909500Y-33422167D01*
X38078833Y-33506833D01*
X38417500Y-33506833D01*
X38586833Y-33422167D01*
X38671500Y-33337500D01*
X38756167Y-33168167D01*
X38756167Y-32744833D01*
X38671500Y-32575500D01*
X38586833Y-32490833D01*
X38417500Y-32406167D01*
X38078833Y-32406167D01*
X37909500Y-32490833D01*
X37824833Y-32575500D01*
X37740167Y-32744833D01*
X86508167Y-170349333D02*
X86508167Y-168571333D01*
X87100834Y-169841333D01*
X87693501Y-168571333D01*
X87693501Y-170349333D01*
X88455501Y-168740667D02*
X88540167Y-168656000D01*
X88709501Y-168571333D01*
X89132834Y-168571333D01*
X89302167Y-168656000D01*
X89386834Y-168740667D01*
X89471501Y-168910000D01*
X89471501Y-169079333D01*
X89386834Y-169333333D01*
X88370834Y-170349333D01*
X89471501Y-170349333D01*
X125243167Y-170349333D02*
X125243167Y-168571333D01*
X125835834Y-169841333D01*
X126428501Y-168571333D01*
X126428501Y-170349333D01*
X127105834Y-168571333D02*
X128206501Y-168571333D01*
X127613834Y-169248667D01*
X127867834Y-169248667D01*
X128037167Y-169333333D01*
X128121834Y-169418000D01*
X128206501Y-169587333D01*
X128206501Y-170010667D01*
X128121834Y-170180000D01*
X128037167Y-170264667D01*
X127867834Y-170349333D01*
X127359834Y-170349333D01*
X127190501Y-170264667D01*
X127105834Y-170180000D01*
X163978167Y-170349333D02*
X163978167Y-168571333D01*
X164570834Y-169841333D01*
X165163501Y-168571333D01*
X165163501Y-170349333D01*
X166772167Y-169164000D02*
X166772167Y-170349333D01*
X166348834Y-168486667D02*
X165925501Y-169756667D01*
X167026167Y-169756667D01*
X280183167Y-170349333D02*
X280183167Y-168571333D01*
X280775834Y-169841333D01*
X281368501Y-168571333D01*
X281368501Y-170349333D01*
X282045834Y-168571333D02*
X283231167Y-168571333D01*
X282469167Y-170349333D01*
X205803500Y-33506833D02*
X205803500Y-31728833D01*
X206480834Y-31728833D01*
X206650167Y-31813500D01*
X206734834Y-31898167D01*
X206819500Y-32067500D01*
X206819500Y-32321500D01*
X206734834Y-32490833D01*
X206650167Y-32575500D01*
X206480834Y-32660167D01*
X205803500Y-32660167D01*
X208512834Y-33506833D02*
X207496834Y-33506833D01*
X208004834Y-33506833D02*
X208004834Y-31728833D01*
X207835500Y-31982833D01*
X207666167Y-32152167D01*
X207496834Y-32236833D01*
X209613500Y-31728833D02*
X209782833Y-31728833D01*
X209952167Y-31813500D01*
X210036833Y-31898167D01*
X210121500Y-32067500D01*
X210206167Y-32406167D01*
X210206167Y-32829500D01*
X210121500Y-33168167D01*
X210036833Y-33337500D01*
X209952167Y-33422167D01*
X209782833Y-33506833D01*
X209613500Y-33506833D01*
X209444167Y-33422167D01*
X209359500Y-33337500D01*
X209274833Y-33168167D01*
X209190167Y-32829500D01*
X209190167Y-32406167D01*
X209274833Y-32067500D01*
X209359500Y-31898167D01*
X209444167Y-31813500D01*
X209613500Y-31728833D01*
X230737833Y-239691333D02*
X230737833Y-241130667D01*
X230822500Y-241300000D01*
X230907167Y-241384667D01*
X231076500Y-241469333D01*
X231415167Y-241469333D01*
X231584500Y-241384667D01*
X231669167Y-241300000D01*
X231753833Y-241130667D01*
X231753833Y-239691333D01*
X233362500Y-240284000D02*
X233362500Y-241469333D01*
X232939167Y-239606667D02*
X232515834Y-240876667D01*
X233616500Y-240876667D01*
X75797833Y-239691333D02*
X75797833Y-241130667D01*
X75882500Y-241300000D01*
X75967167Y-241384667D01*
X76136500Y-241469333D01*
X76475167Y-241469333D01*
X76644500Y-241384667D01*
X76729167Y-241300000D01*
X76813833Y-241130667D01*
X76813833Y-239691333D01*
X77575834Y-239860667D02*
X77660500Y-239776000D01*
X77829834Y-239691333D01*
X78253167Y-239691333D01*
X78422500Y-239776000D01*
X78507167Y-239860667D01*
X78591834Y-240030000D01*
X78591834Y-240199333D01*
X78507167Y-240453333D01*
X77491167Y-241469333D01*
X78591834Y-241469333D01*
X276711833Y-230674333D02*
X276711833Y-228896333D01*
X277389167Y-228896333D01*
X277558500Y-228981000D01*
X277643167Y-229065667D01*
X277727833Y-229235000D01*
X277727833Y-229489000D01*
X277643167Y-229658333D01*
X277558500Y-229743000D01*
X277389167Y-229827667D01*
X276711833Y-229827667D01*
X278320500Y-228896333D02*
X278743833Y-230674333D01*
X279082500Y-229404333D01*
X279421167Y-230674333D01*
X279844500Y-228896333D01*
X281537833Y-230674333D02*
X280945167Y-229827667D01*
X280521833Y-230674333D02*
X280521833Y-228896333D01*
X281199167Y-228896333D01*
X281368500Y-228981000D01*
X281453167Y-229065667D01*
X281537833Y-229235000D01*
X281537833Y-229489000D01*
X281453167Y-229658333D01*
X281368500Y-229743000D01*
X281199167Y-229827667D01*
X280521833Y-229827667D01*
X281876500Y-230843667D02*
X283231167Y-230843667D01*
X283654500Y-230674333D02*
X283654500Y-228896333D01*
X284247167Y-230166333D01*
X284839834Y-228896333D01*
X284839834Y-230674333D01*
X285517167Y-228896333D02*
X286702500Y-228896333D01*
X285940500Y-230674333D01*
X237976833Y-230674333D02*
X237976833Y-228896333D01*
X238654167Y-228896333D01*
X238823500Y-228981000D01*
X238908167Y-229065667D01*
X238992833Y-229235000D01*
X238992833Y-229489000D01*
X238908167Y-229658333D01*
X238823500Y-229743000D01*
X238654167Y-229827667D01*
X237976833Y-229827667D01*
X239585500Y-228896333D02*
X240008833Y-230674333D01*
X240347500Y-229404333D01*
X240686167Y-230674333D01*
X241109500Y-228896333D01*
X242802833Y-230674333D02*
X242210167Y-229827667D01*
X241786833Y-230674333D02*
X241786833Y-228896333D01*
X242464167Y-228896333D01*
X242633500Y-228981000D01*
X242718167Y-229065667D01*
X242802833Y-229235000D01*
X242802833Y-229489000D01*
X242718167Y-229658333D01*
X242633500Y-229743000D01*
X242464167Y-229827667D01*
X241786833Y-229827667D01*
X243141500Y-230843667D02*
X244496167Y-230843667D01*
X244919500Y-230674333D02*
X244919500Y-228896333D01*
X245512167Y-230166333D01*
X246104834Y-228896333D01*
X246104834Y-230674333D01*
X247713500Y-228896333D02*
X247374834Y-228896333D01*
X247205500Y-228981000D01*
X247120834Y-229065667D01*
X246951500Y-229319667D01*
X246866834Y-229658333D01*
X246866834Y-230335667D01*
X246951500Y-230505000D01*
X247036167Y-230589667D01*
X247205500Y-230674333D01*
X247544167Y-230674333D01*
X247713500Y-230589667D01*
X247798167Y-230505000D01*
X247882834Y-230335667D01*
X247882834Y-229912333D01*
X247798167Y-229743000D01*
X247713500Y-229658333D01*
X247544167Y-229573667D01*
X247205500Y-229573667D01*
X247036167Y-229658333D01*
X246951500Y-229743000D01*
X246866834Y-229912333D01*
X199241833Y-230674333D02*
X199241833Y-228896333D01*
X199919167Y-228896333D01*
X200088500Y-228981000D01*
X200173167Y-229065667D01*
X200257833Y-229235000D01*
X200257833Y-229489000D01*
X200173167Y-229658333D01*
X200088500Y-229743000D01*
X199919167Y-229827667D01*
X199241833Y-229827667D01*
X200850500Y-228896333D02*
X201273833Y-230674333D01*
X201612500Y-229404333D01*
X201951167Y-230674333D01*
X202374500Y-228896333D01*
X204067833Y-230674333D02*
X203475167Y-229827667D01*
X203051833Y-230674333D02*
X203051833Y-228896333D01*
X203729167Y-228896333D01*
X203898500Y-228981000D01*
X203983167Y-229065667D01*
X204067833Y-229235000D01*
X204067833Y-229489000D01*
X203983167Y-229658333D01*
X203898500Y-229743000D01*
X203729167Y-229827667D01*
X203051833Y-229827667D01*
X204406500Y-230843667D02*
X205761167Y-230843667D01*
X206184500Y-230674333D02*
X206184500Y-228896333D01*
X206777167Y-230166333D01*
X207369834Y-228896333D01*
X207369834Y-230674333D01*
X209063167Y-228896333D02*
X208216500Y-228896333D01*
X208131834Y-229743000D01*
X208216500Y-229658333D01*
X208385834Y-229573667D01*
X208809167Y-229573667D01*
X208978500Y-229658333D01*
X209063167Y-229743000D01*
X209147834Y-229912333D01*
X209147834Y-230335667D01*
X209063167Y-230505000D01*
X208978500Y-230589667D01*
X208809167Y-230674333D01*
X208385834Y-230674333D01*
X208216500Y-230589667D01*
X208131834Y-230505000D01*
X160506833Y-230674333D02*
X160506833Y-228896333D01*
X161184167Y-228896333D01*
X161353500Y-228981000D01*
X161438167Y-229065667D01*
X161522833Y-229235000D01*
X161522833Y-229489000D01*
X161438167Y-229658333D01*
X161353500Y-229743000D01*
X161184167Y-229827667D01*
X160506833Y-229827667D01*
X162115500Y-228896333D02*
X162538833Y-230674333D01*
X162877500Y-229404333D01*
X163216167Y-230674333D01*
X163639500Y-228896333D01*
X165332833Y-230674333D02*
X164740167Y-229827667D01*
X164316833Y-230674333D02*
X164316833Y-228896333D01*
X164994167Y-228896333D01*
X165163500Y-228981000D01*
X165248167Y-229065667D01*
X165332833Y-229235000D01*
X165332833Y-229489000D01*
X165248167Y-229658333D01*
X165163500Y-229743000D01*
X164994167Y-229827667D01*
X164316833Y-229827667D01*
X165671500Y-230843667D02*
X167026167Y-230843667D01*
X167449500Y-230674333D02*
X167449500Y-228896333D01*
X168042167Y-230166333D01*
X168634834Y-228896333D01*
X168634834Y-230674333D01*
X170243500Y-229489000D02*
X170243500Y-230674333D01*
X169820167Y-228811667D02*
X169396834Y-230081667D01*
X170497500Y-230081667D01*
X121771833Y-230674333D02*
X121771833Y-228896333D01*
X122449167Y-228896333D01*
X122618500Y-228981000D01*
X122703167Y-229065667D01*
X122787833Y-229235000D01*
X122787833Y-229489000D01*
X122703167Y-229658333D01*
X122618500Y-229743000D01*
X122449167Y-229827667D01*
X121771833Y-229827667D01*
X123380500Y-228896333D02*
X123803833Y-230674333D01*
X124142500Y-229404333D01*
X124481167Y-230674333D01*
X124904500Y-228896333D01*
X126597833Y-230674333D02*
X126005167Y-229827667D01*
X125581833Y-230674333D02*
X125581833Y-228896333D01*
X126259167Y-228896333D01*
X126428500Y-228981000D01*
X126513167Y-229065667D01*
X126597833Y-229235000D01*
X126597833Y-229489000D01*
X126513167Y-229658333D01*
X126428500Y-229743000D01*
X126259167Y-229827667D01*
X125581833Y-229827667D01*
X126936500Y-230843667D02*
X128291167Y-230843667D01*
X128714500Y-230674333D02*
X128714500Y-228896333D01*
X129307167Y-230166333D01*
X129899834Y-228896333D01*
X129899834Y-230674333D01*
X130577167Y-228896333D02*
X131677834Y-228896333D01*
X131085167Y-229573667D01*
X131339167Y-229573667D01*
X131508500Y-229658333D01*
X131593167Y-229743000D01*
X131677834Y-229912333D01*
X131677834Y-230335667D01*
X131593167Y-230505000D01*
X131508500Y-230589667D01*
X131339167Y-230674333D01*
X130831167Y-230674333D01*
X130661834Y-230589667D01*
X130577167Y-230505000D01*
X83036833Y-230674333D02*
X83036833Y-228896333D01*
X83714167Y-228896333D01*
X83883500Y-228981000D01*
X83968167Y-229065667D01*
X84052833Y-229235000D01*
X84052833Y-229489000D01*
X83968167Y-229658333D01*
X83883500Y-229743000D01*
X83714167Y-229827667D01*
X83036833Y-229827667D01*
X84645500Y-228896333D02*
X85068833Y-230674333D01*
X85407500Y-229404333D01*
X85746167Y-230674333D01*
X86169500Y-228896333D01*
X87862833Y-230674333D02*
X87270167Y-229827667D01*
X86846833Y-230674333D02*
X86846833Y-228896333D01*
X87524167Y-228896333D01*
X87693500Y-228981000D01*
X87778167Y-229065667D01*
X87862833Y-229235000D01*
X87862833Y-229489000D01*
X87778167Y-229658333D01*
X87693500Y-229743000D01*
X87524167Y-229827667D01*
X86846833Y-229827667D01*
X88201500Y-230843667D02*
X89556167Y-230843667D01*
X89979500Y-230674333D02*
X89979500Y-228896333D01*
X90572167Y-230166333D01*
X91164834Y-228896333D01*
X91164834Y-230674333D01*
X91926834Y-229065667D02*
X92011500Y-228981000D01*
X92180834Y-228896333D01*
X92604167Y-228896333D01*
X92773500Y-228981000D01*
X92858167Y-229065667D01*
X92942834Y-229235000D01*
X92942834Y-229404333D01*
X92858167Y-229658333D01*
X91842167Y-230674333D01*
X92942834Y-230674333D01*
X44301833Y-230674333D02*
X44301833Y-228896333D01*
X44979167Y-228896333D01*
X45148500Y-228981000D01*
X45233167Y-229065667D01*
X45317833Y-229235000D01*
X45317833Y-229489000D01*
X45233167Y-229658333D01*
X45148500Y-229743000D01*
X44979167Y-229827667D01*
X44301833Y-229827667D01*
X45910500Y-228896333D02*
X46333833Y-230674333D01*
X46672500Y-229404333D01*
X47011167Y-230674333D01*
X47434500Y-228896333D01*
X49127833Y-230674333D02*
X48535167Y-229827667D01*
X48111833Y-230674333D02*
X48111833Y-228896333D01*
X48789167Y-228896333D01*
X48958500Y-228981000D01*
X49043167Y-229065667D01*
X49127833Y-229235000D01*
X49127833Y-229489000D01*
X49043167Y-229658333D01*
X48958500Y-229743000D01*
X48789167Y-229827667D01*
X48111833Y-229827667D01*
X49466500Y-230843667D02*
X50821167Y-230843667D01*
X51244500Y-230674333D02*
X51244500Y-228896333D01*
X51837167Y-230166333D01*
X52429834Y-228896333D01*
X52429834Y-230674333D01*
X54207834Y-230674333D02*
X53191834Y-230674333D01*
X53699834Y-230674333D02*
X53699834Y-228896333D01*
X53530500Y-229150333D01*
X53361167Y-229319667D01*
X53191834Y-229404333D01*
X277727834Y-237236000D02*
X277558500Y-237151333D01*
X277304500Y-237151333D01*
X277050500Y-237236000D01*
X276881167Y-237405333D01*
X276796500Y-237574667D01*
X276711834Y-237913333D01*
X276711834Y-238167333D01*
X276796500Y-238506000D01*
X276881167Y-238675333D01*
X277050500Y-238844667D01*
X277304500Y-238929333D01*
X277473834Y-238929333D01*
X277727834Y-238844667D01*
X277812500Y-238760000D01*
X277812500Y-238167333D01*
X277473834Y-238167333D01*
X278574500Y-238929333D02*
X278574500Y-237151333D01*
X279590500Y-238929333D01*
X279590500Y-237151333D01*
X280437167Y-238929333D02*
X280437167Y-237151333D01*
X280860501Y-237151333D01*
X281114501Y-237236000D01*
X281283834Y-237405333D01*
X281368501Y-237574667D01*
X281453167Y-237913333D01*
X281453167Y-238167333D01*
X281368501Y-238506000D01*
X281283834Y-238675333D01*
X281114501Y-238844667D01*
X280860501Y-238929333D01*
X280437167Y-238929333D01*
X281791834Y-239098667D02*
X283146501Y-239098667D01*
X283569834Y-238929333D02*
X283569834Y-237151333D01*
X284162501Y-238421333D01*
X284755168Y-237151333D01*
X284755168Y-238929333D01*
X285432501Y-237151333D02*
X286617834Y-237151333D01*
X285855834Y-238929333D01*
X238992834Y-237236000D02*
X238823500Y-237151333D01*
X238569500Y-237151333D01*
X238315500Y-237236000D01*
X238146167Y-237405333D01*
X238061500Y-237574667D01*
X237976834Y-237913333D01*
X237976834Y-238167333D01*
X238061500Y-238506000D01*
X238146167Y-238675333D01*
X238315500Y-238844667D01*
X238569500Y-238929333D01*
X238738834Y-238929333D01*
X238992834Y-238844667D01*
X239077500Y-238760000D01*
X239077500Y-238167333D01*
X238738834Y-238167333D01*
X239839500Y-238929333D02*
X239839500Y-237151333D01*
X240855500Y-238929333D01*
X240855500Y-237151333D01*
X241702167Y-238929333D02*
X241702167Y-237151333D01*
X242125501Y-237151333D01*
X242379501Y-237236000D01*
X242548834Y-237405333D01*
X242633501Y-237574667D01*
X242718167Y-237913333D01*
X242718167Y-238167333D01*
X242633501Y-238506000D01*
X242548834Y-238675333D01*
X242379501Y-238844667D01*
X242125501Y-238929333D01*
X241702167Y-238929333D01*
X243056834Y-239098667D02*
X244411501Y-239098667D01*
X244834834Y-238929333D02*
X244834834Y-237151333D01*
X245427501Y-238421333D01*
X246020168Y-237151333D01*
X246020168Y-238929333D01*
X247628834Y-237151333D02*
X247290168Y-237151333D01*
X247120834Y-237236000D01*
X247036168Y-237320667D01*
X246866834Y-237574667D01*
X246782168Y-237913333D01*
X246782168Y-238590667D01*
X246866834Y-238760000D01*
X246951501Y-238844667D01*
X247120834Y-238929333D01*
X247459501Y-238929333D01*
X247628834Y-238844667D01*
X247713501Y-238760000D01*
X247798168Y-238590667D01*
X247798168Y-238167333D01*
X247713501Y-237998000D01*
X247628834Y-237913333D01*
X247459501Y-237828667D01*
X247120834Y-237828667D01*
X246951501Y-237913333D01*
X246866834Y-237998000D01*
X246782168Y-238167333D01*
X200257834Y-237236000D02*
X200088500Y-237151333D01*
X199834500Y-237151333D01*
X199580500Y-237236000D01*
X199411167Y-237405333D01*
X199326500Y-237574667D01*
X199241834Y-237913333D01*
X199241834Y-238167333D01*
X199326500Y-238506000D01*
X199411167Y-238675333D01*
X199580500Y-238844667D01*
X199834500Y-238929333D01*
X200003834Y-238929333D01*
X200257834Y-238844667D01*
X200342500Y-238760000D01*
X200342500Y-238167333D01*
X200003834Y-238167333D01*
X201104500Y-238929333D02*
X201104500Y-237151333D01*
X202120500Y-238929333D01*
X202120500Y-237151333D01*
X202967167Y-238929333D02*
X202967167Y-237151333D01*
X203390501Y-237151333D01*
X203644501Y-237236000D01*
X203813834Y-237405333D01*
X203898501Y-237574667D01*
X203983167Y-237913333D01*
X203983167Y-238167333D01*
X203898501Y-238506000D01*
X203813834Y-238675333D01*
X203644501Y-238844667D01*
X203390501Y-238929333D01*
X202967167Y-238929333D01*
X204321834Y-239098667D02*
X205676501Y-239098667D01*
X206099834Y-238929333D02*
X206099834Y-237151333D01*
X206692501Y-238421333D01*
X207285168Y-237151333D01*
X207285168Y-238929333D01*
X208978501Y-237151333D02*
X208131834Y-237151333D01*
X208047168Y-237998000D01*
X208131834Y-237913333D01*
X208301168Y-237828667D01*
X208724501Y-237828667D01*
X208893834Y-237913333D01*
X208978501Y-237998000D01*
X209063168Y-238167333D01*
X209063168Y-238590667D01*
X208978501Y-238760000D01*
X208893834Y-238844667D01*
X208724501Y-238929333D01*
X208301168Y-238929333D01*
X208131834Y-238844667D01*
X208047168Y-238760000D01*
X161522834Y-237236000D02*
X161353500Y-237151333D01*
X161099500Y-237151333D01*
X160845500Y-237236000D01*
X160676167Y-237405333D01*
X160591500Y-237574667D01*
X160506834Y-237913333D01*
X160506834Y-238167333D01*
X160591500Y-238506000D01*
X160676167Y-238675333D01*
X160845500Y-238844667D01*
X161099500Y-238929333D01*
X161268834Y-238929333D01*
X161522834Y-238844667D01*
X161607500Y-238760000D01*
X161607500Y-238167333D01*
X161268834Y-238167333D01*
X162369500Y-238929333D02*
X162369500Y-237151333D01*
X163385500Y-238929333D01*
X163385500Y-237151333D01*
X164232167Y-238929333D02*
X164232167Y-237151333D01*
X164655501Y-237151333D01*
X164909501Y-237236000D01*
X165078834Y-237405333D01*
X165163501Y-237574667D01*
X165248167Y-237913333D01*
X165248167Y-238167333D01*
X165163501Y-238506000D01*
X165078834Y-238675333D01*
X164909501Y-238844667D01*
X164655501Y-238929333D01*
X164232167Y-238929333D01*
X165586834Y-239098667D02*
X166941501Y-239098667D01*
X167364834Y-238929333D02*
X167364834Y-237151333D01*
X167957501Y-238421333D01*
X168550168Y-237151333D01*
X168550168Y-238929333D01*
X170158834Y-237744000D02*
X170158834Y-238929333D01*
X169735501Y-237066667D02*
X169312168Y-238336667D01*
X170412834Y-238336667D01*
X122787834Y-237236000D02*
X122618500Y-237151333D01*
X122364500Y-237151333D01*
X122110500Y-237236000D01*
X121941167Y-237405333D01*
X121856500Y-237574667D01*
X121771834Y-237913333D01*
X121771834Y-238167333D01*
X121856500Y-238506000D01*
X121941167Y-238675333D01*
X122110500Y-238844667D01*
X122364500Y-238929333D01*
X122533834Y-238929333D01*
X122787834Y-238844667D01*
X122872500Y-238760000D01*
X122872500Y-238167333D01*
X122533834Y-238167333D01*
X123634500Y-238929333D02*
X123634500Y-237151333D01*
X124650500Y-238929333D01*
X124650500Y-237151333D01*
X125497167Y-238929333D02*
X125497167Y-237151333D01*
X125920501Y-237151333D01*
X126174501Y-237236000D01*
X126343834Y-237405333D01*
X126428501Y-237574667D01*
X126513167Y-237913333D01*
X126513167Y-238167333D01*
X126428501Y-238506000D01*
X126343834Y-238675333D01*
X126174501Y-238844667D01*
X125920501Y-238929333D01*
X125497167Y-238929333D01*
X126851834Y-239098667D02*
X128206501Y-239098667D01*
X128629834Y-238929333D02*
X128629834Y-237151333D01*
X129222501Y-238421333D01*
X129815168Y-237151333D01*
X129815168Y-238929333D01*
X130492501Y-237151333D02*
X131593168Y-237151333D01*
X131000501Y-237828667D01*
X131254501Y-237828667D01*
X131423834Y-237913333D01*
X131508501Y-237998000D01*
X131593168Y-238167333D01*
X131593168Y-238590667D01*
X131508501Y-238760000D01*
X131423834Y-238844667D01*
X131254501Y-238929333D01*
X130746501Y-238929333D01*
X130577168Y-238844667D01*
X130492501Y-238760000D01*
X84052834Y-237236000D02*
X83883500Y-237151333D01*
X83629500Y-237151333D01*
X83375500Y-237236000D01*
X83206167Y-237405333D01*
X83121500Y-237574667D01*
X83036834Y-237913333D01*
X83036834Y-238167333D01*
X83121500Y-238506000D01*
X83206167Y-238675333D01*
X83375500Y-238844667D01*
X83629500Y-238929333D01*
X83798834Y-238929333D01*
X84052834Y-238844667D01*
X84137500Y-238760000D01*
X84137500Y-238167333D01*
X83798834Y-238167333D01*
X84899500Y-238929333D02*
X84899500Y-237151333D01*
X85915500Y-238929333D01*
X85915500Y-237151333D01*
X86762167Y-238929333D02*
X86762167Y-237151333D01*
X87185501Y-237151333D01*
X87439501Y-237236000D01*
X87608834Y-237405333D01*
X87693501Y-237574667D01*
X87778167Y-237913333D01*
X87778167Y-238167333D01*
X87693501Y-238506000D01*
X87608834Y-238675333D01*
X87439501Y-238844667D01*
X87185501Y-238929333D01*
X86762167Y-238929333D01*
X88116834Y-239098667D02*
X89471501Y-239098667D01*
X89894834Y-238929333D02*
X89894834Y-237151333D01*
X90487501Y-238421333D01*
X91080168Y-237151333D01*
X91080168Y-238929333D01*
X91842168Y-237320667D02*
X91926834Y-237236000D01*
X92096168Y-237151333D01*
X92519501Y-237151333D01*
X92688834Y-237236000D01*
X92773501Y-237320667D01*
X92858168Y-237490000D01*
X92858168Y-237659333D01*
X92773501Y-237913333D01*
X91757501Y-238929333D01*
X92858168Y-238929333D01*
X45317834Y-237236000D02*
X45148500Y-237151333D01*
X44894500Y-237151333D01*
X44640500Y-237236000D01*
X44471167Y-237405333D01*
X44386500Y-237574667D01*
X44301834Y-237913333D01*
X44301834Y-238167333D01*
X44386500Y-238506000D01*
X44471167Y-238675333D01*
X44640500Y-238844667D01*
X44894500Y-238929333D01*
X45063834Y-238929333D01*
X45317834Y-238844667D01*
X45402500Y-238760000D01*
X45402500Y-238167333D01*
X45063834Y-238167333D01*
X46164500Y-238929333D02*
X46164500Y-237151333D01*
X47180500Y-238929333D01*
X47180500Y-237151333D01*
X48027167Y-238929333D02*
X48027167Y-237151333D01*
X48450501Y-237151333D01*
X48704501Y-237236000D01*
X48873834Y-237405333D01*
X48958501Y-237574667D01*
X49043167Y-237913333D01*
X49043167Y-238167333D01*
X48958501Y-238506000D01*
X48873834Y-238675333D01*
X48704501Y-238844667D01*
X48450501Y-238929333D01*
X48027167Y-238929333D01*
X49381834Y-239098667D02*
X50736501Y-239098667D01*
X51159834Y-238929333D02*
X51159834Y-237151333D01*
X51752501Y-238421333D01*
X52345168Y-237151333D01*
X52345168Y-238929333D01*
X54123168Y-238929333D02*
X53107168Y-238929333D01*
X53615168Y-238929333D02*
X53615168Y-237151333D01*
X53445834Y-237405333D01*
X53276501Y-237574667D01*
X53107168Y-237659333D01*
X102933500Y-33506833D02*
X102933500Y-31728833D01*
X103610834Y-31728833D01*
X103780167Y-31813500D01*
X103864834Y-31898167D01*
X103949500Y-32067500D01*
X103949500Y-32321500D01*
X103864834Y-32490833D01*
X103780167Y-32575500D01*
X103610834Y-32660167D01*
X102933500Y-32660167D01*
X105642834Y-33506833D02*
X104626834Y-33506833D01*
X105134834Y-33506833D02*
X105134834Y-31728833D01*
X104965500Y-31982833D01*
X104796167Y-32152167D01*
X104626834Y-32236833D01*
X107251500Y-31728833D02*
X106404833Y-31728833D01*
X106320167Y-32575500D01*
X106404833Y-32490833D01*
X106574167Y-32406167D01*
X106997500Y-32406167D01*
X107166833Y-32490833D01*
X107251500Y-32575500D01*
X107336167Y-32744833D01*
X107336167Y-33168167D01*
X107251500Y-33337500D01*
X107166833Y-33422167D01*
X106997500Y-33506833D01*
X106574167Y-33506833D01*
X106404833Y-33422167D01*
X106320167Y-33337500D01*
X171513500Y-33506833D02*
X171513500Y-31728833D01*
X172190834Y-31728833D01*
X172360167Y-31813500D01*
X172444834Y-31898167D01*
X172529500Y-32067500D01*
X172529500Y-32321500D01*
X172444834Y-32490833D01*
X172360167Y-32575500D01*
X172190834Y-32660167D01*
X171513500Y-32660167D01*
X174222834Y-33506833D02*
X173206834Y-33506833D01*
X173714834Y-33506833D02*
X173714834Y-31728833D01*
X173545500Y-31982833D01*
X173376167Y-32152167D01*
X173206834Y-32236833D01*
X175746833Y-32321500D02*
X175746833Y-33506833D01*
X175323500Y-31644167D02*
X174900167Y-32914167D01*
X176000833Y-32914167D01*
X240093500Y-33506833D02*
X240093500Y-31728833D01*
X240770834Y-31728833D01*
X240940167Y-31813500D01*
X241024834Y-31898167D01*
X241109500Y-32067500D01*
X241109500Y-32321500D01*
X241024834Y-32490833D01*
X240940167Y-32575500D01*
X240770834Y-32660167D01*
X240093500Y-32660167D01*
X242802834Y-33506833D02*
X241786834Y-33506833D01*
X242294834Y-33506833D02*
X242294834Y-31728833D01*
X242125500Y-31982833D01*
X241956167Y-32152167D01*
X241786834Y-32236833D01*
X243395500Y-31728833D02*
X244496167Y-31728833D01*
X243903500Y-32406167D01*
X244157500Y-32406167D01*
X244326833Y-32490833D01*
X244411500Y-32575500D01*
X244496167Y-32744833D01*
X244496167Y-33168167D01*
X244411500Y-33337500D01*
X244326833Y-33422167D01*
X244157500Y-33506833D01*
X243649500Y-33506833D01*
X243480167Y-33422167D01*
X243395500Y-33337500D01*
X68643500Y-33506833D02*
X68643500Y-31728833D01*
X69320834Y-31728833D01*
X69490167Y-31813500D01*
X69574834Y-31898167D01*
X69659500Y-32067500D01*
X69659500Y-32321500D01*
X69574834Y-32490833D01*
X69490167Y-32575500D01*
X69320834Y-32660167D01*
X68643500Y-32660167D01*
X71352834Y-33506833D02*
X70336834Y-33506833D01*
X70844834Y-33506833D02*
X70844834Y-31728833D01*
X70675500Y-31982833D01*
X70506167Y-32152167D01*
X70336834Y-32236833D01*
X72030167Y-31898167D02*
X72114833Y-31813500D01*
X72284167Y-31728833D01*
X72707500Y-31728833D01*
X72876833Y-31813500D01*
X72961500Y-31898167D01*
X73046167Y-32067500D01*
X73046167Y-32236833D01*
X72961500Y-32490833D01*
X71945500Y-33506833D01*
X73046167Y-33506833D01*
X137223500Y-33506833D02*
X137223500Y-31728833D01*
X137900834Y-31728833D01*
X138070167Y-31813500D01*
X138154834Y-31898167D01*
X138239500Y-32067500D01*
X138239500Y-32321500D01*
X138154834Y-32490833D01*
X138070167Y-32575500D01*
X137900834Y-32660167D01*
X137223500Y-32660167D01*
X139932834Y-33506833D02*
X138916834Y-33506833D01*
X139424834Y-33506833D02*
X139424834Y-31728833D01*
X139255500Y-31982833D01*
X139086167Y-32152167D01*
X138916834Y-32236833D01*
X141626167Y-33506833D02*
X140610167Y-33506833D01*
X141118167Y-33506833D02*
X141118167Y-31728833D01*
X140948833Y-31982833D01*
X140779500Y-32152167D01*
X140610167Y-32236833D01*
X275230167Y-33506833D02*
X275230167Y-31728833D01*
X275907501Y-31728833D01*
X276076834Y-31813500D01*
X276161501Y-31898167D01*
X276246167Y-32067500D01*
X276246167Y-32321500D01*
X276161501Y-32490833D01*
X276076834Y-32575500D01*
X275907501Y-32660167D01*
X275230167Y-32660167D01*
X277092834Y-33506833D02*
X277431501Y-33506833D01*
X277600834Y-33422167D01*
X277685501Y-33337500D01*
X277854834Y-33083500D01*
X277939501Y-32744833D01*
X277939501Y-32067500D01*
X277854834Y-31898167D01*
X277770167Y-31813500D01*
X277600834Y-31728833D01*
X277262167Y-31728833D01*
X277092834Y-31813500D01*
X277008167Y-31898167D01*
X276923501Y-32067500D01*
X276923501Y-32490833D01*
X277008167Y-32660167D01*
X277092834Y-32744833D01*
X277262167Y-32829500D01*
X277600834Y-32829500D01*
X277770167Y-32744833D01*
X277854834Y-32660167D01*
X277939501Y-32490833D01*
X52345167Y-28744333D02*
X52345167Y-26966333D01*
X53022501Y-26966333D01*
X53191834Y-27051000D01*
X53276501Y-27135667D01*
X53361167Y-27305000D01*
X53361167Y-27559000D01*
X53276501Y-27728333D01*
X53191834Y-27813000D01*
X53022501Y-27897667D01*
X52345167Y-27897667D01*
X54377167Y-27728333D02*
X54207834Y-27643667D01*
X54123167Y-27559000D01*
X54038501Y-27389667D01*
X54038501Y-27305000D01*
X54123167Y-27135667D01*
X54207834Y-27051000D01*
X54377167Y-26966333D01*
X54715834Y-26966333D01*
X54885167Y-27051000D01*
X54969834Y-27135667D01*
X55054501Y-27305000D01*
X55054501Y-27389667D01*
X54969834Y-27559000D01*
X54885167Y-27643667D01*
X54715834Y-27728333D01*
X54377167Y-27728333D01*
X54207834Y-27813000D01*
X54123167Y-27897667D01*
X54038501Y-28067000D01*
X54038501Y-28405667D01*
X54123167Y-28575000D01*
X54207834Y-28659667D01*
X54377167Y-28744333D01*
X54715834Y-28744333D01*
X54885167Y-28659667D01*
X54969834Y-28575000D01*
X55054501Y-28405667D01*
X55054501Y-28067000D01*
X54969834Y-27897667D01*
X54885167Y-27813000D01*
X54715834Y-27728333D01*
X120925167Y-28744333D02*
X120925167Y-26966333D01*
X121602501Y-26966333D01*
X121771834Y-27051000D01*
X121856501Y-27135667D01*
X121941167Y-27305000D01*
X121941167Y-27559000D01*
X121856501Y-27728333D01*
X121771834Y-27813000D01*
X121602501Y-27897667D01*
X120925167Y-27897667D01*
X122533834Y-26966333D02*
X123719167Y-26966333D01*
X122957167Y-28744333D01*
X189505167Y-28744333D02*
X189505167Y-26966333D01*
X190182501Y-26966333D01*
X190351834Y-27051000D01*
X190436501Y-27135667D01*
X190521167Y-27305000D01*
X190521167Y-27559000D01*
X190436501Y-27728333D01*
X190351834Y-27813000D01*
X190182501Y-27897667D01*
X189505167Y-27897667D01*
X192045167Y-26966333D02*
X191706501Y-26966333D01*
X191537167Y-27051000D01*
X191452501Y-27135667D01*
X191283167Y-27389667D01*
X191198501Y-27728333D01*
X191198501Y-28405667D01*
X191283167Y-28575000D01*
X191367834Y-28659667D01*
X191537167Y-28744333D01*
X191875834Y-28744333D01*
X192045167Y-28659667D01*
X192129834Y-28575000D01*
X192214501Y-28405667D01*
X192214501Y-27982333D01*
X192129834Y-27813000D01*
X192045167Y-27728333D01*
X191875834Y-27643667D01*
X191537167Y-27643667D01*
X191367834Y-27728333D01*
X191283167Y-27813000D01*
X191198501Y-27982333D01*
X258085167Y-28744333D02*
X258085167Y-26966333D01*
X258762501Y-26966333D01*
X258931834Y-27051000D01*
X259016501Y-27135667D01*
X259101167Y-27305000D01*
X259101167Y-27559000D01*
X259016501Y-27728333D01*
X258931834Y-27813000D01*
X258762501Y-27897667D01*
X258085167Y-27897667D01*
X260709834Y-26966333D02*
X259863167Y-26966333D01*
X259778501Y-27813000D01*
X259863167Y-27728333D01*
X260032501Y-27643667D01*
X260455834Y-27643667D01*
X260625167Y-27728333D01*
X260709834Y-27813000D01*
X260794501Y-27982333D01*
X260794501Y-28405667D01*
X260709834Y-28575000D01*
X260625167Y-28659667D01*
X260455834Y-28744333D01*
X260032501Y-28744333D01*
X259863167Y-28659667D01*
X259778501Y-28575000D01*
X155215167Y-28744333D02*
X155215167Y-26966333D01*
X155892501Y-26966333D01*
X156061834Y-27051000D01*
X156146501Y-27135667D01*
X156231167Y-27305000D01*
X156231167Y-27559000D01*
X156146501Y-27728333D01*
X156061834Y-27813000D01*
X155892501Y-27897667D01*
X155215167Y-27897667D01*
X156823834Y-26966333D02*
X157924501Y-26966333D01*
X157331834Y-27643667D01*
X157585834Y-27643667D01*
X157755167Y-27728333D01*
X157839834Y-27813000D01*
X157924501Y-27982333D01*
X157924501Y-28405667D01*
X157839834Y-28575000D01*
X157755167Y-28659667D01*
X157585834Y-28744333D01*
X157077834Y-28744333D01*
X156908501Y-28659667D01*
X156823834Y-28575000D01*
X223795167Y-28426833D02*
X223795167Y-26648833D01*
X224472501Y-26648833D01*
X224641834Y-26733500D01*
X224726501Y-26818167D01*
X224811167Y-26987500D01*
X224811167Y-27241500D01*
X224726501Y-27410833D01*
X224641834Y-27495500D01*
X224472501Y-27580167D01*
X223795167Y-27580167D01*
X225488501Y-26818167D02*
X225573167Y-26733500D01*
X225742501Y-26648833D01*
X226165834Y-26648833D01*
X226335167Y-26733500D01*
X226419834Y-26818167D01*
X226504501Y-26987500D01*
X226504501Y-27156833D01*
X226419834Y-27410833D01*
X225403834Y-28426833D01*
X226504501Y-28426833D01*
X292375167Y-28744333D02*
X292375167Y-26966333D01*
X293052501Y-26966333D01*
X293221834Y-27051000D01*
X293306501Y-27135667D01*
X293391167Y-27305000D01*
X293391167Y-27559000D01*
X293306501Y-27728333D01*
X293221834Y-27813000D01*
X293052501Y-27897667D01*
X292375167Y-27897667D01*
X295084501Y-28744333D02*
X294068501Y-28744333D01*
X294576501Y-28744333D02*
X294576501Y-26966333D01*
X294407167Y-27220333D01*
X294237834Y-27389667D01*
X294068501Y-27474333D01*
X300037500Y-231965500D02*
X300122167Y-232050166D01*
X300206833Y-232304166D01*
X300206833Y-232473500D01*
X300122167Y-232727500D01*
X299952833Y-232896833D01*
X299783500Y-232981500D01*
X299444833Y-233066166D01*
X299190833Y-233066166D01*
X298852167Y-232981500D01*
X298682833Y-232896833D01*
X298513500Y-232727500D01*
X298428833Y-232473500D01*
X298428833Y-232304166D01*
X298513500Y-232050166D01*
X298598167Y-231965500D01*
X300206833Y-230272166D02*
X300206833Y-231288166D01*
X300206833Y-230780166D02*
X298428833Y-230780166D01*
X298682833Y-230949500D01*
X298852167Y-231118833D01*
X298936833Y-231288166D01*
X299021500Y-228748167D02*
X300206833Y-228748167D01*
X298344167Y-229171500D02*
X299614167Y-229594833D01*
X299614167Y-228494167D01*
X264477500Y-232283000D02*
X264562167Y-232367666D01*
X264646833Y-232621666D01*
X264646833Y-232791000D01*
X264562167Y-233045000D01*
X264392833Y-233214333D01*
X264223500Y-233299000D01*
X263884833Y-233383666D01*
X263630833Y-233383666D01*
X263292167Y-233299000D01*
X263122833Y-233214333D01*
X262953500Y-233045000D01*
X262868833Y-232791000D01*
X262868833Y-232621666D01*
X262953500Y-232367666D01*
X263038167Y-232283000D01*
X264646833Y-230589666D02*
X264646833Y-231605666D01*
X264646833Y-231097666D02*
X262868833Y-231097666D01*
X263122833Y-231267000D01*
X263292167Y-231436333D01*
X263376833Y-231605666D01*
X262868833Y-229997000D02*
X262868833Y-228896333D01*
X263546167Y-229489000D01*
X263546167Y-229235000D01*
X263630833Y-229065667D01*
X263715500Y-228981000D01*
X263884833Y-228896333D01*
X264308167Y-228896333D01*
X264477500Y-228981000D01*
X264562167Y-229065667D01*
X264646833Y-229235000D01*
X264646833Y-229743000D01*
X264562167Y-229912333D01*
X264477500Y-229997000D01*
X261302500Y-232283000D02*
X261387167Y-232367666D01*
X261471833Y-232621666D01*
X261471833Y-232791000D01*
X261387167Y-233045000D01*
X261217833Y-233214333D01*
X261048500Y-233299000D01*
X260709833Y-233383666D01*
X260455833Y-233383666D01*
X260117167Y-233299000D01*
X259947833Y-233214333D01*
X259778500Y-233045000D01*
X259693833Y-232791000D01*
X259693833Y-232621666D01*
X259778500Y-232367666D01*
X259863167Y-232283000D01*
X261471833Y-230589666D02*
X261471833Y-231605666D01*
X261471833Y-231097666D02*
X259693833Y-231097666D01*
X259947833Y-231267000D01*
X260117167Y-231436333D01*
X260201833Y-231605666D01*
X259863167Y-229912333D02*
X259778500Y-229827667D01*
X259693833Y-229658333D01*
X259693833Y-229235000D01*
X259778500Y-229065667D01*
X259863167Y-228981000D01*
X260032500Y-228896333D01*
X260201833Y-228896333D01*
X260455833Y-228981000D01*
X261471833Y-229997000D01*
X261471833Y-228896333D01*
X225742500Y-232283000D02*
X225827167Y-232367666D01*
X225911833Y-232621666D01*
X225911833Y-232791000D01*
X225827167Y-233045000D01*
X225657833Y-233214333D01*
X225488500Y-233299000D01*
X225149833Y-233383666D01*
X224895833Y-233383666D01*
X224557167Y-233299000D01*
X224387833Y-233214333D01*
X224218500Y-233045000D01*
X224133833Y-232791000D01*
X224133833Y-232621666D01*
X224218500Y-232367666D01*
X224303167Y-232283000D01*
X225911833Y-230589666D02*
X225911833Y-231605666D01*
X225911833Y-231097666D02*
X224133833Y-231097666D01*
X224387833Y-231267000D01*
X224557167Y-231436333D01*
X224641833Y-231605666D01*
X225911833Y-228896333D02*
X225911833Y-229912333D01*
X225911833Y-229404333D02*
X224133833Y-229404333D01*
X224387833Y-229573667D01*
X224557167Y-229743000D01*
X224641833Y-229912333D01*
X222567500Y-232283000D02*
X222652167Y-232367666D01*
X222736833Y-232621666D01*
X222736833Y-232791000D01*
X222652167Y-233045000D01*
X222482833Y-233214333D01*
X222313500Y-233299000D01*
X221974833Y-233383666D01*
X221720833Y-233383666D01*
X221382167Y-233299000D01*
X221212833Y-233214333D01*
X221043500Y-233045000D01*
X220958833Y-232791000D01*
X220958833Y-232621666D01*
X221043500Y-232367666D01*
X221128167Y-232283000D01*
X222736833Y-230589666D02*
X222736833Y-231605666D01*
X222736833Y-231097666D02*
X220958833Y-231097666D01*
X221212833Y-231267000D01*
X221382167Y-231436333D01*
X221466833Y-231605666D01*
X220958833Y-229489000D02*
X220958833Y-229319667D01*
X221043500Y-229150333D01*
X221128167Y-229065667D01*
X221297500Y-228981000D01*
X221636167Y-228896333D01*
X222059500Y-228896333D01*
X222398167Y-228981000D01*
X222567500Y-229065667D01*
X222652167Y-229150333D01*
X222736833Y-229319667D01*
X222736833Y-229489000D01*
X222652167Y-229658333D01*
X222567500Y-229743000D01*
X222398167Y-229827667D01*
X222059500Y-229912333D01*
X221636167Y-229912333D01*
X221297500Y-229827667D01*
X221128167Y-229743000D01*
X221043500Y-229658333D01*
X220958833Y-229489000D01*
X187325000Y-230483833D02*
X187409667Y-230568499D01*
X187494333Y-230822499D01*
X187494333Y-230991833D01*
X187409667Y-231245833D01*
X187240333Y-231415166D01*
X187071000Y-231499833D01*
X186732333Y-231584499D01*
X186478333Y-231584499D01*
X186139667Y-231499833D01*
X185970333Y-231415166D01*
X185801000Y-231245833D01*
X185716333Y-230991833D01*
X185716333Y-230822499D01*
X185801000Y-230568499D01*
X185885667Y-230483833D01*
X187494333Y-229637166D02*
X187494333Y-229298499D01*
X187409667Y-229129166D01*
X187325000Y-229044499D01*
X187071000Y-228875166D01*
X186732333Y-228790499D01*
X186055000Y-228790499D01*
X185885667Y-228875166D01*
X185801000Y-228959833D01*
X185716333Y-229129166D01*
X185716333Y-229467833D01*
X185801000Y-229637166D01*
X185885667Y-229721833D01*
X186055000Y-229806499D01*
X186478333Y-229806499D01*
X186647667Y-229721833D01*
X186732333Y-229637166D01*
X186817000Y-229467833D01*
X186817000Y-229129166D01*
X186732333Y-228959833D01*
X186647667Y-228875166D01*
X186478333Y-228790499D01*
X183832500Y-230483833D02*
X183917167Y-230568499D01*
X184001833Y-230822499D01*
X184001833Y-230991833D01*
X183917167Y-231245833D01*
X183747833Y-231415166D01*
X183578500Y-231499833D01*
X183239833Y-231584499D01*
X182985833Y-231584499D01*
X182647167Y-231499833D01*
X182477833Y-231415166D01*
X182308500Y-231245833D01*
X182223833Y-230991833D01*
X182223833Y-230822499D01*
X182308500Y-230568499D01*
X182393167Y-230483833D01*
X182985833Y-229467833D02*
X182901167Y-229637166D01*
X182816500Y-229721833D01*
X182647167Y-229806499D01*
X182562500Y-229806499D01*
X182393167Y-229721833D01*
X182308500Y-229637166D01*
X182223833Y-229467833D01*
X182223833Y-229129166D01*
X182308500Y-228959833D01*
X182393167Y-228875166D01*
X182562500Y-228790499D01*
X182647167Y-228790499D01*
X182816500Y-228875166D01*
X182901167Y-228959833D01*
X182985833Y-229129166D01*
X182985833Y-229467833D01*
X183070500Y-229637166D01*
X183155167Y-229721833D01*
X183324500Y-229806499D01*
X183663167Y-229806499D01*
X183832500Y-229721833D01*
X183917167Y-229637166D01*
X184001833Y-229467833D01*
X184001833Y-229129166D01*
X183917167Y-228959833D01*
X183832500Y-228875166D01*
X183663167Y-228790499D01*
X183324500Y-228790499D01*
X183155167Y-228875166D01*
X183070500Y-228959833D01*
X182985833Y-229129166D01*
X148272500Y-230483833D02*
X148357167Y-230568499D01*
X148441833Y-230822499D01*
X148441833Y-230991833D01*
X148357167Y-231245833D01*
X148187833Y-231415166D01*
X148018500Y-231499833D01*
X147679833Y-231584499D01*
X147425833Y-231584499D01*
X147087167Y-231499833D01*
X146917833Y-231415166D01*
X146748500Y-231245833D01*
X146663833Y-230991833D01*
X146663833Y-230822499D01*
X146748500Y-230568499D01*
X146833167Y-230483833D01*
X146663833Y-229891166D02*
X146663833Y-228705833D01*
X148441833Y-229467833D01*
X145097500Y-230483833D02*
X145182167Y-230568499D01*
X145266833Y-230822499D01*
X145266833Y-230991833D01*
X145182167Y-231245833D01*
X145012833Y-231415166D01*
X144843500Y-231499833D01*
X144504833Y-231584499D01*
X144250833Y-231584499D01*
X143912167Y-231499833D01*
X143742833Y-231415166D01*
X143573500Y-231245833D01*
X143488833Y-230991833D01*
X143488833Y-230822499D01*
X143573500Y-230568499D01*
X143658167Y-230483833D01*
X143488833Y-228959833D02*
X143488833Y-229298499D01*
X143573500Y-229467833D01*
X143658167Y-229552499D01*
X143912167Y-229721833D01*
X144250833Y-229806499D01*
X144928167Y-229806499D01*
X145097500Y-229721833D01*
X145182167Y-229637166D01*
X145266833Y-229467833D01*
X145266833Y-229129166D01*
X145182167Y-228959833D01*
X145097500Y-228875166D01*
X144928167Y-228790499D01*
X144504833Y-228790499D01*
X144335500Y-228875166D01*
X144250833Y-228959833D01*
X144166167Y-229129166D01*
X144166167Y-229467833D01*
X144250833Y-229637166D01*
X144335500Y-229721833D01*
X144504833Y-229806499D01*
X109537500Y-230483833D02*
X109622167Y-230568499D01*
X109706833Y-230822499D01*
X109706833Y-230991833D01*
X109622167Y-231245833D01*
X109452833Y-231415166D01*
X109283500Y-231499833D01*
X108944833Y-231584499D01*
X108690833Y-231584499D01*
X108352167Y-231499833D01*
X108182833Y-231415166D01*
X108013500Y-231245833D01*
X107928833Y-230991833D01*
X107928833Y-230822499D01*
X108013500Y-230568499D01*
X108098167Y-230483833D01*
X107928833Y-228875166D02*
X107928833Y-229721833D01*
X108775500Y-229806499D01*
X108690833Y-229721833D01*
X108606167Y-229552499D01*
X108606167Y-229129166D01*
X108690833Y-228959833D01*
X108775500Y-228875166D01*
X108944833Y-228790499D01*
X109368167Y-228790499D01*
X109537500Y-228875166D01*
X109622167Y-228959833D01*
X109706833Y-229129166D01*
X109706833Y-229552499D01*
X109622167Y-229721833D01*
X109537500Y-229806499D01*
X106362500Y-230483833D02*
X106447167Y-230568499D01*
X106531833Y-230822499D01*
X106531833Y-230991833D01*
X106447167Y-231245833D01*
X106277833Y-231415166D01*
X106108500Y-231499833D01*
X105769833Y-231584499D01*
X105515833Y-231584499D01*
X105177167Y-231499833D01*
X105007833Y-231415166D01*
X104838500Y-231245833D01*
X104753833Y-230991833D01*
X104753833Y-230822499D01*
X104838500Y-230568499D01*
X104923167Y-230483833D01*
X105346500Y-228959833D02*
X106531833Y-228959833D01*
X104669167Y-229383166D02*
X105939167Y-229806499D01*
X105939167Y-228705833D01*
X71120000Y-230483833D02*
X71204667Y-230568499D01*
X71289333Y-230822499D01*
X71289333Y-230991833D01*
X71204667Y-231245833D01*
X71035333Y-231415166D01*
X70866000Y-231499833D01*
X70527333Y-231584499D01*
X70273333Y-231584499D01*
X69934667Y-231499833D01*
X69765333Y-231415166D01*
X69596000Y-231245833D01*
X69511333Y-230991833D01*
X69511333Y-230822499D01*
X69596000Y-230568499D01*
X69680667Y-230483833D01*
X69511333Y-229891166D02*
X69511333Y-228790499D01*
X70188667Y-229383166D01*
X70188667Y-229129166D01*
X70273333Y-228959833D01*
X70358000Y-228875166D01*
X70527333Y-228790499D01*
X70950667Y-228790499D01*
X71120000Y-228875166D01*
X71204667Y-228959833D01*
X71289333Y-229129166D01*
X71289333Y-229637166D01*
X71204667Y-229806499D01*
X71120000Y-229891166D01*
X67627500Y-230483833D02*
X67712167Y-230568499D01*
X67796833Y-230822499D01*
X67796833Y-230991833D01*
X67712167Y-231245833D01*
X67542833Y-231415166D01*
X67373500Y-231499833D01*
X67034833Y-231584499D01*
X66780833Y-231584499D01*
X66442167Y-231499833D01*
X66272833Y-231415166D01*
X66103500Y-231245833D01*
X66018833Y-230991833D01*
X66018833Y-230822499D01*
X66103500Y-230568499D01*
X66188167Y-230483833D01*
X66188167Y-229806499D02*
X66103500Y-229721833D01*
X66018833Y-229552499D01*
X66018833Y-229129166D01*
X66103500Y-228959833D01*
X66188167Y-228875166D01*
X66357500Y-228790499D01*
X66526833Y-228790499D01*
X66780833Y-228875166D01*
X67796833Y-229891166D01*
X67796833Y-228790499D01*
X32067500Y-230483833D02*
X32152167Y-230568499D01*
X32236833Y-230822499D01*
X32236833Y-230991833D01*
X32152167Y-231245833D01*
X31982833Y-231415166D01*
X31813500Y-231499833D01*
X31474833Y-231584499D01*
X31220833Y-231584499D01*
X30882167Y-231499833D01*
X30712833Y-231415166D01*
X30543500Y-231245833D01*
X30458833Y-230991833D01*
X30458833Y-230822499D01*
X30543500Y-230568499D01*
X30628167Y-230483833D01*
X32236833Y-228790499D02*
X32236833Y-229806499D01*
X32236833Y-229298499D02*
X30458833Y-229298499D01*
X30712833Y-229467833D01*
X30882167Y-229637166D01*
X30966833Y-229806499D01*
X37062833Y-239691333D02*
X37062833Y-241130667D01*
X37147500Y-241300000D01*
X37232167Y-241384667D01*
X37401500Y-241469333D01*
X37740167Y-241469333D01*
X37909500Y-241384667D01*
X37994167Y-241300000D01*
X38078833Y-241130667D01*
X38078833Y-239691333D01*
X39856834Y-241469333D02*
X38840834Y-241469333D01*
X39348834Y-241469333D02*
X39348834Y-239691333D01*
X39179500Y-239945333D01*
X39010167Y-240114667D01*
X38840834Y-240199333D01*
X256582333Y-264456333D02*
X256582333Y-265726333D01*
X256497667Y-265980333D01*
X256328333Y-266149667D01*
X256074333Y-266234333D01*
X255905000Y-266234333D01*
X258191000Y-265049000D02*
X258191000Y-266234333D01*
X257767667Y-264371667D02*
X257344334Y-265641667D01*
X258445000Y-265641667D01*
X185779833Y-249851333D02*
X185779833Y-251121333D01*
X185695167Y-251375333D01*
X185525833Y-251544667D01*
X185271833Y-251629333D01*
X185102500Y-251629333D01*
X186541834Y-250020667D02*
X186626500Y-249936000D01*
X186795834Y-249851333D01*
X187219167Y-249851333D01*
X187388500Y-249936000D01*
X187473167Y-250020667D01*
X187557834Y-250190000D01*
X187557834Y-250359333D01*
X187473167Y-250613333D01*
X186457167Y-251629333D01*
X187557834Y-251629333D01*
X32236833Y-197421500D02*
X30458833Y-197421500D01*
X30458833Y-196744166D01*
X30543500Y-196574833D01*
X30628167Y-196490166D01*
X30797500Y-196405500D01*
X31051500Y-196405500D01*
X31220833Y-196490166D01*
X31305500Y-196574833D01*
X31390167Y-196744166D01*
X31390167Y-197421500D01*
X32236833Y-194712166D02*
X32236833Y-195728166D01*
X32236833Y-195220166D02*
X30458833Y-195220166D01*
X30712833Y-195389500D01*
X30882167Y-195558833D01*
X30966833Y-195728166D01*
X30458833Y-194119500D02*
X30458833Y-192934167D01*
X32236833Y-193696167D01*
X67796833Y-197421500D02*
X66018833Y-197421500D01*
X66018833Y-196744166D01*
X66103500Y-196574833D01*
X66188167Y-196490166D01*
X66357500Y-196405500D01*
X66611500Y-196405500D01*
X66780833Y-196490166D01*
X66865500Y-196574833D01*
X66950167Y-196744166D01*
X66950167Y-197421500D01*
X67796833Y-194712166D02*
X67796833Y-195728166D01*
X67796833Y-195220166D02*
X66018833Y-195220166D01*
X66272833Y-195389500D01*
X66442167Y-195558833D01*
X66526833Y-195728166D01*
X66780833Y-193696167D02*
X66696167Y-193865500D01*
X66611500Y-193950167D01*
X66442167Y-194034833D01*
X66357500Y-194034833D01*
X66188167Y-193950167D01*
X66103500Y-193865500D01*
X66018833Y-193696167D01*
X66018833Y-193357500D01*
X66103500Y-193188167D01*
X66188167Y-193103500D01*
X66357500Y-193018833D01*
X66442167Y-193018833D01*
X66611500Y-193103500D01*
X66696167Y-193188167D01*
X66780833Y-193357500D01*
X66780833Y-193696167D01*
X66865500Y-193865500D01*
X66950167Y-193950167D01*
X67119500Y-194034833D01*
X67458167Y-194034833D01*
X67627500Y-193950167D01*
X67712167Y-193865500D01*
X67796833Y-193696167D01*
X67796833Y-193357500D01*
X67712167Y-193188167D01*
X67627500Y-193103500D01*
X67458167Y-193018833D01*
X67119500Y-193018833D01*
X66950167Y-193103500D01*
X66865500Y-193188167D01*
X66780833Y-193357500D01*
X70971833Y-197421500D02*
X69193833Y-197421500D01*
X69193833Y-196744166D01*
X69278500Y-196574833D01*
X69363167Y-196490166D01*
X69532500Y-196405500D01*
X69786500Y-196405500D01*
X69955833Y-196490166D01*
X70040500Y-196574833D01*
X70125167Y-196744166D01*
X70125167Y-197421500D01*
X70971833Y-194712166D02*
X70971833Y-195728166D01*
X70971833Y-195220166D02*
X69193833Y-195220166D01*
X69447833Y-195389500D01*
X69617167Y-195558833D01*
X69701833Y-195728166D01*
X70971833Y-193865500D02*
X70971833Y-193526833D01*
X70887167Y-193357500D01*
X70802500Y-193272833D01*
X70548500Y-193103500D01*
X70209833Y-193018833D01*
X69532500Y-193018833D01*
X69363167Y-193103500D01*
X69278500Y-193188167D01*
X69193833Y-193357500D01*
X69193833Y-193696167D01*
X69278500Y-193865500D01*
X69363167Y-193950167D01*
X69532500Y-194034833D01*
X69955833Y-194034833D01*
X70125167Y-193950167D01*
X70209833Y-193865500D01*
X70294500Y-193696167D01*
X70294500Y-193357500D01*
X70209833Y-193188167D01*
X70125167Y-193103500D01*
X69955833Y-193018833D01*
X106531833Y-197421500D02*
X104753833Y-197421500D01*
X104753833Y-196744166D01*
X104838500Y-196574833D01*
X104923167Y-196490166D01*
X105092500Y-196405500D01*
X105346500Y-196405500D01*
X105515833Y-196490166D01*
X105600500Y-196574833D01*
X105685167Y-196744166D01*
X105685167Y-197421500D01*
X104923167Y-195728166D02*
X104838500Y-195643500D01*
X104753833Y-195474166D01*
X104753833Y-195050833D01*
X104838500Y-194881500D01*
X104923167Y-194796833D01*
X105092500Y-194712166D01*
X105261833Y-194712166D01*
X105515833Y-194796833D01*
X106531833Y-195812833D01*
X106531833Y-194712166D01*
X104753833Y-193611500D02*
X104753833Y-193442167D01*
X104838500Y-193272833D01*
X104923167Y-193188167D01*
X105092500Y-193103500D01*
X105431167Y-193018833D01*
X105854500Y-193018833D01*
X106193167Y-193103500D01*
X106362500Y-193188167D01*
X106447167Y-193272833D01*
X106531833Y-193442167D01*
X106531833Y-193611500D01*
X106447167Y-193780833D01*
X106362500Y-193865500D01*
X106193167Y-193950167D01*
X105854500Y-194034833D01*
X105431167Y-194034833D01*
X105092500Y-193950167D01*
X104923167Y-193865500D01*
X104838500Y-193780833D01*
X104753833Y-193611500D01*
X109706833Y-197421500D02*
X107928833Y-197421500D01*
X107928833Y-196744166D01*
X108013500Y-196574833D01*
X108098167Y-196490166D01*
X108267500Y-196405500D01*
X108521500Y-196405500D01*
X108690833Y-196490166D01*
X108775500Y-196574833D01*
X108860167Y-196744166D01*
X108860167Y-197421500D01*
X108098167Y-195728166D02*
X108013500Y-195643500D01*
X107928833Y-195474166D01*
X107928833Y-195050833D01*
X108013500Y-194881500D01*
X108098167Y-194796833D01*
X108267500Y-194712166D01*
X108436833Y-194712166D01*
X108690833Y-194796833D01*
X109706833Y-195812833D01*
X109706833Y-194712166D01*
X109706833Y-193018833D02*
X109706833Y-194034833D01*
X109706833Y-193526833D02*
X107928833Y-193526833D01*
X108182833Y-193696167D01*
X108352167Y-193865500D01*
X108436833Y-194034833D01*
X145266833Y-197421500D02*
X143488833Y-197421500D01*
X143488833Y-196744166D01*
X143573500Y-196574833D01*
X143658167Y-196490166D01*
X143827500Y-196405500D01*
X144081500Y-196405500D01*
X144250833Y-196490166D01*
X144335500Y-196574833D01*
X144420167Y-196744166D01*
X144420167Y-197421500D01*
X143658167Y-195728166D02*
X143573500Y-195643500D01*
X143488833Y-195474166D01*
X143488833Y-195050833D01*
X143573500Y-194881500D01*
X143658167Y-194796833D01*
X143827500Y-194712166D01*
X143996833Y-194712166D01*
X144250833Y-194796833D01*
X145266833Y-195812833D01*
X145266833Y-194712166D01*
X143658167Y-194034833D02*
X143573500Y-193950167D01*
X143488833Y-193780833D01*
X143488833Y-193357500D01*
X143573500Y-193188167D01*
X143658167Y-193103500D01*
X143827500Y-193018833D01*
X143996833Y-193018833D01*
X144250833Y-193103500D01*
X145266833Y-194119500D01*
X145266833Y-193018833D01*
X148441833Y-197421500D02*
X146663833Y-197421500D01*
X146663833Y-196744166D01*
X146748500Y-196574833D01*
X146833167Y-196490166D01*
X147002500Y-196405500D01*
X147256500Y-196405500D01*
X147425833Y-196490166D01*
X147510500Y-196574833D01*
X147595167Y-196744166D01*
X147595167Y-197421500D01*
X146833167Y-195728166D02*
X146748500Y-195643500D01*
X146663833Y-195474166D01*
X146663833Y-195050833D01*
X146748500Y-194881500D01*
X146833167Y-194796833D01*
X147002500Y-194712166D01*
X147171833Y-194712166D01*
X147425833Y-194796833D01*
X148441833Y-195812833D01*
X148441833Y-194712166D01*
X146663833Y-194119500D02*
X146663833Y-193018833D01*
X147341167Y-193611500D01*
X147341167Y-193357500D01*
X147425833Y-193188167D01*
X147510500Y-193103500D01*
X147679833Y-193018833D01*
X148103167Y-193018833D01*
X148272500Y-193103500D01*
X148357167Y-193188167D01*
X148441833Y-193357500D01*
X148441833Y-193865500D01*
X148357167Y-194034833D01*
X148272500Y-194119500D01*
X184001833Y-197421500D02*
X182223833Y-197421500D01*
X182223833Y-196744166D01*
X182308500Y-196574833D01*
X182393167Y-196490166D01*
X182562500Y-196405500D01*
X182816500Y-196405500D01*
X182985833Y-196490166D01*
X183070500Y-196574833D01*
X183155167Y-196744166D01*
X183155167Y-197421500D01*
X182393167Y-195728166D02*
X182308500Y-195643500D01*
X182223833Y-195474166D01*
X182223833Y-195050833D01*
X182308500Y-194881500D01*
X182393167Y-194796833D01*
X182562500Y-194712166D01*
X182731833Y-194712166D01*
X182985833Y-194796833D01*
X184001833Y-195812833D01*
X184001833Y-194712166D01*
X182816500Y-193188167D02*
X184001833Y-193188167D01*
X182139167Y-193611500D02*
X183409167Y-194034833D01*
X183409167Y-192934167D01*
X187176833Y-197421500D02*
X185398833Y-197421500D01*
X185398833Y-196744166D01*
X185483500Y-196574833D01*
X185568167Y-196490166D01*
X185737500Y-196405500D01*
X185991500Y-196405500D01*
X186160833Y-196490166D01*
X186245500Y-196574833D01*
X186330167Y-196744166D01*
X186330167Y-197421500D01*
X185568167Y-195728166D02*
X185483500Y-195643500D01*
X185398833Y-195474166D01*
X185398833Y-195050833D01*
X185483500Y-194881500D01*
X185568167Y-194796833D01*
X185737500Y-194712166D01*
X185906833Y-194712166D01*
X186160833Y-194796833D01*
X187176833Y-195812833D01*
X187176833Y-194712166D01*
X185398833Y-193103500D02*
X185398833Y-193950167D01*
X186245500Y-194034833D01*
X186160833Y-193950167D01*
X186076167Y-193780833D01*
X186076167Y-193357500D01*
X186160833Y-193188167D01*
X186245500Y-193103500D01*
X186414833Y-193018833D01*
X186838167Y-193018833D01*
X187007500Y-193103500D01*
X187092167Y-193188167D01*
X187176833Y-193357500D01*
X187176833Y-193780833D01*
X187092167Y-193950167D01*
X187007500Y-194034833D01*
X222736833Y-197421500D02*
X220958833Y-197421500D01*
X220958833Y-196744166D01*
X221043500Y-196574833D01*
X221128167Y-196490166D01*
X221297500Y-196405500D01*
X221551500Y-196405500D01*
X221720833Y-196490166D01*
X221805500Y-196574833D01*
X221890167Y-196744166D01*
X221890167Y-197421500D01*
X221128167Y-195728166D02*
X221043500Y-195643500D01*
X220958833Y-195474166D01*
X220958833Y-195050833D01*
X221043500Y-194881500D01*
X221128167Y-194796833D01*
X221297500Y-194712166D01*
X221466833Y-194712166D01*
X221720833Y-194796833D01*
X222736833Y-195812833D01*
X222736833Y-194712166D01*
X220958833Y-193188167D02*
X220958833Y-193526833D01*
X221043500Y-193696167D01*
X221128167Y-193780833D01*
X221382167Y-193950167D01*
X221720833Y-194034833D01*
X222398167Y-194034833D01*
X222567500Y-193950167D01*
X222652167Y-193865500D01*
X222736833Y-193696167D01*
X222736833Y-193357500D01*
X222652167Y-193188167D01*
X222567500Y-193103500D01*
X222398167Y-193018833D01*
X221974833Y-193018833D01*
X221805500Y-193103500D01*
X221720833Y-193188167D01*
X221636167Y-193357500D01*
X221636167Y-193696167D01*
X221720833Y-193865500D01*
X221805500Y-193950167D01*
X221974833Y-194034833D01*
X225911833Y-197421500D02*
X224133833Y-197421500D01*
X224133833Y-196744166D01*
X224218500Y-196574833D01*
X224303167Y-196490166D01*
X224472500Y-196405500D01*
X224726500Y-196405500D01*
X224895833Y-196490166D01*
X224980500Y-196574833D01*
X225065167Y-196744166D01*
X225065167Y-197421500D01*
X224303167Y-195728166D02*
X224218500Y-195643500D01*
X224133833Y-195474166D01*
X224133833Y-195050833D01*
X224218500Y-194881500D01*
X224303167Y-194796833D01*
X224472500Y-194712166D01*
X224641833Y-194712166D01*
X224895833Y-194796833D01*
X225911833Y-195812833D01*
X225911833Y-194712166D01*
X224133833Y-194119500D02*
X224133833Y-192934167D01*
X225911833Y-193696167D01*
X261789333Y-197421500D02*
X260011333Y-197421500D01*
X260011333Y-196744166D01*
X260096000Y-196574833D01*
X260180667Y-196490166D01*
X260350000Y-196405500D01*
X260604000Y-196405500D01*
X260773333Y-196490166D01*
X260858000Y-196574833D01*
X260942667Y-196744166D01*
X260942667Y-197421500D01*
X260180667Y-195728166D02*
X260096000Y-195643500D01*
X260011333Y-195474166D01*
X260011333Y-195050833D01*
X260096000Y-194881500D01*
X260180667Y-194796833D01*
X260350000Y-194712166D01*
X260519333Y-194712166D01*
X260773333Y-194796833D01*
X261789333Y-195812833D01*
X261789333Y-194712166D01*
X260773333Y-193696167D02*
X260688667Y-193865500D01*
X260604000Y-193950167D01*
X260434667Y-194034833D01*
X260350000Y-194034833D01*
X260180667Y-193950167D01*
X260096000Y-193865500D01*
X260011333Y-193696167D01*
X260011333Y-193357500D01*
X260096000Y-193188167D01*
X260180667Y-193103500D01*
X260350000Y-193018833D01*
X260434667Y-193018833D01*
X260604000Y-193103500D01*
X260688667Y-193188167D01*
X260773333Y-193357500D01*
X260773333Y-193696167D01*
X260858000Y-193865500D01*
X260942667Y-193950167D01*
X261112000Y-194034833D01*
X261450667Y-194034833D01*
X261620000Y-193950167D01*
X261704667Y-193865500D01*
X261789333Y-193696167D01*
X261789333Y-193357500D01*
X261704667Y-193188167D01*
X261620000Y-193103500D01*
X261450667Y-193018833D01*
X261112000Y-193018833D01*
X260942667Y-193103500D01*
X260858000Y-193188167D01*
X260773333Y-193357500D01*
X264646833Y-197421500D02*
X262868833Y-197421500D01*
X262868833Y-196744166D01*
X262953500Y-196574833D01*
X263038167Y-196490166D01*
X263207500Y-196405500D01*
X263461500Y-196405500D01*
X263630833Y-196490166D01*
X263715500Y-196574833D01*
X263800167Y-196744166D01*
X263800167Y-197421500D01*
X263038167Y-195728166D02*
X262953500Y-195643500D01*
X262868833Y-195474166D01*
X262868833Y-195050833D01*
X262953500Y-194881500D01*
X263038167Y-194796833D01*
X263207500Y-194712166D01*
X263376833Y-194712166D01*
X263630833Y-194796833D01*
X264646833Y-195812833D01*
X264646833Y-194712166D01*
X264646833Y-193865500D02*
X264646833Y-193526833D01*
X264562167Y-193357500D01*
X264477500Y-193272833D01*
X264223500Y-193103500D01*
X263884833Y-193018833D01*
X263207500Y-193018833D01*
X263038167Y-193103500D01*
X262953500Y-193188167D01*
X262868833Y-193357500D01*
X262868833Y-193696167D01*
X262953500Y-193865500D01*
X263038167Y-193950167D01*
X263207500Y-194034833D01*
X263630833Y-194034833D01*
X263800167Y-193950167D01*
X263884833Y-193865500D01*
X263969500Y-193696167D01*
X263969500Y-193357500D01*
X263884833Y-193188167D01*
X263800167Y-193103500D01*
X263630833Y-193018833D01*
X300206833Y-197421500D02*
X298428833Y-197421500D01*
X298428833Y-196744166D01*
X298513500Y-196574833D01*
X298598167Y-196490166D01*
X298767500Y-196405500D01*
X299021500Y-196405500D01*
X299190833Y-196490166D01*
X299275500Y-196574833D01*
X299360167Y-196744166D01*
X299360167Y-197421500D01*
X298428833Y-195812833D02*
X298428833Y-194712166D01*
X299106167Y-195304833D01*
X299106167Y-195050833D01*
X299190833Y-194881500D01*
X299275500Y-194796833D01*
X299444833Y-194712166D01*
X299868167Y-194712166D01*
X300037500Y-194796833D01*
X300122167Y-194881500D01*
X300206833Y-195050833D01*
X300206833Y-195558833D01*
X300122167Y-195728166D01*
X300037500Y-195812833D01*
X298428833Y-193611500D02*
X298428833Y-193442167D01*
X298513500Y-193272833D01*
X298598167Y-193188167D01*
X298767500Y-193103500D01*
X299106167Y-193018833D01*
X299529500Y-193018833D01*
X299868167Y-193103500D01*
X300037500Y-193188167D01*
X300122167Y-193272833D01*
X300206833Y-193442167D01*
X300206833Y-193611500D01*
X300122167Y-193780833D01*
X300037500Y-193865500D01*
X299868167Y-193950167D01*
X299529500Y-194034833D01*
X299106167Y-194034833D01*
X298767500Y-193950167D01*
X298598167Y-193865500D01*
X298513500Y-193780833D01*
X298428833Y-193611500D01*
D17*
X63769643Y-260675357D02*
X63817262Y-260722976D01*
X63864881Y-260865833D01*
X63864881Y-260961071D01*
X63817262Y-261103929D01*
X63722024Y-261199167D01*
X63626786Y-261246786D01*
X63436310Y-261294405D01*
X63293452Y-261294405D01*
X63102976Y-261246786D01*
X63007738Y-261199167D01*
X62912500Y-261103929D01*
X62864881Y-260961071D01*
X62864881Y-260865833D01*
X62912500Y-260722976D01*
X62960119Y-260675357D01*
X63864881Y-259722976D02*
X63864881Y-260294405D01*
X63864881Y-260008691D02*
X62864881Y-260008691D01*
X63007738Y-260103929D01*
X63102976Y-260199167D01*
X63150595Y-260294405D01*
X62864881Y-258818214D02*
X62864881Y-259294405D01*
X63341071Y-259342024D01*
X63293452Y-259294405D01*
X63245833Y-259199167D01*
X63245833Y-258961071D01*
X63293452Y-258865833D01*
X63341071Y-258818214D01*
X63436310Y-258770595D01*
X63674405Y-258770595D01*
X63769643Y-258818214D01*
X63817262Y-258865833D01*
X63864881Y-258961071D01*
X63864881Y-259199167D01*
X63817262Y-259294405D01*
X63769643Y-259342024D01*
X102504643Y-260675357D02*
X102552262Y-260722976D01*
X102599881Y-260865833D01*
X102599881Y-260961071D01*
X102552262Y-261103929D01*
X102457024Y-261199167D01*
X102361786Y-261246786D01*
X102171310Y-261294405D01*
X102028452Y-261294405D01*
X101837976Y-261246786D01*
X101742738Y-261199167D01*
X101647500Y-261103929D01*
X101599881Y-260961071D01*
X101599881Y-260865833D01*
X101647500Y-260722976D01*
X101695119Y-260675357D01*
X102599881Y-259722976D02*
X102599881Y-260294405D01*
X102599881Y-260008691D02*
X101599881Y-260008691D01*
X101742738Y-260103929D01*
X101837976Y-260199167D01*
X101885595Y-260294405D01*
X101599881Y-258865833D02*
X101599881Y-259056310D01*
X101647500Y-259151548D01*
X101695119Y-259199167D01*
X101837976Y-259294405D01*
X102028452Y-259342024D01*
X102409405Y-259342024D01*
X102504643Y-259294405D01*
X102552262Y-259246786D01*
X102599881Y-259151548D01*
X102599881Y-258961071D01*
X102552262Y-258865833D01*
X102504643Y-258818214D01*
X102409405Y-258770595D01*
X102171310Y-258770595D01*
X102076071Y-258818214D01*
X102028452Y-258865833D01*
X101980833Y-258961071D01*
X101980833Y-259151548D01*
X102028452Y-259246786D01*
X102076071Y-259294405D01*
X102171310Y-259342024D01*
X179974643Y-260675357D02*
X180022262Y-260722976D01*
X180069881Y-260865833D01*
X180069881Y-260961071D01*
X180022262Y-261103929D01*
X179927024Y-261199167D01*
X179831786Y-261246786D01*
X179641310Y-261294405D01*
X179498452Y-261294405D01*
X179307976Y-261246786D01*
X179212738Y-261199167D01*
X179117500Y-261103929D01*
X179069881Y-260961071D01*
X179069881Y-260865833D01*
X179117500Y-260722976D01*
X179165119Y-260675357D01*
X180069881Y-259722976D02*
X180069881Y-260294405D01*
X180069881Y-260008691D02*
X179069881Y-260008691D01*
X179212738Y-260103929D01*
X179307976Y-260199167D01*
X179355595Y-260294405D01*
X179069881Y-259389643D02*
X179069881Y-258722976D01*
X180069881Y-259151548D01*
X254444643Y-267660357D02*
X254492262Y-267707976D01*
X254539881Y-267850833D01*
X254539881Y-267946071D01*
X254492262Y-268088929D01*
X254397024Y-268184167D01*
X254301786Y-268231786D01*
X254111310Y-268279405D01*
X253968452Y-268279405D01*
X253777976Y-268231786D01*
X253682738Y-268184167D01*
X253587500Y-268088929D01*
X253539881Y-267946071D01*
X253539881Y-267850833D01*
X253587500Y-267707976D01*
X253635119Y-267660357D01*
X254539881Y-266707976D02*
X254539881Y-267279405D01*
X254539881Y-266993691D02*
X253539881Y-266993691D01*
X253682738Y-267088929D01*
X253777976Y-267184167D01*
X253825595Y-267279405D01*
X253968452Y-266136548D02*
X253920833Y-266231786D01*
X253873214Y-266279405D01*
X253777976Y-266327024D01*
X253730357Y-266327024D01*
X253635119Y-266279405D01*
X253587500Y-266231786D01*
X253539881Y-266136548D01*
X253539881Y-265946071D01*
X253587500Y-265850833D01*
X253635119Y-265803214D01*
X253730357Y-265755595D01*
X253777976Y-265755595D01*
X253873214Y-265803214D01*
X253920833Y-265850833D01*
X253968452Y-265946071D01*
X253968452Y-266136548D01*
X254016071Y-266231786D01*
X254063690Y-266279405D01*
X254158929Y-266327024D01*
X254349405Y-266327024D01*
X254444643Y-266279405D01*
X254492262Y-266231786D01*
X254539881Y-266136548D01*
X254539881Y-265946071D01*
X254492262Y-265850833D01*
X254444643Y-265803214D01*
X254349405Y-265755595D01*
X254158929Y-265755595D01*
X254063690Y-265803214D01*
X254016071Y-265850833D01*
X253968452Y-265946071D01*
M02*
