M48
;DRILL file {KiCad 4.0.3+e1-6302~38~ubuntu14.04.1-stable} date Fri Aug 19 15:31:19 2016
;FORMAT={2:4/ absolute / inch / keep zeros}
FMAT,2
INCH,TZ
T1C0.008
T2C0.020
T3C0.024
T4C0.032
T5C0.035
T6C0.040
T7C0.043
T8C0.120
T9C0.150
%
G90
G05
M72
T1
X016875Y-098250
X017375Y-087500
X017375Y-101750
X018375Y-088500
X018375Y-100750
X019375Y-089500
X019375Y-099750
X020375Y-090500
X020375Y-098750
X021375Y-092000
X021375Y-097750
X024375Y-099250
X031625Y-089000
X032625Y-087500
X032625Y-101750
X033625Y-088500
X033625Y-100750
X034625Y-089500
X034625Y-099750
X035625Y-090500
X035625Y-098750
X036625Y-092000
X036625Y-097750
X037625Y-091000
X037625Y-094250
X038625Y-092000
X038625Y-095250
X039625Y-099250
X043875Y-096750
X044875Y-095750
X045750Y-098750
X045875Y-089500
X045875Y-094750
X046750Y-099750
X048250Y-104750
X049250Y-105750
X049750Y-104750
X050250Y-098250
X050750Y-096750
X051250Y-104250
X051750Y-104250
X052250Y-105250
X054750Y-096250
X054750Y-101750
X061750Y-099250
X062125Y-089000
X063125Y-087500
X063125Y-101750
X064125Y-088500
X064125Y-100750
X065125Y-089500
X065125Y-099750
X066125Y-090500
X066125Y-098750
X067125Y-092000
X067125Y-097750
X067125Y-102750
X068125Y-091000
X068125Y-094250
X069125Y-092000
X069125Y-095250
X070125Y-099250
X074125Y-098750
X074125Y-100250
X074250Y-096750
X075375Y-095750
X076375Y-089500
X076375Y-094750
X079000Y-100125
X080125Y-098250
X086125Y-098750
X086125Y-100250
X092625Y-089000
X093625Y-087500
X093625Y-101750
X094625Y-088500
X094625Y-100750
X095625Y-089500
X095625Y-099750
X096625Y-090500
X096625Y-098750
X097625Y-092000
X097625Y-097750
X098125Y-102250
X098625Y-091000
X098625Y-094250
X099625Y-092000
X099625Y-095250
X099750Y-097250
X100625Y-099250
X101250Y-100250
X104875Y-096750
X105875Y-095750
X106875Y-089500
X106875Y-094750
T2
X011875Y-013125
X012375Y-013625
X012375Y-058500
X012875Y-058000
X013375Y-065000
X013875Y-064500
X014250Y-065500
X014375Y-057000
X014500Y-085500
X014875Y-056500
X015000Y-076500
X015000Y-084500
X015375Y-063000
X015500Y-064000
X015500Y-066000
X015500Y-075500
X015875Y-062500
X016000Y-064500
X016000Y-072500
X016000Y-081500
X016375Y-055000
X016375Y-063500
X016500Y-071500
X016500Y-080500
X016500Y-084000
X016875Y-016875
X016875Y-054500
X017000Y-062000
X017000Y-064000
X017000Y-075000
X017000Y-085000
X017375Y-061000
X017500Y-062500
X017500Y-076000
X017500Y-080000
X017625Y-012625
X017875Y-017375
X017875Y-060500
X018000Y-061500
X018000Y-081000
X018125Y-013125
X018375Y-017875
X018500Y-060000
X018500Y-062000
X018500Y-071000
X018625Y-052000
X019000Y-059500
X019000Y-072000
X019125Y-025000
X019125Y-051500
X019250Y-083500
X019625Y-025500
X019750Y-073500
X019750Y-082500
X020125Y-058000
X020250Y-074500
X020625Y-032000
X020625Y-057500
X020750Y-079500
X021125Y-031000
X021125Y-032500
X021125Y-039000
X021250Y-070500
X021250Y-078500
X021250Y-082000
X021625Y-030500
X021625Y-039500
X021750Y-069500
X021750Y-083000
X022125Y-056000
X022250Y-073000
X022625Y-046000
X022625Y-055500
X022750Y-074000
X022750Y-078000
X023125Y-046500
X023125Y-050000
X023125Y-053000
X023250Y-060000
X023250Y-079000
X023625Y-049500
X023625Y-053500
X023750Y-060500
X023750Y-069000
X024125Y-054000
X024250Y-067000
X024250Y-070000
X024625Y-053500
X024750Y-065500
X024750Y-067500
X025250Y-066000
X025875Y-048000
X026375Y-047500
X026875Y-051000
X027375Y-050500
X027875Y-047500
X028375Y-047000
X028875Y-049000
X029250Y-059000
X029375Y-048500
X029750Y-052500
X029750Y-058500
X029750Y-085500
X029875Y-043000
X029875Y-044000
X030250Y-048500
X030250Y-052000
X030250Y-076500
X030250Y-084500
X030375Y-016875
X030375Y-042500
X030375Y-044500
X030750Y-048000
X030750Y-075500
X030875Y-047000
X031250Y-072500
X031250Y-081500
X031375Y-046500
X031750Y-064000
X031750Y-066500
X031750Y-071500
X031750Y-080500
X031750Y-084000
X032125Y-043500
X032250Y-064500
X032250Y-066000
X032250Y-075000
X032250Y-085000
X032625Y-044000
X032750Y-045000
X032750Y-076000
X032750Y-080000
X033250Y-045500
X033250Y-048000
X033250Y-081000
X033625Y-044000
X033750Y-048500
X033750Y-071000
X034125Y-043500
X034250Y-052000
X034250Y-072000
X034500Y-083500
X034625Y-035500
X034625Y-038000
X034750Y-052500
X035000Y-073500
X035000Y-082500
X035105Y-041500
X035125Y-035000
X035125Y-038500
X035500Y-074500
X035625Y-042000
X036000Y-079500
X036125Y-041000
X036500Y-056500
X036500Y-070500
X036500Y-078500
X036500Y-082000
X036625Y-036000
X036625Y-041500
X036625Y-046000
X037000Y-057000
X037000Y-064500
X037000Y-069500
X037000Y-083000
X037125Y-036500
X037125Y-046500
X037250Y-064000
X037500Y-073000
X037625Y-040000
X037750Y-058500
X038000Y-074000
X038000Y-078000
X038125Y-039500
X038250Y-059000
X038250Y-063500
X038500Y-079000
X038750Y-064000
X038875Y-065500
X039000Y-069000
X039375Y-066000
X039500Y-070000
X040375Y-066000
X040875Y-064000
X040875Y-065500
X041375Y-033500
X041375Y-034000
X041375Y-064500
X041875Y-033000
X041875Y-034500
X041875Y-053520
X042375Y-035000
X042375Y-037000
X042375Y-053000
X042875Y-034500
X042875Y-036500
X043375Y-064000
X043875Y-016875
X043875Y-064500
X044000Y-062000
X044375Y-033000
X044500Y-062500
X044500Y-065500
X044875Y-032500
X045000Y-044500
X045000Y-058500
X045000Y-065000
X045000Y-085500
X045500Y-045000
X045500Y-051500
X045500Y-058000
X045500Y-076500
X045500Y-084500
X046000Y-044500
X046000Y-051000
X046000Y-075500
X046500Y-044000
X046500Y-072500
X046500Y-081500
X047000Y-066500
X047000Y-071500
X047000Y-080500
X047000Y-084000
X047250Y-066000
X047500Y-075000
X047500Y-085000
X047625Y-044125
X048000Y-076000
X048000Y-080000
X048125Y-027000
X048125Y-044625
X048500Y-081000
X048625Y-026500
X049000Y-071000
X049125Y-028000
X049125Y-028500
X049500Y-072000
X049625Y-020000
X049625Y-027500
X049625Y-029000
X049750Y-083500
X050125Y-018000
X050125Y-020500
X050125Y-023000
X050250Y-073500
X050250Y-082500
X050625Y-018500
X050625Y-023500
X050750Y-074500
X051125Y-026000
X051250Y-030000
X051250Y-079500
X051625Y-025500
X051750Y-030500
X051750Y-037000
X051750Y-070500
X051750Y-078500
X051750Y-082000
X052250Y-037500
X052250Y-061500
X052250Y-069500
X052250Y-083000
X052750Y-062000
X052750Y-073000
X053250Y-074000
X053250Y-078000
X053375Y-048000
X053750Y-051000
X053750Y-079000
X053875Y-044125
X053875Y-048500
X054250Y-051500
X054250Y-058000
X054250Y-069000
X054375Y-043625
X054375Y-045000
X054750Y-058500
X054750Y-065000
X054750Y-070000
X054875Y-029500
X054875Y-045500
X055250Y-065500
X055375Y-029000
X055875Y-021000
X056375Y-020500
X056875Y-049500
X057375Y-016875
X057375Y-049000
X057875Y-019000
X058375Y-018500
X058500Y-059000
X059000Y-059500
X059625Y-052000
X059750Y-057500
X060125Y-028500
X060125Y-031000
X060125Y-051480
X060250Y-057000
X060250Y-085500
X060625Y-029000
X060625Y-031500
X060750Y-048000
X060750Y-076500
X060750Y-084500
X061250Y-035000
X061250Y-047500
X061250Y-075500
X061625Y-028480
X061750Y-033000
X061750Y-035500
X061750Y-072500
X061750Y-081500
X062250Y-027500
X062250Y-029000
X062250Y-033500
X062250Y-071500
X062250Y-080500
X062250Y-084000
X062625Y-013375
X062750Y-027000
X062750Y-075000
X062750Y-085000
X063125Y-012875
X063250Y-052500
X063250Y-076000
X063250Y-080000
X063750Y-029000
X063750Y-052000
X063750Y-081000
X064250Y-029000
X064250Y-029500
X064250Y-071000
X064625Y-011375
X064750Y-028500
X064750Y-072000
X064875Y-016875
X065000Y-083500
X065125Y-010875
X065250Y-022000
X065375Y-017375
X065500Y-073500
X065500Y-082500
X065750Y-022500
X065875Y-037500
X066000Y-044000
X066000Y-074500
X066375Y-038000
X066500Y-044500
X066500Y-079500
X066875Y-019500
X067000Y-024000
X067000Y-070500
X067000Y-078500
X067000Y-082000
X067375Y-020000
X067500Y-024500
X067500Y-025500
X067500Y-069500
X067500Y-083000
X067875Y-021500
X068000Y-026000
X068000Y-029000
X068000Y-073000
X068375Y-022000
X068500Y-029500
X068500Y-032500
X068500Y-074000
X068500Y-078000
X069000Y-033000
X069000Y-038000
X069000Y-079000
X069375Y-031000
X069500Y-038500
X069500Y-069000
X069875Y-030500
X069875Y-054500
X070000Y-059500
X070000Y-070000
X070375Y-055000
X070500Y-060000
X070875Y-016875
X071000Y-062000
X071500Y-061500
X071625Y-024500
X072125Y-025000
X072625Y-040500
X073125Y-041000
X073625Y-022500
X074125Y-023000
X074625Y-010375
X074625Y-043500
X075000Y-063500
X075125Y-044000
X075500Y-052000
X075500Y-056500
X075500Y-063000
X075500Y-085500
X076000Y-048500
X076000Y-051500
X076000Y-056000
X076000Y-076500
X076000Y-084500
X076125Y-022000
X076375Y-035500
X076500Y-042500
X076500Y-049000
X076500Y-075500
X076625Y-021500
X076875Y-036000
X077000Y-042000
X077000Y-072500
X077000Y-081500
X077125Y-020000
X077375Y-028500
X077500Y-035500
X077500Y-071500
X077500Y-080500
X077500Y-084000
X077625Y-020500
X077875Y-027000
X077875Y-028000
X078000Y-035000
X078000Y-075000
X078000Y-085000
X078375Y-026500
X078375Y-031500
X078500Y-076000
X078500Y-080000
X078875Y-032000
X079000Y-081000
X079375Y-016875
X079375Y-019500
X079375Y-021500
X079500Y-071000
X079875Y-013875
X079875Y-020000
X079875Y-021000
X080000Y-072000
X080250Y-083500
X080375Y-013375
X080375Y-029500
X080750Y-031000
X080750Y-073500
X080750Y-082500
X080875Y-030000
X081250Y-031500
X081250Y-074500
X081375Y-023500
X081750Y-079500
X081875Y-022500
X081875Y-024000
X082250Y-035000
X082250Y-070500
X082250Y-078500
X082250Y-082000
X082375Y-022000
X082750Y-035500
X082750Y-069500
X082750Y-083000
X082875Y-029500
X082875Y-037500
X083250Y-044000
X083250Y-073000
X083375Y-030000
X083375Y-038000
X083750Y-044500
X083750Y-049000
X083750Y-074000
X083750Y-078000
X084250Y-048000
X084250Y-048500
X084250Y-056000
X084250Y-079000
X084375Y-016875
X084500Y-038000
X084750Y-047500
X084750Y-056500
X084750Y-069000
X085125Y-037500
X085125Y-038500
X085250Y-063000
X085250Y-070000
X085625Y-039000
X085750Y-063500
X086125Y-056500
X086625Y-057000
X087125Y-036500
X087625Y-037000
X088000Y-059000
X088125Y-025000
X088500Y-037000
X088500Y-059500
X088625Y-025500
X089000Y-037500
X089125Y-034500
X089625Y-035000
X090250Y-055500
X090625Y-010125
X090750Y-043500
X090750Y-050500
X090750Y-055000
X090750Y-085500
X091250Y-043000
X091250Y-050000
X091250Y-076500
X091250Y-084500
X091375Y-042000
X091750Y-047000
X091750Y-075500
X091875Y-041500
X091875Y-045500
X092250Y-046500
X092250Y-072500
X092250Y-081500
X092375Y-046000
X092750Y-064500
X092750Y-071500
X092750Y-080500
X092750Y-084000
X092875Y-033500
X093250Y-064000
X093250Y-075000
X093250Y-085000
X093375Y-018500
X093375Y-034000
X093500Y-049500
X093750Y-076000
X093750Y-080000
X093875Y-018000
X093875Y-044500
X094000Y-050000
X094000Y-052000
X094250Y-081000
X094375Y-045000
X094500Y-052500
X094750Y-071000
X094875Y-028500
X094875Y-055000
X095250Y-072000
X095375Y-029000
X095375Y-052500
X095375Y-054500
X095500Y-083500
X095875Y-016875
X095875Y-043500
X095875Y-048520
X095875Y-052000
X096000Y-073500
X096000Y-082500
X096375Y-010625
X096375Y-044000
X096375Y-048000
X096500Y-074500
X096875Y-010125
X097000Y-079500
X097500Y-070500
X097500Y-078500
X097500Y-082000
X097875Y-016875
X098000Y-069500
X098000Y-083000
X098500Y-064000
X098500Y-065500
X098500Y-073000
X098625Y-052500
X099000Y-063500
X099000Y-066000
X099000Y-074000
X099000Y-078000
X099125Y-053000
X099500Y-079000
X099625Y-025000
X100000Y-059000
X100000Y-069000
X100125Y-025500
X100500Y-058500
X100500Y-059000
X100500Y-070000
X100625Y-050500
X101000Y-059500
X101125Y-051000
X101625Y-032000
X102125Y-032500
X102625Y-048500
X103125Y-049000
X103625Y-065500
X104125Y-066000
X104750Y-066000
X105250Y-065500
X105375Y-059500
X105500Y-061500
X105875Y-060000
X106000Y-061000
X106000Y-085500
X106375Y-053500
X106375Y-054500
X106500Y-076500
X106500Y-084500
X106875Y-047500
X106875Y-053000
X106875Y-054000
X107000Y-075500
X107375Y-047000
X107375Y-057500
X107500Y-072500
X107500Y-081500
X107875Y-058000
X108000Y-071500
X108000Y-080500
X108000Y-084000
X108375Y-029500
X108375Y-040500
X108500Y-075000
X108500Y-085000
X108875Y-030000
X108875Y-033500
X108875Y-040000
X109000Y-076000
X109000Y-080000
X109375Y-016875
X109375Y-033000
X109375Y-055500
X109500Y-081000
X109875Y-056000
X110000Y-071000
X110375Y-016125
X110375Y-025000
X110375Y-026500
X110500Y-067000
X110500Y-072000
X110750Y-083500
X110875Y-011875
X110875Y-019500
X110875Y-024500
X110875Y-026000
X111000Y-066500
X111250Y-073500
X111250Y-082500
X111375Y-011375
X111375Y-019000
X111500Y-062500
X111750Y-074500
X112000Y-062000
X112250Y-079500
X112750Y-070500
X112750Y-078500
X112750Y-082000
X112875Y-064500
X113105Y-065000
X113125Y-035500
X113250Y-069500
X113250Y-083000
X113625Y-027500
X113625Y-036000
X113750Y-073000
X114125Y-027000
X114250Y-074000
X114250Y-078000
X114750Y-079000
X115125Y-036500
X115125Y-038500
X115250Y-069000
X115625Y-037000
X115625Y-038000
X115625Y-042500
X115750Y-070000
X116125Y-042000
X116125Y-062500
X116625Y-063000
X116750Y-063500
X117125Y-058500
X117125Y-066000
X117250Y-064000
X117500Y-066625
X117625Y-016125
X117625Y-059000
X118125Y-015625
T3
X012375Y-088508
X012375Y-089492
X024375Y-101883
X024375Y-102867
X026375Y-088508
X026375Y-089492
X027625Y-088508
X027625Y-089492
X039625Y-101883
X039625Y-102867
X041625Y-088508
X041625Y-089492
X042875Y-088508
X042875Y-089492
X056875Y-088508
X056875Y-089492
X058125Y-088508
X058125Y-089492
X070125Y-101883
X070125Y-102867
X072125Y-088508
X072125Y-089492
X073375Y-088508
X073375Y-089492
X087375Y-088508
X087375Y-089492
X088625Y-088508
X088625Y-089492
X100625Y-104633
X100625Y-105617
X102625Y-088508
X102625Y-089492
X103875Y-088508
X103875Y-089492
X117875Y-088508
X117875Y-089492
T4
X012375Y-078500
X012375Y-079500
X012375Y-080500
X012375Y-081500
X012375Y-082500
X012375Y-083500
X012375Y-084500
X012375Y-085500
X012375Y-086500
X012375Y-087500
X013875Y-068500
X013875Y-069500
X013875Y-070500
X013875Y-071500
X013875Y-072500
X013875Y-073500
X013875Y-074500
X013875Y-075500
X013875Y-076500
X013875Y-077500
X013875Y-078500
X013875Y-079500
X013875Y-080500
X013875Y-081500
X013875Y-082500
X013875Y-083500
X013875Y-084500
X013875Y-085500
X013875Y-086500
X013875Y-087500
X013875Y-088500
X013875Y-089500
X013875Y-090500
X013875Y-091500
X013875Y-092500
X014875Y-091500
X014875Y-092500
X015875Y-091500
X015875Y-092500
X016375Y-094750
X016375Y-095750
X016375Y-096750
X016375Y-097750
X016375Y-098750
X016375Y-099750
X016375Y-100750
X016375Y-101750
X016375Y-102750
X016375Y-103750
X016375Y-104750
X016375Y-105750
X016875Y-091500
X016875Y-092500
X017875Y-091500
X017875Y-092500
X018875Y-091500
X018875Y-092500
X019875Y-091500
X019875Y-092500
X020875Y-091500
X020875Y-092500
X021875Y-091500
X021875Y-092500
X022375Y-094750
X022375Y-095750
X022375Y-096750
X022375Y-097750
X022375Y-098750
X022375Y-099750
X022375Y-100750
X022375Y-101750
X022375Y-102750
X022375Y-103750
X022375Y-104750
X022375Y-105750
X022875Y-091500
X022875Y-092500
X023875Y-091500
X023875Y-092500
X024875Y-068500
X024875Y-069500
X024875Y-070500
X024875Y-071500
X024875Y-072500
X024875Y-073500
X024875Y-074500
X024875Y-075500
X024875Y-076500
X024875Y-077500
X024875Y-078500
X024875Y-079500
X024875Y-080500
X024875Y-081500
X024875Y-082500
X024875Y-083500
X024875Y-084500
X024875Y-085500
X024875Y-086500
X024875Y-087500
X024875Y-088500
X024875Y-089500
X024875Y-090500
X024875Y-091500
X024875Y-092500
X026375Y-078500
X026375Y-079500
X026375Y-080500
X026375Y-081500
X026375Y-082500
X026375Y-083500
X026375Y-084500
X026375Y-085500
X026375Y-086500
X026375Y-087500
X027625Y-078500
X027625Y-079500
X027625Y-080500
X027625Y-081500
X027625Y-082500
X027625Y-083500
X027625Y-084500
X027625Y-085500
X027625Y-086500
X027625Y-087500
X029125Y-068500
X029125Y-069500
X029125Y-070500
X029125Y-071500
X029125Y-072500
X029125Y-073500
X029125Y-074500
X029125Y-075500
X029125Y-076500
X029125Y-077500
X029125Y-078500
X029125Y-079500
X029125Y-080500
X029125Y-081500
X029125Y-082500
X029125Y-083500
X029125Y-084500
X029125Y-085500
X029125Y-086500
X029125Y-087500
X029125Y-088500
X029125Y-089500
X029125Y-090500
X029125Y-091500
X029125Y-092500
X030125Y-091500
X030125Y-092500
X031125Y-091500
X031125Y-092500
X031625Y-094750
X031625Y-095750
X031625Y-096750
X031625Y-097750
X031625Y-098750
X031625Y-099750
X031625Y-100750
X031625Y-101750
X031625Y-102750
X031625Y-103750
X031625Y-104750
X031625Y-105750
X032125Y-091500
X032125Y-092500
X033125Y-091500
X033125Y-092500
X034125Y-091500
X034125Y-092500
X035125Y-091500
X035125Y-092500
X036125Y-091500
X036125Y-092500
X037125Y-091500
X037125Y-092500
X037625Y-094750
X037625Y-095750
X037625Y-096750
X037625Y-097750
X037625Y-098750
X037625Y-099750
X037625Y-100750
X037625Y-101750
X037625Y-102750
X037625Y-103750
X037625Y-104750
X037625Y-105750
X038125Y-091500
X038125Y-092500
X039125Y-091500
X039125Y-092500
X040125Y-068500
X040125Y-069500
X040125Y-070500
X040125Y-071500
X040125Y-072500
X040125Y-073500
X040125Y-074500
X040125Y-075500
X040125Y-076500
X040125Y-077500
X040125Y-078500
X040125Y-079500
X040125Y-080500
X040125Y-081500
X040125Y-082500
X040125Y-083500
X040125Y-084500
X040125Y-085500
X040125Y-086500
X040125Y-087500
X040125Y-088500
X040125Y-089500
X040125Y-090500
X040125Y-091500
X040125Y-092500
X041625Y-078500
X041625Y-079500
X041625Y-080500
X041625Y-081500
X041625Y-082500
X041625Y-083500
X041625Y-084500
X041625Y-085500
X041625Y-086500
X041625Y-087500
X042875Y-078500
X042875Y-079500
X042875Y-080500
X042875Y-081500
X042875Y-082500
X042875Y-083500
X042875Y-084500
X042875Y-085500
X042875Y-086500
X042875Y-087500
X044375Y-068500
X044375Y-069500
X044375Y-070500
X044375Y-071500
X044375Y-072500
X044375Y-073500
X044375Y-074500
X044375Y-075500
X044375Y-076500
X044375Y-077500
X044375Y-078500
X044375Y-079500
X044375Y-080500
X044375Y-081500
X044375Y-082500
X044375Y-083500
X044375Y-084500
X044375Y-085500
X044375Y-086500
X044375Y-087500
X044375Y-088500
X044375Y-089500
X044375Y-090500
X044375Y-091500
X044375Y-092500
X045375Y-091500
X045375Y-092500
X046375Y-091500
X046375Y-092500
X047375Y-091500
X047375Y-092500
X048375Y-091500
X048375Y-092500
X049375Y-091500
X049375Y-092500
X050375Y-091500
X050375Y-092500
X051375Y-091500
X051375Y-092500
X052375Y-091500
X052375Y-092500
X053375Y-091500
X053375Y-092500
X054375Y-091500
X054375Y-092500
X055375Y-068500
X055375Y-069500
X055375Y-070500
X055375Y-071500
X055375Y-072500
X055375Y-073500
X055375Y-074500
X055375Y-075500
X055375Y-076500
X055375Y-077500
X055375Y-078500
X055375Y-079500
X055375Y-080500
X055375Y-081500
X055375Y-082500
X055375Y-083500
X055375Y-084500
X055375Y-085500
X055375Y-086500
X055375Y-087500
X055375Y-088500
X055375Y-089500
X055375Y-090500
X055375Y-091500
X055375Y-092500
X056875Y-078500
X056875Y-079500
X056875Y-080500
X056875Y-081500
X056875Y-082500
X056875Y-083500
X056875Y-084500
X056875Y-085500
X056875Y-086500
X056875Y-087500
X058125Y-078500
X058125Y-079500
X058125Y-080500
X058125Y-081500
X058125Y-082500
X058125Y-083500
X058125Y-084500
X058125Y-085500
X058125Y-086500
X058125Y-087500
X059625Y-068500
X059625Y-069500
X059625Y-070500
X059625Y-071500
X059625Y-072500
X059625Y-073500
X059625Y-074500
X059625Y-075500
X059625Y-076500
X059625Y-077500
X059625Y-078500
X059625Y-079500
X059625Y-080500
X059625Y-081500
X059625Y-082500
X059625Y-083500
X059625Y-084500
X059625Y-085500
X059625Y-086500
X059625Y-087500
X059625Y-088500
X059625Y-089500
X059625Y-090500
X059625Y-091500
X059625Y-092500
X060625Y-091500
X060625Y-092500
X061625Y-091500
X061625Y-092500
X062125Y-094750
X062125Y-095750
X062125Y-096750
X062125Y-097750
X062125Y-098750
X062125Y-099750
X062125Y-100750
X062125Y-101750
X062125Y-102750
X062125Y-103750
X062125Y-104750
X062125Y-105750
X062625Y-091500
X062625Y-092500
X063625Y-091500
X063625Y-092500
X064625Y-091500
X064625Y-092500
X065625Y-091500
X065625Y-092500
X066625Y-091500
X066625Y-092500
X067625Y-091500
X067625Y-092500
X068125Y-094750
X068125Y-095750
X068125Y-096750
X068125Y-097750
X068125Y-098750
X068125Y-099750
X068125Y-100750
X068125Y-101750
X068125Y-102750
X068125Y-103750
X068125Y-104750
X068125Y-105750
X068625Y-091500
X068625Y-092500
X069625Y-091500
X069625Y-092500
X070625Y-068500
X070625Y-069500
X070625Y-070500
X070625Y-071500
X070625Y-072500
X070625Y-073500
X070625Y-074500
X070625Y-075500
X070625Y-076500
X070625Y-077500
X070625Y-078500
X070625Y-079500
X070625Y-080500
X070625Y-081500
X070625Y-082500
X070625Y-083500
X070625Y-084500
X070625Y-085500
X070625Y-086500
X070625Y-087500
X070625Y-088500
X070625Y-089500
X070625Y-090500
X070625Y-091500
X070625Y-092500
X072125Y-078500
X072125Y-079500
X072125Y-080500
X072125Y-081500
X072125Y-082500
X072125Y-083500
X072125Y-084500
X072125Y-085500
X072125Y-086500
X072125Y-087500
X073375Y-078500
X073375Y-079500
X073375Y-080500
X073375Y-081500
X073375Y-082500
X073375Y-083500
X073375Y-084500
X073375Y-085500
X073375Y-086500
X073375Y-087500
X074875Y-068500
X074875Y-069500
X074875Y-070500
X074875Y-071500
X074875Y-072500
X074875Y-073500
X074875Y-074500
X074875Y-075500
X074875Y-076500
X074875Y-077500
X074875Y-078500
X074875Y-079500
X074875Y-080500
X074875Y-081500
X074875Y-082500
X074875Y-083500
X074875Y-084500
X074875Y-085500
X074875Y-086500
X074875Y-087500
X074875Y-088500
X074875Y-089500
X074875Y-090500
X074875Y-091500
X074875Y-092500
X075875Y-091500
X075875Y-092500
X076875Y-091500
X076875Y-092500
X077875Y-091500
X077875Y-092500
X078875Y-091500
X078875Y-092500
X079875Y-091500
X079875Y-092500
X080875Y-091500
X080875Y-092500
X081875Y-091500
X081875Y-092500
X082875Y-091500
X082875Y-092500
X083875Y-091500
X083875Y-092500
X084875Y-091500
X084875Y-092500
X085875Y-068500
X085875Y-069500
X085875Y-070500
X085875Y-071500
X085875Y-072500
X085875Y-073500
X085875Y-074500
X085875Y-075500
X085875Y-076500
X085875Y-077500
X085875Y-078500
X085875Y-079500
X085875Y-080500
X085875Y-081500
X085875Y-082500
X085875Y-083500
X085875Y-084500
X085875Y-085500
X085875Y-086500
X085875Y-087500
X085875Y-088500
X085875Y-089500
X085875Y-090500
X085875Y-091500
X085875Y-092500
X087375Y-078500
X087375Y-079500
X087375Y-080500
X087375Y-081500
X087375Y-082500
X087375Y-083500
X087375Y-084500
X087375Y-085500
X087375Y-086500
X087375Y-087500
X088625Y-078500
X088625Y-079500
X088625Y-080500
X088625Y-081500
X088625Y-082500
X088625Y-083500
X088625Y-084500
X088625Y-085500
X088625Y-086500
X088625Y-087500
X090125Y-068500
X090125Y-069500
X090125Y-070500
X090125Y-071500
X090125Y-072500
X090125Y-073500
X090125Y-074500
X090125Y-075500
X090125Y-076500
X090125Y-077500
X090125Y-078500
X090125Y-079500
X090125Y-080500
X090125Y-081500
X090125Y-082500
X090125Y-083500
X090125Y-084500
X090125Y-085500
X090125Y-086500
X090125Y-087500
X090125Y-088500
X090125Y-089500
X090125Y-090500
X090125Y-091500
X090125Y-092500
X091125Y-091500
X091125Y-092500
X092125Y-091500
X092125Y-092500
X092625Y-094750
X092625Y-095750
X092625Y-096750
X092625Y-097750
X092625Y-098750
X092625Y-099750
X092625Y-100750
X092625Y-101750
X092625Y-102750
X092625Y-103750
X092625Y-104750
X092625Y-105750
X093125Y-091500
X093125Y-092500
X094125Y-091500
X094125Y-092500
X095125Y-091500
X095125Y-092500
X096125Y-091500
X096125Y-092500
X097125Y-091500
X097125Y-092500
X098125Y-091500
X098125Y-092500
X098625Y-094750
X098625Y-095750
X098625Y-096750
X098625Y-097750
X098625Y-098750
X098625Y-099750
X098625Y-100750
X098625Y-101750
X098625Y-102750
X098625Y-103750
X098625Y-104750
X098625Y-105750
X099125Y-091500
X099125Y-092500
X100125Y-091500
X100125Y-092500
X101125Y-068500
X101125Y-069500
X101125Y-070500
X101125Y-071500
X101125Y-072500
X101125Y-073500
X101125Y-074500
X101125Y-075500
X101125Y-076500
X101125Y-077500
X101125Y-078500
X101125Y-079500
X101125Y-080500
X101125Y-081500
X101125Y-082500
X101125Y-083500
X101125Y-084500
X101125Y-085500
X101125Y-086500
X101125Y-087500
X101125Y-088500
X101125Y-089500
X101125Y-090500
X101125Y-091500
X101125Y-092500
X102625Y-078500
X102625Y-079500
X102625Y-080500
X102625Y-081500
X102625Y-082500
X102625Y-083500
X102625Y-084500
X102625Y-085500
X102625Y-086500
X102625Y-087500
X103875Y-078500
X103875Y-079500
X103875Y-080500
X103875Y-081500
X103875Y-082500
X103875Y-083500
X103875Y-084500
X103875Y-085500
X103875Y-086500
X103875Y-087500
X105375Y-068500
X105375Y-069500
X105375Y-070500
X105375Y-071500
X105375Y-072500
X105375Y-073500
X105375Y-074500
X105375Y-075500
X105375Y-076500
X105375Y-077500
X105375Y-078500
X105375Y-079500
X105375Y-080500
X105375Y-081500
X105375Y-082500
X105375Y-083500
X105375Y-084500
X105375Y-085500
X105375Y-086500
X105375Y-087500
X105375Y-088500
X105375Y-089500
X105375Y-090500
X105375Y-091500
X105375Y-092500
X106375Y-091500
X106375Y-092500
X107375Y-091500
X107375Y-092500
X108375Y-091500
X108375Y-092500
X109375Y-091500
X109375Y-092500
X110375Y-091500
X110375Y-092500
X111375Y-091500
X111375Y-092500
X112375Y-091500
X112375Y-092500
X113375Y-091500
X113375Y-092500
X114375Y-091500
X114375Y-092500
X115375Y-091500
X115375Y-092500
X116375Y-068500
X116375Y-069500
X116375Y-070500
X116375Y-071500
X116375Y-072500
X116375Y-073500
X116375Y-074500
X116375Y-075500
X116375Y-076500
X116375Y-077500
X116375Y-078500
X116375Y-079500
X116375Y-080500
X116375Y-081500
X116375Y-082500
X116375Y-083500
X116375Y-084500
X116375Y-085500
X116375Y-086500
X116375Y-087500
X116375Y-088500
X116375Y-089500
X116375Y-090500
X116375Y-091500
X116375Y-092500
X117875Y-078500
X117875Y-079500
X117875Y-080500
X117875Y-081500
X117875Y-082500
X117875Y-083500
X117875Y-084500
X117875Y-085500
X117875Y-086500
X117875Y-087500
T5
X015250Y-093500
X026125Y-093500
X030500Y-093500
X041375Y-093500
X046750Y-093500
X056625Y-093500
X061000Y-093500
X071875Y-093500
X087125Y-093500
X091500Y-093500
X102375Y-093500
X107000Y-104000
X107000Y-104875
X107000Y-105625
X107375Y-102000
X107375Y-102875
X110125Y-098000
X110125Y-098875
X111500Y-096500
X111500Y-098125
X113375Y-098375
X114375Y-097375
X114375Y-098375
X115750Y-101000
X116375Y-100375
X117000Y-099750
X117625Y-093500
T6
X011375Y-014625
X011375Y-015625
X012375Y-014625
X012375Y-015625
X013375Y-014625
X013375Y-015625
X014375Y-014625
X014375Y-015625
X015375Y-014625
X015375Y-015625
X016375Y-014625
X016375Y-015625
X017375Y-014625
X017375Y-015625
X018125Y-008125
X018125Y-009125
X019125Y-008125
X019125Y-009125
X020125Y-008125
X020125Y-009125
X021125Y-008125
X021125Y-009125
X022125Y-008125
X022125Y-009125
X023125Y-008125
X023125Y-009125
X024125Y-008125
X024125Y-009125
X024875Y-014625
X024875Y-015625
X025875Y-014625
X025875Y-015625
X026875Y-014625
X026875Y-015625
X027875Y-014625
X027875Y-015625
X028875Y-014625
X028875Y-015625
X029875Y-014625
X029875Y-015625
X030875Y-014625
X030875Y-015625
X031625Y-008125
X031625Y-009125
X032625Y-008125
X032625Y-009125
X033625Y-008125
X033625Y-009125
X034625Y-008125
X034625Y-009125
X035625Y-008125
X035625Y-009125
X036625Y-008125
X036625Y-009125
X037625Y-008125
X037625Y-009125
X038375Y-014625
X038375Y-015625
X039375Y-014625
X039375Y-015625
X040375Y-014625
X040375Y-015625
X041375Y-014625
X041375Y-015625
X042375Y-014625
X042375Y-015625
X043375Y-014625
X043375Y-015625
X044375Y-014625
X044375Y-015625
X045125Y-008125
X045125Y-009125
X045750Y-096000
X045750Y-103000
X046125Y-008125
X046125Y-009125
X046750Y-096000
X046750Y-103000
X047125Y-008125
X047125Y-009125
X047750Y-096000
X047750Y-103000
X048125Y-008125
X048125Y-009125
X048750Y-096000
X048750Y-103000
X049125Y-008125
X049125Y-009125
X049750Y-096000
X049750Y-103000
X050125Y-008125
X050125Y-009125
X050750Y-096000
X050750Y-103000
X051125Y-008125
X051125Y-009125
X051750Y-096000
X051750Y-103000
X051875Y-014625
X051875Y-015625
X052750Y-096000
X052750Y-103000
X052875Y-014625
X052875Y-015625
X053750Y-096000
X053750Y-103000
X053875Y-014625
X053875Y-015625
X054875Y-014625
X054875Y-015625
X055875Y-014625
X055875Y-015625
X056875Y-014625
X056875Y-015625
X057875Y-014625
X057875Y-015625
X058625Y-008125
X058625Y-009125
X059625Y-008125
X059625Y-009125
X060625Y-008125
X060625Y-009125
X061625Y-008125
X061625Y-009125
X062625Y-008125
X062625Y-009125
X063625Y-008125
X063625Y-009125
X064625Y-008125
X064625Y-009125
X065375Y-014625
X065375Y-015625
X066375Y-014625
X066375Y-015625
X067375Y-014625
X067375Y-015625
X068375Y-014625
X068375Y-015625
X069375Y-014625
X069375Y-015625
X070375Y-014625
X070375Y-015625
X071375Y-014625
X071375Y-015625
X072125Y-008125
X072125Y-009125
X073125Y-008125
X073125Y-009125
X074125Y-008125
X074125Y-009125
X075125Y-008125
X075125Y-009125
X076125Y-008125
X076125Y-009125
X077125Y-008125
X077125Y-009125
X077945Y-099534
X077945Y-102194
X078125Y-008125
X078125Y-009125
X078490Y-100654
X078490Y-103314
X078875Y-014625
X078875Y-015625
X079035Y-099534
X079035Y-102194
X079580Y-100654
X079580Y-103314
X079875Y-014625
X079875Y-015625
X080125Y-099534
X080125Y-102194
X080670Y-100654
X080670Y-103314
X080875Y-014625
X080875Y-015625
X081215Y-099534
X081215Y-102194
X081760Y-100654
X081760Y-103314
X081875Y-014625
X081875Y-015625
X082305Y-099534
X082305Y-102194
X082875Y-014625
X082875Y-015625
X083875Y-014625
X083875Y-015625
X084875Y-014625
X084875Y-015625
X085625Y-008125
X085625Y-009125
X086625Y-008125
X086625Y-009125
X087625Y-008125
X087625Y-009125
X088625Y-008125
X088625Y-009125
X089625Y-008125
X089625Y-009125
X090625Y-008125
X090625Y-009125
X091625Y-008125
X091625Y-009125
X092375Y-014625
X092375Y-015625
X093375Y-014625
X093375Y-015625
X094375Y-014625
X094375Y-015625
X095375Y-014625
X095375Y-015625
X096375Y-014625
X096375Y-015625
X097375Y-014625
X097375Y-015625
X098375Y-014625
X098375Y-015625
X099125Y-008125
X099125Y-009125
X100125Y-008125
X100125Y-009125
X100750Y-101250
X100750Y-102250
X100750Y-103250
X101125Y-008125
X101125Y-009125
X101750Y-101250
X101750Y-102250
X101750Y-103250
X102125Y-008125
X102125Y-009125
X103125Y-008125
X103125Y-009125
X104125Y-008125
X104125Y-009125
X105125Y-008125
X105125Y-009125
X105875Y-014625
X105875Y-015625
X106875Y-014625
X106875Y-015625
X107875Y-014625
X107875Y-015625
X108875Y-014625
X108875Y-015625
X109875Y-014625
X109875Y-015625
X110875Y-014625
X110875Y-015625
X111875Y-014625
X111875Y-015625
X112625Y-008125
X112625Y-009125
X113625Y-008125
X113625Y-009125
X114625Y-008125
X114625Y-009125
X115625Y-008125
X115625Y-009125
X116625Y-008125
X116625Y-009125
X117625Y-008125
X117625Y-009125
X118625Y-008125
X118625Y-009125
T7
X104610Y-099819
X104610Y-101000
X105988Y-099819
X105988Y-101000
X107366Y-099819
X107366Y-101000
X108744Y-099819
X108744Y-101000
X110122Y-099819
X110122Y-101000
X111500Y-099819
X111500Y-101000
X112878Y-099819
X112878Y-101000
X114256Y-099819
X114256Y-101000
T8
X075205Y-100164
X075255Y-103314
X085045Y-100164
X085095Y-103314
T9
X012000Y-008500
X012000Y-104500
X109000Y-008500
X118000Y-104500
T0
M30
