G04 #@! TF.FileFunction,Copper,L4,Bot,Signal*
%FSLAX46Y46*%
G04 Gerber Fmt 4.6, Leading zero omitted, Abs format (unit mm)*
G04 Created by KiCad (PCBNEW 4.0.3+e1-6302~38~ubuntu14.04.1-stable) date Fri Aug 19 15:31:16 2016*
%MOMM*%
%LPD*%
G01*
G04 APERTURE LIST*
%ADD10C,0.100000*%
%ADD11C,0.150000*%
%ADD12C,1.500000*%
%ADD13C,3.810000*%
%ADD14C,1.524000*%
%ADD15C,1.397000*%
%ADD16C,1.000000*%
%ADD17R,1.524000X1.524000*%
%ADD18C,6.350000*%
%ADD19C,1.143000*%
%ADD20C,0.508000*%
%ADD21C,0.889000*%
%ADD22C,1.016000*%
%ADD23C,2.540000*%
%ADD24C,1.270000*%
%ADD25C,0.381000*%
%ADD26C,0.508000*%
%ADD27C,0.177800*%
%ADD28C,0.127000*%
%ADD29C,0.254000*%
G04 APERTURE END LIST*
D10*
D11*
X304800000Y-16510000D02*
X304800000Y-270510000D01*
X25400000Y-16510000D02*
X25400000Y-270510000D01*
X25400000Y-270510000D02*
X304800000Y-270510000D01*
X25400000Y-16510000D02*
X304800000Y-16510000D01*
D12*
X290210000Y-256540000D03*
X272710000Y-256540000D03*
D13*
X288460000Y-264450000D03*
D12*
X269210000Y-256540000D03*
X286710000Y-256540000D03*
X283210000Y-256540000D03*
X265710000Y-256540000D03*
X290210000Y-253540000D03*
X279710000Y-256540000D03*
X286710000Y-253540000D03*
X276210000Y-256540000D03*
D13*
X267460000Y-264450000D03*
D12*
X283210000Y-253540000D03*
X279710000Y-253540000D03*
X276210000Y-253540000D03*
X272710000Y-253540000D03*
X269210000Y-253540000D03*
X265710000Y-253540000D03*
D14*
X116205000Y-243840000D03*
X118745000Y-243840000D03*
X121285000Y-243840000D03*
X123825000Y-243840000D03*
X126365000Y-243840000D03*
X128905000Y-243840000D03*
X131445000Y-243840000D03*
X133985000Y-243840000D03*
X136525000Y-243840000D03*
X136525000Y-261620000D03*
X133985000Y-261620000D03*
X131445000Y-261620000D03*
X128905000Y-261620000D03*
X126365000Y-261620000D03*
X123825000Y-261620000D03*
X121285000Y-261620000D03*
X118745000Y-261620000D03*
X116205000Y-261620000D03*
D15*
X157797500Y-240665000D03*
X157797500Y-243205000D03*
X157797500Y-245745000D03*
X157797500Y-248285000D03*
X157797500Y-250825000D03*
X157797500Y-253365000D03*
X157797500Y-255905000D03*
X157797500Y-260985000D03*
X157797500Y-263525000D03*
X157797500Y-266065000D03*
X157797500Y-268605000D03*
X157797500Y-258445000D03*
X173037500Y-258445000D03*
X173037500Y-268605000D03*
X173037500Y-266065000D03*
X173037500Y-263525000D03*
X173037500Y-260985000D03*
X173037500Y-255905000D03*
X173037500Y-253365000D03*
X173037500Y-250825000D03*
X173037500Y-248285000D03*
X173037500Y-245745000D03*
X173037500Y-243205000D03*
X173037500Y-240665000D03*
X256857500Y-234950000D03*
X256857500Y-232410000D03*
X256857500Y-229870000D03*
X256857500Y-227330000D03*
X256857500Y-224790000D03*
X256857500Y-222250000D03*
X256857500Y-219710000D03*
X256857500Y-217170000D03*
X256857500Y-214630000D03*
X256857500Y-212090000D03*
X256857500Y-209550000D03*
X256857500Y-207010000D03*
X256857500Y-204470000D03*
X256857500Y-201930000D03*
X256857500Y-199390000D03*
X256857500Y-196850000D03*
X256857500Y-194310000D03*
X256857500Y-191770000D03*
X256857500Y-189230000D03*
X256857500Y-186690000D03*
X256857500Y-184150000D03*
X256857500Y-181610000D03*
X256857500Y-179070000D03*
X256857500Y-176530000D03*
X256857500Y-173990000D03*
X228917500Y-173990000D03*
X228917500Y-176530000D03*
X228917500Y-179070000D03*
X228917500Y-181610000D03*
X228917500Y-184150000D03*
X228917500Y-186690000D03*
X228917500Y-189230000D03*
X228917500Y-191770000D03*
X228917500Y-194310000D03*
X228917500Y-196850000D03*
X228917500Y-199390000D03*
X228917500Y-201930000D03*
X228917500Y-204470000D03*
X228917500Y-207010000D03*
X228917500Y-209550000D03*
X228917500Y-212090000D03*
X228917500Y-214630000D03*
X228917500Y-217170000D03*
X228917500Y-219710000D03*
X228917500Y-222250000D03*
X228917500Y-224790000D03*
X228917500Y-227330000D03*
X228917500Y-229870000D03*
X228917500Y-232410000D03*
X228917500Y-234950000D03*
X218122500Y-234950000D03*
X218122500Y-232410000D03*
X218122500Y-229870000D03*
X218122500Y-227330000D03*
X218122500Y-224790000D03*
X218122500Y-222250000D03*
X218122500Y-219710000D03*
X218122500Y-217170000D03*
X218122500Y-214630000D03*
X218122500Y-212090000D03*
X218122500Y-209550000D03*
X218122500Y-207010000D03*
X218122500Y-204470000D03*
X218122500Y-201930000D03*
X218122500Y-199390000D03*
X218122500Y-196850000D03*
X218122500Y-194310000D03*
X218122500Y-191770000D03*
X218122500Y-189230000D03*
X218122500Y-186690000D03*
X218122500Y-184150000D03*
X218122500Y-181610000D03*
X218122500Y-179070000D03*
X218122500Y-176530000D03*
X218122500Y-173990000D03*
X190182500Y-173990000D03*
X190182500Y-176530000D03*
X190182500Y-179070000D03*
X190182500Y-181610000D03*
X190182500Y-184150000D03*
X190182500Y-186690000D03*
X190182500Y-189230000D03*
X190182500Y-191770000D03*
X190182500Y-194310000D03*
X190182500Y-196850000D03*
X190182500Y-199390000D03*
X190182500Y-201930000D03*
X190182500Y-204470000D03*
X190182500Y-207010000D03*
X190182500Y-209550000D03*
X190182500Y-212090000D03*
X190182500Y-214630000D03*
X190182500Y-217170000D03*
X190182500Y-219710000D03*
X190182500Y-222250000D03*
X190182500Y-224790000D03*
X190182500Y-227330000D03*
X190182500Y-229870000D03*
X190182500Y-232410000D03*
X190182500Y-234950000D03*
X63182500Y-234950000D03*
X63182500Y-232410000D03*
X63182500Y-229870000D03*
X63182500Y-227330000D03*
X63182500Y-224790000D03*
X63182500Y-222250000D03*
X63182500Y-219710000D03*
X63182500Y-217170000D03*
X63182500Y-214630000D03*
X63182500Y-212090000D03*
X63182500Y-209550000D03*
X63182500Y-207010000D03*
X63182500Y-204470000D03*
X63182500Y-201930000D03*
X63182500Y-199390000D03*
X63182500Y-196850000D03*
X63182500Y-194310000D03*
X63182500Y-191770000D03*
X63182500Y-189230000D03*
X63182500Y-186690000D03*
X63182500Y-184150000D03*
X63182500Y-181610000D03*
X63182500Y-179070000D03*
X63182500Y-176530000D03*
X63182500Y-173990000D03*
X35242500Y-173990000D03*
X35242500Y-176530000D03*
X35242500Y-179070000D03*
X35242500Y-181610000D03*
X35242500Y-184150000D03*
X35242500Y-186690000D03*
X35242500Y-189230000D03*
X35242500Y-191770000D03*
X35242500Y-194310000D03*
X35242500Y-196850000D03*
X35242500Y-199390000D03*
X35242500Y-201930000D03*
X35242500Y-204470000D03*
X35242500Y-207010000D03*
X35242500Y-209550000D03*
X35242500Y-212090000D03*
X35242500Y-214630000D03*
X35242500Y-217170000D03*
X35242500Y-219710000D03*
X35242500Y-222250000D03*
X35242500Y-224790000D03*
X35242500Y-227330000D03*
X35242500Y-229870000D03*
X35242500Y-232410000D03*
X35242500Y-234950000D03*
D14*
X95567500Y-20637500D03*
X93027500Y-20637500D03*
X90487500Y-20637500D03*
X87947500Y-20637500D03*
X85407500Y-20637500D03*
X82867500Y-20637500D03*
X80327500Y-20637500D03*
X95567500Y-23177500D03*
X93027500Y-23177500D03*
X90487500Y-23177500D03*
X87947500Y-23177500D03*
X85407500Y-23177500D03*
X82867500Y-23177500D03*
X80327500Y-23177500D03*
X44132500Y-37147500D03*
X41592500Y-37147500D03*
X39052500Y-37147500D03*
X36512500Y-37147500D03*
X33972500Y-37147500D03*
X31432500Y-37147500D03*
X28892500Y-37147500D03*
X44132500Y-39687500D03*
X41592500Y-39687500D03*
X39052500Y-39687500D03*
X36512500Y-39687500D03*
X33972500Y-39687500D03*
X31432500Y-39687500D03*
X28892500Y-39687500D03*
D15*
X101917500Y-234950000D03*
X101917500Y-232410000D03*
X101917500Y-229870000D03*
X101917500Y-227330000D03*
X101917500Y-224790000D03*
X101917500Y-222250000D03*
X101917500Y-219710000D03*
X101917500Y-217170000D03*
X101917500Y-214630000D03*
X101917500Y-212090000D03*
X101917500Y-209550000D03*
X101917500Y-207010000D03*
X101917500Y-204470000D03*
X101917500Y-201930000D03*
X101917500Y-199390000D03*
X101917500Y-196850000D03*
X101917500Y-194310000D03*
X101917500Y-191770000D03*
X101917500Y-189230000D03*
X101917500Y-186690000D03*
X101917500Y-184150000D03*
X101917500Y-181610000D03*
X101917500Y-179070000D03*
X101917500Y-176530000D03*
X101917500Y-173990000D03*
X73977500Y-173990000D03*
X73977500Y-176530000D03*
X73977500Y-179070000D03*
X73977500Y-181610000D03*
X73977500Y-184150000D03*
X73977500Y-186690000D03*
X73977500Y-189230000D03*
X73977500Y-191770000D03*
X73977500Y-194310000D03*
X73977500Y-196850000D03*
X73977500Y-199390000D03*
X73977500Y-201930000D03*
X73977500Y-204470000D03*
X73977500Y-207010000D03*
X73977500Y-209550000D03*
X73977500Y-212090000D03*
X73977500Y-214630000D03*
X73977500Y-217170000D03*
X73977500Y-219710000D03*
X73977500Y-222250000D03*
X73977500Y-224790000D03*
X73977500Y-227330000D03*
X73977500Y-229870000D03*
X73977500Y-232410000D03*
X73977500Y-234950000D03*
X140652500Y-234950000D03*
X140652500Y-232410000D03*
X140652500Y-229870000D03*
X140652500Y-227330000D03*
X140652500Y-224790000D03*
X140652500Y-222250000D03*
X140652500Y-219710000D03*
X140652500Y-217170000D03*
X140652500Y-214630000D03*
X140652500Y-212090000D03*
X140652500Y-209550000D03*
X140652500Y-207010000D03*
X140652500Y-204470000D03*
X140652500Y-201930000D03*
X140652500Y-199390000D03*
X140652500Y-196850000D03*
X140652500Y-194310000D03*
X140652500Y-191770000D03*
X140652500Y-189230000D03*
X140652500Y-186690000D03*
X140652500Y-184150000D03*
X140652500Y-181610000D03*
X140652500Y-179070000D03*
X140652500Y-176530000D03*
X140652500Y-173990000D03*
X112712500Y-173990000D03*
X112712500Y-176530000D03*
X112712500Y-179070000D03*
X112712500Y-181610000D03*
X112712500Y-184150000D03*
X112712500Y-186690000D03*
X112712500Y-189230000D03*
X112712500Y-191770000D03*
X112712500Y-194310000D03*
X112712500Y-196850000D03*
X112712500Y-199390000D03*
X112712500Y-201930000D03*
X112712500Y-204470000D03*
X112712500Y-207010000D03*
X112712500Y-209550000D03*
X112712500Y-212090000D03*
X112712500Y-214630000D03*
X112712500Y-217170000D03*
X112712500Y-219710000D03*
X112712500Y-222250000D03*
X112712500Y-224790000D03*
X112712500Y-227330000D03*
X112712500Y-229870000D03*
X112712500Y-232410000D03*
X112712500Y-234950000D03*
X179387500Y-234950000D03*
X179387500Y-232410000D03*
X179387500Y-229870000D03*
X179387500Y-227330000D03*
X179387500Y-224790000D03*
X179387500Y-222250000D03*
X179387500Y-219710000D03*
X179387500Y-217170000D03*
X179387500Y-214630000D03*
X179387500Y-212090000D03*
X179387500Y-209550000D03*
X179387500Y-207010000D03*
X179387500Y-204470000D03*
X179387500Y-201930000D03*
X179387500Y-199390000D03*
X179387500Y-196850000D03*
X179387500Y-194310000D03*
X179387500Y-191770000D03*
X179387500Y-189230000D03*
X179387500Y-186690000D03*
X179387500Y-184150000D03*
X179387500Y-181610000D03*
X179387500Y-179070000D03*
X179387500Y-176530000D03*
X179387500Y-173990000D03*
X151447500Y-173990000D03*
X151447500Y-176530000D03*
X151447500Y-179070000D03*
X151447500Y-181610000D03*
X151447500Y-184150000D03*
X151447500Y-186690000D03*
X151447500Y-189230000D03*
X151447500Y-191770000D03*
X151447500Y-194310000D03*
X151447500Y-196850000D03*
X151447500Y-199390000D03*
X151447500Y-201930000D03*
X151447500Y-204470000D03*
X151447500Y-207010000D03*
X151447500Y-209550000D03*
X151447500Y-212090000D03*
X151447500Y-214630000D03*
X151447500Y-217170000D03*
X151447500Y-219710000D03*
X151447500Y-222250000D03*
X151447500Y-224790000D03*
X151447500Y-227330000D03*
X151447500Y-229870000D03*
X151447500Y-232410000D03*
X151447500Y-234950000D03*
X295592500Y-234950000D03*
X295592500Y-232410000D03*
X295592500Y-229870000D03*
X295592500Y-227330000D03*
X295592500Y-224790000D03*
X295592500Y-222250000D03*
X295592500Y-219710000D03*
X295592500Y-217170000D03*
X295592500Y-214630000D03*
X295592500Y-212090000D03*
X295592500Y-209550000D03*
X295592500Y-207010000D03*
X295592500Y-204470000D03*
X295592500Y-201930000D03*
X295592500Y-199390000D03*
X295592500Y-196850000D03*
X295592500Y-194310000D03*
X295592500Y-191770000D03*
X295592500Y-189230000D03*
X295592500Y-186690000D03*
X295592500Y-184150000D03*
X295592500Y-181610000D03*
X295592500Y-179070000D03*
X295592500Y-176530000D03*
X295592500Y-173990000D03*
X267652500Y-173990000D03*
X267652500Y-176530000D03*
X267652500Y-179070000D03*
X267652500Y-181610000D03*
X267652500Y-184150000D03*
X267652500Y-186690000D03*
X267652500Y-189230000D03*
X267652500Y-191770000D03*
X267652500Y-194310000D03*
X267652500Y-196850000D03*
X267652500Y-199390000D03*
X267652500Y-201930000D03*
X267652500Y-204470000D03*
X267652500Y-207010000D03*
X267652500Y-209550000D03*
X267652500Y-212090000D03*
X267652500Y-214630000D03*
X267652500Y-217170000D03*
X267652500Y-219710000D03*
X267652500Y-222250000D03*
X267652500Y-224790000D03*
X267652500Y-227330000D03*
X267652500Y-229870000D03*
X267652500Y-232410000D03*
X267652500Y-234950000D03*
D14*
X215582500Y-37147500D03*
X213042500Y-37147500D03*
X210502500Y-37147500D03*
X207962500Y-37147500D03*
X205422500Y-37147500D03*
X202882500Y-37147500D03*
X200342500Y-37147500D03*
X215582500Y-39687500D03*
X213042500Y-39687500D03*
X210502500Y-39687500D03*
X207962500Y-39687500D03*
X205422500Y-39687500D03*
X202882500Y-39687500D03*
X200342500Y-39687500D03*
D15*
X235267500Y-240665000D03*
X235267500Y-243205000D03*
X235267500Y-245745000D03*
X235267500Y-248285000D03*
X235267500Y-250825000D03*
X235267500Y-253365000D03*
X235267500Y-255905000D03*
X235267500Y-260985000D03*
X235267500Y-263525000D03*
X235267500Y-266065000D03*
X235267500Y-268605000D03*
X235267500Y-258445000D03*
X250507500Y-258445000D03*
X250507500Y-268605000D03*
X250507500Y-266065000D03*
X250507500Y-263525000D03*
X250507500Y-260985000D03*
X250507500Y-255905000D03*
X250507500Y-253365000D03*
X250507500Y-250825000D03*
X250507500Y-248285000D03*
X250507500Y-245745000D03*
X250507500Y-243205000D03*
X250507500Y-240665000D03*
X80327500Y-240665000D03*
X80327500Y-243205000D03*
X80327500Y-245745000D03*
X80327500Y-248285000D03*
X80327500Y-250825000D03*
X80327500Y-253365000D03*
X80327500Y-255905000D03*
X80327500Y-260985000D03*
X80327500Y-263525000D03*
X80327500Y-266065000D03*
X80327500Y-268605000D03*
X80327500Y-258445000D03*
X95567500Y-258445000D03*
X95567500Y-268605000D03*
X95567500Y-266065000D03*
X95567500Y-263525000D03*
X95567500Y-260985000D03*
X95567500Y-255905000D03*
X95567500Y-253365000D03*
X95567500Y-250825000D03*
X95567500Y-248285000D03*
X95567500Y-245745000D03*
X95567500Y-243205000D03*
X95567500Y-240665000D03*
X282892500Y-232410000D03*
X293052500Y-232410000D03*
X290512500Y-232410000D03*
X287972500Y-232410000D03*
X285432500Y-232410000D03*
X280352500Y-232410000D03*
X277812500Y-232410000D03*
X275272500Y-232410000D03*
X272732500Y-232410000D03*
X270192500Y-232410000D03*
X244157500Y-232410000D03*
X254317500Y-232410000D03*
X251777500Y-232410000D03*
X249237500Y-232410000D03*
X246697500Y-232410000D03*
X241617500Y-232410000D03*
X239077500Y-232410000D03*
X236537500Y-232410000D03*
X233997500Y-232410000D03*
X231457500Y-232410000D03*
X205422500Y-232410000D03*
X215582500Y-232410000D03*
X213042500Y-232410000D03*
X210502500Y-232410000D03*
X207962500Y-232410000D03*
X202882500Y-232410000D03*
X200342500Y-232410000D03*
X197802500Y-232410000D03*
X195262500Y-232410000D03*
X192722500Y-232410000D03*
X166687500Y-232410000D03*
X176847500Y-232410000D03*
X174307500Y-232410000D03*
X171767500Y-232410000D03*
X169227500Y-232410000D03*
X164147500Y-232410000D03*
X161607500Y-232410000D03*
X159067500Y-232410000D03*
X156527500Y-232410000D03*
X153987500Y-232410000D03*
X127952500Y-232410000D03*
X138112500Y-232410000D03*
X135572500Y-232410000D03*
X133032500Y-232410000D03*
X130492500Y-232410000D03*
X125412500Y-232410000D03*
X122872500Y-232410000D03*
X120332500Y-232410000D03*
X117792500Y-232410000D03*
X115252500Y-232410000D03*
X89217500Y-232410000D03*
X99377500Y-232410000D03*
X96837500Y-232410000D03*
X94297500Y-232410000D03*
X91757500Y-232410000D03*
X86677500Y-232410000D03*
X84137500Y-232410000D03*
X81597500Y-232410000D03*
X79057500Y-232410000D03*
X76517500Y-232410000D03*
X50482500Y-232410000D03*
X60642500Y-232410000D03*
X58102500Y-232410000D03*
X55562500Y-232410000D03*
X53022500Y-232410000D03*
X47942500Y-232410000D03*
X45402500Y-232410000D03*
X42862500Y-232410000D03*
X40322500Y-232410000D03*
X37782500Y-232410000D03*
X280352500Y-234950000D03*
X270192500Y-234950000D03*
X272732500Y-234950000D03*
X275272500Y-234950000D03*
X277812500Y-234950000D03*
X282892500Y-234950000D03*
X285432500Y-234950000D03*
X287972500Y-234950000D03*
X290512500Y-234950000D03*
X293052500Y-234950000D03*
X241617500Y-234950000D03*
X231457500Y-234950000D03*
X233997500Y-234950000D03*
X236537500Y-234950000D03*
X239077500Y-234950000D03*
X244157500Y-234950000D03*
X246697500Y-234950000D03*
X249237500Y-234950000D03*
X251777500Y-234950000D03*
X254317500Y-234950000D03*
X202882500Y-234950000D03*
X192722500Y-234950000D03*
X195262500Y-234950000D03*
X197802500Y-234950000D03*
X200342500Y-234950000D03*
X205422500Y-234950000D03*
X207962500Y-234950000D03*
X210502500Y-234950000D03*
X213042500Y-234950000D03*
X215582500Y-234950000D03*
X164147500Y-234950000D03*
X153987500Y-234950000D03*
X156527500Y-234950000D03*
X159067500Y-234950000D03*
X161607500Y-234950000D03*
X166687500Y-234950000D03*
X169227500Y-234950000D03*
X171767500Y-234950000D03*
X174307500Y-234950000D03*
X176847500Y-234950000D03*
X125412500Y-234950000D03*
X115252500Y-234950000D03*
X117792500Y-234950000D03*
X120332500Y-234950000D03*
X122872500Y-234950000D03*
X127952500Y-234950000D03*
X130492500Y-234950000D03*
X133032500Y-234950000D03*
X135572500Y-234950000D03*
X138112500Y-234950000D03*
X86677500Y-234950000D03*
X76517500Y-234950000D03*
X79057500Y-234950000D03*
X81597500Y-234950000D03*
X84137500Y-234950000D03*
X89217500Y-234950000D03*
X91757500Y-234950000D03*
X94297500Y-234950000D03*
X96837500Y-234950000D03*
X99377500Y-234950000D03*
X47942500Y-234950000D03*
X37782500Y-234950000D03*
X40322500Y-234950000D03*
X42862500Y-234950000D03*
X45402500Y-234950000D03*
X50482500Y-234950000D03*
X53022500Y-234950000D03*
X55562500Y-234950000D03*
X58102500Y-234950000D03*
X60642500Y-234950000D03*
D14*
X112712500Y-37147500D03*
X110172500Y-37147500D03*
X107632500Y-37147500D03*
X105092500Y-37147500D03*
X102552500Y-37147500D03*
X100012500Y-37147500D03*
X97472500Y-37147500D03*
X112712500Y-39687500D03*
X110172500Y-39687500D03*
X107632500Y-39687500D03*
X105092500Y-39687500D03*
X102552500Y-39687500D03*
X100012500Y-39687500D03*
X97472500Y-39687500D03*
X181292500Y-37147500D03*
X178752500Y-37147500D03*
X176212500Y-37147500D03*
X173672500Y-37147500D03*
X171132500Y-37147500D03*
X168592500Y-37147500D03*
X166052500Y-37147500D03*
X181292500Y-39687500D03*
X178752500Y-39687500D03*
X176212500Y-39687500D03*
X173672500Y-39687500D03*
X171132500Y-39687500D03*
X168592500Y-39687500D03*
X166052500Y-39687500D03*
X249872500Y-37147500D03*
X247332500Y-37147500D03*
X244792500Y-37147500D03*
X242252500Y-37147500D03*
X239712500Y-37147500D03*
X237172500Y-37147500D03*
X234632500Y-37147500D03*
X249872500Y-39687500D03*
X247332500Y-39687500D03*
X244792500Y-39687500D03*
X242252500Y-39687500D03*
X239712500Y-39687500D03*
X237172500Y-39687500D03*
X234632500Y-39687500D03*
X78422500Y-37147500D03*
X75882500Y-37147500D03*
X73342500Y-37147500D03*
X70802500Y-37147500D03*
X68262500Y-37147500D03*
X65722500Y-37147500D03*
X63182500Y-37147500D03*
X78422500Y-39687500D03*
X75882500Y-39687500D03*
X73342500Y-39687500D03*
X70802500Y-39687500D03*
X68262500Y-39687500D03*
X65722500Y-39687500D03*
X63182500Y-39687500D03*
X147002500Y-37147500D03*
X144462500Y-37147500D03*
X141922500Y-37147500D03*
X139382500Y-37147500D03*
X136842500Y-37147500D03*
X134302500Y-37147500D03*
X131762500Y-37147500D03*
X147002500Y-39687500D03*
X144462500Y-39687500D03*
X141922500Y-39687500D03*
X139382500Y-39687500D03*
X136842500Y-39687500D03*
X134302500Y-39687500D03*
X131762500Y-39687500D03*
X284162500Y-37147500D03*
X281622500Y-37147500D03*
X279082500Y-37147500D03*
X276542500Y-37147500D03*
X274002500Y-37147500D03*
X271462500Y-37147500D03*
X268922500Y-37147500D03*
X284162500Y-39687500D03*
X281622500Y-39687500D03*
X279082500Y-39687500D03*
X276542500Y-39687500D03*
X274002500Y-39687500D03*
X271462500Y-39687500D03*
X268922500Y-39687500D03*
X61277500Y-20637500D03*
X58737500Y-20637500D03*
X56197500Y-20637500D03*
X53657500Y-20637500D03*
X51117500Y-20637500D03*
X48577500Y-20637500D03*
X46037500Y-20637500D03*
X61277500Y-23177500D03*
X58737500Y-23177500D03*
X56197500Y-23177500D03*
X53657500Y-23177500D03*
X51117500Y-23177500D03*
X48577500Y-23177500D03*
X46037500Y-23177500D03*
X129857500Y-20637500D03*
X127317500Y-20637500D03*
X124777500Y-20637500D03*
X122237500Y-20637500D03*
X119697500Y-20637500D03*
X117157500Y-20637500D03*
X114617500Y-20637500D03*
X129857500Y-23177500D03*
X127317500Y-23177500D03*
X124777500Y-23177500D03*
X122237500Y-23177500D03*
X119697500Y-23177500D03*
X117157500Y-23177500D03*
X114617500Y-23177500D03*
X198437500Y-20637500D03*
X195897500Y-20637500D03*
X193357500Y-20637500D03*
X190817500Y-20637500D03*
X188277500Y-20637500D03*
X185737500Y-20637500D03*
X183197500Y-20637500D03*
X198437500Y-23177500D03*
X195897500Y-23177500D03*
X193357500Y-23177500D03*
X190817500Y-23177500D03*
X188277500Y-23177500D03*
X185737500Y-23177500D03*
X183197500Y-23177500D03*
X267017500Y-20637500D03*
X264477500Y-20637500D03*
X261937500Y-20637500D03*
X259397500Y-20637500D03*
X256857500Y-20637500D03*
X254317500Y-20637500D03*
X251777500Y-20637500D03*
X267017500Y-23177500D03*
X264477500Y-23177500D03*
X261937500Y-23177500D03*
X259397500Y-23177500D03*
X256857500Y-23177500D03*
X254317500Y-23177500D03*
X251777500Y-23177500D03*
X164147500Y-20637500D03*
X161607500Y-20637500D03*
X159067500Y-20637500D03*
X156527500Y-20637500D03*
X153987500Y-20637500D03*
X151447500Y-20637500D03*
X148907500Y-20637500D03*
X164147500Y-23177500D03*
X161607500Y-23177500D03*
X159067500Y-23177500D03*
X156527500Y-23177500D03*
X153987500Y-23177500D03*
X151447500Y-23177500D03*
X148907500Y-23177500D03*
X232727500Y-20637500D03*
X230187500Y-20637500D03*
X227647500Y-20637500D03*
X225107500Y-20637500D03*
X222567500Y-20637500D03*
X220027500Y-20637500D03*
X217487500Y-20637500D03*
X232727500Y-23177500D03*
X230187500Y-23177500D03*
X227647500Y-23177500D03*
X225107500Y-23177500D03*
X222567500Y-23177500D03*
X220027500Y-23177500D03*
X217487500Y-23177500D03*
X301307500Y-20637500D03*
X298767500Y-20637500D03*
X296227500Y-20637500D03*
X293687500Y-20637500D03*
X291147500Y-20637500D03*
X288607500Y-20637500D03*
X286067500Y-20637500D03*
X301307500Y-23177500D03*
X298767500Y-23177500D03*
X296227500Y-23177500D03*
X293687500Y-23177500D03*
X291147500Y-23177500D03*
X288607500Y-23177500D03*
X286067500Y-23177500D03*
D16*
X299402500Y-227310000D03*
X299402500Y-224810000D03*
X263842500Y-227310000D03*
X263842500Y-224810000D03*
X260667500Y-227310000D03*
X260667500Y-224810000D03*
X225107500Y-227310000D03*
X225107500Y-224810000D03*
X221932500Y-227310000D03*
X221932500Y-224810000D03*
X186372500Y-227310000D03*
X186372500Y-224810000D03*
X183197500Y-227310000D03*
X183197500Y-224810000D03*
X147637500Y-227310000D03*
X147637500Y-224810000D03*
X144462500Y-227310000D03*
X144462500Y-224810000D03*
X108902500Y-227310000D03*
X108902500Y-224810000D03*
X105727500Y-227310000D03*
X105727500Y-224810000D03*
X70167500Y-227310000D03*
X70167500Y-224810000D03*
X66992500Y-227310000D03*
X66992500Y-224810000D03*
X31432500Y-227310000D03*
X31432500Y-224810000D03*
D15*
X41592500Y-240665000D03*
X41592500Y-243205000D03*
X41592500Y-245745000D03*
X41592500Y-248285000D03*
X41592500Y-250825000D03*
X41592500Y-253365000D03*
X41592500Y-255905000D03*
X41592500Y-260985000D03*
X41592500Y-263525000D03*
X41592500Y-266065000D03*
X41592500Y-268605000D03*
X41592500Y-258445000D03*
X56832500Y-258445000D03*
X56832500Y-268605000D03*
X56832500Y-266065000D03*
X56832500Y-263525000D03*
X56832500Y-260985000D03*
X56832500Y-255905000D03*
X56832500Y-253365000D03*
X56832500Y-250825000D03*
X56832500Y-248285000D03*
X56832500Y-245745000D03*
X56832500Y-243205000D03*
X56832500Y-240665000D03*
D14*
X255905000Y-257175000D03*
X258445000Y-257175000D03*
X255905000Y-259715000D03*
X258445000Y-259715000D03*
X255905000Y-262255000D03*
X258445000Y-262255000D03*
X207670400Y-262416925D03*
X204901800Y-262416925D03*
X202133200Y-262416925D03*
X199364600Y-262416925D03*
X209054700Y-259572125D03*
X206286100Y-259572125D03*
X203517500Y-259572125D03*
X200748900Y-259572125D03*
D17*
X197980300Y-259572125D03*
D13*
X216141300Y-262416925D03*
X191147700Y-262416925D03*
X216014300Y-254415925D03*
X191020700Y-254415925D03*
D17*
X209054700Y-252815725D03*
D14*
X206286100Y-252815725D03*
X203517500Y-252815725D03*
X200748900Y-252815725D03*
X197980300Y-252815725D03*
X207670400Y-255660525D03*
X204901800Y-255660525D03*
X202133200Y-255660525D03*
X199364600Y-255660525D03*
D15*
X31432500Y-212090000D03*
X31432500Y-222250000D03*
X31432500Y-219710000D03*
X31432500Y-217170000D03*
X31432500Y-214630000D03*
X31432500Y-209550000D03*
X31432500Y-207010000D03*
X31432500Y-204470000D03*
X31432500Y-201930000D03*
X31432500Y-199390000D03*
X66992500Y-212090000D03*
X66992500Y-222250000D03*
X66992500Y-219710000D03*
X66992500Y-217170000D03*
X66992500Y-214630000D03*
X66992500Y-209550000D03*
X66992500Y-207010000D03*
X66992500Y-204470000D03*
X66992500Y-201930000D03*
X66992500Y-199390000D03*
X70167500Y-212090000D03*
X70167500Y-222250000D03*
X70167500Y-219710000D03*
X70167500Y-217170000D03*
X70167500Y-214630000D03*
X70167500Y-209550000D03*
X70167500Y-207010000D03*
X70167500Y-204470000D03*
X70167500Y-201930000D03*
X70167500Y-199390000D03*
X105727500Y-212090000D03*
X105727500Y-222250000D03*
X105727500Y-219710000D03*
X105727500Y-217170000D03*
X105727500Y-214630000D03*
X105727500Y-209550000D03*
X105727500Y-207010000D03*
X105727500Y-204470000D03*
X105727500Y-201930000D03*
X105727500Y-199390000D03*
X108902500Y-212090000D03*
X108902500Y-222250000D03*
X108902500Y-219710000D03*
X108902500Y-217170000D03*
X108902500Y-214630000D03*
X108902500Y-209550000D03*
X108902500Y-207010000D03*
X108902500Y-204470000D03*
X108902500Y-201930000D03*
X108902500Y-199390000D03*
X144462500Y-212090000D03*
X144462500Y-222250000D03*
X144462500Y-219710000D03*
X144462500Y-217170000D03*
X144462500Y-214630000D03*
X144462500Y-209550000D03*
X144462500Y-207010000D03*
X144462500Y-204470000D03*
X144462500Y-201930000D03*
X144462500Y-199390000D03*
X147637500Y-212090000D03*
X147637500Y-222250000D03*
X147637500Y-219710000D03*
X147637500Y-217170000D03*
X147637500Y-214630000D03*
X147637500Y-209550000D03*
X147637500Y-207010000D03*
X147637500Y-204470000D03*
X147637500Y-201930000D03*
X147637500Y-199390000D03*
X183197500Y-212090000D03*
X183197500Y-222250000D03*
X183197500Y-219710000D03*
X183197500Y-217170000D03*
X183197500Y-214630000D03*
X183197500Y-209550000D03*
X183197500Y-207010000D03*
X183197500Y-204470000D03*
X183197500Y-201930000D03*
X183197500Y-199390000D03*
X186372500Y-212090000D03*
X186372500Y-222250000D03*
X186372500Y-219710000D03*
X186372500Y-217170000D03*
X186372500Y-214630000D03*
X186372500Y-209550000D03*
X186372500Y-207010000D03*
X186372500Y-204470000D03*
X186372500Y-201930000D03*
X186372500Y-199390000D03*
X221932500Y-212090000D03*
X221932500Y-222250000D03*
X221932500Y-219710000D03*
X221932500Y-217170000D03*
X221932500Y-214630000D03*
X221932500Y-209550000D03*
X221932500Y-207010000D03*
X221932500Y-204470000D03*
X221932500Y-201930000D03*
X221932500Y-199390000D03*
X225107500Y-212090000D03*
X225107500Y-222250000D03*
X225107500Y-219710000D03*
X225107500Y-217170000D03*
X225107500Y-214630000D03*
X225107500Y-209550000D03*
X225107500Y-207010000D03*
X225107500Y-204470000D03*
X225107500Y-201930000D03*
X225107500Y-199390000D03*
X260667500Y-212090000D03*
X260667500Y-222250000D03*
X260667500Y-219710000D03*
X260667500Y-217170000D03*
X260667500Y-214630000D03*
X260667500Y-209550000D03*
X260667500Y-207010000D03*
X260667500Y-204470000D03*
X260667500Y-201930000D03*
X260667500Y-199390000D03*
X263842500Y-212090000D03*
X263842500Y-222250000D03*
X263842500Y-219710000D03*
X263842500Y-217170000D03*
X263842500Y-214630000D03*
X263842500Y-209550000D03*
X263842500Y-207010000D03*
X263842500Y-204470000D03*
X263842500Y-201930000D03*
X263842500Y-199390000D03*
X299402500Y-212090000D03*
X299402500Y-222250000D03*
X299402500Y-219710000D03*
X299402500Y-217170000D03*
X299402500Y-214630000D03*
X299402500Y-209550000D03*
X299402500Y-207010000D03*
X299402500Y-204470000D03*
X299402500Y-201930000D03*
X299402500Y-199390000D03*
D16*
X61912500Y-261282500D03*
X61912500Y-258782500D03*
X100647500Y-261282500D03*
X100647500Y-258782500D03*
X178117500Y-261282500D03*
X178117500Y-258782500D03*
X255587500Y-265767500D03*
X255587500Y-268267500D03*
D18*
X276860000Y-21590000D03*
X30480000Y-21590000D03*
X299720000Y-265430000D03*
X30480000Y-265430000D03*
D19*
X118745000Y-237490000D03*
X38735000Y-237490000D03*
X154940000Y-237490000D03*
X232410000Y-237490000D03*
X77470000Y-237490000D03*
X182562500Y-237490000D03*
X221297500Y-237490000D03*
X298767500Y-237490000D03*
X260032500Y-237490000D03*
X66357500Y-237490000D03*
X105092500Y-237490000D03*
X143827500Y-237490000D03*
D20*
X61912500Y-252095000D03*
D21*
X36830000Y-217170000D03*
X38100000Y-214630000D03*
X48895000Y-212090000D03*
X164782500Y-42862500D03*
X46672500Y-45402500D03*
X50165000Y-209550000D03*
X166052500Y-44132500D03*
X45402500Y-44132500D03*
X62865000Y-166370000D03*
X40640000Y-207010000D03*
X39370000Y-167640000D03*
X36195000Y-166370000D03*
X64135000Y-167640000D03*
X41910000Y-204470000D03*
X199072500Y-80010000D03*
X53657500Y-82550000D03*
X52705000Y-201930000D03*
X53975000Y-199390000D03*
X200342500Y-81280000D03*
X52387500Y-81280000D03*
X31432500Y-34607500D03*
X38100000Y-194310000D03*
X44767500Y-32067500D03*
X39370000Y-191770000D03*
X30162500Y-33337500D03*
X46037500Y-33337500D03*
X51435000Y-189230000D03*
X181927500Y-62230000D03*
X49847500Y-64770000D03*
X183197500Y-63500000D03*
X48577500Y-63500000D03*
X50165000Y-186690000D03*
X39370000Y-162560000D03*
X40640000Y-184150000D03*
X80645000Y-162560000D03*
X41910000Y-181610000D03*
X81915000Y-163830000D03*
X40640000Y-163830000D03*
X53975000Y-179070000D03*
X216217500Y-97790000D03*
X54927500Y-100330000D03*
X55245000Y-176530000D03*
X217487500Y-99060000D03*
X53657500Y-99060000D03*
X280670000Y-170180000D03*
X61595000Y-170180000D03*
X60325000Y-175260000D03*
X62865000Y-171450000D03*
X61595000Y-177800000D03*
X281940000Y-168910000D03*
X46990000Y-180340000D03*
X48260000Y-151130000D03*
X149860000Y-151130000D03*
X46990000Y-152400000D03*
X48260000Y-182880000D03*
X148590000Y-149860000D03*
X251777500Y-134620000D03*
X58737500Y-134620000D03*
X56515000Y-185420000D03*
X60007500Y-135890000D03*
X57785000Y-187960000D03*
X250507500Y-133350000D03*
X43180000Y-190500000D03*
X113030000Y-158750000D03*
X44450000Y-158750000D03*
X43180000Y-157480000D03*
X44450000Y-193040000D03*
X111760000Y-157480000D03*
X268922500Y-152400000D03*
X59055000Y-152400000D03*
X57785000Y-198120000D03*
X59055000Y-200660000D03*
X267652500Y-151130000D03*
X60325000Y-153670000D03*
X133985000Y-157480000D03*
X44450000Y-203200000D03*
X45720000Y-156210000D03*
X46990000Y-157480000D03*
X45720000Y-205740000D03*
X132715000Y-156210000D03*
X234632500Y-116840000D03*
X57467500Y-116840000D03*
X53975000Y-208280000D03*
X58737500Y-118110000D03*
X233362500Y-115570000D03*
X55245000Y-210820000D03*
X41910000Y-213360000D03*
X98425000Y-162560000D03*
X41592500Y-161290000D03*
X43180000Y-215900000D03*
X97155000Y-161290000D03*
X43180000Y-162560000D03*
D20*
X44132500Y-222250000D03*
X44132500Y-258445000D03*
X46672500Y-224790000D03*
X46672500Y-255905000D03*
X49212500Y-227330000D03*
X49212500Y-253365000D03*
X51752500Y-250825000D03*
X51752500Y-229870000D03*
X54292500Y-233680000D03*
X54292500Y-248285000D03*
X100647500Y-252095000D03*
D21*
X32702500Y-147320000D03*
X75565000Y-217170000D03*
X74295000Y-149860000D03*
X76835000Y-214630000D03*
X31432500Y-148590000D03*
X75565000Y-148590000D03*
X167322500Y-95250000D03*
X89217500Y-97790000D03*
X87630000Y-212090000D03*
X88900000Y-209550000D03*
X87947500Y-96520000D03*
X168592500Y-96520000D03*
X66992500Y-120650000D03*
X79375000Y-207010000D03*
X76835000Y-123190000D03*
X80645000Y-204470000D03*
X78105000Y-121920000D03*
X65722500Y-121920000D03*
X193992500Y-90170000D03*
X197167500Y-52070000D03*
X201612500Y-49530000D03*
X201612500Y-42862500D03*
X91440000Y-201930000D03*
X94297500Y-92710000D03*
X195262500Y-91440000D03*
X195897500Y-50800000D03*
X202882500Y-50800000D03*
X92710000Y-199390000D03*
X93027500Y-91440000D03*
X48577500Y-130810000D03*
X76835000Y-194310000D03*
X75565000Y-133350000D03*
X78105000Y-191770000D03*
X76835000Y-132080000D03*
X47307500Y-132080000D03*
X184467500Y-102870000D03*
X90170000Y-189230000D03*
X93027500Y-105410000D03*
X88900000Y-186690000D03*
X91757500Y-104140000D03*
X185737500Y-104140000D03*
X81597500Y-110490000D03*
X77152500Y-113030000D03*
X79375000Y-184150000D03*
X75882500Y-111760000D03*
X80645000Y-181610000D03*
X82867500Y-111760000D03*
X218757500Y-143510000D03*
X92710000Y-179070000D03*
X93980000Y-144780000D03*
X92710000Y-143510000D03*
X220027500Y-144780000D03*
X93980000Y-176530000D03*
X99060000Y-175260000D03*
X288607500Y-91440000D03*
X108902500Y-92710000D03*
X100330000Y-177800000D03*
X287337500Y-90170000D03*
X107632500Y-93980000D03*
X86995000Y-132080000D03*
X85725000Y-180340000D03*
X151447500Y-132080000D03*
X86995000Y-182880000D03*
X152717500Y-130759202D03*
X88265000Y-133350000D03*
X254000000Y-149860000D03*
X95250000Y-185420000D03*
X95885000Y-148590000D03*
X255270000Y-148590000D03*
X96520000Y-187960000D03*
X97155000Y-149860000D03*
X115570000Y-114300000D03*
X81915000Y-190500000D03*
X83185000Y-114300000D03*
X114300000Y-113030000D03*
X83185000Y-193040000D03*
X84455000Y-115570000D03*
X96520000Y-198120000D03*
X106362500Y-135940798D03*
X270192500Y-135890000D03*
X107632500Y-134620000D03*
X271462500Y-134620000D03*
X97790000Y-200660000D03*
X84455000Y-121920000D03*
X83185000Y-203200000D03*
X135572500Y-121920000D03*
X136842500Y-123190000D03*
X84455000Y-205740000D03*
X85725000Y-123190000D03*
X105092500Y-163830000D03*
X105092500Y-86360000D03*
X237172500Y-86360000D03*
X94615000Y-162560000D03*
X92710000Y-208280000D03*
X93980000Y-210820000D03*
X93980000Y-163830000D03*
X235902500Y-85090000D03*
X103822500Y-162560000D03*
X106362500Y-87630000D03*
X100012500Y-167640000D03*
X81915000Y-167640000D03*
X80645000Y-213360000D03*
X81915000Y-215900000D03*
X98742500Y-166370000D03*
X80645000Y-168910000D03*
D20*
X82867500Y-258445000D03*
X82867500Y-222250000D03*
X85407500Y-224790000D03*
X85407500Y-255905000D03*
X87947500Y-227330000D03*
X87947500Y-253365000D03*
X90487500Y-229870000D03*
X90487500Y-250825000D03*
X93027500Y-233680000D03*
X93027500Y-248285000D03*
X80327500Y-226060000D03*
D21*
X114300000Y-217170000D03*
X113030000Y-166370000D03*
X35242500Y-163830000D03*
X114300000Y-165100000D03*
X33972500Y-165100000D03*
X115570000Y-214630000D03*
X127317500Y-52070000D03*
X169862500Y-49530000D03*
X126365000Y-212090000D03*
X171132500Y-50800000D03*
X127635000Y-209550000D03*
X126047500Y-50800000D03*
X115570000Y-130810000D03*
X69532500Y-128270000D03*
X118110000Y-207010000D03*
X116840000Y-129540000D03*
X68262500Y-129540000D03*
X119380000Y-204470000D03*
X131445000Y-77470000D03*
X130175000Y-201930000D03*
X204152500Y-74930000D03*
X131445000Y-199390000D03*
X130175000Y-76200000D03*
X205422500Y-76200000D03*
X115570000Y-194310000D03*
X52387500Y-146050000D03*
X114300000Y-148590000D03*
X116840000Y-191770000D03*
X115570000Y-147320000D03*
X51117500Y-147320000D03*
X128905000Y-189230000D03*
X128587500Y-59690000D03*
X187007500Y-57150000D03*
X127317500Y-58420000D03*
X188277500Y-58420000D03*
X127635000Y-186690000D03*
X86677500Y-110490000D03*
X118110000Y-184150000D03*
X116840000Y-113030000D03*
X118110000Y-111760000D03*
X85407500Y-111760000D03*
X119380000Y-181610000D03*
X221297500Y-92710000D03*
X131445000Y-179070000D03*
X132715000Y-95250000D03*
X222567500Y-93980000D03*
X131445000Y-93980000D03*
X132715000Y-176530000D03*
X287286702Y-165100000D03*
X137795000Y-175260000D03*
X139065000Y-165100000D03*
X139065000Y-177800000D03*
X140335000Y-166370000D03*
X286702500Y-163830000D03*
X124777500Y-72390000D03*
X153987500Y-73660000D03*
X124460000Y-180340000D03*
X152717500Y-72390000D03*
X126047500Y-73660000D03*
X125730000Y-182880000D03*
X136525000Y-129540000D03*
X256857500Y-129540000D03*
X133985000Y-185420000D03*
X255587500Y-128270000D03*
X137795000Y-130810000D03*
X135255000Y-187960000D03*
X120650000Y-190500000D03*
X121920000Y-193040000D03*
X137795000Y-147320000D03*
X274002500Y-147320000D03*
X135255000Y-198120000D03*
X136525000Y-200660000D03*
X272732500Y-146050000D03*
X139065000Y-148590000D03*
X120967500Y-112077500D03*
X136842500Y-112077500D03*
X121920000Y-203200000D03*
X123190000Y-205740000D03*
X122237500Y-113347500D03*
X138112500Y-110807500D03*
X239712500Y-114300000D03*
X138112500Y-114300000D03*
X131445000Y-208280000D03*
X238442500Y-113030000D03*
X139382500Y-115570000D03*
X132715000Y-210820000D03*
X119380000Y-213360000D03*
X102552500Y-167640000D03*
X120015000Y-167640000D03*
X120650000Y-215900000D03*
X103822500Y-166370000D03*
X119380000Y-168910000D03*
D20*
X111442500Y-245745000D03*
X113982500Y-243205000D03*
X116522500Y-240665000D03*
X116522500Y-227330000D03*
X95567500Y-231140000D03*
X95567500Y-239395000D03*
X98107500Y-233680000D03*
X98107500Y-241935000D03*
X178117500Y-252095000D03*
D21*
X151765000Y-146050000D03*
X153035000Y-217170000D03*
X37782500Y-143510000D03*
X154305000Y-214630000D03*
X153035000Y-144780000D03*
X36512500Y-144780000D03*
X165100000Y-212090000D03*
X167005000Y-57150000D03*
X172402500Y-54610000D03*
X166370000Y-209550000D03*
X173672500Y-55880000D03*
X165735000Y-55880000D03*
X72072500Y-119380000D03*
X156845000Y-207010000D03*
X154305000Y-121920000D03*
X158115000Y-204470000D03*
X155575000Y-120650000D03*
X70802500Y-120650000D03*
X168910000Y-201930000D03*
X171450000Y-62230000D03*
X206692500Y-59690000D03*
X170180000Y-199390000D03*
X207962500Y-60960000D03*
X170180000Y-60960000D03*
X54927500Y-77470000D03*
X154305000Y-194310000D03*
X153987500Y-80010000D03*
X53657500Y-78740000D03*
X155575000Y-191770000D03*
X152717500Y-78740000D03*
X167640000Y-189230000D03*
X168910000Y-113030000D03*
X189547500Y-110490000D03*
X189547500Y-26352500D03*
X166370000Y-186690000D03*
X190817500Y-111760000D03*
X167640000Y-111760000D03*
X156845000Y-184150000D03*
X89217500Y-88900000D03*
X155575000Y-88900000D03*
X87947500Y-90170000D03*
X158115000Y-181610000D03*
X156845000Y-90170000D03*
X170180000Y-179070000D03*
X223837500Y-63500000D03*
X172720000Y-66040000D03*
X171450000Y-64770000D03*
X171450000Y-176530000D03*
X225107500Y-64770000D03*
X177800000Y-151130000D03*
X224790000Y-151130000D03*
X176530000Y-175260000D03*
X293687500Y-93980000D03*
X224790000Y-93980000D03*
X177800000Y-177800000D03*
X226060000Y-95250000D03*
X292417500Y-92710000D03*
X223520000Y-149860000D03*
X179070000Y-152400000D03*
X163195000Y-180340000D03*
X164465000Y-72390000D03*
X156527500Y-72339202D03*
X164465000Y-182880000D03*
X158115000Y-73660000D03*
X163195000Y-73660000D03*
X172720000Y-185420000D03*
X259397500Y-82550000D03*
X173990000Y-82550000D03*
X175260000Y-83820000D03*
X258127500Y-81280000D03*
X173990000Y-187960000D03*
X159385000Y-190500000D03*
X122237500Y-68580000D03*
X159385000Y-68580000D03*
X160655000Y-193040000D03*
X158115000Y-69850000D03*
X123507500Y-67310000D03*
X175260000Y-96520000D03*
X211772500Y-96520000D03*
X173990000Y-198120000D03*
X276542500Y-76200000D03*
X211772500Y-76200000D03*
X175260000Y-200660000D03*
X176530000Y-97790000D03*
X210502500Y-95250000D03*
X210502500Y-74930000D03*
X275272500Y-74930000D03*
X160655000Y-203200000D03*
X139382500Y-74930000D03*
X163195000Y-74930000D03*
X140652500Y-73660000D03*
X161925000Y-205740000D03*
X161925000Y-73660000D03*
X172720000Y-73660000D03*
X170180000Y-208280000D03*
X242252500Y-73660000D03*
X171450000Y-210820000D03*
X173990000Y-74930000D03*
X240982500Y-72390000D03*
X158115000Y-213360000D03*
X105092500Y-85090000D03*
X158115000Y-85090000D03*
X159385000Y-215900000D03*
X106362500Y-83820000D03*
X156845000Y-83820000D03*
D20*
X160337500Y-222250000D03*
X160337500Y-258445000D03*
X162877500Y-224790000D03*
X162877500Y-255905000D03*
X165417500Y-227330000D03*
X165417500Y-253365000D03*
X167957500Y-229870000D03*
X167957500Y-250825000D03*
X170497500Y-233680000D03*
X170497500Y-248285000D03*
X157797500Y-226060000D03*
D21*
X191770000Y-217170000D03*
X40322500Y-158750000D03*
X190500000Y-161290000D03*
X193040000Y-214630000D03*
X191770000Y-160020000D03*
X39052500Y-160020000D03*
X203835000Y-212090000D03*
X206375000Y-80010000D03*
X177482500Y-77470000D03*
X205105000Y-209550000D03*
X205105000Y-78740000D03*
X176212500Y-78740000D03*
X74612500Y-123190000D03*
X195580000Y-207010000D03*
X193040000Y-123190000D03*
X73342500Y-124460000D03*
X196850000Y-204470000D03*
X194310000Y-124460000D03*
X207645000Y-201930000D03*
X208915000Y-199390000D03*
X193040000Y-194310000D03*
X191770000Y-143510000D03*
X57467500Y-140970000D03*
X194310000Y-191770000D03*
X193040000Y-142240000D03*
X56197500Y-142240000D03*
X206375000Y-189230000D03*
X194627500Y-54610000D03*
X207962500Y-57150000D03*
X193357500Y-55880000D03*
X209232500Y-55880000D03*
X205105000Y-186690000D03*
X194310000Y-107950000D03*
X195580000Y-184150000D03*
X89166702Y-105410000D03*
X195580000Y-106680000D03*
X90487500Y-106680000D03*
X196850000Y-181610000D03*
X208915000Y-179070000D03*
X226377500Y-87630000D03*
X210185000Y-90170000D03*
X210185000Y-176530000D03*
X208915000Y-88900000D03*
X227647500Y-88900000D03*
X296227500Y-160020000D03*
X216535000Y-160020000D03*
X215265000Y-175260000D03*
X216535000Y-177800000D03*
X294957500Y-158750000D03*
X217805000Y-161290000D03*
X159067500Y-33972500D03*
X204152500Y-33972500D03*
X201930000Y-180340000D03*
X202882500Y-35242500D03*
X203200000Y-182880000D03*
X160337500Y-32702500D03*
X211455000Y-185420000D03*
X261937500Y-124460000D03*
X212725000Y-124460000D03*
X212725000Y-187960000D03*
X260667500Y-123190000D03*
X213995000Y-123190000D03*
X197802500Y-71120000D03*
X124777500Y-71120000D03*
X198120000Y-190500000D03*
X126047500Y-69850000D03*
X199390000Y-193040000D03*
X196532500Y-72390000D03*
X213995000Y-142240000D03*
X279082500Y-142240000D03*
X212725000Y-198120000D03*
X277812500Y-42862500D03*
X213995000Y-200660000D03*
X277812500Y-140970000D03*
X215265000Y-143510000D03*
X199390000Y-203200000D03*
X141922500Y-53340000D03*
X202882500Y-53340000D03*
X200660000Y-205740000D03*
X201612500Y-54610000D03*
X143192500Y-52070000D03*
X211455000Y-111760000D03*
X244792500Y-111760000D03*
X208915000Y-208280000D03*
X243522500Y-42862500D03*
X210185000Y-210820000D03*
X212725000Y-113030000D03*
X243522500Y-110490000D03*
X107632500Y-88900000D03*
X198120000Y-88900000D03*
X196850000Y-213360000D03*
X196850000Y-90170000D03*
X108902500Y-87630000D03*
X198120000Y-215900000D03*
D20*
X188595000Y-245745000D03*
X191452500Y-243205000D03*
X193992500Y-227330000D03*
X193992500Y-240665000D03*
X173037500Y-231140000D03*
X173037500Y-239395000D03*
X175577500Y-233680000D03*
X175577500Y-241935000D03*
X255587500Y-252095000D03*
D21*
X230505000Y-217170000D03*
X229235000Y-140970000D03*
X42862500Y-138430000D03*
X41592500Y-139700000D03*
X230505000Y-139700000D03*
X231775000Y-214630000D03*
X240982500Y-139700000D03*
X242570000Y-212090000D03*
X178752500Y-139700000D03*
X242252500Y-138430000D03*
X177482500Y-138430000D03*
X243840000Y-209550000D03*
X77152500Y-107950000D03*
X234315000Y-207010000D03*
X230505000Y-110490000D03*
X75882500Y-109220000D03*
X231775000Y-109220000D03*
X235585000Y-204470000D03*
X246380000Y-201930000D03*
X243522500Y-123240798D03*
X215265000Y-120650000D03*
X247650000Y-199390000D03*
X213995000Y-121920000D03*
X244792500Y-121920000D03*
X230505000Y-128270000D03*
X60007500Y-125730000D03*
X231775000Y-194310000D03*
X233045000Y-191770000D03*
X231775000Y-127000000D03*
X58737500Y-127000000D03*
X245110000Y-189230000D03*
X242252500Y-133350000D03*
X193040000Y-130810000D03*
X191770000Y-132080000D03*
X243522500Y-132080000D03*
X243840000Y-186690000D03*
X234315000Y-184150000D03*
X93027500Y-116840000D03*
X233045000Y-119380000D03*
X234315000Y-118110000D03*
X94297500Y-118110000D03*
X235585000Y-181610000D03*
X244792500Y-26987500D03*
X247650000Y-179070000D03*
X248920000Y-176530000D03*
X230187500Y-25717500D03*
X246062500Y-25717500D03*
X254000000Y-175260000D03*
X298767500Y-149860000D03*
X255270000Y-149860000D03*
X255270000Y-177800000D03*
X256540000Y-151130000D03*
X297497500Y-148590000D03*
X160655000Y-133350000D03*
X240030000Y-133350000D03*
X240665000Y-180340000D03*
X238760000Y-132080000D03*
X241935000Y-182880000D03*
X161925000Y-132080000D03*
X251460000Y-167640000D03*
X264477500Y-167640000D03*
X250190000Y-185420000D03*
X250190000Y-166370000D03*
X251460000Y-187960000D03*
X263207500Y-166370000D03*
X238442500Y-45720000D03*
X127317500Y-45720000D03*
X236855000Y-190500000D03*
X238125000Y-193040000D03*
X237172500Y-46990000D03*
X128587500Y-46990000D03*
X251460000Y-198120000D03*
X253047500Y-63500000D03*
X280352500Y-63500000D03*
X252730000Y-200660000D03*
X254317500Y-64770000D03*
X280352500Y-40957500D03*
X281622500Y-62230000D03*
X238125000Y-203200000D03*
X237490000Y-125730000D03*
X144462500Y-125730000D03*
X239395000Y-205740000D03*
X238760000Y-127000000D03*
X145732500Y-124460000D03*
X247650000Y-208280000D03*
X248920000Y-210820000D03*
X236855000Y-162560000D03*
X110172500Y-162560000D03*
X235585000Y-213360000D03*
X236855000Y-215900000D03*
X235585000Y-163830000D03*
X111442500Y-163830000D03*
D20*
X237807500Y-222250000D03*
X237807500Y-258445000D03*
X240347500Y-224790000D03*
X240347500Y-255905000D03*
X242887500Y-227330000D03*
X242887500Y-253365000D03*
X245427500Y-229870000D03*
X245427500Y-250825000D03*
X247967500Y-233680000D03*
X247967500Y-248285000D03*
X235267500Y-226060000D03*
D21*
X267970000Y-156210000D03*
X45402500Y-153670000D03*
X269240000Y-217170000D03*
X42862500Y-42862500D03*
X270510000Y-214630000D03*
X269240000Y-154940000D03*
X44132500Y-154940000D03*
X283210000Y-158750000D03*
X181610000Y-156210000D03*
X281305000Y-212090000D03*
X180022500Y-42862500D03*
X282575000Y-209550000D03*
X180340000Y-157480000D03*
X284480000Y-157480000D03*
X77152500Y-42862500D03*
X271462500Y-120650000D03*
X79692500Y-118110000D03*
X273050000Y-207010000D03*
X78422500Y-119380000D03*
X272732500Y-119380000D03*
X274320000Y-204470000D03*
X285115000Y-201930000D03*
X216217500Y-95250000D03*
X292417500Y-97790000D03*
X214312500Y-42862500D03*
X293687500Y-96520000D03*
X214630000Y-96520000D03*
X286385000Y-199390000D03*
X270510000Y-194310000D03*
X62547500Y-135890000D03*
X270192500Y-138430000D03*
X61277500Y-137160000D03*
X271462500Y-137160000D03*
X271780000Y-191770000D03*
X283845000Y-189230000D03*
X199072500Y-67310000D03*
X288607500Y-69850000D03*
X197802500Y-68580000D03*
X289877500Y-68580000D03*
X282575000Y-186690000D03*
X273050000Y-184150000D03*
X96837500Y-100330000D03*
X275272500Y-102870000D03*
X274320000Y-181610000D03*
X95567500Y-101600000D03*
X276542500Y-101600000D03*
X293687500Y-107950000D03*
X286385000Y-179070000D03*
X233362500Y-105410000D03*
X232092500Y-106680000D03*
X294957500Y-106680000D03*
X287655000Y-176530000D03*
X292735000Y-175260000D03*
X294005000Y-177800000D03*
X282892500Y-28892500D03*
X164147500Y-28892500D03*
X279400000Y-180340000D03*
X165417500Y-27622500D03*
X280670000Y-182880000D03*
X281622500Y-30162500D03*
X297497500Y-167640000D03*
X266065000Y-167640000D03*
X288925000Y-185420000D03*
X267335000Y-166370000D03*
X290195000Y-187960000D03*
X298450000Y-169227500D03*
X129857500Y-66040000D03*
X275590000Y-190500000D03*
X281622500Y-66040000D03*
X131127500Y-64770000D03*
X280352500Y-67310000D03*
X276860000Y-193040000D03*
X300037500Y-39687500D03*
X290195000Y-198120000D03*
X298767500Y-40957500D03*
X291465000Y-200660000D03*
X282892500Y-48260000D03*
X147002500Y-48260000D03*
X276860000Y-203200000D03*
X148272500Y-46990000D03*
X145732500Y-42862500D03*
X281622500Y-49530000D03*
X278130000Y-205740000D03*
X286385000Y-208280000D03*
X297815000Y-162560000D03*
X250190000Y-162560000D03*
X248602500Y-42862500D03*
X251460000Y-161290000D03*
X287655000Y-210820000D03*
X296545000Y-161290000D03*
X274320000Y-213360000D03*
X112712500Y-83820000D03*
X277812500Y-83820000D03*
X111442500Y-42862500D03*
X113982500Y-82550000D03*
X275590000Y-215900000D03*
X276542500Y-85090000D03*
D20*
X266382500Y-245745000D03*
X268922500Y-243205000D03*
X271462500Y-227330000D03*
X271462500Y-240665000D03*
X250507500Y-231140000D03*
X250507500Y-239395000D03*
X253047500Y-233680000D03*
X253047500Y-241935000D03*
X130175000Y-264795000D03*
X132715000Y-267335000D03*
X122555000Y-266065000D03*
X125095000Y-268605000D03*
X131445000Y-264795000D03*
X170497500Y-260985000D03*
X249237500Y-259715000D03*
X126365000Y-266065000D03*
X42862500Y-249555000D03*
X127635000Y-249555000D03*
X253365000Y-247015000D03*
X257175000Y-254635000D03*
X188277500Y-254635000D03*
X218757500Y-254635000D03*
X218757500Y-250825000D03*
X188277500Y-250825000D03*
X128905000Y-245745000D03*
X139065000Y-258445000D03*
X139065000Y-244475000D03*
X156845000Y-252095000D03*
X118745000Y-253365000D03*
X200660000Y-254317500D03*
X116205000Y-250825000D03*
X203517500Y-249555000D03*
D19*
X295592500Y-254952500D03*
X294005000Y-256540000D03*
X297180000Y-253365000D03*
X272732500Y-259080000D03*
X272732500Y-261302500D03*
X271780000Y-266382500D03*
X271780000Y-264160000D03*
X271780000Y-268287500D03*
X290512500Y-249872500D03*
X287972500Y-249872500D03*
X290512500Y-247332500D03*
X283210000Y-249237500D03*
X283210000Y-245110000D03*
X279717500Y-251142500D03*
X279717500Y-248920000D03*
D22*
X265710000Y-256540000D02*
X262890000Y-256540000D01*
D23*
X263207500Y-240665000D02*
X260032500Y-237490000D01*
X263207500Y-256222500D02*
X263207500Y-240665000D01*
D22*
X262890000Y-256540000D02*
X263207500Y-256222500D01*
D23*
X118745000Y-237490000D02*
X118745000Y-243840000D01*
D24*
X41592500Y-268605000D02*
X38735000Y-268605000D01*
D23*
X38735000Y-237490000D02*
X38735000Y-268605000D01*
D24*
X157797500Y-268605000D02*
X154940000Y-268605000D01*
D23*
X154940000Y-268605000D02*
X154940000Y-237490000D01*
D24*
X235267500Y-268605000D02*
X232410000Y-268605000D01*
D23*
X232410000Y-268605000D02*
X232410000Y-237490000D01*
D24*
X80327500Y-268605000D02*
X77470000Y-268605000D01*
D23*
X77470000Y-244792500D02*
X77470000Y-237490000D01*
X77470000Y-268605000D02*
X77470000Y-244792500D01*
X182562500Y-237490000D02*
X182562500Y-231775000D01*
X221297500Y-237490000D02*
X221297500Y-231775000D01*
X298767500Y-231775000D02*
X298767500Y-237490000D01*
X260032500Y-237490000D02*
X260032500Y-231775000D01*
D24*
X296862500Y-229870000D02*
X298767500Y-231775000D01*
X295592500Y-229870000D02*
X296862500Y-229870000D01*
X298132500Y-232410000D02*
X298767500Y-231775000D01*
X295592500Y-232410000D02*
X298132500Y-232410000D01*
X256857500Y-232410000D02*
X259397500Y-232410000D01*
X259397500Y-232410000D02*
X260032500Y-231775000D01*
X256857500Y-229870000D02*
X258127500Y-229870000D01*
X258127500Y-229870000D02*
X260032500Y-231775000D01*
X101917500Y-229870000D02*
X103187500Y-229870000D01*
X101917500Y-232410000D02*
X104457500Y-232410000D01*
X219392500Y-229870000D02*
X221297500Y-231775000D01*
X218122500Y-229870000D02*
X219392500Y-229870000D01*
X220662500Y-232410000D02*
X221297500Y-231775000D01*
X218122500Y-232410000D02*
X220662500Y-232410000D01*
X179387500Y-232410000D02*
X181927500Y-232410000D01*
X181927500Y-232410000D02*
X182562500Y-231775000D01*
X179387500Y-229870000D02*
X180657500Y-229870000D01*
X180657500Y-229870000D02*
X182562500Y-231775000D01*
X140652500Y-232410000D02*
X143192500Y-232410000D01*
X140652500Y-229870000D02*
X141922500Y-229870000D01*
X63182500Y-232410000D02*
X65722500Y-232410000D01*
X63182500Y-229870000D02*
X64452500Y-229870000D01*
D23*
X66357500Y-237490000D02*
X66357500Y-231775000D01*
X105092500Y-237490000D02*
X105092500Y-231775000D01*
X143827500Y-237490000D02*
X143827500Y-231775000D01*
D24*
X103187500Y-229870000D02*
X105092500Y-231775000D01*
X104457500Y-232410000D02*
X105092500Y-231775000D01*
X143192500Y-232410000D02*
X143827500Y-231775000D01*
X141922500Y-229870000D02*
X143827500Y-231775000D01*
X65722500Y-232410000D02*
X66357500Y-231775000D01*
X64452500Y-229870000D02*
X66357500Y-231775000D01*
D25*
X61912500Y-252095000D02*
X61912500Y-226060000D01*
X61912500Y-226060000D02*
X63182500Y-224790000D01*
D22*
X36830000Y-172720000D02*
X35877500Y-171767500D01*
X38100000Y-214630000D02*
X36830000Y-213360000D01*
X36830000Y-213360000D02*
X36830000Y-172720000D01*
X28892500Y-168275000D02*
X28892500Y-39687500D01*
X28892500Y-170815000D02*
X28892500Y-168275000D01*
X29845000Y-171767500D02*
X28892500Y-170815000D01*
X35877500Y-171767500D02*
X29845000Y-171767500D01*
D25*
X66992500Y-219710000D02*
X64452500Y-217170000D01*
X64452500Y-215900000D02*
X63182500Y-214630000D01*
X64452500Y-217170000D02*
X64452500Y-215900000D01*
D22*
X45402500Y-44132500D02*
X45402500Y-45720000D01*
X45402500Y-145732500D02*
X45402500Y-45720000D01*
X49847500Y-150177500D02*
X50165000Y-150495000D01*
X48895000Y-185420000D02*
X50165000Y-184150000D01*
X50165000Y-184150000D02*
X50165000Y-172720000D01*
X50165000Y-209550000D02*
X48895000Y-208280000D01*
X48895000Y-208280000D02*
X48895000Y-185420000D01*
X47307500Y-147637500D02*
X49847500Y-150177500D01*
X50165000Y-150495000D02*
X50165000Y-172720000D01*
X47307500Y-147637500D02*
X45402500Y-145732500D01*
X166052500Y-44132500D02*
X166052500Y-39687500D01*
X36195000Y-166370000D02*
X38417500Y-168592500D01*
X64135000Y-134620000D02*
X64135000Y-167640000D01*
X63182500Y-39687500D02*
X63182500Y-133667500D01*
X63182500Y-133667500D02*
X64135000Y-134620000D01*
X39370000Y-171132500D02*
X39370000Y-169545000D01*
X39370000Y-171132500D02*
X39370000Y-171132500D01*
X38417500Y-168592500D02*
X39370000Y-169545000D01*
X39370000Y-172720000D02*
X39370000Y-171081702D01*
X40640000Y-191135000D02*
X39370000Y-189865000D01*
X39370000Y-189865000D02*
X39370000Y-172720000D01*
X41910000Y-204470000D02*
X40640000Y-203200000D01*
X40640000Y-203200000D02*
X40640000Y-191135000D01*
D25*
X64452500Y-205740000D02*
X63182500Y-204470000D01*
X64452500Y-212090000D02*
X64452500Y-205740000D01*
X66992500Y-214630000D02*
X64452500Y-212090000D01*
D22*
X52705000Y-167640000D02*
X52705000Y-172720000D01*
X53975000Y-199390000D02*
X52705000Y-198120000D01*
X52705000Y-198120000D02*
X52705000Y-172720000D01*
X53657500Y-166687500D02*
X52705000Y-167640000D01*
X200342500Y-81280000D02*
X200342500Y-39687500D01*
X52387500Y-144145000D02*
X53657500Y-145415000D01*
X52387500Y-81280000D02*
X52387500Y-144145000D01*
X53657500Y-145415000D02*
X53657500Y-166687500D01*
X30162500Y-40957500D02*
X30162500Y-169227500D01*
X38100000Y-190500000D02*
X38100000Y-172720000D01*
X39370000Y-191770000D02*
X38100000Y-190500000D01*
X46037500Y-33337500D02*
X46037500Y-23177500D01*
X30162500Y-33337500D02*
X30162500Y-35877500D01*
D26*
X30162500Y-40957500D02*
X30162500Y-35877500D01*
D22*
X38100000Y-171132500D02*
X38100000Y-172720000D01*
X37147500Y-170180000D02*
X38100000Y-171132500D01*
X31115000Y-170180000D02*
X37147500Y-170180000D01*
X30162500Y-169227500D02*
X31115000Y-170180000D01*
D25*
X64452500Y-204470000D02*
X64452500Y-193040000D01*
X65722500Y-205740000D02*
X64452500Y-204470000D01*
X64452500Y-193040000D02*
X63182500Y-191770000D01*
X65722500Y-208280000D02*
X65722500Y-205740000D01*
X66992500Y-209550000D02*
X65722500Y-208280000D01*
D22*
X48577500Y-63500000D02*
X48577500Y-65405000D01*
X183197500Y-23177500D02*
X183197500Y-63500000D01*
X49847500Y-66675000D02*
X48577500Y-65405000D01*
X49847500Y-147955000D02*
X51435000Y-149542500D01*
X51435000Y-185521598D02*
X51435000Y-172720000D01*
X50266598Y-186690000D02*
X51435000Y-185521598D01*
X50165000Y-186690000D02*
X50266598Y-186690000D01*
X51435000Y-149542500D02*
X51435000Y-172720000D01*
X49847500Y-147955000D02*
X49847500Y-66675000D01*
X80327500Y-116840000D02*
X81915000Y-118427500D01*
X41910000Y-181610000D02*
X40640000Y-180340000D01*
X40640000Y-180340000D02*
X40640000Y-172720000D01*
X40640000Y-163830000D02*
X40640000Y-172720000D01*
X81915000Y-119380000D02*
X81915000Y-163830000D01*
X80327500Y-115887500D02*
X80327500Y-23177500D01*
X80327500Y-116840000D02*
X80327500Y-115887500D01*
X81915000Y-118427500D02*
X81915000Y-119380000D01*
D25*
X63182500Y-181610000D02*
X65722500Y-184150000D01*
X65722500Y-184150000D02*
X65722500Y-203200000D01*
X65722500Y-203200000D02*
X66992500Y-204470000D01*
X66992500Y-201930000D02*
X68262500Y-200660000D01*
X66992500Y-180340000D02*
X63182500Y-176530000D01*
X68262500Y-181610000D02*
X66992500Y-180340000D01*
X68262500Y-200660000D02*
X68262500Y-181610000D01*
D22*
X54927500Y-167640000D02*
X54927500Y-102235000D01*
X53975000Y-168592500D02*
X54927500Y-167640000D01*
X53975000Y-175260000D02*
X53975000Y-172720000D01*
X55245000Y-176530000D02*
X53975000Y-175260000D01*
X53975000Y-172720000D02*
X53975000Y-168592500D01*
X217487500Y-99060000D02*
X217487500Y-23177500D01*
X53657500Y-100965000D02*
X53657500Y-99060000D01*
X54927500Y-102235000D02*
X53657500Y-100965000D01*
D25*
X31432500Y-201930000D02*
X30162500Y-200660000D01*
X31432500Y-180340000D02*
X35242500Y-176530000D01*
X30162500Y-181610000D02*
X31432500Y-180340000D01*
X30162500Y-200660000D02*
X30162500Y-181610000D01*
D22*
X286067500Y-147637500D02*
X281940000Y-151765000D01*
X286067500Y-23177500D02*
X286067500Y-147637500D01*
X61595000Y-171132500D02*
X61595000Y-170180000D01*
X60325000Y-175260000D02*
X61595000Y-173990000D01*
X61595000Y-173990000D02*
X61595000Y-172720000D01*
X61595000Y-172720000D02*
X61595000Y-171132500D01*
X280670000Y-153035000D02*
X281940000Y-151765000D01*
X280670000Y-170180000D02*
X280670000Y-153035000D01*
X48260000Y-151130000D02*
X48260000Y-172720000D01*
X148907500Y-23177500D02*
X148907500Y-43180000D01*
X148907500Y-43180000D02*
X149860000Y-44132500D01*
X46990000Y-180340000D02*
X48260000Y-179070000D01*
X48260000Y-172720000D02*
X48260000Y-179070000D01*
X149860000Y-49212500D02*
X149860000Y-151130000D01*
X149860000Y-44132500D02*
X149860000Y-49212500D01*
D25*
X31432500Y-204470000D02*
X32702500Y-203200000D01*
X32702500Y-203200000D02*
X32702500Y-184150000D01*
X32702500Y-184150000D02*
X35242500Y-181610000D01*
D22*
X251777500Y-115887500D02*
X251777500Y-134620000D01*
X251777500Y-115887500D02*
X251777500Y-23177500D01*
X58737500Y-134620000D02*
X58737500Y-136525000D01*
X60007500Y-148907500D02*
X57785000Y-151130000D01*
X57785000Y-184150000D02*
X57785000Y-172720000D01*
X56515000Y-185420000D02*
X57785000Y-184150000D01*
X57785000Y-151130000D02*
X57785000Y-172720000D01*
X60007500Y-139065000D02*
X60007500Y-148907500D01*
X60007500Y-137795000D02*
X60007500Y-139065000D01*
X58737500Y-136525000D02*
X60007500Y-137795000D01*
X44450000Y-172720000D02*
X44450000Y-160070798D01*
X44450000Y-179070000D02*
X44450000Y-172720000D01*
X44450000Y-189230000D02*
X44450000Y-180340000D01*
X43180000Y-190500000D02*
X44450000Y-189230000D01*
X44450000Y-180340000D02*
X44450000Y-179070000D01*
X44500798Y-160020000D02*
X44450000Y-160020000D01*
X44450000Y-160070798D02*
X44500798Y-160020000D01*
X113030000Y-88900000D02*
X113030000Y-158750000D01*
X44450000Y-158750000D02*
X44450000Y-160020000D01*
X115570000Y-81280000D02*
X115570000Y-86360000D01*
X114617500Y-23177500D02*
X114617500Y-80327500D01*
X114617500Y-80327500D02*
X115570000Y-81280000D01*
X115570000Y-86360000D02*
X113030000Y-88900000D01*
X44450000Y-160020000D02*
X44450000Y-160020000D01*
D25*
X31432500Y-209550000D02*
X32702500Y-208280000D01*
X32702500Y-208280000D02*
X32702500Y-205740000D01*
X32702500Y-205740000D02*
X33972500Y-204470000D01*
X33972500Y-204470000D02*
X33972500Y-193040000D01*
X33972500Y-193040000D02*
X35242500Y-191770000D01*
D22*
X268922500Y-151765000D02*
X268922500Y-152400000D01*
X59055000Y-152400000D02*
X59055000Y-172720000D01*
X59055000Y-172720000D02*
X59055000Y-196850000D01*
X57785000Y-198120000D02*
X59055000Y-196850000D01*
X268922500Y-151765000D02*
X268922500Y-39687500D01*
X131762500Y-39687500D02*
X131762500Y-62547500D01*
X45720000Y-156210000D02*
X45720000Y-172720000D01*
X44450000Y-203200000D02*
X45720000Y-201930000D01*
X45720000Y-178435000D02*
X45720000Y-172720000D01*
X45720000Y-179705000D02*
X45720000Y-178435000D01*
X45720000Y-201930000D02*
X45720000Y-179705000D01*
X133985000Y-67310000D02*
X133985000Y-157480000D01*
X133985000Y-64770000D02*
X133985000Y-67310000D01*
X131762500Y-62547500D02*
X133985000Y-64770000D01*
D25*
X31432500Y-214630000D02*
X33972500Y-212090000D01*
X33972500Y-212090000D02*
X33972500Y-205740000D01*
X33972500Y-205740000D02*
X35242500Y-204470000D01*
D22*
X57467500Y-116840000D02*
X57467500Y-139065000D01*
X234632500Y-39687500D02*
X234632500Y-116840000D01*
X57467500Y-139065000D02*
X58737500Y-140335000D01*
X56515000Y-144462500D02*
X56515000Y-172720000D01*
X53975000Y-208280000D02*
X55245000Y-207010000D01*
X55245000Y-207010000D02*
X55245000Y-184785000D01*
X55245000Y-184785000D02*
X56515000Y-183515000D01*
X56515000Y-183515000D02*
X56515000Y-172720000D01*
X58737500Y-142240000D02*
X56515000Y-144462500D01*
X58737500Y-140335000D02*
X58737500Y-142240000D01*
X43180000Y-164465000D02*
X43180000Y-172720000D01*
X43180000Y-212090000D02*
X43180000Y-203200000D01*
X41910000Y-213360000D02*
X43180000Y-212090000D01*
X43180000Y-179705000D02*
X43180000Y-172720000D01*
X43180000Y-180975000D02*
X43180000Y-179705000D01*
X43180000Y-188277500D02*
X43180000Y-180975000D01*
X41910000Y-189547500D02*
X43180000Y-188277500D01*
X41910000Y-201930000D02*
X41910000Y-189547500D01*
X43180000Y-203200000D02*
X41910000Y-201930000D01*
X41592500Y-162877500D02*
X43180000Y-164465000D01*
X97472500Y-97790000D02*
X97472500Y-39687500D01*
X98425000Y-98742500D02*
X98425000Y-162560000D01*
X97472500Y-97790000D02*
X98425000Y-98742500D01*
X41592500Y-161290000D02*
X41592500Y-162877500D01*
D25*
X31432500Y-219710000D02*
X33972500Y-217170000D01*
X33972500Y-215900000D02*
X35242500Y-214630000D01*
X33972500Y-217170000D02*
X33972500Y-215900000D01*
X44132500Y-258445000D02*
X44132500Y-222250000D01*
X46672500Y-255905000D02*
X46672500Y-224790000D01*
X49212500Y-253365000D02*
X49212500Y-227330000D01*
X51752500Y-250825000D02*
X51752500Y-229870000D01*
X54292500Y-248285000D02*
X54292500Y-233680000D01*
X100647500Y-226060000D02*
X101917500Y-224790000D01*
X100647500Y-252095000D02*
X100647500Y-226060000D01*
D22*
X75565000Y-153670000D02*
X75565000Y-172720000D01*
X76835000Y-214630000D02*
X75565000Y-213360000D01*
X75565000Y-213360000D02*
X75565000Y-172720000D01*
X75565000Y-148590000D02*
X75565000Y-153670000D01*
X31432500Y-54610000D02*
X31432500Y-39687500D01*
X31432500Y-54610000D02*
X31432500Y-148590000D01*
D25*
X103187500Y-215900000D02*
X101917500Y-214630000D01*
X103187500Y-217170000D02*
X103187500Y-215900000D01*
X105727500Y-219710000D02*
X103187500Y-217170000D01*
D22*
X89535000Y-132080000D02*
X89535000Y-134620000D01*
X88900000Y-172720000D02*
X88900000Y-135255000D01*
X87630000Y-185420000D02*
X88900000Y-184150000D01*
X88900000Y-184150000D02*
X88900000Y-172720000D01*
X88900000Y-209550000D02*
X87630000Y-208280000D01*
X87630000Y-208280000D02*
X87630000Y-185420000D01*
X87947500Y-130492500D02*
X89535000Y-132080000D01*
X87947500Y-106680000D02*
X87947500Y-96520000D01*
X168592500Y-96520000D02*
X168592500Y-39687500D01*
X87947500Y-106680000D02*
X87947500Y-130492500D01*
X89535000Y-134620000D02*
X88900000Y-135255000D01*
X65722500Y-39687500D02*
X65722500Y-121920000D01*
X79375000Y-191135000D02*
X78105000Y-189865000D01*
X78105000Y-189865000D02*
X78105000Y-172720000D01*
X80645000Y-204470000D02*
X79375000Y-203200000D01*
X79375000Y-203200000D02*
X79375000Y-191135000D01*
X78105000Y-121920000D02*
X78105000Y-172720000D01*
D25*
X103187500Y-205740000D02*
X101917500Y-204470000D01*
X105727500Y-214630000D02*
X103187500Y-212090000D01*
X103187500Y-212090000D02*
X103187500Y-205740000D01*
D26*
X201612500Y-42862500D02*
X201612500Y-38417500D01*
X201612500Y-38417500D02*
X202882500Y-37147500D01*
D22*
X93027500Y-96520000D02*
X93027500Y-101600000D01*
X202882500Y-39687500D02*
X202882500Y-50800000D01*
X195262500Y-71120000D02*
X195262500Y-88900000D01*
X195897500Y-70485000D02*
X195262500Y-71120000D01*
X195897500Y-50800000D02*
X195897500Y-70485000D01*
X93027500Y-96520000D02*
X93027500Y-91440000D01*
X91440000Y-198120000D02*
X91440000Y-172720000D01*
X92710000Y-199390000D02*
X91440000Y-198120000D01*
X91440000Y-172720000D02*
X91440000Y-138430000D01*
X195262500Y-88900000D02*
X195262500Y-91440000D01*
X95567500Y-134302500D02*
X91440000Y-138430000D01*
X95567500Y-104140000D02*
X95567500Y-134302500D01*
X93027500Y-101600000D02*
X95567500Y-104140000D01*
X48577500Y-23177500D02*
X48577500Y-46990000D01*
X76835000Y-190500000D02*
X76835000Y-172720000D01*
X78105000Y-191770000D02*
X76835000Y-190500000D01*
X76835000Y-132080000D02*
X76835000Y-172720000D01*
X47307500Y-48260000D02*
X47307500Y-132080000D01*
X48577500Y-46990000D02*
X47307500Y-48260000D01*
D25*
X103187500Y-193040000D02*
X101917500Y-191770000D01*
X105727500Y-209550000D02*
X104457500Y-208280000D01*
X104457500Y-208280000D02*
X104457500Y-205740000D01*
X104457500Y-205740000D02*
X103187500Y-204470000D01*
X103187500Y-204470000D02*
X103187500Y-193040000D01*
D22*
X91757500Y-132080000D02*
X91757500Y-135572500D01*
X90170000Y-137160000D02*
X90170000Y-172720000D01*
X88900000Y-186690000D02*
X89001598Y-186690000D01*
X89001598Y-186690000D02*
X90170000Y-185521598D01*
X90170000Y-185521598D02*
X90170000Y-172720000D01*
X185737500Y-104140000D02*
X185737500Y-23177500D01*
X91757500Y-132080000D02*
X91757500Y-104140000D01*
X91757500Y-135572500D02*
X90170000Y-137160000D01*
D25*
X104457500Y-203200000D02*
X105727500Y-204470000D01*
D22*
X79375000Y-161290000D02*
X79375000Y-172720000D01*
X80645000Y-181610000D02*
X79375000Y-180340000D01*
X79375000Y-180340000D02*
X79375000Y-172720000D01*
X75882500Y-114300000D02*
X75882500Y-119380000D01*
X75882500Y-119380000D02*
X77152500Y-120650000D01*
X77152500Y-120650000D02*
X78740000Y-120650000D01*
X78740000Y-120650000D02*
X80010000Y-121920000D01*
X80010000Y-121920000D02*
X80010000Y-124460000D01*
X80010000Y-124460000D02*
X79375000Y-125095000D01*
X79375000Y-125095000D02*
X79375000Y-161290000D01*
X75882500Y-111760000D02*
X75882500Y-114300000D01*
X82867500Y-111760000D02*
X82867500Y-23177500D01*
D25*
X101917500Y-181610000D02*
X104457500Y-184150000D01*
X104457500Y-184150000D02*
X104457500Y-203200000D01*
X105727500Y-180340000D02*
X106997500Y-181610000D01*
X101917500Y-176530000D02*
X105727500Y-180340000D01*
X106997500Y-200660000D02*
X105727500Y-201930000D01*
X106997500Y-181610000D02*
X106997500Y-200660000D01*
D22*
X220027500Y-23177500D02*
X220027500Y-144780000D01*
X92710000Y-147320000D02*
X92710000Y-151180798D01*
X92710000Y-175260000D02*
X92710000Y-172720000D01*
X93980000Y-176530000D02*
X92710000Y-175260000D01*
X92710000Y-172720000D02*
X92710000Y-151180798D01*
X92710000Y-147320000D02*
X92710000Y-143510000D01*
D25*
X70167500Y-201930000D02*
X68897500Y-200660000D01*
X70167500Y-180340000D02*
X73977500Y-176530000D01*
X68897500Y-181610000D02*
X70167500Y-180340000D01*
X68897500Y-200660000D02*
X68897500Y-181610000D01*
D22*
X108902500Y-96520000D02*
X108902500Y-92710000D01*
X101282500Y-171767500D02*
X107315000Y-171767500D01*
X99060000Y-175260000D02*
X100330000Y-173990000D01*
X100330000Y-173990000D02*
X100330000Y-172720000D01*
X101282500Y-171767500D02*
X100330000Y-172720000D01*
X108902500Y-170180000D02*
X108902500Y-164782500D01*
X107315000Y-171767500D02*
X108902500Y-170180000D01*
X108902500Y-96520000D02*
X108902500Y-164782500D01*
X288607500Y-67310000D02*
X288607500Y-23177500D01*
X287337500Y-68580000D02*
X288607500Y-67310000D01*
X287337500Y-71120000D02*
X287337500Y-68580000D01*
X288607500Y-72390000D02*
X287337500Y-71120000D01*
X288607500Y-91440000D02*
X288607500Y-72390000D01*
X151447500Y-76200000D02*
X151447500Y-132080000D01*
X86995000Y-172720000D02*
X86995000Y-179070000D01*
X85725000Y-180340000D02*
X86995000Y-179070000D01*
X86995000Y-172720000D02*
X86995000Y-132080000D01*
X151447500Y-76200000D02*
X151447500Y-23177500D01*
D25*
X71437500Y-184150000D02*
X73977500Y-181610000D01*
X71437500Y-203200000D02*
X71437500Y-184150000D01*
X70167500Y-204470000D02*
X71437500Y-203200000D01*
D22*
X254317500Y-141922500D02*
X254000000Y-142240000D01*
X254000000Y-142240000D02*
X254000000Y-149860000D01*
X255587500Y-123139202D02*
X255587500Y-123190000D01*
X254317500Y-23177500D02*
X254317500Y-62230000D01*
X254317500Y-62230000D02*
X255587500Y-63500000D01*
X255587500Y-63500000D02*
X255587500Y-123139202D01*
X255587500Y-123190000D02*
X254317500Y-124460000D01*
X254317500Y-124460000D02*
X254317500Y-141922500D01*
X96520000Y-162560000D02*
X96520000Y-172720000D01*
X95250000Y-185420000D02*
X96520000Y-184150000D01*
X96520000Y-184150000D02*
X96520000Y-172720000D01*
X95885000Y-148590000D02*
X95885000Y-161925000D01*
X95885000Y-161925000D02*
X96520000Y-162560000D01*
X115570000Y-111760000D02*
X115570000Y-90487500D01*
X115570000Y-114300000D02*
X115570000Y-111760000D01*
X83185000Y-115570000D02*
X83185000Y-114300000D01*
X83185000Y-180340000D02*
X83185000Y-179070000D01*
X81915000Y-190500000D02*
X83185000Y-189230000D01*
X83185000Y-189230000D02*
X83185000Y-180340000D01*
X83185000Y-179070000D02*
X83185000Y-172720000D01*
X83185000Y-115570000D02*
X83185000Y-172720000D01*
X115570000Y-90487500D02*
X117157500Y-88900000D01*
X117157500Y-88900000D02*
X117157500Y-23177500D01*
X117157500Y-88900000D02*
X116840000Y-89217500D01*
D25*
X72707500Y-193040000D02*
X73977500Y-191770000D01*
X72707500Y-204470000D02*
X72707500Y-193040000D01*
X71437500Y-205740000D02*
X72707500Y-204470000D01*
X71437500Y-208280000D02*
X71437500Y-205740000D01*
X70167500Y-209550000D02*
X71437500Y-208280000D01*
D22*
X106362500Y-161290000D02*
X106362500Y-160020000D01*
X106362500Y-167640000D02*
X106362500Y-161290000D01*
X100330000Y-170180000D02*
X103822500Y-170180000D01*
X97790000Y-172720000D02*
X97790000Y-196850000D01*
X96520000Y-198120000D02*
X97790000Y-196850000D01*
X97790000Y-172720000D02*
X100330000Y-170180000D01*
X103822500Y-170180000D02*
X105092500Y-168910000D01*
X105092500Y-168910000D02*
X106362500Y-167640000D01*
X106362500Y-135940798D02*
X106362500Y-160020000D01*
X270192500Y-119380000D02*
X270192500Y-135890000D01*
X271462500Y-118110000D02*
X270192500Y-119380000D01*
X271462500Y-118110000D02*
X271462500Y-39687500D01*
X135572500Y-120650000D02*
X135572500Y-121920000D01*
X83185000Y-203200000D02*
X84455000Y-201930000D01*
X84455000Y-178435000D02*
X84455000Y-172720000D01*
X84455000Y-179705000D02*
X84455000Y-178435000D01*
X84455000Y-201930000D02*
X84455000Y-179705000D01*
X84455000Y-121920000D02*
X84455000Y-172720000D01*
X134302500Y-62230000D02*
X134302500Y-39687500D01*
X135572500Y-63500000D02*
X135572500Y-109220000D01*
X134302500Y-62230000D02*
X135572500Y-63500000D01*
X135572500Y-120650000D02*
X135572500Y-109220000D01*
D25*
X72707500Y-205740000D02*
X73977500Y-204470000D01*
X72707500Y-212090000D02*
X72707500Y-205740000D01*
X70167500Y-214630000D02*
X72707500Y-212090000D01*
D22*
X235902500Y-45720000D02*
X237172500Y-44450000D01*
X105092500Y-163830000D02*
X105092500Y-86360000D01*
X237172500Y-86360000D02*
X237172500Y-49530000D01*
X237172500Y-49530000D02*
X235902500Y-48260000D01*
X235902500Y-48260000D02*
X235902500Y-45720000D01*
X95250000Y-163195000D02*
X94615000Y-162560000D01*
X95250000Y-172720000D02*
X95250000Y-163195000D01*
X92710000Y-208280000D02*
X93980000Y-207010000D01*
X93980000Y-207010000D02*
X93980000Y-184785000D01*
X93980000Y-184785000D02*
X95250000Y-183515000D01*
X95250000Y-183515000D02*
X95250000Y-172720000D01*
X237172500Y-44450000D02*
X237172500Y-39687500D01*
X81915000Y-172720000D02*
X81915000Y-167640000D01*
X81915000Y-212090000D02*
X81915000Y-203200000D01*
X80645000Y-213360000D02*
X81915000Y-212090000D01*
X81915000Y-179705000D02*
X81915000Y-172720000D01*
X81915000Y-180975000D02*
X81915000Y-179705000D01*
X81915000Y-188277500D02*
X81915000Y-180975000D01*
X80645000Y-189547500D02*
X81915000Y-188277500D01*
X80645000Y-201930000D02*
X80645000Y-189547500D01*
X81915000Y-203200000D02*
X80645000Y-201930000D01*
X100012500Y-167640000D02*
X100012500Y-39687500D01*
D25*
X72707500Y-215900000D02*
X73977500Y-214630000D01*
X72707500Y-217170000D02*
X72707500Y-215900000D01*
X70167500Y-219710000D02*
X72707500Y-217170000D01*
X82867500Y-258445000D02*
X82867500Y-222250000D01*
X85407500Y-255905000D02*
X85407500Y-224790000D01*
X87947500Y-253365000D02*
X87947500Y-227330000D01*
X90487500Y-250825000D02*
X90487500Y-229870000D01*
X93027500Y-248285000D02*
X93027500Y-233680000D01*
X81597500Y-239395000D02*
X80327500Y-238125000D01*
X81597500Y-249555000D02*
X81597500Y-239395000D01*
X80327500Y-250825000D02*
X81597500Y-249555000D01*
X80327500Y-238125000D02*
X80327500Y-226060000D01*
D22*
X33972500Y-164147500D02*
X33972500Y-164465000D01*
X114300000Y-165100000D02*
X114300000Y-166052500D01*
X114300000Y-166052500D02*
X114300000Y-172720000D01*
X115570000Y-214630000D02*
X114300000Y-213360000D01*
X114300000Y-213360000D02*
X114300000Y-172720000D01*
X33972500Y-164147500D02*
X33972500Y-39687500D01*
X33972500Y-164465000D02*
X33972500Y-165100000D01*
D25*
X144462500Y-219710000D02*
X141922500Y-217170000D01*
X141922500Y-215900000D02*
X140652500Y-214630000D01*
X141922500Y-217170000D02*
X141922500Y-215900000D01*
D22*
X171132500Y-39687500D02*
X171132500Y-50800000D01*
X126047500Y-50800000D02*
X126047500Y-66992500D01*
X127635000Y-68580000D02*
X126047500Y-66992500D01*
X127635000Y-162560000D02*
X127635000Y-172720000D01*
X126365000Y-185420000D02*
X127635000Y-184150000D01*
X127635000Y-184150000D02*
X127635000Y-172720000D01*
X127635000Y-209550000D02*
X126365000Y-208280000D01*
X126365000Y-208280000D02*
X126365000Y-185420000D01*
X127635000Y-162560000D02*
X127635000Y-68580000D01*
X68262500Y-39687500D02*
X68262500Y-129540000D01*
X116840000Y-129540000D02*
X116840000Y-172669202D01*
X118110000Y-191135000D02*
X116840000Y-189865000D01*
X116840000Y-189865000D02*
X116840000Y-172720000D01*
X119380000Y-204470000D02*
X118110000Y-203200000D01*
X118110000Y-203200000D02*
X118110000Y-191135000D01*
D25*
X141922500Y-205740000D02*
X140652500Y-204470000D01*
X141922500Y-212090000D02*
X141922500Y-205740000D01*
X144462500Y-214630000D02*
X141922500Y-212090000D01*
D22*
X205422500Y-39687500D02*
X205422500Y-76200000D01*
X131445000Y-199390000D02*
X130175000Y-198120000D01*
X130175000Y-198120000D02*
X130175000Y-172720000D01*
X130175000Y-76200000D02*
X130175000Y-172720000D01*
X51117500Y-23177500D02*
X51117500Y-146685000D01*
X116840000Y-191770000D02*
X115570000Y-190500000D01*
X115570000Y-190500000D02*
X115570000Y-172720000D01*
X115570000Y-153987500D02*
X115570000Y-172720000D01*
X115570000Y-147320000D02*
X115570000Y-153987500D01*
X51117500Y-146685000D02*
X51117500Y-147320000D01*
D25*
X141922500Y-204470000D02*
X141922500Y-193040000D01*
X143192500Y-205740000D02*
X141922500Y-204470000D01*
X141922500Y-193040000D02*
X140652500Y-191770000D01*
X143192500Y-208280000D02*
X143192500Y-205740000D01*
X144462500Y-209550000D02*
X143192500Y-208280000D01*
D22*
X127317500Y-60325000D02*
X127317500Y-58420000D01*
X188277500Y-23177500D02*
X188277500Y-58420000D01*
X128587500Y-61595000D02*
X127317500Y-60325000D01*
X128905000Y-172720000D02*
X128905000Y-66992500D01*
X127635000Y-186690000D02*
X127736598Y-186690000D01*
X127736598Y-186690000D02*
X128905000Y-185521598D01*
X128905000Y-185521598D02*
X128905000Y-172720000D01*
X128905000Y-66992500D02*
X128587500Y-66675000D01*
X128587500Y-66675000D02*
X128587500Y-61595000D01*
X118110000Y-129540000D02*
X118110000Y-111760000D01*
X85407500Y-111760000D02*
X85407500Y-23177500D01*
X118110000Y-129540000D02*
X118110000Y-172720000D01*
X118110000Y-180340000D02*
X118110000Y-172720000D01*
X118110000Y-172720000D02*
X118110000Y-172720000D01*
X119380000Y-181610000D02*
X118110000Y-180340000D01*
D25*
X140652500Y-181610000D02*
X143192500Y-184150000D01*
X143192500Y-184150000D02*
X143192500Y-203200000D01*
X143192500Y-203200000D02*
X144462500Y-204470000D01*
X144462500Y-201930000D02*
X145732500Y-200660000D01*
X144462500Y-180340000D02*
X140652500Y-176530000D01*
X145732500Y-181610000D02*
X144462500Y-180340000D01*
X145732500Y-200660000D02*
X145732500Y-181610000D01*
D22*
X131445000Y-153619202D02*
X131445000Y-160020000D01*
X131445000Y-93980000D02*
X131445000Y-153619202D01*
X222567500Y-23177500D02*
X222567500Y-93980000D01*
X131445000Y-175260000D02*
X131445000Y-172720000D01*
X132715000Y-176530000D02*
X131445000Y-175260000D01*
X131445000Y-160020000D02*
X131445000Y-172720000D01*
D25*
X108902500Y-201930000D02*
X107632500Y-200660000D01*
X108902500Y-180340000D02*
X112712500Y-176530000D01*
X107632500Y-181610000D02*
X108902500Y-180340000D01*
X107632500Y-200660000D02*
X107632500Y-181610000D01*
D22*
X137795000Y-175260000D02*
X139065000Y-173990000D01*
X139065000Y-173990000D02*
X139065000Y-172720000D01*
X139065000Y-166052500D02*
X139065000Y-172720000D01*
X139065000Y-165100000D02*
X139065000Y-166052500D01*
X287337500Y-165100000D02*
X291147500Y-161290000D01*
X287286702Y-165100000D02*
X287337500Y-165100000D01*
X291147500Y-23177500D02*
X291147500Y-161290000D01*
X124777500Y-74295000D02*
X126047500Y-75565000D01*
X126047500Y-75565000D02*
X126047500Y-78740000D01*
X153987500Y-41592500D02*
X153987500Y-44132500D01*
X153987500Y-23177500D02*
X153987500Y-41592500D01*
X153987500Y-73660000D02*
X153987500Y-44132500D01*
X126047500Y-162560000D02*
X126047500Y-78740000D01*
X125730000Y-164782500D02*
X126047500Y-164465000D01*
X126047500Y-164465000D02*
X126047500Y-162560000D01*
X125730000Y-172720000D02*
X125730000Y-179070000D01*
X124460000Y-180340000D02*
X125730000Y-179070000D01*
X125730000Y-172720000D02*
X125730000Y-164782500D01*
X124777500Y-72390000D02*
X124777500Y-74295000D01*
D25*
X108902500Y-204470000D02*
X110172500Y-203200000D01*
X110172500Y-203200000D02*
X110172500Y-184150000D01*
X110172500Y-184150000D02*
X112712500Y-181610000D01*
D22*
X136525000Y-170180000D02*
X136525000Y-129540000D01*
X256857500Y-23177500D02*
X256857500Y-129540000D01*
X135255000Y-171450000D02*
X136525000Y-170180000D01*
X133985000Y-185420000D02*
X135255000Y-184150000D01*
X135255000Y-184150000D02*
X135255000Y-172720000D01*
X135255000Y-172720000D02*
X135255000Y-171450000D01*
X121920000Y-172720000D02*
X121920000Y-167640000D01*
X121920000Y-179070000D02*
X121920000Y-172720000D01*
X121920000Y-180340000D02*
X121920000Y-179070000D01*
X120650000Y-190500000D02*
X121920000Y-189230000D01*
X121920000Y-189230000D02*
X121920000Y-180340000D01*
X119697500Y-165417500D02*
X119697500Y-162877500D01*
X121920000Y-167640000D02*
X119697500Y-165417500D01*
X119697500Y-23177500D02*
X119697500Y-78422500D01*
X119697500Y-162877500D02*
X119697500Y-78422500D01*
D25*
X108902500Y-209550000D02*
X110172500Y-208280000D01*
X110172500Y-208280000D02*
X110172500Y-205740000D01*
X110172500Y-205740000D02*
X111442500Y-204470000D01*
X111442500Y-204470000D02*
X111442500Y-193040000D01*
X111442500Y-193040000D02*
X112712500Y-191770000D01*
D22*
X137795000Y-171450000D02*
X137795000Y-147320000D01*
X136525000Y-172720000D02*
X136525000Y-196850000D01*
X135255000Y-198120000D02*
X136525000Y-196850000D01*
X137795000Y-171450000D02*
X136525000Y-172720000D01*
X274002500Y-147320000D02*
X274002500Y-39687500D01*
X274002500Y-147320000D02*
X274002500Y-147320000D01*
X120967500Y-113982500D02*
X120967500Y-163830000D01*
X123190000Y-166052500D02*
X122237500Y-165100000D01*
X120967500Y-113982500D02*
X120967500Y-112077500D01*
X136842500Y-58420000D02*
X136842500Y-112077500D01*
X136842500Y-39687500D02*
X136842500Y-58420000D01*
X121920000Y-203200000D02*
X123190000Y-201930000D01*
X123190000Y-178435000D02*
X123190000Y-172720000D01*
X123190000Y-179705000D02*
X123190000Y-178435000D01*
X123190000Y-201930000D02*
X123190000Y-179705000D01*
X123190000Y-172720000D02*
X123190000Y-166052500D01*
X120967500Y-163830000D02*
X122237500Y-165100000D01*
D25*
X108902500Y-214630000D02*
X111442500Y-212090000D01*
X111442500Y-212090000D02*
X111442500Y-205740000D01*
X111442500Y-205740000D02*
X112712500Y-204470000D01*
D22*
X138112500Y-114300000D02*
X138112500Y-125730000D01*
X239712500Y-39687500D02*
X239712500Y-114300000D01*
X136842500Y-127000000D02*
X135255000Y-128587500D01*
X133985000Y-170180000D02*
X133985000Y-172720000D01*
X133985000Y-183515000D02*
X133985000Y-172720000D01*
X132715000Y-184785000D02*
X133985000Y-183515000D01*
X132715000Y-207010000D02*
X132715000Y-184785000D01*
X131445000Y-208280000D02*
X132715000Y-207010000D01*
X135255000Y-168910000D02*
X133985000Y-170180000D01*
X135255000Y-128587500D02*
X135255000Y-168910000D01*
X138112500Y-125730000D02*
X136842500Y-127000000D01*
X120015000Y-167640000D02*
X120650000Y-168275000D01*
X102552500Y-165100000D02*
X102552500Y-42862500D01*
X102552500Y-39687500D02*
X102552500Y-42862500D01*
X120650000Y-212090000D02*
X120650000Y-203200000D01*
X119380000Y-213360000D02*
X120650000Y-212090000D01*
X120650000Y-179705000D02*
X120650000Y-172720000D01*
X120650000Y-180975000D02*
X120650000Y-179705000D01*
X120650000Y-188277500D02*
X120650000Y-180975000D01*
X119380000Y-189547500D02*
X120650000Y-188277500D01*
X119380000Y-201930000D02*
X119380000Y-189547500D01*
X120650000Y-203200000D02*
X119380000Y-201930000D01*
X102552500Y-165100000D02*
X102552500Y-167640000D01*
X120650000Y-168275000D02*
X120650000Y-172720000D01*
D25*
X108902500Y-219710000D02*
X111442500Y-217170000D01*
X111442500Y-215900000D02*
X112712500Y-214630000D01*
X111442500Y-217170000D02*
X111442500Y-215900000D01*
X111442500Y-245745000D02*
X111442500Y-223520000D01*
X111442500Y-223520000D02*
X112712500Y-222250000D01*
X113982500Y-226060000D02*
X112712500Y-224790000D01*
X113982500Y-243205000D02*
X113982500Y-226060000D01*
X116522500Y-240665000D02*
X116522500Y-227330000D01*
X95567500Y-239395000D02*
X95567500Y-231140000D01*
X98107500Y-241935000D02*
X98107500Y-233680000D01*
X178117500Y-226060000D02*
X179387500Y-224790000D01*
X178117500Y-252095000D02*
X178117500Y-226060000D01*
D22*
X154305000Y-214630000D02*
X153035000Y-213360000D01*
X153035000Y-213360000D02*
X153035000Y-172720000D01*
X153035000Y-144780000D02*
X153035000Y-172720000D01*
X36512500Y-144780000D02*
X36512500Y-39687500D01*
D25*
X180657500Y-217170000D02*
X180657500Y-215900000D01*
X180657500Y-215900000D02*
X179387500Y-214630000D01*
X183197500Y-219710000D02*
X180657500Y-217170000D01*
D22*
X166370000Y-172720000D02*
X165735000Y-172085000D01*
X165100000Y-185420000D02*
X166370000Y-184150000D01*
X166370000Y-184150000D02*
X166370000Y-172720000D01*
X166370000Y-209550000D02*
X165100000Y-208280000D01*
X165100000Y-208280000D02*
X165100000Y-185420000D01*
X173672500Y-55880000D02*
X173672500Y-39687500D01*
X165735000Y-76200000D02*
X165735000Y-55880000D01*
X165735000Y-172085000D02*
X165735000Y-76200000D01*
X155575000Y-172720000D02*
X155575000Y-120650000D01*
X156845000Y-191135000D02*
X155575000Y-189865000D01*
X155575000Y-189865000D02*
X155575000Y-172720000D01*
X158115000Y-204470000D02*
X156845000Y-203200000D01*
X156845000Y-203200000D02*
X156845000Y-191135000D01*
X70802500Y-120650000D02*
X70802500Y-39687500D01*
D25*
X183197500Y-214630000D02*
X180657500Y-212090000D01*
X180657500Y-212090000D02*
X180657500Y-205740000D01*
X180657500Y-205740000D02*
X179387500Y-204470000D01*
D22*
X170180000Y-114300000D02*
X170180000Y-60960000D01*
X168910000Y-115570000D02*
X170180000Y-114300000D01*
X168910000Y-198120000D02*
X168910000Y-172720000D01*
X170180000Y-199390000D02*
X168910000Y-198120000D01*
X168910000Y-172720000D02*
X168910000Y-115570000D01*
X207962500Y-54610000D02*
X207962500Y-39687500D01*
X206692500Y-55880000D02*
X207962500Y-54610000D01*
X206692500Y-57785000D02*
X206692500Y-55880000D01*
X207962500Y-59055000D02*
X206692500Y-57785000D01*
X207962500Y-59372500D02*
X207962500Y-59055000D01*
X207962500Y-60960000D02*
X207962500Y-59372500D01*
X152717500Y-122872500D02*
X152717500Y-78740000D01*
X53657500Y-23177500D02*
X53657500Y-78740000D01*
X155575000Y-191770000D02*
X155524202Y-191770000D01*
X154305000Y-172720000D02*
X154305000Y-170180000D01*
X154305000Y-190550798D02*
X154305000Y-172720000D01*
X155524202Y-191770000D02*
X154305000Y-190550798D01*
X154305000Y-170180000D02*
X154305000Y-124460000D01*
X152717500Y-122872500D02*
X154305000Y-124460000D01*
D25*
X183197500Y-209550000D02*
X181927500Y-208280000D01*
X181927500Y-208280000D02*
X181927500Y-205740000D01*
X180657500Y-193040000D02*
X179387500Y-191770000D01*
X181927500Y-205740000D02*
X180657500Y-204470000D01*
X180657500Y-204470000D02*
X180657500Y-193040000D01*
D22*
X189547500Y-24447500D02*
X189547500Y-26352500D01*
X190817500Y-20637500D02*
X189547500Y-21907500D01*
D26*
X189547500Y-24447500D02*
X189547500Y-21907500D01*
D22*
X167640000Y-172720000D02*
X167640000Y-111760000D01*
X166370000Y-186690000D02*
X166471598Y-186690000D01*
X166471598Y-186690000D02*
X167640000Y-185521598D01*
X167640000Y-185521598D02*
X167640000Y-172720000D01*
X190817500Y-111760000D02*
X190817500Y-23177500D01*
X87947500Y-90170000D02*
X87947500Y-23177500D01*
X156845000Y-113030000D02*
X156845000Y-90170000D01*
X158115000Y-181610000D02*
X156845000Y-180340000D01*
X156845000Y-180340000D02*
X156845000Y-172720000D01*
X156845000Y-113030000D02*
X156845000Y-172720000D01*
D25*
X181927500Y-203200000D02*
X183197500Y-204470000D01*
X181927500Y-184150000D02*
X181927500Y-203200000D01*
X179387500Y-181610000D02*
X181927500Y-184150000D01*
X183197500Y-180340000D02*
X184467500Y-181610000D01*
X179387500Y-176530000D02*
X183197500Y-180340000D01*
X184467500Y-200660000D02*
X183197500Y-201930000D01*
X184467500Y-181610000D02*
X184467500Y-200660000D01*
D22*
X170180000Y-118110000D02*
X171450000Y-116840000D01*
X171450000Y-116840000D02*
X171450000Y-64770000D01*
X170180000Y-175260000D02*
X170180000Y-172720000D01*
X171450000Y-176530000D02*
X170180000Y-175260000D01*
X170180000Y-172720000D02*
X170180000Y-118110000D01*
X225107500Y-64770000D02*
X225107500Y-23177500D01*
D25*
X147637500Y-180340000D02*
X146367500Y-181610000D01*
X151447500Y-176530000D02*
X147637500Y-180340000D01*
X146367500Y-200660000D02*
X147637500Y-201930000D01*
X146367500Y-181610000D02*
X146367500Y-200660000D01*
D22*
X224790000Y-151130000D02*
X224790000Y-93980000D01*
X176530000Y-175260000D02*
X177800000Y-173990000D01*
X177800000Y-173990000D02*
X177800000Y-172720000D01*
X177800000Y-172720000D02*
X177800000Y-151130000D01*
X293687500Y-93980000D02*
X293687500Y-23177500D01*
X164465000Y-172720000D02*
X164465000Y-76200000D01*
X164465000Y-172720000D02*
X164465000Y-179070000D01*
X163195000Y-180340000D02*
X164465000Y-179070000D01*
X164465000Y-72390000D02*
X164465000Y-76200000D01*
X156527500Y-72072500D02*
X156527500Y-23177500D01*
X156527500Y-72339202D02*
X156527500Y-72072500D01*
D25*
X148907500Y-184150000D02*
X151447500Y-181610000D01*
X148907500Y-203200000D02*
X148907500Y-184150000D01*
X147637500Y-204470000D02*
X148907500Y-203200000D01*
D22*
X173990000Y-172720000D02*
X173990000Y-82550000D01*
X173990000Y-184150000D02*
X173990000Y-172720000D01*
X172720000Y-185420000D02*
X173990000Y-184150000D01*
X259397500Y-82550000D02*
X259397500Y-23177500D01*
X160655000Y-172720000D02*
X160655000Y-171450000D01*
X160655000Y-179070000D02*
X160655000Y-172720000D01*
X160655000Y-189230000D02*
X160655000Y-180340000D01*
X159385000Y-190500000D02*
X160655000Y-189230000D01*
X160655000Y-180340000D02*
X160655000Y-179070000D01*
X122237500Y-68580000D02*
X122237500Y-23177500D01*
X159385000Y-170180000D02*
X159385000Y-68580000D01*
X160655000Y-171450000D02*
X159385000Y-170180000D01*
D25*
X150177500Y-193040000D02*
X151447500Y-191770000D01*
X150177500Y-204470000D02*
X150177500Y-193040000D01*
X148907500Y-205740000D02*
X150177500Y-204470000D01*
X148907500Y-208280000D02*
X148907500Y-205740000D01*
X147637500Y-209550000D02*
X148907500Y-208280000D01*
D22*
X211772500Y-96520000D02*
X211772500Y-76200000D01*
X175260000Y-172720000D02*
X175260000Y-196850000D01*
X173990000Y-198120000D02*
X175260000Y-196850000D01*
X175260000Y-172720000D02*
X175260000Y-96520000D01*
X276542500Y-76200000D02*
X276542500Y-39687500D01*
X163195000Y-133350000D02*
X163195000Y-74930000D01*
X163195000Y-171450000D02*
X163195000Y-133350000D01*
X160655000Y-203200000D02*
X161925000Y-201930000D01*
X161925000Y-178435000D02*
X161925000Y-172720000D01*
X161925000Y-179705000D02*
X161925000Y-178435000D01*
X161925000Y-201930000D02*
X161925000Y-179705000D01*
X161925000Y-172720000D02*
X163195000Y-171450000D01*
X139382500Y-74930000D02*
X139382500Y-39687500D01*
D25*
X150177500Y-205740000D02*
X151447500Y-204470000D01*
X150177500Y-212090000D02*
X150177500Y-205740000D01*
X147637500Y-214630000D02*
X150177500Y-212090000D01*
D22*
X172720000Y-183515000D02*
X172720000Y-172720000D01*
X171450000Y-184785000D02*
X172720000Y-183515000D01*
X171450000Y-207010000D02*
X171450000Y-184785000D01*
X170180000Y-208280000D02*
X171450000Y-207010000D01*
X172720000Y-172720000D02*
X172720000Y-73660000D01*
X242252500Y-73660000D02*
X242252500Y-39687500D01*
X158115000Y-171450000D02*
X158115000Y-85090000D01*
X158115000Y-171450000D02*
X159385000Y-172720000D01*
X159385000Y-203200000D02*
X158115000Y-201930000D01*
X158115000Y-201930000D02*
X158115000Y-189547500D01*
X158115000Y-189547500D02*
X159385000Y-188277500D01*
X159385000Y-188277500D02*
X159385000Y-180975000D01*
X159385000Y-180975000D02*
X159385000Y-179705000D01*
X159385000Y-179705000D02*
X159385000Y-172720000D01*
X158115000Y-213360000D02*
X159385000Y-212090000D01*
X159385000Y-212090000D02*
X159385000Y-203200000D01*
X105092500Y-85090000D02*
X105092500Y-39687500D01*
D25*
X150177500Y-217170000D02*
X150177500Y-215900000D01*
X150177500Y-215900000D02*
X151447500Y-214630000D01*
X147637500Y-219710000D02*
X150177500Y-217170000D01*
X160337500Y-258445000D02*
X160337500Y-222250000D01*
X162877500Y-255905000D02*
X162877500Y-224790000D01*
X165417500Y-253365000D02*
X165417500Y-227330000D01*
X167957500Y-250825000D02*
X167957500Y-229870000D01*
X170497500Y-248285000D02*
X170497500Y-233680000D01*
X157797500Y-250825000D02*
X159067500Y-249555000D01*
X157797500Y-238125000D02*
X157797500Y-226060000D01*
X159067500Y-239395000D02*
X157797500Y-238125000D01*
X159067500Y-249555000D02*
X159067500Y-239395000D01*
D22*
X39052500Y-39687500D02*
X39052500Y-159385000D01*
X193040000Y-214630000D02*
X191770000Y-213360000D01*
X191770000Y-213360000D02*
X191770000Y-172720000D01*
X191770000Y-160020000D02*
X191770000Y-172720000D01*
X39052500Y-159385000D02*
X39052500Y-160020000D01*
D25*
X221932500Y-219710000D02*
X219392500Y-217170000D01*
X219392500Y-215900000D02*
X218122500Y-214630000D01*
X219392500Y-217170000D02*
X219392500Y-215900000D01*
D22*
X176212500Y-39687500D02*
X176212500Y-78740000D01*
X205105000Y-83820000D02*
X205105000Y-172720000D01*
X203835000Y-185420000D02*
X205105000Y-184150000D01*
X205105000Y-184150000D02*
X205105000Y-172720000D01*
X205105000Y-209550000D02*
X203835000Y-208280000D01*
X203835000Y-208280000D02*
X203835000Y-185420000D01*
X205105000Y-78740000D02*
X205105000Y-83820000D01*
X73342500Y-39687500D02*
X73342500Y-124460000D01*
X194310000Y-127000000D02*
X194310000Y-125412500D01*
X195580000Y-191135000D02*
X194310000Y-189865000D01*
X194310000Y-189865000D02*
X194310000Y-172720000D01*
X196850000Y-204470000D02*
X195580000Y-203200000D01*
X195580000Y-203200000D02*
X195580000Y-191135000D01*
X194310000Y-172720000D02*
X194310000Y-127000000D01*
X194310000Y-124460000D02*
X194310000Y-125412500D01*
D25*
X219392500Y-205740000D02*
X218122500Y-204470000D01*
X219392500Y-212090000D02*
X219392500Y-205740000D01*
X221932500Y-214630000D02*
X219392500Y-212090000D01*
D22*
X207645000Y-83820000D02*
X209232500Y-82232500D01*
X207645000Y-198120000D02*
X207645000Y-172720000D01*
X208915000Y-199390000D02*
X207645000Y-198120000D01*
X207645000Y-83820000D02*
X207645000Y-172720000D01*
X210502500Y-64770000D02*
X210502500Y-39687500D01*
X209232500Y-66040000D02*
X210502500Y-64770000D01*
X209232500Y-82232500D02*
X209232500Y-66040000D01*
X194310000Y-191770000D02*
X193040000Y-190500000D01*
X193040000Y-190500000D02*
X193040000Y-171183298D01*
X56197500Y-23177500D02*
X56197500Y-141605000D01*
X193040000Y-142240000D02*
X193040000Y-171132500D01*
X193040000Y-171132500D02*
X193040000Y-171132500D01*
X56197500Y-141605000D02*
X56197500Y-142240000D01*
D25*
X219392500Y-204470000D02*
X219392500Y-193040000D01*
X220662500Y-205740000D02*
X219392500Y-204470000D01*
X219392500Y-193040000D02*
X218122500Y-191770000D01*
X220662500Y-208280000D02*
X220662500Y-205740000D01*
X221932500Y-209550000D02*
X220662500Y-208280000D01*
D22*
X207962500Y-64770000D02*
X209232500Y-63500000D01*
X193357500Y-23177500D02*
X193357500Y-55880000D01*
X207962500Y-81597500D02*
X207962500Y-64770000D01*
X206375000Y-83185000D02*
X206375000Y-172720000D01*
X205105000Y-186690000D02*
X205206598Y-186690000D01*
X205206598Y-186690000D02*
X206375000Y-185521598D01*
X206375000Y-185521598D02*
X206375000Y-172720000D01*
X206375000Y-83185000D02*
X207962500Y-81597500D01*
X209232500Y-63500000D02*
X209232500Y-55880000D01*
X90487500Y-23177500D02*
X90487500Y-106680000D01*
X195580000Y-106680000D02*
X195580000Y-172669202D01*
X195580000Y-180340000D02*
X195580000Y-172720000D01*
X195580000Y-172720000D02*
X195580000Y-172720000D01*
X196850000Y-181610000D02*
X195580000Y-180340000D01*
D25*
X218122500Y-181610000D02*
X220662500Y-184150000D01*
X220662500Y-184150000D02*
X220662500Y-203200000D01*
X220662500Y-203200000D02*
X221932500Y-204470000D01*
X221932500Y-180340000D02*
X223202500Y-181610000D01*
X218122500Y-176530000D02*
X221932500Y-180340000D01*
X223202500Y-200660000D02*
X221932500Y-201930000D01*
X223202500Y-181610000D02*
X223202500Y-200660000D01*
D22*
X227647500Y-23177500D02*
X227647500Y-88900000D01*
X210185000Y-176530000D02*
X208915000Y-175260000D01*
X208915000Y-175260000D02*
X208915000Y-172720000D01*
X208915000Y-90487500D02*
X208915000Y-172720000D01*
X208915000Y-88900000D02*
X208915000Y-90487500D01*
D25*
X186372500Y-201930000D02*
X185102500Y-200660000D01*
X186372500Y-180340000D02*
X190182500Y-176530000D01*
X185102500Y-181610000D02*
X186372500Y-180340000D01*
X185102500Y-200660000D02*
X185102500Y-181610000D01*
D22*
X296227500Y-160020000D02*
X296227500Y-159385000D01*
X296227500Y-23177500D02*
X296227500Y-158750000D01*
X216535000Y-160020000D02*
X216535000Y-172720000D01*
X216535000Y-173990000D02*
X216535000Y-172720000D01*
X215265000Y-175260000D02*
X216535000Y-173990000D01*
X296227500Y-159385000D02*
X296227500Y-158750000D01*
X204152500Y-55880000D02*
X204152500Y-40957500D01*
D26*
X204152500Y-35877500D02*
X204152500Y-40957500D01*
D22*
X159067500Y-23177500D02*
X159067500Y-33972500D01*
X204152500Y-33972500D02*
X204152500Y-35877500D01*
X202882500Y-57150000D02*
X202882500Y-76200000D01*
X203200000Y-172720000D02*
X203200000Y-76517500D01*
X201930000Y-180340000D02*
X203200000Y-179070000D01*
X203200000Y-172720000D02*
X203200000Y-179070000D01*
X203200000Y-76517500D02*
X202882500Y-76200000D01*
X204152500Y-55880000D02*
X202882500Y-57150000D01*
D25*
X186372500Y-204470000D02*
X187642500Y-203200000D01*
X187642500Y-203200000D02*
X187642500Y-184150000D01*
X187642500Y-184150000D02*
X190182500Y-181610000D01*
D22*
X261937500Y-124460000D02*
X261937500Y-23177500D01*
X212725000Y-124460000D02*
X212725000Y-172720000D01*
X211455000Y-185420000D02*
X212725000Y-184150000D01*
X212725000Y-184150000D02*
X212725000Y-172720000D01*
X124777500Y-23177500D02*
X124777500Y-71120000D01*
X198120000Y-86360000D02*
X199390000Y-87630000D01*
X199390000Y-87630000D02*
X199390000Y-172669202D01*
X197802500Y-86042500D02*
X198120000Y-86360000D01*
X197802500Y-71120000D02*
X197802500Y-86042500D01*
X199390000Y-179070000D02*
X199390000Y-172720000D01*
X199390000Y-189230000D02*
X199390000Y-180340000D01*
X198120000Y-190500000D02*
X199390000Y-189230000D01*
X199390000Y-180340000D02*
X199390000Y-179070000D01*
D25*
X186372500Y-209550000D02*
X187642500Y-208280000D01*
X187642500Y-208280000D02*
X187642500Y-205740000D01*
X187642500Y-205740000D02*
X188912500Y-204470000D01*
X188912500Y-204470000D02*
X188912500Y-193040000D01*
X188912500Y-193040000D02*
X190182500Y-191770000D01*
D22*
X213995000Y-142240000D02*
X213995000Y-172720000D01*
X279082500Y-39687500D02*
X279082500Y-142240000D01*
X279082500Y-142240000D02*
X279082500Y-142240000D01*
X213995000Y-172720000D02*
X213995000Y-196850000D01*
X212725000Y-198120000D02*
X213995000Y-196850000D01*
X277812500Y-40957500D02*
X277812500Y-42862500D01*
D26*
X277812500Y-38417500D02*
X279082500Y-37147500D01*
X277812500Y-40957500D02*
X277812500Y-38417500D01*
D22*
X201612500Y-56515000D02*
X201612500Y-57835798D01*
X200660000Y-172720000D02*
X200660000Y-170180000D01*
X200660000Y-201930000D02*
X200660000Y-179705000D01*
X200660000Y-179705000D02*
X200660000Y-178435000D01*
X200660000Y-178435000D02*
X200660000Y-172720000D01*
X199390000Y-203200000D02*
X200660000Y-201930000D01*
X200660000Y-170180000D02*
X201612500Y-169227500D01*
X201612500Y-169227500D02*
X201612500Y-57835798D01*
X202882500Y-55245000D02*
X201612500Y-56515000D01*
X141922500Y-53340000D02*
X141922500Y-39687500D01*
X202882500Y-53340000D02*
X202882500Y-55245000D01*
D25*
X186372500Y-214630000D02*
X188912500Y-212090000D01*
X188912500Y-212090000D02*
X188912500Y-205740000D01*
X188912500Y-205740000D02*
X190182500Y-204470000D01*
D22*
X211455000Y-183515000D02*
X211455000Y-172720000D01*
X211455000Y-111760000D02*
X211455000Y-172669202D01*
X244792500Y-39687500D02*
X244792500Y-111760000D01*
X210185000Y-184785000D02*
X211455000Y-183515000D01*
X210185000Y-207010000D02*
X210185000Y-184785000D01*
X208915000Y-208280000D02*
X210185000Y-207010000D01*
X243522500Y-40957500D02*
X243522500Y-42862500D01*
D26*
X243522500Y-40957500D02*
X243522500Y-38417500D01*
D22*
X244792500Y-37147500D02*
X243522500Y-38417500D01*
X198120000Y-88900000D02*
X198120000Y-172720000D01*
X198120000Y-212090000D02*
X198120000Y-203200000D01*
X196850000Y-213360000D02*
X198120000Y-212090000D01*
X198120000Y-179705000D02*
X198120000Y-172720000D01*
X198120000Y-180975000D02*
X198120000Y-179705000D01*
X198120000Y-188277500D02*
X198120000Y-180975000D01*
X196850000Y-189547500D02*
X198120000Y-188277500D01*
X196850000Y-201930000D02*
X196850000Y-189547500D01*
X198120000Y-203200000D02*
X196850000Y-201930000D01*
X107632500Y-88900000D02*
X107632500Y-39687500D01*
D25*
X186372500Y-219710000D02*
X188912500Y-217170000D01*
X188912500Y-215900000D02*
X190182500Y-214630000D01*
X188912500Y-217170000D02*
X188912500Y-215900000D01*
X188595000Y-223837500D02*
X190182500Y-222250000D01*
X188595000Y-245745000D02*
X188595000Y-223837500D01*
X191452500Y-226060000D02*
X190182500Y-224790000D01*
X191452500Y-243205000D02*
X191452500Y-226060000D01*
X193992500Y-240665000D02*
X193992500Y-227330000D01*
X173037500Y-239395000D02*
X173037500Y-231140000D01*
X175577500Y-241935000D02*
X175577500Y-233680000D01*
X255587500Y-226060000D02*
X256857500Y-224790000D01*
X255587500Y-252095000D02*
X255587500Y-226060000D01*
D22*
X230505000Y-139700000D02*
X230505000Y-172720000D01*
X231775000Y-214630000D02*
X230505000Y-213360000D01*
X230505000Y-213360000D02*
X230505000Y-172720000D01*
X41592500Y-139700000D02*
X41592500Y-39687500D01*
D25*
X258127500Y-217170000D02*
X258127500Y-215900000D01*
X258127500Y-215900000D02*
X256857500Y-214630000D01*
X260667500Y-219710000D02*
X258127500Y-217170000D01*
D22*
X178752500Y-39687500D02*
X178752500Y-137160000D01*
X242252500Y-157162500D02*
X242252500Y-138430000D01*
X243840000Y-172720000D02*
X243840000Y-158750000D01*
X242570000Y-208280000D02*
X242570000Y-185420000D01*
X243840000Y-209550000D02*
X242570000Y-208280000D01*
X243840000Y-184150000D02*
X243840000Y-172720000D01*
X242570000Y-185420000D02*
X243840000Y-184150000D01*
X243840000Y-158750000D02*
X242570000Y-157480000D01*
X242570000Y-157480000D02*
X242252500Y-157162500D01*
X178752500Y-137160000D02*
X177482500Y-138430000D01*
X231775000Y-109220000D02*
X231775000Y-123190000D01*
X232092500Y-123507500D02*
X233045000Y-124460000D01*
X233045000Y-124460000D02*
X233045000Y-172720000D01*
X234315000Y-203200000D02*
X234315000Y-191135000D01*
X235585000Y-204470000D02*
X234315000Y-203200000D01*
X233045000Y-189865000D02*
X233045000Y-172720000D01*
X234315000Y-191135000D02*
X233045000Y-189865000D01*
X75882500Y-109220000D02*
X75882500Y-39687500D01*
X231775000Y-123190000D02*
X232092500Y-123507500D01*
D25*
X260667500Y-214630000D02*
X258127500Y-212090000D01*
X258127500Y-212090000D02*
X258127500Y-205740000D01*
X258127500Y-205740000D02*
X256857500Y-204470000D01*
D22*
X246380000Y-172720000D02*
X246380000Y-141287500D01*
X247650000Y-199390000D02*
X246380000Y-198120000D01*
X246380000Y-198120000D02*
X246380000Y-172720000D01*
X213042500Y-98107500D02*
X213042500Y-39687500D01*
X213995000Y-99060000D02*
X213042500Y-98107500D01*
X213995000Y-121920000D02*
X213995000Y-99060000D01*
X244792500Y-139700000D02*
X244792500Y-121920000D01*
X246380000Y-141287500D02*
X244792500Y-139700000D01*
X58737500Y-120015000D02*
X58737500Y-127000000D01*
X233045000Y-191770000D02*
X231775000Y-190500000D01*
X231775000Y-190500000D02*
X231775000Y-172720000D01*
X58737500Y-115570000D02*
X60007500Y-116840000D01*
X60007500Y-116840000D02*
X60007500Y-118745000D01*
X60007500Y-118745000D02*
X58737500Y-120015000D01*
X58737500Y-115570000D02*
X58737500Y-23177500D01*
X231775000Y-127000000D02*
X231775000Y-172720000D01*
D25*
X260667500Y-209550000D02*
X259397500Y-208280000D01*
X259397500Y-208280000D02*
X259397500Y-205740000D01*
X258127500Y-193040000D02*
X256857500Y-191770000D01*
X259397500Y-205740000D02*
X258127500Y-204470000D01*
X258127500Y-204470000D02*
X258127500Y-193040000D01*
D22*
X192087500Y-24447500D02*
X192087500Y-122237500D01*
X193040000Y-18415000D02*
X193675000Y-18415000D01*
X193675000Y-18415000D02*
X194627500Y-19367500D01*
D26*
X194627500Y-19367500D02*
X194627500Y-21907500D01*
D22*
X195897500Y-23177500D02*
X194627500Y-21907500D01*
D26*
X192087500Y-19367500D02*
X192087500Y-22225000D01*
X192087500Y-24447500D02*
X192087500Y-22225000D01*
D22*
X192087500Y-19367500D02*
X193040000Y-18415000D01*
X192087500Y-122237500D02*
X191770000Y-122555000D01*
X191770000Y-132080000D02*
X191770000Y-124777500D01*
X191770000Y-122555000D02*
X191770000Y-124777500D01*
X245110000Y-142240000D02*
X243522500Y-140652500D01*
X243522500Y-140652500D02*
X243522500Y-132080000D01*
X243840000Y-186690000D02*
X243941598Y-186690000D01*
X243941598Y-186690000D02*
X245110000Y-185521598D01*
X245110000Y-185521598D02*
X245110000Y-172720000D01*
X245110000Y-172720000D02*
X245110000Y-142240000D01*
X93027500Y-23177500D02*
X93027500Y-88900000D01*
X234315000Y-118110000D02*
X234315000Y-173037500D01*
X94297500Y-104775000D02*
X94297500Y-118110000D01*
X91757500Y-102235000D02*
X94297500Y-104775000D01*
X91757500Y-90170000D02*
X91757500Y-102235000D01*
X93027500Y-88900000D02*
X91757500Y-90170000D01*
X235585000Y-181610000D02*
X234315000Y-180340000D01*
X234315000Y-180340000D02*
X234315000Y-173037500D01*
X234315000Y-173037500D02*
X234315000Y-172720000D01*
D25*
X259397500Y-203200000D02*
X260667500Y-204470000D01*
X259397500Y-184150000D02*
X259397500Y-203200000D01*
X256857500Y-181610000D02*
X259397500Y-184150000D01*
X260667500Y-201930000D02*
X261937500Y-200660000D01*
X260667500Y-180340000D02*
X256857500Y-176530000D01*
X261937500Y-181610000D02*
X260667500Y-180340000D01*
X261937500Y-200660000D02*
X261937500Y-181610000D01*
D22*
X246062500Y-35877500D02*
X246062500Y-25717500D01*
X247650000Y-172720000D02*
X247650000Y-140652500D01*
X248920000Y-176530000D02*
X247650000Y-175260000D01*
X247650000Y-175260000D02*
X247650000Y-172720000D01*
X246062500Y-134302500D02*
X246062500Y-40957500D01*
X246062500Y-139065000D02*
X246062500Y-134302500D01*
X247650000Y-140652500D02*
X246062500Y-139065000D01*
D26*
X246062500Y-35877500D02*
X246062500Y-40957500D01*
D22*
X230187500Y-25717500D02*
X230187500Y-23177500D01*
D25*
X225107500Y-201930000D02*
X223837500Y-200660000D01*
X225107500Y-180340000D02*
X228917500Y-176530000D01*
X223837500Y-181610000D02*
X225107500Y-180340000D01*
X223837500Y-200660000D02*
X223837500Y-181610000D01*
D22*
X298767500Y-23177500D02*
X298767500Y-38417500D01*
X297497500Y-39687500D02*
X298767500Y-38417500D01*
X255270000Y-172720000D02*
X255270000Y-149860000D01*
X255270000Y-173990000D02*
X255270000Y-172720000D01*
X254000000Y-175260000D02*
X255270000Y-173990000D01*
X298767500Y-43180000D02*
X297497500Y-41910000D01*
X298767500Y-149860000D02*
X298767500Y-43180000D01*
X297497500Y-41910000D02*
X297497500Y-39687500D01*
X161607500Y-23177500D02*
X161607500Y-33972500D01*
X160655000Y-34925000D02*
X161607500Y-33972500D01*
X240030000Y-133350000D02*
X238760000Y-134620000D01*
X241935000Y-160020000D02*
X240030000Y-158115000D01*
X241935000Y-160020000D02*
X241935000Y-173037500D01*
X238760000Y-156845000D02*
X240030000Y-158115000D01*
X238760000Y-134620000D02*
X238760000Y-156845000D01*
X160655000Y-133350000D02*
X160655000Y-34925000D01*
X241935000Y-172720000D02*
X241935000Y-173037500D01*
X241935000Y-173037500D02*
X241935000Y-179070000D01*
X240665000Y-180340000D02*
X241935000Y-179070000D01*
D25*
X226377500Y-184150000D02*
X228917500Y-181610000D01*
X226377500Y-203200000D02*
X226377500Y-184150000D01*
X225107500Y-204470000D02*
X226377500Y-203200000D01*
D22*
X264477500Y-23177500D02*
X264477500Y-167640000D01*
X251460000Y-172720000D02*
X251460000Y-167690798D01*
X250190000Y-185420000D02*
X251460000Y-184150000D01*
X251460000Y-184150000D02*
X251460000Y-172720000D01*
X237172500Y-159067500D02*
X235902500Y-157797500D01*
X235902500Y-113030000D02*
X237172500Y-111760000D01*
X235902500Y-157797500D02*
X235902500Y-113030000D01*
X238125000Y-160020000D02*
X238125000Y-172669202D01*
X237172500Y-159067500D02*
X238125000Y-160020000D01*
X238442500Y-45720000D02*
X238442500Y-110490000D01*
X238442500Y-110490000D02*
X237172500Y-111760000D01*
X127317500Y-23177500D02*
X127317500Y-45720000D01*
X238125000Y-180340000D02*
X238125000Y-179070000D01*
X236855000Y-190500000D02*
X238125000Y-189230000D01*
X238125000Y-189230000D02*
X238125000Y-180340000D01*
X238125000Y-179070000D02*
X238125000Y-172720000D01*
D25*
X227647500Y-193040000D02*
X228917500Y-191770000D01*
X227647500Y-204470000D02*
X227647500Y-193040000D01*
X226377500Y-205740000D02*
X227647500Y-204470000D01*
X226377500Y-208280000D02*
X226377500Y-205740000D01*
X225107500Y-209550000D02*
X226377500Y-208280000D01*
D22*
X280352500Y-48260000D02*
X280352500Y-63500000D01*
X251460000Y-198120000D02*
X252730000Y-196850000D01*
X252730000Y-172720000D02*
X252730000Y-196850000D01*
X281622500Y-46990000D02*
X280352500Y-48260000D01*
X281622500Y-46990000D02*
X281622500Y-39687500D01*
X252730000Y-137160000D02*
X252730000Y-172720000D01*
X253047500Y-136842500D02*
X252730000Y-137160000D01*
X253047500Y-63500000D02*
X253047500Y-136842500D01*
D26*
X280352500Y-38417500D02*
X280352500Y-40957500D01*
D22*
X280352500Y-38417500D02*
X281622500Y-37147500D01*
X239395000Y-172720000D02*
X239395000Y-159385000D01*
X239395000Y-201930000D02*
X239395000Y-179705000D01*
X239395000Y-179705000D02*
X239395000Y-178435000D01*
X239395000Y-178435000D02*
X239395000Y-172720000D01*
X238125000Y-203200000D02*
X239395000Y-201930000D01*
X237490000Y-157480000D02*
X237490000Y-125730000D01*
X239395000Y-159385000D02*
X237490000Y-157480000D01*
X144462500Y-125730000D02*
X144462500Y-39687500D01*
D25*
X227647500Y-205740000D02*
X228917500Y-204470000D01*
X227647500Y-212090000D02*
X227647500Y-205740000D01*
X225107500Y-214630000D02*
X227647500Y-212090000D01*
D22*
X248920000Y-164465000D02*
X248920000Y-139700000D01*
X248920000Y-139700000D02*
X247332500Y-138112500D01*
X248920000Y-168910000D02*
X248920000Y-164465000D01*
X250190000Y-170180000D02*
X248920000Y-168910000D01*
X250190000Y-170180000D02*
X250190000Y-172720000D01*
X247650000Y-208280000D02*
X248920000Y-207010000D01*
X248920000Y-207010000D02*
X248920000Y-184785000D01*
X248920000Y-184785000D02*
X250190000Y-183515000D01*
X250190000Y-183515000D02*
X250190000Y-172720000D01*
X247332500Y-138112500D02*
X247332500Y-39687500D01*
X110172500Y-39687500D02*
X110172500Y-162560000D01*
X236855000Y-162560000D02*
X236855000Y-172669202D01*
X236855000Y-212090000D02*
X236855000Y-203200000D01*
X235585000Y-213360000D02*
X236855000Y-212090000D01*
X236855000Y-179705000D02*
X236855000Y-172720000D01*
X236855000Y-180975000D02*
X236855000Y-179705000D01*
X236855000Y-188277500D02*
X236855000Y-180975000D01*
X235585000Y-189547500D02*
X236855000Y-188277500D01*
X235585000Y-201930000D02*
X235585000Y-189547500D01*
X236855000Y-203200000D02*
X235585000Y-201930000D01*
D25*
X227647500Y-217170000D02*
X227647500Y-215900000D01*
X227647500Y-215900000D02*
X228917500Y-214630000D01*
X225107500Y-219710000D02*
X227647500Y-217170000D01*
X237807500Y-258445000D02*
X237807500Y-222250000D01*
X240347500Y-255905000D02*
X240347500Y-224790000D01*
X242887500Y-253365000D02*
X242887500Y-227330000D01*
X245427500Y-250825000D02*
X245427500Y-229870000D01*
X247967500Y-248285000D02*
X247967500Y-233680000D01*
X235267500Y-250825000D02*
X236537500Y-249555000D01*
X235267500Y-238125000D02*
X235267500Y-226060000D01*
X236537500Y-239395000D02*
X235267500Y-238125000D01*
X236537500Y-249555000D02*
X236537500Y-239395000D01*
D22*
X42862500Y-38417500D02*
X44132500Y-37147500D01*
D26*
X42862500Y-42862500D02*
X42862500Y-38417500D01*
D22*
X44132500Y-40005000D02*
X44132500Y-154305000D01*
X270510000Y-214630000D02*
X269240000Y-213360000D01*
X269240000Y-213360000D02*
X269240000Y-172720000D01*
X269240000Y-154940000D02*
X269240000Y-172720000D01*
X44132500Y-154305000D02*
X44132500Y-154940000D01*
D25*
X299402500Y-219710000D02*
X296862500Y-217170000D01*
X296862500Y-215900000D02*
X295592500Y-214630000D01*
X296862500Y-217170000D02*
X296862500Y-215900000D01*
D26*
X180022500Y-40957500D02*
X180022500Y-38417500D01*
D22*
X180022500Y-38417500D02*
X181292500Y-37147500D01*
X180022500Y-40957500D02*
X180022500Y-42862500D01*
X283210000Y-160655000D02*
X283210000Y-169545000D01*
X281305000Y-185420000D02*
X282575000Y-184150000D01*
X282575000Y-184150000D02*
X282575000Y-172720000D01*
X282575000Y-209550000D02*
X281305000Y-208280000D01*
X281305000Y-208280000D02*
X281305000Y-185420000D01*
X284480000Y-159385000D02*
X283210000Y-160655000D01*
X181292500Y-58420000D02*
X180340000Y-59372500D01*
X180340000Y-59372500D02*
X180340000Y-157480000D01*
X181292500Y-58420000D02*
X181292500Y-39687500D01*
X284480000Y-157480000D02*
X284480000Y-159385000D01*
X282575000Y-170180000D02*
X282575000Y-172720000D01*
X283210000Y-169545000D02*
X282575000Y-170180000D01*
D26*
X77152500Y-38417500D02*
X77152500Y-42862500D01*
D22*
X77152500Y-38417500D02*
X78422500Y-37147500D01*
X271462500Y-152717500D02*
X271780000Y-153035000D01*
X271462500Y-145415000D02*
X271462500Y-151396702D01*
X272732500Y-119380000D02*
X272732500Y-144145000D01*
X272732500Y-144145000D02*
X271462500Y-145415000D01*
X78422500Y-39687500D02*
X78422500Y-119380000D01*
X271780000Y-153035000D02*
X271780000Y-172669202D01*
X271462500Y-151396702D02*
X271462500Y-152717500D01*
X271780000Y-189865000D02*
X271780000Y-172720000D01*
X273050000Y-203200000D02*
X273050000Y-191135000D01*
X274320000Y-204470000D02*
X273050000Y-203200000D01*
X273050000Y-191135000D02*
X271780000Y-189865000D01*
D25*
X296862500Y-205740000D02*
X295592500Y-204470000D01*
X296862500Y-212090000D02*
X296862500Y-205740000D01*
X299402500Y-214630000D02*
X296862500Y-212090000D01*
D26*
X214312500Y-40957500D02*
X214312500Y-38417500D01*
D22*
X214312500Y-38417500D02*
X215582500Y-37147500D01*
X214312500Y-40957500D02*
X214312500Y-42862500D01*
X286385000Y-170180000D02*
X286385000Y-167957500D01*
X292417500Y-161925000D02*
X286702500Y-167640000D01*
X292417500Y-99695000D02*
X292417500Y-159969202D01*
X293687500Y-98425000D02*
X292417500Y-99695000D01*
X215582500Y-39687500D02*
X215582500Y-93980000D01*
X214630000Y-94932500D02*
X214630000Y-96520000D01*
X215582500Y-93980000D02*
X214630000Y-94932500D01*
X293687500Y-96520000D02*
X293687500Y-98425000D01*
X292417500Y-159969202D02*
X292417500Y-161925000D01*
X285115000Y-171450000D02*
X286385000Y-170180000D01*
X285115000Y-198120000D02*
X285115000Y-172720000D01*
X286385000Y-199390000D02*
X285115000Y-198120000D01*
X285115000Y-172720000D02*
X285115000Y-171450000D01*
X286385000Y-167957500D02*
X286702500Y-167640000D01*
X270192500Y-153352500D02*
X270192500Y-140335000D01*
X61277500Y-136525000D02*
X61277500Y-23177500D01*
X61277500Y-136525000D02*
X61277500Y-137160000D01*
X271462500Y-139065000D02*
X271462500Y-137160000D01*
X270192500Y-140335000D02*
X271462500Y-139065000D01*
X270192500Y-153352500D02*
X270510000Y-153670000D01*
X270510000Y-153670000D02*
X270192500Y-153352500D01*
X271780000Y-191770000D02*
X270510000Y-190500000D01*
X270510000Y-190500000D02*
X270510000Y-172720000D01*
X270510000Y-154940000D02*
X270510000Y-172720000D01*
X270510000Y-154940000D02*
X270510000Y-153670000D01*
D25*
X296862500Y-204470000D02*
X296862500Y-193040000D01*
X298132500Y-205740000D02*
X296862500Y-204470000D01*
X296862500Y-193040000D02*
X295592500Y-191770000D01*
X298132500Y-208280000D02*
X298132500Y-205740000D01*
X299402500Y-209550000D02*
X298132500Y-208280000D01*
D22*
X289877500Y-155575000D02*
X289877500Y-68580000D01*
X198437500Y-66040000D02*
X197802500Y-66675000D01*
X197802500Y-66675000D02*
X197802500Y-68580000D01*
X198437500Y-23177500D02*
X198437500Y-66040000D01*
X289877500Y-157480000D02*
X289877500Y-155575000D01*
X284797500Y-162560000D02*
X286067500Y-161290000D01*
X284797500Y-169862500D02*
X283845000Y-170815000D01*
X283845000Y-185521598D02*
X283845000Y-172720000D01*
X282676598Y-186690000D02*
X283845000Y-185521598D01*
X282575000Y-186690000D02*
X282676598Y-186690000D01*
X283845000Y-170815000D02*
X283845000Y-172720000D01*
X284797500Y-169862500D02*
X284797500Y-162560000D01*
X286067500Y-161290000D02*
X289877500Y-157480000D01*
X276542500Y-101600000D02*
X276542500Y-103505000D01*
X274320000Y-181610000D02*
X273050000Y-180340000D01*
X273050000Y-180340000D02*
X273050000Y-172720000D01*
X95567500Y-101600000D02*
X95567500Y-23177500D01*
X273050000Y-150812500D02*
X273050000Y-172720000D01*
X275272500Y-148590000D02*
X273050000Y-150812500D01*
X275272500Y-104775000D02*
X275272500Y-148590000D01*
X276542500Y-103505000D02*
X275272500Y-104775000D01*
D25*
X295592500Y-181610000D02*
X298132500Y-184150000D01*
X298132500Y-184150000D02*
X298132500Y-203200000D01*
X298132500Y-203200000D02*
X299402500Y-204470000D01*
X299402500Y-201930000D02*
X300672500Y-200660000D01*
X299402500Y-180340000D02*
X295592500Y-176530000D01*
X300672500Y-181610000D02*
X299402500Y-180340000D01*
X300672500Y-198120000D02*
X300672500Y-181610000D01*
X300672500Y-200660000D02*
X300672500Y-198120000D01*
D22*
X286385000Y-172720000D02*
X286435798Y-172720000D01*
X294957500Y-146685000D02*
X294957500Y-156845000D01*
X232727500Y-104140000D02*
X232092500Y-104775000D01*
X232092500Y-104775000D02*
X232092500Y-106680000D01*
X294957500Y-106680000D02*
X294957500Y-146685000D01*
X232727500Y-23177500D02*
X232727500Y-104140000D01*
X294957500Y-156845000D02*
X293687500Y-158115000D01*
X287655000Y-176530000D02*
X286385000Y-175260000D01*
X286385000Y-175260000D02*
X286385000Y-172720000D01*
X293687500Y-158115000D02*
X293687500Y-164147500D01*
X287655000Y-170180000D02*
X293687500Y-164147500D01*
X287655000Y-171500798D02*
X287655000Y-170180000D01*
X286435798Y-172720000D02*
X287655000Y-171500798D01*
D25*
X263842500Y-180340000D02*
X262572500Y-181610000D01*
X267652500Y-176530000D02*
X263842500Y-180340000D01*
X262572500Y-200660000D02*
X263842500Y-201930000D01*
X262572500Y-181610000D02*
X262572500Y-200660000D01*
D22*
X294005000Y-172720000D02*
X294957500Y-171767500D01*
X292735000Y-175260000D02*
X294005000Y-173990000D01*
X294005000Y-173990000D02*
X294005000Y-172720000D01*
X301307500Y-168275000D02*
X301307500Y-23177500D01*
X301307500Y-170815000D02*
X301307500Y-168275000D01*
X300355000Y-171767500D02*
X301307500Y-170815000D01*
X294957500Y-171767500D02*
X300355000Y-171767500D01*
D26*
X282892500Y-35877500D02*
X282892500Y-40957500D01*
D22*
X164147500Y-23177500D02*
X164147500Y-28892500D01*
X282892500Y-35877500D02*
X282892500Y-28892500D01*
X284480000Y-42545000D02*
X282892500Y-40957500D01*
X279400000Y-152400000D02*
X279400000Y-171450000D01*
X279400000Y-180340000D02*
X280670000Y-179070000D01*
X280670000Y-172720000D02*
X280670000Y-179070000D01*
X280670000Y-151130000D02*
X284480000Y-147320000D01*
X284480000Y-147320000D02*
X284480000Y-46990000D01*
X279400000Y-152400000D02*
X280670000Y-151130000D01*
X279400000Y-171450000D02*
X280670000Y-172720000D01*
X284480000Y-46990000D02*
X284480000Y-42545000D01*
D25*
X263842500Y-204470000D02*
X265112500Y-203200000D01*
X265112500Y-203200000D02*
X265112500Y-184150000D01*
X265112500Y-184150000D02*
X267652500Y-181610000D01*
D22*
X293052500Y-169227500D02*
X295910000Y-169227500D01*
X267017500Y-23177500D02*
X267017500Y-149860000D01*
X266065000Y-150812500D02*
X266065000Y-167640000D01*
X267017500Y-149860000D02*
X266065000Y-150812500D01*
X288925000Y-185420000D02*
X290195000Y-184150000D01*
X290195000Y-184150000D02*
X290195000Y-172720000D01*
X290195000Y-172720000D02*
X290195000Y-172085000D01*
X293052500Y-169227500D02*
X290195000Y-172085000D01*
X295910000Y-169227500D02*
X297497500Y-167640000D01*
X129857500Y-23177500D02*
X129857500Y-42862500D01*
X129857500Y-42862500D02*
X129857500Y-66040000D01*
X280352500Y-69215000D02*
X280352500Y-71755000D01*
X276860000Y-172720000D02*
X276860000Y-151130000D01*
X276860000Y-179070000D02*
X276860000Y-172720000D01*
X276860000Y-189230000D02*
X276860000Y-180340000D01*
X275590000Y-190500000D02*
X276860000Y-189230000D01*
X276860000Y-180340000D02*
X276860000Y-179070000D01*
X280352500Y-147637500D02*
X280352500Y-73660000D01*
X276860000Y-151130000D02*
X280352500Y-147637500D01*
X280352500Y-71755000D02*
X280352500Y-73660000D01*
X281622500Y-67945000D02*
X280352500Y-69215000D01*
X281622500Y-66040000D02*
X281622500Y-67945000D01*
D25*
X263842500Y-209550000D02*
X265112500Y-208280000D01*
X265112500Y-208280000D02*
X265112500Y-205740000D01*
X265112500Y-205740000D02*
X266382500Y-204470000D01*
X266382500Y-204470000D02*
X266382500Y-193040000D01*
X266382500Y-193040000D02*
X267652500Y-191770000D01*
D22*
X293687500Y-170497500D02*
X299085000Y-170497500D01*
X300037500Y-143510000D02*
X300037500Y-39687500D01*
X293687500Y-170497500D02*
X291465000Y-172720000D01*
X290195000Y-198120000D02*
X291465000Y-196850000D01*
X291465000Y-172720000D02*
X291465000Y-196850000D01*
X300037500Y-169545000D02*
X300037500Y-143510000D01*
X299085000Y-170497500D02*
X300037500Y-169545000D01*
X282892500Y-48260000D02*
X282892500Y-147002500D01*
X147002500Y-39687500D02*
X147002500Y-48260000D01*
X276860000Y-203200000D02*
X278130000Y-201930000D01*
X278130000Y-178435000D02*
X278130000Y-172720000D01*
X278130000Y-179705000D02*
X278130000Y-178435000D01*
X278130000Y-201930000D02*
X278130000Y-179705000D01*
X278130000Y-151765000D02*
X278130000Y-172720000D01*
X282892500Y-147002500D02*
X278130000Y-151765000D01*
D25*
X263842500Y-214630000D02*
X266382500Y-212090000D01*
X266382500Y-212090000D02*
X266382500Y-205740000D01*
X266382500Y-205740000D02*
X267652500Y-204470000D01*
D22*
X145732500Y-38417500D02*
X147002500Y-37147500D01*
D26*
X145732500Y-38417500D02*
X145732500Y-42862500D01*
D22*
X249872500Y-132080000D02*
X249237500Y-132715000D01*
X296545000Y-163830000D02*
X292735000Y-167640000D01*
X288925000Y-172720000D02*
X288925000Y-171450000D01*
X286385000Y-208280000D02*
X287655000Y-207010000D01*
X287655000Y-207010000D02*
X287655000Y-184785000D01*
X287655000Y-184785000D02*
X288925000Y-183515000D01*
X288925000Y-183515000D02*
X288925000Y-172720000D01*
X288925000Y-171450000D02*
X292735000Y-167640000D01*
X249872500Y-132080000D02*
X249872500Y-39687500D01*
X297815000Y-162560000D02*
X296545000Y-163830000D01*
X250190000Y-138112500D02*
X250190000Y-162560000D01*
X249237500Y-137160000D02*
X250190000Y-138112500D01*
X249237500Y-132715000D02*
X249237500Y-137160000D01*
X249872500Y-37147500D02*
X248602500Y-38417500D01*
X248602500Y-42862500D02*
X248602500Y-40957500D01*
D26*
X248602500Y-40957500D02*
X248602500Y-38417500D01*
D22*
X275590000Y-150495000D02*
X275590000Y-172720000D01*
X275590000Y-203200000D02*
X274320000Y-201930000D01*
X274320000Y-201930000D02*
X274320000Y-189547500D01*
X274320000Y-189547500D02*
X275590000Y-188277500D01*
X275590000Y-188277500D02*
X275590000Y-180975000D01*
X275590000Y-180975000D02*
X275590000Y-179705000D01*
X275590000Y-179705000D02*
X275590000Y-172720000D01*
X274320000Y-213360000D02*
X275590000Y-212090000D01*
X275590000Y-212090000D02*
X275590000Y-203200000D01*
X277812500Y-83820000D02*
X277812500Y-139065000D01*
X277812500Y-139065000D02*
X276542500Y-140335000D01*
X276542500Y-140335000D02*
X276542500Y-149542500D01*
X276542500Y-149542500D02*
X275590000Y-150495000D01*
X112712500Y-83820000D02*
X112712500Y-39687500D01*
D25*
X263842500Y-219710000D02*
X266382500Y-217170000D01*
X266382500Y-215900000D02*
X267652500Y-214630000D01*
X266382500Y-217170000D02*
X266382500Y-215900000D01*
D22*
X112712500Y-37147500D02*
X111442500Y-38417500D01*
D26*
X111442500Y-38417500D02*
X111442500Y-42862500D01*
D25*
X266382500Y-223520000D02*
X267652500Y-222250000D01*
X266382500Y-245745000D02*
X266382500Y-223520000D01*
X268922500Y-226060000D02*
X267652500Y-224790000D01*
X268922500Y-243205000D02*
X268922500Y-226060000D01*
X271462500Y-240665000D02*
X271462500Y-227330000D01*
X250507500Y-239395000D02*
X250507500Y-231140000D01*
X253047500Y-241935000D02*
X253047500Y-233680000D01*
X130175000Y-264795000D02*
X130175000Y-245110000D01*
X130175000Y-245110000D02*
X131445000Y-243840000D01*
X132715000Y-267335000D02*
X132715000Y-245110000D01*
X132715000Y-245110000D02*
X133985000Y-243840000D01*
X122555000Y-266065000D02*
X122555000Y-245110000D01*
X122555000Y-245110000D02*
X123825000Y-243840000D01*
X125095000Y-268605000D02*
X125095000Y-245110000D01*
X125095000Y-245110000D02*
X126365000Y-243840000D01*
X131445000Y-264795000D02*
X131445000Y-261620000D01*
X170497500Y-266065000D02*
X170497500Y-260985000D01*
X173037500Y-268605000D02*
X170497500Y-266065000D01*
X249237500Y-264795000D02*
X249237500Y-259715000D01*
X250507500Y-266065000D02*
X249237500Y-264795000D01*
X126365000Y-266065000D02*
X126365000Y-261620000D01*
X127635000Y-249555000D02*
X127635000Y-245110000D01*
X41592500Y-245745000D02*
X42862500Y-247015000D01*
X42862500Y-247015000D02*
X42862500Y-249555000D01*
X127635000Y-245110000D02*
X128905000Y-243840000D01*
X253365000Y-259715000D02*
X255905000Y-262255000D01*
X253365000Y-247015000D02*
X253365000Y-259715000D01*
X255905000Y-259715000D02*
X257175000Y-258445000D01*
X257175000Y-258445000D02*
X257175000Y-254635000D01*
X218757500Y-250825000D02*
X218757500Y-254635000D01*
X188277500Y-254635000D02*
X188277500Y-250825000D01*
X128905000Y-245745000D02*
X128905000Y-261620000D01*
X139065000Y-244475000D02*
X139065000Y-258445000D01*
X200748900Y-259572125D02*
X199336025Y-260985000D01*
X193992500Y-259715000D02*
X195262500Y-260985000D01*
X159067500Y-258445000D02*
X160337500Y-259715000D01*
X158432500Y-252095000D02*
X159067500Y-252730000D01*
X156845000Y-252095000D02*
X158432500Y-252095000D01*
X118745000Y-253365000D02*
X118745000Y-261620000D01*
X159067500Y-252730000D02*
X159067500Y-258445000D01*
X160337500Y-259715000D02*
X193992500Y-259715000D01*
X199336025Y-260985000D02*
X195262500Y-260985000D01*
X200660000Y-259483225D02*
X200660000Y-254317500D01*
X200660000Y-259483225D02*
X200748900Y-259572125D01*
X203517500Y-252815725D02*
X203517500Y-249555000D01*
X116205000Y-250825000D02*
X116205000Y-261620000D01*
X203517500Y-252815725D02*
X203517500Y-259572125D01*
D27*
X272732500Y-261302500D02*
X272732500Y-259080000D01*
X272710000Y-259057500D02*
X272732500Y-259080000D01*
X272710000Y-259057500D02*
X272710000Y-256540000D01*
D22*
X279710000Y-256540000D02*
X279717500Y-256540000D01*
D28*
G36*
X274256500Y-262826500D02*
X272441302Y-262826500D01*
X271208500Y-261593698D01*
X271208500Y-257296985D01*
X272042817Y-257296985D01*
X272122709Y-257456370D01*
X272518093Y-257611362D01*
X272942694Y-257603249D01*
X273297291Y-257456370D01*
X273377183Y-257296985D01*
X272710000Y-256629803D01*
X272042817Y-257296985D01*
X271208500Y-257296985D01*
X271208500Y-256348093D01*
X271638638Y-256348093D01*
X271646751Y-256772694D01*
X271793630Y-257127291D01*
X271953015Y-257207183D01*
X272620197Y-256540000D01*
X272799803Y-256540000D01*
X273466985Y-257207183D01*
X273626370Y-257127291D01*
X273781362Y-256731907D01*
X273773249Y-256307306D01*
X273626370Y-255952709D01*
X273466985Y-255872817D01*
X272799803Y-256540000D01*
X272620197Y-256540000D01*
X271953015Y-255872817D01*
X271793630Y-255952709D01*
X271638638Y-256348093D01*
X271208500Y-256348093D01*
X271208500Y-255783015D01*
X272042817Y-255783015D01*
X272710000Y-256450197D01*
X273377183Y-255783015D01*
X273297291Y-255623630D01*
X272901907Y-255468638D01*
X272477306Y-255476751D01*
X272122709Y-255623630D01*
X272042817Y-255783015D01*
X271208500Y-255783015D01*
X271208500Y-254698500D01*
X274256500Y-254698500D01*
X274256500Y-262826500D01*
X274256500Y-262826500D01*
G37*
X274256500Y-262826500D02*
X272441302Y-262826500D01*
X271208500Y-261593698D01*
X271208500Y-257296985D01*
X272042817Y-257296985D01*
X272122709Y-257456370D01*
X272518093Y-257611362D01*
X272942694Y-257603249D01*
X273297291Y-257456370D01*
X273377183Y-257296985D01*
X272710000Y-256629803D01*
X272042817Y-257296985D01*
X271208500Y-257296985D01*
X271208500Y-256348093D01*
X271638638Y-256348093D01*
X271646751Y-256772694D01*
X271793630Y-257127291D01*
X271953015Y-257207183D01*
X272620197Y-256540000D01*
X272799803Y-256540000D01*
X273466985Y-257207183D01*
X273626370Y-257127291D01*
X273781362Y-256731907D01*
X273773249Y-256307306D01*
X273626370Y-255952709D01*
X273466985Y-255872817D01*
X272799803Y-256540000D01*
X272620197Y-256540000D01*
X271953015Y-255872817D01*
X271793630Y-255952709D01*
X271638638Y-256348093D01*
X271208500Y-256348093D01*
X271208500Y-255783015D01*
X272042817Y-255783015D01*
X272710000Y-256450197D01*
X273377183Y-255783015D01*
X273297291Y-255623630D01*
X272901907Y-255468638D01*
X272477306Y-255476751D01*
X272122709Y-255623630D01*
X272042817Y-255783015D01*
X271208500Y-255783015D01*
X271208500Y-254698500D01*
X274256500Y-254698500D01*
X274256500Y-262826500D01*
D29*
G36*
X270700500Y-261937500D02*
X270710506Y-261986910D01*
X270737697Y-262027303D01*
X272007697Y-263297303D01*
X272049711Y-263325166D01*
X272097500Y-263334500D01*
X274193000Y-263334500D01*
X274193000Y-269748000D01*
X267462000Y-269748000D01*
X267462000Y-266736002D01*
X267912719Y-266736396D01*
X268753223Y-266389106D01*
X269396846Y-265746605D01*
X269745602Y-264906708D01*
X269746396Y-263997281D01*
X269399106Y-263156777D01*
X268756605Y-262513154D01*
X267916708Y-262164398D01*
X267462000Y-262164001D01*
X267462000Y-257511517D01*
X268418088Y-257511517D01*
X268486077Y-257752460D01*
X269005171Y-257937201D01*
X269555448Y-257909230D01*
X269933923Y-257752460D01*
X270001912Y-257511517D01*
X269210000Y-256719605D01*
X268418088Y-257511517D01*
X267462000Y-257511517D01*
X267462000Y-256335171D01*
X267812799Y-256335171D01*
X267840770Y-256885448D01*
X267997540Y-257263923D01*
X268238483Y-257331912D01*
X269030395Y-256540000D01*
X269389605Y-256540000D01*
X270181517Y-257331912D01*
X270422460Y-257263923D01*
X270607201Y-256744829D01*
X270579230Y-256194552D01*
X270422460Y-255816077D01*
X270181517Y-255748088D01*
X269389605Y-256540000D01*
X269030395Y-256540000D01*
X268238483Y-255748088D01*
X267997540Y-255816077D01*
X267812799Y-256335171D01*
X267462000Y-256335171D01*
X267462000Y-255568483D01*
X268418088Y-255568483D01*
X269210000Y-256360395D01*
X270001912Y-255568483D01*
X269933923Y-255327540D01*
X269414829Y-255142799D01*
X268864552Y-255170770D01*
X268486077Y-255327540D01*
X268418088Y-255568483D01*
X267462000Y-255568483D01*
X267462000Y-254762000D01*
X270700500Y-254762000D01*
X270700500Y-261937500D01*
X270700500Y-261937500D01*
G37*
X270700500Y-261937500D02*
X270710506Y-261986910D01*
X270737697Y-262027303D01*
X272007697Y-263297303D01*
X272049711Y-263325166D01*
X272097500Y-263334500D01*
X274193000Y-263334500D01*
X274193000Y-269748000D01*
X267462000Y-269748000D01*
X267462000Y-266736002D01*
X267912719Y-266736396D01*
X268753223Y-266389106D01*
X269396846Y-265746605D01*
X269745602Y-264906708D01*
X269746396Y-263997281D01*
X269399106Y-263156777D01*
X268756605Y-262513154D01*
X267916708Y-262164398D01*
X267462000Y-262164001D01*
X267462000Y-257511517D01*
X268418088Y-257511517D01*
X268486077Y-257752460D01*
X269005171Y-257937201D01*
X269555448Y-257909230D01*
X269933923Y-257752460D01*
X270001912Y-257511517D01*
X269210000Y-256719605D01*
X268418088Y-257511517D01*
X267462000Y-257511517D01*
X267462000Y-256335171D01*
X267812799Y-256335171D01*
X267840770Y-256885448D01*
X267997540Y-257263923D01*
X268238483Y-257331912D01*
X269030395Y-256540000D01*
X269389605Y-256540000D01*
X270181517Y-257331912D01*
X270422460Y-257263923D01*
X270607201Y-256744829D01*
X270579230Y-256194552D01*
X270422460Y-255816077D01*
X270181517Y-255748088D01*
X269389605Y-256540000D01*
X269030395Y-256540000D01*
X268238483Y-255748088D01*
X267997540Y-255816077D01*
X267812799Y-256335171D01*
X267462000Y-256335171D01*
X267462000Y-255568483D01*
X268418088Y-255568483D01*
X269210000Y-256360395D01*
X270001912Y-255568483D01*
X269933923Y-255327540D01*
X269414829Y-255142799D01*
X268864552Y-255170770D01*
X268486077Y-255327540D01*
X268418088Y-255568483D01*
X267462000Y-255568483D01*
X267462000Y-254762000D01*
X270700500Y-254762000D01*
X270700500Y-261937500D01*
M02*
