M48
;DRILL file {KiCad 4.0.3+e1-6302~38~ubuntu14.04.1-stable} date Fri Aug 19 15:34:02 2016
;FORMAT={2:4/ absolute / inch / keep zeros}
FMAT,2
INCH,TZ
T1C0.006
T2C0.012
T3C0.025
T4C0.032
%
G90
G05
M72
T1
X062500Y-048000
X062500Y-048500
X062750Y-039000
X062750Y-050200
X062750Y-050750
X063000Y-037000
X063000Y-046500
X063250Y-041000
X063250Y-050200
X063500Y-035000
X063500Y-046500
X063750Y-043000
X063750Y-050200
X064000Y-033000
X064000Y-046500
X064250Y-045000
X064250Y-050200
X064500Y-031000
X064500Y-046500
X064500Y-051250
X064750Y-046500
X064950Y-050200
X065000Y-046500
X065000Y-048500
X065250Y-046500
X065250Y-048000
X065250Y-048250
X065250Y-050200
X065500Y-046500
X065500Y-048500
X065500Y-050200
X065500Y-051250
X065750Y-050200
X065750Y-051250
X066000Y-046500
X066500Y-046500
X066500Y-047875
X069500Y-029000
X069500Y-046250
X069750Y-043000
X069750Y-050400
X070000Y-031000
X070000Y-046000
X070250Y-041000
X070250Y-050600
X070500Y-033000
X070500Y-045750
X070750Y-039000
X070750Y-050800
X071000Y-035000
X071000Y-045500
X071250Y-037000
X071250Y-051000
X072000Y-046250
T2
X062500Y-028500
X062500Y-030500
X062500Y-032500
X062500Y-034500
X062500Y-036500
X062500Y-038500
X062500Y-040500
X062500Y-042500
X062850Y-051250
X066000Y-029500
X066000Y-031500
X066000Y-033500
X066000Y-035500
X066000Y-037100
X066000Y-037500
X066000Y-039500
X066000Y-041500
X066000Y-043500
X066150Y-028300
X066500Y-048500
X067000Y-045250
X067000Y-047750
X067000Y-049500
X067050Y-051250
X068000Y-030500
X068000Y-032500
X068000Y-034500
X068000Y-036500
X068000Y-038500
X068000Y-040500
X068000Y-042500
X068000Y-044500
X068400Y-045050
X068650Y-051250
X070000Y-050000
X070250Y-051250
X070500Y-050000
X070750Y-051250
X071000Y-050000
X071500Y-028500
X071500Y-030500
X071500Y-032500
X071500Y-034500
X071500Y-036500
X071500Y-038500
X071500Y-040500
X071500Y-042500
T3
X067500Y-047500
X067500Y-049500
X068000Y-047500
X068000Y-049500
X068500Y-047500
X068500Y-049500
T4
X061500Y-029000
X061500Y-030000
X061500Y-031000
X061500Y-032000
X061500Y-033000
X061500Y-034000
X061500Y-035000
X061500Y-036000
X061500Y-037000
X061500Y-038000
X061500Y-039000
X061500Y-040000
X061500Y-041000
X061500Y-042000
X061500Y-043000
X061500Y-044000
X061500Y-045000
X061500Y-046000
X061500Y-047000
X061500Y-048000
X061500Y-049000
X061500Y-050000
X061500Y-051000
X061500Y-052000
X061500Y-053000
X062500Y-052000
X062500Y-053000
X063500Y-052000
X063500Y-053000
X064500Y-052000
X064500Y-053000
X065500Y-052000
X065500Y-053000
X066500Y-052000
X066500Y-053000
X067500Y-052000
X067500Y-053000
X068500Y-052000
X068500Y-053000
X069500Y-052000
X069500Y-053000
X070500Y-052000
X070500Y-053000
X071500Y-052000
X071500Y-053000
X072500Y-029000
X072500Y-030000
X072500Y-031000
X072500Y-032000
X072500Y-033000
X072500Y-034000
X072500Y-035000
X072500Y-036000
X072500Y-037000
X072500Y-038000
X072500Y-039000
X072500Y-040000
X072500Y-041000
X072500Y-042000
X072500Y-043000
X072500Y-044000
X072500Y-045000
X072500Y-046000
X072500Y-047000
X072500Y-048000
X072500Y-049000
X072500Y-050000
X072500Y-051000
X072500Y-052000
X072500Y-053000
T0
M30
