G04 #@! TF.GenerationSoftware,KiCad,Pcbnew,5.1.5+dfsg1-2build2*
G04 #@! TF.CreationDate,2020-08-06T15:55:44-04:00*
G04 #@! TF.ProjectId,Motor_Board,4d6f746f-725f-4426-9f61-72642e6b6963,rev?*
G04 #@! TF.SameCoordinates,Original*
G04 #@! TF.FileFunction,Legend,Bot*
G04 #@! TF.FilePolarity,Positive*
%FSLAX46Y46*%
G04 Gerber Fmt 4.6, Leading zero omitted, Abs format (unit mm)*
G04 Created by KiCad (PCBNEW 5.1.5+dfsg1-2build2) date 2020-08-06 15:55:44*
%MOMM*%
%LPD*%
G04 APERTURE LIST*
%ADD10C,0.152400*%
%ADD11C,0.120000*%
%ADD12C,0.076200*%
G04 APERTURE END LIST*
D10*
X86682459Y-129209195D02*
X86953392Y-128822147D01*
X87146916Y-129209195D02*
X87146916Y-128396395D01*
X86837278Y-128396395D01*
X86759868Y-128435100D01*
X86721163Y-128473804D01*
X86682459Y-128551214D01*
X86682459Y-128667328D01*
X86721163Y-128744738D01*
X86759868Y-128783442D01*
X86837278Y-128822147D01*
X87146916Y-128822147D01*
X86024478Y-129170490D02*
X86101887Y-129209195D01*
X86256706Y-129209195D01*
X86334116Y-129170490D01*
X86372820Y-129093080D01*
X86372820Y-128783442D01*
X86334116Y-128706033D01*
X86256706Y-128667328D01*
X86101887Y-128667328D01*
X86024478Y-128706033D01*
X85985773Y-128783442D01*
X85985773Y-128860852D01*
X86372820Y-128938261D01*
X85714840Y-128667328D02*
X85521316Y-129209195D01*
X85327792Y-128667328D01*
X85056859Y-128976966D02*
X84669811Y-128976966D01*
X85134268Y-129209195D02*
X84863335Y-128396395D01*
X84592401Y-129209195D01*
X83469963Y-129518833D02*
X83508668Y-129480128D01*
X83586078Y-129364014D01*
X83624782Y-129286604D01*
X83663487Y-129170490D01*
X83702192Y-128976966D01*
X83702192Y-128822147D01*
X83663487Y-128628623D01*
X83624782Y-128512509D01*
X83586078Y-128435100D01*
X83508668Y-128318985D01*
X83469963Y-128280280D01*
X83044211Y-128744738D02*
X83121620Y-128706033D01*
X83160325Y-128667328D01*
X83199030Y-128589919D01*
X83199030Y-128551214D01*
X83160325Y-128473804D01*
X83121620Y-128435100D01*
X83044211Y-128396395D01*
X82889392Y-128396395D01*
X82811982Y-128435100D01*
X82773278Y-128473804D01*
X82734573Y-128551214D01*
X82734573Y-128589919D01*
X82773278Y-128667328D01*
X82811982Y-128706033D01*
X82889392Y-128744738D01*
X83044211Y-128744738D01*
X83121620Y-128783442D01*
X83160325Y-128822147D01*
X83199030Y-128899557D01*
X83199030Y-129054376D01*
X83160325Y-129131785D01*
X83121620Y-129170490D01*
X83044211Y-129209195D01*
X82889392Y-129209195D01*
X82811982Y-129170490D01*
X82773278Y-129131785D01*
X82734573Y-129054376D01*
X82734573Y-128899557D01*
X82773278Y-128822147D01*
X82811982Y-128783442D01*
X82889392Y-128744738D01*
X81805659Y-128357690D02*
X82502344Y-129402719D01*
X81573430Y-128473804D02*
X81534725Y-128435100D01*
X81457316Y-128396395D01*
X81263792Y-128396395D01*
X81186382Y-128435100D01*
X81147678Y-128473804D01*
X81108973Y-128551214D01*
X81108973Y-128628623D01*
X81147678Y-128744738D01*
X81612135Y-129209195D01*
X81108973Y-129209195D01*
X80605811Y-128396395D02*
X80528401Y-128396395D01*
X80450992Y-128435100D01*
X80412287Y-128473804D01*
X80373582Y-128551214D01*
X80334878Y-128706033D01*
X80334878Y-128899557D01*
X80373582Y-129054376D01*
X80412287Y-129131785D01*
X80450992Y-129170490D01*
X80528401Y-129209195D01*
X80605811Y-129209195D01*
X80683220Y-129170490D01*
X80721925Y-129131785D01*
X80760630Y-129054376D01*
X80799335Y-128899557D01*
X80799335Y-128706033D01*
X80760630Y-128551214D01*
X80721925Y-128473804D01*
X80683220Y-128435100D01*
X80605811Y-128396395D01*
X80025240Y-128473804D02*
X79986535Y-128435100D01*
X79909125Y-128396395D01*
X79715601Y-128396395D01*
X79638192Y-128435100D01*
X79599487Y-128473804D01*
X79560782Y-128551214D01*
X79560782Y-128628623D01*
X79599487Y-128744738D01*
X80063944Y-129209195D01*
X79560782Y-129209195D01*
X79057620Y-128396395D02*
X78980211Y-128396395D01*
X78902801Y-128435100D01*
X78864097Y-128473804D01*
X78825392Y-128551214D01*
X78786687Y-128706033D01*
X78786687Y-128899557D01*
X78825392Y-129054376D01*
X78864097Y-129131785D01*
X78902801Y-129170490D01*
X78980211Y-129209195D01*
X79057620Y-129209195D01*
X79135030Y-129170490D01*
X79173735Y-129131785D01*
X79212440Y-129054376D01*
X79251144Y-128899557D01*
X79251144Y-128706033D01*
X79212440Y-128551214D01*
X79173735Y-128473804D01*
X79135030Y-128435100D01*
X79057620Y-128396395D01*
X78515754Y-129518833D02*
X78477049Y-129480128D01*
X78399640Y-129364014D01*
X78360935Y-129286604D01*
X78322230Y-129170490D01*
X78283525Y-128976966D01*
X78283525Y-128822147D01*
X78322230Y-128628623D01*
X78360935Y-128512509D01*
X78399640Y-128435100D01*
X78477049Y-128318985D01*
X78515754Y-128280280D01*
X87146916Y-130580795D02*
X87146916Y-129767995D01*
X86875982Y-130348566D01*
X86605049Y-129767995D01*
X86605049Y-130580795D01*
X86101887Y-130580795D02*
X86179297Y-130542090D01*
X86218001Y-130503385D01*
X86256706Y-130425976D01*
X86256706Y-130193747D01*
X86218001Y-130116338D01*
X86179297Y-130077633D01*
X86101887Y-130038928D01*
X85985773Y-130038928D01*
X85908363Y-130077633D01*
X85869659Y-130116338D01*
X85830954Y-130193747D01*
X85830954Y-130425976D01*
X85869659Y-130503385D01*
X85908363Y-130542090D01*
X85985773Y-130580795D01*
X86101887Y-130580795D01*
X85598725Y-130038928D02*
X85289087Y-130038928D01*
X85482611Y-129767995D02*
X85482611Y-130464680D01*
X85443906Y-130542090D01*
X85366497Y-130580795D01*
X85289087Y-130580795D01*
X84902040Y-130580795D02*
X84979449Y-130542090D01*
X85018154Y-130503385D01*
X85056859Y-130425976D01*
X85056859Y-130193747D01*
X85018154Y-130116338D01*
X84979449Y-130077633D01*
X84902040Y-130038928D01*
X84785925Y-130038928D01*
X84708516Y-130077633D01*
X84669811Y-130116338D01*
X84631106Y-130193747D01*
X84631106Y-130425976D01*
X84669811Y-130503385D01*
X84708516Y-130542090D01*
X84785925Y-130580795D01*
X84902040Y-130580795D01*
X84282763Y-130580795D02*
X84282763Y-130038928D01*
X84282763Y-130193747D02*
X84244059Y-130116338D01*
X84205354Y-130077633D01*
X84127944Y-130038928D01*
X84050535Y-130038928D01*
X82889392Y-130155042D02*
X82773278Y-130193747D01*
X82734573Y-130232452D01*
X82695868Y-130309861D01*
X82695868Y-130425976D01*
X82734573Y-130503385D01*
X82773278Y-130542090D01*
X82850687Y-130580795D01*
X83160325Y-130580795D01*
X83160325Y-129767995D01*
X82889392Y-129767995D01*
X82811982Y-129806700D01*
X82773278Y-129845404D01*
X82734573Y-129922814D01*
X82734573Y-130000223D01*
X82773278Y-130077633D01*
X82811982Y-130116338D01*
X82889392Y-130155042D01*
X83160325Y-130155042D01*
X82231411Y-130580795D02*
X82308820Y-130542090D01*
X82347525Y-130503385D01*
X82386230Y-130425976D01*
X82386230Y-130193747D01*
X82347525Y-130116338D01*
X82308820Y-130077633D01*
X82231411Y-130038928D01*
X82115297Y-130038928D01*
X82037887Y-130077633D01*
X81999182Y-130116338D01*
X81960478Y-130193747D01*
X81960478Y-130425976D01*
X81999182Y-130503385D01*
X82037887Y-130542090D01*
X82115297Y-130580795D01*
X82231411Y-130580795D01*
X81263792Y-130580795D02*
X81263792Y-130155042D01*
X81302497Y-130077633D01*
X81379906Y-130038928D01*
X81534725Y-130038928D01*
X81612135Y-130077633D01*
X81263792Y-130542090D02*
X81341201Y-130580795D01*
X81534725Y-130580795D01*
X81612135Y-130542090D01*
X81650840Y-130464680D01*
X81650840Y-130387271D01*
X81612135Y-130309861D01*
X81534725Y-130271157D01*
X81341201Y-130271157D01*
X81263792Y-130232452D01*
X80876744Y-130580795D02*
X80876744Y-130038928D01*
X80876744Y-130193747D02*
X80838040Y-130116338D01*
X80799335Y-130077633D01*
X80721925Y-130038928D01*
X80644516Y-130038928D01*
X80025240Y-130580795D02*
X80025240Y-129767995D01*
X80025240Y-130542090D02*
X80102649Y-130580795D01*
X80257468Y-130580795D01*
X80334878Y-130542090D01*
X80373582Y-130503385D01*
X80412287Y-130425976D01*
X80412287Y-130193747D01*
X80373582Y-130116338D01*
X80334878Y-130077633D01*
X80257468Y-130038928D01*
X80102649Y-130038928D01*
X80025240Y-130077633D01*
X76867657Y-83602890D02*
X76945066Y-83641595D01*
X77099885Y-83641595D01*
X77177295Y-83602890D01*
X77216000Y-83525480D01*
X77216000Y-83215842D01*
X77177295Y-83138433D01*
X77099885Y-83099728D01*
X76945066Y-83099728D01*
X76867657Y-83138433D01*
X76828952Y-83215842D01*
X76828952Y-83293252D01*
X77216000Y-83370661D01*
X76596723Y-82828795D02*
X76325790Y-83641595D01*
X76054857Y-82828795D01*
X75629104Y-82828795D02*
X75474285Y-82828795D01*
X75396876Y-82867500D01*
X75319466Y-82944909D01*
X75280761Y-83099728D01*
X75280761Y-83370661D01*
X75319466Y-83525480D01*
X75396876Y-83602890D01*
X75474285Y-83641595D01*
X75629104Y-83641595D01*
X75706514Y-83602890D01*
X75783923Y-83525480D01*
X75822628Y-83370661D01*
X75822628Y-83099728D01*
X75783923Y-82944909D01*
X75706514Y-82867500D01*
X75629104Y-82828795D01*
X74545371Y-83641595D02*
X74932419Y-83641595D01*
X74932419Y-82828795D01*
X74390552Y-82828795D02*
X74119619Y-83641595D01*
X73848685Y-82828795D01*
X73577752Y-83215842D02*
X73306819Y-83215842D01*
X73190704Y-83641595D02*
X73577752Y-83641595D01*
X73577752Y-82828795D01*
X73190704Y-82828795D01*
X72377904Y-83641595D02*
X72648838Y-83254547D01*
X72842361Y-83641595D02*
X72842361Y-82828795D01*
X72532723Y-82828795D01*
X72455314Y-82867500D01*
X72416609Y-82906204D01*
X72377904Y-82983614D01*
X72377904Y-83099728D01*
X72416609Y-83177138D01*
X72455314Y-83215842D01*
X72532723Y-83254547D01*
X72842361Y-83254547D01*
X71448990Y-83602890D02*
X71332876Y-83641595D01*
X71139352Y-83641595D01*
X71061942Y-83602890D01*
X71023238Y-83564185D01*
X70984533Y-83486776D01*
X70984533Y-83409366D01*
X71023238Y-83331957D01*
X71061942Y-83293252D01*
X71139352Y-83254547D01*
X71294171Y-83215842D01*
X71371580Y-83177138D01*
X71410285Y-83138433D01*
X71448990Y-83061023D01*
X71448990Y-82983614D01*
X71410285Y-82906204D01*
X71371580Y-82867500D01*
X71294171Y-82828795D01*
X71100647Y-82828795D01*
X70984533Y-82867500D01*
X70713600Y-83099728D02*
X70520076Y-83641595D01*
X70326552Y-83099728D02*
X70520076Y-83641595D01*
X70597485Y-83835119D01*
X70636190Y-83873823D01*
X70713600Y-83912528D01*
X70055619Y-83602890D02*
X69978209Y-83641595D01*
X69823390Y-83641595D01*
X69745980Y-83602890D01*
X69707276Y-83525480D01*
X69707276Y-83486776D01*
X69745980Y-83409366D01*
X69823390Y-83370661D01*
X69939504Y-83370661D01*
X70016914Y-83331957D01*
X70055619Y-83254547D01*
X70055619Y-83215842D01*
X70016914Y-83138433D01*
X69939504Y-83099728D01*
X69823390Y-83099728D01*
X69745980Y-83138433D01*
X69475047Y-83099728D02*
X69165409Y-83099728D01*
X69358933Y-82828795D02*
X69358933Y-83525480D01*
X69320228Y-83602890D01*
X69242819Y-83641595D01*
X69165409Y-83641595D01*
X68584838Y-83602890D02*
X68662247Y-83641595D01*
X68817066Y-83641595D01*
X68894476Y-83602890D01*
X68933180Y-83525480D01*
X68933180Y-83215842D01*
X68894476Y-83138433D01*
X68817066Y-83099728D01*
X68662247Y-83099728D01*
X68584838Y-83138433D01*
X68546133Y-83215842D01*
X68546133Y-83293252D01*
X68933180Y-83370661D01*
X68197790Y-83641595D02*
X68197790Y-83099728D01*
X68197790Y-83177138D02*
X68159085Y-83138433D01*
X68081676Y-83099728D01*
X67965561Y-83099728D01*
X67888152Y-83138433D01*
X67849447Y-83215842D01*
X67849447Y-83641595D01*
X67849447Y-83215842D02*
X67810742Y-83138433D01*
X67733333Y-83099728D01*
X67617219Y-83099728D01*
X67539809Y-83138433D01*
X67501104Y-83215842D01*
X67501104Y-83641595D01*
X67600890Y-128999221D02*
X67639595Y-128921812D01*
X67639595Y-128766993D01*
X67600890Y-128689583D01*
X67523480Y-128650879D01*
X67213842Y-128650879D01*
X67136433Y-128689583D01*
X67097728Y-128766993D01*
X67097728Y-128921812D01*
X67136433Y-128999221D01*
X67213842Y-129037926D01*
X67291252Y-129037926D01*
X67368661Y-128650879D01*
X67639595Y-129734612D02*
X66826795Y-129734612D01*
X67600890Y-129734612D02*
X67639595Y-129657202D01*
X67639595Y-129502383D01*
X67600890Y-129424974D01*
X67562185Y-129386269D01*
X67484776Y-129347564D01*
X67252547Y-129347564D01*
X67175138Y-129386269D01*
X67136433Y-129424974D01*
X67097728Y-129502383D01*
X67097728Y-129657202D01*
X67136433Y-129734612D01*
X67097728Y-130005545D02*
X67097728Y-130315183D01*
X67639595Y-130121660D02*
X66942909Y-130121660D01*
X66865500Y-130160364D01*
X66826795Y-130237774D01*
X66826795Y-130315183D01*
X67562185Y-130586117D02*
X67600890Y-130624821D01*
X67639595Y-130586117D01*
X67600890Y-130547412D01*
X67562185Y-130586117D01*
X67639595Y-130586117D01*
X67639595Y-130973164D02*
X66826795Y-130973164D01*
X67136433Y-130973164D02*
X67097728Y-131050574D01*
X67097728Y-131205393D01*
X67136433Y-131282802D01*
X67175138Y-131321507D01*
X67252547Y-131360212D01*
X67484776Y-131360212D01*
X67562185Y-131321507D01*
X67600890Y-131282802D01*
X67639595Y-131205393D01*
X67639595Y-131050574D01*
X67600890Y-130973164D01*
X67097728Y-132056898D02*
X67639595Y-132056898D01*
X67097728Y-131708555D02*
X67523480Y-131708555D01*
X67600890Y-131747260D01*
X67639595Y-131824669D01*
X67639595Y-131940783D01*
X67600890Y-132018193D01*
X67562185Y-132056898D01*
X67562185Y-132443945D02*
X67600890Y-132482650D01*
X67639595Y-132443945D01*
X67600890Y-132405240D01*
X67562185Y-132443945D01*
X67639595Y-132443945D01*
X67600890Y-133140631D02*
X67639595Y-133063221D01*
X67639595Y-132908402D01*
X67600890Y-132830993D01*
X67523480Y-132792288D01*
X67213842Y-132792288D01*
X67136433Y-132830993D01*
X67097728Y-132908402D01*
X67097728Y-133063221D01*
X67136433Y-133140631D01*
X67213842Y-133179336D01*
X67291252Y-133179336D01*
X67368661Y-132792288D01*
X67639595Y-133876021D02*
X66826795Y-133876021D01*
X67600890Y-133876021D02*
X67639595Y-133798612D01*
X67639595Y-133643793D01*
X67600890Y-133566383D01*
X67562185Y-133527679D01*
X67484776Y-133488974D01*
X67252547Y-133488974D01*
X67175138Y-133527679D01*
X67136433Y-133566383D01*
X67097728Y-133643793D01*
X67097728Y-133798612D01*
X67136433Y-133876021D01*
X67097728Y-134611412D02*
X67639595Y-134611412D01*
X67097728Y-134263069D02*
X67523480Y-134263069D01*
X67600890Y-134301774D01*
X67639595Y-134379183D01*
X67639595Y-134495298D01*
X67600890Y-134572707D01*
X67562185Y-134611412D01*
X69011195Y-128689583D02*
X68198395Y-128689583D01*
X68701557Y-128766993D02*
X69011195Y-128999221D01*
X68469328Y-128999221D02*
X68778966Y-128689583D01*
X69011195Y-129347564D02*
X68469328Y-129347564D01*
X68624147Y-129347564D02*
X68546738Y-129386269D01*
X68508033Y-129424974D01*
X68469328Y-129502383D01*
X68469328Y-129579793D01*
X68972490Y-130160364D02*
X69011195Y-130082955D01*
X69011195Y-129928136D01*
X68972490Y-129850726D01*
X68895080Y-129812021D01*
X68585442Y-129812021D01*
X68508033Y-129850726D01*
X68469328Y-129928136D01*
X68469328Y-130082955D01*
X68508033Y-130160364D01*
X68585442Y-130199069D01*
X68662852Y-130199069D01*
X68740261Y-129812021D01*
X69011195Y-130547412D02*
X68469328Y-130547412D01*
X68546738Y-130547412D02*
X68508033Y-130586117D01*
X68469328Y-130663526D01*
X68469328Y-130779640D01*
X68508033Y-130857050D01*
X68585442Y-130895755D01*
X69011195Y-130895755D01*
X68585442Y-130895755D02*
X68508033Y-130934460D01*
X68469328Y-131011869D01*
X68469328Y-131127983D01*
X68508033Y-131205393D01*
X68585442Y-131244098D01*
X69011195Y-131244098D01*
X68972490Y-131940783D02*
X69011195Y-131863374D01*
X69011195Y-131708555D01*
X68972490Y-131631145D01*
X68895080Y-131592440D01*
X68585442Y-131592440D01*
X68508033Y-131631145D01*
X68469328Y-131708555D01*
X68469328Y-131863374D01*
X68508033Y-131940783D01*
X68585442Y-131979488D01*
X68662852Y-131979488D01*
X68740261Y-131592440D01*
X69011195Y-132327831D02*
X68469328Y-132327831D01*
X68624147Y-132327831D02*
X68546738Y-132366536D01*
X68508033Y-132405240D01*
X68469328Y-132482650D01*
X68469328Y-132560060D01*
X69011195Y-132830993D02*
X68469328Y-132830993D01*
X68546738Y-132830993D02*
X68508033Y-132869698D01*
X68469328Y-132947107D01*
X68469328Y-133063221D01*
X68508033Y-133140631D01*
X68585442Y-133179336D01*
X69011195Y-133179336D01*
X68585442Y-133179336D02*
X68508033Y-133218040D01*
X68469328Y-133295450D01*
X68469328Y-133411564D01*
X68508033Y-133488974D01*
X68585442Y-133527679D01*
X69011195Y-133527679D01*
X68972490Y-134224364D02*
X69011195Y-134146955D01*
X69011195Y-133992136D01*
X68972490Y-133914726D01*
X68895080Y-133876021D01*
X68585442Y-133876021D01*
X68508033Y-133914726D01*
X68469328Y-133992136D01*
X68469328Y-134146955D01*
X68508033Y-134224364D01*
X68585442Y-134263069D01*
X68662852Y-134263069D01*
X68740261Y-133876021D01*
X68624147Y-135114574D02*
X68585442Y-135075869D01*
X68546738Y-134998460D01*
X68546738Y-134921050D01*
X68585442Y-134843640D01*
X68624147Y-134804936D01*
X68701557Y-134766231D01*
X68778966Y-134766231D01*
X68856376Y-134804936D01*
X68895080Y-134843640D01*
X68933785Y-134921050D01*
X68933785Y-134998460D01*
X68895080Y-135075869D01*
X68856376Y-135114574D01*
X68546738Y-135114574D02*
X68856376Y-135114574D01*
X68895080Y-135153279D01*
X68895080Y-135191983D01*
X68856376Y-135269393D01*
X68778966Y-135308098D01*
X68585442Y-135308098D01*
X68469328Y-135230688D01*
X68391919Y-135114574D01*
X68353214Y-134959755D01*
X68391919Y-134804936D01*
X68469328Y-134688821D01*
X68585442Y-134611412D01*
X68740261Y-134572707D01*
X68895080Y-134611412D01*
X69011195Y-134688821D01*
X69088604Y-134804936D01*
X69127309Y-134959755D01*
X69088604Y-135114574D01*
X69011195Y-135230688D01*
X69011195Y-135656440D02*
X68198395Y-135656440D01*
X68508033Y-135656440D02*
X68469328Y-135733850D01*
X68469328Y-135888669D01*
X68508033Y-135966079D01*
X68546738Y-136004783D01*
X68624147Y-136043488D01*
X68856376Y-136043488D01*
X68933785Y-136004783D01*
X68972490Y-135966079D01*
X69011195Y-135888669D01*
X69011195Y-135733850D01*
X68972490Y-135656440D01*
X68469328Y-136740174D02*
X69011195Y-136740174D01*
X68469328Y-136391831D02*
X68895080Y-136391831D01*
X68972490Y-136430536D01*
X69011195Y-136507945D01*
X69011195Y-136624060D01*
X68972490Y-136701469D01*
X68933785Y-136740174D01*
X68933785Y-137127221D02*
X68972490Y-137165926D01*
X69011195Y-137127221D01*
X68972490Y-137088517D01*
X68933785Y-137127221D01*
X69011195Y-137127221D01*
X68972490Y-137823907D02*
X69011195Y-137746498D01*
X69011195Y-137591679D01*
X68972490Y-137514269D01*
X68895080Y-137475564D01*
X68585442Y-137475564D01*
X68508033Y-137514269D01*
X68469328Y-137591679D01*
X68469328Y-137746498D01*
X68508033Y-137823907D01*
X68585442Y-137862612D01*
X68662852Y-137862612D01*
X68740261Y-137475564D01*
X69011195Y-138559298D02*
X68198395Y-138559298D01*
X68972490Y-138559298D02*
X69011195Y-138481888D01*
X69011195Y-138327069D01*
X68972490Y-138249660D01*
X68933785Y-138210955D01*
X68856376Y-138172250D01*
X68624147Y-138172250D01*
X68546738Y-138210955D01*
X68508033Y-138249660D01*
X68469328Y-138327069D01*
X68469328Y-138481888D01*
X68508033Y-138559298D01*
X68469328Y-139294688D02*
X69011195Y-139294688D01*
X68469328Y-138946345D02*
X68895080Y-138946345D01*
X68972490Y-138985050D01*
X69011195Y-139062460D01*
X69011195Y-139178574D01*
X68972490Y-139255983D01*
X68933785Y-139294688D01*
D11*
G04 #@! TO.C,J2*
X92608400Y-83607600D02*
X91278400Y-83607600D01*
X91278400Y-83607600D02*
X91278400Y-84937600D01*
X91278400Y-86207600D02*
X91278400Y-147227600D01*
X93938400Y-147227600D02*
X91278400Y-147227600D01*
X93938400Y-86207600D02*
X93938400Y-147227600D01*
X93938400Y-86207600D02*
X91278400Y-86207600D01*
G04 #@! TO.C,J1*
X65998400Y-86207600D02*
X63338400Y-86207600D01*
X65998400Y-86207600D02*
X65998400Y-147227600D01*
X65998400Y-147227600D02*
X63338400Y-147227600D01*
X63338400Y-86207600D02*
X63338400Y-147227600D01*
X63338400Y-83607600D02*
X63338400Y-84937600D01*
X64668400Y-83607600D02*
X63338400Y-83607600D01*
G04 #@! TO.C,J4*
X91398400Y-143357600D02*
X91398400Y-142027600D01*
X91398400Y-142027600D02*
X90068400Y-142027600D01*
X88798400Y-142027600D02*
X65878400Y-142027600D01*
X65878400Y-144687600D02*
X65878400Y-142027600D01*
X88798400Y-144687600D02*
X65878400Y-144687600D01*
X88798400Y-144687600D02*
X88798400Y-142027600D01*
G04 #@! TO.C,J5*
X68478400Y-144567600D02*
X68478400Y-147227600D01*
X68478400Y-144567600D02*
X91398400Y-144567600D01*
X91398400Y-144567600D02*
X91398400Y-147227600D01*
X68478400Y-147227600D02*
X91398400Y-147227600D01*
X65878400Y-147227600D02*
X67208400Y-147227600D01*
X65878400Y-145897600D02*
X65878400Y-147227600D01*
G04 #@! TO.C,J2*
D12*
X92710000Y-82976357D02*
X92710000Y-83248500D01*
X92728142Y-83302928D01*
X92764428Y-83339214D01*
X92818857Y-83357357D01*
X92855142Y-83357357D01*
X92546714Y-83012642D02*
X92528571Y-82994500D01*
X92492285Y-82976357D01*
X92401571Y-82976357D01*
X92365285Y-82994500D01*
X92347142Y-83012642D01*
X92329000Y-83048928D01*
X92329000Y-83085214D01*
X92347142Y-83139642D01*
X92564857Y-83357357D01*
X92329000Y-83357357D01*
G04 #@! TO.C,J1*
X64770000Y-82976357D02*
X64770000Y-83248500D01*
X64788142Y-83302928D01*
X64824428Y-83339214D01*
X64878857Y-83357357D01*
X64915142Y-83357357D01*
X64389000Y-83357357D02*
X64606714Y-83357357D01*
X64497857Y-83357357D02*
X64497857Y-82976357D01*
X64534142Y-83030785D01*
X64570428Y-83067071D01*
X64606714Y-83085214D01*
G04 #@! TO.C,J4*
X90170000Y-141396357D02*
X90170000Y-141668500D01*
X90188142Y-141722928D01*
X90224428Y-141759214D01*
X90278857Y-141777357D01*
X90315142Y-141777357D01*
X89825285Y-141523357D02*
X89825285Y-141777357D01*
X89916000Y-141378214D02*
X90006714Y-141650357D01*
X89770857Y-141650357D01*
G04 #@! TO.C,J5*
X67437000Y-147238357D02*
X67437000Y-147510500D01*
X67455142Y-147564928D01*
X67491428Y-147601214D01*
X67545857Y-147619357D01*
X67582142Y-147619357D01*
X67074142Y-147238357D02*
X67255571Y-147238357D01*
X67273714Y-147419785D01*
X67255571Y-147401642D01*
X67219285Y-147383500D01*
X67128571Y-147383500D01*
X67092285Y-147401642D01*
X67074142Y-147419785D01*
X67056000Y-147456071D01*
X67056000Y-147546785D01*
X67074142Y-147583071D01*
X67092285Y-147601214D01*
X67128571Y-147619357D01*
X67219285Y-147619357D01*
X67255571Y-147601214D01*
X67273714Y-147583071D01*
G04 #@! TD*
M02*
