M48
;DRILL file {KiCad 4.0.3+e1-6302~38~ubuntu14.04.1-stable} date Mon Aug 15 13:41:18 2016
;FORMAT={2:4/ absolute / inch / keep zeros}
FMAT,2
INCH,TZ
T1C0.006
T2C0.008
T3C0.032
%
G90
G05
M72
T1
X043700Y-042500
X044300Y-021800
X044300Y-024700
X044300Y-025800
X044300Y-028700
X044300Y-030800
X044300Y-033700
X044300Y-034800
X044300Y-037700
X044400Y-022600
X044400Y-023900
X044400Y-026600
X044400Y-027900
X044400Y-031600
X044400Y-032900
X044400Y-035600
X044400Y-037000
X044750Y-023250
X044750Y-027250
X044750Y-032250
X044750Y-036250
X045100Y-038100
X045500Y-040200
X045500Y-041900
X045900Y-026500
X045900Y-028000
X045900Y-031500
X045900Y-033000
X045900Y-035500
X045900Y-040600
X046000Y-022500
X046000Y-024000
X046000Y-042600
X046125Y-023250
X046250Y-027250
X046250Y-032250
X046250Y-036250
X046400Y-039700
X047600Y-041300
X047875Y-022000
X047875Y-026000
X047875Y-031000
X047875Y-035000
X048000Y-023250
X048000Y-027250
X048000Y-032250
X048000Y-036250
X048200Y-041000
X049000Y-023250
X049000Y-027250
X049000Y-032250
X049000Y-036250
X049000Y-042200
X049125Y-022000
X049125Y-026000
X049125Y-031000
X049125Y-035000
X049200Y-038300
X049200Y-038600
X049200Y-041600
X049400Y-037800
X049600Y-037600
X049600Y-040900
X049600Y-041200
X050000Y-038800
X050750Y-023250
X050750Y-027250
X050750Y-032250
X050750Y-036250
X051100Y-022500
X051100Y-024100
X051100Y-026500
X051100Y-028000
X051100Y-031500
X051100Y-033000
X051100Y-035400
X051100Y-037000
X051100Y-039300
X051300Y-040100
X051600Y-039900
X051600Y-042300
X051600Y-043500
X051900Y-040700
X052204Y-040396
X052250Y-023250
X052250Y-027250
X052600Y-022600
X052600Y-023900
X052600Y-026600
X052600Y-027900
X052600Y-030800
X052600Y-031600
X052600Y-032900
X052600Y-033700
X052600Y-035200
X052600Y-035600
X052600Y-037000
X052600Y-037700
X052700Y-021900
X052700Y-024700
X052700Y-025800
X052700Y-028700
X052800Y-041400
X053000Y-043500
X053300Y-032300
X053300Y-036300
X053500Y-041700
T2
X044000Y-045000
X045900Y-043900
X045900Y-044400
X045900Y-045000
X045900Y-045600
X045900Y-046100
X046500Y-043900
X046500Y-046100
X047200Y-043900
X047200Y-046100
X047900Y-043900
X047900Y-046100
X048600Y-043900
X048600Y-044400
X048600Y-045000
X048600Y-045600
X048600Y-046100
X050750Y-046000
X051625Y-045375
T3
X043000Y-022000
X043000Y-023000
X043000Y-024000
X043000Y-025000
X043000Y-026000
X043000Y-027000
X043000Y-028000
X043000Y-029000
X043000Y-030000
X043000Y-031000
X043000Y-032000
X043000Y-033000
X043000Y-034000
X043000Y-035000
X043000Y-036000
X043000Y-037000
X043000Y-038000
X043000Y-039000
X043000Y-040000
X043000Y-041000
X043000Y-042000
X043000Y-043000
X043000Y-044000
X043000Y-045000
X043000Y-046000
X054000Y-022000
X054000Y-023000
X054000Y-024000
X054000Y-025000
X054000Y-026000
X054000Y-027000
X054000Y-028000
X054000Y-029000
X054000Y-030000
X054000Y-031000
X054000Y-032000
X054000Y-033000
X054000Y-034000
X054000Y-035000
X054000Y-036000
X054000Y-037000
X054000Y-038000
X054000Y-039000
X054000Y-040000
X054000Y-041000
X054000Y-042000
X054000Y-043000
X054000Y-044000
X054000Y-045000
X054000Y-046000
T0
M30
