%TF.GenerationSoftware,KiCad,Pcbnew,4.0.2-stable*%
%TF.CreationDate,2021-11-11T11:09:56-08:00*%
%TF.ProjectId,pwm,70776D2E6B696361645F706362000000,rev?*%
%TF.FileFunction,Drawing*%
%FSLAX46Y46*%
G04 Gerber Fmt 4.6, Leading zero omitted, Abs format (unit mm)*
G04 Created by KiCad (PCBNEW 4.0.2-stable) date 11/11/2021 11:09:56 AM*
%MOMM*%
G01*
G04 APERTURE LIST*
%ADD10C,0.100000*%
%ADD11C,0.300000*%
%ADD12C,0.203200*%
%ADD13C,0.150000*%
G04 APERTURE END LIST*
D10*
D11*
X192528571Y-98890001D02*
X192600000Y-98961430D01*
X192671429Y-99104287D01*
X192671429Y-99461430D01*
X192600000Y-99604287D01*
X192528571Y-99675716D01*
X192385714Y-99747144D01*
X192242857Y-99747144D01*
X192028571Y-99675716D01*
X191171429Y-98818573D01*
X191171429Y-99747144D01*
X191314286Y-100390001D02*
X191242857Y-100461429D01*
X191171429Y-100390001D01*
X191242857Y-100318572D01*
X191314286Y-100390001D01*
X191171429Y-100390001D01*
X192671429Y-101747144D02*
X192671429Y-101461430D01*
X192600000Y-101318573D01*
X192528571Y-101247144D01*
X192314286Y-101104287D01*
X192028571Y-101032858D01*
X191457143Y-101032858D01*
X191314286Y-101104287D01*
X191242857Y-101175715D01*
X191171429Y-101318573D01*
X191171429Y-101604287D01*
X191242857Y-101747144D01*
X191314286Y-101818573D01*
X191457143Y-101890001D01*
X191814286Y-101890001D01*
X191957143Y-101818573D01*
X192028571Y-101747144D01*
X192100000Y-101604287D01*
X192100000Y-101318573D01*
X192028571Y-101175715D01*
X191957143Y-101104287D01*
X191814286Y-101032858D01*
X192671429Y-102818572D02*
X192671429Y-102961429D01*
X192600000Y-103104286D01*
X192528571Y-103175715D01*
X192385714Y-103247144D01*
X192100000Y-103318572D01*
X191742857Y-103318572D01*
X191457143Y-103247144D01*
X191314286Y-103175715D01*
X191242857Y-103104286D01*
X191171429Y-102961429D01*
X191171429Y-102818572D01*
X191242857Y-102675715D01*
X191314286Y-102604286D01*
X191457143Y-102532858D01*
X191742857Y-102461429D01*
X192100000Y-102461429D01*
X192385714Y-102532858D01*
X192528571Y-102604286D01*
X192600000Y-102675715D01*
X192671429Y-102818572D01*
X192671429Y-104247143D02*
X192671429Y-104390000D01*
X192600000Y-104532857D01*
X192528571Y-104604286D01*
X192385714Y-104675715D01*
X192100000Y-104747143D01*
X191742857Y-104747143D01*
X191457143Y-104675715D01*
X191314286Y-104604286D01*
X191242857Y-104532857D01*
X191171429Y-104390000D01*
X191171429Y-104247143D01*
X191242857Y-104104286D01*
X191314286Y-104032857D01*
X191457143Y-103961429D01*
X191742857Y-103890000D01*
X192100000Y-103890000D01*
X192385714Y-103961429D01*
X192528571Y-104032857D01*
X192600000Y-104104286D01*
X192671429Y-104247143D01*
X192671429Y-105675714D02*
X192671429Y-105818571D01*
X192600000Y-105961428D01*
X192528571Y-106032857D01*
X192385714Y-106104286D01*
X192100000Y-106175714D01*
X191742857Y-106175714D01*
X191457143Y-106104286D01*
X191314286Y-106032857D01*
X191242857Y-105961428D01*
X191171429Y-105818571D01*
X191171429Y-105675714D01*
X191242857Y-105532857D01*
X191314286Y-105461428D01*
X191457143Y-105390000D01*
X191742857Y-105318571D01*
X192100000Y-105318571D01*
X192385714Y-105390000D01*
X192528571Y-105461428D01*
X192600000Y-105532857D01*
X192671429Y-105675714D01*
X191171429Y-107961428D02*
X192171429Y-107961428D01*
X192671429Y-107961428D02*
X192600000Y-107889999D01*
X192528571Y-107961428D01*
X192600000Y-108032856D01*
X192671429Y-107961428D01*
X192528571Y-107961428D01*
X192171429Y-108675714D02*
X191171429Y-108675714D01*
X192028571Y-108675714D02*
X192100000Y-108747142D01*
X192171429Y-108890000D01*
X192171429Y-109104285D01*
X192100000Y-109247142D01*
X191957143Y-109318571D01*
X191171429Y-109318571D01*
X190500000Y-71120000D02*
X190500000Y-137160000D01*
X187960000Y-71120000D02*
X193200000Y-71120000D01*
X187960000Y-137160000D02*
X193200000Y-137160000D01*
X190500000Y-137160000D02*
X189913579Y-136033496D01*
X190500000Y-137160000D02*
X191086421Y-136033496D01*
X190500000Y-71120000D02*
X189913579Y-72246504D01*
X190500000Y-71120000D02*
X191086421Y-72246504D01*
X165787144Y-65368571D02*
X164930001Y-65368571D01*
X165358573Y-65368571D02*
X165358573Y-63868571D01*
X165215716Y-64082857D01*
X165072858Y-64225714D01*
X164930001Y-64297143D01*
X166430001Y-65225714D02*
X166501429Y-65297143D01*
X166430001Y-65368571D01*
X166358572Y-65297143D01*
X166430001Y-65225714D01*
X166430001Y-65368571D01*
X167001430Y-63868571D02*
X167930001Y-63868571D01*
X167430001Y-64440000D01*
X167644287Y-64440000D01*
X167787144Y-64511429D01*
X167858573Y-64582857D01*
X167930001Y-64725714D01*
X167930001Y-65082857D01*
X167858573Y-65225714D01*
X167787144Y-65297143D01*
X167644287Y-65368571D01*
X167215715Y-65368571D01*
X167072858Y-65297143D01*
X167001430Y-65225714D01*
X168858572Y-63868571D02*
X169001429Y-63868571D01*
X169144286Y-63940000D01*
X169215715Y-64011429D01*
X169287144Y-64154286D01*
X169358572Y-64440000D01*
X169358572Y-64797143D01*
X169287144Y-65082857D01*
X169215715Y-65225714D01*
X169144286Y-65297143D01*
X169001429Y-65368571D01*
X168858572Y-65368571D01*
X168715715Y-65297143D01*
X168644286Y-65225714D01*
X168572858Y-65082857D01*
X168501429Y-64797143D01*
X168501429Y-64440000D01*
X168572858Y-64154286D01*
X168644286Y-64011429D01*
X168715715Y-63940000D01*
X168858572Y-63868571D01*
X170287143Y-63868571D02*
X170430000Y-63868571D01*
X170572857Y-63940000D01*
X170644286Y-64011429D01*
X170715715Y-64154286D01*
X170787143Y-64440000D01*
X170787143Y-64797143D01*
X170715715Y-65082857D01*
X170644286Y-65225714D01*
X170572857Y-65297143D01*
X170430000Y-65368571D01*
X170287143Y-65368571D01*
X170144286Y-65297143D01*
X170072857Y-65225714D01*
X170001429Y-65082857D01*
X169930000Y-64797143D01*
X169930000Y-64440000D01*
X170001429Y-64154286D01*
X170072857Y-64011429D01*
X170144286Y-63940000D01*
X170287143Y-63868571D01*
X171715714Y-63868571D02*
X171858571Y-63868571D01*
X172001428Y-63940000D01*
X172072857Y-64011429D01*
X172144286Y-64154286D01*
X172215714Y-64440000D01*
X172215714Y-64797143D01*
X172144286Y-65082857D01*
X172072857Y-65225714D01*
X172001428Y-65297143D01*
X171858571Y-65368571D01*
X171715714Y-65368571D01*
X171572857Y-65297143D01*
X171501428Y-65225714D01*
X171430000Y-65082857D01*
X171358571Y-64797143D01*
X171358571Y-64440000D01*
X171430000Y-64154286D01*
X171501428Y-64011429D01*
X171572857Y-63940000D01*
X171715714Y-63868571D01*
X174001428Y-65368571D02*
X174001428Y-64368571D01*
X174001428Y-63868571D02*
X173929999Y-63940000D01*
X174001428Y-64011429D01*
X174072856Y-63940000D01*
X174001428Y-63868571D01*
X174001428Y-64011429D01*
X174715714Y-64368571D02*
X174715714Y-65368571D01*
X174715714Y-64511429D02*
X174787142Y-64440000D01*
X174930000Y-64368571D01*
X175144285Y-64368571D01*
X175287142Y-64440000D01*
X175358571Y-64582857D01*
X175358571Y-65368571D01*
X153670000Y-66040000D02*
X186690000Y-66040000D01*
X153670000Y-69850000D02*
X153670000Y-63340000D01*
X186690000Y-69850000D02*
X186690000Y-63340000D01*
X186690000Y-66040000D02*
X185563496Y-66626421D01*
X186690000Y-66040000D02*
X185563496Y-65453579D01*
X153670000Y-66040000D02*
X154796504Y-66626421D01*
X153670000Y-66040000D02*
X154796504Y-65453579D01*
D12*
X202930000Y-72745771D02*
X202930000Y-71245771D01*
X202930000Y-72674343D02*
X202787143Y-72745771D01*
X202501429Y-72745771D01*
X202358571Y-72674343D01*
X202287143Y-72602914D01*
X202215714Y-72460057D01*
X202215714Y-72031486D01*
X202287143Y-71888629D01*
X202358571Y-71817200D01*
X202501429Y-71745771D01*
X202787143Y-71745771D01*
X202930000Y-71817200D01*
X204215714Y-72674343D02*
X204072857Y-72745771D01*
X203787143Y-72745771D01*
X203644286Y-72674343D01*
X203572857Y-72531486D01*
X203572857Y-71960057D01*
X203644286Y-71817200D01*
X203787143Y-71745771D01*
X204072857Y-71745771D01*
X204215714Y-71817200D01*
X204287143Y-71960057D01*
X204287143Y-72102914D01*
X203572857Y-72245771D01*
X205572857Y-72674343D02*
X205430000Y-72745771D01*
X205144286Y-72745771D01*
X205001428Y-72674343D01*
X204930000Y-72602914D01*
X204858571Y-72460057D01*
X204858571Y-72031486D01*
X204930000Y-71888629D01*
X205001428Y-71817200D01*
X205144286Y-71745771D01*
X205430000Y-71745771D01*
X205572857Y-71817200D01*
X206430000Y-72745771D02*
X206287142Y-72674343D01*
X206215714Y-72602914D01*
X206144285Y-72460057D01*
X206144285Y-72031486D01*
X206215714Y-71888629D01*
X206287142Y-71817200D01*
X206430000Y-71745771D01*
X206644285Y-71745771D01*
X206787142Y-71817200D01*
X206858571Y-71888629D01*
X206930000Y-72031486D01*
X206930000Y-72460057D01*
X206858571Y-72602914D01*
X206787142Y-72674343D01*
X206644285Y-72745771D01*
X206430000Y-72745771D01*
X209072857Y-73245771D02*
X209072857Y-71102914D01*
X211287142Y-72745771D02*
X211287142Y-71245771D01*
X211644285Y-71245771D01*
X211858570Y-71317200D01*
X212001428Y-71460057D01*
X212072856Y-71602914D01*
X212144285Y-71888629D01*
X212144285Y-72102914D01*
X212072856Y-72388629D01*
X212001428Y-72531486D01*
X211858570Y-72674343D01*
X211644285Y-72745771D01*
X211287142Y-72745771D01*
X212787142Y-72745771D02*
X212787142Y-71245771D01*
X213644285Y-72745771D01*
X213644285Y-71245771D01*
X215858571Y-73245771D02*
X215858571Y-71102914D01*
X218358570Y-71245771D02*
X218501427Y-71245771D01*
X218644284Y-71317200D01*
X218715713Y-71388629D01*
X218787142Y-71531486D01*
X218858570Y-71817200D01*
X218858570Y-72174343D01*
X218787142Y-72460057D01*
X218715713Y-72602914D01*
X218644284Y-72674343D01*
X218501427Y-72745771D01*
X218358570Y-72745771D01*
X218215713Y-72674343D01*
X218144284Y-72602914D01*
X218072856Y-72460057D01*
X218001427Y-72174343D01*
X218001427Y-71817200D01*
X218072856Y-71531486D01*
X218144284Y-71388629D01*
X218215713Y-71317200D01*
X218358570Y-71245771D01*
X220215713Y-71245771D02*
X219501427Y-71245771D01*
X219429998Y-71960057D01*
X219501427Y-71888629D01*
X219644284Y-71817200D01*
X220001427Y-71817200D01*
X220144284Y-71888629D01*
X220215713Y-71960057D01*
X220287141Y-72102914D01*
X220287141Y-72460057D01*
X220215713Y-72602914D01*
X220144284Y-72674343D01*
X220001427Y-72745771D01*
X219644284Y-72745771D01*
X219501427Y-72674343D01*
X219429998Y-72602914D01*
X222001426Y-71174343D02*
X220715712Y-73102914D01*
X222429998Y-71388629D02*
X222501427Y-71317200D01*
X222644284Y-71245771D01*
X223001427Y-71245771D01*
X223144284Y-71317200D01*
X223215713Y-71388629D01*
X223287141Y-71531486D01*
X223287141Y-71674343D01*
X223215713Y-71888629D01*
X222358570Y-72745771D01*
X223287141Y-72745771D01*
X224715712Y-72745771D02*
X223858569Y-72745771D01*
X224287141Y-72745771D02*
X224287141Y-71245771D01*
X224144284Y-71460057D01*
X224001426Y-71602914D01*
X223858569Y-71674343D01*
X202072857Y-73548971D02*
X202930000Y-73548971D01*
X202501429Y-75048971D02*
X202501429Y-73548971D01*
X204001428Y-74977543D02*
X203858571Y-75048971D01*
X203572857Y-75048971D01*
X203430000Y-74977543D01*
X203358571Y-74834686D01*
X203358571Y-74263257D01*
X203430000Y-74120400D01*
X203572857Y-74048971D01*
X203858571Y-74048971D01*
X204001428Y-74120400D01*
X204072857Y-74263257D01*
X204072857Y-74406114D01*
X203358571Y-74548971D01*
X204644285Y-74977543D02*
X204787142Y-75048971D01*
X205072857Y-75048971D01*
X205215714Y-74977543D01*
X205287142Y-74834686D01*
X205287142Y-74763257D01*
X205215714Y-74620400D01*
X205072857Y-74548971D01*
X204858571Y-74548971D01*
X204715714Y-74477543D01*
X204644285Y-74334686D01*
X204644285Y-74263257D01*
X204715714Y-74120400D01*
X204858571Y-74048971D01*
X205072857Y-74048971D01*
X205215714Y-74120400D01*
X205715714Y-74048971D02*
X206287143Y-74048971D01*
X205930000Y-73548971D02*
X205930000Y-74834686D01*
X206001428Y-74977543D01*
X206144286Y-75048971D01*
X206287143Y-75048971D01*
X206787143Y-75048971D02*
X206787143Y-73548971D01*
X206787143Y-74120400D02*
X206930000Y-74048971D01*
X207215714Y-74048971D01*
X207358571Y-74120400D01*
X207430000Y-74191829D01*
X207501429Y-74334686D01*
X207501429Y-74763257D01*
X207430000Y-74906114D01*
X207358571Y-74977543D01*
X207215714Y-75048971D01*
X206930000Y-75048971D01*
X206787143Y-74977543D01*
X208715714Y-74977543D02*
X208572857Y-75048971D01*
X208287143Y-75048971D01*
X208144286Y-74977543D01*
X208072857Y-74834686D01*
X208072857Y-74263257D01*
X208144286Y-74120400D01*
X208287143Y-74048971D01*
X208572857Y-74048971D01*
X208715714Y-74120400D01*
X208787143Y-74263257D01*
X208787143Y-74406114D01*
X208072857Y-74548971D01*
X210072857Y-75048971D02*
X210072857Y-73548971D01*
X210072857Y-74977543D02*
X209930000Y-75048971D01*
X209644286Y-75048971D01*
X209501428Y-74977543D01*
X209430000Y-74906114D01*
X209358571Y-74763257D01*
X209358571Y-74334686D01*
X209430000Y-74191829D01*
X209501428Y-74120400D01*
X209644286Y-74048971D01*
X209930000Y-74048971D01*
X210072857Y-74120400D01*
X202287143Y-79655371D02*
X202287143Y-78155371D01*
X202858571Y-78155371D01*
X203001429Y-78226800D01*
X203072857Y-78298229D01*
X203144286Y-78441086D01*
X203144286Y-78655371D01*
X203072857Y-78798229D01*
X203001429Y-78869657D01*
X202858571Y-78941086D01*
X202287143Y-78941086D01*
X204858571Y-78083943D02*
X203572857Y-80012514D01*
X205358572Y-79655371D02*
X205358572Y-78155371D01*
X206215715Y-79655371D01*
X206215715Y-78155371D01*
X208072858Y-79655371D02*
X208072858Y-78155371D01*
X208644286Y-78155371D01*
X208787144Y-78226800D01*
X208858572Y-78298229D01*
X208930001Y-78441086D01*
X208930001Y-78655371D01*
X208858572Y-78798229D01*
X208787144Y-78869657D01*
X208644286Y-78941086D01*
X208072858Y-78941086D01*
X209430001Y-78155371D02*
X209787144Y-79655371D01*
X210072858Y-78583943D01*
X210358572Y-79655371D01*
X210715715Y-78155371D01*
X211287144Y-79655371D02*
X211287144Y-78155371D01*
X211787144Y-79226800D01*
X212287144Y-78155371D01*
X212287144Y-79655371D01*
X215001430Y-79655371D02*
X214501430Y-78941086D01*
X214144287Y-79655371D02*
X214144287Y-78155371D01*
X214715715Y-78155371D01*
X214858573Y-78226800D01*
X214930001Y-78298229D01*
X215001430Y-78441086D01*
X215001430Y-78655371D01*
X214930001Y-78798229D01*
X214858573Y-78869657D01*
X214715715Y-78941086D01*
X214144287Y-78941086D01*
X216215715Y-79583943D02*
X216072858Y-79655371D01*
X215787144Y-79655371D01*
X215644287Y-79583943D01*
X215572858Y-79441086D01*
X215572858Y-78869657D01*
X215644287Y-78726800D01*
X215787144Y-78655371D01*
X216072858Y-78655371D01*
X216215715Y-78726800D01*
X216287144Y-78869657D01*
X216287144Y-79012514D01*
X215572858Y-79155371D01*
X216787144Y-78655371D02*
X217144287Y-79655371D01*
X217501429Y-78655371D01*
X219715715Y-78869657D02*
X219930001Y-78941086D01*
X220001429Y-79012514D01*
X220072858Y-79155371D01*
X220072858Y-79369657D01*
X220001429Y-79512514D01*
X219930001Y-79583943D01*
X219787143Y-79655371D01*
X219215715Y-79655371D01*
X219215715Y-78155371D01*
X219715715Y-78155371D01*
X219858572Y-78226800D01*
X219930001Y-78298229D01*
X220001429Y-78441086D01*
X220001429Y-78583943D01*
X219930001Y-78726800D01*
X219858572Y-78798229D01*
X219715715Y-78869657D01*
X219215715Y-78869657D01*
X203072857Y-81958571D02*
X202215714Y-81958571D01*
X202644286Y-81958571D02*
X202644286Y-80458571D01*
X202501429Y-80672857D01*
X202358571Y-80815714D01*
X202215714Y-80887143D01*
X205072857Y-81958571D02*
X204929999Y-81887143D01*
X204858571Y-81815714D01*
X204787142Y-81672857D01*
X204787142Y-81244286D01*
X204858571Y-81101429D01*
X204929999Y-81030000D01*
X205072857Y-80958571D01*
X205287142Y-80958571D01*
X205429999Y-81030000D01*
X205501428Y-81101429D01*
X205572857Y-81244286D01*
X205572857Y-81672857D01*
X205501428Y-81815714D01*
X205429999Y-81887143D01*
X205287142Y-81958571D01*
X205072857Y-81958571D01*
X206072857Y-80958571D02*
X206858571Y-80958571D01*
X206072857Y-81958571D01*
X206858571Y-81958571D01*
X209215714Y-81887143D02*
X209072857Y-81958571D01*
X208787143Y-81958571D01*
X208644285Y-81887143D01*
X208572857Y-81815714D01*
X208501428Y-81672857D01*
X208501428Y-81244286D01*
X208572857Y-81101429D01*
X208644285Y-81030000D01*
X208787143Y-80958571D01*
X209072857Y-80958571D01*
X209215714Y-81030000D01*
X210072857Y-81958571D02*
X209929999Y-81887143D01*
X209858571Y-81815714D01*
X209787142Y-81672857D01*
X209787142Y-81244286D01*
X209858571Y-81101429D01*
X209929999Y-81030000D01*
X210072857Y-80958571D01*
X210287142Y-80958571D01*
X210429999Y-81030000D01*
X210501428Y-81101429D01*
X210572857Y-81244286D01*
X210572857Y-81672857D01*
X210501428Y-81815714D01*
X210429999Y-81887143D01*
X210287142Y-81958571D01*
X210072857Y-81958571D01*
X211215714Y-80958571D02*
X211215714Y-82458571D01*
X211215714Y-81030000D02*
X211358571Y-80958571D01*
X211644285Y-80958571D01*
X211787142Y-81030000D01*
X211858571Y-81101429D01*
X211930000Y-81244286D01*
X211930000Y-81672857D01*
X211858571Y-81815714D01*
X211787142Y-81887143D01*
X211644285Y-81958571D01*
X211358571Y-81958571D01*
X211215714Y-81887143D01*
X212572857Y-80958571D02*
X212572857Y-82458571D01*
X212572857Y-81030000D02*
X212715714Y-80958571D01*
X213001428Y-80958571D01*
X213144285Y-81030000D01*
X213215714Y-81101429D01*
X213287143Y-81244286D01*
X213287143Y-81672857D01*
X213215714Y-81815714D01*
X213144285Y-81887143D01*
X213001428Y-81958571D01*
X212715714Y-81958571D01*
X212572857Y-81887143D01*
X214501428Y-81887143D02*
X214358571Y-81958571D01*
X214072857Y-81958571D01*
X213930000Y-81887143D01*
X213858571Y-81744286D01*
X213858571Y-81172857D01*
X213930000Y-81030000D01*
X214072857Y-80958571D01*
X214358571Y-80958571D01*
X214501428Y-81030000D01*
X214572857Y-81172857D01*
X214572857Y-81315714D01*
X213858571Y-81458571D01*
X215215714Y-81958571D02*
X215215714Y-80958571D01*
X215215714Y-81244286D02*
X215287142Y-81101429D01*
X215358571Y-81030000D01*
X215501428Y-80958571D01*
X215644285Y-80958571D01*
X202930000Y-83261771D02*
X202930000Y-84261771D01*
X202572857Y-82690343D02*
X202215714Y-83761771D01*
X203144286Y-83761771D01*
X205572857Y-84261771D02*
X204858571Y-84261771D01*
X204858571Y-82761771D01*
X206715714Y-84261771D02*
X206715714Y-83476057D01*
X206644285Y-83333200D01*
X206501428Y-83261771D01*
X206215714Y-83261771D01*
X206072857Y-83333200D01*
X206715714Y-84190343D02*
X206572857Y-84261771D01*
X206215714Y-84261771D01*
X206072857Y-84190343D01*
X206001428Y-84047486D01*
X206001428Y-83904629D01*
X206072857Y-83761771D01*
X206215714Y-83690343D01*
X206572857Y-83690343D01*
X206715714Y-83618914D01*
X207287143Y-83261771D02*
X207644286Y-84261771D01*
X208001428Y-83261771D02*
X207644286Y-84261771D01*
X207501428Y-84618914D01*
X207430000Y-84690343D01*
X207287143Y-84761771D01*
X209144285Y-84190343D02*
X209001428Y-84261771D01*
X208715714Y-84261771D01*
X208572857Y-84190343D01*
X208501428Y-84047486D01*
X208501428Y-83476057D01*
X208572857Y-83333200D01*
X208715714Y-83261771D01*
X209001428Y-83261771D01*
X209144285Y-83333200D01*
X209215714Y-83476057D01*
X209215714Y-83618914D01*
X208501428Y-83761771D01*
X209858571Y-84261771D02*
X209858571Y-83261771D01*
X209858571Y-83547486D02*
X209929999Y-83404629D01*
X210001428Y-83333200D01*
X210144285Y-83261771D01*
X210287142Y-83261771D01*
X210715713Y-84190343D02*
X210858570Y-84261771D01*
X211144285Y-84261771D01*
X211287142Y-84190343D01*
X211358570Y-84047486D01*
X211358570Y-83976057D01*
X211287142Y-83833200D01*
X211144285Y-83761771D01*
X210929999Y-83761771D01*
X210787142Y-83690343D01*
X210715713Y-83547486D01*
X210715713Y-83476057D01*
X210787142Y-83333200D01*
X210929999Y-83261771D01*
X211144285Y-83261771D01*
X211287142Y-83333200D01*
X213644285Y-83476057D02*
X213144285Y-83476057D01*
X213144285Y-84261771D02*
X213144285Y-82761771D01*
X213858571Y-82761771D01*
X215287142Y-84261771D02*
X214787142Y-83547486D01*
X214429999Y-84261771D02*
X214429999Y-82761771D01*
X215001427Y-82761771D01*
X215144285Y-82833200D01*
X215215713Y-82904629D01*
X215287142Y-83047486D01*
X215287142Y-83261771D01*
X215215713Y-83404629D01*
X215144285Y-83476057D01*
X215001427Y-83547486D01*
X214429999Y-83547486D01*
X215929999Y-83690343D02*
X217072856Y-83690343D01*
X218429999Y-83261771D02*
X218429999Y-84261771D01*
X218072856Y-82690343D02*
X217715713Y-83761771D01*
X218644285Y-83761771D01*
X202572857Y-85064971D02*
X202715714Y-85064971D01*
X202858571Y-85136400D01*
X202930000Y-85207829D01*
X203001429Y-85350686D01*
X203072857Y-85636400D01*
X203072857Y-85993543D01*
X203001429Y-86279257D01*
X202930000Y-86422114D01*
X202858571Y-86493543D01*
X202715714Y-86564971D01*
X202572857Y-86564971D01*
X202430000Y-86493543D01*
X202358571Y-86422114D01*
X202287143Y-86279257D01*
X202215714Y-85993543D01*
X202215714Y-85636400D01*
X202287143Y-85350686D01*
X202358571Y-85207829D01*
X202430000Y-85136400D01*
X202572857Y-85064971D01*
X203715714Y-86422114D02*
X203787142Y-86493543D01*
X203715714Y-86564971D01*
X203644285Y-86493543D01*
X203715714Y-86422114D01*
X203715714Y-86564971D01*
X204715714Y-85064971D02*
X204858571Y-85064971D01*
X205001428Y-85136400D01*
X205072857Y-85207829D01*
X205144286Y-85350686D01*
X205215714Y-85636400D01*
X205215714Y-85993543D01*
X205144286Y-86279257D01*
X205072857Y-86422114D01*
X205001428Y-86493543D01*
X204858571Y-86564971D01*
X204715714Y-86564971D01*
X204572857Y-86493543D01*
X204501428Y-86422114D01*
X204430000Y-86279257D01*
X204358571Y-85993543D01*
X204358571Y-85636400D01*
X204430000Y-85350686D01*
X204501428Y-85207829D01*
X204572857Y-85136400D01*
X204715714Y-85064971D01*
X206501428Y-85064971D02*
X206215714Y-85064971D01*
X206072857Y-85136400D01*
X206001428Y-85207829D01*
X205858571Y-85422114D01*
X205787142Y-85707829D01*
X205787142Y-86279257D01*
X205858571Y-86422114D01*
X205929999Y-86493543D01*
X206072857Y-86564971D01*
X206358571Y-86564971D01*
X206501428Y-86493543D01*
X206572857Y-86422114D01*
X206644285Y-86279257D01*
X206644285Y-85922114D01*
X206572857Y-85779257D01*
X206501428Y-85707829D01*
X206358571Y-85636400D01*
X206072857Y-85636400D01*
X205929999Y-85707829D01*
X205858571Y-85779257D01*
X205787142Y-85922114D01*
X207144285Y-85064971D02*
X208072856Y-85064971D01*
X207572856Y-85636400D01*
X207787142Y-85636400D01*
X207929999Y-85707829D01*
X208001428Y-85779257D01*
X208072856Y-85922114D01*
X208072856Y-86279257D01*
X208001428Y-86422114D01*
X207929999Y-86493543D01*
X207787142Y-86564971D01*
X207358570Y-86564971D01*
X207215713Y-86493543D01*
X207144285Y-86422114D01*
X209644284Y-85564971D02*
X210215713Y-85564971D01*
X209858570Y-86564971D02*
X209858570Y-85279257D01*
X209929998Y-85136400D01*
X210072856Y-85064971D01*
X210215713Y-85064971D01*
X210715713Y-86564971D02*
X210715713Y-85564971D01*
X210715713Y-85064971D02*
X210644284Y-85136400D01*
X210715713Y-85207829D01*
X210787141Y-85136400D01*
X210715713Y-85064971D01*
X210715713Y-85207829D01*
X211429999Y-85564971D02*
X211429999Y-86564971D01*
X211429999Y-85707829D02*
X211501427Y-85636400D01*
X211644285Y-85564971D01*
X211858570Y-85564971D01*
X212001427Y-85636400D01*
X212072856Y-85779257D01*
X212072856Y-86564971D01*
X213429999Y-86564971D02*
X213429999Y-85779257D01*
X213358570Y-85636400D01*
X213215713Y-85564971D01*
X212929999Y-85564971D01*
X212787142Y-85636400D01*
X213429999Y-86493543D02*
X213287142Y-86564971D01*
X212929999Y-86564971D01*
X212787142Y-86493543D01*
X212715713Y-86350686D01*
X212715713Y-86207829D01*
X212787142Y-86064971D01*
X212929999Y-85993543D01*
X213287142Y-85993543D01*
X213429999Y-85922114D01*
X214358571Y-86564971D02*
X214215713Y-86493543D01*
X214144285Y-86350686D01*
X214144285Y-85064971D01*
X215858570Y-85564971D02*
X216429999Y-85564971D01*
X216072856Y-85064971D02*
X216072856Y-86350686D01*
X216144284Y-86493543D01*
X216287142Y-86564971D01*
X216429999Y-86564971D01*
X216929999Y-86564971D02*
X216929999Y-85064971D01*
X217572856Y-86564971D02*
X217572856Y-85779257D01*
X217501427Y-85636400D01*
X217358570Y-85564971D01*
X217144285Y-85564971D01*
X217001427Y-85636400D01*
X216929999Y-85707829D01*
X218287142Y-86564971D02*
X218287142Y-85564971D01*
X218287142Y-85064971D02*
X218215713Y-85136400D01*
X218287142Y-85207829D01*
X218358570Y-85136400D01*
X218287142Y-85064971D01*
X218287142Y-85207829D01*
X219644285Y-86493543D02*
X219501428Y-86564971D01*
X219215714Y-86564971D01*
X219072856Y-86493543D01*
X219001428Y-86422114D01*
X218929999Y-86279257D01*
X218929999Y-85850686D01*
X219001428Y-85707829D01*
X219072856Y-85636400D01*
X219215714Y-85564971D01*
X219501428Y-85564971D01*
X219644285Y-85636400D01*
X220287142Y-86564971D02*
X220287142Y-85064971D01*
X220429999Y-85993543D02*
X220858570Y-86564971D01*
X220858570Y-85564971D02*
X220287142Y-86136400D01*
X221501428Y-85564971D02*
X221501428Y-86564971D01*
X221501428Y-85707829D02*
X221572856Y-85636400D01*
X221715714Y-85564971D01*
X221929999Y-85564971D01*
X222072856Y-85636400D01*
X222144285Y-85779257D01*
X222144285Y-86564971D01*
X223429999Y-86493543D02*
X223287142Y-86564971D01*
X223001428Y-86564971D01*
X222858571Y-86493543D01*
X222787142Y-86350686D01*
X222787142Y-85779257D01*
X222858571Y-85636400D01*
X223001428Y-85564971D01*
X223287142Y-85564971D01*
X223429999Y-85636400D01*
X223501428Y-85779257D01*
X223501428Y-85922114D01*
X222787142Y-86064971D01*
X224072856Y-86493543D02*
X224215713Y-86564971D01*
X224501428Y-86564971D01*
X224644285Y-86493543D01*
X224715713Y-86350686D01*
X224715713Y-86279257D01*
X224644285Y-86136400D01*
X224501428Y-86064971D01*
X224287142Y-86064971D01*
X224144285Y-85993543D01*
X224072856Y-85850686D01*
X224072856Y-85779257D01*
X224144285Y-85636400D01*
X224287142Y-85564971D01*
X224501428Y-85564971D01*
X224644285Y-85636400D01*
X225287142Y-86493543D02*
X225429999Y-86564971D01*
X225715714Y-86564971D01*
X225858571Y-86493543D01*
X225929999Y-86350686D01*
X225929999Y-86279257D01*
X225858571Y-86136400D01*
X225715714Y-86064971D01*
X225501428Y-86064971D01*
X225358571Y-85993543D01*
X225287142Y-85850686D01*
X225287142Y-85779257D01*
X225358571Y-85636400D01*
X225501428Y-85564971D01*
X225715714Y-85564971D01*
X225858571Y-85636400D01*
X202215714Y-88796743D02*
X202358571Y-88868171D01*
X202644286Y-88868171D01*
X202787143Y-88796743D01*
X202858571Y-88653886D01*
X202858571Y-88582457D01*
X202787143Y-88439600D01*
X202644286Y-88368171D01*
X202430000Y-88368171D01*
X202287143Y-88296743D01*
X202215714Y-88153886D01*
X202215714Y-88082457D01*
X202287143Y-87939600D01*
X202430000Y-87868171D01*
X202644286Y-87868171D01*
X202787143Y-87939600D01*
X203715715Y-88868171D02*
X203572857Y-88796743D01*
X203501429Y-88725314D01*
X203430000Y-88582457D01*
X203430000Y-88153886D01*
X203501429Y-88011029D01*
X203572857Y-87939600D01*
X203715715Y-87868171D01*
X203930000Y-87868171D01*
X204072857Y-87939600D01*
X204144286Y-88011029D01*
X204215715Y-88153886D01*
X204215715Y-88582457D01*
X204144286Y-88725314D01*
X204072857Y-88796743D01*
X203930000Y-88868171D01*
X203715715Y-88868171D01*
X205072858Y-88868171D02*
X204930000Y-88796743D01*
X204858572Y-88653886D01*
X204858572Y-87368171D01*
X206287143Y-88868171D02*
X206287143Y-87368171D01*
X206287143Y-88796743D02*
X206144286Y-88868171D01*
X205858572Y-88868171D01*
X205715714Y-88796743D01*
X205644286Y-88725314D01*
X205572857Y-88582457D01*
X205572857Y-88153886D01*
X205644286Y-88011029D01*
X205715714Y-87939600D01*
X205858572Y-87868171D01*
X206144286Y-87868171D01*
X206287143Y-87939600D01*
X207572857Y-88796743D02*
X207430000Y-88868171D01*
X207144286Y-88868171D01*
X207001429Y-88796743D01*
X206930000Y-88653886D01*
X206930000Y-88082457D01*
X207001429Y-87939600D01*
X207144286Y-87868171D01*
X207430000Y-87868171D01*
X207572857Y-87939600D01*
X207644286Y-88082457D01*
X207644286Y-88225314D01*
X206930000Y-88368171D01*
X208287143Y-88868171D02*
X208287143Y-87868171D01*
X208287143Y-88153886D02*
X208358571Y-88011029D01*
X208430000Y-87939600D01*
X208572857Y-87868171D01*
X208715714Y-87868171D01*
X209215714Y-88868171D02*
X209215714Y-87868171D01*
X209215714Y-88011029D02*
X209287142Y-87939600D01*
X209430000Y-87868171D01*
X209644285Y-87868171D01*
X209787142Y-87939600D01*
X209858571Y-88082457D01*
X209858571Y-88868171D01*
X209858571Y-88082457D02*
X209930000Y-87939600D01*
X210072857Y-87868171D01*
X210287142Y-87868171D01*
X210430000Y-87939600D01*
X210501428Y-88082457D01*
X210501428Y-88868171D01*
X211858571Y-88868171D02*
X211858571Y-88082457D01*
X211787142Y-87939600D01*
X211644285Y-87868171D01*
X211358571Y-87868171D01*
X211215714Y-87939600D01*
X211858571Y-88796743D02*
X211715714Y-88868171D01*
X211358571Y-88868171D01*
X211215714Y-88796743D01*
X211144285Y-88653886D01*
X211144285Y-88511029D01*
X211215714Y-88368171D01*
X211358571Y-88296743D01*
X211715714Y-88296743D01*
X211858571Y-88225314D01*
X212501428Y-88796743D02*
X212644285Y-88868171D01*
X212930000Y-88868171D01*
X213072857Y-88796743D01*
X213144285Y-88653886D01*
X213144285Y-88582457D01*
X213072857Y-88439600D01*
X212930000Y-88368171D01*
X212715714Y-88368171D01*
X212572857Y-88296743D01*
X212501428Y-88153886D01*
X212501428Y-88082457D01*
X212572857Y-87939600D01*
X212715714Y-87868171D01*
X212930000Y-87868171D01*
X213072857Y-87939600D01*
X213787143Y-88868171D02*
X213787143Y-87368171D01*
X213930000Y-88296743D02*
X214358571Y-88868171D01*
X214358571Y-87868171D02*
X213787143Y-88439600D01*
X216144286Y-88868171D02*
X216144286Y-87368171D01*
X216144286Y-87939600D02*
X216287143Y-87868171D01*
X216572857Y-87868171D01*
X216715714Y-87939600D01*
X216787143Y-88011029D01*
X216858572Y-88153886D01*
X216858572Y-88582457D01*
X216787143Y-88725314D01*
X216715714Y-88796743D01*
X216572857Y-88868171D01*
X216287143Y-88868171D01*
X216144286Y-88796743D01*
X217715715Y-88868171D02*
X217572857Y-88796743D01*
X217501429Y-88725314D01*
X217430000Y-88582457D01*
X217430000Y-88153886D01*
X217501429Y-88011029D01*
X217572857Y-87939600D01*
X217715715Y-87868171D01*
X217930000Y-87868171D01*
X218072857Y-87939600D01*
X218144286Y-88011029D01*
X218215715Y-88153886D01*
X218215715Y-88582457D01*
X218144286Y-88725314D01*
X218072857Y-88796743D01*
X217930000Y-88868171D01*
X217715715Y-88868171D01*
X218644286Y-87868171D02*
X219215715Y-87868171D01*
X218858572Y-87368171D02*
X218858572Y-88653886D01*
X218930000Y-88796743D01*
X219072858Y-88868171D01*
X219215715Y-88868171D01*
X219715715Y-88868171D02*
X219715715Y-87368171D01*
X220358572Y-88868171D02*
X220358572Y-88082457D01*
X220287143Y-87939600D01*
X220144286Y-87868171D01*
X219930001Y-87868171D01*
X219787143Y-87939600D01*
X219715715Y-88011029D01*
X222144286Y-88796743D02*
X222287143Y-88868171D01*
X222572858Y-88868171D01*
X222715715Y-88796743D01*
X222787143Y-88653886D01*
X222787143Y-88582457D01*
X222715715Y-88439600D01*
X222572858Y-88368171D01*
X222358572Y-88368171D01*
X222215715Y-88296743D01*
X222144286Y-88153886D01*
X222144286Y-88082457D01*
X222215715Y-87939600D01*
X222358572Y-87868171D01*
X222572858Y-87868171D01*
X222715715Y-87939600D01*
X223430001Y-88868171D02*
X223430001Y-87868171D01*
X223430001Y-87368171D02*
X223358572Y-87439600D01*
X223430001Y-87511029D01*
X223501429Y-87439600D01*
X223430001Y-87368171D01*
X223430001Y-87511029D01*
X224787144Y-88868171D02*
X224787144Y-87368171D01*
X224787144Y-88796743D02*
X224644287Y-88868171D01*
X224358573Y-88868171D01*
X224215715Y-88796743D01*
X224144287Y-88725314D01*
X224072858Y-88582457D01*
X224072858Y-88153886D01*
X224144287Y-88011029D01*
X224215715Y-87939600D01*
X224358573Y-87868171D01*
X224644287Y-87868171D01*
X224787144Y-87939600D01*
X226072858Y-88796743D02*
X225930001Y-88868171D01*
X225644287Y-88868171D01*
X225501430Y-88796743D01*
X225430001Y-88653886D01*
X225430001Y-88082457D01*
X225501430Y-87939600D01*
X225644287Y-87868171D01*
X225930001Y-87868171D01*
X226072858Y-87939600D01*
X226144287Y-88082457D01*
X226144287Y-88225314D01*
X225430001Y-88368171D01*
X226715715Y-88796743D02*
X226858572Y-88868171D01*
X227144287Y-88868171D01*
X227287144Y-88796743D01*
X227358572Y-88653886D01*
X227358572Y-88582457D01*
X227287144Y-88439600D01*
X227144287Y-88368171D01*
X226930001Y-88368171D01*
X226787144Y-88296743D01*
X226715715Y-88153886D01*
X226715715Y-88082457D01*
X226787144Y-87939600D01*
X226930001Y-87868171D01*
X227144287Y-87868171D01*
X227287144Y-87939600D01*
X229572858Y-89439600D02*
X229501430Y-89368171D01*
X229358573Y-89153886D01*
X229287144Y-89011029D01*
X229215715Y-88796743D01*
X229144287Y-88439600D01*
X229144287Y-88153886D01*
X229215715Y-87796743D01*
X229287144Y-87582457D01*
X229358573Y-87439600D01*
X229501430Y-87225314D01*
X229572858Y-87153886D01*
X230787144Y-87868171D02*
X230787144Y-89082457D01*
X230715715Y-89225314D01*
X230644287Y-89296743D01*
X230501430Y-89368171D01*
X230287144Y-89368171D01*
X230144287Y-89296743D01*
X230787144Y-88796743D02*
X230644287Y-88868171D01*
X230358573Y-88868171D01*
X230215715Y-88796743D01*
X230144287Y-88725314D01*
X230072858Y-88582457D01*
X230072858Y-88153886D01*
X230144287Y-88011029D01*
X230215715Y-87939600D01*
X230358573Y-87868171D01*
X230644287Y-87868171D01*
X230787144Y-87939600D01*
X231501430Y-88868171D02*
X231501430Y-87868171D01*
X231501430Y-88153886D02*
X231572858Y-88011029D01*
X231644287Y-87939600D01*
X231787144Y-87868171D01*
X231930001Y-87868171D01*
X233001429Y-88796743D02*
X232858572Y-88868171D01*
X232572858Y-88868171D01*
X232430001Y-88796743D01*
X232358572Y-88653886D01*
X232358572Y-88082457D01*
X232430001Y-87939600D01*
X232572858Y-87868171D01*
X232858572Y-87868171D01*
X233001429Y-87939600D01*
X233072858Y-88082457D01*
X233072858Y-88225314D01*
X232358572Y-88368171D01*
X234287143Y-88796743D02*
X234144286Y-88868171D01*
X233858572Y-88868171D01*
X233715715Y-88796743D01*
X233644286Y-88653886D01*
X233644286Y-88082457D01*
X233715715Y-87939600D01*
X233858572Y-87868171D01*
X234144286Y-87868171D01*
X234287143Y-87939600D01*
X234358572Y-88082457D01*
X234358572Y-88225314D01*
X233644286Y-88368171D01*
X235001429Y-87868171D02*
X235001429Y-88868171D01*
X235001429Y-88011029D02*
X235072857Y-87939600D01*
X235215715Y-87868171D01*
X235430000Y-87868171D01*
X235572857Y-87939600D01*
X235644286Y-88082457D01*
X235644286Y-88868171D01*
X236215715Y-89439600D02*
X236287143Y-89368171D01*
X236430000Y-89153886D01*
X236501429Y-89011029D01*
X236572858Y-88796743D01*
X236644286Y-88439600D01*
X236644286Y-88153886D01*
X236572858Y-87796743D01*
X236501429Y-87582457D01*
X236430000Y-87439600D01*
X236287143Y-87225314D01*
X236215715Y-87153886D01*
X202215714Y-91099943D02*
X202358571Y-91171371D01*
X202644286Y-91171371D01*
X202787143Y-91099943D01*
X202858571Y-90957086D01*
X202858571Y-90885657D01*
X202787143Y-90742800D01*
X202644286Y-90671371D01*
X202430000Y-90671371D01*
X202287143Y-90599943D01*
X202215714Y-90457086D01*
X202215714Y-90385657D01*
X202287143Y-90242800D01*
X202430000Y-90171371D01*
X202644286Y-90171371D01*
X202787143Y-90242800D01*
X203501429Y-91171371D02*
X203501429Y-90171371D01*
X203501429Y-89671371D02*
X203430000Y-89742800D01*
X203501429Y-89814229D01*
X203572857Y-89742800D01*
X203501429Y-89671371D01*
X203501429Y-89814229D01*
X204430001Y-91171371D02*
X204287143Y-91099943D01*
X204215715Y-90957086D01*
X204215715Y-89671371D01*
X205001429Y-91171371D02*
X205001429Y-89671371D01*
X205144286Y-90599943D02*
X205572857Y-91171371D01*
X205572857Y-90171371D02*
X205001429Y-90742800D01*
X206144286Y-91099943D02*
X206287143Y-91171371D01*
X206572858Y-91171371D01*
X206715715Y-91099943D01*
X206787143Y-90957086D01*
X206787143Y-90885657D01*
X206715715Y-90742800D01*
X206572858Y-90671371D01*
X206358572Y-90671371D01*
X206215715Y-90599943D01*
X206144286Y-90457086D01*
X206144286Y-90385657D01*
X206215715Y-90242800D01*
X206358572Y-90171371D01*
X206572858Y-90171371D01*
X206715715Y-90242800D01*
X208072858Y-91099943D02*
X207930001Y-91171371D01*
X207644287Y-91171371D01*
X207501429Y-91099943D01*
X207430001Y-91028514D01*
X207358572Y-90885657D01*
X207358572Y-90457086D01*
X207430001Y-90314229D01*
X207501429Y-90242800D01*
X207644287Y-90171371D01*
X207930001Y-90171371D01*
X208072858Y-90242800D01*
X208715715Y-91171371D02*
X208715715Y-90171371D01*
X208715715Y-90457086D02*
X208787143Y-90314229D01*
X208858572Y-90242800D01*
X209001429Y-90171371D01*
X209144286Y-90171371D01*
X210215714Y-91099943D02*
X210072857Y-91171371D01*
X209787143Y-91171371D01*
X209644286Y-91099943D01*
X209572857Y-90957086D01*
X209572857Y-90385657D01*
X209644286Y-90242800D01*
X209787143Y-90171371D01*
X210072857Y-90171371D01*
X210215714Y-90242800D01*
X210287143Y-90385657D01*
X210287143Y-90528514D01*
X209572857Y-90671371D01*
X211501428Y-91099943D02*
X211358571Y-91171371D01*
X211072857Y-91171371D01*
X210930000Y-91099943D01*
X210858571Y-90957086D01*
X210858571Y-90385657D01*
X210930000Y-90242800D01*
X211072857Y-90171371D01*
X211358571Y-90171371D01*
X211501428Y-90242800D01*
X211572857Y-90385657D01*
X211572857Y-90528514D01*
X210858571Y-90671371D01*
X212215714Y-90171371D02*
X212215714Y-91171371D01*
X212215714Y-90314229D02*
X212287142Y-90242800D01*
X212430000Y-90171371D01*
X212644285Y-90171371D01*
X212787142Y-90242800D01*
X212858571Y-90385657D01*
X212858571Y-91171371D01*
X214930000Y-91171371D02*
X214787142Y-91099943D01*
X214715714Y-90957086D01*
X214715714Y-89671371D01*
X216072856Y-91099943D02*
X215929999Y-91171371D01*
X215644285Y-91171371D01*
X215501428Y-91099943D01*
X215429999Y-90957086D01*
X215429999Y-90385657D01*
X215501428Y-90242800D01*
X215644285Y-90171371D01*
X215929999Y-90171371D01*
X216072856Y-90242800D01*
X216144285Y-90385657D01*
X216144285Y-90528514D01*
X215429999Y-90671371D01*
X217429999Y-90171371D02*
X217429999Y-91385657D01*
X217358570Y-91528514D01*
X217287142Y-91599943D01*
X217144285Y-91671371D01*
X216929999Y-91671371D01*
X216787142Y-91599943D01*
X217429999Y-91099943D02*
X217287142Y-91171371D01*
X217001428Y-91171371D01*
X216858570Y-91099943D01*
X216787142Y-91028514D01*
X216715713Y-90885657D01*
X216715713Y-90457086D01*
X216787142Y-90314229D01*
X216858570Y-90242800D01*
X217001428Y-90171371D01*
X217287142Y-90171371D01*
X217429999Y-90242800D01*
X218715713Y-91099943D02*
X218572856Y-91171371D01*
X218287142Y-91171371D01*
X218144285Y-91099943D01*
X218072856Y-90957086D01*
X218072856Y-90385657D01*
X218144285Y-90242800D01*
X218287142Y-90171371D01*
X218572856Y-90171371D01*
X218715713Y-90242800D01*
X218787142Y-90385657D01*
X218787142Y-90528514D01*
X218072856Y-90671371D01*
X219429999Y-90171371D02*
X219429999Y-91171371D01*
X219429999Y-90314229D02*
X219501427Y-90242800D01*
X219644285Y-90171371D01*
X219858570Y-90171371D01*
X220001427Y-90242800D01*
X220072856Y-90385657D01*
X220072856Y-91171371D01*
X221429999Y-91171371D02*
X221429999Y-89671371D01*
X221429999Y-91099943D02*
X221287142Y-91171371D01*
X221001428Y-91171371D01*
X220858570Y-91099943D01*
X220787142Y-91028514D01*
X220715713Y-90885657D01*
X220715713Y-90457086D01*
X220787142Y-90314229D01*
X220858570Y-90242800D01*
X221001428Y-90171371D01*
X221287142Y-90171371D01*
X221429999Y-90242800D01*
X223072856Y-90171371D02*
X223644285Y-90171371D01*
X223287142Y-89671371D02*
X223287142Y-90957086D01*
X223358570Y-91099943D01*
X223501428Y-91171371D01*
X223644285Y-91171371D01*
X224358571Y-91171371D02*
X224215713Y-91099943D01*
X224144285Y-91028514D01*
X224072856Y-90885657D01*
X224072856Y-90457086D01*
X224144285Y-90314229D01*
X224215713Y-90242800D01*
X224358571Y-90171371D01*
X224572856Y-90171371D01*
X224715713Y-90242800D01*
X224787142Y-90314229D01*
X224858571Y-90457086D01*
X224858571Y-90885657D01*
X224787142Y-91028514D01*
X224715713Y-91099943D01*
X224572856Y-91171371D01*
X224358571Y-91171371D01*
X225501428Y-90171371D02*
X225501428Y-91671371D01*
X225501428Y-90242800D02*
X225644285Y-90171371D01*
X225929999Y-90171371D01*
X226072856Y-90242800D01*
X226144285Y-90314229D01*
X226215714Y-90457086D01*
X226215714Y-90885657D01*
X226144285Y-91028514D01*
X226072856Y-91099943D01*
X225929999Y-91171371D01*
X225644285Y-91171371D01*
X225501428Y-91099943D01*
X228215714Y-91171371D02*
X228072856Y-91099943D01*
X228001428Y-91028514D01*
X227929999Y-90885657D01*
X227929999Y-90457086D01*
X228001428Y-90314229D01*
X228072856Y-90242800D01*
X228215714Y-90171371D01*
X228429999Y-90171371D01*
X228572856Y-90242800D01*
X228644285Y-90314229D01*
X228715714Y-90457086D01*
X228715714Y-90885657D01*
X228644285Y-91028514D01*
X228572856Y-91099943D01*
X228429999Y-91171371D01*
X228215714Y-91171371D01*
X229358571Y-90171371D02*
X229358571Y-91171371D01*
X229358571Y-90314229D02*
X229429999Y-90242800D01*
X229572857Y-90171371D01*
X229787142Y-90171371D01*
X229929999Y-90242800D01*
X230001428Y-90385657D01*
X230001428Y-91171371D01*
X230930000Y-91171371D02*
X230787142Y-91099943D01*
X230715714Y-90957086D01*
X230715714Y-89671371D01*
X231358571Y-90171371D02*
X231715714Y-91171371D01*
X232072856Y-90171371D02*
X231715714Y-91171371D01*
X231572856Y-91528514D01*
X231501428Y-91599943D01*
X231358571Y-91671371D01*
X234215713Y-91742800D02*
X234144285Y-91671371D01*
X234001428Y-91457086D01*
X233929999Y-91314229D01*
X233858570Y-91099943D01*
X233787142Y-90742800D01*
X233787142Y-90457086D01*
X233858570Y-90099943D01*
X233929999Y-89885657D01*
X234001428Y-89742800D01*
X234144285Y-89528514D01*
X234215713Y-89457086D01*
X234644285Y-90171371D02*
X234929999Y-91171371D01*
X235215713Y-90457086D01*
X235501428Y-91171371D01*
X235787142Y-90171371D01*
X236358571Y-91171371D02*
X236358571Y-89671371D01*
X237001428Y-91171371D02*
X237001428Y-90385657D01*
X236929999Y-90242800D01*
X236787142Y-90171371D01*
X236572857Y-90171371D01*
X236429999Y-90242800D01*
X236358571Y-90314229D01*
X237715714Y-91171371D02*
X237715714Y-90171371D01*
X237715714Y-89671371D02*
X237644285Y-89742800D01*
X237715714Y-89814229D01*
X237787142Y-89742800D01*
X237715714Y-89671371D01*
X237715714Y-89814229D01*
X238215714Y-90171371D02*
X238787143Y-90171371D01*
X238430000Y-89671371D02*
X238430000Y-90957086D01*
X238501428Y-91099943D01*
X238644286Y-91171371D01*
X238787143Y-91171371D01*
X239858571Y-91099943D02*
X239715714Y-91171371D01*
X239430000Y-91171371D01*
X239287143Y-91099943D01*
X239215714Y-90957086D01*
X239215714Y-90385657D01*
X239287143Y-90242800D01*
X239430000Y-90171371D01*
X239715714Y-90171371D01*
X239858571Y-90242800D01*
X239930000Y-90385657D01*
X239930000Y-90528514D01*
X239215714Y-90671371D01*
X240430000Y-91742800D02*
X240501428Y-91671371D01*
X240644285Y-91457086D01*
X240715714Y-91314229D01*
X240787143Y-91099943D01*
X240858571Y-90742800D01*
X240858571Y-90457086D01*
X240787143Y-90099943D01*
X240715714Y-89885657D01*
X240644285Y-89742800D01*
X240501428Y-89528514D01*
X240430000Y-89457086D01*
D13*
X153670000Y-71120000D02*
X186690000Y-71120000D01*
X153670000Y-137160000D02*
X186690000Y-137160000D01*
X153670000Y-137160000D02*
X153670000Y-71120000D01*
X186690000Y-71120000D02*
X186690000Y-137160000D01*
M02*
