%TF.GenerationSoftware,KiCad,Pcbnew,4.0.2-stable*%
%TF.CreationDate,2021-11-11T11:09:56-08:00*%
%TF.ProjectId,pwm,70776D2E6B696361645F706362000000,rev?*%
%TF.FileFunction,Other,User*%
%FSLAX46Y46*%
G04 Gerber Fmt 4.6, Leading zero omitted, Abs format (unit mm)*
G04 Created by KiCad (PCBNEW 4.0.2-stable) date 11/11/2021 11:09:56 AM*
%MOMM*%
G01*
G04 APERTURE LIST*
%ADD10C,0.100000*%
%ADD11C,0.150000*%
%ADD12C,0.050000*%
G04 APERTURE END LIST*
D10*
D11*
X153670000Y-71120000D02*
X186690000Y-71120000D01*
X153670000Y-137160000D02*
X186690000Y-137160000D01*
X153670000Y-137160000D02*
X153670000Y-71120000D01*
X186690000Y-71120000D02*
X186690000Y-137160000D01*
D12*
X170754000Y-90155000D02*
X172654000Y-90155000D01*
X170754000Y-91455000D02*
X172654000Y-91455000D01*
X170754000Y-90155000D02*
X170754000Y-91455000D01*
X172654000Y-90155000D02*
X172654000Y-91455000D01*
X169606000Y-83200000D02*
X167706000Y-83200000D01*
X169606000Y-81900000D02*
X167706000Y-81900000D01*
X169606000Y-83200000D02*
X169606000Y-81900000D01*
X167706000Y-83200000D02*
X167706000Y-81900000D01*
X169679000Y-73752000D02*
X167379000Y-73752000D01*
X169679000Y-72552000D02*
X167379000Y-72552000D01*
X169679000Y-73752000D02*
X169679000Y-72552000D01*
X167379000Y-73752000D02*
X167379000Y-72552000D01*
X168310000Y-126245000D02*
X168310000Y-123945000D01*
X169510000Y-126245000D02*
X169510000Y-123945000D01*
X168310000Y-126245000D02*
X169510000Y-126245000D01*
X168310000Y-123945000D02*
X169510000Y-123945000D01*
X179825000Y-118653000D02*
X182125000Y-118653000D01*
X179825000Y-119853000D02*
X182125000Y-119853000D01*
X179825000Y-118653000D02*
X179825000Y-119853000D01*
X182125000Y-118653000D02*
X182125000Y-119853000D01*
X174364000Y-126400000D02*
X176664000Y-126400000D01*
X174364000Y-127600000D02*
X176664000Y-127600000D01*
X174364000Y-126400000D02*
X174364000Y-127600000D01*
X176664000Y-126400000D02*
X176664000Y-127600000D01*
X169606000Y-78120000D02*
X167706000Y-78120000D01*
X169606000Y-76820000D02*
X167706000Y-76820000D01*
X169606000Y-78120000D02*
X169606000Y-76820000D01*
X167706000Y-78120000D02*
X167706000Y-76820000D01*
X170754000Y-74915000D02*
X172654000Y-74915000D01*
X170754000Y-76215000D02*
X172654000Y-76215000D01*
X170754000Y-74915000D02*
X170754000Y-76215000D01*
X172654000Y-74915000D02*
X172654000Y-76215000D01*
X170754000Y-79995000D02*
X172654000Y-79995000D01*
X170754000Y-81295000D02*
X172654000Y-81295000D01*
X170754000Y-79995000D02*
X170754000Y-81295000D01*
X172654000Y-79995000D02*
X172654000Y-81295000D01*
X169606000Y-88280000D02*
X167706000Y-88280000D01*
X169606000Y-86980000D02*
X167706000Y-86980000D01*
X169606000Y-88280000D02*
X169606000Y-86980000D01*
X167706000Y-88280000D02*
X167706000Y-86980000D01*
X170754000Y-85075000D02*
X172654000Y-85075000D01*
X170754000Y-86375000D02*
X172654000Y-86375000D01*
X170754000Y-85075000D02*
X170754000Y-86375000D01*
X172654000Y-85075000D02*
X172654000Y-86375000D01*
X169606000Y-93360000D02*
X167706000Y-93360000D01*
X169606000Y-92060000D02*
X167706000Y-92060000D01*
X169606000Y-93360000D02*
X169606000Y-92060000D01*
X167706000Y-93360000D02*
X167706000Y-92060000D01*
X169606000Y-98440000D02*
X167706000Y-98440000D01*
X169606000Y-97140000D02*
X167706000Y-97140000D01*
X169606000Y-98440000D02*
X169606000Y-97140000D01*
X167706000Y-98440000D02*
X167706000Y-97140000D01*
X170754000Y-95235000D02*
X172654000Y-95235000D01*
X170754000Y-96535000D02*
X172654000Y-96535000D01*
X170754000Y-95235000D02*
X170754000Y-96535000D01*
X172654000Y-95235000D02*
X172654000Y-96535000D01*
X169606000Y-103520000D02*
X167706000Y-103520000D01*
X169606000Y-102220000D02*
X167706000Y-102220000D01*
X169606000Y-103520000D02*
X169606000Y-102220000D01*
X167706000Y-103520000D02*
X167706000Y-102220000D01*
X170754000Y-100315000D02*
X172654000Y-100315000D01*
X170754000Y-101615000D02*
X172654000Y-101615000D01*
X170754000Y-100315000D02*
X170754000Y-101615000D01*
X172654000Y-100315000D02*
X172654000Y-101615000D01*
X169606000Y-108600000D02*
X167706000Y-108600000D01*
X169606000Y-107300000D02*
X167706000Y-107300000D01*
X169606000Y-108600000D02*
X169606000Y-107300000D01*
X167706000Y-108600000D02*
X167706000Y-107300000D01*
X170754000Y-105395000D02*
X172654000Y-105395000D01*
X170754000Y-106695000D02*
X172654000Y-106695000D01*
X170754000Y-105395000D02*
X170754000Y-106695000D01*
X172654000Y-105395000D02*
X172654000Y-106695000D01*
X169606000Y-113680000D02*
X167706000Y-113680000D01*
X169606000Y-112380000D02*
X167706000Y-112380000D01*
X169606000Y-113680000D02*
X169606000Y-112380000D01*
X167706000Y-113680000D02*
X167706000Y-112380000D01*
X170754000Y-110475000D02*
X172654000Y-110475000D01*
X170754000Y-111775000D02*
X172654000Y-111775000D01*
X170754000Y-110475000D02*
X170754000Y-111775000D01*
X172654000Y-110475000D02*
X172654000Y-111775000D01*
X167960000Y-129525000D02*
X169860000Y-129525000D01*
X167960000Y-130825000D02*
X169860000Y-130825000D01*
X167960000Y-129525000D02*
X167960000Y-130825000D01*
X169860000Y-129525000D02*
X169860000Y-130825000D01*
X162694000Y-130775000D02*
X160394000Y-130775000D01*
X162694000Y-129575000D02*
X160394000Y-129575000D01*
X162694000Y-130775000D02*
X162694000Y-129575000D01*
X160394000Y-130775000D02*
X160394000Y-129575000D01*
X171570000Y-129575000D02*
X173870000Y-129575000D01*
X171570000Y-130775000D02*
X173870000Y-130775000D01*
X171570000Y-129575000D02*
X171570000Y-130775000D01*
X173870000Y-129575000D02*
X173870000Y-130775000D01*
X182760000Y-130775000D02*
X180460000Y-130775000D01*
X182760000Y-129575000D02*
X180460000Y-129575000D01*
X182760000Y-130775000D02*
X182760000Y-129575000D01*
X180460000Y-130775000D02*
X180460000Y-129575000D01*
X175380000Y-129575000D02*
X177680000Y-129575000D01*
X175380000Y-130775000D02*
X177680000Y-130775000D01*
X175380000Y-129575000D02*
X175380000Y-130775000D01*
X177680000Y-129575000D02*
X177680000Y-130775000D01*
X170808000Y-113827000D02*
X173108000Y-113827000D01*
X170808000Y-115027000D02*
X173108000Y-115027000D01*
X170808000Y-113827000D02*
X170808000Y-115027000D01*
X173108000Y-113827000D02*
X173108000Y-115027000D01*
X166050000Y-130825000D02*
X164150000Y-130825000D01*
X166050000Y-129525000D02*
X164150000Y-129525000D01*
X166050000Y-130825000D02*
X166050000Y-129525000D01*
X164150000Y-130825000D02*
X164150000Y-129525000D01*
X168260000Y-95565000D02*
X168260000Y-93665000D01*
X169560000Y-95565000D02*
X169560000Y-93665000D01*
X168260000Y-95565000D02*
X169560000Y-95565000D01*
X168260000Y-93665000D02*
X169560000Y-93665000D01*
M02*
