G04 #@! TF.FileFunction,Copper,L2,Bot,Signal*
%FSLAX46Y46*%
G04 Gerber Fmt 4.6, Leading zero omitted, Abs format (unit mm)*
G04 Created by KiCad (PCBNEW 4.0.3+e1-6302~38~ubuntu14.04.1-stable) date Fri Aug 19 15:50:11 2016*
%MOMM*%
%LPD*%
G01*
G04 APERTURE LIST*
%ADD10C,0.100000*%
%ADD11C,0.150000*%
%ADD12C,0.300000*%
%ADD13C,0.400000*%
%ADD14C,1.750000*%
%ADD15C,1.524000*%
%ADD16C,1.016000*%
%ADD17C,0.635000*%
%ADD18C,0.381000*%
%ADD19C,0.381000*%
G04 APERTURE END LIST*
D10*
D11*
X177002200Y-166007200D02*
X177002200Y-198007200D01*
X285002200Y-198007200D01*
X285002200Y-166007200D01*
X177002200Y-166007200D01*
D10*
D11*
X10000000Y-10000000D02*
X10000000Y-200007200D01*
X287002200Y-200007200D01*
X287002200Y-10000000D01*
X10000000Y-10000000D01*
D10*
D11*
X12000000Y-12000000D02*
X12000000Y-198007200D01*
X285002200Y-198007200D01*
X285002200Y-12000000D01*
X12000000Y-12000000D01*
D10*
D11*
X60000000Y-12000000D02*
X60000000Y-10000000D01*
D10*
D11*
X110000000Y-12000000D02*
X110000000Y-10000000D01*
D10*
D11*
X160000000Y-12000000D02*
X160000000Y-10000000D01*
D10*
D11*
X210000000Y-12000000D02*
X210000000Y-10000000D01*
D10*
D11*
X260000000Y-12000000D02*
X260000000Y-10000000D01*
D10*
D11*
X35990476Y-11588095D02*
X35247619Y-11588095D01*
X35619048Y-11588095D02*
X35619048Y-10288095D01*
X35495238Y-10473810D01*
X35371429Y-10597619D01*
X35247619Y-10659524D01*
D10*
D11*
X85247619Y-10411905D02*
X85309524Y-10350000D01*
X85433333Y-10288095D01*
X85742857Y-10288095D01*
X85866667Y-10350000D01*
X85928571Y-10411905D01*
X85990476Y-10535714D01*
X85990476Y-10659524D01*
X85928571Y-10845238D01*
X85185714Y-11588095D01*
X85990476Y-11588095D01*
D10*
D11*
X135185714Y-10288095D02*
X135990476Y-10288095D01*
X135557143Y-10783333D01*
X135742857Y-10783333D01*
X135866667Y-10845238D01*
X135928571Y-10907143D01*
X135990476Y-11030952D01*
X135990476Y-11340476D01*
X135928571Y-11464286D01*
X135866667Y-11526190D01*
X135742857Y-11588095D01*
X135371429Y-11588095D01*
X135247619Y-11526190D01*
X135185714Y-11464286D01*
D10*
D11*
X185866667Y-10721429D02*
X185866667Y-11588095D01*
X185557143Y-10226190D02*
X185247619Y-11154762D01*
X186052381Y-11154762D01*
D10*
D11*
X235928571Y-10288095D02*
X235309524Y-10288095D01*
X235247619Y-10907143D01*
X235309524Y-10845238D01*
X235433333Y-10783333D01*
X235742857Y-10783333D01*
X235866667Y-10845238D01*
X235928571Y-10907143D01*
X235990476Y-11030952D01*
X235990476Y-11340476D01*
X235928571Y-11464286D01*
X235866667Y-11526190D01*
X235742857Y-11588095D01*
X235433333Y-11588095D01*
X235309524Y-11526190D01*
X235247619Y-11464286D01*
D10*
D11*
X285866667Y-10288095D02*
X285619048Y-10288095D01*
X285495238Y-10350000D01*
X285433333Y-10411905D01*
X285309524Y-10597619D01*
X285247619Y-10845238D01*
X285247619Y-11340476D01*
X285309524Y-11464286D01*
X285371429Y-11526190D01*
X285495238Y-11588095D01*
X285742857Y-11588095D01*
X285866667Y-11526190D01*
X285928571Y-11464286D01*
X285990476Y-11340476D01*
X285990476Y-11030952D01*
X285928571Y-10907143D01*
X285866667Y-10845238D01*
X285742857Y-10783333D01*
X285495238Y-10783333D01*
X285371429Y-10845238D01*
X285309524Y-10907143D01*
X285247619Y-11030952D01*
D10*
D11*
X60000000Y-198007200D02*
X60000000Y-200007200D01*
D10*
D11*
X110000000Y-198007200D02*
X110000000Y-200007200D01*
D10*
D11*
X160000000Y-198007200D02*
X160000000Y-200007200D01*
D10*
D11*
X210000000Y-198007200D02*
X210000000Y-200007200D01*
D10*
D11*
X260000000Y-198007200D02*
X260000000Y-200007200D01*
D10*
D11*
X35990476Y-199595295D02*
X35247619Y-199595295D01*
X35619048Y-199595295D02*
X35619048Y-198295295D01*
X35495238Y-198481010D01*
X35371429Y-198604819D01*
X35247619Y-198666724D01*
D10*
D11*
X85247619Y-198419105D02*
X85309524Y-198357200D01*
X85433333Y-198295295D01*
X85742857Y-198295295D01*
X85866667Y-198357200D01*
X85928571Y-198419105D01*
X85990476Y-198542914D01*
X85990476Y-198666724D01*
X85928571Y-198852438D01*
X85185714Y-199595295D01*
X85990476Y-199595295D01*
D10*
D11*
X135185714Y-198295295D02*
X135990476Y-198295295D01*
X135557143Y-198790533D01*
X135742857Y-198790533D01*
X135866667Y-198852438D01*
X135928571Y-198914343D01*
X135990476Y-199038152D01*
X135990476Y-199347676D01*
X135928571Y-199471486D01*
X135866667Y-199533390D01*
X135742857Y-199595295D01*
X135371429Y-199595295D01*
X135247619Y-199533390D01*
X135185714Y-199471486D01*
D10*
D11*
X185866667Y-198728629D02*
X185866667Y-199595295D01*
X185557143Y-198233390D02*
X185247619Y-199161962D01*
X186052381Y-199161962D01*
D10*
D11*
X235928571Y-198295295D02*
X235309524Y-198295295D01*
X235247619Y-198914343D01*
X235309524Y-198852438D01*
X235433333Y-198790533D01*
X235742857Y-198790533D01*
X235866667Y-198852438D01*
X235928571Y-198914343D01*
X235990476Y-199038152D01*
X235990476Y-199347676D01*
X235928571Y-199471486D01*
X235866667Y-199533390D01*
X235742857Y-199595295D01*
X235433333Y-199595295D01*
X235309524Y-199533390D01*
X235247619Y-199471486D01*
D10*
D11*
X285866667Y-198295295D02*
X285619048Y-198295295D01*
X285495238Y-198357200D01*
X285433333Y-198419105D01*
X285309524Y-198604819D01*
X285247619Y-198852438D01*
X285247619Y-199347676D01*
X285309524Y-199471486D01*
X285371429Y-199533390D01*
X285495238Y-199595295D01*
X285742857Y-199595295D01*
X285866667Y-199533390D01*
X285928571Y-199471486D01*
X285990476Y-199347676D01*
X285990476Y-199038152D01*
X285928571Y-198914343D01*
X285866667Y-198852438D01*
X285742857Y-198790533D01*
X285495238Y-198790533D01*
X285371429Y-198852438D01*
X285309524Y-198914343D01*
X285247619Y-199038152D01*
D10*
D11*
X10000000Y-60000000D02*
X12000000Y-60000000D01*
D10*
D11*
X10000000Y-110000000D02*
X12000000Y-110000000D01*
D10*
D11*
X10000000Y-160000000D02*
X12000000Y-160000000D01*
D10*
D11*
X10690476Y-35216667D02*
X11309524Y-35216667D01*
X10566667Y-35588095D02*
X11000000Y-34288095D01*
X11433333Y-35588095D01*
D10*
D11*
X11092857Y-84907143D02*
X11278571Y-84969048D01*
X11340476Y-85030952D01*
X11402381Y-85154762D01*
X11402381Y-85340476D01*
X11340476Y-85464286D01*
X11278571Y-85526190D01*
X11154762Y-85588095D01*
X10659524Y-85588095D01*
X10659524Y-84288095D01*
X11092857Y-84288095D01*
X11216667Y-84350000D01*
X11278571Y-84411905D01*
X11340476Y-84535714D01*
X11340476Y-84659524D01*
X11278571Y-84783333D01*
X11216667Y-84845238D01*
X11092857Y-84907143D01*
X10659524Y-84907143D01*
D10*
D11*
X11402381Y-135464286D02*
X11340476Y-135526190D01*
X11154762Y-135588095D01*
X11030952Y-135588095D01*
X10845238Y-135526190D01*
X10721429Y-135402381D01*
X10659524Y-135278571D01*
X10597619Y-135030952D01*
X10597619Y-134845238D01*
X10659524Y-134597619D01*
X10721429Y-134473810D01*
X10845238Y-134350000D01*
X11030952Y-134288095D01*
X11154762Y-134288095D01*
X11340476Y-134350000D01*
X11402381Y-134411905D01*
D10*
D11*
X10659524Y-185588095D02*
X10659524Y-184288095D01*
X10969048Y-184288095D01*
X11154762Y-184350000D01*
X11278571Y-184473810D01*
X11340476Y-184597619D01*
X11402381Y-184845238D01*
X11402381Y-185030952D01*
X11340476Y-185278571D01*
X11278571Y-185402381D01*
X11154762Y-185526190D01*
X10969048Y-185588095D01*
X10659524Y-185588095D01*
D10*
D11*
X287002200Y-60000000D02*
X285002200Y-60000000D01*
D10*
D11*
X287002200Y-110000000D02*
X285002200Y-110000000D01*
D10*
D11*
X287002200Y-160000000D02*
X285002200Y-160000000D01*
D10*
D11*
X285692676Y-35216667D02*
X286311724Y-35216667D01*
X285568867Y-35588095D02*
X286002200Y-34288095D01*
X286435533Y-35588095D01*
D10*
D11*
X286095057Y-84907143D02*
X286280771Y-84969048D01*
X286342676Y-85030952D01*
X286404581Y-85154762D01*
X286404581Y-85340476D01*
X286342676Y-85464286D01*
X286280771Y-85526190D01*
X286156962Y-85588095D01*
X285661724Y-85588095D01*
X285661724Y-84288095D01*
X286095057Y-84288095D01*
X286218867Y-84350000D01*
X286280771Y-84411905D01*
X286342676Y-84535714D01*
X286342676Y-84659524D01*
X286280771Y-84783333D01*
X286218867Y-84845238D01*
X286095057Y-84907143D01*
X285661724Y-84907143D01*
D10*
D11*
X286404581Y-135464286D02*
X286342676Y-135526190D01*
X286156962Y-135588095D01*
X286033152Y-135588095D01*
X285847438Y-135526190D01*
X285723629Y-135402381D01*
X285661724Y-135278571D01*
X285599819Y-135030952D01*
X285599819Y-134845238D01*
X285661724Y-134597619D01*
X285723629Y-134473810D01*
X285847438Y-134350000D01*
X286033152Y-134288095D01*
X286156962Y-134288095D01*
X286342676Y-134350000D01*
X286404581Y-134411905D01*
D10*
D11*
X285661724Y-185588095D02*
X285661724Y-184288095D01*
X285971248Y-184288095D01*
X286156962Y-184350000D01*
X286280771Y-184473810D01*
X286342676Y-184597619D01*
X286404581Y-184845238D01*
X286404581Y-185030952D01*
X286342676Y-185278571D01*
X286280771Y-185402381D01*
X286156962Y-185526190D01*
X285971248Y-185588095D01*
X285661724Y-185588095D01*
D10*
D11*
X200359343Y-193785771D02*
X200359343Y-192285771D01*
X200716486Y-192285771D01*
X200930771Y-192357200D01*
X201073629Y-192500057D01*
X201145057Y-192642914D01*
X201216486Y-192928629D01*
X201216486Y-193142914D01*
X201145057Y-193428629D01*
X201073629Y-193571486D01*
X200930771Y-193714343D01*
X200716486Y-193785771D01*
X200359343Y-193785771D01*
X202502200Y-193785771D02*
X202502200Y-193000057D01*
X202430771Y-192857200D01*
X202287914Y-192785771D01*
X202002200Y-192785771D01*
X201859343Y-192857200D01*
X202502200Y-193714343D02*
X202359343Y-193785771D01*
X202002200Y-193785771D01*
X201859343Y-193714343D01*
X201787914Y-193571486D01*
X201787914Y-193428629D01*
X201859343Y-193285771D01*
X202002200Y-193214343D01*
X202359343Y-193214343D01*
X202502200Y-193142914D01*
X203002200Y-192785771D02*
X203573629Y-192785771D01*
X203216486Y-192285771D02*
X203216486Y-193571486D01*
X203287914Y-193714343D01*
X203430772Y-193785771D01*
X203573629Y-193785771D01*
X204645057Y-193714343D02*
X204502200Y-193785771D01*
X204216486Y-193785771D01*
X204073629Y-193714343D01*
X204002200Y-193571486D01*
X204002200Y-193000057D01*
X204073629Y-192857200D01*
X204216486Y-192785771D01*
X204502200Y-192785771D01*
X204645057Y-192857200D01*
X204716486Y-193000057D01*
X204716486Y-193142914D01*
X204002200Y-193285771D01*
X205359343Y-193642914D02*
X205430771Y-193714343D01*
X205359343Y-193785771D01*
X205287914Y-193714343D01*
X205359343Y-193642914D01*
X205359343Y-193785771D01*
X205359343Y-192857200D02*
X205430771Y-192928629D01*
X205359343Y-193000057D01*
X205287914Y-192928629D01*
X205359343Y-192857200D01*
X205359343Y-193000057D01*
D10*
D11*
X177002200Y-194507200D02*
X285002200Y-194507200D01*
D10*
D11*
X178359343Y-196585771D02*
X178359343Y-195085771D01*
X179216486Y-196585771D02*
X178573629Y-195728629D01*
X179216486Y-195085771D02*
X178359343Y-195942914D01*
X179859343Y-196585771D02*
X179859343Y-195585771D01*
X179859343Y-195085771D02*
X179787914Y-195157200D01*
X179859343Y-195228629D01*
X179930771Y-195157200D01*
X179859343Y-195085771D01*
X179859343Y-195228629D01*
X181430772Y-196442914D02*
X181359343Y-196514343D01*
X181145057Y-196585771D01*
X181002200Y-196585771D01*
X180787915Y-196514343D01*
X180645057Y-196371486D01*
X180573629Y-196228629D01*
X180502200Y-195942914D01*
X180502200Y-195728629D01*
X180573629Y-195442914D01*
X180645057Y-195300057D01*
X180787915Y-195157200D01*
X181002200Y-195085771D01*
X181145057Y-195085771D01*
X181359343Y-195157200D01*
X181430772Y-195228629D01*
X182716486Y-196585771D02*
X182716486Y-195800057D01*
X182645057Y-195657200D01*
X182502200Y-195585771D01*
X182216486Y-195585771D01*
X182073629Y-195657200D01*
X182716486Y-196514343D02*
X182573629Y-196585771D01*
X182216486Y-196585771D01*
X182073629Y-196514343D01*
X182002200Y-196371486D01*
X182002200Y-196228629D01*
X182073629Y-196085771D01*
X182216486Y-196014343D01*
X182573629Y-196014343D01*
X182716486Y-195942914D01*
X184073629Y-196585771D02*
X184073629Y-195085771D01*
X184073629Y-196514343D02*
X183930772Y-196585771D01*
X183645058Y-196585771D01*
X183502200Y-196514343D01*
X183430772Y-196442914D01*
X183359343Y-196300057D01*
X183359343Y-195871486D01*
X183430772Y-195728629D01*
X183502200Y-195657200D01*
X183645058Y-195585771D01*
X183930772Y-195585771D01*
X184073629Y-195657200D01*
X185930772Y-195800057D02*
X186430772Y-195800057D01*
X186645058Y-196585771D02*
X185930772Y-196585771D01*
X185930772Y-195085771D01*
X186645058Y-195085771D01*
X187287915Y-196442914D02*
X187359343Y-196514343D01*
X187287915Y-196585771D01*
X187216486Y-196514343D01*
X187287915Y-196442914D01*
X187287915Y-196585771D01*
X188002201Y-196585771D02*
X188002201Y-195085771D01*
X188359344Y-195085771D01*
X188573629Y-195157200D01*
X188716487Y-195300057D01*
X188787915Y-195442914D01*
X188859344Y-195728629D01*
X188859344Y-195942914D01*
X188787915Y-196228629D01*
X188716487Y-196371486D01*
X188573629Y-196514343D01*
X188359344Y-196585771D01*
X188002201Y-196585771D01*
X189502201Y-196442914D02*
X189573629Y-196514343D01*
X189502201Y-196585771D01*
X189430772Y-196514343D01*
X189502201Y-196442914D01*
X189502201Y-196585771D01*
X190145058Y-196157200D02*
X190859344Y-196157200D01*
X190002201Y-196585771D02*
X190502201Y-195085771D01*
X191002201Y-196585771D01*
X191502201Y-196442914D02*
X191573629Y-196514343D01*
X191502201Y-196585771D01*
X191430772Y-196514343D01*
X191502201Y-196442914D01*
X191502201Y-196585771D01*
X194502201Y-196585771D02*
X194502201Y-195085771D01*
X194645058Y-196014343D02*
X195073629Y-196585771D01*
X195073629Y-195585771D02*
X194502201Y-196157200D01*
X195716487Y-196585771D02*
X195716487Y-195585771D01*
X195716487Y-195085771D02*
X195645058Y-195157200D01*
X195716487Y-195228629D01*
X195787915Y-195157200D01*
X195716487Y-195085771D01*
X195716487Y-195228629D01*
X197073630Y-196514343D02*
X196930773Y-196585771D01*
X196645059Y-196585771D01*
X196502201Y-196514343D01*
X196430773Y-196442914D01*
X196359344Y-196300057D01*
X196359344Y-195871486D01*
X196430773Y-195728629D01*
X196502201Y-195657200D01*
X196645059Y-195585771D01*
X196930773Y-195585771D01*
X197073630Y-195657200D01*
X198359344Y-196585771D02*
X198359344Y-195800057D01*
X198287915Y-195657200D01*
X198145058Y-195585771D01*
X197859344Y-195585771D01*
X197716487Y-195657200D01*
X198359344Y-196514343D02*
X198216487Y-196585771D01*
X197859344Y-196585771D01*
X197716487Y-196514343D01*
X197645058Y-196371486D01*
X197645058Y-196228629D01*
X197716487Y-196085771D01*
X197859344Y-196014343D01*
X198216487Y-196014343D01*
X198359344Y-195942914D01*
X199716487Y-196585771D02*
X199716487Y-195085771D01*
X199716487Y-196514343D02*
X199573630Y-196585771D01*
X199287916Y-196585771D01*
X199145058Y-196514343D01*
X199073630Y-196442914D01*
X199002201Y-196300057D01*
X199002201Y-195871486D01*
X199073630Y-195728629D01*
X199145058Y-195657200D01*
X199287916Y-195585771D01*
X199573630Y-195585771D01*
X199716487Y-195657200D01*
X202216487Y-195585771D02*
X202216487Y-196585771D01*
X201859344Y-195014343D02*
X201502201Y-196085771D01*
X202430773Y-196085771D01*
X203002201Y-196442914D02*
X203073629Y-196514343D01*
X203002201Y-196585771D01*
X202930772Y-196514343D01*
X203002201Y-196442914D01*
X203002201Y-196585771D01*
X204002201Y-195085771D02*
X204145058Y-195085771D01*
X204287915Y-195157200D01*
X204359344Y-195228629D01*
X204430773Y-195371486D01*
X204502201Y-195657200D01*
X204502201Y-196014343D01*
X204430773Y-196300057D01*
X204359344Y-196442914D01*
X204287915Y-196514343D01*
X204145058Y-196585771D01*
X204002201Y-196585771D01*
X203859344Y-196514343D01*
X203787915Y-196442914D01*
X203716487Y-196300057D01*
X203645058Y-196014343D01*
X203645058Y-195657200D01*
X203716487Y-195371486D01*
X203787915Y-195228629D01*
X203859344Y-195157200D01*
X204002201Y-195085771D01*
X205145058Y-196442914D02*
X205216486Y-196514343D01*
X205145058Y-196585771D01*
X205073629Y-196514343D01*
X205145058Y-196442914D01*
X205145058Y-196585771D01*
X205716487Y-195085771D02*
X206645058Y-195085771D01*
X206145058Y-195657200D01*
X206359344Y-195657200D01*
X206502201Y-195728629D01*
X206573630Y-195800057D01*
X206645058Y-195942914D01*
X206645058Y-196300057D01*
X206573630Y-196442914D01*
X206502201Y-196514343D01*
X206359344Y-196585771D01*
X205930772Y-196585771D01*
X205787915Y-196514343D01*
X205716487Y-196442914D01*
X207287915Y-196014343D02*
X208430772Y-196014343D01*
X207859343Y-196585771D02*
X207859343Y-195442914D01*
X209716486Y-196514343D02*
X209573629Y-196585771D01*
X209287915Y-196585771D01*
X209145058Y-196514343D01*
X209073629Y-196371486D01*
X209073629Y-195800057D01*
X209145058Y-195657200D01*
X209287915Y-195585771D01*
X209573629Y-195585771D01*
X209716486Y-195657200D01*
X209787915Y-195800057D01*
X209787915Y-195942914D01*
X209073629Y-196085771D01*
X211216486Y-196585771D02*
X210359343Y-196585771D01*
X210787915Y-196585771D02*
X210787915Y-195085771D01*
X210645058Y-195300057D01*
X210502200Y-195442914D01*
X210359343Y-195514343D01*
X211859343Y-196014343D02*
X213002200Y-196014343D01*
X214359343Y-195085771D02*
X214073629Y-195085771D01*
X213930772Y-195157200D01*
X213859343Y-195228629D01*
X213716486Y-195442914D01*
X213645057Y-195728629D01*
X213645057Y-196300057D01*
X213716486Y-196442914D01*
X213787914Y-196514343D01*
X213930772Y-196585771D01*
X214216486Y-196585771D01*
X214359343Y-196514343D01*
X214430772Y-196442914D01*
X214502200Y-196300057D01*
X214502200Y-195942914D01*
X214430772Y-195800057D01*
X214359343Y-195728629D01*
X214216486Y-195657200D01*
X213930772Y-195657200D01*
X213787914Y-195728629D01*
X213716486Y-195800057D01*
X213645057Y-195942914D01*
X215002200Y-195085771D02*
X215930771Y-195085771D01*
X215430771Y-195657200D01*
X215645057Y-195657200D01*
X215787914Y-195728629D01*
X215859343Y-195800057D01*
X215930771Y-195942914D01*
X215930771Y-196300057D01*
X215859343Y-196442914D01*
X215787914Y-196514343D01*
X215645057Y-196585771D01*
X215216485Y-196585771D01*
X215073628Y-196514343D01*
X215002200Y-196442914D01*
X216859342Y-195085771D02*
X217002199Y-195085771D01*
X217145056Y-195157200D01*
X217216485Y-195228629D01*
X217287914Y-195371486D01*
X217359342Y-195657200D01*
X217359342Y-196014343D01*
X217287914Y-196300057D01*
X217216485Y-196442914D01*
X217145056Y-196514343D01*
X217002199Y-196585771D01*
X216859342Y-196585771D01*
X216716485Y-196514343D01*
X216645056Y-196442914D01*
X216573628Y-196300057D01*
X216502199Y-196014343D01*
X216502199Y-195657200D01*
X216573628Y-195371486D01*
X216645056Y-195228629D01*
X216716485Y-195157200D01*
X216859342Y-195085771D01*
X217930770Y-195228629D02*
X218002199Y-195157200D01*
X218145056Y-195085771D01*
X218502199Y-195085771D01*
X218645056Y-195157200D01*
X218716485Y-195228629D01*
X218787913Y-195371486D01*
X218787913Y-195514343D01*
X218716485Y-195728629D01*
X217859342Y-196585771D01*
X218787913Y-196585771D01*
X219287913Y-195085771D02*
X220216484Y-195085771D01*
X219716484Y-195657200D01*
X219930770Y-195657200D01*
X220073627Y-195728629D01*
X220145056Y-195800057D01*
X220216484Y-195942914D01*
X220216484Y-196300057D01*
X220145056Y-196442914D01*
X220073627Y-196514343D01*
X219930770Y-196585771D01*
X219502198Y-196585771D01*
X219359341Y-196514343D01*
X219287913Y-196442914D01*
X221073627Y-195728629D02*
X220930769Y-195657200D01*
X220859341Y-195585771D01*
X220787912Y-195442914D01*
X220787912Y-195371486D01*
X220859341Y-195228629D01*
X220930769Y-195157200D01*
X221073627Y-195085771D01*
X221359341Y-195085771D01*
X221502198Y-195157200D01*
X221573627Y-195228629D01*
X221645055Y-195371486D01*
X221645055Y-195442914D01*
X221573627Y-195585771D01*
X221502198Y-195657200D01*
X221359341Y-195728629D01*
X221073627Y-195728629D01*
X220930769Y-195800057D01*
X220859341Y-195871486D01*
X220787912Y-196014343D01*
X220787912Y-196300057D01*
X220859341Y-196442914D01*
X220930769Y-196514343D01*
X221073627Y-196585771D01*
X221359341Y-196585771D01*
X221502198Y-196514343D01*
X221573627Y-196442914D01*
X221645055Y-196300057D01*
X221645055Y-196014343D01*
X221573627Y-195871486D01*
X221502198Y-195800057D01*
X221359341Y-195728629D01*
X219073627Y-194827200D02*
X221930769Y-194827200D01*
X222930769Y-195585771D02*
X222930769Y-196585771D01*
X222287912Y-195585771D02*
X222287912Y-196371486D01*
X222359340Y-196514343D01*
X222502198Y-196585771D01*
X222716483Y-196585771D01*
X222859340Y-196514343D01*
X222930769Y-196442914D01*
X223645055Y-196585771D02*
X223645055Y-195085771D01*
X223645055Y-195657200D02*
X223787912Y-195585771D01*
X224073626Y-195585771D01*
X224216483Y-195657200D01*
X224287912Y-195728629D01*
X224359341Y-195871486D01*
X224359341Y-196300057D01*
X224287912Y-196442914D01*
X224216483Y-196514343D01*
X224073626Y-196585771D01*
X223787912Y-196585771D01*
X223645055Y-196514343D01*
X225645055Y-195585771D02*
X225645055Y-196585771D01*
X225002198Y-195585771D02*
X225002198Y-196371486D01*
X225073626Y-196514343D01*
X225216484Y-196585771D01*
X225430769Y-196585771D01*
X225573626Y-196514343D01*
X225645055Y-196442914D01*
X226359341Y-195585771D02*
X226359341Y-196585771D01*
X226359341Y-195728629D02*
X226430769Y-195657200D01*
X226573627Y-195585771D01*
X226787912Y-195585771D01*
X226930769Y-195657200D01*
X227002198Y-195800057D01*
X227002198Y-196585771D01*
X227502198Y-195585771D02*
X228073627Y-195585771D01*
X227716484Y-195085771D02*
X227716484Y-196371486D01*
X227787912Y-196514343D01*
X227930770Y-196585771D01*
X228073627Y-196585771D01*
X229216484Y-195585771D02*
X229216484Y-196585771D01*
X228573627Y-195585771D02*
X228573627Y-196371486D01*
X228645055Y-196514343D01*
X228787913Y-196585771D01*
X229002198Y-196585771D01*
X229145055Y-196514343D01*
X229216484Y-196442914D01*
X230716484Y-196585771D02*
X229859341Y-196585771D01*
X230287913Y-196585771D02*
X230287913Y-195085771D01*
X230145056Y-195300057D01*
X230002198Y-195442914D01*
X229859341Y-195514343D01*
X232002198Y-195585771D02*
X232002198Y-196585771D01*
X231645055Y-195014343D02*
X231287912Y-196085771D01*
X232216484Y-196085771D01*
X232787912Y-196442914D02*
X232859340Y-196514343D01*
X232787912Y-196585771D01*
X232716483Y-196514343D01*
X232787912Y-196442914D01*
X232787912Y-196585771D01*
X233787912Y-195085771D02*
X233930769Y-195085771D01*
X234073626Y-195157200D01*
X234145055Y-195228629D01*
X234216484Y-195371486D01*
X234287912Y-195657200D01*
X234287912Y-196014343D01*
X234216484Y-196300057D01*
X234145055Y-196442914D01*
X234073626Y-196514343D01*
X233930769Y-196585771D01*
X233787912Y-196585771D01*
X233645055Y-196514343D01*
X233573626Y-196442914D01*
X233502198Y-196300057D01*
X233430769Y-196014343D01*
X233430769Y-195657200D01*
X233502198Y-195371486D01*
X233573626Y-195228629D01*
X233645055Y-195157200D01*
X233787912Y-195085771D01*
X235573626Y-195585771D02*
X235573626Y-196585771D01*
X235216483Y-195014343D02*
X234859340Y-196085771D01*
X235787912Y-196085771D01*
X236359340Y-196442914D02*
X236430768Y-196514343D01*
X236359340Y-196585771D01*
X236287911Y-196514343D01*
X236359340Y-196442914D01*
X236359340Y-196585771D01*
X237859340Y-196585771D02*
X237002197Y-196585771D01*
X237430769Y-196585771D02*
X237430769Y-195085771D01*
X237287912Y-195300057D01*
X237145054Y-195442914D01*
X237002197Y-195514343D01*
X238502197Y-196014343D02*
X239645054Y-196014343D01*
X240287911Y-196514343D02*
X240430768Y-196585771D01*
X240716483Y-196585771D01*
X240859340Y-196514343D01*
X240930768Y-196371486D01*
X240930768Y-196300057D01*
X240859340Y-196157200D01*
X240716483Y-196085771D01*
X240502197Y-196085771D01*
X240359340Y-196014343D01*
X240287911Y-195871486D01*
X240287911Y-195800057D01*
X240359340Y-195657200D01*
X240502197Y-195585771D01*
X240716483Y-195585771D01*
X240859340Y-195657200D01*
X241359340Y-195585771D02*
X241930769Y-195585771D01*
X241573626Y-195085771D02*
X241573626Y-196371486D01*
X241645054Y-196514343D01*
X241787912Y-196585771D01*
X241930769Y-196585771D01*
X243073626Y-196585771D02*
X243073626Y-195800057D01*
X243002197Y-195657200D01*
X242859340Y-195585771D01*
X242573626Y-195585771D01*
X242430769Y-195657200D01*
X243073626Y-196514343D02*
X242930769Y-196585771D01*
X242573626Y-196585771D01*
X242430769Y-196514343D01*
X242359340Y-196371486D01*
X242359340Y-196228629D01*
X242430769Y-196085771D01*
X242573626Y-196014343D01*
X242930769Y-196014343D01*
X243073626Y-195942914D01*
X243787912Y-196585771D02*
X243787912Y-195085771D01*
X243787912Y-195657200D02*
X243930769Y-195585771D01*
X244216483Y-195585771D01*
X244359340Y-195657200D01*
X244430769Y-195728629D01*
X244502198Y-195871486D01*
X244502198Y-196300057D01*
X244430769Y-196442914D01*
X244359340Y-196514343D01*
X244216483Y-196585771D01*
X243930769Y-196585771D01*
X243787912Y-196514343D01*
X245359341Y-196585771D02*
X245216483Y-196514343D01*
X245145055Y-196371486D01*
X245145055Y-195085771D01*
X246502197Y-196514343D02*
X246359340Y-196585771D01*
X246073626Y-196585771D01*
X245930769Y-196514343D01*
X245859340Y-196371486D01*
X245859340Y-195800057D01*
X245930769Y-195657200D01*
X246073626Y-195585771D01*
X246359340Y-195585771D01*
X246502197Y-195657200D01*
X246573626Y-195800057D01*
X246573626Y-195942914D01*
X245859340Y-196085771D01*
D10*
D11*
X177002200Y-191507200D02*
X285002200Y-191507200D01*
D10*
D12*
X264216486Y-193785771D02*
X263716486Y-193071486D01*
X263359343Y-193785771D02*
X263359343Y-192285771D01*
X263930771Y-192285771D01*
X264073629Y-192357200D01*
X264145057Y-192428629D01*
X264216486Y-192571486D01*
X264216486Y-192785771D01*
X264145057Y-192928629D01*
X264073629Y-193000057D01*
X263930771Y-193071486D01*
X263359343Y-193071486D01*
X265430771Y-193714343D02*
X265287914Y-193785771D01*
X265002200Y-193785771D01*
X264859343Y-193714343D01*
X264787914Y-193571486D01*
X264787914Y-193000057D01*
X264859343Y-192857200D01*
X265002200Y-192785771D01*
X265287914Y-192785771D01*
X265430771Y-192857200D01*
X265502200Y-193000057D01*
X265502200Y-193142914D01*
X264787914Y-193285771D01*
X266002200Y-192785771D02*
X266359343Y-193785771D01*
X266716485Y-192785771D01*
X267287914Y-193642914D02*
X267359342Y-193714343D01*
X267287914Y-193785771D01*
X267216485Y-193714343D01*
X267287914Y-193642914D01*
X267287914Y-193785771D01*
X267287914Y-192857200D02*
X267359342Y-192928629D01*
X267287914Y-193000057D01*
X267216485Y-192928629D01*
X267287914Y-192857200D01*
X267287914Y-193000057D01*
D10*
D11*
X178287914Y-193714343D02*
X178502200Y-193785771D01*
X178859343Y-193785771D01*
X179002200Y-193714343D01*
X179073629Y-193642914D01*
X179145057Y-193500057D01*
X179145057Y-193357200D01*
X179073629Y-193214343D01*
X179002200Y-193142914D01*
X178859343Y-193071486D01*
X178573629Y-193000057D01*
X178430771Y-192928629D01*
X178359343Y-192857200D01*
X178287914Y-192714343D01*
X178287914Y-192571486D01*
X178359343Y-192428629D01*
X178430771Y-192357200D01*
X178573629Y-192285771D01*
X178930771Y-192285771D01*
X179145057Y-192357200D01*
X179787914Y-193785771D02*
X179787914Y-192785771D01*
X179787914Y-192285771D02*
X179716485Y-192357200D01*
X179787914Y-192428629D01*
X179859342Y-192357200D01*
X179787914Y-192285771D01*
X179787914Y-192428629D01*
X180359343Y-192785771D02*
X181145057Y-192785771D01*
X180359343Y-193785771D01*
X181145057Y-193785771D01*
X182287914Y-193714343D02*
X182145057Y-193785771D01*
X181859343Y-193785771D01*
X181716486Y-193714343D01*
X181645057Y-193571486D01*
X181645057Y-193000057D01*
X181716486Y-192857200D01*
X181859343Y-192785771D01*
X182145057Y-192785771D01*
X182287914Y-192857200D01*
X182359343Y-193000057D01*
X182359343Y-193142914D01*
X181645057Y-193285771D01*
X183002200Y-193642914D02*
X183073628Y-193714343D01*
X183002200Y-193785771D01*
X182930771Y-193714343D01*
X183002200Y-193642914D01*
X183002200Y-193785771D01*
X183002200Y-192857200D02*
X183073628Y-192928629D01*
X183002200Y-193000057D01*
X182930771Y-192928629D01*
X183002200Y-192857200D01*
X183002200Y-193000057D01*
X184787914Y-193357200D02*
X185502200Y-193357200D01*
X184645057Y-193785771D02*
X185145057Y-192285771D01*
X185645057Y-193785771D01*
X186787914Y-192785771D02*
X186787914Y-193785771D01*
X186430771Y-192214343D02*
X186073628Y-193285771D01*
X187002200Y-193285771D01*
D10*
D11*
X263359343Y-196585771D02*
X263359343Y-195085771D01*
X264716486Y-196585771D02*
X264716486Y-195085771D01*
X264716486Y-196514343D02*
X264573629Y-196585771D01*
X264287915Y-196585771D01*
X264145057Y-196514343D01*
X264073629Y-196442914D01*
X264002200Y-196300057D01*
X264002200Y-195871486D01*
X264073629Y-195728629D01*
X264145057Y-195657200D01*
X264287915Y-195585771D01*
X264573629Y-195585771D01*
X264716486Y-195657200D01*
X265430772Y-196442914D02*
X265502200Y-196514343D01*
X265430772Y-196585771D01*
X265359343Y-196514343D01*
X265430772Y-196442914D01*
X265430772Y-196585771D01*
X265430772Y-195657200D02*
X265502200Y-195728629D01*
X265430772Y-195800057D01*
X265359343Y-195728629D01*
X265430772Y-195657200D01*
X265430772Y-195800057D01*
X268073629Y-196585771D02*
X267216486Y-196585771D01*
X267645058Y-196585771D02*
X267645058Y-195085771D01*
X267502201Y-195300057D01*
X267359343Y-195442914D01*
X267216486Y-195514343D01*
X269787914Y-195014343D02*
X268502200Y-196942914D01*
X271073629Y-196585771D02*
X270216486Y-196585771D01*
X270645058Y-196585771D02*
X270645058Y-195085771D01*
X270502201Y-195300057D01*
X270359343Y-195442914D01*
X270216486Y-195514343D01*
D10*
D11*
X177002200Y-187507200D02*
X285002200Y-187507200D01*
D10*
D13*
X178454581Y-188211962D02*
X179597438Y-188211962D01*
X178776010Y-190211962D02*
X179026010Y-188211962D01*
X180014105Y-190211962D02*
X180180771Y-188878629D01*
X180264105Y-188211962D02*
X180156962Y-188307200D01*
X180240295Y-188402438D01*
X180347439Y-188307200D01*
X180264105Y-188211962D01*
X180240295Y-188402438D01*
X180847438Y-188878629D02*
X181609343Y-188878629D01*
X181216486Y-188211962D02*
X181002200Y-189926248D01*
X181073630Y-190116724D01*
X181252201Y-190211962D01*
X181442677Y-190211962D01*
X182395058Y-190211962D02*
X182216487Y-190116724D01*
X182145057Y-189926248D01*
X182359343Y-188211962D01*
X183930772Y-190116724D02*
X183728391Y-190211962D01*
X183347439Y-190211962D01*
X183168867Y-190116724D01*
X183097438Y-189926248D01*
X183192676Y-189164343D01*
X183311724Y-188973867D01*
X183514105Y-188878629D01*
X183895057Y-188878629D01*
X184073629Y-188973867D01*
X184145057Y-189164343D01*
X184121248Y-189354819D01*
X183145057Y-189545295D01*
X184895057Y-190021486D02*
X184978392Y-190116724D01*
X184871248Y-190211962D01*
X184787915Y-190116724D01*
X184895057Y-190021486D01*
X184871248Y-190211962D01*
X185026010Y-188973867D02*
X185109344Y-189069105D01*
X185002200Y-189164343D01*
X184918867Y-189069105D01*
X185026010Y-188973867D01*
X185002200Y-189164343D01*
D10*
D11*
X178859343Y-185600057D02*
X178359343Y-185600057D01*
X178359343Y-186385771D02*
X178359343Y-184885771D01*
X179073629Y-184885771D01*
X179645057Y-186385771D02*
X179645057Y-185385771D01*
X179645057Y-184885771D02*
X179573628Y-184957200D01*
X179645057Y-185028629D01*
X179716485Y-184957200D01*
X179645057Y-184885771D01*
X179645057Y-185028629D01*
X180573629Y-186385771D02*
X180430771Y-186314343D01*
X180359343Y-186171486D01*
X180359343Y-184885771D01*
X181716485Y-186314343D02*
X181573628Y-186385771D01*
X181287914Y-186385771D01*
X181145057Y-186314343D01*
X181073628Y-186171486D01*
X181073628Y-185600057D01*
X181145057Y-185457200D01*
X181287914Y-185385771D01*
X181573628Y-185385771D01*
X181716485Y-185457200D01*
X181787914Y-185600057D01*
X181787914Y-185742914D01*
X181073628Y-185885771D01*
X182430771Y-186242914D02*
X182502199Y-186314343D01*
X182430771Y-186385771D01*
X182359342Y-186314343D01*
X182430771Y-186242914D01*
X182430771Y-186385771D01*
X182430771Y-185457200D02*
X182502199Y-185528629D01*
X182430771Y-185600057D01*
X182359342Y-185528629D01*
X182430771Y-185457200D01*
X182430771Y-185600057D01*
X184073628Y-184885771D02*
X184573628Y-186385771D01*
X185073628Y-184885771D01*
X185573628Y-186385771D02*
X185573628Y-185385771D01*
X185573628Y-184885771D02*
X185502199Y-184957200D01*
X185573628Y-185028629D01*
X185645056Y-184957200D01*
X185573628Y-184885771D01*
X185573628Y-185028629D01*
X186930771Y-186385771D02*
X186930771Y-185600057D01*
X186859342Y-185457200D01*
X186716485Y-185385771D01*
X186430771Y-185385771D01*
X186287914Y-185457200D01*
X186930771Y-186314343D02*
X186787914Y-186385771D01*
X186430771Y-186385771D01*
X186287914Y-186314343D01*
X186216485Y-186171486D01*
X186216485Y-186028629D01*
X186287914Y-185885771D01*
X186430771Y-185814343D01*
X186787914Y-185814343D01*
X186930771Y-185742914D01*
X187859343Y-186385771D02*
X187716485Y-186314343D01*
X187645057Y-186171486D01*
X187645057Y-184885771D01*
X188073628Y-186528629D02*
X189216485Y-186528629D01*
X190073628Y-185600057D02*
X190287914Y-185671486D01*
X190359342Y-185742914D01*
X190430771Y-185885771D01*
X190430771Y-186100057D01*
X190359342Y-186242914D01*
X190287914Y-186314343D01*
X190145056Y-186385771D01*
X189573628Y-186385771D01*
X189573628Y-184885771D01*
X190073628Y-184885771D01*
X190216485Y-184957200D01*
X190287914Y-185028629D01*
X190359342Y-185171486D01*
X190359342Y-185314343D01*
X190287914Y-185457200D01*
X190216485Y-185528629D01*
X190073628Y-185600057D01*
X189573628Y-185600057D01*
X191287914Y-186385771D02*
X191145056Y-186314343D01*
X191073628Y-186242914D01*
X191002199Y-186100057D01*
X191002199Y-185671486D01*
X191073628Y-185528629D01*
X191145056Y-185457200D01*
X191287914Y-185385771D01*
X191502199Y-185385771D01*
X191645056Y-185457200D01*
X191716485Y-185528629D01*
X191787914Y-185671486D01*
X191787914Y-186100057D01*
X191716485Y-186242914D01*
X191645056Y-186314343D01*
X191502199Y-186385771D01*
X191287914Y-186385771D01*
X193073628Y-186385771D02*
X193073628Y-185600057D01*
X193002199Y-185457200D01*
X192859342Y-185385771D01*
X192573628Y-185385771D01*
X192430771Y-185457200D01*
X193073628Y-186314343D02*
X192930771Y-186385771D01*
X192573628Y-186385771D01*
X192430771Y-186314343D01*
X192359342Y-186171486D01*
X192359342Y-186028629D01*
X192430771Y-185885771D01*
X192573628Y-185814343D01*
X192930771Y-185814343D01*
X193073628Y-185742914D01*
X193787914Y-186385771D02*
X193787914Y-185385771D01*
X193787914Y-185671486D02*
X193859342Y-185528629D01*
X193930771Y-185457200D01*
X194073628Y-185385771D01*
X194216485Y-185385771D01*
X195359342Y-186385771D02*
X195359342Y-184885771D01*
X195359342Y-186314343D02*
X195216485Y-186385771D01*
X194930771Y-186385771D01*
X194787913Y-186314343D01*
X194716485Y-186242914D01*
X194645056Y-186100057D01*
X194645056Y-185671486D01*
X194716485Y-185528629D01*
X194787913Y-185457200D01*
X194930771Y-185385771D01*
X195216485Y-185385771D01*
X195359342Y-185457200D01*
X196073628Y-186242914D02*
X196145056Y-186314343D01*
X196073628Y-186385771D01*
X196002199Y-186314343D01*
X196073628Y-186242914D01*
X196073628Y-186385771D01*
X196787914Y-186385771D02*
X196787914Y-184885771D01*
X196930771Y-185814343D02*
X197359342Y-186385771D01*
X197359342Y-185385771D02*
X196787914Y-185957200D01*
X198002200Y-186385771D02*
X198002200Y-185385771D01*
X198002200Y-184885771D02*
X197930771Y-184957200D01*
X198002200Y-185028629D01*
X198073628Y-184957200D01*
X198002200Y-184885771D01*
X198002200Y-185028629D01*
X199359343Y-186314343D02*
X199216486Y-186385771D01*
X198930772Y-186385771D01*
X198787914Y-186314343D01*
X198716486Y-186242914D01*
X198645057Y-186100057D01*
X198645057Y-185671486D01*
X198716486Y-185528629D01*
X198787914Y-185457200D01*
X198930772Y-185385771D01*
X199216486Y-185385771D01*
X199359343Y-185457200D01*
X200645057Y-186385771D02*
X200645057Y-185600057D01*
X200573628Y-185457200D01*
X200430771Y-185385771D01*
X200145057Y-185385771D01*
X200002200Y-185457200D01*
X200645057Y-186314343D02*
X200502200Y-186385771D01*
X200145057Y-186385771D01*
X200002200Y-186314343D01*
X199930771Y-186171486D01*
X199930771Y-186028629D01*
X200002200Y-185885771D01*
X200145057Y-185814343D01*
X200502200Y-185814343D01*
X200645057Y-185742914D01*
X202002200Y-186385771D02*
X202002200Y-184885771D01*
X202002200Y-186314343D02*
X201859343Y-186385771D01*
X201573629Y-186385771D01*
X201430771Y-186314343D01*
X201359343Y-186242914D01*
X201287914Y-186100057D01*
X201287914Y-185671486D01*
X201359343Y-185528629D01*
X201430771Y-185457200D01*
X201573629Y-185385771D01*
X201859343Y-185385771D01*
X202002200Y-185457200D01*
X202359343Y-186528629D02*
X203502200Y-186528629D01*
X203859343Y-185385771D02*
X203859343Y-186885771D01*
X203859343Y-185457200D02*
X204002200Y-185385771D01*
X204287914Y-185385771D01*
X204430771Y-185457200D01*
X204502200Y-185528629D01*
X204573629Y-185671486D01*
X204573629Y-186100057D01*
X204502200Y-186242914D01*
X204430771Y-186314343D01*
X204287914Y-186385771D01*
X204002200Y-186385771D01*
X203859343Y-186314343D01*
X205859343Y-186314343D02*
X205716486Y-186385771D01*
X205430772Y-186385771D01*
X205287914Y-186314343D01*
X205216486Y-186242914D01*
X205145057Y-186100057D01*
X205145057Y-185671486D01*
X205216486Y-185528629D01*
X205287914Y-185457200D01*
X205430772Y-185385771D01*
X205716486Y-185385771D01*
X205859343Y-185457200D01*
X206502200Y-186385771D02*
X206502200Y-184885771D01*
X206502200Y-185457200D02*
X206645057Y-185385771D01*
X206930771Y-185385771D01*
X207073628Y-185457200D01*
X207145057Y-185528629D01*
X207216486Y-185671486D01*
X207216486Y-186100057D01*
X207145057Y-186242914D01*
X207073628Y-186314343D01*
X206930771Y-186385771D01*
X206645057Y-186385771D01*
X206502200Y-186314343D01*
D10*
D11*
X177002200Y-181507200D02*
X285002200Y-181507200D01*
D10*
D11*
X178287914Y-183614343D02*
X178502200Y-183685771D01*
X178859343Y-183685771D01*
X179002200Y-183614343D01*
X179073629Y-183542914D01*
X179145057Y-183400057D01*
X179145057Y-183257200D01*
X179073629Y-183114343D01*
X179002200Y-183042914D01*
X178859343Y-182971486D01*
X178573629Y-182900057D01*
X178430771Y-182828629D01*
X178359343Y-182757200D01*
X178287914Y-182614343D01*
X178287914Y-182471486D01*
X178359343Y-182328629D01*
X178430771Y-182257200D01*
X178573629Y-182185771D01*
X178930771Y-182185771D01*
X179145057Y-182257200D01*
X179787914Y-183685771D02*
X179787914Y-182185771D01*
X180430771Y-183685771D02*
X180430771Y-182900057D01*
X180359342Y-182757200D01*
X180216485Y-182685771D01*
X180002200Y-182685771D01*
X179859342Y-182757200D01*
X179787914Y-182828629D01*
X181716485Y-183614343D02*
X181573628Y-183685771D01*
X181287914Y-183685771D01*
X181145057Y-183614343D01*
X181073628Y-183471486D01*
X181073628Y-182900057D01*
X181145057Y-182757200D01*
X181287914Y-182685771D01*
X181573628Y-182685771D01*
X181716485Y-182757200D01*
X181787914Y-182900057D01*
X181787914Y-183042914D01*
X181073628Y-183185771D01*
X183002199Y-183614343D02*
X182859342Y-183685771D01*
X182573628Y-183685771D01*
X182430771Y-183614343D01*
X182359342Y-183471486D01*
X182359342Y-182900057D01*
X182430771Y-182757200D01*
X182573628Y-182685771D01*
X182859342Y-182685771D01*
X183002199Y-182757200D01*
X183073628Y-182900057D01*
X183073628Y-183042914D01*
X182359342Y-183185771D01*
X183502199Y-182685771D02*
X184073628Y-182685771D01*
X183716485Y-182185771D02*
X183716485Y-183471486D01*
X183787913Y-183614343D01*
X183930771Y-183685771D01*
X184073628Y-183685771D01*
X184573628Y-183542914D02*
X184645056Y-183614343D01*
X184573628Y-183685771D01*
X184502199Y-183614343D01*
X184573628Y-183542914D01*
X184573628Y-183685771D01*
X184573628Y-182757200D02*
X184645056Y-182828629D01*
X184573628Y-182900057D01*
X184502199Y-182828629D01*
X184573628Y-182757200D01*
X184573628Y-182900057D01*
D10*
D11*
X197002200Y-191507200D02*
X197002200Y-194507200D01*
D10*
D11*
X261002200Y-191507200D02*
X261002200Y-198007200D01*
X166624000Y-72760840D02*
G75*
G03X166624000Y-72760840I-16764000J0D01*
G01*
X127000000Y-107950000D02*
X173990000Y-107950000D01*
X127000000Y-49530000D02*
X173990000Y-49530000D01*
X173990000Y-49530000D02*
X173990000Y-107950000D01*
X127000000Y-49530000D02*
X127000000Y-107950000D01*
D14*
X171450000Y-52070000D03*
X168910000Y-52070000D03*
X132080000Y-100330000D03*
X132080000Y-102870000D03*
X129540000Y-89535000D03*
X129540000Y-86995000D03*
X130810000Y-52070000D03*
X133350000Y-52070000D03*
X172085000Y-73660000D03*
X172085000Y-71120000D03*
D15*
X157480000Y-100330000D03*
X154940000Y-100330000D03*
X152400000Y-100330000D03*
X149860000Y-100330000D03*
X147320000Y-100330000D03*
X144780000Y-100330000D03*
X142240000Y-100330000D03*
X157480000Y-102870000D03*
X154940000Y-102870000D03*
X152400000Y-102870000D03*
X149860000Y-102870000D03*
X147320000Y-102870000D03*
X144780000Y-102870000D03*
X142240000Y-102870000D03*
X152291438Y-54322650D03*
X147211438Y-54322650D03*
X152420676Y-91193620D03*
X147340676Y-91193620D03*
D14*
X131445000Y-71755000D03*
X131445000Y-74295000D03*
D16*
X172085000Y-94932500D03*
X172085000Y-98742500D03*
X158750000Y-52070000D03*
X162560000Y-52070000D03*
D17*
X157480000Y-97790000D03*
X129540000Y-97790000D03*
X167640000Y-92710000D03*
X154940000Y-92710000D03*
X152400000Y-95250000D03*
X127635000Y-95250000D03*
D18*
X167640000Y-98742500D03*
D17*
X137160000Y-99060000D03*
X135890000Y-85090000D03*
X129540000Y-85090000D03*
X161925000Y-104140000D03*
X163195000Y-85725000D03*
X167640000Y-85725000D03*
X143510000Y-104140000D03*
X156210000Y-96520000D03*
X131445000Y-96520000D03*
X167640000Y-64770000D03*
X160020000Y-87630000D03*
X153670000Y-93980000D03*
X138430000Y-101600000D03*
X137160000Y-86360000D03*
X131445000Y-86360000D03*
D19*
X129540000Y-97790000D02*
X157480000Y-97790000D01*
X154940000Y-92710000D02*
X167640000Y-92710000D01*
X127635000Y-95250000D02*
X152400000Y-95250000D01*
X151447500Y-98742500D02*
X149860000Y-100330000D01*
X167640000Y-98742500D02*
X151447500Y-98742500D01*
X147320000Y-100330000D02*
X146050000Y-99060000D01*
X137160000Y-99060000D02*
X146050000Y-99060000D01*
X129540000Y-85090000D02*
X135890000Y-85090000D01*
X163195000Y-85725000D02*
X167640000Y-85725000D01*
X143510000Y-104140000D02*
X161925000Y-104140000D01*
X142240000Y-100330000D02*
X132080000Y-100330000D01*
X131445000Y-96520000D02*
X156210000Y-96520000D01*
X167640000Y-64770000D02*
X167640000Y-80010000D01*
X167640000Y-80010000D02*
X163195000Y-84455000D01*
X163195000Y-84455000D02*
X160020000Y-87630000D01*
X133350000Y-52070000D02*
X127635000Y-57785000D01*
X127635000Y-90170000D02*
X127635000Y-92710000D01*
X127635000Y-57785000D02*
X127635000Y-90170000D01*
X128905000Y-93980000D02*
X153670000Y-93980000D01*
X127635000Y-92710000D02*
X128905000Y-93980000D01*
X168910000Y-99695000D02*
X167005000Y-101600000D01*
X149860000Y-102870000D02*
X151130000Y-101600000D01*
X168910000Y-74295000D02*
X168910000Y-99695000D01*
X168910000Y-74295000D02*
X172085000Y-71120000D01*
X167005000Y-101600000D02*
X151130000Y-101600000D01*
X138430000Y-101600000D02*
X146050000Y-101600000D01*
X147320000Y-102870000D02*
X146050000Y-101600000D01*
X131445000Y-86360000D02*
X137160000Y-86360000D01*
X144919700Y-102730300D02*
X144780000Y-102730300D01*
X132080000Y-102870000D02*
X142240000Y-102870000D01*
X147211438Y-54322650D02*
X133002350Y-54322650D01*
X144780000Y-92710000D02*
X150904296Y-92710000D01*
X150904296Y-92710000D02*
X152420676Y-91193620D01*
X131445000Y-83185000D02*
X135255000Y-83185000D01*
X129540000Y-81280000D02*
X131445000Y-83185000D01*
X135255000Y-83185000D02*
X144780000Y-92710000D01*
X129540000Y-57785000D02*
X129540000Y-81280000D01*
X133002350Y-54322650D02*
X129540000Y-57785000D01*
X147211438Y-54322650D02*
X146924088Y-54610000D01*
M02*
