G04 #@! TF.FileFunction,Legend,Top*
%FSLAX46Y46*%
G04 Gerber Fmt 4.6, Leading zero omitted, Abs format (unit mm)*
G04 Created by KiCad (PCBNEW 4.0.3+e1-6302~38~ubuntu14.04.1-stable) date Fri Aug 19 15:50:11 2016*
%MOMM*%
%LPD*%
G01*
G04 APERTURE LIST*
%ADD10C,0.100000*%
%ADD11C,0.150000*%
%ADD12C,0.300000*%
%ADD13C,0.400000*%
%ADD14C,0.177800*%
%ADD15C,0.254000*%
%ADD16C,0.076200*%
G04 APERTURE END LIST*
D10*
D11*
X177002200Y-166007200D02*
X177002200Y-198007200D01*
X285002200Y-198007200D01*
X285002200Y-166007200D01*
X177002200Y-166007200D01*
D10*
D11*
X10000000Y-10000000D02*
X10000000Y-200007200D01*
X287002200Y-200007200D01*
X287002200Y-10000000D01*
X10000000Y-10000000D01*
D10*
D11*
X12000000Y-12000000D02*
X12000000Y-198007200D01*
X285002200Y-198007200D01*
X285002200Y-12000000D01*
X12000000Y-12000000D01*
D10*
D11*
X60000000Y-12000000D02*
X60000000Y-10000000D01*
D10*
D11*
X110000000Y-12000000D02*
X110000000Y-10000000D01*
D10*
D11*
X160000000Y-12000000D02*
X160000000Y-10000000D01*
D10*
D11*
X210000000Y-12000000D02*
X210000000Y-10000000D01*
D10*
D11*
X260000000Y-12000000D02*
X260000000Y-10000000D01*
D10*
D11*
X35990476Y-11588095D02*
X35247619Y-11588095D01*
X35619048Y-11588095D02*
X35619048Y-10288095D01*
X35495238Y-10473810D01*
X35371429Y-10597619D01*
X35247619Y-10659524D01*
D10*
D11*
X85247619Y-10411905D02*
X85309524Y-10350000D01*
X85433333Y-10288095D01*
X85742857Y-10288095D01*
X85866667Y-10350000D01*
X85928571Y-10411905D01*
X85990476Y-10535714D01*
X85990476Y-10659524D01*
X85928571Y-10845238D01*
X85185714Y-11588095D01*
X85990476Y-11588095D01*
D10*
D11*
X135185714Y-10288095D02*
X135990476Y-10288095D01*
X135557143Y-10783333D01*
X135742857Y-10783333D01*
X135866667Y-10845238D01*
X135928571Y-10907143D01*
X135990476Y-11030952D01*
X135990476Y-11340476D01*
X135928571Y-11464286D01*
X135866667Y-11526190D01*
X135742857Y-11588095D01*
X135371429Y-11588095D01*
X135247619Y-11526190D01*
X135185714Y-11464286D01*
D10*
D11*
X185866667Y-10721429D02*
X185866667Y-11588095D01*
X185557143Y-10226190D02*
X185247619Y-11154762D01*
X186052381Y-11154762D01*
D10*
D11*
X235928571Y-10288095D02*
X235309524Y-10288095D01*
X235247619Y-10907143D01*
X235309524Y-10845238D01*
X235433333Y-10783333D01*
X235742857Y-10783333D01*
X235866667Y-10845238D01*
X235928571Y-10907143D01*
X235990476Y-11030952D01*
X235990476Y-11340476D01*
X235928571Y-11464286D01*
X235866667Y-11526190D01*
X235742857Y-11588095D01*
X235433333Y-11588095D01*
X235309524Y-11526190D01*
X235247619Y-11464286D01*
D10*
D11*
X285866667Y-10288095D02*
X285619048Y-10288095D01*
X285495238Y-10350000D01*
X285433333Y-10411905D01*
X285309524Y-10597619D01*
X285247619Y-10845238D01*
X285247619Y-11340476D01*
X285309524Y-11464286D01*
X285371429Y-11526190D01*
X285495238Y-11588095D01*
X285742857Y-11588095D01*
X285866667Y-11526190D01*
X285928571Y-11464286D01*
X285990476Y-11340476D01*
X285990476Y-11030952D01*
X285928571Y-10907143D01*
X285866667Y-10845238D01*
X285742857Y-10783333D01*
X285495238Y-10783333D01*
X285371429Y-10845238D01*
X285309524Y-10907143D01*
X285247619Y-11030952D01*
D10*
D11*
X60000000Y-198007200D02*
X60000000Y-200007200D01*
D10*
D11*
X110000000Y-198007200D02*
X110000000Y-200007200D01*
D10*
D11*
X160000000Y-198007200D02*
X160000000Y-200007200D01*
D10*
D11*
X210000000Y-198007200D02*
X210000000Y-200007200D01*
D10*
D11*
X260000000Y-198007200D02*
X260000000Y-200007200D01*
D10*
D11*
X35990476Y-199595295D02*
X35247619Y-199595295D01*
X35619048Y-199595295D02*
X35619048Y-198295295D01*
X35495238Y-198481010D01*
X35371429Y-198604819D01*
X35247619Y-198666724D01*
D10*
D11*
X85247619Y-198419105D02*
X85309524Y-198357200D01*
X85433333Y-198295295D01*
X85742857Y-198295295D01*
X85866667Y-198357200D01*
X85928571Y-198419105D01*
X85990476Y-198542914D01*
X85990476Y-198666724D01*
X85928571Y-198852438D01*
X85185714Y-199595295D01*
X85990476Y-199595295D01*
D10*
D11*
X135185714Y-198295295D02*
X135990476Y-198295295D01*
X135557143Y-198790533D01*
X135742857Y-198790533D01*
X135866667Y-198852438D01*
X135928571Y-198914343D01*
X135990476Y-199038152D01*
X135990476Y-199347676D01*
X135928571Y-199471486D01*
X135866667Y-199533390D01*
X135742857Y-199595295D01*
X135371429Y-199595295D01*
X135247619Y-199533390D01*
X135185714Y-199471486D01*
D10*
D11*
X185866667Y-198728629D02*
X185866667Y-199595295D01*
X185557143Y-198233390D02*
X185247619Y-199161962D01*
X186052381Y-199161962D01*
D10*
D11*
X235928571Y-198295295D02*
X235309524Y-198295295D01*
X235247619Y-198914343D01*
X235309524Y-198852438D01*
X235433333Y-198790533D01*
X235742857Y-198790533D01*
X235866667Y-198852438D01*
X235928571Y-198914343D01*
X235990476Y-199038152D01*
X235990476Y-199347676D01*
X235928571Y-199471486D01*
X235866667Y-199533390D01*
X235742857Y-199595295D01*
X235433333Y-199595295D01*
X235309524Y-199533390D01*
X235247619Y-199471486D01*
D10*
D11*
X285866667Y-198295295D02*
X285619048Y-198295295D01*
X285495238Y-198357200D01*
X285433333Y-198419105D01*
X285309524Y-198604819D01*
X285247619Y-198852438D01*
X285247619Y-199347676D01*
X285309524Y-199471486D01*
X285371429Y-199533390D01*
X285495238Y-199595295D01*
X285742857Y-199595295D01*
X285866667Y-199533390D01*
X285928571Y-199471486D01*
X285990476Y-199347676D01*
X285990476Y-199038152D01*
X285928571Y-198914343D01*
X285866667Y-198852438D01*
X285742857Y-198790533D01*
X285495238Y-198790533D01*
X285371429Y-198852438D01*
X285309524Y-198914343D01*
X285247619Y-199038152D01*
D10*
D11*
X10000000Y-60000000D02*
X12000000Y-60000000D01*
D10*
D11*
X10000000Y-110000000D02*
X12000000Y-110000000D01*
D10*
D11*
X10000000Y-160000000D02*
X12000000Y-160000000D01*
D10*
D11*
X10690476Y-35216667D02*
X11309524Y-35216667D01*
X10566667Y-35588095D02*
X11000000Y-34288095D01*
X11433333Y-35588095D01*
D10*
D11*
X11092857Y-84907143D02*
X11278571Y-84969048D01*
X11340476Y-85030952D01*
X11402381Y-85154762D01*
X11402381Y-85340476D01*
X11340476Y-85464286D01*
X11278571Y-85526190D01*
X11154762Y-85588095D01*
X10659524Y-85588095D01*
X10659524Y-84288095D01*
X11092857Y-84288095D01*
X11216667Y-84350000D01*
X11278571Y-84411905D01*
X11340476Y-84535714D01*
X11340476Y-84659524D01*
X11278571Y-84783333D01*
X11216667Y-84845238D01*
X11092857Y-84907143D01*
X10659524Y-84907143D01*
D10*
D11*
X11402381Y-135464286D02*
X11340476Y-135526190D01*
X11154762Y-135588095D01*
X11030952Y-135588095D01*
X10845238Y-135526190D01*
X10721429Y-135402381D01*
X10659524Y-135278571D01*
X10597619Y-135030952D01*
X10597619Y-134845238D01*
X10659524Y-134597619D01*
X10721429Y-134473810D01*
X10845238Y-134350000D01*
X11030952Y-134288095D01*
X11154762Y-134288095D01*
X11340476Y-134350000D01*
X11402381Y-134411905D01*
D10*
D11*
X10659524Y-185588095D02*
X10659524Y-184288095D01*
X10969048Y-184288095D01*
X11154762Y-184350000D01*
X11278571Y-184473810D01*
X11340476Y-184597619D01*
X11402381Y-184845238D01*
X11402381Y-185030952D01*
X11340476Y-185278571D01*
X11278571Y-185402381D01*
X11154762Y-185526190D01*
X10969048Y-185588095D01*
X10659524Y-185588095D01*
D10*
D11*
X287002200Y-60000000D02*
X285002200Y-60000000D01*
D10*
D11*
X287002200Y-110000000D02*
X285002200Y-110000000D01*
D10*
D11*
X287002200Y-160000000D02*
X285002200Y-160000000D01*
D10*
D11*
X285692676Y-35216667D02*
X286311724Y-35216667D01*
X285568867Y-35588095D02*
X286002200Y-34288095D01*
X286435533Y-35588095D01*
D10*
D11*
X286095057Y-84907143D02*
X286280771Y-84969048D01*
X286342676Y-85030952D01*
X286404581Y-85154762D01*
X286404581Y-85340476D01*
X286342676Y-85464286D01*
X286280771Y-85526190D01*
X286156962Y-85588095D01*
X285661724Y-85588095D01*
X285661724Y-84288095D01*
X286095057Y-84288095D01*
X286218867Y-84350000D01*
X286280771Y-84411905D01*
X286342676Y-84535714D01*
X286342676Y-84659524D01*
X286280771Y-84783333D01*
X286218867Y-84845238D01*
X286095057Y-84907143D01*
X285661724Y-84907143D01*
D10*
D11*
X286404581Y-135464286D02*
X286342676Y-135526190D01*
X286156962Y-135588095D01*
X286033152Y-135588095D01*
X285847438Y-135526190D01*
X285723629Y-135402381D01*
X285661724Y-135278571D01*
X285599819Y-135030952D01*
X285599819Y-134845238D01*
X285661724Y-134597619D01*
X285723629Y-134473810D01*
X285847438Y-134350000D01*
X286033152Y-134288095D01*
X286156962Y-134288095D01*
X286342676Y-134350000D01*
X286404581Y-134411905D01*
D10*
D11*
X285661724Y-185588095D02*
X285661724Y-184288095D01*
X285971248Y-184288095D01*
X286156962Y-184350000D01*
X286280771Y-184473810D01*
X286342676Y-184597619D01*
X286404581Y-184845238D01*
X286404581Y-185030952D01*
X286342676Y-185278571D01*
X286280771Y-185402381D01*
X286156962Y-185526190D01*
X285971248Y-185588095D01*
X285661724Y-185588095D01*
D10*
D11*
X200359343Y-193785771D02*
X200359343Y-192285771D01*
X200716486Y-192285771D01*
X200930771Y-192357200D01*
X201073629Y-192500057D01*
X201145057Y-192642914D01*
X201216486Y-192928629D01*
X201216486Y-193142914D01*
X201145057Y-193428629D01*
X201073629Y-193571486D01*
X200930771Y-193714343D01*
X200716486Y-193785771D01*
X200359343Y-193785771D01*
X202502200Y-193785771D02*
X202502200Y-193000057D01*
X202430771Y-192857200D01*
X202287914Y-192785771D01*
X202002200Y-192785771D01*
X201859343Y-192857200D01*
X202502200Y-193714343D02*
X202359343Y-193785771D01*
X202002200Y-193785771D01*
X201859343Y-193714343D01*
X201787914Y-193571486D01*
X201787914Y-193428629D01*
X201859343Y-193285771D01*
X202002200Y-193214343D01*
X202359343Y-193214343D01*
X202502200Y-193142914D01*
X203002200Y-192785771D02*
X203573629Y-192785771D01*
X203216486Y-192285771D02*
X203216486Y-193571486D01*
X203287914Y-193714343D01*
X203430772Y-193785771D01*
X203573629Y-193785771D01*
X204645057Y-193714343D02*
X204502200Y-193785771D01*
X204216486Y-193785771D01*
X204073629Y-193714343D01*
X204002200Y-193571486D01*
X204002200Y-193000057D01*
X204073629Y-192857200D01*
X204216486Y-192785771D01*
X204502200Y-192785771D01*
X204645057Y-192857200D01*
X204716486Y-193000057D01*
X204716486Y-193142914D01*
X204002200Y-193285771D01*
X205359343Y-193642914D02*
X205430771Y-193714343D01*
X205359343Y-193785771D01*
X205287914Y-193714343D01*
X205359343Y-193642914D01*
X205359343Y-193785771D01*
X205359343Y-192857200D02*
X205430771Y-192928629D01*
X205359343Y-193000057D01*
X205287914Y-192928629D01*
X205359343Y-192857200D01*
X205359343Y-193000057D01*
D10*
D11*
X177002200Y-194507200D02*
X285002200Y-194507200D01*
D10*
D11*
X178359343Y-196585771D02*
X178359343Y-195085771D01*
X179216486Y-196585771D02*
X178573629Y-195728629D01*
X179216486Y-195085771D02*
X178359343Y-195942914D01*
X179859343Y-196585771D02*
X179859343Y-195585771D01*
X179859343Y-195085771D02*
X179787914Y-195157200D01*
X179859343Y-195228629D01*
X179930771Y-195157200D01*
X179859343Y-195085771D01*
X179859343Y-195228629D01*
X181430772Y-196442914D02*
X181359343Y-196514343D01*
X181145057Y-196585771D01*
X181002200Y-196585771D01*
X180787915Y-196514343D01*
X180645057Y-196371486D01*
X180573629Y-196228629D01*
X180502200Y-195942914D01*
X180502200Y-195728629D01*
X180573629Y-195442914D01*
X180645057Y-195300057D01*
X180787915Y-195157200D01*
X181002200Y-195085771D01*
X181145057Y-195085771D01*
X181359343Y-195157200D01*
X181430772Y-195228629D01*
X182716486Y-196585771D02*
X182716486Y-195800057D01*
X182645057Y-195657200D01*
X182502200Y-195585771D01*
X182216486Y-195585771D01*
X182073629Y-195657200D01*
X182716486Y-196514343D02*
X182573629Y-196585771D01*
X182216486Y-196585771D01*
X182073629Y-196514343D01*
X182002200Y-196371486D01*
X182002200Y-196228629D01*
X182073629Y-196085771D01*
X182216486Y-196014343D01*
X182573629Y-196014343D01*
X182716486Y-195942914D01*
X184073629Y-196585771D02*
X184073629Y-195085771D01*
X184073629Y-196514343D02*
X183930772Y-196585771D01*
X183645058Y-196585771D01*
X183502200Y-196514343D01*
X183430772Y-196442914D01*
X183359343Y-196300057D01*
X183359343Y-195871486D01*
X183430772Y-195728629D01*
X183502200Y-195657200D01*
X183645058Y-195585771D01*
X183930772Y-195585771D01*
X184073629Y-195657200D01*
X185930772Y-195800057D02*
X186430772Y-195800057D01*
X186645058Y-196585771D02*
X185930772Y-196585771D01*
X185930772Y-195085771D01*
X186645058Y-195085771D01*
X187287915Y-196442914D02*
X187359343Y-196514343D01*
X187287915Y-196585771D01*
X187216486Y-196514343D01*
X187287915Y-196442914D01*
X187287915Y-196585771D01*
X188002201Y-196585771D02*
X188002201Y-195085771D01*
X188359344Y-195085771D01*
X188573629Y-195157200D01*
X188716487Y-195300057D01*
X188787915Y-195442914D01*
X188859344Y-195728629D01*
X188859344Y-195942914D01*
X188787915Y-196228629D01*
X188716487Y-196371486D01*
X188573629Y-196514343D01*
X188359344Y-196585771D01*
X188002201Y-196585771D01*
X189502201Y-196442914D02*
X189573629Y-196514343D01*
X189502201Y-196585771D01*
X189430772Y-196514343D01*
X189502201Y-196442914D01*
X189502201Y-196585771D01*
X190145058Y-196157200D02*
X190859344Y-196157200D01*
X190002201Y-196585771D02*
X190502201Y-195085771D01*
X191002201Y-196585771D01*
X191502201Y-196442914D02*
X191573629Y-196514343D01*
X191502201Y-196585771D01*
X191430772Y-196514343D01*
X191502201Y-196442914D01*
X191502201Y-196585771D01*
X194502201Y-196585771D02*
X194502201Y-195085771D01*
X194645058Y-196014343D02*
X195073629Y-196585771D01*
X195073629Y-195585771D02*
X194502201Y-196157200D01*
X195716487Y-196585771D02*
X195716487Y-195585771D01*
X195716487Y-195085771D02*
X195645058Y-195157200D01*
X195716487Y-195228629D01*
X195787915Y-195157200D01*
X195716487Y-195085771D01*
X195716487Y-195228629D01*
X197073630Y-196514343D02*
X196930773Y-196585771D01*
X196645059Y-196585771D01*
X196502201Y-196514343D01*
X196430773Y-196442914D01*
X196359344Y-196300057D01*
X196359344Y-195871486D01*
X196430773Y-195728629D01*
X196502201Y-195657200D01*
X196645059Y-195585771D01*
X196930773Y-195585771D01*
X197073630Y-195657200D01*
X198359344Y-196585771D02*
X198359344Y-195800057D01*
X198287915Y-195657200D01*
X198145058Y-195585771D01*
X197859344Y-195585771D01*
X197716487Y-195657200D01*
X198359344Y-196514343D02*
X198216487Y-196585771D01*
X197859344Y-196585771D01*
X197716487Y-196514343D01*
X197645058Y-196371486D01*
X197645058Y-196228629D01*
X197716487Y-196085771D01*
X197859344Y-196014343D01*
X198216487Y-196014343D01*
X198359344Y-195942914D01*
X199716487Y-196585771D02*
X199716487Y-195085771D01*
X199716487Y-196514343D02*
X199573630Y-196585771D01*
X199287916Y-196585771D01*
X199145058Y-196514343D01*
X199073630Y-196442914D01*
X199002201Y-196300057D01*
X199002201Y-195871486D01*
X199073630Y-195728629D01*
X199145058Y-195657200D01*
X199287916Y-195585771D01*
X199573630Y-195585771D01*
X199716487Y-195657200D01*
X202216487Y-195585771D02*
X202216487Y-196585771D01*
X201859344Y-195014343D02*
X201502201Y-196085771D01*
X202430773Y-196085771D01*
X203002201Y-196442914D02*
X203073629Y-196514343D01*
X203002201Y-196585771D01*
X202930772Y-196514343D01*
X203002201Y-196442914D01*
X203002201Y-196585771D01*
X204002201Y-195085771D02*
X204145058Y-195085771D01*
X204287915Y-195157200D01*
X204359344Y-195228629D01*
X204430773Y-195371486D01*
X204502201Y-195657200D01*
X204502201Y-196014343D01*
X204430773Y-196300057D01*
X204359344Y-196442914D01*
X204287915Y-196514343D01*
X204145058Y-196585771D01*
X204002201Y-196585771D01*
X203859344Y-196514343D01*
X203787915Y-196442914D01*
X203716487Y-196300057D01*
X203645058Y-196014343D01*
X203645058Y-195657200D01*
X203716487Y-195371486D01*
X203787915Y-195228629D01*
X203859344Y-195157200D01*
X204002201Y-195085771D01*
X205145058Y-196442914D02*
X205216486Y-196514343D01*
X205145058Y-196585771D01*
X205073629Y-196514343D01*
X205145058Y-196442914D01*
X205145058Y-196585771D01*
X205716487Y-195085771D02*
X206645058Y-195085771D01*
X206145058Y-195657200D01*
X206359344Y-195657200D01*
X206502201Y-195728629D01*
X206573630Y-195800057D01*
X206645058Y-195942914D01*
X206645058Y-196300057D01*
X206573630Y-196442914D01*
X206502201Y-196514343D01*
X206359344Y-196585771D01*
X205930772Y-196585771D01*
X205787915Y-196514343D01*
X205716487Y-196442914D01*
X207287915Y-196014343D02*
X208430772Y-196014343D01*
X207859343Y-196585771D02*
X207859343Y-195442914D01*
X209716486Y-196514343D02*
X209573629Y-196585771D01*
X209287915Y-196585771D01*
X209145058Y-196514343D01*
X209073629Y-196371486D01*
X209073629Y-195800057D01*
X209145058Y-195657200D01*
X209287915Y-195585771D01*
X209573629Y-195585771D01*
X209716486Y-195657200D01*
X209787915Y-195800057D01*
X209787915Y-195942914D01*
X209073629Y-196085771D01*
X211216486Y-196585771D02*
X210359343Y-196585771D01*
X210787915Y-196585771D02*
X210787915Y-195085771D01*
X210645058Y-195300057D01*
X210502200Y-195442914D01*
X210359343Y-195514343D01*
X211859343Y-196014343D02*
X213002200Y-196014343D01*
X214359343Y-195085771D02*
X214073629Y-195085771D01*
X213930772Y-195157200D01*
X213859343Y-195228629D01*
X213716486Y-195442914D01*
X213645057Y-195728629D01*
X213645057Y-196300057D01*
X213716486Y-196442914D01*
X213787914Y-196514343D01*
X213930772Y-196585771D01*
X214216486Y-196585771D01*
X214359343Y-196514343D01*
X214430772Y-196442914D01*
X214502200Y-196300057D01*
X214502200Y-195942914D01*
X214430772Y-195800057D01*
X214359343Y-195728629D01*
X214216486Y-195657200D01*
X213930772Y-195657200D01*
X213787914Y-195728629D01*
X213716486Y-195800057D01*
X213645057Y-195942914D01*
X215002200Y-195085771D02*
X215930771Y-195085771D01*
X215430771Y-195657200D01*
X215645057Y-195657200D01*
X215787914Y-195728629D01*
X215859343Y-195800057D01*
X215930771Y-195942914D01*
X215930771Y-196300057D01*
X215859343Y-196442914D01*
X215787914Y-196514343D01*
X215645057Y-196585771D01*
X215216485Y-196585771D01*
X215073628Y-196514343D01*
X215002200Y-196442914D01*
X216859342Y-195085771D02*
X217002199Y-195085771D01*
X217145056Y-195157200D01*
X217216485Y-195228629D01*
X217287914Y-195371486D01*
X217359342Y-195657200D01*
X217359342Y-196014343D01*
X217287914Y-196300057D01*
X217216485Y-196442914D01*
X217145056Y-196514343D01*
X217002199Y-196585771D01*
X216859342Y-196585771D01*
X216716485Y-196514343D01*
X216645056Y-196442914D01*
X216573628Y-196300057D01*
X216502199Y-196014343D01*
X216502199Y-195657200D01*
X216573628Y-195371486D01*
X216645056Y-195228629D01*
X216716485Y-195157200D01*
X216859342Y-195085771D01*
X217930770Y-195228629D02*
X218002199Y-195157200D01*
X218145056Y-195085771D01*
X218502199Y-195085771D01*
X218645056Y-195157200D01*
X218716485Y-195228629D01*
X218787913Y-195371486D01*
X218787913Y-195514343D01*
X218716485Y-195728629D01*
X217859342Y-196585771D01*
X218787913Y-196585771D01*
X219287913Y-195085771D02*
X220216484Y-195085771D01*
X219716484Y-195657200D01*
X219930770Y-195657200D01*
X220073627Y-195728629D01*
X220145056Y-195800057D01*
X220216484Y-195942914D01*
X220216484Y-196300057D01*
X220145056Y-196442914D01*
X220073627Y-196514343D01*
X219930770Y-196585771D01*
X219502198Y-196585771D01*
X219359341Y-196514343D01*
X219287913Y-196442914D01*
X221073627Y-195728629D02*
X220930769Y-195657200D01*
X220859341Y-195585771D01*
X220787912Y-195442914D01*
X220787912Y-195371486D01*
X220859341Y-195228629D01*
X220930769Y-195157200D01*
X221073627Y-195085771D01*
X221359341Y-195085771D01*
X221502198Y-195157200D01*
X221573627Y-195228629D01*
X221645055Y-195371486D01*
X221645055Y-195442914D01*
X221573627Y-195585771D01*
X221502198Y-195657200D01*
X221359341Y-195728629D01*
X221073627Y-195728629D01*
X220930769Y-195800057D01*
X220859341Y-195871486D01*
X220787912Y-196014343D01*
X220787912Y-196300057D01*
X220859341Y-196442914D01*
X220930769Y-196514343D01*
X221073627Y-196585771D01*
X221359341Y-196585771D01*
X221502198Y-196514343D01*
X221573627Y-196442914D01*
X221645055Y-196300057D01*
X221645055Y-196014343D01*
X221573627Y-195871486D01*
X221502198Y-195800057D01*
X221359341Y-195728629D01*
X219073627Y-194827200D02*
X221930769Y-194827200D01*
X222930769Y-195585771D02*
X222930769Y-196585771D01*
X222287912Y-195585771D02*
X222287912Y-196371486D01*
X222359340Y-196514343D01*
X222502198Y-196585771D01*
X222716483Y-196585771D01*
X222859340Y-196514343D01*
X222930769Y-196442914D01*
X223645055Y-196585771D02*
X223645055Y-195085771D01*
X223645055Y-195657200D02*
X223787912Y-195585771D01*
X224073626Y-195585771D01*
X224216483Y-195657200D01*
X224287912Y-195728629D01*
X224359341Y-195871486D01*
X224359341Y-196300057D01*
X224287912Y-196442914D01*
X224216483Y-196514343D01*
X224073626Y-196585771D01*
X223787912Y-196585771D01*
X223645055Y-196514343D01*
X225645055Y-195585771D02*
X225645055Y-196585771D01*
X225002198Y-195585771D02*
X225002198Y-196371486D01*
X225073626Y-196514343D01*
X225216484Y-196585771D01*
X225430769Y-196585771D01*
X225573626Y-196514343D01*
X225645055Y-196442914D01*
X226359341Y-195585771D02*
X226359341Y-196585771D01*
X226359341Y-195728629D02*
X226430769Y-195657200D01*
X226573627Y-195585771D01*
X226787912Y-195585771D01*
X226930769Y-195657200D01*
X227002198Y-195800057D01*
X227002198Y-196585771D01*
X227502198Y-195585771D02*
X228073627Y-195585771D01*
X227716484Y-195085771D02*
X227716484Y-196371486D01*
X227787912Y-196514343D01*
X227930770Y-196585771D01*
X228073627Y-196585771D01*
X229216484Y-195585771D02*
X229216484Y-196585771D01*
X228573627Y-195585771D02*
X228573627Y-196371486D01*
X228645055Y-196514343D01*
X228787913Y-196585771D01*
X229002198Y-196585771D01*
X229145055Y-196514343D01*
X229216484Y-196442914D01*
X230716484Y-196585771D02*
X229859341Y-196585771D01*
X230287913Y-196585771D02*
X230287913Y-195085771D01*
X230145056Y-195300057D01*
X230002198Y-195442914D01*
X229859341Y-195514343D01*
X232002198Y-195585771D02*
X232002198Y-196585771D01*
X231645055Y-195014343D02*
X231287912Y-196085771D01*
X232216484Y-196085771D01*
X232787912Y-196442914D02*
X232859340Y-196514343D01*
X232787912Y-196585771D01*
X232716483Y-196514343D01*
X232787912Y-196442914D01*
X232787912Y-196585771D01*
X233787912Y-195085771D02*
X233930769Y-195085771D01*
X234073626Y-195157200D01*
X234145055Y-195228629D01*
X234216484Y-195371486D01*
X234287912Y-195657200D01*
X234287912Y-196014343D01*
X234216484Y-196300057D01*
X234145055Y-196442914D01*
X234073626Y-196514343D01*
X233930769Y-196585771D01*
X233787912Y-196585771D01*
X233645055Y-196514343D01*
X233573626Y-196442914D01*
X233502198Y-196300057D01*
X233430769Y-196014343D01*
X233430769Y-195657200D01*
X233502198Y-195371486D01*
X233573626Y-195228629D01*
X233645055Y-195157200D01*
X233787912Y-195085771D01*
X235573626Y-195585771D02*
X235573626Y-196585771D01*
X235216483Y-195014343D02*
X234859340Y-196085771D01*
X235787912Y-196085771D01*
X236359340Y-196442914D02*
X236430768Y-196514343D01*
X236359340Y-196585771D01*
X236287911Y-196514343D01*
X236359340Y-196442914D01*
X236359340Y-196585771D01*
X237859340Y-196585771D02*
X237002197Y-196585771D01*
X237430769Y-196585771D02*
X237430769Y-195085771D01*
X237287912Y-195300057D01*
X237145054Y-195442914D01*
X237002197Y-195514343D01*
X238502197Y-196014343D02*
X239645054Y-196014343D01*
X240287911Y-196514343D02*
X240430768Y-196585771D01*
X240716483Y-196585771D01*
X240859340Y-196514343D01*
X240930768Y-196371486D01*
X240930768Y-196300057D01*
X240859340Y-196157200D01*
X240716483Y-196085771D01*
X240502197Y-196085771D01*
X240359340Y-196014343D01*
X240287911Y-195871486D01*
X240287911Y-195800057D01*
X240359340Y-195657200D01*
X240502197Y-195585771D01*
X240716483Y-195585771D01*
X240859340Y-195657200D01*
X241359340Y-195585771D02*
X241930769Y-195585771D01*
X241573626Y-195085771D02*
X241573626Y-196371486D01*
X241645054Y-196514343D01*
X241787912Y-196585771D01*
X241930769Y-196585771D01*
X243073626Y-196585771D02*
X243073626Y-195800057D01*
X243002197Y-195657200D01*
X242859340Y-195585771D01*
X242573626Y-195585771D01*
X242430769Y-195657200D01*
X243073626Y-196514343D02*
X242930769Y-196585771D01*
X242573626Y-196585771D01*
X242430769Y-196514343D01*
X242359340Y-196371486D01*
X242359340Y-196228629D01*
X242430769Y-196085771D01*
X242573626Y-196014343D01*
X242930769Y-196014343D01*
X243073626Y-195942914D01*
X243787912Y-196585771D02*
X243787912Y-195085771D01*
X243787912Y-195657200D02*
X243930769Y-195585771D01*
X244216483Y-195585771D01*
X244359340Y-195657200D01*
X244430769Y-195728629D01*
X244502198Y-195871486D01*
X244502198Y-196300057D01*
X244430769Y-196442914D01*
X244359340Y-196514343D01*
X244216483Y-196585771D01*
X243930769Y-196585771D01*
X243787912Y-196514343D01*
X245359341Y-196585771D02*
X245216483Y-196514343D01*
X245145055Y-196371486D01*
X245145055Y-195085771D01*
X246502197Y-196514343D02*
X246359340Y-196585771D01*
X246073626Y-196585771D01*
X245930769Y-196514343D01*
X245859340Y-196371486D01*
X245859340Y-195800057D01*
X245930769Y-195657200D01*
X246073626Y-195585771D01*
X246359340Y-195585771D01*
X246502197Y-195657200D01*
X246573626Y-195800057D01*
X246573626Y-195942914D01*
X245859340Y-196085771D01*
D10*
D11*
X177002200Y-191507200D02*
X285002200Y-191507200D01*
D10*
D12*
X264216486Y-193785771D02*
X263716486Y-193071486D01*
X263359343Y-193785771D02*
X263359343Y-192285771D01*
X263930771Y-192285771D01*
X264073629Y-192357200D01*
X264145057Y-192428629D01*
X264216486Y-192571486D01*
X264216486Y-192785771D01*
X264145057Y-192928629D01*
X264073629Y-193000057D01*
X263930771Y-193071486D01*
X263359343Y-193071486D01*
X265430771Y-193714343D02*
X265287914Y-193785771D01*
X265002200Y-193785771D01*
X264859343Y-193714343D01*
X264787914Y-193571486D01*
X264787914Y-193000057D01*
X264859343Y-192857200D01*
X265002200Y-192785771D01*
X265287914Y-192785771D01*
X265430771Y-192857200D01*
X265502200Y-193000057D01*
X265502200Y-193142914D01*
X264787914Y-193285771D01*
X266002200Y-192785771D02*
X266359343Y-193785771D01*
X266716485Y-192785771D01*
X267287914Y-193642914D02*
X267359342Y-193714343D01*
X267287914Y-193785771D01*
X267216485Y-193714343D01*
X267287914Y-193642914D01*
X267287914Y-193785771D01*
X267287914Y-192857200D02*
X267359342Y-192928629D01*
X267287914Y-193000057D01*
X267216485Y-192928629D01*
X267287914Y-192857200D01*
X267287914Y-193000057D01*
D10*
D11*
X178287914Y-193714343D02*
X178502200Y-193785771D01*
X178859343Y-193785771D01*
X179002200Y-193714343D01*
X179073629Y-193642914D01*
X179145057Y-193500057D01*
X179145057Y-193357200D01*
X179073629Y-193214343D01*
X179002200Y-193142914D01*
X178859343Y-193071486D01*
X178573629Y-193000057D01*
X178430771Y-192928629D01*
X178359343Y-192857200D01*
X178287914Y-192714343D01*
X178287914Y-192571486D01*
X178359343Y-192428629D01*
X178430771Y-192357200D01*
X178573629Y-192285771D01*
X178930771Y-192285771D01*
X179145057Y-192357200D01*
X179787914Y-193785771D02*
X179787914Y-192785771D01*
X179787914Y-192285771D02*
X179716485Y-192357200D01*
X179787914Y-192428629D01*
X179859342Y-192357200D01*
X179787914Y-192285771D01*
X179787914Y-192428629D01*
X180359343Y-192785771D02*
X181145057Y-192785771D01*
X180359343Y-193785771D01*
X181145057Y-193785771D01*
X182287914Y-193714343D02*
X182145057Y-193785771D01*
X181859343Y-193785771D01*
X181716486Y-193714343D01*
X181645057Y-193571486D01*
X181645057Y-193000057D01*
X181716486Y-192857200D01*
X181859343Y-192785771D01*
X182145057Y-192785771D01*
X182287914Y-192857200D01*
X182359343Y-193000057D01*
X182359343Y-193142914D01*
X181645057Y-193285771D01*
X183002200Y-193642914D02*
X183073628Y-193714343D01*
X183002200Y-193785771D01*
X182930771Y-193714343D01*
X183002200Y-193642914D01*
X183002200Y-193785771D01*
X183002200Y-192857200D02*
X183073628Y-192928629D01*
X183002200Y-193000057D01*
X182930771Y-192928629D01*
X183002200Y-192857200D01*
X183002200Y-193000057D01*
X184787914Y-193357200D02*
X185502200Y-193357200D01*
X184645057Y-193785771D02*
X185145057Y-192285771D01*
X185645057Y-193785771D01*
X186787914Y-192785771D02*
X186787914Y-193785771D01*
X186430771Y-192214343D02*
X186073628Y-193285771D01*
X187002200Y-193285771D01*
D10*
D11*
X263359343Y-196585771D02*
X263359343Y-195085771D01*
X264716486Y-196585771D02*
X264716486Y-195085771D01*
X264716486Y-196514343D02*
X264573629Y-196585771D01*
X264287915Y-196585771D01*
X264145057Y-196514343D01*
X264073629Y-196442914D01*
X264002200Y-196300057D01*
X264002200Y-195871486D01*
X264073629Y-195728629D01*
X264145057Y-195657200D01*
X264287915Y-195585771D01*
X264573629Y-195585771D01*
X264716486Y-195657200D01*
X265430772Y-196442914D02*
X265502200Y-196514343D01*
X265430772Y-196585771D01*
X265359343Y-196514343D01*
X265430772Y-196442914D01*
X265430772Y-196585771D01*
X265430772Y-195657200D02*
X265502200Y-195728629D01*
X265430772Y-195800057D01*
X265359343Y-195728629D01*
X265430772Y-195657200D01*
X265430772Y-195800057D01*
X268073629Y-196585771D02*
X267216486Y-196585771D01*
X267645058Y-196585771D02*
X267645058Y-195085771D01*
X267502201Y-195300057D01*
X267359343Y-195442914D01*
X267216486Y-195514343D01*
X269787914Y-195014343D02*
X268502200Y-196942914D01*
X271073629Y-196585771D02*
X270216486Y-196585771D01*
X270645058Y-196585771D02*
X270645058Y-195085771D01*
X270502201Y-195300057D01*
X270359343Y-195442914D01*
X270216486Y-195514343D01*
D10*
D11*
X177002200Y-187507200D02*
X285002200Y-187507200D01*
D10*
D13*
X178454581Y-188211962D02*
X179597438Y-188211962D01*
X178776010Y-190211962D02*
X179026010Y-188211962D01*
X180014105Y-190211962D02*
X180180771Y-188878629D01*
X180264105Y-188211962D02*
X180156962Y-188307200D01*
X180240295Y-188402438D01*
X180347439Y-188307200D01*
X180264105Y-188211962D01*
X180240295Y-188402438D01*
X180847438Y-188878629D02*
X181609343Y-188878629D01*
X181216486Y-188211962D02*
X181002200Y-189926248D01*
X181073630Y-190116724D01*
X181252201Y-190211962D01*
X181442677Y-190211962D01*
X182395058Y-190211962D02*
X182216487Y-190116724D01*
X182145057Y-189926248D01*
X182359343Y-188211962D01*
X183930772Y-190116724D02*
X183728391Y-190211962D01*
X183347439Y-190211962D01*
X183168867Y-190116724D01*
X183097438Y-189926248D01*
X183192676Y-189164343D01*
X183311724Y-188973867D01*
X183514105Y-188878629D01*
X183895057Y-188878629D01*
X184073629Y-188973867D01*
X184145057Y-189164343D01*
X184121248Y-189354819D01*
X183145057Y-189545295D01*
X184895057Y-190021486D02*
X184978392Y-190116724D01*
X184871248Y-190211962D01*
X184787915Y-190116724D01*
X184895057Y-190021486D01*
X184871248Y-190211962D01*
X185026010Y-188973867D02*
X185109344Y-189069105D01*
X185002200Y-189164343D01*
X184918867Y-189069105D01*
X185026010Y-188973867D01*
X185002200Y-189164343D01*
D10*
D11*
X178859343Y-185600057D02*
X178359343Y-185600057D01*
X178359343Y-186385771D02*
X178359343Y-184885771D01*
X179073629Y-184885771D01*
X179645057Y-186385771D02*
X179645057Y-185385771D01*
X179645057Y-184885771D02*
X179573628Y-184957200D01*
X179645057Y-185028629D01*
X179716485Y-184957200D01*
X179645057Y-184885771D01*
X179645057Y-185028629D01*
X180573629Y-186385771D02*
X180430771Y-186314343D01*
X180359343Y-186171486D01*
X180359343Y-184885771D01*
X181716485Y-186314343D02*
X181573628Y-186385771D01*
X181287914Y-186385771D01*
X181145057Y-186314343D01*
X181073628Y-186171486D01*
X181073628Y-185600057D01*
X181145057Y-185457200D01*
X181287914Y-185385771D01*
X181573628Y-185385771D01*
X181716485Y-185457200D01*
X181787914Y-185600057D01*
X181787914Y-185742914D01*
X181073628Y-185885771D01*
X182430771Y-186242914D02*
X182502199Y-186314343D01*
X182430771Y-186385771D01*
X182359342Y-186314343D01*
X182430771Y-186242914D01*
X182430771Y-186385771D01*
X182430771Y-185457200D02*
X182502199Y-185528629D01*
X182430771Y-185600057D01*
X182359342Y-185528629D01*
X182430771Y-185457200D01*
X182430771Y-185600057D01*
X184073628Y-184885771D02*
X184573628Y-186385771D01*
X185073628Y-184885771D01*
X185573628Y-186385771D02*
X185573628Y-185385771D01*
X185573628Y-184885771D02*
X185502199Y-184957200D01*
X185573628Y-185028629D01*
X185645056Y-184957200D01*
X185573628Y-184885771D01*
X185573628Y-185028629D01*
X186930771Y-186385771D02*
X186930771Y-185600057D01*
X186859342Y-185457200D01*
X186716485Y-185385771D01*
X186430771Y-185385771D01*
X186287914Y-185457200D01*
X186930771Y-186314343D02*
X186787914Y-186385771D01*
X186430771Y-186385771D01*
X186287914Y-186314343D01*
X186216485Y-186171486D01*
X186216485Y-186028629D01*
X186287914Y-185885771D01*
X186430771Y-185814343D01*
X186787914Y-185814343D01*
X186930771Y-185742914D01*
X187859343Y-186385771D02*
X187716485Y-186314343D01*
X187645057Y-186171486D01*
X187645057Y-184885771D01*
X188073628Y-186528629D02*
X189216485Y-186528629D01*
X190073628Y-185600057D02*
X190287914Y-185671486D01*
X190359342Y-185742914D01*
X190430771Y-185885771D01*
X190430771Y-186100057D01*
X190359342Y-186242914D01*
X190287914Y-186314343D01*
X190145056Y-186385771D01*
X189573628Y-186385771D01*
X189573628Y-184885771D01*
X190073628Y-184885771D01*
X190216485Y-184957200D01*
X190287914Y-185028629D01*
X190359342Y-185171486D01*
X190359342Y-185314343D01*
X190287914Y-185457200D01*
X190216485Y-185528629D01*
X190073628Y-185600057D01*
X189573628Y-185600057D01*
X191287914Y-186385771D02*
X191145056Y-186314343D01*
X191073628Y-186242914D01*
X191002199Y-186100057D01*
X191002199Y-185671486D01*
X191073628Y-185528629D01*
X191145056Y-185457200D01*
X191287914Y-185385771D01*
X191502199Y-185385771D01*
X191645056Y-185457200D01*
X191716485Y-185528629D01*
X191787914Y-185671486D01*
X191787914Y-186100057D01*
X191716485Y-186242914D01*
X191645056Y-186314343D01*
X191502199Y-186385771D01*
X191287914Y-186385771D01*
X193073628Y-186385771D02*
X193073628Y-185600057D01*
X193002199Y-185457200D01*
X192859342Y-185385771D01*
X192573628Y-185385771D01*
X192430771Y-185457200D01*
X193073628Y-186314343D02*
X192930771Y-186385771D01*
X192573628Y-186385771D01*
X192430771Y-186314343D01*
X192359342Y-186171486D01*
X192359342Y-186028629D01*
X192430771Y-185885771D01*
X192573628Y-185814343D01*
X192930771Y-185814343D01*
X193073628Y-185742914D01*
X193787914Y-186385771D02*
X193787914Y-185385771D01*
X193787914Y-185671486D02*
X193859342Y-185528629D01*
X193930771Y-185457200D01*
X194073628Y-185385771D01*
X194216485Y-185385771D01*
X195359342Y-186385771D02*
X195359342Y-184885771D01*
X195359342Y-186314343D02*
X195216485Y-186385771D01*
X194930771Y-186385771D01*
X194787913Y-186314343D01*
X194716485Y-186242914D01*
X194645056Y-186100057D01*
X194645056Y-185671486D01*
X194716485Y-185528629D01*
X194787913Y-185457200D01*
X194930771Y-185385771D01*
X195216485Y-185385771D01*
X195359342Y-185457200D01*
X196073628Y-186242914D02*
X196145056Y-186314343D01*
X196073628Y-186385771D01*
X196002199Y-186314343D01*
X196073628Y-186242914D01*
X196073628Y-186385771D01*
X196787914Y-186385771D02*
X196787914Y-184885771D01*
X196930771Y-185814343D02*
X197359342Y-186385771D01*
X197359342Y-185385771D02*
X196787914Y-185957200D01*
X198002200Y-186385771D02*
X198002200Y-185385771D01*
X198002200Y-184885771D02*
X197930771Y-184957200D01*
X198002200Y-185028629D01*
X198073628Y-184957200D01*
X198002200Y-184885771D01*
X198002200Y-185028629D01*
X199359343Y-186314343D02*
X199216486Y-186385771D01*
X198930772Y-186385771D01*
X198787914Y-186314343D01*
X198716486Y-186242914D01*
X198645057Y-186100057D01*
X198645057Y-185671486D01*
X198716486Y-185528629D01*
X198787914Y-185457200D01*
X198930772Y-185385771D01*
X199216486Y-185385771D01*
X199359343Y-185457200D01*
X200645057Y-186385771D02*
X200645057Y-185600057D01*
X200573628Y-185457200D01*
X200430771Y-185385771D01*
X200145057Y-185385771D01*
X200002200Y-185457200D01*
X200645057Y-186314343D02*
X200502200Y-186385771D01*
X200145057Y-186385771D01*
X200002200Y-186314343D01*
X199930771Y-186171486D01*
X199930771Y-186028629D01*
X200002200Y-185885771D01*
X200145057Y-185814343D01*
X200502200Y-185814343D01*
X200645057Y-185742914D01*
X202002200Y-186385771D02*
X202002200Y-184885771D01*
X202002200Y-186314343D02*
X201859343Y-186385771D01*
X201573629Y-186385771D01*
X201430771Y-186314343D01*
X201359343Y-186242914D01*
X201287914Y-186100057D01*
X201287914Y-185671486D01*
X201359343Y-185528629D01*
X201430771Y-185457200D01*
X201573629Y-185385771D01*
X201859343Y-185385771D01*
X202002200Y-185457200D01*
X202359343Y-186528629D02*
X203502200Y-186528629D01*
X203859343Y-185385771D02*
X203859343Y-186885771D01*
X203859343Y-185457200D02*
X204002200Y-185385771D01*
X204287914Y-185385771D01*
X204430771Y-185457200D01*
X204502200Y-185528629D01*
X204573629Y-185671486D01*
X204573629Y-186100057D01*
X204502200Y-186242914D01*
X204430771Y-186314343D01*
X204287914Y-186385771D01*
X204002200Y-186385771D01*
X203859343Y-186314343D01*
X205859343Y-186314343D02*
X205716486Y-186385771D01*
X205430772Y-186385771D01*
X205287914Y-186314343D01*
X205216486Y-186242914D01*
X205145057Y-186100057D01*
X205145057Y-185671486D01*
X205216486Y-185528629D01*
X205287914Y-185457200D01*
X205430772Y-185385771D01*
X205716486Y-185385771D01*
X205859343Y-185457200D01*
X206502200Y-186385771D02*
X206502200Y-184885771D01*
X206502200Y-185457200D02*
X206645057Y-185385771D01*
X206930771Y-185385771D01*
X207073628Y-185457200D01*
X207145057Y-185528629D01*
X207216486Y-185671486D01*
X207216486Y-186100057D01*
X207145057Y-186242914D01*
X207073628Y-186314343D01*
X206930771Y-186385771D01*
X206645057Y-186385771D01*
X206502200Y-186314343D01*
D10*
D11*
X177002200Y-181507200D02*
X285002200Y-181507200D01*
D10*
D11*
X178287914Y-183614343D02*
X178502200Y-183685771D01*
X178859343Y-183685771D01*
X179002200Y-183614343D01*
X179073629Y-183542914D01*
X179145057Y-183400057D01*
X179145057Y-183257200D01*
X179073629Y-183114343D01*
X179002200Y-183042914D01*
X178859343Y-182971486D01*
X178573629Y-182900057D01*
X178430771Y-182828629D01*
X178359343Y-182757200D01*
X178287914Y-182614343D01*
X178287914Y-182471486D01*
X178359343Y-182328629D01*
X178430771Y-182257200D01*
X178573629Y-182185771D01*
X178930771Y-182185771D01*
X179145057Y-182257200D01*
X179787914Y-183685771D02*
X179787914Y-182185771D01*
X180430771Y-183685771D02*
X180430771Y-182900057D01*
X180359342Y-182757200D01*
X180216485Y-182685771D01*
X180002200Y-182685771D01*
X179859342Y-182757200D01*
X179787914Y-182828629D01*
X181716485Y-183614343D02*
X181573628Y-183685771D01*
X181287914Y-183685771D01*
X181145057Y-183614343D01*
X181073628Y-183471486D01*
X181073628Y-182900057D01*
X181145057Y-182757200D01*
X181287914Y-182685771D01*
X181573628Y-182685771D01*
X181716485Y-182757200D01*
X181787914Y-182900057D01*
X181787914Y-183042914D01*
X181073628Y-183185771D01*
X183002199Y-183614343D02*
X182859342Y-183685771D01*
X182573628Y-183685771D01*
X182430771Y-183614343D01*
X182359342Y-183471486D01*
X182359342Y-182900057D01*
X182430771Y-182757200D01*
X182573628Y-182685771D01*
X182859342Y-182685771D01*
X183002199Y-182757200D01*
X183073628Y-182900057D01*
X183073628Y-183042914D01*
X182359342Y-183185771D01*
X183502199Y-182685771D02*
X184073628Y-182685771D01*
X183716485Y-182185771D02*
X183716485Y-183471486D01*
X183787913Y-183614343D01*
X183930771Y-183685771D01*
X184073628Y-183685771D01*
X184573628Y-183542914D02*
X184645056Y-183614343D01*
X184573628Y-183685771D01*
X184502199Y-183614343D01*
X184573628Y-183542914D01*
X184573628Y-183685771D01*
X184573628Y-182757200D02*
X184645056Y-182828629D01*
X184573628Y-182900057D01*
X184502199Y-182828629D01*
X184573628Y-182757200D01*
X184573628Y-182900057D01*
D10*
D11*
X197002200Y-191507200D02*
X197002200Y-194507200D01*
D10*
D11*
X261002200Y-191507200D02*
X261002200Y-198007200D01*
D14*
X160340271Y-87719739D02*
X160853428Y-87206582D01*
X160545534Y-88130266D02*
X159827114Y-86693425D01*
X161263955Y-87411845D01*
X161366586Y-85872372D02*
X162085007Y-86590793D01*
X160904745Y-86334214D02*
X161469217Y-86898687D01*
X161623165Y-86950003D01*
X161777112Y-86898688D01*
X161931060Y-86744740D01*
X161982375Y-86590792D01*
X161982375Y-86488161D01*
X162341585Y-84897373D02*
X163213953Y-85769741D01*
X163265269Y-85923688D01*
X163265268Y-86026320D01*
X163213953Y-86180267D01*
X163060006Y-86334214D01*
X162906058Y-86385530D01*
X163008690Y-85564478D02*
X162957374Y-85718425D01*
X162752111Y-85923689D01*
X162598164Y-85975003D01*
X162495533Y-85975004D01*
X162341585Y-85923688D01*
X162033691Y-85615793D01*
X161982375Y-85461846D01*
X161982375Y-85359215D01*
X162033691Y-85205268D01*
X162238954Y-85000005D01*
X162392901Y-84948689D01*
X163367900Y-83357900D02*
X163367900Y-83255269D01*
X163419216Y-83101322D01*
X163675795Y-82844743D01*
X163829742Y-82793427D01*
X163932373Y-82793427D01*
X164086321Y-82844743D01*
X164188952Y-82947374D01*
X164291583Y-83152638D01*
X164291584Y-84384216D01*
X164958689Y-83717111D01*
X164548163Y-81972375D02*
X164650795Y-81869744D01*
X164804742Y-81818428D01*
X164907373Y-81818428D01*
X165061320Y-81869744D01*
X165317899Y-82023691D01*
X165574478Y-82280269D01*
X165728425Y-82536849D01*
X165779741Y-82690796D01*
X165779741Y-82793427D01*
X165728425Y-82947374D01*
X165625794Y-83050006D01*
X165471846Y-83101321D01*
X165369215Y-83101321D01*
X165215267Y-83050006D01*
X164958689Y-82896058D01*
X164702110Y-82639480D01*
X164548162Y-82382901D01*
X164496847Y-82228953D01*
X164496847Y-82126322D01*
X164548163Y-81972375D01*
X167011319Y-81664480D02*
X166395530Y-82280269D01*
X166703425Y-81972375D02*
X165625794Y-80894745D01*
X165677109Y-81151323D01*
X165677110Y-81356586D01*
X165625794Y-81510533D01*
X166857372Y-79663166D02*
X166652109Y-79868429D01*
X166600793Y-80022376D01*
X166600793Y-80125007D01*
X166652109Y-80381587D01*
X166806056Y-80638164D01*
X167216583Y-81048691D01*
X167370530Y-81100007D01*
X167473161Y-81100006D01*
X167627108Y-81048692D01*
X167832371Y-80843428D01*
X167883687Y-80689481D01*
X167883687Y-80586850D01*
X167832371Y-80432902D01*
X167575793Y-80176323D01*
X167421845Y-80125008D01*
X167319213Y-80125007D01*
X167165266Y-80176323D01*
X166960003Y-80381587D01*
X166908688Y-80535533D01*
X166908688Y-80638165D01*
X166960004Y-80792112D01*
X133056288Y-82366656D02*
X132902340Y-82315340D01*
X132697077Y-82110077D01*
X132645762Y-81956129D01*
X132697078Y-81802182D01*
X133107603Y-81391656D01*
X133261551Y-81340340D01*
X133415498Y-81391656D01*
X133620761Y-81596920D01*
X133672077Y-81750867D01*
X133620761Y-81904814D01*
X133518129Y-82007445D01*
X132902340Y-81596920D01*
X133979971Y-83392971D02*
X135057602Y-82315340D01*
X134031287Y-83341655D02*
X133877339Y-83290339D01*
X133672076Y-83085076D01*
X133620761Y-82931129D01*
X133620761Y-82828497D01*
X133672077Y-82674550D01*
X133979972Y-82366656D01*
X134133919Y-82315339D01*
X134236550Y-82315340D01*
X134390497Y-82366656D01*
X134595760Y-82571919D01*
X134647076Y-82725866D01*
X135057602Y-83033761D02*
X135468127Y-83444286D01*
X134493128Y-83906128D02*
X135416812Y-82982444D01*
X135570760Y-82931129D01*
X135724706Y-82982444D01*
X135827338Y-83085076D01*
X135211549Y-84419285D02*
X135211549Y-84521917D01*
X135108917Y-84521917D01*
X135108918Y-84419285D01*
X135211549Y-84419285D01*
X135108917Y-84521917D01*
X135622074Y-85035074D02*
X136699705Y-83957444D01*
X136289180Y-84367969D02*
X136443127Y-84419285D01*
X136648390Y-84624549D01*
X136699706Y-84778496D01*
X136699706Y-84881127D01*
X136648390Y-85035074D01*
X136340495Y-85342968D01*
X136186548Y-85394285D01*
X136083917Y-85394285D01*
X135929969Y-85342969D01*
X135724706Y-85137706D01*
X135673391Y-84983758D01*
X137777336Y-85753495D02*
X137058915Y-86471915D01*
X137315494Y-85291653D02*
X136751021Y-85856126D01*
X136699706Y-86010073D01*
X136751021Y-86164020D01*
X136904968Y-86317968D01*
X137058916Y-86369284D01*
X137161547Y-86369284D01*
X137674704Y-86882441D02*
X137674705Y-86985073D01*
X137572073Y-86985073D01*
X137572073Y-86882441D01*
X137674704Y-86882441D01*
X137572073Y-86985073D01*
X138547073Y-87857440D02*
X138393125Y-87806125D01*
X138187862Y-87600861D01*
X138136546Y-87446914D01*
X138187862Y-87292967D01*
X138598388Y-86882441D01*
X138752335Y-86831125D01*
X138906282Y-86882441D01*
X139111545Y-87087704D01*
X139162861Y-87241651D01*
X139111545Y-87395598D01*
X139008914Y-87498230D01*
X138393125Y-87087704D01*
X139470756Y-88883755D02*
X140548386Y-87806125D01*
X139522072Y-88832439D02*
X139368124Y-88781124D01*
X139162861Y-88575861D01*
X139111546Y-88421914D01*
X139111545Y-88319282D01*
X139162861Y-88165335D01*
X139470756Y-87857440D01*
X139624703Y-87806124D01*
X139727335Y-87806125D01*
X139881281Y-87857440D01*
X140086544Y-88062703D01*
X140137861Y-88216650D01*
X141164175Y-89140334D02*
X140445755Y-89858755D01*
X140702333Y-88678492D02*
X140137861Y-89242965D01*
X140086545Y-89396913D01*
X140137860Y-89550860D01*
X140291808Y-89704807D01*
X140445755Y-89756123D01*
X140548386Y-89756123D01*
X159298355Y-55527493D02*
X158579934Y-56964334D01*
X160016775Y-56245914D01*
X159298355Y-57682755D02*
X160016775Y-56964334D01*
X160375986Y-56605124D02*
X160273355Y-56605124D01*
X160273355Y-56707755D01*
X160375986Y-56707756D01*
X160375986Y-56605124D01*
X160273355Y-56707755D01*
X160273354Y-58657754D02*
X160837828Y-58093280D01*
X160889144Y-57939333D01*
X160837828Y-57785386D01*
X160632564Y-57580123D01*
X160478617Y-57528807D01*
X160324670Y-58606438D02*
X160170722Y-58555122D01*
X159914144Y-58298544D01*
X159862828Y-58144596D01*
X159914145Y-57990649D01*
X160016776Y-57888017D01*
X160170722Y-57836702D01*
X160324670Y-57888017D01*
X160581249Y-58144596D01*
X160735196Y-58195912D01*
X160940458Y-59324858D02*
X160889144Y-59170911D01*
X160940459Y-59016963D01*
X161864142Y-58093280D01*
X162787826Y-61172226D02*
X162941774Y-60299857D01*
X162172037Y-60556437D02*
X163249668Y-59478806D01*
X163660194Y-59889332D01*
X163711509Y-60043279D01*
X163711510Y-60145910D01*
X163660194Y-60299857D01*
X163506246Y-60453805D01*
X163352300Y-60505121D01*
X163249668Y-60505121D01*
X163095721Y-60453805D01*
X162685195Y-60043279D01*
X163711510Y-61993278D02*
X163557562Y-61941962D01*
X163352299Y-61736699D01*
X163300984Y-61582751D01*
X163352300Y-61428804D01*
X163762826Y-61018279D01*
X163916773Y-60966962D01*
X164070720Y-61018279D01*
X164275983Y-61223542D01*
X164327299Y-61377489D01*
X164275983Y-61531436D01*
X164173351Y-61634067D01*
X163557562Y-61223542D01*
X164789140Y-61736699D02*
X164327298Y-62711698D01*
X165302298Y-62249857D01*
X166739139Y-63994592D02*
X166841771Y-64199855D01*
X166841771Y-64302487D01*
X166790455Y-64456434D01*
X166636508Y-64610381D01*
X166482561Y-64661697D01*
X166379929Y-64661696D01*
X166225982Y-64610382D01*
X165815455Y-64199855D01*
X166893086Y-63122225D01*
X167252296Y-63481435D01*
X167303613Y-63635382D01*
X167303613Y-63738013D01*
X167252297Y-63891961D01*
X167149666Y-63994592D01*
X166995718Y-64045908D01*
X166893087Y-64045908D01*
X166739139Y-63994592D01*
X166379929Y-63635382D01*
X134241191Y-63379576D02*
X134189876Y-63533524D01*
X133984613Y-63738787D01*
X133830665Y-63790102D01*
X133676718Y-63738786D01*
X133266192Y-63328261D01*
X133214876Y-63174314D01*
X133266192Y-63020367D01*
X133471456Y-62815103D01*
X133625403Y-62763787D01*
X133779350Y-62815103D01*
X133881981Y-62917735D01*
X133471456Y-63533524D01*
X133574087Y-61994051D02*
X135010928Y-62712472D01*
X134292508Y-61275631D01*
X134856981Y-60711157D02*
X135062244Y-60505894D01*
X135216191Y-60454579D01*
X135421454Y-60454579D01*
X135678033Y-60608526D01*
X136037243Y-60967736D01*
X136191190Y-61224315D01*
X136191190Y-61429578D01*
X136139875Y-61583525D01*
X135934612Y-61788788D01*
X135780664Y-61840103D01*
X135575401Y-61840103D01*
X135318823Y-61686156D01*
X134959613Y-61326946D01*
X134805665Y-61070368D01*
X134805665Y-60865104D01*
X134856981Y-60711157D01*
X137371452Y-60351948D02*
X136858295Y-60865105D01*
X135780664Y-59787474D01*
X136499085Y-59069054D02*
X137935926Y-59787474D01*
X137217505Y-58350633D01*
X138089873Y-58504580D02*
X138449083Y-58145370D01*
X139167503Y-58555897D02*
X138654346Y-59069054D01*
X137576715Y-57991423D01*
X138089873Y-57478266D01*
X140245134Y-57478266D02*
X139372766Y-57324318D01*
X139629345Y-58094055D02*
X138551714Y-57016424D01*
X138962241Y-56605898D01*
X139116187Y-56554582D01*
X139218819Y-56554581D01*
X139372766Y-56605898D01*
X139526714Y-56759845D01*
X139578029Y-56913792D01*
X139578029Y-57016424D01*
X139526714Y-57170370D01*
X139116187Y-57580897D01*
D15*
X142457713Y-96054333D02*
X141586856Y-96054333D01*
X142022284Y-96054333D02*
X142022284Y-94276333D01*
X141877141Y-94530333D01*
X141731999Y-94699667D01*
X141586856Y-94784333D01*
X144199428Y-94445667D02*
X144271999Y-94361000D01*
X144417142Y-94276333D01*
X144779999Y-94276333D01*
X144925142Y-94361000D01*
X144997713Y-94445667D01*
X145070285Y-94615000D01*
X145070285Y-94784333D01*
X144997713Y-95038333D01*
X144126856Y-96054333D01*
X145070285Y-96054333D01*
X146739428Y-94276333D02*
X147682857Y-94276333D01*
X147174857Y-94953667D01*
X147392571Y-94953667D01*
X147537714Y-95038333D01*
X147610285Y-95123000D01*
X147682857Y-95292333D01*
X147682857Y-95715667D01*
X147610285Y-95885000D01*
X147537714Y-95969667D01*
X147392571Y-96054333D01*
X146957143Y-96054333D01*
X146812000Y-95969667D01*
X146739428Y-95885000D01*
X150150286Y-94869000D02*
X150150286Y-96054333D01*
X149787429Y-94191667D02*
X149424572Y-95461667D01*
X150368000Y-95461667D01*
X152835429Y-94276333D02*
X152109715Y-94276333D01*
X152037144Y-95123000D01*
X152109715Y-95038333D01*
X152254858Y-94953667D01*
X152617715Y-94953667D01*
X152762858Y-95038333D01*
X152835429Y-95123000D01*
X152908001Y-95292333D01*
X152908001Y-95715667D01*
X152835429Y-95885000D01*
X152762858Y-95969667D01*
X152617715Y-96054333D01*
X152254858Y-96054333D01*
X152109715Y-95969667D01*
X152037144Y-95885000D01*
X155375430Y-94276333D02*
X155085144Y-94276333D01*
X154940001Y-94361000D01*
X154867430Y-94445667D01*
X154722287Y-94699667D01*
X154649716Y-95038333D01*
X154649716Y-95715667D01*
X154722287Y-95885000D01*
X154794859Y-95969667D01*
X154940001Y-96054333D01*
X155230287Y-96054333D01*
X155375430Y-95969667D01*
X155448001Y-95885000D01*
X155520573Y-95715667D01*
X155520573Y-95292333D01*
X155448001Y-95123000D01*
X155375430Y-95038333D01*
X155230287Y-94953667D01*
X154940001Y-94953667D01*
X154794859Y-95038333D01*
X154722287Y-95123000D01*
X154649716Y-95292333D01*
X157189716Y-94276333D02*
X158205716Y-94276333D01*
X157552573Y-96054333D01*
D16*
X162614429Y-103281238D02*
X162759572Y-103329619D01*
X163001476Y-103329619D01*
X163098238Y-103281238D01*
X163146619Y-103232857D01*
X163195000Y-103136095D01*
X163195000Y-103039333D01*
X163146619Y-102942571D01*
X163098238Y-102894190D01*
X163001476Y-102845810D01*
X162807953Y-102797429D01*
X162711191Y-102749048D01*
X162662810Y-102700667D01*
X162614429Y-102603905D01*
X162614429Y-102507143D01*
X162662810Y-102410381D01*
X162711191Y-102362000D01*
X162807953Y-102313619D01*
X163049857Y-102313619D01*
X163195000Y-102362000D01*
X163630429Y-103329619D02*
X163630429Y-102313619D01*
X164646429Y-102362000D02*
X164549667Y-102313619D01*
X164404524Y-102313619D01*
X164259382Y-102362000D01*
X164162620Y-102458762D01*
X164114239Y-102555524D01*
X164065858Y-102749048D01*
X164065858Y-102894190D01*
X164114239Y-103087714D01*
X164162620Y-103184476D01*
X164259382Y-103281238D01*
X164404524Y-103329619D01*
X164501286Y-103329619D01*
X164646429Y-103281238D01*
X164694810Y-103232857D01*
X164694810Y-102894190D01*
X164501286Y-102894190D01*
X165855953Y-102265238D02*
X164985096Y-103571524D01*
X166726810Y-102362000D02*
X166630048Y-102313619D01*
X166484905Y-102313619D01*
X166339763Y-102362000D01*
X166243001Y-102458762D01*
X166194620Y-102555524D01*
X166146239Y-102749048D01*
X166146239Y-102894190D01*
X166194620Y-103087714D01*
X166243001Y-103184476D01*
X166339763Y-103281238D01*
X166484905Y-103329619D01*
X166581667Y-103329619D01*
X166726810Y-103281238D01*
X166775191Y-103232857D01*
X166775191Y-102894190D01*
X166581667Y-102894190D01*
X167210620Y-103329619D02*
X167210620Y-102313619D01*
X167791191Y-103329619D01*
X167791191Y-102313619D01*
X168275001Y-103329619D02*
X168275001Y-102313619D01*
X168516906Y-102313619D01*
X168662048Y-102362000D01*
X168758810Y-102458762D01*
X168807191Y-102555524D01*
X168855572Y-102749048D01*
X168855572Y-102894190D01*
X168807191Y-103087714D01*
X168758810Y-103184476D01*
X168662048Y-103281238D01*
X168516906Y-103329619D01*
X168275001Y-103329619D01*
X162251572Y-99773619D02*
X162590239Y-100789619D01*
X162928905Y-99773619D01*
X163848143Y-100692857D02*
X163799762Y-100741238D01*
X163654619Y-100789619D01*
X163557857Y-100789619D01*
X163412715Y-100741238D01*
X163315953Y-100644476D01*
X163267572Y-100547714D01*
X163219191Y-100354190D01*
X163219191Y-100209048D01*
X163267572Y-100015524D01*
X163315953Y-99918762D01*
X163412715Y-99822000D01*
X163557857Y-99773619D01*
X163654619Y-99773619D01*
X163799762Y-99822000D01*
X163848143Y-99870381D01*
X164864143Y-100692857D02*
X164815762Y-100741238D01*
X164670619Y-100789619D01*
X164573857Y-100789619D01*
X164428715Y-100741238D01*
X164331953Y-100644476D01*
X164283572Y-100547714D01*
X164235191Y-100354190D01*
X164235191Y-100209048D01*
X164283572Y-100015524D01*
X164331953Y-99918762D01*
X164428715Y-99822000D01*
X164573857Y-99773619D01*
X164670619Y-99773619D01*
X164815762Y-99822000D01*
X164864143Y-99870381D01*
X166025286Y-99725238D02*
X165154429Y-101031524D01*
X166363953Y-100789619D02*
X166363953Y-99773619D01*
X166751000Y-99773619D01*
X166847762Y-99822000D01*
X166896143Y-99870381D01*
X166944524Y-99967143D01*
X166944524Y-100112286D01*
X166896143Y-100209048D01*
X166847762Y-100257429D01*
X166751000Y-100305810D01*
X166363953Y-100305810D01*
X167283191Y-99773619D02*
X167525096Y-100789619D01*
X167718619Y-100063905D01*
X167912143Y-100789619D01*
X168154048Y-99773619D01*
X169121667Y-100789619D02*
X168783001Y-100305810D01*
X168541096Y-100789619D02*
X168541096Y-99773619D01*
X168928143Y-99773619D01*
X169024905Y-99822000D01*
X169073286Y-99870381D01*
X169121667Y-99967143D01*
X169121667Y-100112286D01*
X169073286Y-100209048D01*
X169024905Y-100257429D01*
X168928143Y-100305810D01*
X168541096Y-100305810D01*
D14*
X172139429Y-57912000D02*
X170615429Y-57912000D01*
X170615429Y-57331428D01*
X170688000Y-57186286D01*
X170760571Y-57113714D01*
X170905714Y-57041143D01*
X171123429Y-57041143D01*
X171268571Y-57113714D01*
X171341143Y-57186286D01*
X171413714Y-57331428D01*
X171413714Y-57912000D01*
X170615429Y-56533143D02*
X172139429Y-56170286D01*
X171050857Y-55880000D01*
X172139429Y-55589714D01*
X170615429Y-55226857D01*
X172139429Y-53775429D02*
X171413714Y-54283429D01*
X172139429Y-54646286D02*
X170615429Y-54646286D01*
X170615429Y-54065714D01*
X170688000Y-53920572D01*
X170760571Y-53848000D01*
X170905714Y-53775429D01*
X171123429Y-53775429D01*
X171268571Y-53848000D01*
X171341143Y-53920572D01*
X171413714Y-54065714D01*
X171413714Y-54646286D01*
X135998858Y-51308000D02*
X135853715Y-51235429D01*
X135636001Y-51235429D01*
X135418286Y-51308000D01*
X135273144Y-51453143D01*
X135200572Y-51598286D01*
X135128001Y-51888571D01*
X135128001Y-52106286D01*
X135200572Y-52396571D01*
X135273144Y-52541714D01*
X135418286Y-52686857D01*
X135636001Y-52759429D01*
X135781144Y-52759429D01*
X135998858Y-52686857D01*
X136071429Y-52614286D01*
X136071429Y-52106286D01*
X135781144Y-52106286D01*
X136724572Y-52759429D02*
X136724572Y-51235429D01*
X137595429Y-52759429D01*
X137595429Y-51235429D01*
X138321143Y-52759429D02*
X138321143Y-51235429D01*
X138684000Y-51235429D01*
X138901715Y-51308000D01*
X139046857Y-51453143D01*
X139119429Y-51598286D01*
X139192000Y-51888571D01*
X139192000Y-52106286D01*
X139119429Y-52396571D01*
X139046857Y-52541714D01*
X138901715Y-52686857D01*
X138684000Y-52759429D01*
X138321143Y-52759429D01*
X131499429Y-57912000D02*
X129975429Y-57912000D01*
X129975429Y-57331428D01*
X130048000Y-57186286D01*
X130120571Y-57113714D01*
X130265714Y-57041143D01*
X130483429Y-57041143D01*
X130628571Y-57113714D01*
X130701143Y-57186286D01*
X130773714Y-57331428D01*
X130773714Y-57912000D01*
X129975429Y-56533143D02*
X131499429Y-56170286D01*
X130410857Y-55880000D01*
X131499429Y-55589714D01*
X129975429Y-55226857D01*
X131499429Y-53775429D02*
X130773714Y-54283429D01*
X131499429Y-54646286D02*
X129975429Y-54646286D01*
X129975429Y-54065714D01*
X130048000Y-53920572D01*
X130120571Y-53848000D01*
X130265714Y-53775429D01*
X130483429Y-53775429D01*
X130628571Y-53848000D01*
X130701143Y-53920572D01*
X130773714Y-54065714D01*
X130773714Y-54646286D01*
X168148000Y-57041142D02*
X168075429Y-57186285D01*
X168075429Y-57403999D01*
X168148000Y-57621714D01*
X168293143Y-57766856D01*
X168438286Y-57839428D01*
X168728571Y-57911999D01*
X168946286Y-57911999D01*
X169236571Y-57839428D01*
X169381714Y-57766856D01*
X169526857Y-57621714D01*
X169599429Y-57403999D01*
X169599429Y-57258856D01*
X169526857Y-57041142D01*
X169454286Y-56968571D01*
X168946286Y-56968571D01*
X168946286Y-57258856D01*
X169599429Y-56315428D02*
X168075429Y-56315428D01*
X169599429Y-55444571D01*
X168075429Y-55444571D01*
X169599429Y-54718857D02*
X168075429Y-54718857D01*
X168075429Y-54356000D01*
X168148000Y-54138285D01*
X168293143Y-53993143D01*
X168438286Y-53920571D01*
X168728571Y-53848000D01*
X168946286Y-53848000D01*
X169236571Y-53920571D01*
X169381714Y-53993143D01*
X169526857Y-54138285D01*
X169599429Y-54356000D01*
X169599429Y-54718857D01*
X171323000Y-67836142D02*
X171250429Y-67981285D01*
X171250429Y-68198999D01*
X171323000Y-68416714D01*
X171468143Y-68561856D01*
X171613286Y-68634428D01*
X171903571Y-68706999D01*
X172121286Y-68706999D01*
X172411571Y-68634428D01*
X172556714Y-68561856D01*
X172701857Y-68416714D01*
X172774429Y-68198999D01*
X172774429Y-68053856D01*
X172701857Y-67836142D01*
X172629286Y-67763571D01*
X172121286Y-67763571D01*
X172121286Y-68053856D01*
X172774429Y-67110428D02*
X171250429Y-67110428D01*
X172774429Y-66239571D01*
X171250429Y-66239571D01*
X172774429Y-65513857D02*
X171250429Y-65513857D01*
X171250429Y-65151000D01*
X171323000Y-64933285D01*
X171468143Y-64788143D01*
X171613286Y-64715571D01*
X171903571Y-64643000D01*
X172121286Y-64643000D01*
X172411571Y-64715571D01*
X172556714Y-64788143D01*
X172701857Y-64933285D01*
X172774429Y-65151000D01*
X172774429Y-65513857D01*
X172774429Y-79502000D02*
X171250429Y-79502000D01*
X171250429Y-78921428D01*
X171323000Y-78776286D01*
X171395571Y-78703714D01*
X171540714Y-78631143D01*
X171758429Y-78631143D01*
X171903571Y-78703714D01*
X171976143Y-78776286D01*
X172048714Y-78921428D01*
X172048714Y-79502000D01*
X171250429Y-78123143D02*
X172774429Y-77760286D01*
X171685857Y-77470000D01*
X172774429Y-77179714D01*
X171250429Y-76816857D01*
X172774429Y-75365429D02*
X172048714Y-75873429D01*
X172774429Y-76236286D02*
X171250429Y-76236286D01*
X171250429Y-75655714D01*
X171323000Y-75510572D01*
X171395571Y-75438000D01*
X171540714Y-75365429D01*
X171758429Y-75365429D01*
X171903571Y-75438000D01*
X171976143Y-75510572D01*
X172048714Y-75655714D01*
X172048714Y-76236286D01*
X128378858Y-83693000D02*
X128233715Y-83620429D01*
X128016001Y-83620429D01*
X127798286Y-83693000D01*
X127653144Y-83838143D01*
X127580572Y-83983286D01*
X127508001Y-84273571D01*
X127508001Y-84491286D01*
X127580572Y-84781571D01*
X127653144Y-84926714D01*
X127798286Y-85071857D01*
X128016001Y-85144429D01*
X128161144Y-85144429D01*
X128378858Y-85071857D01*
X128451429Y-84999286D01*
X128451429Y-84491286D01*
X128161144Y-84491286D01*
X129104572Y-85144429D02*
X129104572Y-83620429D01*
X129975429Y-85144429D01*
X129975429Y-83620429D01*
X130701143Y-85144429D02*
X130701143Y-83620429D01*
X131064000Y-83620429D01*
X131281715Y-83693000D01*
X131426857Y-83838143D01*
X131499429Y-83983286D01*
X131572000Y-84273571D01*
X131572000Y-84491286D01*
X131499429Y-84781571D01*
X131426857Y-84926714D01*
X131281715Y-85071857D01*
X131064000Y-85144429D01*
X130701143Y-85144429D01*
X127508000Y-93399429D02*
X127508000Y-91875429D01*
X128088572Y-91875429D01*
X128233714Y-91948000D01*
X128306286Y-92020571D01*
X128378857Y-92165714D01*
X128378857Y-92383429D01*
X128306286Y-92528571D01*
X128233714Y-92601143D01*
X128088572Y-92673714D01*
X127508000Y-92673714D01*
X128886857Y-91875429D02*
X129249714Y-93399429D01*
X129540000Y-92310857D01*
X129830286Y-93399429D01*
X130193143Y-91875429D01*
X131644571Y-93399429D02*
X131136571Y-92673714D01*
X130773714Y-93399429D02*
X130773714Y-91875429D01*
X131354286Y-91875429D01*
X131499428Y-91948000D01*
X131572000Y-92020571D01*
X131644571Y-92165714D01*
X131644571Y-92383429D01*
X131572000Y-92528571D01*
X131499428Y-92601143D01*
X131354286Y-92673714D01*
X130773714Y-92673714D01*
X130918858Y-104648000D02*
X130773715Y-104575429D01*
X130556001Y-104575429D01*
X130338286Y-104648000D01*
X130193144Y-104793143D01*
X130120572Y-104938286D01*
X130048001Y-105228571D01*
X130048001Y-105446286D01*
X130120572Y-105736571D01*
X130193144Y-105881714D01*
X130338286Y-106026857D01*
X130556001Y-106099429D01*
X130701144Y-106099429D01*
X130918858Y-106026857D01*
X130991429Y-105954286D01*
X130991429Y-105446286D01*
X130701144Y-105446286D01*
X131644572Y-106099429D02*
X131644572Y-104575429D01*
X132515429Y-106099429D01*
X132515429Y-104575429D01*
X133241143Y-106099429D02*
X133241143Y-104575429D01*
X133604000Y-104575429D01*
X133821715Y-104648000D01*
X133966857Y-104793143D01*
X134039429Y-104938286D01*
X134112000Y-105228571D01*
X134112000Y-105446286D01*
X134039429Y-105736571D01*
X133966857Y-105881714D01*
X133821715Y-106026857D01*
X133604000Y-106099429D01*
X133241143Y-106099429D01*
X130048000Y-98479429D02*
X130048000Y-96955429D01*
X130628572Y-96955429D01*
X130773714Y-97028000D01*
X130846286Y-97100571D01*
X130918857Y-97245714D01*
X130918857Y-97463429D01*
X130846286Y-97608571D01*
X130773714Y-97681143D01*
X130628572Y-97753714D01*
X130048000Y-97753714D01*
X131426857Y-96955429D02*
X131789714Y-98479429D01*
X132080000Y-97390857D01*
X132370286Y-98479429D01*
X132733143Y-96955429D01*
X134184571Y-98479429D02*
X133676571Y-97753714D01*
X133313714Y-98479429D02*
X133313714Y-96955429D01*
X133894286Y-96955429D01*
X134039428Y-97028000D01*
X134112000Y-97100571D01*
X134184571Y-97245714D01*
X134184571Y-97463429D01*
X134112000Y-97608571D01*
X134039428Y-97681143D01*
X133894286Y-97753714D01*
X133313714Y-97753714D01*
X146521714Y-52124429D02*
X146521714Y-50600429D01*
X146521714Y-51326143D02*
X147392571Y-51326143D01*
X147392571Y-52124429D02*
X147392571Y-50600429D01*
X148698857Y-52051857D02*
X148553714Y-52124429D01*
X148263428Y-52124429D01*
X148118285Y-52051857D01*
X148045714Y-51906714D01*
X148045714Y-51326143D01*
X148118285Y-51181000D01*
X148263428Y-51108429D01*
X148553714Y-51108429D01*
X148698857Y-51181000D01*
X148771428Y-51326143D01*
X148771428Y-51471286D01*
X148045714Y-51616429D01*
X150077714Y-52124429D02*
X150077714Y-51326143D01*
X150005143Y-51181000D01*
X149860000Y-51108429D01*
X149569714Y-51108429D01*
X149424571Y-51181000D01*
X150077714Y-52051857D02*
X149932571Y-52124429D01*
X149569714Y-52124429D01*
X149424571Y-52051857D01*
X149352000Y-51906714D01*
X149352000Y-51761571D01*
X149424571Y-51616429D01*
X149569714Y-51543857D01*
X149932571Y-51543857D01*
X150077714Y-51471286D01*
X150585714Y-51108429D02*
X151166285Y-51108429D01*
X150803428Y-50600429D02*
X150803428Y-51906714D01*
X150876000Y-52051857D01*
X151021142Y-52124429D01*
X151166285Y-52124429D01*
X152254857Y-52051857D02*
X152109714Y-52124429D01*
X151819428Y-52124429D01*
X151674285Y-52051857D01*
X151601714Y-51906714D01*
X151601714Y-51326143D01*
X151674285Y-51181000D01*
X151819428Y-51108429D01*
X152109714Y-51108429D01*
X152254857Y-51181000D01*
X152327428Y-51326143D01*
X152327428Y-51471286D01*
X151601714Y-51616429D01*
X152980571Y-52124429D02*
X152980571Y-51108429D01*
X152980571Y-51398714D02*
X153053143Y-51253571D01*
X153125714Y-51181000D01*
X153270857Y-51108429D01*
X153416000Y-51108429D01*
X154776714Y-91494429D02*
X154776714Y-89970429D01*
X154776714Y-90696143D02*
X155647571Y-90696143D01*
X155647571Y-91494429D02*
X155647571Y-89970429D01*
X156953857Y-91421857D02*
X156808714Y-91494429D01*
X156518428Y-91494429D01*
X156373285Y-91421857D01*
X156300714Y-91276714D01*
X156300714Y-90696143D01*
X156373285Y-90551000D01*
X156518428Y-90478429D01*
X156808714Y-90478429D01*
X156953857Y-90551000D01*
X157026428Y-90696143D01*
X157026428Y-90841286D01*
X156300714Y-90986429D01*
X158332714Y-91494429D02*
X158332714Y-90696143D01*
X158260143Y-90551000D01*
X158115000Y-90478429D01*
X157824714Y-90478429D01*
X157679571Y-90551000D01*
X158332714Y-91421857D02*
X158187571Y-91494429D01*
X157824714Y-91494429D01*
X157679571Y-91421857D01*
X157607000Y-91276714D01*
X157607000Y-91131571D01*
X157679571Y-90986429D01*
X157824714Y-90913857D01*
X158187571Y-90913857D01*
X158332714Y-90841286D01*
X158840714Y-90478429D02*
X159421285Y-90478429D01*
X159058428Y-89970429D02*
X159058428Y-91276714D01*
X159131000Y-91421857D01*
X159276142Y-91494429D01*
X159421285Y-91494429D01*
X160509857Y-91421857D02*
X160364714Y-91494429D01*
X160074428Y-91494429D01*
X159929285Y-91421857D01*
X159856714Y-91276714D01*
X159856714Y-90696143D01*
X159929285Y-90551000D01*
X160074428Y-90478429D01*
X160364714Y-90478429D01*
X160509857Y-90551000D01*
X160582428Y-90696143D01*
X160582428Y-90841286D01*
X159856714Y-90986429D01*
X161235571Y-91494429D02*
X161235571Y-90478429D01*
X161235571Y-90768714D02*
X161308143Y-90623571D01*
X161380714Y-90551000D01*
X161525857Y-90478429D01*
X161671000Y-90478429D01*
D11*
X166624000Y-72760840D02*
G75*
G03X166624000Y-72760840I-16764000J0D01*
G01*
X127000000Y-107950000D02*
X173990000Y-107950000D01*
X127000000Y-49530000D02*
X173990000Y-49530000D01*
X173990000Y-49530000D02*
X173990000Y-107950000D01*
X127000000Y-49530000D02*
X127000000Y-107950000D01*
X161925000Y-97155000D02*
X137795000Y-97155000D01*
X137795000Y-106045000D02*
X161925000Y-106045000D01*
X137795000Y-97155000D02*
X137795000Y-106045000D01*
X161925000Y-106045000D02*
X161925000Y-97155000D01*
X153815438Y-53052650D02*
X145687438Y-53052650D01*
X145687438Y-55592650D02*
X153815438Y-55592650D01*
X153815438Y-55592650D02*
X153815438Y-53052650D01*
X145687438Y-53052650D02*
X145687438Y-55592650D01*
X153944676Y-89923620D02*
X145816676Y-89923620D01*
X145816676Y-92463620D02*
X153944676Y-92463620D01*
X153944676Y-92463620D02*
X153944676Y-89923620D01*
X145816676Y-89923620D02*
X145816676Y-92463620D01*
D14*
X164628286Y-60624357D02*
X164846000Y-60696929D01*
X165208857Y-60696929D01*
X165354000Y-60624357D01*
X165426571Y-60551786D01*
X165499143Y-60406643D01*
X165499143Y-60261500D01*
X165426571Y-60116357D01*
X165354000Y-60043786D01*
X165208857Y-59971214D01*
X164918571Y-59898643D01*
X164773429Y-59826071D01*
X164700857Y-59753500D01*
X164628286Y-59608357D01*
X164628286Y-59463214D01*
X164700857Y-59318071D01*
X164773429Y-59245500D01*
X164918571Y-59172929D01*
X165281429Y-59172929D01*
X165499143Y-59245500D01*
X166152286Y-59680929D02*
X166152286Y-61204929D01*
X166152286Y-59753500D02*
X166297429Y-59680929D01*
X166587715Y-59680929D01*
X166732858Y-59753500D01*
X166805429Y-59826071D01*
X166878000Y-59971214D01*
X166878000Y-60406643D01*
X166805429Y-60551786D01*
X166732858Y-60624357D01*
X166587715Y-60696929D01*
X166297429Y-60696929D01*
X166152286Y-60624357D01*
X168184286Y-60696929D02*
X168184286Y-59898643D01*
X168111715Y-59753500D01*
X167966572Y-59680929D01*
X167676286Y-59680929D01*
X167531143Y-59753500D01*
X168184286Y-60624357D02*
X168039143Y-60696929D01*
X167676286Y-60696929D01*
X167531143Y-60624357D01*
X167458572Y-60479214D01*
X167458572Y-60334071D01*
X167531143Y-60188929D01*
X167676286Y-60116357D01*
X168039143Y-60116357D01*
X168184286Y-60043786D01*
X168910000Y-60696929D02*
X168910000Y-59680929D01*
X168910000Y-59971214D02*
X168982572Y-59826071D01*
X169055143Y-59753500D01*
X169200286Y-59680929D01*
X169345429Y-59680929D01*
X170434001Y-60624357D02*
X170288858Y-60696929D01*
X169998572Y-60696929D01*
X169853429Y-60624357D01*
X169780858Y-60479214D01*
X169780858Y-59898643D01*
X169853429Y-59753500D01*
X169998572Y-59680929D01*
X170288858Y-59680929D01*
X170434001Y-59753500D01*
X170506572Y-59898643D01*
X170506572Y-60043786D01*
X169780858Y-60188929D01*
X172828858Y-59898643D02*
X173046572Y-59971214D01*
X173119144Y-60043786D01*
X173191715Y-60188929D01*
X173191715Y-60406643D01*
X173119144Y-60551786D01*
X173046572Y-60624357D01*
X172901430Y-60696929D01*
X172320858Y-60696929D01*
X172320858Y-59172929D01*
X172828858Y-59172929D01*
X172974001Y-59245500D01*
X173046572Y-59318071D01*
X173119144Y-59463214D01*
X173119144Y-59608357D01*
X173046572Y-59753500D01*
X172974001Y-59826071D01*
X172828858Y-59898643D01*
X172320858Y-59898643D01*
X128161143Y-102761143D02*
X128161143Y-103269143D01*
X128959429Y-103269143D02*
X127435429Y-103269143D01*
X127435429Y-102543429D01*
X128959429Y-101309714D02*
X128161143Y-101309714D01*
X128016000Y-101382285D01*
X127943429Y-101527428D01*
X127943429Y-101817714D01*
X128016000Y-101962857D01*
X128886857Y-101309714D02*
X128959429Y-101454857D01*
X128959429Y-101817714D01*
X128886857Y-101962857D01*
X128741714Y-102035428D01*
X128596571Y-102035428D01*
X128451429Y-101962857D01*
X128378857Y-101817714D01*
X128378857Y-101454857D01*
X128306286Y-101309714D01*
X127943429Y-100584000D02*
X128959429Y-100584000D01*
X128088571Y-100584000D02*
X128016000Y-100511428D01*
X127943429Y-100366286D01*
X127943429Y-100148571D01*
X128016000Y-100003428D01*
X128161143Y-99930857D01*
X128959429Y-99930857D01*
X129177143Y-95231857D02*
X129394857Y-95304429D01*
X129757714Y-95304429D01*
X129902857Y-95231857D01*
X129975428Y-95159286D01*
X130048000Y-95014143D01*
X130048000Y-94869000D01*
X129975428Y-94723857D01*
X129902857Y-94651286D01*
X129757714Y-94578714D01*
X129467428Y-94506143D01*
X129322286Y-94433571D01*
X129249714Y-94361000D01*
X129177143Y-94215857D01*
X129177143Y-94070714D01*
X129249714Y-93925571D01*
X129322286Y-93853000D01*
X129467428Y-93780429D01*
X129830286Y-93780429D01*
X130048000Y-93853000D01*
X130701143Y-94288429D02*
X130701143Y-95812429D01*
X130701143Y-94361000D02*
X130846286Y-94288429D01*
X131136572Y-94288429D01*
X131281715Y-94361000D01*
X131354286Y-94433571D01*
X131426857Y-94578714D01*
X131426857Y-95014143D01*
X131354286Y-95159286D01*
X131281715Y-95231857D01*
X131136572Y-95304429D01*
X130846286Y-95304429D01*
X130701143Y-95231857D01*
X132733143Y-95304429D02*
X132733143Y-94506143D01*
X132660572Y-94361000D01*
X132515429Y-94288429D01*
X132225143Y-94288429D01*
X132080000Y-94361000D01*
X132733143Y-95231857D02*
X132588000Y-95304429D01*
X132225143Y-95304429D01*
X132080000Y-95231857D01*
X132007429Y-95086714D01*
X132007429Y-94941571D01*
X132080000Y-94796429D01*
X132225143Y-94723857D01*
X132588000Y-94723857D01*
X132733143Y-94651286D01*
X133458857Y-95304429D02*
X133458857Y-94288429D01*
X133458857Y-94578714D02*
X133531429Y-94433571D01*
X133604000Y-94361000D01*
X133749143Y-94288429D01*
X133894286Y-94288429D01*
X134982858Y-95231857D02*
X134837715Y-95304429D01*
X134547429Y-95304429D01*
X134402286Y-95231857D01*
X134329715Y-95086714D01*
X134329715Y-94506143D01*
X134402286Y-94361000D01*
X134547429Y-94288429D01*
X134837715Y-94288429D01*
X134982858Y-94361000D01*
X135055429Y-94506143D01*
X135055429Y-94651286D01*
X134329715Y-94796429D01*
X136797144Y-94869000D02*
X137522858Y-94869000D01*
X136652001Y-95304429D02*
X137160001Y-93780429D01*
X137668001Y-95304429D01*
X128959429Y-63881000D02*
X127435429Y-63881000D01*
X128959429Y-62284429D02*
X128233714Y-62792429D01*
X128959429Y-63155286D02*
X127435429Y-63155286D01*
X127435429Y-62574714D01*
X127508000Y-62429572D01*
X127580571Y-62357000D01*
X127725714Y-62284429D01*
X127943429Y-62284429D01*
X128088571Y-62357000D01*
X128161143Y-62429572D01*
X128233714Y-62574714D01*
X128233714Y-63155286D01*
X128959429Y-60470143D02*
X127435429Y-60470143D01*
X127435429Y-60107286D01*
X127508000Y-59889571D01*
X127653143Y-59744429D01*
X127798286Y-59671857D01*
X128088571Y-59599286D01*
X128306286Y-59599286D01*
X128596571Y-59671857D01*
X128741714Y-59744429D01*
X128886857Y-59889571D01*
X128959429Y-60107286D01*
X128959429Y-60470143D01*
X128886857Y-58365571D02*
X128959429Y-58510714D01*
X128959429Y-58801000D01*
X128886857Y-58946143D01*
X128741714Y-59018714D01*
X128161143Y-59018714D01*
X128016000Y-58946143D01*
X127943429Y-58801000D01*
X127943429Y-58510714D01*
X128016000Y-58365571D01*
X128161143Y-58293000D01*
X128306286Y-58293000D01*
X128451429Y-59018714D01*
X127943429Y-57857571D02*
X127943429Y-57277000D01*
X127435429Y-57639857D02*
X128741714Y-57639857D01*
X128886857Y-57567285D01*
X128959429Y-57422143D01*
X128959429Y-57277000D01*
X128886857Y-56188428D02*
X128959429Y-56333571D01*
X128959429Y-56623857D01*
X128886857Y-56769000D01*
X128741714Y-56841571D01*
X128161143Y-56841571D01*
X128016000Y-56769000D01*
X127943429Y-56623857D01*
X127943429Y-56333571D01*
X128016000Y-56188428D01*
X128161143Y-56115857D01*
X128306286Y-56115857D01*
X128451429Y-56841571D01*
X128886857Y-54809571D02*
X128959429Y-54954714D01*
X128959429Y-55245000D01*
X128886857Y-55390142D01*
X128814286Y-55462714D01*
X128669143Y-55535285D01*
X128233714Y-55535285D01*
X128088571Y-55462714D01*
X128016000Y-55390142D01*
X127943429Y-55245000D01*
X127943429Y-54954714D01*
X128016000Y-54809571D01*
X127943429Y-54374142D02*
X127943429Y-53793571D01*
X127435429Y-54156428D02*
X128741714Y-54156428D01*
X128886857Y-54083856D01*
X128959429Y-53938714D01*
X128959429Y-53793571D01*
X128959429Y-53067857D02*
X128886857Y-53212999D01*
X128814286Y-53285571D01*
X128669143Y-53358142D01*
X128233714Y-53358142D01*
X128088571Y-53285571D01*
X128016000Y-53212999D01*
X127943429Y-53067857D01*
X127943429Y-52850142D01*
X128016000Y-52704999D01*
X128088571Y-52632428D01*
X128233714Y-52559857D01*
X128669143Y-52559857D01*
X128814286Y-52632428D01*
X128886857Y-52704999D01*
X128959429Y-52850142D01*
X128959429Y-53067857D01*
X128959429Y-51906714D02*
X127943429Y-51906714D01*
X128233714Y-51906714D02*
X128088571Y-51834142D01*
X128016000Y-51761571D01*
X127943429Y-51616428D01*
X127943429Y-51471285D01*
X168964429Y-73260857D02*
X168964429Y-73986571D01*
X167440429Y-73986571D01*
X168891857Y-72172285D02*
X168964429Y-72317428D01*
X168964429Y-72607714D01*
X168891857Y-72752857D01*
X168746714Y-72825428D01*
X168166143Y-72825428D01*
X168021000Y-72752857D01*
X167948429Y-72607714D01*
X167948429Y-72317428D01*
X168021000Y-72172285D01*
X168166143Y-72099714D01*
X168311286Y-72099714D01*
X168456429Y-72825428D01*
X168964429Y-70793428D02*
X167440429Y-70793428D01*
X168891857Y-70793428D02*
X168964429Y-70938571D01*
X168964429Y-71228857D01*
X168891857Y-71373999D01*
X168819286Y-71446571D01*
X168674143Y-71519142D01*
X168238714Y-71519142D01*
X168093571Y-71446571D01*
X168021000Y-71373999D01*
X167948429Y-71228857D01*
X167948429Y-70938571D01*
X168021000Y-70793428D01*
X127837928Y-78968600D02*
X127837928Y-78097743D01*
X129361928Y-78533172D02*
X127837928Y-78533172D01*
X129361928Y-77589743D02*
X127837928Y-77589743D01*
X129361928Y-76936600D02*
X128563642Y-76936600D01*
X128418499Y-77009171D01*
X128345928Y-77154314D01*
X128345928Y-77372029D01*
X128418499Y-77517171D01*
X128491070Y-77589743D01*
X129289356Y-75630314D02*
X129361928Y-75775457D01*
X129361928Y-76065743D01*
X129289356Y-76210886D01*
X129144213Y-76283457D01*
X128563642Y-76283457D01*
X128418499Y-76210886D01*
X128345928Y-76065743D01*
X128345928Y-75775457D01*
X128418499Y-75630314D01*
X128563642Y-75557743D01*
X128708785Y-75557743D01*
X128853928Y-76283457D01*
X129361928Y-74904600D02*
X128345928Y-74904600D01*
X128636213Y-74904600D02*
X128491070Y-74832028D01*
X128418499Y-74759457D01*
X128345928Y-74614314D01*
X128345928Y-74469171D01*
X129361928Y-73961171D02*
X128345928Y-73961171D01*
X128491070Y-73961171D02*
X128418499Y-73888599D01*
X128345928Y-73743457D01*
X128345928Y-73525742D01*
X128418499Y-73380599D01*
X128563642Y-73308028D01*
X129361928Y-73308028D01*
X128563642Y-73308028D02*
X128418499Y-73235457D01*
X128345928Y-73090314D01*
X128345928Y-72872599D01*
X128418499Y-72727457D01*
X128563642Y-72654885D01*
X129361928Y-72654885D01*
X129361928Y-71929171D02*
X128345928Y-71929171D01*
X127837928Y-71929171D02*
X127910499Y-72001742D01*
X127983070Y-71929171D01*
X127910499Y-71856599D01*
X127837928Y-71929171D01*
X127983070Y-71929171D01*
X129289356Y-71276028D02*
X129361928Y-71130885D01*
X129361928Y-70840600D01*
X129289356Y-70695457D01*
X129144213Y-70622885D01*
X129071642Y-70622885D01*
X128926499Y-70695457D01*
X128853928Y-70840600D01*
X128853928Y-71058314D01*
X128781356Y-71203457D01*
X128636213Y-71276028D01*
X128563642Y-71276028D01*
X128418499Y-71203457D01*
X128345928Y-71058314D01*
X128345928Y-70840600D01*
X128418499Y-70695457D01*
X128345928Y-70187457D02*
X128345928Y-69606886D01*
X127837928Y-69969743D02*
X129144213Y-69969743D01*
X129289356Y-69897171D01*
X129361928Y-69752029D01*
X129361928Y-69606886D01*
X129361928Y-68881172D02*
X129289356Y-69026314D01*
X129216785Y-69098886D01*
X129071642Y-69171457D01*
X128636213Y-69171457D01*
X128491070Y-69098886D01*
X128418499Y-69026314D01*
X128345928Y-68881172D01*
X128345928Y-68663457D01*
X128418499Y-68518314D01*
X128491070Y-68445743D01*
X128636213Y-68373172D01*
X129071642Y-68373172D01*
X129216785Y-68445743D01*
X129289356Y-68518314D01*
X129361928Y-68663457D01*
X129361928Y-68881172D01*
X129361928Y-67720029D02*
X128345928Y-67720029D01*
X128636213Y-67720029D02*
X128491070Y-67647457D01*
X128418499Y-67574886D01*
X128345928Y-67429743D01*
X128345928Y-67284600D01*
M02*
