G04 #@! TF.FileFunction,Drawing*
%FSLAX46Y46*%
G04 Gerber Fmt 4.6, Leading zero omitted, Abs format (unit mm)*
G04 Created by KiCad (PCBNEW 4.0.3+e1-6302~38~ubuntu14.04.1-stable) date Fri Aug 19 15:21:09 2016*
%MOMM*%
%LPD*%
G01*
G04 APERTURE LIST*
%ADD10C,0.100000*%
%ADD11C,0.300000*%
%ADD12C,0.203200*%
%ADD13C,0.150000*%
G04 APERTURE END LIST*
D10*
D11*
X143414524Y-81915000D02*
X143475000Y-81975476D01*
X143535476Y-82096428D01*
X143535476Y-82398809D01*
X143475000Y-82519762D01*
X143414524Y-82580238D01*
X143293571Y-82640714D01*
X143172619Y-82640714D01*
X142991190Y-82580238D01*
X142265476Y-81854524D01*
X142265476Y-82640714D01*
X142386429Y-83185000D02*
X142325952Y-83245476D01*
X142265476Y-83185000D01*
X142325952Y-83124524D01*
X142386429Y-83185000D01*
X142265476Y-83185000D01*
X143535476Y-84334048D02*
X143535476Y-84092143D01*
X143475000Y-83971191D01*
X143414524Y-83910714D01*
X143233095Y-83789762D01*
X142991190Y-83729286D01*
X142507381Y-83729286D01*
X142386429Y-83789762D01*
X142325952Y-83850238D01*
X142265476Y-83971191D01*
X142265476Y-84213095D01*
X142325952Y-84334048D01*
X142386429Y-84394524D01*
X142507381Y-84455000D01*
X142809762Y-84455000D01*
X142930714Y-84394524D01*
X142991190Y-84334048D01*
X143051667Y-84213095D01*
X143051667Y-83971191D01*
X142991190Y-83850238D01*
X142930714Y-83789762D01*
X142809762Y-83729286D01*
X143535476Y-85241191D02*
X143535476Y-85362143D01*
X143475000Y-85483095D01*
X143414524Y-85543572D01*
X143293571Y-85604048D01*
X143051667Y-85664524D01*
X142749286Y-85664524D01*
X142507381Y-85604048D01*
X142386429Y-85543572D01*
X142325952Y-85483095D01*
X142265476Y-85362143D01*
X142265476Y-85241191D01*
X142325952Y-85120238D01*
X142386429Y-85059762D01*
X142507381Y-84999286D01*
X142749286Y-84938810D01*
X143051667Y-84938810D01*
X143293571Y-84999286D01*
X143414524Y-85059762D01*
X143475000Y-85120238D01*
X143535476Y-85241191D01*
X143535476Y-86450715D02*
X143535476Y-86571667D01*
X143475000Y-86692619D01*
X143414524Y-86753096D01*
X143293571Y-86813572D01*
X143051667Y-86874048D01*
X142749286Y-86874048D01*
X142507381Y-86813572D01*
X142386429Y-86753096D01*
X142325952Y-86692619D01*
X142265476Y-86571667D01*
X142265476Y-86450715D01*
X142325952Y-86329762D01*
X142386429Y-86269286D01*
X142507381Y-86208810D01*
X142749286Y-86148334D01*
X143051667Y-86148334D01*
X143293571Y-86208810D01*
X143414524Y-86269286D01*
X143475000Y-86329762D01*
X143535476Y-86450715D01*
X143535476Y-87660239D02*
X143535476Y-87781191D01*
X143475000Y-87902143D01*
X143414524Y-87962620D01*
X143293571Y-88023096D01*
X143051667Y-88083572D01*
X142749286Y-88083572D01*
X142507381Y-88023096D01*
X142386429Y-87962620D01*
X142325952Y-87902143D01*
X142265476Y-87781191D01*
X142265476Y-87660239D01*
X142325952Y-87539286D01*
X142386429Y-87478810D01*
X142507381Y-87418334D01*
X142749286Y-87357858D01*
X143051667Y-87357858D01*
X143293571Y-87418334D01*
X143414524Y-87478810D01*
X143475000Y-87539286D01*
X143535476Y-87660239D01*
X142265476Y-89595477D02*
X143112143Y-89595477D01*
X143535476Y-89595477D02*
X143475000Y-89535001D01*
X143414524Y-89595477D01*
X143475000Y-89655953D01*
X143535476Y-89595477D01*
X143414524Y-89595477D01*
X143112143Y-90200239D02*
X142265476Y-90200239D01*
X142991190Y-90200239D02*
X143051667Y-90260715D01*
X143112143Y-90381668D01*
X143112143Y-90563096D01*
X143051667Y-90684048D01*
X142930714Y-90744525D01*
X142265476Y-90744525D01*
X141605000Y-53340000D02*
X141605000Y-119380000D01*
X139700000Y-53340000D02*
X144075000Y-53340000D01*
X139700000Y-119380000D02*
X144075000Y-119380000D01*
X141605000Y-119380000D02*
X141018579Y-118253496D01*
X141605000Y-119380000D02*
X142191421Y-118253496D01*
X141605000Y-53340000D02*
X141018579Y-54466504D01*
X141605000Y-53340000D02*
X142191421Y-54466504D01*
X119470714Y-50774524D02*
X118745000Y-50774524D01*
X119107857Y-50774524D02*
X119107857Y-49504524D01*
X118986905Y-49685952D01*
X118865952Y-49806905D01*
X118745000Y-49867381D01*
X120015000Y-50653571D02*
X120075476Y-50714048D01*
X120015000Y-50774524D01*
X119954524Y-50714048D01*
X120015000Y-50653571D01*
X120015000Y-50774524D01*
X120498810Y-49504524D02*
X121285000Y-49504524D01*
X120861667Y-49988333D01*
X121043095Y-49988333D01*
X121164048Y-50048810D01*
X121224524Y-50109286D01*
X121285000Y-50230238D01*
X121285000Y-50532619D01*
X121224524Y-50653571D01*
X121164048Y-50714048D01*
X121043095Y-50774524D01*
X120680238Y-50774524D01*
X120559286Y-50714048D01*
X120498810Y-50653571D01*
X122071191Y-49504524D02*
X122192143Y-49504524D01*
X122313095Y-49565000D01*
X122373572Y-49625476D01*
X122434048Y-49746429D01*
X122494524Y-49988333D01*
X122494524Y-50290714D01*
X122434048Y-50532619D01*
X122373572Y-50653571D01*
X122313095Y-50714048D01*
X122192143Y-50774524D01*
X122071191Y-50774524D01*
X121950238Y-50714048D01*
X121889762Y-50653571D01*
X121829286Y-50532619D01*
X121768810Y-50290714D01*
X121768810Y-49988333D01*
X121829286Y-49746429D01*
X121889762Y-49625476D01*
X121950238Y-49565000D01*
X122071191Y-49504524D01*
X123280715Y-49504524D02*
X123401667Y-49504524D01*
X123522619Y-49565000D01*
X123583096Y-49625476D01*
X123643572Y-49746429D01*
X123704048Y-49988333D01*
X123704048Y-50290714D01*
X123643572Y-50532619D01*
X123583096Y-50653571D01*
X123522619Y-50714048D01*
X123401667Y-50774524D01*
X123280715Y-50774524D01*
X123159762Y-50714048D01*
X123099286Y-50653571D01*
X123038810Y-50532619D01*
X122978334Y-50290714D01*
X122978334Y-49988333D01*
X123038810Y-49746429D01*
X123099286Y-49625476D01*
X123159762Y-49565000D01*
X123280715Y-49504524D01*
X124490239Y-49504524D02*
X124611191Y-49504524D01*
X124732143Y-49565000D01*
X124792620Y-49625476D01*
X124853096Y-49746429D01*
X124913572Y-49988333D01*
X124913572Y-50290714D01*
X124853096Y-50532619D01*
X124792620Y-50653571D01*
X124732143Y-50714048D01*
X124611191Y-50774524D01*
X124490239Y-50774524D01*
X124369286Y-50714048D01*
X124308810Y-50653571D01*
X124248334Y-50532619D01*
X124187858Y-50290714D01*
X124187858Y-49988333D01*
X124248334Y-49746429D01*
X124308810Y-49625476D01*
X124369286Y-49565000D01*
X124490239Y-49504524D01*
X126425477Y-50774524D02*
X126425477Y-49927857D01*
X126425477Y-49504524D02*
X126365001Y-49565000D01*
X126425477Y-49625476D01*
X126485953Y-49565000D01*
X126425477Y-49504524D01*
X126425477Y-49625476D01*
X127030239Y-49927857D02*
X127030239Y-50774524D01*
X127030239Y-50048810D02*
X127090715Y-49988333D01*
X127211668Y-49927857D01*
X127393096Y-49927857D01*
X127514048Y-49988333D01*
X127574525Y-50109286D01*
X127574525Y-50774524D01*
X106680000Y-51435000D02*
X139700000Y-51435000D01*
X106680000Y-53340000D02*
X106680000Y-48965000D01*
X139700000Y-53340000D02*
X139700000Y-48965000D01*
X139700000Y-51435000D02*
X138573496Y-52021421D01*
X139700000Y-51435000D02*
X138573496Y-50848579D01*
X106680000Y-51435000D02*
X107806504Y-52021421D01*
X106680000Y-51435000D02*
X107806504Y-50848579D01*
D12*
X157824714Y-57224386D02*
X158006143Y-57284862D01*
X158066619Y-57345338D01*
X158127095Y-57466290D01*
X158127095Y-57647719D01*
X158066619Y-57768671D01*
X158006143Y-57829148D01*
X157885190Y-57889624D01*
X157401381Y-57889624D01*
X157401381Y-56619624D01*
X157824714Y-56619624D01*
X157945667Y-56680100D01*
X158006143Y-56740576D01*
X158066619Y-56861529D01*
X158066619Y-56982481D01*
X158006143Y-57103433D01*
X157945667Y-57163910D01*
X157824714Y-57224386D01*
X157401381Y-57224386D01*
X158913286Y-56619624D02*
X159155190Y-56619624D01*
X159276143Y-56680100D01*
X159397095Y-56801052D01*
X159457571Y-57042957D01*
X159457571Y-57466290D01*
X159397095Y-57708195D01*
X159276143Y-57829148D01*
X159155190Y-57889624D01*
X158913286Y-57889624D01*
X158792333Y-57829148D01*
X158671381Y-57708195D01*
X158610905Y-57466290D01*
X158610905Y-57042957D01*
X158671381Y-56801052D01*
X158792333Y-56680100D01*
X158913286Y-56619624D01*
X159941381Y-57829148D02*
X160122809Y-57889624D01*
X160425190Y-57889624D01*
X160546143Y-57829148D01*
X160606619Y-57768671D01*
X160667095Y-57647719D01*
X160667095Y-57526767D01*
X160606619Y-57405814D01*
X160546143Y-57345338D01*
X160425190Y-57284862D01*
X160183286Y-57224386D01*
X160062333Y-57163910D01*
X160001857Y-57103433D01*
X159941381Y-56982481D01*
X159941381Y-56861529D01*
X160001857Y-56740576D01*
X160062333Y-56680100D01*
X160183286Y-56619624D01*
X160485666Y-56619624D01*
X160667095Y-56680100D01*
X161029952Y-56619624D02*
X161755667Y-56619624D01*
X161392810Y-57889624D02*
X161392810Y-56619624D01*
X162420905Y-56619624D02*
X162662809Y-56619624D01*
X162783762Y-56680100D01*
X162904714Y-56801052D01*
X162965190Y-57042957D01*
X162965190Y-57466290D01*
X162904714Y-57708195D01*
X162783762Y-57829148D01*
X162662809Y-57889624D01*
X162420905Y-57889624D01*
X162299952Y-57829148D01*
X162179000Y-57708195D01*
X162118524Y-57466290D01*
X162118524Y-57042957D01*
X162179000Y-56801052D01*
X162299952Y-56680100D01*
X162420905Y-56619624D01*
X163509476Y-57889624D02*
X163509476Y-56619624D01*
X164235190Y-57889624D01*
X164235190Y-56619624D01*
X165807571Y-56619624D02*
X165807571Y-57647719D01*
X165868047Y-57768671D01*
X165928523Y-57829148D01*
X166049476Y-57889624D01*
X166291380Y-57889624D01*
X166412333Y-57829148D01*
X166472809Y-57768671D01*
X166533285Y-57647719D01*
X166533285Y-56619624D01*
X167138047Y-57889624D02*
X167138047Y-56619624D01*
X167863761Y-57889624D01*
X167863761Y-56619624D01*
X168468523Y-57889624D02*
X168468523Y-56619624D01*
X168891856Y-56619624D02*
X169315190Y-57889624D01*
X169738523Y-56619624D01*
X170161856Y-57224386D02*
X170585189Y-57224386D01*
X170766618Y-57889624D02*
X170161856Y-57889624D01*
X170161856Y-56619624D01*
X170766618Y-56619624D01*
X172036618Y-57889624D02*
X171613285Y-57284862D01*
X171310904Y-57889624D02*
X171310904Y-56619624D01*
X171794713Y-56619624D01*
X171915666Y-56680100D01*
X171976142Y-56740576D01*
X172036618Y-56861529D01*
X172036618Y-57042957D01*
X171976142Y-57163910D01*
X171915666Y-57224386D01*
X171794713Y-57284862D01*
X171310904Y-57284862D01*
X172520428Y-57829148D02*
X172701856Y-57889624D01*
X173004237Y-57889624D01*
X173125190Y-57829148D01*
X173185666Y-57768671D01*
X173246142Y-57647719D01*
X173246142Y-57526767D01*
X173185666Y-57405814D01*
X173125190Y-57345338D01*
X173004237Y-57284862D01*
X172762333Y-57224386D01*
X172641380Y-57163910D01*
X172580904Y-57103433D01*
X172520428Y-56982481D01*
X172520428Y-56861529D01*
X172580904Y-56740576D01*
X172641380Y-56680100D01*
X172762333Y-56619624D01*
X173064713Y-56619624D01*
X173246142Y-56680100D01*
X173790428Y-57889624D02*
X173790428Y-56619624D01*
X174213761Y-56619624D02*
X174939476Y-56619624D01*
X174576619Y-57889624D02*
X174576619Y-56619624D01*
X175604714Y-57284862D02*
X175604714Y-57889624D01*
X175181380Y-56619624D02*
X175604714Y-57284862D01*
X176028047Y-56619624D01*
X177418999Y-57224386D02*
X177842332Y-57224386D01*
X178023761Y-57889624D02*
X177418999Y-57889624D01*
X177418999Y-56619624D01*
X178023761Y-56619624D01*
X178568047Y-57889624D02*
X178568047Y-56619624D01*
X178870428Y-56619624D01*
X179051856Y-56680100D01*
X179172809Y-56801052D01*
X179233285Y-56922005D01*
X179293761Y-57163910D01*
X179293761Y-57345338D01*
X179233285Y-57587243D01*
X179172809Y-57708195D01*
X179051856Y-57829148D01*
X178870428Y-57889624D01*
X178568047Y-57889624D01*
X180261380Y-57224386D02*
X179838047Y-57224386D01*
X179838047Y-57889624D02*
X179838047Y-56619624D01*
X180442809Y-56619624D01*
X157885190Y-59937348D02*
X157764238Y-59997824D01*
X157522333Y-59997824D01*
X157401381Y-59937348D01*
X157340905Y-59816395D01*
X157340905Y-59332586D01*
X157401381Y-59211633D01*
X157522333Y-59151157D01*
X157764238Y-59151157D01*
X157885190Y-59211633D01*
X157945667Y-59332586D01*
X157945667Y-59453538D01*
X157340905Y-59574490D01*
X158308523Y-58727824D02*
X158731857Y-59997824D01*
X159155190Y-58727824D01*
X159820428Y-58727824D02*
X160062332Y-58727824D01*
X160183285Y-58788300D01*
X160304237Y-58909252D01*
X160364713Y-59151157D01*
X160364713Y-59574490D01*
X160304237Y-59816395D01*
X160183285Y-59937348D01*
X160062332Y-59997824D01*
X159820428Y-59997824D01*
X159699475Y-59937348D01*
X159578523Y-59816395D01*
X159518047Y-59574490D01*
X159518047Y-59151157D01*
X159578523Y-58909252D01*
X159699475Y-58788300D01*
X159820428Y-58727824D01*
X161513761Y-59997824D02*
X160908999Y-59997824D01*
X160908999Y-58727824D01*
X161755665Y-58727824D02*
X162178999Y-59997824D01*
X162602332Y-58727824D01*
X163025665Y-59332586D02*
X163448998Y-59332586D01*
X163630427Y-59997824D02*
X163025665Y-59997824D01*
X163025665Y-58727824D01*
X163630427Y-58727824D01*
X164900427Y-59997824D02*
X164477094Y-59393062D01*
X164174713Y-59997824D02*
X164174713Y-58727824D01*
X164658522Y-58727824D01*
X164779475Y-58788300D01*
X164839951Y-58848776D01*
X164900427Y-58969729D01*
X164900427Y-59151157D01*
X164839951Y-59272110D01*
X164779475Y-59332586D01*
X164658522Y-59393062D01*
X164174713Y-59393062D01*
X166351856Y-59937348D02*
X166533284Y-59997824D01*
X166835665Y-59997824D01*
X166956618Y-59937348D01*
X167017094Y-59876871D01*
X167077570Y-59755919D01*
X167077570Y-59634967D01*
X167017094Y-59514014D01*
X166956618Y-59453538D01*
X166835665Y-59393062D01*
X166593761Y-59332586D01*
X166472808Y-59272110D01*
X166412332Y-59211633D01*
X166351856Y-59090681D01*
X166351856Y-58969729D01*
X166412332Y-58848776D01*
X166472808Y-58788300D01*
X166593761Y-58727824D01*
X166896141Y-58727824D01*
X167077570Y-58788300D01*
X167500904Y-59151157D02*
X167803285Y-59997824D01*
X168105665Y-59151157D02*
X167803285Y-59997824D01*
X167682332Y-60300205D01*
X167621856Y-60360681D01*
X167500904Y-60421157D01*
X168528999Y-59937348D02*
X168649951Y-59997824D01*
X168891856Y-59997824D01*
X169012808Y-59937348D01*
X169073284Y-59816395D01*
X169073284Y-59755919D01*
X169012808Y-59634967D01*
X168891856Y-59574490D01*
X168710427Y-59574490D01*
X168589475Y-59514014D01*
X168528999Y-59393062D01*
X168528999Y-59332586D01*
X168589475Y-59211633D01*
X168710427Y-59151157D01*
X168891856Y-59151157D01*
X169012808Y-59211633D01*
X169436141Y-59151157D02*
X169919951Y-59151157D01*
X169617570Y-58727824D02*
X169617570Y-59816395D01*
X169678046Y-59937348D01*
X169798999Y-59997824D01*
X169919951Y-59997824D01*
X170827093Y-59937348D02*
X170706141Y-59997824D01*
X170464236Y-59997824D01*
X170343284Y-59937348D01*
X170282808Y-59816395D01*
X170282808Y-59332586D01*
X170343284Y-59211633D01*
X170464236Y-59151157D01*
X170706141Y-59151157D01*
X170827093Y-59211633D01*
X170887570Y-59332586D01*
X170887570Y-59453538D01*
X170282808Y-59574490D01*
X171431855Y-59997824D02*
X171431855Y-59151157D01*
X171431855Y-59272110D02*
X171492331Y-59211633D01*
X171613284Y-59151157D01*
X171794712Y-59151157D01*
X171915664Y-59211633D01*
X171976141Y-59332586D01*
X171976141Y-59997824D01*
X171976141Y-59332586D02*
X172036617Y-59211633D01*
X172157569Y-59151157D01*
X172338998Y-59151157D01*
X172459950Y-59211633D01*
X172520426Y-59332586D01*
X172520426Y-59997824D01*
X157401381Y-63548986D02*
X157824714Y-63548986D01*
X158006143Y-64214224D02*
X157401381Y-64214224D01*
X157401381Y-62944224D01*
X158006143Y-62944224D01*
X158369000Y-62944224D02*
X158792334Y-64214224D01*
X159215667Y-62944224D01*
X159639000Y-63730414D02*
X160606619Y-63730414D01*
X161150905Y-63851367D02*
X161755667Y-63851367D01*
X161029952Y-64214224D02*
X161453286Y-62944224D01*
X161876619Y-64214224D01*
X162299952Y-64214224D02*
X162299952Y-62944224D01*
X162602333Y-62944224D01*
X162783761Y-63004700D01*
X162904714Y-63125652D01*
X162965190Y-63246605D01*
X163025666Y-63488510D01*
X163025666Y-63669938D01*
X162965190Y-63911843D01*
X162904714Y-64032795D01*
X162783761Y-64153748D01*
X162602333Y-64214224D01*
X162299952Y-64214224D01*
X164295666Y-64093271D02*
X164235190Y-64153748D01*
X164053761Y-64214224D01*
X163932809Y-64214224D01*
X163751381Y-64153748D01*
X163630428Y-64032795D01*
X163569952Y-63911843D01*
X163509476Y-63669938D01*
X163509476Y-63488510D01*
X163569952Y-63246605D01*
X163630428Y-63125652D01*
X163751381Y-63004700D01*
X163932809Y-62944224D01*
X164053761Y-62944224D01*
X164235190Y-63004700D01*
X164295666Y-63065176D01*
X166533285Y-64214224D02*
X166109952Y-63609462D01*
X165807571Y-64214224D02*
X165807571Y-62944224D01*
X166291380Y-62944224D01*
X166412333Y-63004700D01*
X166472809Y-63065176D01*
X166533285Y-63186129D01*
X166533285Y-63367557D01*
X166472809Y-63488510D01*
X166412333Y-63548986D01*
X166291380Y-63609462D01*
X165807571Y-63609462D01*
X167561380Y-64153748D02*
X167440428Y-64214224D01*
X167198523Y-64214224D01*
X167077571Y-64153748D01*
X167017095Y-64032795D01*
X167017095Y-63548986D01*
X167077571Y-63428033D01*
X167198523Y-63367557D01*
X167440428Y-63367557D01*
X167561380Y-63428033D01*
X167621857Y-63548986D01*
X167621857Y-63669938D01*
X167017095Y-63790890D01*
X168045190Y-63367557D02*
X168347571Y-64214224D01*
X168649951Y-63367557D01*
X170524713Y-63548986D02*
X170706142Y-63609462D01*
X170766618Y-63669938D01*
X170827094Y-63790890D01*
X170827094Y-63972319D01*
X170766618Y-64093271D01*
X170706142Y-64153748D01*
X170585189Y-64214224D01*
X170101380Y-64214224D01*
X170101380Y-62944224D01*
X170524713Y-62944224D01*
X170645666Y-63004700D01*
X170706142Y-63065176D01*
X170766618Y-63186129D01*
X170766618Y-63307081D01*
X170706142Y-63428033D01*
X170645666Y-63488510D01*
X170524713Y-63548986D01*
X170101380Y-63548986D01*
X157945667Y-67583957D02*
X157945667Y-68430624D01*
X157643286Y-67100148D02*
X157340905Y-68007290D01*
X158127095Y-68007290D01*
X159759953Y-68430624D02*
X159639000Y-68370148D01*
X159578524Y-68249195D01*
X159578524Y-67160624D01*
X160788048Y-68430624D02*
X160788048Y-67765386D01*
X160727571Y-67644433D01*
X160606619Y-67583957D01*
X160364714Y-67583957D01*
X160243762Y-67644433D01*
X160788048Y-68370148D02*
X160667095Y-68430624D01*
X160364714Y-68430624D01*
X160243762Y-68370148D01*
X160183286Y-68249195D01*
X160183286Y-68128243D01*
X160243762Y-68007290D01*
X160364714Y-67946814D01*
X160667095Y-67946814D01*
X160788048Y-67886338D01*
X161271858Y-67583957D02*
X161574239Y-68430624D01*
X161876619Y-67583957D02*
X161574239Y-68430624D01*
X161453286Y-68733005D01*
X161392810Y-68793481D01*
X161271858Y-68853957D01*
X162844238Y-68370148D02*
X162723286Y-68430624D01*
X162481381Y-68430624D01*
X162360429Y-68370148D01*
X162299953Y-68249195D01*
X162299953Y-67765386D01*
X162360429Y-67644433D01*
X162481381Y-67583957D01*
X162723286Y-67583957D01*
X162844238Y-67644433D01*
X162904715Y-67765386D01*
X162904715Y-67886338D01*
X162299953Y-68007290D01*
X163449000Y-68430624D02*
X163449000Y-67583957D01*
X163449000Y-67825862D02*
X163509476Y-67704910D01*
X163569952Y-67644433D01*
X163690905Y-67583957D01*
X163811857Y-67583957D01*
X164174714Y-68370148D02*
X164295666Y-68430624D01*
X164537571Y-68430624D01*
X164658523Y-68370148D01*
X164718999Y-68249195D01*
X164718999Y-68188719D01*
X164658523Y-68067767D01*
X164537571Y-68007290D01*
X164356142Y-68007290D01*
X164235190Y-67946814D01*
X164174714Y-67825862D01*
X164174714Y-67765386D01*
X164235190Y-67644433D01*
X164356142Y-67583957D01*
X164537571Y-67583957D01*
X164658523Y-67644433D01*
X157643286Y-69268824D02*
X157764238Y-69268824D01*
X157885190Y-69329300D01*
X157945667Y-69389776D01*
X158006143Y-69510729D01*
X158066619Y-69752633D01*
X158066619Y-70055014D01*
X158006143Y-70296919D01*
X157945667Y-70417871D01*
X157885190Y-70478348D01*
X157764238Y-70538824D01*
X157643286Y-70538824D01*
X157522333Y-70478348D01*
X157461857Y-70417871D01*
X157401381Y-70296919D01*
X157340905Y-70055014D01*
X157340905Y-69752633D01*
X157401381Y-69510729D01*
X157461857Y-69389776D01*
X157522333Y-69329300D01*
X157643286Y-69268824D01*
X158610905Y-70417871D02*
X158671381Y-70478348D01*
X158610905Y-70538824D01*
X158550429Y-70478348D01*
X158610905Y-70417871D01*
X158610905Y-70538824D01*
X159457572Y-69268824D02*
X159578524Y-69268824D01*
X159699476Y-69329300D01*
X159759953Y-69389776D01*
X159820429Y-69510729D01*
X159880905Y-69752633D01*
X159880905Y-70055014D01*
X159820429Y-70296919D01*
X159759953Y-70417871D01*
X159699476Y-70478348D01*
X159578524Y-70538824D01*
X159457572Y-70538824D01*
X159336619Y-70478348D01*
X159276143Y-70417871D01*
X159215667Y-70296919D01*
X159155191Y-70055014D01*
X159155191Y-69752633D01*
X159215667Y-69510729D01*
X159276143Y-69389776D01*
X159336619Y-69329300D01*
X159457572Y-69268824D01*
X160969477Y-69268824D02*
X160727572Y-69268824D01*
X160606620Y-69329300D01*
X160546143Y-69389776D01*
X160425191Y-69571205D01*
X160364715Y-69813110D01*
X160364715Y-70296919D01*
X160425191Y-70417871D01*
X160485667Y-70478348D01*
X160606620Y-70538824D01*
X160848524Y-70538824D01*
X160969477Y-70478348D01*
X161029953Y-70417871D01*
X161090429Y-70296919D01*
X161090429Y-69994538D01*
X161029953Y-69873586D01*
X160969477Y-69813110D01*
X160848524Y-69752633D01*
X160606620Y-69752633D01*
X160485667Y-69813110D01*
X160425191Y-69873586D01*
X160364715Y-69994538D01*
X161513763Y-69268824D02*
X162299953Y-69268824D01*
X161876620Y-69752633D01*
X162058048Y-69752633D01*
X162179001Y-69813110D01*
X162239477Y-69873586D01*
X162299953Y-69994538D01*
X162299953Y-70296919D01*
X162239477Y-70417871D01*
X162179001Y-70478348D01*
X162058048Y-70538824D01*
X161695191Y-70538824D01*
X161574239Y-70478348D01*
X161513763Y-70417871D01*
X163630429Y-69692157D02*
X164114239Y-69692157D01*
X163811858Y-70538824D02*
X163811858Y-69450252D01*
X163872334Y-69329300D01*
X163993287Y-69268824D01*
X164114239Y-69268824D01*
X164537572Y-70538824D02*
X164537572Y-69692157D01*
X164537572Y-69268824D02*
X164477096Y-69329300D01*
X164537572Y-69389776D01*
X164598048Y-69329300D01*
X164537572Y-69268824D01*
X164537572Y-69389776D01*
X165142334Y-69692157D02*
X165142334Y-70538824D01*
X165142334Y-69813110D02*
X165202810Y-69752633D01*
X165323763Y-69692157D01*
X165505191Y-69692157D01*
X165626143Y-69752633D01*
X165686620Y-69873586D01*
X165686620Y-70538824D01*
X166835668Y-70538824D02*
X166835668Y-69873586D01*
X166775191Y-69752633D01*
X166654239Y-69692157D01*
X166412334Y-69692157D01*
X166291382Y-69752633D01*
X166835668Y-70478348D02*
X166714715Y-70538824D01*
X166412334Y-70538824D01*
X166291382Y-70478348D01*
X166230906Y-70357395D01*
X166230906Y-70236443D01*
X166291382Y-70115490D01*
X166412334Y-70055014D01*
X166714715Y-70055014D01*
X166835668Y-69994538D01*
X167621859Y-70538824D02*
X167500906Y-70478348D01*
X167440430Y-70357395D01*
X167440430Y-69268824D01*
X168891858Y-69692157D02*
X169375668Y-69692157D01*
X169073287Y-69268824D02*
X169073287Y-70357395D01*
X169133763Y-70478348D01*
X169254716Y-70538824D01*
X169375668Y-70538824D01*
X169799001Y-70538824D02*
X169799001Y-69268824D01*
X170343287Y-70538824D02*
X170343287Y-69873586D01*
X170282810Y-69752633D01*
X170161858Y-69692157D01*
X169980430Y-69692157D01*
X169859477Y-69752633D01*
X169799001Y-69813110D01*
X170948049Y-70538824D02*
X170948049Y-69692157D01*
X170948049Y-69268824D02*
X170887573Y-69329300D01*
X170948049Y-69389776D01*
X171008525Y-69329300D01*
X170948049Y-69268824D01*
X170948049Y-69389776D01*
X172097097Y-70478348D02*
X171976144Y-70538824D01*
X171734240Y-70538824D01*
X171613287Y-70478348D01*
X171552811Y-70417871D01*
X171492335Y-70296919D01*
X171492335Y-69934062D01*
X171552811Y-69813110D01*
X171613287Y-69752633D01*
X171734240Y-69692157D01*
X171976144Y-69692157D01*
X172097097Y-69752633D01*
X172641382Y-70538824D02*
X172641382Y-69268824D01*
X172762334Y-70055014D02*
X173125191Y-70538824D01*
X173125191Y-69692157D02*
X172641382Y-70175967D01*
X173669477Y-69692157D02*
X173669477Y-70538824D01*
X173669477Y-69813110D02*
X173729953Y-69752633D01*
X173850906Y-69692157D01*
X174032334Y-69692157D01*
X174153286Y-69752633D01*
X174213763Y-69873586D01*
X174213763Y-70538824D01*
X175302334Y-70478348D02*
X175181382Y-70538824D01*
X174939477Y-70538824D01*
X174818525Y-70478348D01*
X174758049Y-70357395D01*
X174758049Y-69873586D01*
X174818525Y-69752633D01*
X174939477Y-69692157D01*
X175181382Y-69692157D01*
X175302334Y-69752633D01*
X175362811Y-69873586D01*
X175362811Y-69994538D01*
X174758049Y-70115490D01*
X175846620Y-70478348D02*
X175967572Y-70538824D01*
X176209477Y-70538824D01*
X176330429Y-70478348D01*
X176390905Y-70357395D01*
X176390905Y-70296919D01*
X176330429Y-70175967D01*
X176209477Y-70115490D01*
X176028048Y-70115490D01*
X175907096Y-70055014D01*
X175846620Y-69934062D01*
X175846620Y-69873586D01*
X175907096Y-69752633D01*
X176028048Y-69692157D01*
X176209477Y-69692157D01*
X176330429Y-69752633D01*
X176874715Y-70478348D02*
X176995667Y-70538824D01*
X177237572Y-70538824D01*
X177358524Y-70478348D01*
X177419000Y-70357395D01*
X177419000Y-70296919D01*
X177358524Y-70175967D01*
X177237572Y-70115490D01*
X177056143Y-70115490D01*
X176935191Y-70055014D01*
X176874715Y-69934062D01*
X176874715Y-69873586D01*
X176935191Y-69752633D01*
X177056143Y-69692157D01*
X177237572Y-69692157D01*
X177358524Y-69752633D01*
X179354238Y-69873586D02*
X178930905Y-69873586D01*
X178930905Y-70538824D02*
X178930905Y-69268824D01*
X179535667Y-69268824D01*
X180745190Y-70538824D02*
X180321857Y-69934062D01*
X180019476Y-70538824D02*
X180019476Y-69268824D01*
X180503285Y-69268824D01*
X180624238Y-69329300D01*
X180684714Y-69389776D01*
X180745190Y-69510729D01*
X180745190Y-69692157D01*
X180684714Y-69813110D01*
X180624238Y-69873586D01*
X180503285Y-69934062D01*
X180019476Y-69934062D01*
X181289476Y-70055014D02*
X182257095Y-70055014D01*
X183406143Y-69692157D02*
X183406143Y-70538824D01*
X183103762Y-69208348D02*
X182801381Y-70115490D01*
X183587571Y-70115490D01*
X158066619Y-72647024D02*
X157340905Y-72647024D01*
X157703762Y-72647024D02*
X157703762Y-71377024D01*
X157582810Y-71558452D01*
X157461857Y-71679405D01*
X157340905Y-71739881D01*
X159759953Y-72647024D02*
X159639000Y-72586548D01*
X159578524Y-72526071D01*
X159518048Y-72405119D01*
X159518048Y-72042262D01*
X159578524Y-71921310D01*
X159639000Y-71860833D01*
X159759953Y-71800357D01*
X159941381Y-71800357D01*
X160062333Y-71860833D01*
X160122810Y-71921310D01*
X160183286Y-72042262D01*
X160183286Y-72405119D01*
X160122810Y-72526071D01*
X160062333Y-72586548D01*
X159941381Y-72647024D01*
X159759953Y-72647024D01*
X160606620Y-71800357D02*
X161271858Y-71800357D01*
X160606620Y-72647024D01*
X161271858Y-72647024D01*
X163267572Y-72586548D02*
X163146619Y-72647024D01*
X162904715Y-72647024D01*
X162783762Y-72586548D01*
X162723286Y-72526071D01*
X162662810Y-72405119D01*
X162662810Y-72042262D01*
X162723286Y-71921310D01*
X162783762Y-71860833D01*
X162904715Y-71800357D01*
X163146619Y-71800357D01*
X163267572Y-71860833D01*
X163993286Y-72647024D02*
X163872333Y-72586548D01*
X163811857Y-72526071D01*
X163751381Y-72405119D01*
X163751381Y-72042262D01*
X163811857Y-71921310D01*
X163872333Y-71860833D01*
X163993286Y-71800357D01*
X164174714Y-71800357D01*
X164295666Y-71860833D01*
X164356143Y-71921310D01*
X164416619Y-72042262D01*
X164416619Y-72405119D01*
X164356143Y-72526071D01*
X164295666Y-72586548D01*
X164174714Y-72647024D01*
X163993286Y-72647024D01*
X164960905Y-71800357D02*
X164960905Y-73070357D01*
X164960905Y-71860833D02*
X165081857Y-71800357D01*
X165323762Y-71800357D01*
X165444714Y-71860833D01*
X165505191Y-71921310D01*
X165565667Y-72042262D01*
X165565667Y-72405119D01*
X165505191Y-72526071D01*
X165444714Y-72586548D01*
X165323762Y-72647024D01*
X165081857Y-72647024D01*
X164960905Y-72586548D01*
X166109953Y-71800357D02*
X166109953Y-73070357D01*
X166109953Y-71860833D02*
X166230905Y-71800357D01*
X166472810Y-71800357D01*
X166593762Y-71860833D01*
X166654239Y-71921310D01*
X166714715Y-72042262D01*
X166714715Y-72405119D01*
X166654239Y-72526071D01*
X166593762Y-72586548D01*
X166472810Y-72647024D01*
X166230905Y-72647024D01*
X166109953Y-72586548D01*
X167742810Y-72586548D02*
X167621858Y-72647024D01*
X167379953Y-72647024D01*
X167259001Y-72586548D01*
X167198525Y-72465595D01*
X167198525Y-71981786D01*
X167259001Y-71860833D01*
X167379953Y-71800357D01*
X167621858Y-71800357D01*
X167742810Y-71860833D01*
X167803287Y-71981786D01*
X167803287Y-72102738D01*
X167198525Y-72223690D01*
X168347572Y-72647024D02*
X168347572Y-71800357D01*
X168347572Y-72042262D02*
X168408048Y-71921310D01*
X168468524Y-71860833D01*
X168589477Y-71800357D01*
X168710429Y-71800357D01*
X157340905Y-74694748D02*
X157461857Y-74755224D01*
X157703762Y-74755224D01*
X157824714Y-74694748D01*
X157885190Y-74573795D01*
X157885190Y-74513319D01*
X157824714Y-74392367D01*
X157703762Y-74331890D01*
X157522333Y-74331890D01*
X157401381Y-74271414D01*
X157340905Y-74150462D01*
X157340905Y-74089986D01*
X157401381Y-73969033D01*
X157522333Y-73908557D01*
X157703762Y-73908557D01*
X157824714Y-73969033D01*
X158610905Y-74755224D02*
X158489952Y-74694748D01*
X158429476Y-74634271D01*
X158369000Y-74513319D01*
X158369000Y-74150462D01*
X158429476Y-74029510D01*
X158489952Y-73969033D01*
X158610905Y-73908557D01*
X158792333Y-73908557D01*
X158913285Y-73969033D01*
X158973762Y-74029510D01*
X159034238Y-74150462D01*
X159034238Y-74513319D01*
X158973762Y-74634271D01*
X158913285Y-74694748D01*
X158792333Y-74755224D01*
X158610905Y-74755224D01*
X159759953Y-74755224D02*
X159639000Y-74694748D01*
X159578524Y-74573795D01*
X159578524Y-73485224D01*
X160788048Y-74755224D02*
X160788048Y-73485224D01*
X160788048Y-74694748D02*
X160667095Y-74755224D01*
X160425191Y-74755224D01*
X160304238Y-74694748D01*
X160243762Y-74634271D01*
X160183286Y-74513319D01*
X160183286Y-74150462D01*
X160243762Y-74029510D01*
X160304238Y-73969033D01*
X160425191Y-73908557D01*
X160667095Y-73908557D01*
X160788048Y-73969033D01*
X161876619Y-74694748D02*
X161755667Y-74755224D01*
X161513762Y-74755224D01*
X161392810Y-74694748D01*
X161332334Y-74573795D01*
X161332334Y-74089986D01*
X161392810Y-73969033D01*
X161513762Y-73908557D01*
X161755667Y-73908557D01*
X161876619Y-73969033D01*
X161937096Y-74089986D01*
X161937096Y-74210938D01*
X161332334Y-74331890D01*
X162481381Y-74755224D02*
X162481381Y-73908557D01*
X162481381Y-74150462D02*
X162541857Y-74029510D01*
X162602333Y-73969033D01*
X162723286Y-73908557D01*
X162844238Y-73908557D01*
X163267571Y-74755224D02*
X163267571Y-73908557D01*
X163267571Y-74029510D02*
X163328047Y-73969033D01*
X163449000Y-73908557D01*
X163630428Y-73908557D01*
X163751380Y-73969033D01*
X163811857Y-74089986D01*
X163811857Y-74755224D01*
X163811857Y-74089986D02*
X163872333Y-73969033D01*
X163993285Y-73908557D01*
X164174714Y-73908557D01*
X164295666Y-73969033D01*
X164356142Y-74089986D01*
X164356142Y-74755224D01*
X165505190Y-74755224D02*
X165505190Y-74089986D01*
X165444713Y-73969033D01*
X165323761Y-73908557D01*
X165081856Y-73908557D01*
X164960904Y-73969033D01*
X165505190Y-74694748D02*
X165384237Y-74755224D01*
X165081856Y-74755224D01*
X164960904Y-74694748D01*
X164900428Y-74573795D01*
X164900428Y-74452843D01*
X164960904Y-74331890D01*
X165081856Y-74271414D01*
X165384237Y-74271414D01*
X165505190Y-74210938D01*
X166049476Y-74694748D02*
X166170428Y-74755224D01*
X166412333Y-74755224D01*
X166533285Y-74694748D01*
X166593761Y-74573795D01*
X166593761Y-74513319D01*
X166533285Y-74392367D01*
X166412333Y-74331890D01*
X166230904Y-74331890D01*
X166109952Y-74271414D01*
X166049476Y-74150462D01*
X166049476Y-74089986D01*
X166109952Y-73969033D01*
X166230904Y-73908557D01*
X166412333Y-73908557D01*
X166533285Y-73969033D01*
X167138047Y-74755224D02*
X167138047Y-73485224D01*
X167258999Y-74271414D02*
X167621856Y-74755224D01*
X167621856Y-73908557D02*
X167138047Y-74392367D01*
X169133761Y-74755224D02*
X169133761Y-73485224D01*
X169133761Y-73969033D02*
X169254713Y-73908557D01*
X169496618Y-73908557D01*
X169617570Y-73969033D01*
X169678047Y-74029510D01*
X169738523Y-74150462D01*
X169738523Y-74513319D01*
X169678047Y-74634271D01*
X169617570Y-74694748D01*
X169496618Y-74755224D01*
X169254713Y-74755224D01*
X169133761Y-74694748D01*
X170464238Y-74755224D02*
X170343285Y-74694748D01*
X170282809Y-74634271D01*
X170222333Y-74513319D01*
X170222333Y-74150462D01*
X170282809Y-74029510D01*
X170343285Y-73969033D01*
X170464238Y-73908557D01*
X170645666Y-73908557D01*
X170766618Y-73969033D01*
X170827095Y-74029510D01*
X170887571Y-74150462D01*
X170887571Y-74513319D01*
X170827095Y-74634271D01*
X170766618Y-74694748D01*
X170645666Y-74755224D01*
X170464238Y-74755224D01*
X171250428Y-73908557D02*
X171734238Y-73908557D01*
X171431857Y-73485224D02*
X171431857Y-74573795D01*
X171492333Y-74694748D01*
X171613286Y-74755224D01*
X171734238Y-74755224D01*
X172157571Y-74755224D02*
X172157571Y-73485224D01*
X172701857Y-74755224D02*
X172701857Y-74089986D01*
X172641380Y-73969033D01*
X172520428Y-73908557D01*
X172339000Y-73908557D01*
X172218047Y-73969033D01*
X172157571Y-74029510D01*
X174213762Y-74694748D02*
X174334714Y-74755224D01*
X174576619Y-74755224D01*
X174697571Y-74694748D01*
X174758047Y-74573795D01*
X174758047Y-74513319D01*
X174697571Y-74392367D01*
X174576619Y-74331890D01*
X174395190Y-74331890D01*
X174274238Y-74271414D01*
X174213762Y-74150462D01*
X174213762Y-74089986D01*
X174274238Y-73969033D01*
X174395190Y-73908557D01*
X174576619Y-73908557D01*
X174697571Y-73969033D01*
X175302333Y-74755224D02*
X175302333Y-73908557D01*
X175302333Y-73485224D02*
X175241857Y-73545700D01*
X175302333Y-73606176D01*
X175362809Y-73545700D01*
X175302333Y-73485224D01*
X175302333Y-73606176D01*
X176451381Y-74755224D02*
X176451381Y-73485224D01*
X176451381Y-74694748D02*
X176330428Y-74755224D01*
X176088524Y-74755224D01*
X175967571Y-74694748D01*
X175907095Y-74634271D01*
X175846619Y-74513319D01*
X175846619Y-74150462D01*
X175907095Y-74029510D01*
X175967571Y-73969033D01*
X176088524Y-73908557D01*
X176330428Y-73908557D01*
X176451381Y-73969033D01*
X177539952Y-74694748D02*
X177419000Y-74755224D01*
X177177095Y-74755224D01*
X177056143Y-74694748D01*
X176995667Y-74573795D01*
X176995667Y-74089986D01*
X177056143Y-73969033D01*
X177177095Y-73908557D01*
X177419000Y-73908557D01*
X177539952Y-73969033D01*
X177600429Y-74089986D01*
X177600429Y-74210938D01*
X176995667Y-74331890D01*
X178084238Y-74694748D02*
X178205190Y-74755224D01*
X178447095Y-74755224D01*
X178568047Y-74694748D01*
X178628523Y-74573795D01*
X178628523Y-74513319D01*
X178568047Y-74392367D01*
X178447095Y-74331890D01*
X178265666Y-74331890D01*
X178144714Y-74271414D01*
X178084238Y-74150462D01*
X178084238Y-74089986D01*
X178144714Y-73969033D01*
X178265666Y-73908557D01*
X178447095Y-73908557D01*
X178568047Y-73969033D01*
X180503285Y-75239033D02*
X180442809Y-75178557D01*
X180321857Y-74997129D01*
X180261380Y-74876176D01*
X180200904Y-74694748D01*
X180140428Y-74392367D01*
X180140428Y-74150462D01*
X180200904Y-73848081D01*
X180261380Y-73666652D01*
X180321857Y-73545700D01*
X180442809Y-73364271D01*
X180503285Y-73303795D01*
X181531381Y-73908557D02*
X181531381Y-74936652D01*
X181470904Y-75057605D01*
X181410428Y-75118081D01*
X181289476Y-75178557D01*
X181108047Y-75178557D01*
X180987095Y-75118081D01*
X181531381Y-74694748D02*
X181410428Y-74755224D01*
X181168524Y-74755224D01*
X181047571Y-74694748D01*
X180987095Y-74634271D01*
X180926619Y-74513319D01*
X180926619Y-74150462D01*
X180987095Y-74029510D01*
X181047571Y-73969033D01*
X181168524Y-73908557D01*
X181410428Y-73908557D01*
X181531381Y-73969033D01*
X182136143Y-74755224D02*
X182136143Y-73908557D01*
X182136143Y-74150462D02*
X182196619Y-74029510D01*
X182257095Y-73969033D01*
X182378048Y-73908557D01*
X182499000Y-73908557D01*
X183406142Y-74694748D02*
X183285190Y-74755224D01*
X183043285Y-74755224D01*
X182922333Y-74694748D01*
X182861857Y-74573795D01*
X182861857Y-74089986D01*
X182922333Y-73969033D01*
X183043285Y-73908557D01*
X183285190Y-73908557D01*
X183406142Y-73969033D01*
X183466619Y-74089986D01*
X183466619Y-74210938D01*
X182861857Y-74331890D01*
X184494713Y-74694748D02*
X184373761Y-74755224D01*
X184131856Y-74755224D01*
X184010904Y-74694748D01*
X183950428Y-74573795D01*
X183950428Y-74089986D01*
X184010904Y-73969033D01*
X184131856Y-73908557D01*
X184373761Y-73908557D01*
X184494713Y-73969033D01*
X184555190Y-74089986D01*
X184555190Y-74210938D01*
X183950428Y-74331890D01*
X185099475Y-73908557D02*
X185099475Y-74755224D01*
X185099475Y-74029510D02*
X185159951Y-73969033D01*
X185280904Y-73908557D01*
X185462332Y-73908557D01*
X185583284Y-73969033D01*
X185643761Y-74089986D01*
X185643761Y-74755224D01*
X186127571Y-75239033D02*
X186188047Y-75178557D01*
X186308999Y-74997129D01*
X186369475Y-74876176D01*
X186429952Y-74694748D01*
X186490428Y-74392367D01*
X186490428Y-74150462D01*
X186429952Y-73848081D01*
X186369475Y-73666652D01*
X186308999Y-73545700D01*
X186188047Y-73364271D01*
X186127571Y-73303795D01*
X157340905Y-76802948D02*
X157461857Y-76863424D01*
X157703762Y-76863424D01*
X157824714Y-76802948D01*
X157885190Y-76681995D01*
X157885190Y-76621519D01*
X157824714Y-76500567D01*
X157703762Y-76440090D01*
X157522333Y-76440090D01*
X157401381Y-76379614D01*
X157340905Y-76258662D01*
X157340905Y-76198186D01*
X157401381Y-76077233D01*
X157522333Y-76016757D01*
X157703762Y-76016757D01*
X157824714Y-76077233D01*
X158429476Y-76863424D02*
X158429476Y-76016757D01*
X158429476Y-75593424D02*
X158369000Y-75653900D01*
X158429476Y-75714376D01*
X158489952Y-75653900D01*
X158429476Y-75593424D01*
X158429476Y-75714376D01*
X159215667Y-76863424D02*
X159094714Y-76802948D01*
X159034238Y-76681995D01*
X159034238Y-75593424D01*
X159699476Y-76863424D02*
X159699476Y-75593424D01*
X159820428Y-76379614D02*
X160183285Y-76863424D01*
X160183285Y-76016757D02*
X159699476Y-76500567D01*
X160667095Y-76802948D02*
X160788047Y-76863424D01*
X161029952Y-76863424D01*
X161150904Y-76802948D01*
X161211380Y-76681995D01*
X161211380Y-76621519D01*
X161150904Y-76500567D01*
X161029952Y-76440090D01*
X160848523Y-76440090D01*
X160727571Y-76379614D01*
X160667095Y-76258662D01*
X160667095Y-76198186D01*
X160727571Y-76077233D01*
X160848523Y-76016757D01*
X161029952Y-76016757D01*
X161150904Y-76077233D01*
X162299952Y-76802948D02*
X162178999Y-76863424D01*
X161937095Y-76863424D01*
X161816142Y-76802948D01*
X161755666Y-76742471D01*
X161695190Y-76621519D01*
X161695190Y-76258662D01*
X161755666Y-76137710D01*
X161816142Y-76077233D01*
X161937095Y-76016757D01*
X162178999Y-76016757D01*
X162299952Y-76077233D01*
X162844237Y-76863424D02*
X162844237Y-76016757D01*
X162844237Y-76258662D02*
X162904713Y-76137710D01*
X162965189Y-76077233D01*
X163086142Y-76016757D01*
X163207094Y-76016757D01*
X164114236Y-76802948D02*
X163993284Y-76863424D01*
X163751379Y-76863424D01*
X163630427Y-76802948D01*
X163569951Y-76681995D01*
X163569951Y-76198186D01*
X163630427Y-76077233D01*
X163751379Y-76016757D01*
X163993284Y-76016757D01*
X164114236Y-76077233D01*
X164174713Y-76198186D01*
X164174713Y-76319138D01*
X163569951Y-76440090D01*
X165202807Y-76802948D02*
X165081855Y-76863424D01*
X164839950Y-76863424D01*
X164718998Y-76802948D01*
X164658522Y-76681995D01*
X164658522Y-76198186D01*
X164718998Y-76077233D01*
X164839950Y-76016757D01*
X165081855Y-76016757D01*
X165202807Y-76077233D01*
X165263284Y-76198186D01*
X165263284Y-76319138D01*
X164658522Y-76440090D01*
X165807569Y-76016757D02*
X165807569Y-76863424D01*
X165807569Y-76137710D02*
X165868045Y-76077233D01*
X165988998Y-76016757D01*
X166170426Y-76016757D01*
X166291378Y-76077233D01*
X166351855Y-76198186D01*
X166351855Y-76863424D01*
X168105665Y-76863424D02*
X167984712Y-76802948D01*
X167924236Y-76681995D01*
X167924236Y-75593424D01*
X169073283Y-76802948D02*
X168952331Y-76863424D01*
X168710426Y-76863424D01*
X168589474Y-76802948D01*
X168528998Y-76681995D01*
X168528998Y-76198186D01*
X168589474Y-76077233D01*
X168710426Y-76016757D01*
X168952331Y-76016757D01*
X169073283Y-76077233D01*
X169133760Y-76198186D01*
X169133760Y-76319138D01*
X168528998Y-76440090D01*
X170222331Y-76016757D02*
X170222331Y-77044852D01*
X170161854Y-77165805D01*
X170101378Y-77226281D01*
X169980426Y-77286757D01*
X169798997Y-77286757D01*
X169678045Y-77226281D01*
X170222331Y-76802948D02*
X170101378Y-76863424D01*
X169859474Y-76863424D01*
X169738521Y-76802948D01*
X169678045Y-76742471D01*
X169617569Y-76621519D01*
X169617569Y-76258662D01*
X169678045Y-76137710D01*
X169738521Y-76077233D01*
X169859474Y-76016757D01*
X170101378Y-76016757D01*
X170222331Y-76077233D01*
X171310902Y-76802948D02*
X171189950Y-76863424D01*
X170948045Y-76863424D01*
X170827093Y-76802948D01*
X170766617Y-76681995D01*
X170766617Y-76198186D01*
X170827093Y-76077233D01*
X170948045Y-76016757D01*
X171189950Y-76016757D01*
X171310902Y-76077233D01*
X171371379Y-76198186D01*
X171371379Y-76319138D01*
X170766617Y-76440090D01*
X171915664Y-76016757D02*
X171915664Y-76863424D01*
X171915664Y-76137710D02*
X171976140Y-76077233D01*
X172097093Y-76016757D01*
X172278521Y-76016757D01*
X172399473Y-76077233D01*
X172459950Y-76198186D01*
X172459950Y-76863424D01*
X172883283Y-76016757D02*
X173367093Y-76016757D01*
X173064712Y-75593424D02*
X173064712Y-76681995D01*
X173125188Y-76802948D01*
X173246141Y-76863424D01*
X173367093Y-76863424D01*
X174576616Y-76016757D02*
X175060426Y-76016757D01*
X174758045Y-75593424D02*
X174758045Y-76681995D01*
X174818521Y-76802948D01*
X174939474Y-76863424D01*
X175060426Y-76863424D01*
X175665188Y-76863424D02*
X175544235Y-76802948D01*
X175483759Y-76742471D01*
X175423283Y-76621519D01*
X175423283Y-76258662D01*
X175483759Y-76137710D01*
X175544235Y-76077233D01*
X175665188Y-76016757D01*
X175846616Y-76016757D01*
X175967568Y-76077233D01*
X176028045Y-76137710D01*
X176088521Y-76258662D01*
X176088521Y-76621519D01*
X176028045Y-76742471D01*
X175967568Y-76802948D01*
X175846616Y-76863424D01*
X175665188Y-76863424D01*
X176632807Y-76016757D02*
X176632807Y-77286757D01*
X176632807Y-76077233D02*
X176753759Y-76016757D01*
X176995664Y-76016757D01*
X177116616Y-76077233D01*
X177177093Y-76137710D01*
X177237569Y-76258662D01*
X177237569Y-76621519D01*
X177177093Y-76742471D01*
X177116616Y-76802948D01*
X176995664Y-76863424D01*
X176753759Y-76863424D01*
X176632807Y-76802948D01*
X178930903Y-76863424D02*
X178809950Y-76802948D01*
X178749474Y-76742471D01*
X178688998Y-76621519D01*
X178688998Y-76258662D01*
X178749474Y-76137710D01*
X178809950Y-76077233D01*
X178930903Y-76016757D01*
X179112331Y-76016757D01*
X179233283Y-76077233D01*
X179293760Y-76137710D01*
X179354236Y-76258662D01*
X179354236Y-76621519D01*
X179293760Y-76742471D01*
X179233283Y-76802948D01*
X179112331Y-76863424D01*
X178930903Y-76863424D01*
X179898522Y-76016757D02*
X179898522Y-76863424D01*
X179898522Y-76137710D02*
X179958998Y-76077233D01*
X180079951Y-76016757D01*
X180261379Y-76016757D01*
X180382331Y-76077233D01*
X180442808Y-76198186D01*
X180442808Y-76863424D01*
X181228999Y-76863424D02*
X181108046Y-76802948D01*
X181047570Y-76681995D01*
X181047570Y-75593424D01*
X181591856Y-76016757D02*
X181894237Y-76863424D01*
X182196617Y-76016757D02*
X181894237Y-76863424D01*
X181773284Y-77165805D01*
X181712808Y-77226281D01*
X181591856Y-77286757D01*
X184010903Y-77347233D02*
X183950427Y-77286757D01*
X183829475Y-77105329D01*
X183768998Y-76984376D01*
X183708522Y-76802948D01*
X183648046Y-76500567D01*
X183648046Y-76258662D01*
X183708522Y-75956281D01*
X183768998Y-75774852D01*
X183829475Y-75653900D01*
X183950427Y-75472471D01*
X184010903Y-75411995D01*
X184373761Y-76016757D02*
X184615665Y-76863424D01*
X184857570Y-76258662D01*
X185099475Y-76863424D01*
X185341380Y-76016757D01*
X185825189Y-76863424D02*
X185825189Y-75593424D01*
X186369475Y-76863424D02*
X186369475Y-76198186D01*
X186308998Y-76077233D01*
X186188046Y-76016757D01*
X186006618Y-76016757D01*
X185885665Y-76077233D01*
X185825189Y-76137710D01*
X186974237Y-76863424D02*
X186974237Y-76016757D01*
X186974237Y-75593424D02*
X186913761Y-75653900D01*
X186974237Y-75714376D01*
X187034713Y-75653900D01*
X186974237Y-75593424D01*
X186974237Y-75714376D01*
X187397570Y-76016757D02*
X187881380Y-76016757D01*
X187578999Y-75593424D02*
X187578999Y-76681995D01*
X187639475Y-76802948D01*
X187760428Y-76863424D01*
X187881380Y-76863424D01*
X188788522Y-76802948D02*
X188667570Y-76863424D01*
X188425665Y-76863424D01*
X188304713Y-76802948D01*
X188244237Y-76681995D01*
X188244237Y-76198186D01*
X188304713Y-76077233D01*
X188425665Y-76016757D01*
X188667570Y-76016757D01*
X188788522Y-76077233D01*
X188848999Y-76198186D01*
X188848999Y-76319138D01*
X188244237Y-76440090D01*
X189272332Y-77347233D02*
X189332808Y-77286757D01*
X189453760Y-77105329D01*
X189514236Y-76984376D01*
X189574713Y-76802948D01*
X189635189Y-76500567D01*
X189635189Y-76258662D01*
X189574713Y-75956281D01*
X189514236Y-75774852D01*
X189453760Y-75653900D01*
X189332808Y-75472471D01*
X189272332Y-75411995D01*
D13*
X106680000Y-119380000D02*
X106680000Y-53340000D01*
X139700000Y-119380000D02*
X106680000Y-119380000D01*
X139700000Y-53340000D02*
X139700000Y-119380000D01*
X106680000Y-53340000D02*
X139700000Y-53340000D01*
M02*
