G04 #@! TF.FileFunction,Copper,L4,Bot,Signal*
%FSLAX46Y46*%
G04 Gerber Fmt 4.6, Leading zero omitted, Abs format (unit mm)*
G04 Created by KiCad (PCBNEW 4.0.3+e1-6302~38~ubuntu14.04.1-stable) date Fri Aug 19 15:21:09 2016*
%MOMM*%
%LPD*%
G01*
G04 APERTURE LIST*
%ADD10C,0.100000*%
%ADD11C,0.150000*%
%ADD12C,1.397000*%
%ADD13C,1.270000*%
%ADD14C,0.508000*%
%ADD15C,0.406400*%
%ADD16C,0.152400*%
G04 APERTURE END LIST*
D10*
D11*
X106680000Y-119380000D02*
X106680000Y-53340000D01*
X139700000Y-119380000D02*
X106680000Y-119380000D01*
X139700000Y-53340000D02*
X139700000Y-119380000D01*
X106680000Y-53340000D02*
X139700000Y-53340000D01*
D12*
X109220000Y-55880000D03*
X109220000Y-58420000D03*
X109220000Y-60960000D03*
X109220000Y-63500000D03*
X109220000Y-66040000D03*
X109220000Y-68580000D03*
X109220000Y-71120000D03*
X109220000Y-73660000D03*
X109220000Y-76200000D03*
X109220000Y-78740000D03*
X109220000Y-81280000D03*
X109220000Y-83820000D03*
X109220000Y-86360000D03*
X109220000Y-88900000D03*
X109220000Y-91440000D03*
D13*
X109220000Y-93980000D03*
D12*
X109220000Y-96520000D03*
X109220000Y-99060000D03*
X109220000Y-101600000D03*
X109220000Y-104140000D03*
X109220000Y-106680000D03*
X109220000Y-109220000D03*
X109220000Y-111760000D03*
X109220000Y-114300000D03*
X109220000Y-116840000D03*
X137160000Y-55880000D03*
X137160000Y-58420000D03*
X137160000Y-60960000D03*
X137160000Y-63500000D03*
X137160000Y-66040000D03*
X137160000Y-68580000D03*
X137160000Y-71120000D03*
X137160000Y-73660000D03*
X137160000Y-76200000D03*
X137160000Y-78740000D03*
X137160000Y-81280000D03*
X137160000Y-83820000D03*
X137160000Y-86360000D03*
X137160000Y-88900000D03*
X137160000Y-91440000D03*
D13*
X137160000Y-93980000D03*
D12*
X137160000Y-96520000D03*
X137160000Y-99060000D03*
X137160000Y-101600000D03*
X137160000Y-104140000D03*
X137160000Y-106680000D03*
X137160000Y-109220000D03*
X137160000Y-111760000D03*
X137160000Y-114300000D03*
X137160000Y-116840000D03*
D14*
X123444000Y-114300000D03*
X116586000Y-114300000D03*
X116586000Y-112776000D03*
X116586000Y-111506000D03*
X116586000Y-117094000D03*
X119888000Y-117094000D03*
X118110000Y-117094000D03*
X116586000Y-115824000D03*
X123444000Y-112776000D03*
X123444000Y-117094000D03*
X123444000Y-115824000D03*
X121666000Y-117094000D03*
X119888000Y-111506000D03*
X121666000Y-111506000D03*
X118110000Y-111506000D03*
X123444000Y-111506000D03*
D15*
X115570000Y-106426000D03*
X131064000Y-110490000D03*
X121602500Y-88900000D03*
X121920000Y-92075000D03*
X121920000Y-81915000D03*
X121602500Y-78740000D03*
X121602500Y-66040000D03*
X121920000Y-59055000D03*
X121920000Y-69215000D03*
X121602500Y-55880000D03*
X131064000Y-107442000D03*
X133604000Y-78232000D03*
X133604000Y-80264000D03*
X135382000Y-82042000D03*
X133604000Y-83566000D03*
X133604000Y-85598000D03*
X133604000Y-89408000D03*
X133604000Y-90424000D03*
X135382000Y-92202000D03*
X133604000Y-93980000D03*
X133604000Y-95758000D03*
X127000000Y-98552000D03*
X117856000Y-100838000D03*
X129794000Y-99822000D03*
X134620000Y-110490000D03*
X133858000Y-55626000D03*
X133858000Y-62738000D03*
X112522000Y-88392000D03*
X112522000Y-95758000D03*
X133604000Y-57404000D03*
X133604000Y-60706000D03*
X112776000Y-57404000D03*
X112522000Y-55372000D03*
X112776000Y-60706000D03*
X112522000Y-62738000D03*
X112522000Y-65532000D03*
X112776000Y-67564000D03*
X112776000Y-70866000D03*
X112522000Y-72898000D03*
X133858000Y-65532000D03*
X133604000Y-67564000D03*
X133858000Y-72898000D03*
X133604000Y-70866000D03*
X112522000Y-78232000D03*
X112776000Y-80264000D03*
X112522000Y-85598000D03*
X112776000Y-83566000D03*
X112776000Y-90424000D03*
X112776000Y-93980000D03*
X128905000Y-92075000D03*
X117475000Y-92075000D03*
X124460000Y-92075000D03*
X124777500Y-88900000D03*
X128905000Y-81915000D03*
X124460000Y-81915000D03*
X124777500Y-78740000D03*
X113665000Y-81915000D03*
X117475000Y-81915000D03*
X132715000Y-69215000D03*
X128905000Y-69215000D03*
D14*
X111760000Y-114300000D03*
X131127500Y-115252500D03*
D15*
X116840000Y-108204000D03*
X124777500Y-66040000D03*
X117475000Y-69215000D03*
X113665000Y-69215000D03*
D14*
X128905000Y-116840000D03*
D15*
X124460000Y-59055000D03*
X124460000Y-69215000D03*
X132715000Y-59055000D03*
X128905000Y-59055000D03*
X124777500Y-55880000D03*
X117157500Y-59055000D03*
X113665000Y-59055000D03*
X113665000Y-92075000D03*
X131064000Y-101346000D03*
X116840000Y-57150000D03*
X130302000Y-101854000D03*
X116840000Y-60960000D03*
X132599000Y-102605000D03*
X129794000Y-61214000D03*
X131826000Y-103378000D03*
X129794000Y-57150000D03*
X125984000Y-103886000D03*
X116586000Y-67310000D03*
X125984000Y-104648000D03*
X116586000Y-71120000D03*
X134112000Y-105156000D03*
X129794000Y-71120000D03*
X135890000Y-105918000D03*
X129794000Y-67310000D03*
X122428000Y-104140000D03*
X116586000Y-80010000D03*
X120904000Y-104902000D03*
X116586000Y-83820000D03*
X125984000Y-95504000D03*
X129794000Y-83820000D03*
X125476000Y-96012000D03*
X129794000Y-80010000D03*
X116586000Y-90170000D03*
X116586000Y-103124000D03*
X114554000Y-96774000D03*
X115570000Y-102108000D03*
X124968000Y-98044000D03*
X129794000Y-93980000D03*
X124968000Y-97282000D03*
X129794000Y-89916000D03*
X124968000Y-105664000D03*
X124460000Y-107188000D03*
X110998000Y-107950000D03*
D16*
X131064000Y-101346000D02*
X131064000Y-75692000D01*
X131064000Y-75692000D02*
X130810000Y-75438000D01*
X116840000Y-57150000D02*
X126492000Y-66802000D01*
X126492000Y-66802000D02*
X126492000Y-71120000D01*
X126492000Y-71120000D02*
X130810000Y-75438000D01*
X130302000Y-101854000D02*
X130302000Y-75946000D01*
X116840000Y-60960000D02*
X118618000Y-60960000D01*
X125730000Y-71374000D02*
X130302000Y-75946000D01*
X125730000Y-68072000D02*
X125730000Y-71374000D01*
X118618000Y-60960000D02*
X125730000Y-68072000D01*
X132588000Y-102594000D02*
X132588000Y-74930000D01*
X132599000Y-102605000D02*
X132588000Y-102594000D01*
X128270000Y-70612000D02*
X132588000Y-74930000D01*
X129794000Y-61214000D02*
X129794000Y-64516000D01*
X128270000Y-66040000D02*
X128270000Y-70612000D01*
X129794000Y-64516000D02*
X128270000Y-66040000D01*
X131826000Y-103378000D02*
X131826000Y-75184000D01*
X127508000Y-70866000D02*
X131826000Y-75184000D01*
X127508000Y-59436000D02*
X127508000Y-69850000D01*
X129794000Y-57150000D02*
X127508000Y-59436000D01*
X127508000Y-70866000D02*
X127508000Y-69850000D01*
X120650000Y-67310000D02*
X121666000Y-67310000D01*
X121666000Y-67310000D02*
X123952000Y-69596000D01*
X125984000Y-103886000D02*
X123952000Y-101854000D01*
X123952000Y-101854000D02*
X123952000Y-69596000D01*
X120650000Y-67310000D02*
X116586000Y-67310000D01*
X116586000Y-71120000D02*
X120904000Y-71120000D01*
X123190000Y-101854000D02*
X125984000Y-104648000D01*
X123190000Y-73406000D02*
X123190000Y-101854000D01*
X120904000Y-71120000D02*
X123190000Y-73406000D01*
X134239000Y-75565000D02*
X134239000Y-105029000D01*
X134239000Y-105029000D02*
X134112000Y-105156000D01*
X133350000Y-74676000D02*
X134239000Y-75565000D01*
X133350000Y-74676000D02*
X129794000Y-71120000D01*
X134874000Y-69342000D02*
X135890000Y-70358000D01*
X135890000Y-70358000D02*
X135890000Y-105918000D01*
X134874000Y-69342000D02*
X133858000Y-68326000D01*
X133858000Y-68326000D02*
X130810000Y-68326000D01*
X130810000Y-68326000D02*
X129794000Y-67310000D01*
X116586000Y-80010000D02*
X119126000Y-80010000D01*
X122428000Y-104140000D02*
X122428000Y-104140000D01*
X122428000Y-83312000D02*
X122428000Y-104140000D01*
X119126000Y-80010000D02*
X122428000Y-83312000D01*
X120904000Y-85090000D02*
X120904000Y-104902000D01*
X119634000Y-83820000D02*
X120904000Y-85090000D01*
X116586000Y-83820000D02*
X119634000Y-83820000D01*
X125984000Y-93726000D02*
X125984000Y-95504000D01*
X125984000Y-87630000D02*
X129794000Y-83820000D01*
X125984000Y-93726000D02*
X125984000Y-87630000D01*
X125476000Y-93218000D02*
X125476000Y-96012000D01*
X129794000Y-80010000D02*
X129794000Y-80010000D01*
X125476000Y-84328000D02*
X129794000Y-80010000D01*
X125476000Y-93218000D02*
X125476000Y-84328000D01*
X116586000Y-103124000D02*
X116586000Y-90170000D01*
X115570000Y-102108000D02*
X114554000Y-101092000D01*
X114554000Y-96774000D02*
X114554000Y-101092000D01*
X129032000Y-93980000D02*
X129794000Y-93980000D01*
X124968000Y-98044000D02*
X129032000Y-93980000D01*
X128397000Y-91313000D02*
X128397000Y-93853000D01*
X128397000Y-93853000D02*
X128270000Y-93980000D01*
X124968000Y-97282000D02*
X128270000Y-93980000D01*
X128270000Y-93980000D02*
X128397000Y-93853000D01*
X129794000Y-89916000D02*
X128397000Y-91313000D01*
X112014000Y-104140000D02*
X118364000Y-104140000D01*
X119888000Y-105664000D02*
X124968000Y-105664000D01*
X118364000Y-104140000D02*
X119888000Y-105664000D01*
X109220000Y-104140000D02*
X112014000Y-104140000D01*
X119888000Y-107188000D02*
X109728000Y-107188000D01*
X109220000Y-106680000D02*
X109728000Y-107188000D01*
X119888000Y-107188000D02*
X120650000Y-107188000D01*
X120650000Y-107188000D02*
X122174000Y-107188000D01*
X124460000Y-107188000D02*
X122174000Y-107188000D01*
X109982000Y-111760000D02*
X110998000Y-110744000D01*
X110998000Y-110744000D02*
X110998000Y-107950000D01*
X109220000Y-111760000D02*
X109982000Y-111760000D01*
M02*
