G04 #@! TF.FileFunction,Copper,L3,Inr,Plane*
%FSLAX46Y46*%
G04 Gerber Fmt 4.6, Leading zero omitted, Abs format (unit mm)*
G04 Created by KiCad (PCBNEW 4.0.3+e1-6302~38~ubuntu14.04.1-stable) date Fri Aug 19 15:21:09 2016*
%MOMM*%
%LPD*%
G01*
G04 APERTURE LIST*
%ADD10C,0.100000*%
%ADD11C,0.150000*%
%ADD12C,1.397000*%
%ADD13C,1.270000*%
%ADD14C,0.508000*%
%ADD15C,0.406400*%
%ADD16C,0.254000*%
G04 APERTURE END LIST*
D10*
D11*
X106680000Y-119380000D02*
X106680000Y-53340000D01*
X139700000Y-119380000D02*
X106680000Y-119380000D01*
X139700000Y-53340000D02*
X139700000Y-119380000D01*
X106680000Y-53340000D02*
X139700000Y-53340000D01*
D12*
X109220000Y-55880000D03*
X109220000Y-58420000D03*
X109220000Y-60960000D03*
X109220000Y-63500000D03*
X109220000Y-66040000D03*
X109220000Y-68580000D03*
X109220000Y-71120000D03*
X109220000Y-73660000D03*
X109220000Y-76200000D03*
X109220000Y-78740000D03*
X109220000Y-81280000D03*
X109220000Y-83820000D03*
X109220000Y-86360000D03*
X109220000Y-88900000D03*
X109220000Y-91440000D03*
D13*
X109220000Y-93980000D03*
D12*
X109220000Y-96520000D03*
X109220000Y-99060000D03*
X109220000Y-101600000D03*
X109220000Y-104140000D03*
X109220000Y-106680000D03*
X109220000Y-109220000D03*
X109220000Y-111760000D03*
X109220000Y-114300000D03*
X109220000Y-116840000D03*
X137160000Y-55880000D03*
X137160000Y-58420000D03*
X137160000Y-60960000D03*
X137160000Y-63500000D03*
X137160000Y-66040000D03*
X137160000Y-68580000D03*
X137160000Y-71120000D03*
X137160000Y-73660000D03*
X137160000Y-76200000D03*
X137160000Y-78740000D03*
X137160000Y-81280000D03*
X137160000Y-83820000D03*
X137160000Y-86360000D03*
X137160000Y-88900000D03*
X137160000Y-91440000D03*
D13*
X137160000Y-93980000D03*
D12*
X137160000Y-96520000D03*
X137160000Y-99060000D03*
X137160000Y-101600000D03*
X137160000Y-104140000D03*
X137160000Y-106680000D03*
X137160000Y-109220000D03*
X137160000Y-111760000D03*
X137160000Y-114300000D03*
X137160000Y-116840000D03*
D14*
X123444000Y-114300000D03*
X116586000Y-114300000D03*
X116586000Y-112776000D03*
X116586000Y-111506000D03*
X116586000Y-117094000D03*
X119888000Y-117094000D03*
X118110000Y-117094000D03*
X116586000Y-115824000D03*
X123444000Y-112776000D03*
X123444000Y-117094000D03*
X123444000Y-115824000D03*
X121666000Y-117094000D03*
X119888000Y-111506000D03*
X121666000Y-111506000D03*
X118110000Y-111506000D03*
X123444000Y-111506000D03*
D15*
X115570000Y-106426000D03*
X131064000Y-110490000D03*
X121602500Y-88900000D03*
X121920000Y-92075000D03*
X121920000Y-81915000D03*
X121602500Y-78740000D03*
X121602500Y-66040000D03*
X121920000Y-59055000D03*
X121920000Y-69215000D03*
X121602500Y-55880000D03*
X131064000Y-107442000D03*
X133604000Y-78232000D03*
X133604000Y-80264000D03*
X135382000Y-82042000D03*
X133604000Y-83566000D03*
X133604000Y-85598000D03*
X133604000Y-89408000D03*
X133604000Y-90424000D03*
X135382000Y-92202000D03*
X133604000Y-93980000D03*
X133604000Y-95758000D03*
X127000000Y-98552000D03*
X117856000Y-100838000D03*
X129794000Y-99822000D03*
X134620000Y-110490000D03*
X133858000Y-55626000D03*
X133858000Y-62738000D03*
X112522000Y-88392000D03*
X112522000Y-95758000D03*
X133604000Y-57404000D03*
X133604000Y-60706000D03*
X112776000Y-57404000D03*
X112522000Y-55372000D03*
X112776000Y-60706000D03*
X112522000Y-62738000D03*
X112522000Y-65532000D03*
X112776000Y-67564000D03*
X112776000Y-70866000D03*
X112522000Y-72898000D03*
X133858000Y-65532000D03*
X133604000Y-67564000D03*
X133858000Y-72898000D03*
X133604000Y-70866000D03*
X112522000Y-78232000D03*
X112776000Y-80264000D03*
X112522000Y-85598000D03*
X112776000Y-83566000D03*
X112776000Y-90424000D03*
X112776000Y-93980000D03*
X128905000Y-92075000D03*
X117475000Y-92075000D03*
X124460000Y-92075000D03*
X124777500Y-88900000D03*
X128905000Y-81915000D03*
X124460000Y-81915000D03*
X124777500Y-78740000D03*
X113665000Y-81915000D03*
X117475000Y-81915000D03*
X132715000Y-69215000D03*
X128905000Y-69215000D03*
D14*
X111760000Y-114300000D03*
X131127500Y-115252500D03*
D15*
X116840000Y-108204000D03*
X124777500Y-66040000D03*
X117475000Y-69215000D03*
X113665000Y-69215000D03*
D14*
X128905000Y-116840000D03*
D15*
X124460000Y-59055000D03*
X124460000Y-69215000D03*
X132715000Y-59055000D03*
X128905000Y-59055000D03*
X124777500Y-55880000D03*
X117157500Y-59055000D03*
X113665000Y-59055000D03*
X113665000Y-92075000D03*
X131064000Y-101346000D03*
X116840000Y-57150000D03*
X130302000Y-101854000D03*
X116840000Y-60960000D03*
X132599000Y-102605000D03*
X129794000Y-61214000D03*
X131826000Y-103378000D03*
X129794000Y-57150000D03*
X125984000Y-103886000D03*
X116586000Y-67310000D03*
X125984000Y-104648000D03*
X116586000Y-71120000D03*
X134112000Y-105156000D03*
X129794000Y-71120000D03*
X135890000Y-105918000D03*
X129794000Y-67310000D03*
X122428000Y-104140000D03*
X116586000Y-80010000D03*
X120904000Y-104902000D03*
X116586000Y-83820000D03*
X125984000Y-95504000D03*
X129794000Y-83820000D03*
X125476000Y-96012000D03*
X129794000Y-80010000D03*
X116586000Y-90170000D03*
X116586000Y-103124000D03*
X114554000Y-96774000D03*
X115570000Y-102108000D03*
X124968000Y-98044000D03*
X129794000Y-93980000D03*
X124968000Y-97282000D03*
X129794000Y-89916000D03*
X124968000Y-105664000D03*
X124460000Y-107188000D03*
X110998000Y-107950000D03*
D16*
G36*
X138990000Y-118670000D02*
X107390000Y-118670000D01*
X107390000Y-56144086D01*
X107886269Y-56144086D01*
X108088854Y-56634380D01*
X108463647Y-57009827D01*
X108801446Y-57150094D01*
X108465620Y-57288854D01*
X108090173Y-57663647D01*
X107886732Y-58153587D01*
X107886269Y-58684086D01*
X108088854Y-59174380D01*
X108463647Y-59549827D01*
X108801446Y-59690094D01*
X108465620Y-59828854D01*
X108090173Y-60203647D01*
X107886732Y-60693587D01*
X107886269Y-61224086D01*
X108088854Y-61714380D01*
X108463647Y-62089827D01*
X108801446Y-62230094D01*
X108465620Y-62368854D01*
X108090173Y-62743647D01*
X107886732Y-63233587D01*
X107886269Y-63764086D01*
X108088854Y-64254380D01*
X108463647Y-64629827D01*
X108801446Y-64770094D01*
X108465620Y-64908854D01*
X108090173Y-65283647D01*
X107886732Y-65773587D01*
X107886269Y-66304086D01*
X108088854Y-66794380D01*
X108463647Y-67169827D01*
X108801446Y-67310094D01*
X108465620Y-67448854D01*
X108090173Y-67823647D01*
X107886732Y-68313587D01*
X107886269Y-68844086D01*
X108088854Y-69334380D01*
X108463647Y-69709827D01*
X108801446Y-69850094D01*
X108465620Y-69988854D01*
X108090173Y-70363647D01*
X107886732Y-70853587D01*
X107886269Y-71384086D01*
X108088854Y-71874380D01*
X108463647Y-72249827D01*
X108801446Y-72390094D01*
X108465620Y-72528854D01*
X108090173Y-72903647D01*
X107886732Y-73393587D01*
X107886269Y-73924086D01*
X108088854Y-74414380D01*
X108463647Y-74789827D01*
X108801446Y-74930094D01*
X108465620Y-75068854D01*
X108090173Y-75443647D01*
X107886732Y-75933587D01*
X107886269Y-76464086D01*
X108088854Y-76954380D01*
X108463647Y-77329827D01*
X108801446Y-77470094D01*
X108465620Y-77608854D01*
X108090173Y-77983647D01*
X107886732Y-78473587D01*
X107886269Y-79004086D01*
X108088854Y-79494380D01*
X108463647Y-79869827D01*
X108801446Y-80010094D01*
X108465620Y-80148854D01*
X108090173Y-80523647D01*
X107886732Y-81013587D01*
X107886269Y-81544086D01*
X108088854Y-82034380D01*
X108463647Y-82409827D01*
X108801446Y-82550094D01*
X108465620Y-82688854D01*
X108090173Y-83063647D01*
X107886732Y-83553587D01*
X107886269Y-84084086D01*
X108088854Y-84574380D01*
X108463647Y-84949827D01*
X108801446Y-85090094D01*
X108465620Y-85228854D01*
X108090173Y-85603647D01*
X107886732Y-86093587D01*
X107886269Y-86624086D01*
X108088854Y-87114380D01*
X108463647Y-87489827D01*
X108801446Y-87630094D01*
X108465620Y-87768854D01*
X108090173Y-88143647D01*
X107886732Y-88633587D01*
X107886269Y-89164086D01*
X108088854Y-89654380D01*
X108463647Y-90029827D01*
X108801446Y-90170094D01*
X108465620Y-90308854D01*
X108090173Y-90683647D01*
X107886732Y-91173587D01*
X107886269Y-91704086D01*
X108088854Y-92194380D01*
X108463647Y-92569827D01*
X108884383Y-92744532D01*
X108501542Y-92902718D01*
X108143974Y-93259663D01*
X107950221Y-93726273D01*
X107949780Y-94231510D01*
X108142718Y-94698458D01*
X108499663Y-95056026D01*
X108884443Y-95215800D01*
X108465620Y-95388854D01*
X108090173Y-95763647D01*
X107886732Y-96253587D01*
X107886269Y-96784086D01*
X108088854Y-97274380D01*
X108463647Y-97649827D01*
X108801446Y-97790094D01*
X108465620Y-97928854D01*
X108090173Y-98303647D01*
X107886732Y-98793587D01*
X107886269Y-99324086D01*
X108088854Y-99814380D01*
X108463647Y-100189827D01*
X108801446Y-100330094D01*
X108465620Y-100468854D01*
X108090173Y-100843647D01*
X107886732Y-101333587D01*
X107886269Y-101864086D01*
X108088854Y-102354380D01*
X108463647Y-102729827D01*
X108801446Y-102870094D01*
X108465620Y-103008854D01*
X108090173Y-103383647D01*
X107886732Y-103873587D01*
X107886269Y-104404086D01*
X108088854Y-104894380D01*
X108463647Y-105269827D01*
X108801446Y-105410094D01*
X108465620Y-105548854D01*
X108090173Y-105923647D01*
X107886732Y-106413587D01*
X107886269Y-106944086D01*
X108088854Y-107434380D01*
X108463647Y-107809827D01*
X108801446Y-107950094D01*
X108465620Y-108088854D01*
X108090173Y-108463647D01*
X107886732Y-108953587D01*
X107886269Y-109484086D01*
X108088854Y-109974380D01*
X108463647Y-110349827D01*
X108801446Y-110490094D01*
X108465620Y-110628854D01*
X108090173Y-111003647D01*
X107886732Y-111493587D01*
X107886269Y-112024086D01*
X108088854Y-112514380D01*
X108463647Y-112889827D01*
X108801446Y-113030094D01*
X108465620Y-113168854D01*
X108090173Y-113543647D01*
X107886732Y-114033587D01*
X107886269Y-114564086D01*
X108088854Y-115054380D01*
X108463647Y-115429827D01*
X108801446Y-115570094D01*
X108465620Y-115708854D01*
X108090173Y-116083647D01*
X107886732Y-116573587D01*
X107886269Y-117104086D01*
X108088854Y-117594380D01*
X108463647Y-117969827D01*
X108953587Y-118173268D01*
X109484086Y-118173731D01*
X109974380Y-117971146D01*
X110349827Y-117596353D01*
X110553268Y-117106413D01*
X110553346Y-117016057D01*
X128015846Y-117016057D01*
X128150903Y-117342920D01*
X128400764Y-117593218D01*
X128727391Y-117728846D01*
X129081057Y-117729154D01*
X129407920Y-117594097D01*
X129658218Y-117344236D01*
X129793846Y-117017609D01*
X129794154Y-116663943D01*
X129659097Y-116337080D01*
X129409236Y-116086782D01*
X129082609Y-115951154D01*
X128728943Y-115950846D01*
X128402080Y-116085903D01*
X128151782Y-116335764D01*
X128016154Y-116662391D01*
X128015846Y-117016057D01*
X110553346Y-117016057D01*
X110553731Y-116575914D01*
X110351146Y-116085620D01*
X109976353Y-115710173D01*
X109638554Y-115569906D01*
X109974380Y-115431146D01*
X109976973Y-115428557D01*
X130238346Y-115428557D01*
X130373403Y-115755420D01*
X130623264Y-116005718D01*
X130949891Y-116141346D01*
X131303557Y-116141654D01*
X131630420Y-116006597D01*
X131880718Y-115756736D01*
X132016346Y-115430109D01*
X132016654Y-115076443D01*
X131881597Y-114749580D01*
X131631736Y-114499282D01*
X131305109Y-114363654D01*
X130951443Y-114363346D01*
X130624580Y-114498403D01*
X130374282Y-114748264D01*
X130238654Y-115074891D01*
X130238346Y-115428557D01*
X109976973Y-115428557D01*
X110349827Y-115056353D01*
X110553268Y-114566413D01*
X110553346Y-114476057D01*
X110870846Y-114476057D01*
X111005903Y-114802920D01*
X111255764Y-115053218D01*
X111582391Y-115188846D01*
X111936057Y-115189154D01*
X112262920Y-115054097D01*
X112513218Y-114804236D01*
X112648846Y-114477609D01*
X112649154Y-114123943D01*
X112514097Y-113797080D01*
X112264236Y-113546782D01*
X111937609Y-113411154D01*
X111583943Y-113410846D01*
X111257080Y-113545903D01*
X111006782Y-113795764D01*
X110871154Y-114122391D01*
X110870846Y-114476057D01*
X110553346Y-114476057D01*
X110553731Y-114035914D01*
X110351146Y-113545620D01*
X109976353Y-113170173D01*
X109638554Y-113029906D01*
X109974380Y-112891146D01*
X110349827Y-112516353D01*
X110553268Y-112026413D01*
X110553731Y-111495914D01*
X110351146Y-111005620D01*
X110002133Y-110655997D01*
X133781655Y-110655997D01*
X133908995Y-110964182D01*
X134144578Y-111200177D01*
X134452540Y-111328054D01*
X134785997Y-111328345D01*
X135094182Y-111201005D01*
X135330177Y-110965422D01*
X135458054Y-110657460D01*
X135458345Y-110324003D01*
X135331005Y-110015818D01*
X135095422Y-109779823D01*
X134787460Y-109651946D01*
X134454003Y-109651655D01*
X134145818Y-109778995D01*
X133909823Y-110014578D01*
X133781946Y-110322540D01*
X133781655Y-110655997D01*
X110002133Y-110655997D01*
X109976353Y-110630173D01*
X109638554Y-110489906D01*
X109974380Y-110351146D01*
X110349827Y-109976353D01*
X110553268Y-109486413D01*
X110553731Y-108955914D01*
X110367238Y-108504565D01*
X110522578Y-108660177D01*
X110830540Y-108788054D01*
X111163997Y-108788345D01*
X111472182Y-108661005D01*
X111708177Y-108425422D01*
X111731191Y-108369997D01*
X116001655Y-108369997D01*
X116128995Y-108678182D01*
X116364578Y-108914177D01*
X116672540Y-109042054D01*
X117005997Y-109042345D01*
X117314182Y-108915005D01*
X117550177Y-108679422D01*
X117678054Y-108371460D01*
X117678345Y-108038003D01*
X117551005Y-107729818D01*
X117315422Y-107493823D01*
X117007460Y-107365946D01*
X116674003Y-107365655D01*
X116365818Y-107492995D01*
X116129823Y-107728578D01*
X116001946Y-108036540D01*
X116001655Y-108369997D01*
X111731191Y-108369997D01*
X111836054Y-108117460D01*
X111836345Y-107784003D01*
X111709005Y-107475818D01*
X111587397Y-107353997D01*
X123621655Y-107353997D01*
X123748995Y-107662182D01*
X123984578Y-107898177D01*
X124292540Y-108026054D01*
X124625997Y-108026345D01*
X124934182Y-107899005D01*
X125170177Y-107663422D01*
X125193191Y-107607997D01*
X130225655Y-107607997D01*
X130352995Y-107916182D01*
X130588578Y-108152177D01*
X130896540Y-108280054D01*
X131229997Y-108280345D01*
X131538182Y-108153005D01*
X131774177Y-107917422D01*
X131902054Y-107609460D01*
X131902345Y-107276003D01*
X131775005Y-106967818D01*
X131539422Y-106731823D01*
X131231460Y-106603946D01*
X130898003Y-106603655D01*
X130589818Y-106730995D01*
X130353823Y-106966578D01*
X130225946Y-107274540D01*
X130225655Y-107607997D01*
X125193191Y-107607997D01*
X125298054Y-107355460D01*
X125298345Y-107022003D01*
X125171005Y-106713818D01*
X124959749Y-106502193D01*
X125133997Y-106502345D01*
X125442182Y-106375005D01*
X125678177Y-106139422D01*
X125701191Y-106083997D01*
X135051655Y-106083997D01*
X135178995Y-106392182D01*
X135414578Y-106628177D01*
X135722540Y-106756054D01*
X135826433Y-106756145D01*
X135826269Y-106944086D01*
X136028854Y-107434380D01*
X136403647Y-107809827D01*
X136741446Y-107950094D01*
X136405620Y-108088854D01*
X136030173Y-108463647D01*
X135826732Y-108953587D01*
X135826269Y-109484086D01*
X136028854Y-109974380D01*
X136403647Y-110349827D01*
X136741446Y-110490094D01*
X136405620Y-110628854D01*
X136030173Y-111003647D01*
X135826732Y-111493587D01*
X135826269Y-112024086D01*
X136028854Y-112514380D01*
X136403647Y-112889827D01*
X136741446Y-113030094D01*
X136405620Y-113168854D01*
X136030173Y-113543647D01*
X135826732Y-114033587D01*
X135826269Y-114564086D01*
X136028854Y-115054380D01*
X136403647Y-115429827D01*
X136741446Y-115570094D01*
X136405620Y-115708854D01*
X136030173Y-116083647D01*
X135826732Y-116573587D01*
X135826269Y-117104086D01*
X136028854Y-117594380D01*
X136403647Y-117969827D01*
X136893587Y-118173268D01*
X137424086Y-118173731D01*
X137914380Y-117971146D01*
X138289827Y-117596353D01*
X138493268Y-117106413D01*
X138493731Y-116575914D01*
X138291146Y-116085620D01*
X137916353Y-115710173D01*
X137578554Y-115569906D01*
X137914380Y-115431146D01*
X138289827Y-115056353D01*
X138493268Y-114566413D01*
X138493731Y-114035914D01*
X138291146Y-113545620D01*
X137916353Y-113170173D01*
X137578554Y-113029906D01*
X137914380Y-112891146D01*
X138289827Y-112516353D01*
X138493268Y-112026413D01*
X138493731Y-111495914D01*
X138291146Y-111005620D01*
X137916353Y-110630173D01*
X137578554Y-110489906D01*
X137914380Y-110351146D01*
X138289827Y-109976353D01*
X138493268Y-109486413D01*
X138493731Y-108955914D01*
X138291146Y-108465620D01*
X137916353Y-108090173D01*
X137578554Y-107949906D01*
X137914380Y-107811146D01*
X138289827Y-107436353D01*
X138493268Y-106946413D01*
X138493731Y-106415914D01*
X138291146Y-105925620D01*
X137916353Y-105550173D01*
X137594882Y-105416686D01*
X137852929Y-105309800D01*
X137914583Y-105074188D01*
X137160000Y-104319605D01*
X136405417Y-105074188D01*
X136467018Y-105309596D01*
X136365422Y-105207823D01*
X136057460Y-105079946D01*
X135724003Y-105079655D01*
X135415818Y-105206995D01*
X135179823Y-105442578D01*
X135051946Y-105750540D01*
X135051655Y-106083997D01*
X125701191Y-106083997D01*
X125806054Y-105831460D01*
X125806345Y-105498003D01*
X125798274Y-105478469D01*
X125816540Y-105486054D01*
X126149997Y-105486345D01*
X126458182Y-105359005D01*
X126495254Y-105321997D01*
X133273655Y-105321997D01*
X133400995Y-105630182D01*
X133636578Y-105866177D01*
X133944540Y-105994054D01*
X134277997Y-105994345D01*
X134586182Y-105867005D01*
X134822177Y-105631422D01*
X134950054Y-105323460D01*
X134950345Y-104990003D01*
X134823005Y-104681818D01*
X134587422Y-104445823D01*
X134279460Y-104317946D01*
X133946003Y-104317655D01*
X133637818Y-104444995D01*
X133401823Y-104680578D01*
X133273946Y-104988540D01*
X133273655Y-105321997D01*
X126495254Y-105321997D01*
X126694177Y-105123422D01*
X126822054Y-104815460D01*
X126822345Y-104482003D01*
X126733446Y-104266852D01*
X126822054Y-104053460D01*
X126822345Y-103720003D01*
X126749621Y-103543997D01*
X130987655Y-103543997D01*
X131114995Y-103852182D01*
X131350578Y-104088177D01*
X131658540Y-104216054D01*
X131991997Y-104216345D01*
X132300182Y-104089005D01*
X132441954Y-103947480D01*
X135814073Y-103947480D01*
X135842852Y-104477199D01*
X135990200Y-104832929D01*
X136225812Y-104894583D01*
X136980395Y-104140000D01*
X137339605Y-104140000D01*
X138094188Y-104894583D01*
X138329800Y-104832929D01*
X138505927Y-104332520D01*
X138477148Y-103802801D01*
X138329800Y-103447071D01*
X138094188Y-103385417D01*
X137339605Y-104140000D01*
X136980395Y-104140000D01*
X136225812Y-103385417D01*
X135990200Y-103447071D01*
X135814073Y-103947480D01*
X132441954Y-103947480D01*
X132536177Y-103853422D01*
X132664054Y-103545460D01*
X132664143Y-103443257D01*
X132764997Y-103443345D01*
X133073182Y-103316005D01*
X133309177Y-103080422D01*
X133437054Y-102772460D01*
X133437345Y-102439003D01*
X133310005Y-102130818D01*
X133074422Y-101894823D01*
X132766460Y-101766946D01*
X132433003Y-101766655D01*
X132124818Y-101893995D01*
X131888823Y-102129578D01*
X131760946Y-102437540D01*
X131760857Y-102539743D01*
X131660003Y-102539655D01*
X131351818Y-102666995D01*
X131115823Y-102902578D01*
X130987946Y-103210540D01*
X130987655Y-103543997D01*
X126749621Y-103543997D01*
X126695005Y-103411818D01*
X126459422Y-103175823D01*
X126151460Y-103047946D01*
X125818003Y-103047655D01*
X125509818Y-103174995D01*
X125273823Y-103410578D01*
X125145946Y-103718540D01*
X125145655Y-104051997D01*
X125234554Y-104267148D01*
X125145946Y-104480540D01*
X125145655Y-104813997D01*
X125153726Y-104833531D01*
X125135460Y-104825946D01*
X124802003Y-104825655D01*
X124493818Y-104952995D01*
X124257823Y-105188578D01*
X124129946Y-105496540D01*
X124129655Y-105829997D01*
X124256995Y-106138182D01*
X124468251Y-106349807D01*
X124294003Y-106349655D01*
X123985818Y-106476995D01*
X123749823Y-106712578D01*
X123621946Y-107020540D01*
X123621655Y-107353997D01*
X111587397Y-107353997D01*
X111473422Y-107239823D01*
X111165460Y-107111946D01*
X110832003Y-107111655D01*
X110523818Y-107238995D01*
X110366615Y-107395924D01*
X110553268Y-106946413D01*
X110553731Y-106415914D01*
X110351146Y-105925620D01*
X109976353Y-105550173D01*
X109638554Y-105409906D01*
X109974380Y-105271146D01*
X110177883Y-105067997D01*
X120065655Y-105067997D01*
X120192995Y-105376182D01*
X120428578Y-105612177D01*
X120736540Y-105740054D01*
X121069997Y-105740345D01*
X121378182Y-105613005D01*
X121614177Y-105377422D01*
X121742054Y-105069460D01*
X121742345Y-104736003D01*
X121615005Y-104427818D01*
X121493397Y-104305997D01*
X121589655Y-104305997D01*
X121716995Y-104614182D01*
X121952578Y-104850177D01*
X122260540Y-104978054D01*
X122593997Y-104978345D01*
X122902182Y-104851005D01*
X123138177Y-104615422D01*
X123266054Y-104307460D01*
X123266345Y-103974003D01*
X123139005Y-103665818D01*
X122903422Y-103429823D01*
X122595460Y-103301946D01*
X122262003Y-103301655D01*
X121953818Y-103428995D01*
X121717823Y-103664578D01*
X121589946Y-103972540D01*
X121589655Y-104305997D01*
X121493397Y-104305997D01*
X121379422Y-104191823D01*
X121071460Y-104063946D01*
X120738003Y-104063655D01*
X120429818Y-104190995D01*
X120193823Y-104426578D01*
X120065946Y-104734540D01*
X120065655Y-105067997D01*
X110177883Y-105067997D01*
X110349827Y-104896353D01*
X110553268Y-104406413D01*
X110553731Y-103875914D01*
X110351146Y-103385620D01*
X109976353Y-103010173D01*
X109638554Y-102869906D01*
X109974380Y-102731146D01*
X110349827Y-102356353D01*
X110384024Y-102273997D01*
X114731655Y-102273997D01*
X114858995Y-102582182D01*
X115094578Y-102818177D01*
X115402540Y-102946054D01*
X115735997Y-102946345D01*
X115755531Y-102938274D01*
X115747946Y-102956540D01*
X115747655Y-103289997D01*
X115874995Y-103598182D01*
X116110578Y-103834177D01*
X116418540Y-103962054D01*
X116751997Y-103962345D01*
X117060182Y-103835005D01*
X117296177Y-103599422D01*
X117424054Y-103291460D01*
X117424345Y-102958003D01*
X117297005Y-102649818D01*
X117061422Y-102413823D01*
X116753460Y-102285946D01*
X116420003Y-102285655D01*
X116400469Y-102293726D01*
X116408054Y-102275460D01*
X116408276Y-102019997D01*
X129463655Y-102019997D01*
X129590995Y-102328182D01*
X129826578Y-102564177D01*
X130134540Y-102692054D01*
X130467997Y-102692345D01*
X130776182Y-102565005D01*
X131012177Y-102329422D01*
X131072475Y-102184208D01*
X131229997Y-102184345D01*
X131538182Y-102057005D01*
X131774177Y-101821422D01*
X131902054Y-101513460D01*
X131902345Y-101180003D01*
X131775005Y-100871818D01*
X131539422Y-100635823D01*
X131231460Y-100507946D01*
X130898003Y-100507655D01*
X130589818Y-100634995D01*
X130353823Y-100870578D01*
X130293525Y-101015792D01*
X130136003Y-101015655D01*
X129827818Y-101142995D01*
X129591823Y-101378578D01*
X129463946Y-101686540D01*
X129463655Y-102019997D01*
X116408276Y-102019997D01*
X116408345Y-101942003D01*
X116281005Y-101633818D01*
X116045422Y-101397823D01*
X115737460Y-101269946D01*
X115404003Y-101269655D01*
X115095818Y-101396995D01*
X114859823Y-101632578D01*
X114731946Y-101940540D01*
X114731655Y-102273997D01*
X110384024Y-102273997D01*
X110553268Y-101866413D01*
X110553731Y-101335914D01*
X110416586Y-101003997D01*
X117017655Y-101003997D01*
X117144995Y-101312182D01*
X117380578Y-101548177D01*
X117688540Y-101676054D01*
X118021997Y-101676345D01*
X118330182Y-101549005D01*
X118566177Y-101313422D01*
X118694054Y-101005460D01*
X118694345Y-100672003D01*
X118567005Y-100363818D01*
X118331422Y-100127823D01*
X118023460Y-99999946D01*
X117690003Y-99999655D01*
X117381818Y-100126995D01*
X117145823Y-100362578D01*
X117017946Y-100670540D01*
X117017655Y-101003997D01*
X110416586Y-101003997D01*
X110351146Y-100845620D01*
X109976353Y-100470173D01*
X109638554Y-100329906D01*
X109974380Y-100191146D01*
X110177883Y-99987997D01*
X128955655Y-99987997D01*
X129082995Y-100296182D01*
X129318578Y-100532177D01*
X129626540Y-100660054D01*
X129959997Y-100660345D01*
X130268182Y-100533005D01*
X130504177Y-100297422D01*
X130632054Y-99989460D01*
X130632345Y-99656003D01*
X130505005Y-99347818D01*
X130269422Y-99111823D01*
X129961460Y-98983946D01*
X129628003Y-98983655D01*
X129319818Y-99110995D01*
X129083823Y-99346578D01*
X128955946Y-99654540D01*
X128955655Y-99987997D01*
X110177883Y-99987997D01*
X110349827Y-99816353D01*
X110553268Y-99326413D01*
X110553731Y-98795914D01*
X110351146Y-98305620D01*
X109976353Y-97930173D01*
X109638554Y-97789906D01*
X109974380Y-97651146D01*
X110349827Y-97276353D01*
X110489494Y-96939997D01*
X113715655Y-96939997D01*
X113842995Y-97248182D01*
X114078578Y-97484177D01*
X114386540Y-97612054D01*
X114719997Y-97612345D01*
X115028182Y-97485005D01*
X115065254Y-97447997D01*
X124129655Y-97447997D01*
X124218554Y-97663148D01*
X124129946Y-97876540D01*
X124129655Y-98209997D01*
X124256995Y-98518182D01*
X124492578Y-98754177D01*
X124800540Y-98882054D01*
X125133997Y-98882345D01*
X125442182Y-98755005D01*
X125479254Y-98717997D01*
X126161655Y-98717997D01*
X126288995Y-99026182D01*
X126524578Y-99262177D01*
X126832540Y-99390054D01*
X127165997Y-99390345D01*
X127474182Y-99263005D01*
X127710177Y-99027422D01*
X127838054Y-98719460D01*
X127838345Y-98386003D01*
X127711005Y-98077818D01*
X127475422Y-97841823D01*
X127167460Y-97713946D01*
X126834003Y-97713655D01*
X126525818Y-97840995D01*
X126289823Y-98076578D01*
X126161946Y-98384540D01*
X126161655Y-98717997D01*
X125479254Y-98717997D01*
X125678177Y-98519422D01*
X125806054Y-98211460D01*
X125806345Y-97878003D01*
X125717446Y-97662852D01*
X125806054Y-97449460D01*
X125806345Y-97116003D01*
X125688617Y-96831082D01*
X125950182Y-96723005D01*
X126186177Y-96487422D01*
X126266388Y-96294253D01*
X126458182Y-96215005D01*
X126694177Y-95979422D01*
X126717191Y-95923997D01*
X132765655Y-95923997D01*
X132892995Y-96232182D01*
X133128578Y-96468177D01*
X133436540Y-96596054D01*
X133769997Y-96596345D01*
X134078182Y-96469005D01*
X134314177Y-96233422D01*
X134442054Y-95925460D01*
X134442345Y-95592003D01*
X134315005Y-95283818D01*
X134079422Y-95047823D01*
X133771460Y-94919946D01*
X133438003Y-94919655D01*
X133129818Y-95046995D01*
X132893823Y-95282578D01*
X132765946Y-95590540D01*
X132765655Y-95923997D01*
X126717191Y-95923997D01*
X126822054Y-95671460D01*
X126822345Y-95338003D01*
X126695005Y-95029818D01*
X126459422Y-94793823D01*
X126151460Y-94665946D01*
X125818003Y-94665655D01*
X125509818Y-94792995D01*
X125273823Y-95028578D01*
X125193612Y-95221747D01*
X125001818Y-95300995D01*
X124765823Y-95536578D01*
X124637946Y-95844540D01*
X124637655Y-96177997D01*
X124755383Y-96462918D01*
X124493818Y-96570995D01*
X124257823Y-96806578D01*
X124129946Y-97114540D01*
X124129655Y-97447997D01*
X115065254Y-97447997D01*
X115264177Y-97249422D01*
X115392054Y-96941460D01*
X115392345Y-96608003D01*
X115265005Y-96299818D01*
X115029422Y-96063823D01*
X114721460Y-95935946D01*
X114388003Y-95935655D01*
X114079818Y-96062995D01*
X113843823Y-96298578D01*
X113715946Y-96606540D01*
X113715655Y-96939997D01*
X110489494Y-96939997D01*
X110553268Y-96786413D01*
X110553731Y-96255914D01*
X110416586Y-95923997D01*
X111683655Y-95923997D01*
X111810995Y-96232182D01*
X112046578Y-96468177D01*
X112354540Y-96596054D01*
X112687997Y-96596345D01*
X112996182Y-96469005D01*
X113232177Y-96233422D01*
X113360054Y-95925460D01*
X113360345Y-95592003D01*
X113233005Y-95283818D01*
X112997422Y-95047823D01*
X112689460Y-94919946D01*
X112356003Y-94919655D01*
X112047818Y-95046995D01*
X111811823Y-95282578D01*
X111683946Y-95590540D01*
X111683655Y-95923997D01*
X110416586Y-95923997D01*
X110351146Y-95765620D01*
X109976353Y-95390173D01*
X109555617Y-95215468D01*
X109938458Y-95057282D01*
X110296026Y-94700337D01*
X110489779Y-94233727D01*
X110489855Y-94145997D01*
X111937655Y-94145997D01*
X112064995Y-94454182D01*
X112300578Y-94690177D01*
X112608540Y-94818054D01*
X112941997Y-94818345D01*
X113250182Y-94691005D01*
X113486177Y-94455422D01*
X113614054Y-94147460D01*
X113614055Y-94145997D01*
X128955655Y-94145997D01*
X129082995Y-94454182D01*
X129318578Y-94690177D01*
X129626540Y-94818054D01*
X129959997Y-94818345D01*
X130268182Y-94691005D01*
X130504177Y-94455422D01*
X130632054Y-94147460D01*
X130632055Y-94145997D01*
X132765655Y-94145997D01*
X132892995Y-94454182D01*
X133128578Y-94690177D01*
X133436540Y-94818054D01*
X133769997Y-94818345D01*
X134078182Y-94691005D01*
X134314177Y-94455422D01*
X134442054Y-94147460D01*
X134442345Y-93814003D01*
X134315005Y-93505818D01*
X134079422Y-93269823D01*
X133771460Y-93141946D01*
X133438003Y-93141655D01*
X133129818Y-93268995D01*
X132893823Y-93504578D01*
X132765946Y-93812540D01*
X132765655Y-94145997D01*
X130632055Y-94145997D01*
X130632345Y-93814003D01*
X130505005Y-93505818D01*
X130269422Y-93269823D01*
X129961460Y-93141946D01*
X129628003Y-93141655D01*
X129319818Y-93268995D01*
X129083823Y-93504578D01*
X128955946Y-93812540D01*
X128955655Y-94145997D01*
X113614055Y-94145997D01*
X113614345Y-93814003D01*
X113487005Y-93505818D01*
X113251422Y-93269823D01*
X112943460Y-93141946D01*
X112610003Y-93141655D01*
X112301818Y-93268995D01*
X112065823Y-93504578D01*
X111937946Y-93812540D01*
X111937655Y-94145997D01*
X110489855Y-94145997D01*
X110490220Y-93728490D01*
X110297282Y-93261542D01*
X109940337Y-92903974D01*
X109555557Y-92744200D01*
X109974380Y-92571146D01*
X110305105Y-92240997D01*
X112826655Y-92240997D01*
X112953995Y-92549182D01*
X113189578Y-92785177D01*
X113497540Y-92913054D01*
X113830997Y-92913345D01*
X114139182Y-92786005D01*
X114375177Y-92550422D01*
X114503054Y-92242460D01*
X114503055Y-92240997D01*
X116636655Y-92240997D01*
X116763995Y-92549182D01*
X116999578Y-92785177D01*
X117307540Y-92913054D01*
X117640997Y-92913345D01*
X117949182Y-92786005D01*
X118185177Y-92550422D01*
X118313054Y-92242460D01*
X118313055Y-92240997D01*
X123621655Y-92240997D01*
X123748995Y-92549182D01*
X123984578Y-92785177D01*
X124292540Y-92913054D01*
X124625997Y-92913345D01*
X124934182Y-92786005D01*
X125170177Y-92550422D01*
X125298054Y-92242460D01*
X125298055Y-92240997D01*
X128066655Y-92240997D01*
X128193995Y-92549182D01*
X128429578Y-92785177D01*
X128737540Y-92913054D01*
X129070997Y-92913345D01*
X129379182Y-92786005D01*
X129615177Y-92550422D01*
X129743054Y-92242460D01*
X129743345Y-91909003D01*
X129616005Y-91600818D01*
X129380422Y-91364823D01*
X129072460Y-91236946D01*
X128739003Y-91236655D01*
X128430818Y-91363995D01*
X128194823Y-91599578D01*
X128066946Y-91907540D01*
X128066655Y-92240997D01*
X125298055Y-92240997D01*
X125298345Y-91909003D01*
X125171005Y-91600818D01*
X124935422Y-91364823D01*
X124627460Y-91236946D01*
X124294003Y-91236655D01*
X123985818Y-91363995D01*
X123749823Y-91599578D01*
X123621946Y-91907540D01*
X123621655Y-92240997D01*
X118313055Y-92240997D01*
X118313345Y-91909003D01*
X118186005Y-91600818D01*
X117950422Y-91364823D01*
X117642460Y-91236946D01*
X117309003Y-91236655D01*
X117000818Y-91363995D01*
X116764823Y-91599578D01*
X116636946Y-91907540D01*
X116636655Y-92240997D01*
X114503055Y-92240997D01*
X114503345Y-91909003D01*
X114376005Y-91600818D01*
X114140422Y-91364823D01*
X113832460Y-91236946D01*
X113499003Y-91236655D01*
X113190818Y-91363995D01*
X112954823Y-91599578D01*
X112826946Y-91907540D01*
X112826655Y-92240997D01*
X110305105Y-92240997D01*
X110349827Y-92196353D01*
X110553268Y-91706413D01*
X110553731Y-91175914D01*
X110351146Y-90685620D01*
X110255690Y-90589997D01*
X111937655Y-90589997D01*
X112064995Y-90898182D01*
X112300578Y-91134177D01*
X112608540Y-91262054D01*
X112941997Y-91262345D01*
X113250182Y-91135005D01*
X113486177Y-90899422D01*
X113614054Y-90591460D01*
X113614276Y-90335997D01*
X115747655Y-90335997D01*
X115874995Y-90644182D01*
X116110578Y-90880177D01*
X116418540Y-91008054D01*
X116751997Y-91008345D01*
X117060182Y-90881005D01*
X117296177Y-90645422D01*
X117424054Y-90337460D01*
X117424276Y-90081997D01*
X128955655Y-90081997D01*
X129082995Y-90390182D01*
X129318578Y-90626177D01*
X129626540Y-90754054D01*
X129959997Y-90754345D01*
X130268182Y-90627005D01*
X130504177Y-90391422D01*
X130632054Y-90083460D01*
X130632345Y-89750003D01*
X130559621Y-89573997D01*
X132765655Y-89573997D01*
X132892995Y-89882182D01*
X132926606Y-89915852D01*
X132893823Y-89948578D01*
X132765946Y-90256540D01*
X132765655Y-90589997D01*
X132892995Y-90898182D01*
X133128578Y-91134177D01*
X133436540Y-91262054D01*
X133769997Y-91262345D01*
X134078182Y-91135005D01*
X134314177Y-90899422D01*
X134442054Y-90591460D01*
X134442345Y-90258003D01*
X134315005Y-89949818D01*
X134281394Y-89916148D01*
X134314177Y-89883422D01*
X134442054Y-89575460D01*
X134442345Y-89242003D01*
X134315005Y-88933818D01*
X134079422Y-88697823D01*
X133771460Y-88569946D01*
X133438003Y-88569655D01*
X133129818Y-88696995D01*
X132893823Y-88932578D01*
X132765946Y-89240540D01*
X132765655Y-89573997D01*
X130559621Y-89573997D01*
X130505005Y-89441818D01*
X130269422Y-89205823D01*
X129961460Y-89077946D01*
X129628003Y-89077655D01*
X129319818Y-89204995D01*
X129083823Y-89440578D01*
X128955946Y-89748540D01*
X128955655Y-90081997D01*
X117424276Y-90081997D01*
X117424345Y-90004003D01*
X117297005Y-89695818D01*
X117061422Y-89459823D01*
X116753460Y-89331946D01*
X116420003Y-89331655D01*
X116111818Y-89458995D01*
X115875823Y-89694578D01*
X115747946Y-90002540D01*
X115747655Y-90335997D01*
X113614276Y-90335997D01*
X113614345Y-90258003D01*
X113487005Y-89949818D01*
X113251422Y-89713823D01*
X112943460Y-89585946D01*
X112610003Y-89585655D01*
X112301818Y-89712995D01*
X112065823Y-89948578D01*
X111937946Y-90256540D01*
X111937655Y-90589997D01*
X110255690Y-90589997D01*
X109976353Y-90310173D01*
X109638554Y-90169906D01*
X109974380Y-90031146D01*
X110349827Y-89656353D01*
X110553268Y-89166413D01*
X110553731Y-88635914D01*
X110521537Y-88557997D01*
X111683655Y-88557997D01*
X111810995Y-88866182D01*
X112046578Y-89102177D01*
X112354540Y-89230054D01*
X112687997Y-89230345D01*
X112996182Y-89103005D01*
X113033254Y-89065997D01*
X123939155Y-89065997D01*
X124066495Y-89374182D01*
X124302078Y-89610177D01*
X124610040Y-89738054D01*
X124943497Y-89738345D01*
X125251682Y-89611005D01*
X125487677Y-89375422D01*
X125615554Y-89067460D01*
X125615845Y-88734003D01*
X125488505Y-88425818D01*
X125252922Y-88189823D01*
X124944960Y-88061946D01*
X124611503Y-88061655D01*
X124303318Y-88188995D01*
X124067323Y-88424578D01*
X123939446Y-88732540D01*
X123939155Y-89065997D01*
X113033254Y-89065997D01*
X113232177Y-88867422D01*
X113360054Y-88559460D01*
X113360345Y-88226003D01*
X113233005Y-87917818D01*
X112997422Y-87681823D01*
X112689460Y-87553946D01*
X112356003Y-87553655D01*
X112047818Y-87680995D01*
X111811823Y-87916578D01*
X111683946Y-88224540D01*
X111683655Y-88557997D01*
X110521537Y-88557997D01*
X110351146Y-88145620D01*
X109976353Y-87770173D01*
X109638554Y-87629906D01*
X109974380Y-87491146D01*
X110349827Y-87116353D01*
X110553268Y-86626413D01*
X110553731Y-86095914D01*
X110416586Y-85763997D01*
X111683655Y-85763997D01*
X111810995Y-86072182D01*
X112046578Y-86308177D01*
X112354540Y-86436054D01*
X112687997Y-86436345D01*
X112996182Y-86309005D01*
X113232177Y-86073422D01*
X113360054Y-85765460D01*
X113360055Y-85763997D01*
X132765655Y-85763997D01*
X132892995Y-86072182D01*
X133128578Y-86308177D01*
X133436540Y-86436054D01*
X133769997Y-86436345D01*
X134078182Y-86309005D01*
X134314177Y-86073422D01*
X134442054Y-85765460D01*
X134442345Y-85432003D01*
X134315005Y-85123818D01*
X134079422Y-84887823D01*
X133771460Y-84759946D01*
X133438003Y-84759655D01*
X133129818Y-84886995D01*
X132893823Y-85122578D01*
X132765946Y-85430540D01*
X132765655Y-85763997D01*
X113360055Y-85763997D01*
X113360345Y-85432003D01*
X113233005Y-85123818D01*
X112997422Y-84887823D01*
X112689460Y-84759946D01*
X112356003Y-84759655D01*
X112047818Y-84886995D01*
X111811823Y-85122578D01*
X111683946Y-85430540D01*
X111683655Y-85763997D01*
X110416586Y-85763997D01*
X110351146Y-85605620D01*
X109976353Y-85230173D01*
X109638554Y-85089906D01*
X109974380Y-84951146D01*
X110349827Y-84576353D01*
X110553268Y-84086413D01*
X110553577Y-83731997D01*
X111937655Y-83731997D01*
X112064995Y-84040182D01*
X112300578Y-84276177D01*
X112608540Y-84404054D01*
X112941997Y-84404345D01*
X113250182Y-84277005D01*
X113486177Y-84041422D01*
X113509191Y-83985997D01*
X115747655Y-83985997D01*
X115874995Y-84294182D01*
X116110578Y-84530177D01*
X116418540Y-84658054D01*
X116751997Y-84658345D01*
X117060182Y-84531005D01*
X117296177Y-84295422D01*
X117424054Y-83987460D01*
X117424055Y-83985997D01*
X128955655Y-83985997D01*
X129082995Y-84294182D01*
X129318578Y-84530177D01*
X129626540Y-84658054D01*
X129959997Y-84658345D01*
X130268182Y-84531005D01*
X130504177Y-84295422D01*
X130632054Y-83987460D01*
X130632276Y-83731997D01*
X132765655Y-83731997D01*
X132892995Y-84040182D01*
X133128578Y-84276177D01*
X133436540Y-84404054D01*
X133769997Y-84404345D01*
X134078182Y-84277005D01*
X134314177Y-84041422D01*
X134442054Y-83733460D01*
X134442345Y-83400003D01*
X134315005Y-83091818D01*
X134079422Y-82855823D01*
X133771460Y-82727946D01*
X133438003Y-82727655D01*
X133129818Y-82854995D01*
X132893823Y-83090578D01*
X132765946Y-83398540D01*
X132765655Y-83731997D01*
X130632276Y-83731997D01*
X130632345Y-83654003D01*
X130505005Y-83345818D01*
X130269422Y-83109823D01*
X129961460Y-82981946D01*
X129628003Y-82981655D01*
X129319818Y-83108995D01*
X129083823Y-83344578D01*
X128955946Y-83652540D01*
X128955655Y-83985997D01*
X117424055Y-83985997D01*
X117424345Y-83654003D01*
X117297005Y-83345818D01*
X117061422Y-83109823D01*
X116753460Y-82981946D01*
X116420003Y-82981655D01*
X116111818Y-83108995D01*
X115875823Y-83344578D01*
X115747946Y-83652540D01*
X115747655Y-83985997D01*
X113509191Y-83985997D01*
X113614054Y-83733460D01*
X113614345Y-83400003D01*
X113487005Y-83091818D01*
X113251422Y-82855823D01*
X112943460Y-82727946D01*
X112610003Y-82727655D01*
X112301818Y-82854995D01*
X112065823Y-83090578D01*
X111937946Y-83398540D01*
X111937655Y-83731997D01*
X110553577Y-83731997D01*
X110553731Y-83555914D01*
X110351146Y-83065620D01*
X109976353Y-82690173D01*
X109638554Y-82549906D01*
X109974380Y-82411146D01*
X110305105Y-82080997D01*
X112826655Y-82080997D01*
X112953995Y-82389182D01*
X113189578Y-82625177D01*
X113497540Y-82753054D01*
X113830997Y-82753345D01*
X114139182Y-82626005D01*
X114375177Y-82390422D01*
X114503054Y-82082460D01*
X114503055Y-82080997D01*
X116636655Y-82080997D01*
X116763995Y-82389182D01*
X116999578Y-82625177D01*
X117307540Y-82753054D01*
X117640997Y-82753345D01*
X117949182Y-82626005D01*
X118185177Y-82390422D01*
X118313054Y-82082460D01*
X118313055Y-82080997D01*
X123621655Y-82080997D01*
X123748995Y-82389182D01*
X123984578Y-82625177D01*
X124292540Y-82753054D01*
X124625997Y-82753345D01*
X124934182Y-82626005D01*
X125170177Y-82390422D01*
X125298054Y-82082460D01*
X125298055Y-82080997D01*
X128066655Y-82080997D01*
X128193995Y-82389182D01*
X128429578Y-82625177D01*
X128737540Y-82753054D01*
X129070997Y-82753345D01*
X129379182Y-82626005D01*
X129615177Y-82390422D01*
X129690926Y-82207997D01*
X134543655Y-82207997D01*
X134670995Y-82516182D01*
X134906578Y-82752177D01*
X135214540Y-82880054D01*
X135547997Y-82880345D01*
X135856182Y-82753005D01*
X136092177Y-82517422D01*
X136215229Y-82221080D01*
X136403647Y-82409827D01*
X136741446Y-82550094D01*
X136405620Y-82688854D01*
X136030173Y-83063647D01*
X135826732Y-83553587D01*
X135826269Y-84084086D01*
X136028854Y-84574380D01*
X136403647Y-84949827D01*
X136741446Y-85090094D01*
X136405620Y-85228854D01*
X136030173Y-85603647D01*
X135826732Y-86093587D01*
X135826269Y-86624086D01*
X136028854Y-87114380D01*
X136403647Y-87489827D01*
X136741446Y-87630094D01*
X136405620Y-87768854D01*
X136030173Y-88143647D01*
X135826732Y-88633587D01*
X135826269Y-89164086D01*
X136028854Y-89654380D01*
X136403647Y-90029827D01*
X136741446Y-90170094D01*
X136405620Y-90308854D01*
X136030173Y-90683647D01*
X135826732Y-91173587D01*
X135826465Y-91478969D01*
X135549460Y-91363946D01*
X135216003Y-91363655D01*
X134907818Y-91490995D01*
X134671823Y-91726578D01*
X134543946Y-92034540D01*
X134543655Y-92367997D01*
X134670995Y-92676182D01*
X134906578Y-92912177D01*
X135214540Y-93040054D01*
X135547997Y-93040345D01*
X135856182Y-92913005D01*
X136092177Y-92677422D01*
X136215229Y-92381080D01*
X136403647Y-92569827D01*
X136824383Y-92744532D01*
X136441542Y-92902718D01*
X136083974Y-93259663D01*
X135890221Y-93726273D01*
X135889780Y-94231510D01*
X136082718Y-94698458D01*
X136439663Y-95056026D01*
X136824443Y-95215800D01*
X136405620Y-95388854D01*
X136030173Y-95763647D01*
X135826732Y-96253587D01*
X135826269Y-96784086D01*
X136028854Y-97274380D01*
X136403647Y-97649827D01*
X136741446Y-97790094D01*
X136405620Y-97928854D01*
X136030173Y-98303647D01*
X135826732Y-98793587D01*
X135826269Y-99324086D01*
X136028854Y-99814380D01*
X136403647Y-100189827D01*
X136741446Y-100330094D01*
X136405620Y-100468854D01*
X136030173Y-100843647D01*
X135826732Y-101333587D01*
X135826269Y-101864086D01*
X136028854Y-102354380D01*
X136403647Y-102729827D01*
X136725118Y-102863314D01*
X136467071Y-102970200D01*
X136405417Y-103205812D01*
X137160000Y-103960395D01*
X137914583Y-103205812D01*
X137852929Y-102970200D01*
X137573688Y-102871917D01*
X137914380Y-102731146D01*
X138289827Y-102356353D01*
X138493268Y-101866413D01*
X138493731Y-101335914D01*
X138291146Y-100845620D01*
X137916353Y-100470173D01*
X137578554Y-100329906D01*
X137914380Y-100191146D01*
X138289827Y-99816353D01*
X138493268Y-99326413D01*
X138493731Y-98795914D01*
X138291146Y-98305620D01*
X137916353Y-97930173D01*
X137578554Y-97789906D01*
X137914380Y-97651146D01*
X138289827Y-97276353D01*
X138493268Y-96786413D01*
X138493731Y-96255914D01*
X138291146Y-95765620D01*
X137916353Y-95390173D01*
X137495617Y-95215468D01*
X137878458Y-95057282D01*
X138236026Y-94700337D01*
X138429779Y-94233727D01*
X138430220Y-93728490D01*
X138237282Y-93261542D01*
X137880337Y-92903974D01*
X137495557Y-92744200D01*
X137914380Y-92571146D01*
X138289827Y-92196353D01*
X138493268Y-91706413D01*
X138493731Y-91175914D01*
X138291146Y-90685620D01*
X137916353Y-90310173D01*
X137578554Y-90169906D01*
X137914380Y-90031146D01*
X138289827Y-89656353D01*
X138493268Y-89166413D01*
X138493731Y-88635914D01*
X138291146Y-88145620D01*
X137916353Y-87770173D01*
X137578554Y-87629906D01*
X137914380Y-87491146D01*
X138289827Y-87116353D01*
X138493268Y-86626413D01*
X138493731Y-86095914D01*
X138291146Y-85605620D01*
X137916353Y-85230173D01*
X137578554Y-85089906D01*
X137914380Y-84951146D01*
X138289827Y-84576353D01*
X138493268Y-84086413D01*
X138493731Y-83555914D01*
X138291146Y-83065620D01*
X137916353Y-82690173D01*
X137578554Y-82549906D01*
X137914380Y-82411146D01*
X138289827Y-82036353D01*
X138493268Y-81546413D01*
X138493731Y-81015914D01*
X138291146Y-80525620D01*
X137916353Y-80150173D01*
X137578554Y-80009906D01*
X137914380Y-79871146D01*
X138289827Y-79496353D01*
X138493268Y-79006413D01*
X138493731Y-78475914D01*
X138291146Y-77985620D01*
X137916353Y-77610173D01*
X137578554Y-77469906D01*
X137914380Y-77331146D01*
X138289827Y-76956353D01*
X138493268Y-76466413D01*
X138493731Y-75935914D01*
X138291146Y-75445620D01*
X137916353Y-75070173D01*
X137578554Y-74929906D01*
X137914380Y-74791146D01*
X138289827Y-74416353D01*
X138493268Y-73926413D01*
X138493731Y-73395914D01*
X138291146Y-72905620D01*
X137916353Y-72530173D01*
X137578554Y-72389906D01*
X137914380Y-72251146D01*
X138289827Y-71876353D01*
X138493268Y-71386413D01*
X138493731Y-70855914D01*
X138291146Y-70365620D01*
X137916353Y-69990173D01*
X137578554Y-69849906D01*
X137914380Y-69711146D01*
X138289827Y-69336353D01*
X138493268Y-68846413D01*
X138493731Y-68315914D01*
X138291146Y-67825620D01*
X137916353Y-67450173D01*
X137578554Y-67309906D01*
X137914380Y-67171146D01*
X138289827Y-66796353D01*
X138493268Y-66306413D01*
X138493731Y-65775914D01*
X138291146Y-65285620D01*
X137916353Y-64910173D01*
X137578554Y-64769906D01*
X137914380Y-64631146D01*
X138289827Y-64256353D01*
X138493268Y-63766413D01*
X138493731Y-63235914D01*
X138291146Y-62745620D01*
X137916353Y-62370173D01*
X137578554Y-62229906D01*
X137914380Y-62091146D01*
X138289827Y-61716353D01*
X138493268Y-61226413D01*
X138493731Y-60695914D01*
X138291146Y-60205620D01*
X137916353Y-59830173D01*
X137578554Y-59689906D01*
X137914380Y-59551146D01*
X138289827Y-59176353D01*
X138493268Y-58686413D01*
X138493731Y-58155914D01*
X138291146Y-57665620D01*
X137916353Y-57290173D01*
X137578554Y-57149906D01*
X137914380Y-57011146D01*
X138289827Y-56636353D01*
X138493268Y-56146413D01*
X138493731Y-55615914D01*
X138291146Y-55125620D01*
X137916353Y-54750173D01*
X137426413Y-54546732D01*
X136895914Y-54546269D01*
X136405620Y-54748854D01*
X136030173Y-55123647D01*
X135826732Y-55613587D01*
X135826269Y-56144086D01*
X136028854Y-56634380D01*
X136403647Y-57009827D01*
X136741446Y-57150094D01*
X136405620Y-57288854D01*
X136030173Y-57663647D01*
X135826732Y-58153587D01*
X135826269Y-58684086D01*
X136028854Y-59174380D01*
X136403647Y-59549827D01*
X136741446Y-59690094D01*
X136405620Y-59828854D01*
X136030173Y-60203647D01*
X135826732Y-60693587D01*
X135826269Y-61224086D01*
X136028854Y-61714380D01*
X136403647Y-62089827D01*
X136741446Y-62230094D01*
X136405620Y-62368854D01*
X136030173Y-62743647D01*
X135826732Y-63233587D01*
X135826269Y-63764086D01*
X136028854Y-64254380D01*
X136403647Y-64629827D01*
X136741446Y-64770094D01*
X136405620Y-64908854D01*
X136030173Y-65283647D01*
X135826732Y-65773587D01*
X135826269Y-66304086D01*
X136028854Y-66794380D01*
X136403647Y-67169827D01*
X136741446Y-67310094D01*
X136405620Y-67448854D01*
X136030173Y-67823647D01*
X135826732Y-68313587D01*
X135826269Y-68844086D01*
X136028854Y-69334380D01*
X136403647Y-69709827D01*
X136741446Y-69850094D01*
X136405620Y-69988854D01*
X136030173Y-70363647D01*
X135826732Y-70853587D01*
X135826269Y-71384086D01*
X136028854Y-71874380D01*
X136403647Y-72249827D01*
X136741446Y-72390094D01*
X136405620Y-72528854D01*
X136030173Y-72903647D01*
X135826732Y-73393587D01*
X135826269Y-73924086D01*
X136028854Y-74414380D01*
X136403647Y-74789827D01*
X136741446Y-74930094D01*
X136405620Y-75068854D01*
X136030173Y-75443647D01*
X135826732Y-75933587D01*
X135826269Y-76464086D01*
X136028854Y-76954380D01*
X136403647Y-77329827D01*
X136741446Y-77470094D01*
X136405620Y-77608854D01*
X136030173Y-77983647D01*
X135826732Y-78473587D01*
X135826269Y-79004086D01*
X136028854Y-79494380D01*
X136403647Y-79869827D01*
X136741446Y-80010094D01*
X136405620Y-80148854D01*
X136030173Y-80523647D01*
X135826732Y-81013587D01*
X135826465Y-81318969D01*
X135549460Y-81203946D01*
X135216003Y-81203655D01*
X134907818Y-81330995D01*
X134671823Y-81566578D01*
X134543946Y-81874540D01*
X134543655Y-82207997D01*
X129690926Y-82207997D01*
X129743054Y-82082460D01*
X129743345Y-81749003D01*
X129616005Y-81440818D01*
X129380422Y-81204823D01*
X129072460Y-81076946D01*
X128739003Y-81076655D01*
X128430818Y-81203995D01*
X128194823Y-81439578D01*
X128066946Y-81747540D01*
X128066655Y-82080997D01*
X125298055Y-82080997D01*
X125298345Y-81749003D01*
X125171005Y-81440818D01*
X124935422Y-81204823D01*
X124627460Y-81076946D01*
X124294003Y-81076655D01*
X123985818Y-81203995D01*
X123749823Y-81439578D01*
X123621946Y-81747540D01*
X123621655Y-82080997D01*
X118313055Y-82080997D01*
X118313345Y-81749003D01*
X118186005Y-81440818D01*
X117950422Y-81204823D01*
X117642460Y-81076946D01*
X117309003Y-81076655D01*
X117000818Y-81203995D01*
X116764823Y-81439578D01*
X116636946Y-81747540D01*
X116636655Y-82080997D01*
X114503055Y-82080997D01*
X114503345Y-81749003D01*
X114376005Y-81440818D01*
X114140422Y-81204823D01*
X113832460Y-81076946D01*
X113499003Y-81076655D01*
X113190818Y-81203995D01*
X112954823Y-81439578D01*
X112826946Y-81747540D01*
X112826655Y-82080997D01*
X110305105Y-82080997D01*
X110349827Y-82036353D01*
X110553268Y-81546413D01*
X110553731Y-81015914D01*
X110351146Y-80525620D01*
X110255690Y-80429997D01*
X111937655Y-80429997D01*
X112064995Y-80738182D01*
X112300578Y-80974177D01*
X112608540Y-81102054D01*
X112941997Y-81102345D01*
X113250182Y-80975005D01*
X113486177Y-80739422D01*
X113614054Y-80431460D01*
X113614276Y-80175997D01*
X115747655Y-80175997D01*
X115874995Y-80484182D01*
X116110578Y-80720177D01*
X116418540Y-80848054D01*
X116751997Y-80848345D01*
X117060182Y-80721005D01*
X117296177Y-80485422D01*
X117424054Y-80177460D01*
X117424055Y-80175997D01*
X128955655Y-80175997D01*
X129082995Y-80484182D01*
X129318578Y-80720177D01*
X129626540Y-80848054D01*
X129959997Y-80848345D01*
X130268182Y-80721005D01*
X130504177Y-80485422D01*
X130527191Y-80429997D01*
X132765655Y-80429997D01*
X132892995Y-80738182D01*
X133128578Y-80974177D01*
X133436540Y-81102054D01*
X133769997Y-81102345D01*
X134078182Y-80975005D01*
X134314177Y-80739422D01*
X134442054Y-80431460D01*
X134442345Y-80098003D01*
X134315005Y-79789818D01*
X134079422Y-79553823D01*
X133771460Y-79425946D01*
X133438003Y-79425655D01*
X133129818Y-79552995D01*
X132893823Y-79788578D01*
X132765946Y-80096540D01*
X132765655Y-80429997D01*
X130527191Y-80429997D01*
X130632054Y-80177460D01*
X130632345Y-79844003D01*
X130505005Y-79535818D01*
X130269422Y-79299823D01*
X129961460Y-79171946D01*
X129628003Y-79171655D01*
X129319818Y-79298995D01*
X129083823Y-79534578D01*
X128955946Y-79842540D01*
X128955655Y-80175997D01*
X117424055Y-80175997D01*
X117424345Y-79844003D01*
X117297005Y-79535818D01*
X117061422Y-79299823D01*
X116753460Y-79171946D01*
X116420003Y-79171655D01*
X116111818Y-79298995D01*
X115875823Y-79534578D01*
X115747946Y-79842540D01*
X115747655Y-80175997D01*
X113614276Y-80175997D01*
X113614345Y-80098003D01*
X113487005Y-79789818D01*
X113251422Y-79553823D01*
X112943460Y-79425946D01*
X112610003Y-79425655D01*
X112301818Y-79552995D01*
X112065823Y-79788578D01*
X111937946Y-80096540D01*
X111937655Y-80429997D01*
X110255690Y-80429997D01*
X109976353Y-80150173D01*
X109638554Y-80009906D01*
X109974380Y-79871146D01*
X110349827Y-79496353D01*
X110553268Y-79006413D01*
X110553731Y-78475914D01*
X110521537Y-78397997D01*
X111683655Y-78397997D01*
X111810995Y-78706182D01*
X112046578Y-78942177D01*
X112354540Y-79070054D01*
X112687997Y-79070345D01*
X112996182Y-78943005D01*
X113033254Y-78905997D01*
X123939155Y-78905997D01*
X124066495Y-79214182D01*
X124302078Y-79450177D01*
X124610040Y-79578054D01*
X124943497Y-79578345D01*
X125251682Y-79451005D01*
X125487677Y-79215422D01*
X125615554Y-78907460D01*
X125615845Y-78574003D01*
X125543121Y-78397997D01*
X132765655Y-78397997D01*
X132892995Y-78706182D01*
X133128578Y-78942177D01*
X133436540Y-79070054D01*
X133769997Y-79070345D01*
X134078182Y-78943005D01*
X134314177Y-78707422D01*
X134442054Y-78399460D01*
X134442345Y-78066003D01*
X134315005Y-77757818D01*
X134079422Y-77521823D01*
X133771460Y-77393946D01*
X133438003Y-77393655D01*
X133129818Y-77520995D01*
X132893823Y-77756578D01*
X132765946Y-78064540D01*
X132765655Y-78397997D01*
X125543121Y-78397997D01*
X125488505Y-78265818D01*
X125252922Y-78029823D01*
X124944960Y-77901946D01*
X124611503Y-77901655D01*
X124303318Y-78028995D01*
X124067323Y-78264578D01*
X123939446Y-78572540D01*
X123939155Y-78905997D01*
X113033254Y-78905997D01*
X113232177Y-78707422D01*
X113360054Y-78399460D01*
X113360345Y-78066003D01*
X113233005Y-77757818D01*
X112997422Y-77521823D01*
X112689460Y-77393946D01*
X112356003Y-77393655D01*
X112047818Y-77520995D01*
X111811823Y-77756578D01*
X111683946Y-78064540D01*
X111683655Y-78397997D01*
X110521537Y-78397997D01*
X110351146Y-77985620D01*
X109976353Y-77610173D01*
X109638554Y-77469906D01*
X109974380Y-77331146D01*
X110349827Y-76956353D01*
X110553268Y-76466413D01*
X110553731Y-75935914D01*
X110351146Y-75445620D01*
X109976353Y-75070173D01*
X109638554Y-74929906D01*
X109974380Y-74791146D01*
X110349827Y-74416353D01*
X110553268Y-73926413D01*
X110553731Y-73395914D01*
X110416586Y-73063997D01*
X111683655Y-73063997D01*
X111810995Y-73372182D01*
X112046578Y-73608177D01*
X112354540Y-73736054D01*
X112687997Y-73736345D01*
X112996182Y-73609005D01*
X113232177Y-73373422D01*
X113360054Y-73065460D01*
X113360055Y-73063997D01*
X133019655Y-73063997D01*
X133146995Y-73372182D01*
X133382578Y-73608177D01*
X133690540Y-73736054D01*
X134023997Y-73736345D01*
X134332182Y-73609005D01*
X134568177Y-73373422D01*
X134696054Y-73065460D01*
X134696345Y-72732003D01*
X134569005Y-72423818D01*
X134333422Y-72187823D01*
X134025460Y-72059946D01*
X133692003Y-72059655D01*
X133383818Y-72186995D01*
X133147823Y-72422578D01*
X133019946Y-72730540D01*
X133019655Y-73063997D01*
X113360055Y-73063997D01*
X113360345Y-72732003D01*
X113233005Y-72423818D01*
X112997422Y-72187823D01*
X112689460Y-72059946D01*
X112356003Y-72059655D01*
X112047818Y-72186995D01*
X111811823Y-72422578D01*
X111683946Y-72730540D01*
X111683655Y-73063997D01*
X110416586Y-73063997D01*
X110351146Y-72905620D01*
X109976353Y-72530173D01*
X109638554Y-72389906D01*
X109974380Y-72251146D01*
X110349827Y-71876353D01*
X110553268Y-71386413D01*
X110553577Y-71031997D01*
X111937655Y-71031997D01*
X112064995Y-71340182D01*
X112300578Y-71576177D01*
X112608540Y-71704054D01*
X112941997Y-71704345D01*
X113250182Y-71577005D01*
X113486177Y-71341422D01*
X113509191Y-71285997D01*
X115747655Y-71285997D01*
X115874995Y-71594182D01*
X116110578Y-71830177D01*
X116418540Y-71958054D01*
X116751997Y-71958345D01*
X117060182Y-71831005D01*
X117296177Y-71595422D01*
X117424054Y-71287460D01*
X117424055Y-71285997D01*
X128955655Y-71285997D01*
X129082995Y-71594182D01*
X129318578Y-71830177D01*
X129626540Y-71958054D01*
X129959997Y-71958345D01*
X130268182Y-71831005D01*
X130504177Y-71595422D01*
X130632054Y-71287460D01*
X130632276Y-71031997D01*
X132765655Y-71031997D01*
X132892995Y-71340182D01*
X133128578Y-71576177D01*
X133436540Y-71704054D01*
X133769997Y-71704345D01*
X134078182Y-71577005D01*
X134314177Y-71341422D01*
X134442054Y-71033460D01*
X134442345Y-70700003D01*
X134315005Y-70391818D01*
X134079422Y-70155823D01*
X133771460Y-70027946D01*
X133438003Y-70027655D01*
X133129818Y-70154995D01*
X132893823Y-70390578D01*
X132765946Y-70698540D01*
X132765655Y-71031997D01*
X130632276Y-71031997D01*
X130632345Y-70954003D01*
X130505005Y-70645818D01*
X130269422Y-70409823D01*
X129961460Y-70281946D01*
X129628003Y-70281655D01*
X129319818Y-70408995D01*
X129083823Y-70644578D01*
X128955946Y-70952540D01*
X128955655Y-71285997D01*
X117424055Y-71285997D01*
X117424345Y-70954003D01*
X117297005Y-70645818D01*
X117061422Y-70409823D01*
X116753460Y-70281946D01*
X116420003Y-70281655D01*
X116111818Y-70408995D01*
X115875823Y-70644578D01*
X115747946Y-70952540D01*
X115747655Y-71285997D01*
X113509191Y-71285997D01*
X113614054Y-71033460D01*
X113614345Y-70700003D01*
X113487005Y-70391818D01*
X113251422Y-70155823D01*
X112943460Y-70027946D01*
X112610003Y-70027655D01*
X112301818Y-70154995D01*
X112065823Y-70390578D01*
X111937946Y-70698540D01*
X111937655Y-71031997D01*
X110553577Y-71031997D01*
X110553731Y-70855914D01*
X110351146Y-70365620D01*
X109976353Y-69990173D01*
X109638554Y-69849906D01*
X109974380Y-69711146D01*
X110305105Y-69380997D01*
X112826655Y-69380997D01*
X112953995Y-69689182D01*
X113189578Y-69925177D01*
X113497540Y-70053054D01*
X113830997Y-70053345D01*
X114139182Y-69926005D01*
X114375177Y-69690422D01*
X114503054Y-69382460D01*
X114503055Y-69380997D01*
X116636655Y-69380997D01*
X116763995Y-69689182D01*
X116999578Y-69925177D01*
X117307540Y-70053054D01*
X117640997Y-70053345D01*
X117949182Y-69926005D01*
X118185177Y-69690422D01*
X118313054Y-69382460D01*
X118313055Y-69380997D01*
X123621655Y-69380997D01*
X123748995Y-69689182D01*
X123984578Y-69925177D01*
X124292540Y-70053054D01*
X124625997Y-70053345D01*
X124934182Y-69926005D01*
X125170177Y-69690422D01*
X125298054Y-69382460D01*
X125298055Y-69380997D01*
X128066655Y-69380997D01*
X128193995Y-69689182D01*
X128429578Y-69925177D01*
X128737540Y-70053054D01*
X129070997Y-70053345D01*
X129379182Y-69926005D01*
X129615177Y-69690422D01*
X129743054Y-69382460D01*
X129743055Y-69380997D01*
X131876655Y-69380997D01*
X132003995Y-69689182D01*
X132239578Y-69925177D01*
X132547540Y-70053054D01*
X132880997Y-70053345D01*
X133189182Y-69926005D01*
X133425177Y-69690422D01*
X133553054Y-69382460D01*
X133553345Y-69049003D01*
X133426005Y-68740818D01*
X133190422Y-68504823D01*
X132882460Y-68376946D01*
X132549003Y-68376655D01*
X132240818Y-68503995D01*
X132004823Y-68739578D01*
X131876946Y-69047540D01*
X131876655Y-69380997D01*
X129743055Y-69380997D01*
X129743345Y-69049003D01*
X129616005Y-68740818D01*
X129380422Y-68504823D01*
X129072460Y-68376946D01*
X128739003Y-68376655D01*
X128430818Y-68503995D01*
X128194823Y-68739578D01*
X128066946Y-69047540D01*
X128066655Y-69380997D01*
X125298055Y-69380997D01*
X125298345Y-69049003D01*
X125171005Y-68740818D01*
X124935422Y-68504823D01*
X124627460Y-68376946D01*
X124294003Y-68376655D01*
X123985818Y-68503995D01*
X123749823Y-68739578D01*
X123621946Y-69047540D01*
X123621655Y-69380997D01*
X118313055Y-69380997D01*
X118313345Y-69049003D01*
X118186005Y-68740818D01*
X117950422Y-68504823D01*
X117642460Y-68376946D01*
X117309003Y-68376655D01*
X117000818Y-68503995D01*
X116764823Y-68739578D01*
X116636946Y-69047540D01*
X116636655Y-69380997D01*
X114503055Y-69380997D01*
X114503345Y-69049003D01*
X114376005Y-68740818D01*
X114140422Y-68504823D01*
X113832460Y-68376946D01*
X113499003Y-68376655D01*
X113190818Y-68503995D01*
X112954823Y-68739578D01*
X112826946Y-69047540D01*
X112826655Y-69380997D01*
X110305105Y-69380997D01*
X110349827Y-69336353D01*
X110553268Y-68846413D01*
X110553731Y-68315914D01*
X110351146Y-67825620D01*
X110255690Y-67729997D01*
X111937655Y-67729997D01*
X112064995Y-68038182D01*
X112300578Y-68274177D01*
X112608540Y-68402054D01*
X112941997Y-68402345D01*
X113250182Y-68275005D01*
X113486177Y-68039422D01*
X113614054Y-67731460D01*
X113614276Y-67475997D01*
X115747655Y-67475997D01*
X115874995Y-67784182D01*
X116110578Y-68020177D01*
X116418540Y-68148054D01*
X116751997Y-68148345D01*
X117060182Y-68021005D01*
X117296177Y-67785422D01*
X117424054Y-67477460D01*
X117424055Y-67475997D01*
X128955655Y-67475997D01*
X129082995Y-67784182D01*
X129318578Y-68020177D01*
X129626540Y-68148054D01*
X129959997Y-68148345D01*
X130268182Y-68021005D01*
X130504177Y-67785422D01*
X130527191Y-67729997D01*
X132765655Y-67729997D01*
X132892995Y-68038182D01*
X133128578Y-68274177D01*
X133436540Y-68402054D01*
X133769997Y-68402345D01*
X134078182Y-68275005D01*
X134314177Y-68039422D01*
X134442054Y-67731460D01*
X134442345Y-67398003D01*
X134315005Y-67089818D01*
X134079422Y-66853823D01*
X133771460Y-66725946D01*
X133438003Y-66725655D01*
X133129818Y-66852995D01*
X132893823Y-67088578D01*
X132765946Y-67396540D01*
X132765655Y-67729997D01*
X130527191Y-67729997D01*
X130632054Y-67477460D01*
X130632345Y-67144003D01*
X130505005Y-66835818D01*
X130269422Y-66599823D01*
X129961460Y-66471946D01*
X129628003Y-66471655D01*
X129319818Y-66598995D01*
X129083823Y-66834578D01*
X128955946Y-67142540D01*
X128955655Y-67475997D01*
X117424055Y-67475997D01*
X117424345Y-67144003D01*
X117297005Y-66835818D01*
X117061422Y-66599823D01*
X116753460Y-66471946D01*
X116420003Y-66471655D01*
X116111818Y-66598995D01*
X115875823Y-66834578D01*
X115747946Y-67142540D01*
X115747655Y-67475997D01*
X113614276Y-67475997D01*
X113614345Y-67398003D01*
X113487005Y-67089818D01*
X113251422Y-66853823D01*
X112943460Y-66725946D01*
X112610003Y-66725655D01*
X112301818Y-66852995D01*
X112065823Y-67088578D01*
X111937946Y-67396540D01*
X111937655Y-67729997D01*
X110255690Y-67729997D01*
X109976353Y-67450173D01*
X109638554Y-67309906D01*
X109974380Y-67171146D01*
X110349827Y-66796353D01*
X110553268Y-66306413D01*
X110553731Y-65775914D01*
X110521537Y-65697997D01*
X111683655Y-65697997D01*
X111810995Y-66006182D01*
X112046578Y-66242177D01*
X112354540Y-66370054D01*
X112687997Y-66370345D01*
X112996182Y-66243005D01*
X113033254Y-66205997D01*
X123939155Y-66205997D01*
X124066495Y-66514182D01*
X124302078Y-66750177D01*
X124610040Y-66878054D01*
X124943497Y-66878345D01*
X125251682Y-66751005D01*
X125487677Y-66515422D01*
X125615554Y-66207460D01*
X125615845Y-65874003D01*
X125543121Y-65697997D01*
X133019655Y-65697997D01*
X133146995Y-66006182D01*
X133382578Y-66242177D01*
X133690540Y-66370054D01*
X134023997Y-66370345D01*
X134332182Y-66243005D01*
X134568177Y-66007422D01*
X134696054Y-65699460D01*
X134696345Y-65366003D01*
X134569005Y-65057818D01*
X134333422Y-64821823D01*
X134025460Y-64693946D01*
X133692003Y-64693655D01*
X133383818Y-64820995D01*
X133147823Y-65056578D01*
X133019946Y-65364540D01*
X133019655Y-65697997D01*
X125543121Y-65697997D01*
X125488505Y-65565818D01*
X125252922Y-65329823D01*
X124944960Y-65201946D01*
X124611503Y-65201655D01*
X124303318Y-65328995D01*
X124067323Y-65564578D01*
X123939446Y-65872540D01*
X123939155Y-66205997D01*
X113033254Y-66205997D01*
X113232177Y-66007422D01*
X113360054Y-65699460D01*
X113360345Y-65366003D01*
X113233005Y-65057818D01*
X112997422Y-64821823D01*
X112689460Y-64693946D01*
X112356003Y-64693655D01*
X112047818Y-64820995D01*
X111811823Y-65056578D01*
X111683946Y-65364540D01*
X111683655Y-65697997D01*
X110521537Y-65697997D01*
X110351146Y-65285620D01*
X109976353Y-64910173D01*
X109638554Y-64769906D01*
X109974380Y-64631146D01*
X110349827Y-64256353D01*
X110553268Y-63766413D01*
X110553731Y-63235914D01*
X110416586Y-62903997D01*
X111683655Y-62903997D01*
X111810995Y-63212182D01*
X112046578Y-63448177D01*
X112354540Y-63576054D01*
X112687997Y-63576345D01*
X112996182Y-63449005D01*
X113232177Y-63213422D01*
X113360054Y-62905460D01*
X113360055Y-62903997D01*
X133019655Y-62903997D01*
X133146995Y-63212182D01*
X133382578Y-63448177D01*
X133690540Y-63576054D01*
X134023997Y-63576345D01*
X134332182Y-63449005D01*
X134568177Y-63213422D01*
X134696054Y-62905460D01*
X134696345Y-62572003D01*
X134569005Y-62263818D01*
X134333422Y-62027823D01*
X134025460Y-61899946D01*
X133692003Y-61899655D01*
X133383818Y-62026995D01*
X133147823Y-62262578D01*
X133019946Y-62570540D01*
X133019655Y-62903997D01*
X113360055Y-62903997D01*
X113360345Y-62572003D01*
X113233005Y-62263818D01*
X112997422Y-62027823D01*
X112689460Y-61899946D01*
X112356003Y-61899655D01*
X112047818Y-62026995D01*
X111811823Y-62262578D01*
X111683946Y-62570540D01*
X111683655Y-62903997D01*
X110416586Y-62903997D01*
X110351146Y-62745620D01*
X109976353Y-62370173D01*
X109638554Y-62229906D01*
X109974380Y-62091146D01*
X110349827Y-61716353D01*
X110553268Y-61226413D01*
X110553577Y-60871997D01*
X111937655Y-60871997D01*
X112064995Y-61180182D01*
X112300578Y-61416177D01*
X112608540Y-61544054D01*
X112941997Y-61544345D01*
X113250182Y-61417005D01*
X113486177Y-61181422D01*
X113509191Y-61125997D01*
X116001655Y-61125997D01*
X116128995Y-61434182D01*
X116364578Y-61670177D01*
X116672540Y-61798054D01*
X117005997Y-61798345D01*
X117314182Y-61671005D01*
X117550177Y-61435422D01*
X117573191Y-61379997D01*
X128955655Y-61379997D01*
X129082995Y-61688182D01*
X129318578Y-61924177D01*
X129626540Y-62052054D01*
X129959997Y-62052345D01*
X130268182Y-61925005D01*
X130504177Y-61689422D01*
X130632054Y-61381460D01*
X130632345Y-61048003D01*
X130559621Y-60871997D01*
X132765655Y-60871997D01*
X132892995Y-61180182D01*
X133128578Y-61416177D01*
X133436540Y-61544054D01*
X133769997Y-61544345D01*
X134078182Y-61417005D01*
X134314177Y-61181422D01*
X134442054Y-60873460D01*
X134442345Y-60540003D01*
X134315005Y-60231818D01*
X134079422Y-59995823D01*
X133771460Y-59867946D01*
X133438003Y-59867655D01*
X133129818Y-59994995D01*
X132893823Y-60230578D01*
X132765946Y-60538540D01*
X132765655Y-60871997D01*
X130559621Y-60871997D01*
X130505005Y-60739818D01*
X130269422Y-60503823D01*
X129961460Y-60375946D01*
X129628003Y-60375655D01*
X129319818Y-60502995D01*
X129083823Y-60738578D01*
X128955946Y-61046540D01*
X128955655Y-61379997D01*
X117573191Y-61379997D01*
X117678054Y-61127460D01*
X117678345Y-60794003D01*
X117551005Y-60485818D01*
X117315422Y-60249823D01*
X117007460Y-60121946D01*
X116674003Y-60121655D01*
X116365818Y-60248995D01*
X116129823Y-60484578D01*
X116001946Y-60792540D01*
X116001655Y-61125997D01*
X113509191Y-61125997D01*
X113614054Y-60873460D01*
X113614345Y-60540003D01*
X113487005Y-60231818D01*
X113251422Y-59995823D01*
X112943460Y-59867946D01*
X112610003Y-59867655D01*
X112301818Y-59994995D01*
X112065823Y-60230578D01*
X111937946Y-60538540D01*
X111937655Y-60871997D01*
X110553577Y-60871997D01*
X110553731Y-60695914D01*
X110351146Y-60205620D01*
X109976353Y-59830173D01*
X109638554Y-59689906D01*
X109974380Y-59551146D01*
X110305105Y-59220997D01*
X112826655Y-59220997D01*
X112953995Y-59529182D01*
X113189578Y-59765177D01*
X113497540Y-59893054D01*
X113830997Y-59893345D01*
X114139182Y-59766005D01*
X114375177Y-59530422D01*
X114503054Y-59222460D01*
X114503055Y-59220997D01*
X116319155Y-59220997D01*
X116446495Y-59529182D01*
X116682078Y-59765177D01*
X116990040Y-59893054D01*
X117323497Y-59893345D01*
X117631682Y-59766005D01*
X117867677Y-59530422D01*
X117995554Y-59222460D01*
X117995555Y-59220997D01*
X123621655Y-59220997D01*
X123748995Y-59529182D01*
X123984578Y-59765177D01*
X124292540Y-59893054D01*
X124625997Y-59893345D01*
X124934182Y-59766005D01*
X125170177Y-59530422D01*
X125298054Y-59222460D01*
X125298055Y-59220997D01*
X128066655Y-59220997D01*
X128193995Y-59529182D01*
X128429578Y-59765177D01*
X128737540Y-59893054D01*
X129070997Y-59893345D01*
X129379182Y-59766005D01*
X129615177Y-59530422D01*
X129743054Y-59222460D01*
X129743055Y-59220997D01*
X131876655Y-59220997D01*
X132003995Y-59529182D01*
X132239578Y-59765177D01*
X132547540Y-59893054D01*
X132880997Y-59893345D01*
X133189182Y-59766005D01*
X133425177Y-59530422D01*
X133553054Y-59222460D01*
X133553345Y-58889003D01*
X133426005Y-58580818D01*
X133190422Y-58344823D01*
X132882460Y-58216946D01*
X132549003Y-58216655D01*
X132240818Y-58343995D01*
X132004823Y-58579578D01*
X131876946Y-58887540D01*
X131876655Y-59220997D01*
X129743055Y-59220997D01*
X129743345Y-58889003D01*
X129616005Y-58580818D01*
X129380422Y-58344823D01*
X129072460Y-58216946D01*
X128739003Y-58216655D01*
X128430818Y-58343995D01*
X128194823Y-58579578D01*
X128066946Y-58887540D01*
X128066655Y-59220997D01*
X125298055Y-59220997D01*
X125298345Y-58889003D01*
X125171005Y-58580818D01*
X124935422Y-58344823D01*
X124627460Y-58216946D01*
X124294003Y-58216655D01*
X123985818Y-58343995D01*
X123749823Y-58579578D01*
X123621946Y-58887540D01*
X123621655Y-59220997D01*
X117995555Y-59220997D01*
X117995845Y-58889003D01*
X117868505Y-58580818D01*
X117632922Y-58344823D01*
X117324960Y-58216946D01*
X116991503Y-58216655D01*
X116683318Y-58343995D01*
X116447323Y-58579578D01*
X116319446Y-58887540D01*
X116319155Y-59220997D01*
X114503055Y-59220997D01*
X114503345Y-58889003D01*
X114376005Y-58580818D01*
X114140422Y-58344823D01*
X113832460Y-58216946D01*
X113499003Y-58216655D01*
X113190818Y-58343995D01*
X112954823Y-58579578D01*
X112826946Y-58887540D01*
X112826655Y-59220997D01*
X110305105Y-59220997D01*
X110349827Y-59176353D01*
X110553268Y-58686413D01*
X110553731Y-58155914D01*
X110351146Y-57665620D01*
X110255690Y-57569997D01*
X111937655Y-57569997D01*
X112064995Y-57878182D01*
X112300578Y-58114177D01*
X112608540Y-58242054D01*
X112941997Y-58242345D01*
X113250182Y-58115005D01*
X113486177Y-57879422D01*
X113614054Y-57571460D01*
X113614276Y-57315997D01*
X116001655Y-57315997D01*
X116128995Y-57624182D01*
X116364578Y-57860177D01*
X116672540Y-57988054D01*
X117005997Y-57988345D01*
X117314182Y-57861005D01*
X117550177Y-57625422D01*
X117678054Y-57317460D01*
X117678055Y-57315997D01*
X128955655Y-57315997D01*
X129082995Y-57624182D01*
X129318578Y-57860177D01*
X129626540Y-57988054D01*
X129959997Y-57988345D01*
X130268182Y-57861005D01*
X130504177Y-57625422D01*
X130527191Y-57569997D01*
X132765655Y-57569997D01*
X132892995Y-57878182D01*
X133128578Y-58114177D01*
X133436540Y-58242054D01*
X133769997Y-58242345D01*
X134078182Y-58115005D01*
X134314177Y-57879422D01*
X134442054Y-57571460D01*
X134442345Y-57238003D01*
X134315005Y-56929818D01*
X134079422Y-56693823D01*
X133771460Y-56565946D01*
X133438003Y-56565655D01*
X133129818Y-56692995D01*
X132893823Y-56928578D01*
X132765946Y-57236540D01*
X132765655Y-57569997D01*
X130527191Y-57569997D01*
X130632054Y-57317460D01*
X130632345Y-56984003D01*
X130505005Y-56675818D01*
X130269422Y-56439823D01*
X129961460Y-56311946D01*
X129628003Y-56311655D01*
X129319818Y-56438995D01*
X129083823Y-56674578D01*
X128955946Y-56982540D01*
X128955655Y-57315997D01*
X117678055Y-57315997D01*
X117678345Y-56984003D01*
X117551005Y-56675818D01*
X117315422Y-56439823D01*
X117007460Y-56311946D01*
X116674003Y-56311655D01*
X116365818Y-56438995D01*
X116129823Y-56674578D01*
X116001946Y-56982540D01*
X116001655Y-57315997D01*
X113614276Y-57315997D01*
X113614345Y-57238003D01*
X113487005Y-56929818D01*
X113251422Y-56693823D01*
X112943460Y-56565946D01*
X112610003Y-56565655D01*
X112301818Y-56692995D01*
X112065823Y-56928578D01*
X111937946Y-57236540D01*
X111937655Y-57569997D01*
X110255690Y-57569997D01*
X109976353Y-57290173D01*
X109638554Y-57149906D01*
X109974380Y-57011146D01*
X110349827Y-56636353D01*
X110553268Y-56146413D01*
X110553731Y-55615914D01*
X110521537Y-55537997D01*
X111683655Y-55537997D01*
X111810995Y-55846182D01*
X112046578Y-56082177D01*
X112354540Y-56210054D01*
X112687997Y-56210345D01*
X112996182Y-56083005D01*
X113033254Y-56045997D01*
X123939155Y-56045997D01*
X124066495Y-56354182D01*
X124302078Y-56590177D01*
X124610040Y-56718054D01*
X124943497Y-56718345D01*
X125251682Y-56591005D01*
X125487677Y-56355422D01*
X125615554Y-56047460D01*
X125615776Y-55791997D01*
X133019655Y-55791997D01*
X133146995Y-56100182D01*
X133382578Y-56336177D01*
X133690540Y-56464054D01*
X134023997Y-56464345D01*
X134332182Y-56337005D01*
X134568177Y-56101422D01*
X134696054Y-55793460D01*
X134696345Y-55460003D01*
X134569005Y-55151818D01*
X134333422Y-54915823D01*
X134025460Y-54787946D01*
X133692003Y-54787655D01*
X133383818Y-54914995D01*
X133147823Y-55150578D01*
X133019946Y-55458540D01*
X133019655Y-55791997D01*
X125615776Y-55791997D01*
X125615845Y-55714003D01*
X125488505Y-55405818D01*
X125252922Y-55169823D01*
X124944960Y-55041946D01*
X124611503Y-55041655D01*
X124303318Y-55168995D01*
X124067323Y-55404578D01*
X123939446Y-55712540D01*
X123939155Y-56045997D01*
X113033254Y-56045997D01*
X113232177Y-55847422D01*
X113360054Y-55539460D01*
X113360345Y-55206003D01*
X113233005Y-54897818D01*
X112997422Y-54661823D01*
X112689460Y-54533946D01*
X112356003Y-54533655D01*
X112047818Y-54660995D01*
X111811823Y-54896578D01*
X111683946Y-55204540D01*
X111683655Y-55537997D01*
X110521537Y-55537997D01*
X110351146Y-55125620D01*
X109976353Y-54750173D01*
X109486413Y-54546732D01*
X108955914Y-54546269D01*
X108465620Y-54748854D01*
X108090173Y-55123647D01*
X107886732Y-55613587D01*
X107886269Y-56144086D01*
X107390000Y-56144086D01*
X107390000Y-54050000D01*
X138990000Y-54050000D01*
X138990000Y-118670000D01*
X138990000Y-118670000D01*
G37*
X138990000Y-118670000D02*
X107390000Y-118670000D01*
X107390000Y-56144086D01*
X107886269Y-56144086D01*
X108088854Y-56634380D01*
X108463647Y-57009827D01*
X108801446Y-57150094D01*
X108465620Y-57288854D01*
X108090173Y-57663647D01*
X107886732Y-58153587D01*
X107886269Y-58684086D01*
X108088854Y-59174380D01*
X108463647Y-59549827D01*
X108801446Y-59690094D01*
X108465620Y-59828854D01*
X108090173Y-60203647D01*
X107886732Y-60693587D01*
X107886269Y-61224086D01*
X108088854Y-61714380D01*
X108463647Y-62089827D01*
X108801446Y-62230094D01*
X108465620Y-62368854D01*
X108090173Y-62743647D01*
X107886732Y-63233587D01*
X107886269Y-63764086D01*
X108088854Y-64254380D01*
X108463647Y-64629827D01*
X108801446Y-64770094D01*
X108465620Y-64908854D01*
X108090173Y-65283647D01*
X107886732Y-65773587D01*
X107886269Y-66304086D01*
X108088854Y-66794380D01*
X108463647Y-67169827D01*
X108801446Y-67310094D01*
X108465620Y-67448854D01*
X108090173Y-67823647D01*
X107886732Y-68313587D01*
X107886269Y-68844086D01*
X108088854Y-69334380D01*
X108463647Y-69709827D01*
X108801446Y-69850094D01*
X108465620Y-69988854D01*
X108090173Y-70363647D01*
X107886732Y-70853587D01*
X107886269Y-71384086D01*
X108088854Y-71874380D01*
X108463647Y-72249827D01*
X108801446Y-72390094D01*
X108465620Y-72528854D01*
X108090173Y-72903647D01*
X107886732Y-73393587D01*
X107886269Y-73924086D01*
X108088854Y-74414380D01*
X108463647Y-74789827D01*
X108801446Y-74930094D01*
X108465620Y-75068854D01*
X108090173Y-75443647D01*
X107886732Y-75933587D01*
X107886269Y-76464086D01*
X108088854Y-76954380D01*
X108463647Y-77329827D01*
X108801446Y-77470094D01*
X108465620Y-77608854D01*
X108090173Y-77983647D01*
X107886732Y-78473587D01*
X107886269Y-79004086D01*
X108088854Y-79494380D01*
X108463647Y-79869827D01*
X108801446Y-80010094D01*
X108465620Y-80148854D01*
X108090173Y-80523647D01*
X107886732Y-81013587D01*
X107886269Y-81544086D01*
X108088854Y-82034380D01*
X108463647Y-82409827D01*
X108801446Y-82550094D01*
X108465620Y-82688854D01*
X108090173Y-83063647D01*
X107886732Y-83553587D01*
X107886269Y-84084086D01*
X108088854Y-84574380D01*
X108463647Y-84949827D01*
X108801446Y-85090094D01*
X108465620Y-85228854D01*
X108090173Y-85603647D01*
X107886732Y-86093587D01*
X107886269Y-86624086D01*
X108088854Y-87114380D01*
X108463647Y-87489827D01*
X108801446Y-87630094D01*
X108465620Y-87768854D01*
X108090173Y-88143647D01*
X107886732Y-88633587D01*
X107886269Y-89164086D01*
X108088854Y-89654380D01*
X108463647Y-90029827D01*
X108801446Y-90170094D01*
X108465620Y-90308854D01*
X108090173Y-90683647D01*
X107886732Y-91173587D01*
X107886269Y-91704086D01*
X108088854Y-92194380D01*
X108463647Y-92569827D01*
X108884383Y-92744532D01*
X108501542Y-92902718D01*
X108143974Y-93259663D01*
X107950221Y-93726273D01*
X107949780Y-94231510D01*
X108142718Y-94698458D01*
X108499663Y-95056026D01*
X108884443Y-95215800D01*
X108465620Y-95388854D01*
X108090173Y-95763647D01*
X107886732Y-96253587D01*
X107886269Y-96784086D01*
X108088854Y-97274380D01*
X108463647Y-97649827D01*
X108801446Y-97790094D01*
X108465620Y-97928854D01*
X108090173Y-98303647D01*
X107886732Y-98793587D01*
X107886269Y-99324086D01*
X108088854Y-99814380D01*
X108463647Y-100189827D01*
X108801446Y-100330094D01*
X108465620Y-100468854D01*
X108090173Y-100843647D01*
X107886732Y-101333587D01*
X107886269Y-101864086D01*
X108088854Y-102354380D01*
X108463647Y-102729827D01*
X108801446Y-102870094D01*
X108465620Y-103008854D01*
X108090173Y-103383647D01*
X107886732Y-103873587D01*
X107886269Y-104404086D01*
X108088854Y-104894380D01*
X108463647Y-105269827D01*
X108801446Y-105410094D01*
X108465620Y-105548854D01*
X108090173Y-105923647D01*
X107886732Y-106413587D01*
X107886269Y-106944086D01*
X108088854Y-107434380D01*
X108463647Y-107809827D01*
X108801446Y-107950094D01*
X108465620Y-108088854D01*
X108090173Y-108463647D01*
X107886732Y-108953587D01*
X107886269Y-109484086D01*
X108088854Y-109974380D01*
X108463647Y-110349827D01*
X108801446Y-110490094D01*
X108465620Y-110628854D01*
X108090173Y-111003647D01*
X107886732Y-111493587D01*
X107886269Y-112024086D01*
X108088854Y-112514380D01*
X108463647Y-112889827D01*
X108801446Y-113030094D01*
X108465620Y-113168854D01*
X108090173Y-113543647D01*
X107886732Y-114033587D01*
X107886269Y-114564086D01*
X108088854Y-115054380D01*
X108463647Y-115429827D01*
X108801446Y-115570094D01*
X108465620Y-115708854D01*
X108090173Y-116083647D01*
X107886732Y-116573587D01*
X107886269Y-117104086D01*
X108088854Y-117594380D01*
X108463647Y-117969827D01*
X108953587Y-118173268D01*
X109484086Y-118173731D01*
X109974380Y-117971146D01*
X110349827Y-117596353D01*
X110553268Y-117106413D01*
X110553346Y-117016057D01*
X128015846Y-117016057D01*
X128150903Y-117342920D01*
X128400764Y-117593218D01*
X128727391Y-117728846D01*
X129081057Y-117729154D01*
X129407920Y-117594097D01*
X129658218Y-117344236D01*
X129793846Y-117017609D01*
X129794154Y-116663943D01*
X129659097Y-116337080D01*
X129409236Y-116086782D01*
X129082609Y-115951154D01*
X128728943Y-115950846D01*
X128402080Y-116085903D01*
X128151782Y-116335764D01*
X128016154Y-116662391D01*
X128015846Y-117016057D01*
X110553346Y-117016057D01*
X110553731Y-116575914D01*
X110351146Y-116085620D01*
X109976353Y-115710173D01*
X109638554Y-115569906D01*
X109974380Y-115431146D01*
X109976973Y-115428557D01*
X130238346Y-115428557D01*
X130373403Y-115755420D01*
X130623264Y-116005718D01*
X130949891Y-116141346D01*
X131303557Y-116141654D01*
X131630420Y-116006597D01*
X131880718Y-115756736D01*
X132016346Y-115430109D01*
X132016654Y-115076443D01*
X131881597Y-114749580D01*
X131631736Y-114499282D01*
X131305109Y-114363654D01*
X130951443Y-114363346D01*
X130624580Y-114498403D01*
X130374282Y-114748264D01*
X130238654Y-115074891D01*
X130238346Y-115428557D01*
X109976973Y-115428557D01*
X110349827Y-115056353D01*
X110553268Y-114566413D01*
X110553346Y-114476057D01*
X110870846Y-114476057D01*
X111005903Y-114802920D01*
X111255764Y-115053218D01*
X111582391Y-115188846D01*
X111936057Y-115189154D01*
X112262920Y-115054097D01*
X112513218Y-114804236D01*
X112648846Y-114477609D01*
X112649154Y-114123943D01*
X112514097Y-113797080D01*
X112264236Y-113546782D01*
X111937609Y-113411154D01*
X111583943Y-113410846D01*
X111257080Y-113545903D01*
X111006782Y-113795764D01*
X110871154Y-114122391D01*
X110870846Y-114476057D01*
X110553346Y-114476057D01*
X110553731Y-114035914D01*
X110351146Y-113545620D01*
X109976353Y-113170173D01*
X109638554Y-113029906D01*
X109974380Y-112891146D01*
X110349827Y-112516353D01*
X110553268Y-112026413D01*
X110553731Y-111495914D01*
X110351146Y-111005620D01*
X110002133Y-110655997D01*
X133781655Y-110655997D01*
X133908995Y-110964182D01*
X134144578Y-111200177D01*
X134452540Y-111328054D01*
X134785997Y-111328345D01*
X135094182Y-111201005D01*
X135330177Y-110965422D01*
X135458054Y-110657460D01*
X135458345Y-110324003D01*
X135331005Y-110015818D01*
X135095422Y-109779823D01*
X134787460Y-109651946D01*
X134454003Y-109651655D01*
X134145818Y-109778995D01*
X133909823Y-110014578D01*
X133781946Y-110322540D01*
X133781655Y-110655997D01*
X110002133Y-110655997D01*
X109976353Y-110630173D01*
X109638554Y-110489906D01*
X109974380Y-110351146D01*
X110349827Y-109976353D01*
X110553268Y-109486413D01*
X110553731Y-108955914D01*
X110367238Y-108504565D01*
X110522578Y-108660177D01*
X110830540Y-108788054D01*
X111163997Y-108788345D01*
X111472182Y-108661005D01*
X111708177Y-108425422D01*
X111731191Y-108369997D01*
X116001655Y-108369997D01*
X116128995Y-108678182D01*
X116364578Y-108914177D01*
X116672540Y-109042054D01*
X117005997Y-109042345D01*
X117314182Y-108915005D01*
X117550177Y-108679422D01*
X117678054Y-108371460D01*
X117678345Y-108038003D01*
X117551005Y-107729818D01*
X117315422Y-107493823D01*
X117007460Y-107365946D01*
X116674003Y-107365655D01*
X116365818Y-107492995D01*
X116129823Y-107728578D01*
X116001946Y-108036540D01*
X116001655Y-108369997D01*
X111731191Y-108369997D01*
X111836054Y-108117460D01*
X111836345Y-107784003D01*
X111709005Y-107475818D01*
X111587397Y-107353997D01*
X123621655Y-107353997D01*
X123748995Y-107662182D01*
X123984578Y-107898177D01*
X124292540Y-108026054D01*
X124625997Y-108026345D01*
X124934182Y-107899005D01*
X125170177Y-107663422D01*
X125193191Y-107607997D01*
X130225655Y-107607997D01*
X130352995Y-107916182D01*
X130588578Y-108152177D01*
X130896540Y-108280054D01*
X131229997Y-108280345D01*
X131538182Y-108153005D01*
X131774177Y-107917422D01*
X131902054Y-107609460D01*
X131902345Y-107276003D01*
X131775005Y-106967818D01*
X131539422Y-106731823D01*
X131231460Y-106603946D01*
X130898003Y-106603655D01*
X130589818Y-106730995D01*
X130353823Y-106966578D01*
X130225946Y-107274540D01*
X130225655Y-107607997D01*
X125193191Y-107607997D01*
X125298054Y-107355460D01*
X125298345Y-107022003D01*
X125171005Y-106713818D01*
X124959749Y-106502193D01*
X125133997Y-106502345D01*
X125442182Y-106375005D01*
X125678177Y-106139422D01*
X125701191Y-106083997D01*
X135051655Y-106083997D01*
X135178995Y-106392182D01*
X135414578Y-106628177D01*
X135722540Y-106756054D01*
X135826433Y-106756145D01*
X135826269Y-106944086D01*
X136028854Y-107434380D01*
X136403647Y-107809827D01*
X136741446Y-107950094D01*
X136405620Y-108088854D01*
X136030173Y-108463647D01*
X135826732Y-108953587D01*
X135826269Y-109484086D01*
X136028854Y-109974380D01*
X136403647Y-110349827D01*
X136741446Y-110490094D01*
X136405620Y-110628854D01*
X136030173Y-111003647D01*
X135826732Y-111493587D01*
X135826269Y-112024086D01*
X136028854Y-112514380D01*
X136403647Y-112889827D01*
X136741446Y-113030094D01*
X136405620Y-113168854D01*
X136030173Y-113543647D01*
X135826732Y-114033587D01*
X135826269Y-114564086D01*
X136028854Y-115054380D01*
X136403647Y-115429827D01*
X136741446Y-115570094D01*
X136405620Y-115708854D01*
X136030173Y-116083647D01*
X135826732Y-116573587D01*
X135826269Y-117104086D01*
X136028854Y-117594380D01*
X136403647Y-117969827D01*
X136893587Y-118173268D01*
X137424086Y-118173731D01*
X137914380Y-117971146D01*
X138289827Y-117596353D01*
X138493268Y-117106413D01*
X138493731Y-116575914D01*
X138291146Y-116085620D01*
X137916353Y-115710173D01*
X137578554Y-115569906D01*
X137914380Y-115431146D01*
X138289827Y-115056353D01*
X138493268Y-114566413D01*
X138493731Y-114035914D01*
X138291146Y-113545620D01*
X137916353Y-113170173D01*
X137578554Y-113029906D01*
X137914380Y-112891146D01*
X138289827Y-112516353D01*
X138493268Y-112026413D01*
X138493731Y-111495914D01*
X138291146Y-111005620D01*
X137916353Y-110630173D01*
X137578554Y-110489906D01*
X137914380Y-110351146D01*
X138289827Y-109976353D01*
X138493268Y-109486413D01*
X138493731Y-108955914D01*
X138291146Y-108465620D01*
X137916353Y-108090173D01*
X137578554Y-107949906D01*
X137914380Y-107811146D01*
X138289827Y-107436353D01*
X138493268Y-106946413D01*
X138493731Y-106415914D01*
X138291146Y-105925620D01*
X137916353Y-105550173D01*
X137594882Y-105416686D01*
X137852929Y-105309800D01*
X137914583Y-105074188D01*
X137160000Y-104319605D01*
X136405417Y-105074188D01*
X136467018Y-105309596D01*
X136365422Y-105207823D01*
X136057460Y-105079946D01*
X135724003Y-105079655D01*
X135415818Y-105206995D01*
X135179823Y-105442578D01*
X135051946Y-105750540D01*
X135051655Y-106083997D01*
X125701191Y-106083997D01*
X125806054Y-105831460D01*
X125806345Y-105498003D01*
X125798274Y-105478469D01*
X125816540Y-105486054D01*
X126149997Y-105486345D01*
X126458182Y-105359005D01*
X126495254Y-105321997D01*
X133273655Y-105321997D01*
X133400995Y-105630182D01*
X133636578Y-105866177D01*
X133944540Y-105994054D01*
X134277997Y-105994345D01*
X134586182Y-105867005D01*
X134822177Y-105631422D01*
X134950054Y-105323460D01*
X134950345Y-104990003D01*
X134823005Y-104681818D01*
X134587422Y-104445823D01*
X134279460Y-104317946D01*
X133946003Y-104317655D01*
X133637818Y-104444995D01*
X133401823Y-104680578D01*
X133273946Y-104988540D01*
X133273655Y-105321997D01*
X126495254Y-105321997D01*
X126694177Y-105123422D01*
X126822054Y-104815460D01*
X126822345Y-104482003D01*
X126733446Y-104266852D01*
X126822054Y-104053460D01*
X126822345Y-103720003D01*
X126749621Y-103543997D01*
X130987655Y-103543997D01*
X131114995Y-103852182D01*
X131350578Y-104088177D01*
X131658540Y-104216054D01*
X131991997Y-104216345D01*
X132300182Y-104089005D01*
X132441954Y-103947480D01*
X135814073Y-103947480D01*
X135842852Y-104477199D01*
X135990200Y-104832929D01*
X136225812Y-104894583D01*
X136980395Y-104140000D01*
X137339605Y-104140000D01*
X138094188Y-104894583D01*
X138329800Y-104832929D01*
X138505927Y-104332520D01*
X138477148Y-103802801D01*
X138329800Y-103447071D01*
X138094188Y-103385417D01*
X137339605Y-104140000D01*
X136980395Y-104140000D01*
X136225812Y-103385417D01*
X135990200Y-103447071D01*
X135814073Y-103947480D01*
X132441954Y-103947480D01*
X132536177Y-103853422D01*
X132664054Y-103545460D01*
X132664143Y-103443257D01*
X132764997Y-103443345D01*
X133073182Y-103316005D01*
X133309177Y-103080422D01*
X133437054Y-102772460D01*
X133437345Y-102439003D01*
X133310005Y-102130818D01*
X133074422Y-101894823D01*
X132766460Y-101766946D01*
X132433003Y-101766655D01*
X132124818Y-101893995D01*
X131888823Y-102129578D01*
X131760946Y-102437540D01*
X131760857Y-102539743D01*
X131660003Y-102539655D01*
X131351818Y-102666995D01*
X131115823Y-102902578D01*
X130987946Y-103210540D01*
X130987655Y-103543997D01*
X126749621Y-103543997D01*
X126695005Y-103411818D01*
X126459422Y-103175823D01*
X126151460Y-103047946D01*
X125818003Y-103047655D01*
X125509818Y-103174995D01*
X125273823Y-103410578D01*
X125145946Y-103718540D01*
X125145655Y-104051997D01*
X125234554Y-104267148D01*
X125145946Y-104480540D01*
X125145655Y-104813997D01*
X125153726Y-104833531D01*
X125135460Y-104825946D01*
X124802003Y-104825655D01*
X124493818Y-104952995D01*
X124257823Y-105188578D01*
X124129946Y-105496540D01*
X124129655Y-105829997D01*
X124256995Y-106138182D01*
X124468251Y-106349807D01*
X124294003Y-106349655D01*
X123985818Y-106476995D01*
X123749823Y-106712578D01*
X123621946Y-107020540D01*
X123621655Y-107353997D01*
X111587397Y-107353997D01*
X111473422Y-107239823D01*
X111165460Y-107111946D01*
X110832003Y-107111655D01*
X110523818Y-107238995D01*
X110366615Y-107395924D01*
X110553268Y-106946413D01*
X110553731Y-106415914D01*
X110351146Y-105925620D01*
X109976353Y-105550173D01*
X109638554Y-105409906D01*
X109974380Y-105271146D01*
X110177883Y-105067997D01*
X120065655Y-105067997D01*
X120192995Y-105376182D01*
X120428578Y-105612177D01*
X120736540Y-105740054D01*
X121069997Y-105740345D01*
X121378182Y-105613005D01*
X121614177Y-105377422D01*
X121742054Y-105069460D01*
X121742345Y-104736003D01*
X121615005Y-104427818D01*
X121493397Y-104305997D01*
X121589655Y-104305997D01*
X121716995Y-104614182D01*
X121952578Y-104850177D01*
X122260540Y-104978054D01*
X122593997Y-104978345D01*
X122902182Y-104851005D01*
X123138177Y-104615422D01*
X123266054Y-104307460D01*
X123266345Y-103974003D01*
X123139005Y-103665818D01*
X122903422Y-103429823D01*
X122595460Y-103301946D01*
X122262003Y-103301655D01*
X121953818Y-103428995D01*
X121717823Y-103664578D01*
X121589946Y-103972540D01*
X121589655Y-104305997D01*
X121493397Y-104305997D01*
X121379422Y-104191823D01*
X121071460Y-104063946D01*
X120738003Y-104063655D01*
X120429818Y-104190995D01*
X120193823Y-104426578D01*
X120065946Y-104734540D01*
X120065655Y-105067997D01*
X110177883Y-105067997D01*
X110349827Y-104896353D01*
X110553268Y-104406413D01*
X110553731Y-103875914D01*
X110351146Y-103385620D01*
X109976353Y-103010173D01*
X109638554Y-102869906D01*
X109974380Y-102731146D01*
X110349827Y-102356353D01*
X110384024Y-102273997D01*
X114731655Y-102273997D01*
X114858995Y-102582182D01*
X115094578Y-102818177D01*
X115402540Y-102946054D01*
X115735997Y-102946345D01*
X115755531Y-102938274D01*
X115747946Y-102956540D01*
X115747655Y-103289997D01*
X115874995Y-103598182D01*
X116110578Y-103834177D01*
X116418540Y-103962054D01*
X116751997Y-103962345D01*
X117060182Y-103835005D01*
X117296177Y-103599422D01*
X117424054Y-103291460D01*
X117424345Y-102958003D01*
X117297005Y-102649818D01*
X117061422Y-102413823D01*
X116753460Y-102285946D01*
X116420003Y-102285655D01*
X116400469Y-102293726D01*
X116408054Y-102275460D01*
X116408276Y-102019997D01*
X129463655Y-102019997D01*
X129590995Y-102328182D01*
X129826578Y-102564177D01*
X130134540Y-102692054D01*
X130467997Y-102692345D01*
X130776182Y-102565005D01*
X131012177Y-102329422D01*
X131072475Y-102184208D01*
X131229997Y-102184345D01*
X131538182Y-102057005D01*
X131774177Y-101821422D01*
X131902054Y-101513460D01*
X131902345Y-101180003D01*
X131775005Y-100871818D01*
X131539422Y-100635823D01*
X131231460Y-100507946D01*
X130898003Y-100507655D01*
X130589818Y-100634995D01*
X130353823Y-100870578D01*
X130293525Y-101015792D01*
X130136003Y-101015655D01*
X129827818Y-101142995D01*
X129591823Y-101378578D01*
X129463946Y-101686540D01*
X129463655Y-102019997D01*
X116408276Y-102019997D01*
X116408345Y-101942003D01*
X116281005Y-101633818D01*
X116045422Y-101397823D01*
X115737460Y-101269946D01*
X115404003Y-101269655D01*
X115095818Y-101396995D01*
X114859823Y-101632578D01*
X114731946Y-101940540D01*
X114731655Y-102273997D01*
X110384024Y-102273997D01*
X110553268Y-101866413D01*
X110553731Y-101335914D01*
X110416586Y-101003997D01*
X117017655Y-101003997D01*
X117144995Y-101312182D01*
X117380578Y-101548177D01*
X117688540Y-101676054D01*
X118021997Y-101676345D01*
X118330182Y-101549005D01*
X118566177Y-101313422D01*
X118694054Y-101005460D01*
X118694345Y-100672003D01*
X118567005Y-100363818D01*
X118331422Y-100127823D01*
X118023460Y-99999946D01*
X117690003Y-99999655D01*
X117381818Y-100126995D01*
X117145823Y-100362578D01*
X117017946Y-100670540D01*
X117017655Y-101003997D01*
X110416586Y-101003997D01*
X110351146Y-100845620D01*
X109976353Y-100470173D01*
X109638554Y-100329906D01*
X109974380Y-100191146D01*
X110177883Y-99987997D01*
X128955655Y-99987997D01*
X129082995Y-100296182D01*
X129318578Y-100532177D01*
X129626540Y-100660054D01*
X129959997Y-100660345D01*
X130268182Y-100533005D01*
X130504177Y-100297422D01*
X130632054Y-99989460D01*
X130632345Y-99656003D01*
X130505005Y-99347818D01*
X130269422Y-99111823D01*
X129961460Y-98983946D01*
X129628003Y-98983655D01*
X129319818Y-99110995D01*
X129083823Y-99346578D01*
X128955946Y-99654540D01*
X128955655Y-99987997D01*
X110177883Y-99987997D01*
X110349827Y-99816353D01*
X110553268Y-99326413D01*
X110553731Y-98795914D01*
X110351146Y-98305620D01*
X109976353Y-97930173D01*
X109638554Y-97789906D01*
X109974380Y-97651146D01*
X110349827Y-97276353D01*
X110489494Y-96939997D01*
X113715655Y-96939997D01*
X113842995Y-97248182D01*
X114078578Y-97484177D01*
X114386540Y-97612054D01*
X114719997Y-97612345D01*
X115028182Y-97485005D01*
X115065254Y-97447997D01*
X124129655Y-97447997D01*
X124218554Y-97663148D01*
X124129946Y-97876540D01*
X124129655Y-98209997D01*
X124256995Y-98518182D01*
X124492578Y-98754177D01*
X124800540Y-98882054D01*
X125133997Y-98882345D01*
X125442182Y-98755005D01*
X125479254Y-98717997D01*
X126161655Y-98717997D01*
X126288995Y-99026182D01*
X126524578Y-99262177D01*
X126832540Y-99390054D01*
X127165997Y-99390345D01*
X127474182Y-99263005D01*
X127710177Y-99027422D01*
X127838054Y-98719460D01*
X127838345Y-98386003D01*
X127711005Y-98077818D01*
X127475422Y-97841823D01*
X127167460Y-97713946D01*
X126834003Y-97713655D01*
X126525818Y-97840995D01*
X126289823Y-98076578D01*
X126161946Y-98384540D01*
X126161655Y-98717997D01*
X125479254Y-98717997D01*
X125678177Y-98519422D01*
X125806054Y-98211460D01*
X125806345Y-97878003D01*
X125717446Y-97662852D01*
X125806054Y-97449460D01*
X125806345Y-97116003D01*
X125688617Y-96831082D01*
X125950182Y-96723005D01*
X126186177Y-96487422D01*
X126266388Y-96294253D01*
X126458182Y-96215005D01*
X126694177Y-95979422D01*
X126717191Y-95923997D01*
X132765655Y-95923997D01*
X132892995Y-96232182D01*
X133128578Y-96468177D01*
X133436540Y-96596054D01*
X133769997Y-96596345D01*
X134078182Y-96469005D01*
X134314177Y-96233422D01*
X134442054Y-95925460D01*
X134442345Y-95592003D01*
X134315005Y-95283818D01*
X134079422Y-95047823D01*
X133771460Y-94919946D01*
X133438003Y-94919655D01*
X133129818Y-95046995D01*
X132893823Y-95282578D01*
X132765946Y-95590540D01*
X132765655Y-95923997D01*
X126717191Y-95923997D01*
X126822054Y-95671460D01*
X126822345Y-95338003D01*
X126695005Y-95029818D01*
X126459422Y-94793823D01*
X126151460Y-94665946D01*
X125818003Y-94665655D01*
X125509818Y-94792995D01*
X125273823Y-95028578D01*
X125193612Y-95221747D01*
X125001818Y-95300995D01*
X124765823Y-95536578D01*
X124637946Y-95844540D01*
X124637655Y-96177997D01*
X124755383Y-96462918D01*
X124493818Y-96570995D01*
X124257823Y-96806578D01*
X124129946Y-97114540D01*
X124129655Y-97447997D01*
X115065254Y-97447997D01*
X115264177Y-97249422D01*
X115392054Y-96941460D01*
X115392345Y-96608003D01*
X115265005Y-96299818D01*
X115029422Y-96063823D01*
X114721460Y-95935946D01*
X114388003Y-95935655D01*
X114079818Y-96062995D01*
X113843823Y-96298578D01*
X113715946Y-96606540D01*
X113715655Y-96939997D01*
X110489494Y-96939997D01*
X110553268Y-96786413D01*
X110553731Y-96255914D01*
X110416586Y-95923997D01*
X111683655Y-95923997D01*
X111810995Y-96232182D01*
X112046578Y-96468177D01*
X112354540Y-96596054D01*
X112687997Y-96596345D01*
X112996182Y-96469005D01*
X113232177Y-96233422D01*
X113360054Y-95925460D01*
X113360345Y-95592003D01*
X113233005Y-95283818D01*
X112997422Y-95047823D01*
X112689460Y-94919946D01*
X112356003Y-94919655D01*
X112047818Y-95046995D01*
X111811823Y-95282578D01*
X111683946Y-95590540D01*
X111683655Y-95923997D01*
X110416586Y-95923997D01*
X110351146Y-95765620D01*
X109976353Y-95390173D01*
X109555617Y-95215468D01*
X109938458Y-95057282D01*
X110296026Y-94700337D01*
X110489779Y-94233727D01*
X110489855Y-94145997D01*
X111937655Y-94145997D01*
X112064995Y-94454182D01*
X112300578Y-94690177D01*
X112608540Y-94818054D01*
X112941997Y-94818345D01*
X113250182Y-94691005D01*
X113486177Y-94455422D01*
X113614054Y-94147460D01*
X113614055Y-94145997D01*
X128955655Y-94145997D01*
X129082995Y-94454182D01*
X129318578Y-94690177D01*
X129626540Y-94818054D01*
X129959997Y-94818345D01*
X130268182Y-94691005D01*
X130504177Y-94455422D01*
X130632054Y-94147460D01*
X130632055Y-94145997D01*
X132765655Y-94145997D01*
X132892995Y-94454182D01*
X133128578Y-94690177D01*
X133436540Y-94818054D01*
X133769997Y-94818345D01*
X134078182Y-94691005D01*
X134314177Y-94455422D01*
X134442054Y-94147460D01*
X134442345Y-93814003D01*
X134315005Y-93505818D01*
X134079422Y-93269823D01*
X133771460Y-93141946D01*
X133438003Y-93141655D01*
X133129818Y-93268995D01*
X132893823Y-93504578D01*
X132765946Y-93812540D01*
X132765655Y-94145997D01*
X130632055Y-94145997D01*
X130632345Y-93814003D01*
X130505005Y-93505818D01*
X130269422Y-93269823D01*
X129961460Y-93141946D01*
X129628003Y-93141655D01*
X129319818Y-93268995D01*
X129083823Y-93504578D01*
X128955946Y-93812540D01*
X128955655Y-94145997D01*
X113614055Y-94145997D01*
X113614345Y-93814003D01*
X113487005Y-93505818D01*
X113251422Y-93269823D01*
X112943460Y-93141946D01*
X112610003Y-93141655D01*
X112301818Y-93268995D01*
X112065823Y-93504578D01*
X111937946Y-93812540D01*
X111937655Y-94145997D01*
X110489855Y-94145997D01*
X110490220Y-93728490D01*
X110297282Y-93261542D01*
X109940337Y-92903974D01*
X109555557Y-92744200D01*
X109974380Y-92571146D01*
X110305105Y-92240997D01*
X112826655Y-92240997D01*
X112953995Y-92549182D01*
X113189578Y-92785177D01*
X113497540Y-92913054D01*
X113830997Y-92913345D01*
X114139182Y-92786005D01*
X114375177Y-92550422D01*
X114503054Y-92242460D01*
X114503055Y-92240997D01*
X116636655Y-92240997D01*
X116763995Y-92549182D01*
X116999578Y-92785177D01*
X117307540Y-92913054D01*
X117640997Y-92913345D01*
X117949182Y-92786005D01*
X118185177Y-92550422D01*
X118313054Y-92242460D01*
X118313055Y-92240997D01*
X123621655Y-92240997D01*
X123748995Y-92549182D01*
X123984578Y-92785177D01*
X124292540Y-92913054D01*
X124625997Y-92913345D01*
X124934182Y-92786005D01*
X125170177Y-92550422D01*
X125298054Y-92242460D01*
X125298055Y-92240997D01*
X128066655Y-92240997D01*
X128193995Y-92549182D01*
X128429578Y-92785177D01*
X128737540Y-92913054D01*
X129070997Y-92913345D01*
X129379182Y-92786005D01*
X129615177Y-92550422D01*
X129743054Y-92242460D01*
X129743345Y-91909003D01*
X129616005Y-91600818D01*
X129380422Y-91364823D01*
X129072460Y-91236946D01*
X128739003Y-91236655D01*
X128430818Y-91363995D01*
X128194823Y-91599578D01*
X128066946Y-91907540D01*
X128066655Y-92240997D01*
X125298055Y-92240997D01*
X125298345Y-91909003D01*
X125171005Y-91600818D01*
X124935422Y-91364823D01*
X124627460Y-91236946D01*
X124294003Y-91236655D01*
X123985818Y-91363995D01*
X123749823Y-91599578D01*
X123621946Y-91907540D01*
X123621655Y-92240997D01*
X118313055Y-92240997D01*
X118313345Y-91909003D01*
X118186005Y-91600818D01*
X117950422Y-91364823D01*
X117642460Y-91236946D01*
X117309003Y-91236655D01*
X117000818Y-91363995D01*
X116764823Y-91599578D01*
X116636946Y-91907540D01*
X116636655Y-92240997D01*
X114503055Y-92240997D01*
X114503345Y-91909003D01*
X114376005Y-91600818D01*
X114140422Y-91364823D01*
X113832460Y-91236946D01*
X113499003Y-91236655D01*
X113190818Y-91363995D01*
X112954823Y-91599578D01*
X112826946Y-91907540D01*
X112826655Y-92240997D01*
X110305105Y-92240997D01*
X110349827Y-92196353D01*
X110553268Y-91706413D01*
X110553731Y-91175914D01*
X110351146Y-90685620D01*
X110255690Y-90589997D01*
X111937655Y-90589997D01*
X112064995Y-90898182D01*
X112300578Y-91134177D01*
X112608540Y-91262054D01*
X112941997Y-91262345D01*
X113250182Y-91135005D01*
X113486177Y-90899422D01*
X113614054Y-90591460D01*
X113614276Y-90335997D01*
X115747655Y-90335997D01*
X115874995Y-90644182D01*
X116110578Y-90880177D01*
X116418540Y-91008054D01*
X116751997Y-91008345D01*
X117060182Y-90881005D01*
X117296177Y-90645422D01*
X117424054Y-90337460D01*
X117424276Y-90081997D01*
X128955655Y-90081997D01*
X129082995Y-90390182D01*
X129318578Y-90626177D01*
X129626540Y-90754054D01*
X129959997Y-90754345D01*
X130268182Y-90627005D01*
X130504177Y-90391422D01*
X130632054Y-90083460D01*
X130632345Y-89750003D01*
X130559621Y-89573997D01*
X132765655Y-89573997D01*
X132892995Y-89882182D01*
X132926606Y-89915852D01*
X132893823Y-89948578D01*
X132765946Y-90256540D01*
X132765655Y-90589997D01*
X132892995Y-90898182D01*
X133128578Y-91134177D01*
X133436540Y-91262054D01*
X133769997Y-91262345D01*
X134078182Y-91135005D01*
X134314177Y-90899422D01*
X134442054Y-90591460D01*
X134442345Y-90258003D01*
X134315005Y-89949818D01*
X134281394Y-89916148D01*
X134314177Y-89883422D01*
X134442054Y-89575460D01*
X134442345Y-89242003D01*
X134315005Y-88933818D01*
X134079422Y-88697823D01*
X133771460Y-88569946D01*
X133438003Y-88569655D01*
X133129818Y-88696995D01*
X132893823Y-88932578D01*
X132765946Y-89240540D01*
X132765655Y-89573997D01*
X130559621Y-89573997D01*
X130505005Y-89441818D01*
X130269422Y-89205823D01*
X129961460Y-89077946D01*
X129628003Y-89077655D01*
X129319818Y-89204995D01*
X129083823Y-89440578D01*
X128955946Y-89748540D01*
X128955655Y-90081997D01*
X117424276Y-90081997D01*
X117424345Y-90004003D01*
X117297005Y-89695818D01*
X117061422Y-89459823D01*
X116753460Y-89331946D01*
X116420003Y-89331655D01*
X116111818Y-89458995D01*
X115875823Y-89694578D01*
X115747946Y-90002540D01*
X115747655Y-90335997D01*
X113614276Y-90335997D01*
X113614345Y-90258003D01*
X113487005Y-89949818D01*
X113251422Y-89713823D01*
X112943460Y-89585946D01*
X112610003Y-89585655D01*
X112301818Y-89712995D01*
X112065823Y-89948578D01*
X111937946Y-90256540D01*
X111937655Y-90589997D01*
X110255690Y-90589997D01*
X109976353Y-90310173D01*
X109638554Y-90169906D01*
X109974380Y-90031146D01*
X110349827Y-89656353D01*
X110553268Y-89166413D01*
X110553731Y-88635914D01*
X110521537Y-88557997D01*
X111683655Y-88557997D01*
X111810995Y-88866182D01*
X112046578Y-89102177D01*
X112354540Y-89230054D01*
X112687997Y-89230345D01*
X112996182Y-89103005D01*
X113033254Y-89065997D01*
X123939155Y-89065997D01*
X124066495Y-89374182D01*
X124302078Y-89610177D01*
X124610040Y-89738054D01*
X124943497Y-89738345D01*
X125251682Y-89611005D01*
X125487677Y-89375422D01*
X125615554Y-89067460D01*
X125615845Y-88734003D01*
X125488505Y-88425818D01*
X125252922Y-88189823D01*
X124944960Y-88061946D01*
X124611503Y-88061655D01*
X124303318Y-88188995D01*
X124067323Y-88424578D01*
X123939446Y-88732540D01*
X123939155Y-89065997D01*
X113033254Y-89065997D01*
X113232177Y-88867422D01*
X113360054Y-88559460D01*
X113360345Y-88226003D01*
X113233005Y-87917818D01*
X112997422Y-87681823D01*
X112689460Y-87553946D01*
X112356003Y-87553655D01*
X112047818Y-87680995D01*
X111811823Y-87916578D01*
X111683946Y-88224540D01*
X111683655Y-88557997D01*
X110521537Y-88557997D01*
X110351146Y-88145620D01*
X109976353Y-87770173D01*
X109638554Y-87629906D01*
X109974380Y-87491146D01*
X110349827Y-87116353D01*
X110553268Y-86626413D01*
X110553731Y-86095914D01*
X110416586Y-85763997D01*
X111683655Y-85763997D01*
X111810995Y-86072182D01*
X112046578Y-86308177D01*
X112354540Y-86436054D01*
X112687997Y-86436345D01*
X112996182Y-86309005D01*
X113232177Y-86073422D01*
X113360054Y-85765460D01*
X113360055Y-85763997D01*
X132765655Y-85763997D01*
X132892995Y-86072182D01*
X133128578Y-86308177D01*
X133436540Y-86436054D01*
X133769997Y-86436345D01*
X134078182Y-86309005D01*
X134314177Y-86073422D01*
X134442054Y-85765460D01*
X134442345Y-85432003D01*
X134315005Y-85123818D01*
X134079422Y-84887823D01*
X133771460Y-84759946D01*
X133438003Y-84759655D01*
X133129818Y-84886995D01*
X132893823Y-85122578D01*
X132765946Y-85430540D01*
X132765655Y-85763997D01*
X113360055Y-85763997D01*
X113360345Y-85432003D01*
X113233005Y-85123818D01*
X112997422Y-84887823D01*
X112689460Y-84759946D01*
X112356003Y-84759655D01*
X112047818Y-84886995D01*
X111811823Y-85122578D01*
X111683946Y-85430540D01*
X111683655Y-85763997D01*
X110416586Y-85763997D01*
X110351146Y-85605620D01*
X109976353Y-85230173D01*
X109638554Y-85089906D01*
X109974380Y-84951146D01*
X110349827Y-84576353D01*
X110553268Y-84086413D01*
X110553577Y-83731997D01*
X111937655Y-83731997D01*
X112064995Y-84040182D01*
X112300578Y-84276177D01*
X112608540Y-84404054D01*
X112941997Y-84404345D01*
X113250182Y-84277005D01*
X113486177Y-84041422D01*
X113509191Y-83985997D01*
X115747655Y-83985997D01*
X115874995Y-84294182D01*
X116110578Y-84530177D01*
X116418540Y-84658054D01*
X116751997Y-84658345D01*
X117060182Y-84531005D01*
X117296177Y-84295422D01*
X117424054Y-83987460D01*
X117424055Y-83985997D01*
X128955655Y-83985997D01*
X129082995Y-84294182D01*
X129318578Y-84530177D01*
X129626540Y-84658054D01*
X129959997Y-84658345D01*
X130268182Y-84531005D01*
X130504177Y-84295422D01*
X130632054Y-83987460D01*
X130632276Y-83731997D01*
X132765655Y-83731997D01*
X132892995Y-84040182D01*
X133128578Y-84276177D01*
X133436540Y-84404054D01*
X133769997Y-84404345D01*
X134078182Y-84277005D01*
X134314177Y-84041422D01*
X134442054Y-83733460D01*
X134442345Y-83400003D01*
X134315005Y-83091818D01*
X134079422Y-82855823D01*
X133771460Y-82727946D01*
X133438003Y-82727655D01*
X133129818Y-82854995D01*
X132893823Y-83090578D01*
X132765946Y-83398540D01*
X132765655Y-83731997D01*
X130632276Y-83731997D01*
X130632345Y-83654003D01*
X130505005Y-83345818D01*
X130269422Y-83109823D01*
X129961460Y-82981946D01*
X129628003Y-82981655D01*
X129319818Y-83108995D01*
X129083823Y-83344578D01*
X128955946Y-83652540D01*
X128955655Y-83985997D01*
X117424055Y-83985997D01*
X117424345Y-83654003D01*
X117297005Y-83345818D01*
X117061422Y-83109823D01*
X116753460Y-82981946D01*
X116420003Y-82981655D01*
X116111818Y-83108995D01*
X115875823Y-83344578D01*
X115747946Y-83652540D01*
X115747655Y-83985997D01*
X113509191Y-83985997D01*
X113614054Y-83733460D01*
X113614345Y-83400003D01*
X113487005Y-83091818D01*
X113251422Y-82855823D01*
X112943460Y-82727946D01*
X112610003Y-82727655D01*
X112301818Y-82854995D01*
X112065823Y-83090578D01*
X111937946Y-83398540D01*
X111937655Y-83731997D01*
X110553577Y-83731997D01*
X110553731Y-83555914D01*
X110351146Y-83065620D01*
X109976353Y-82690173D01*
X109638554Y-82549906D01*
X109974380Y-82411146D01*
X110305105Y-82080997D01*
X112826655Y-82080997D01*
X112953995Y-82389182D01*
X113189578Y-82625177D01*
X113497540Y-82753054D01*
X113830997Y-82753345D01*
X114139182Y-82626005D01*
X114375177Y-82390422D01*
X114503054Y-82082460D01*
X114503055Y-82080997D01*
X116636655Y-82080997D01*
X116763995Y-82389182D01*
X116999578Y-82625177D01*
X117307540Y-82753054D01*
X117640997Y-82753345D01*
X117949182Y-82626005D01*
X118185177Y-82390422D01*
X118313054Y-82082460D01*
X118313055Y-82080997D01*
X123621655Y-82080997D01*
X123748995Y-82389182D01*
X123984578Y-82625177D01*
X124292540Y-82753054D01*
X124625997Y-82753345D01*
X124934182Y-82626005D01*
X125170177Y-82390422D01*
X125298054Y-82082460D01*
X125298055Y-82080997D01*
X128066655Y-82080997D01*
X128193995Y-82389182D01*
X128429578Y-82625177D01*
X128737540Y-82753054D01*
X129070997Y-82753345D01*
X129379182Y-82626005D01*
X129615177Y-82390422D01*
X129690926Y-82207997D01*
X134543655Y-82207997D01*
X134670995Y-82516182D01*
X134906578Y-82752177D01*
X135214540Y-82880054D01*
X135547997Y-82880345D01*
X135856182Y-82753005D01*
X136092177Y-82517422D01*
X136215229Y-82221080D01*
X136403647Y-82409827D01*
X136741446Y-82550094D01*
X136405620Y-82688854D01*
X136030173Y-83063647D01*
X135826732Y-83553587D01*
X135826269Y-84084086D01*
X136028854Y-84574380D01*
X136403647Y-84949827D01*
X136741446Y-85090094D01*
X136405620Y-85228854D01*
X136030173Y-85603647D01*
X135826732Y-86093587D01*
X135826269Y-86624086D01*
X136028854Y-87114380D01*
X136403647Y-87489827D01*
X136741446Y-87630094D01*
X136405620Y-87768854D01*
X136030173Y-88143647D01*
X135826732Y-88633587D01*
X135826269Y-89164086D01*
X136028854Y-89654380D01*
X136403647Y-90029827D01*
X136741446Y-90170094D01*
X136405620Y-90308854D01*
X136030173Y-90683647D01*
X135826732Y-91173587D01*
X135826465Y-91478969D01*
X135549460Y-91363946D01*
X135216003Y-91363655D01*
X134907818Y-91490995D01*
X134671823Y-91726578D01*
X134543946Y-92034540D01*
X134543655Y-92367997D01*
X134670995Y-92676182D01*
X134906578Y-92912177D01*
X135214540Y-93040054D01*
X135547997Y-93040345D01*
X135856182Y-92913005D01*
X136092177Y-92677422D01*
X136215229Y-92381080D01*
X136403647Y-92569827D01*
X136824383Y-92744532D01*
X136441542Y-92902718D01*
X136083974Y-93259663D01*
X135890221Y-93726273D01*
X135889780Y-94231510D01*
X136082718Y-94698458D01*
X136439663Y-95056026D01*
X136824443Y-95215800D01*
X136405620Y-95388854D01*
X136030173Y-95763647D01*
X135826732Y-96253587D01*
X135826269Y-96784086D01*
X136028854Y-97274380D01*
X136403647Y-97649827D01*
X136741446Y-97790094D01*
X136405620Y-97928854D01*
X136030173Y-98303647D01*
X135826732Y-98793587D01*
X135826269Y-99324086D01*
X136028854Y-99814380D01*
X136403647Y-100189827D01*
X136741446Y-100330094D01*
X136405620Y-100468854D01*
X136030173Y-100843647D01*
X135826732Y-101333587D01*
X135826269Y-101864086D01*
X136028854Y-102354380D01*
X136403647Y-102729827D01*
X136725118Y-102863314D01*
X136467071Y-102970200D01*
X136405417Y-103205812D01*
X137160000Y-103960395D01*
X137914583Y-103205812D01*
X137852929Y-102970200D01*
X137573688Y-102871917D01*
X137914380Y-102731146D01*
X138289827Y-102356353D01*
X138493268Y-101866413D01*
X138493731Y-101335914D01*
X138291146Y-100845620D01*
X137916353Y-100470173D01*
X137578554Y-100329906D01*
X137914380Y-100191146D01*
X138289827Y-99816353D01*
X138493268Y-99326413D01*
X138493731Y-98795914D01*
X138291146Y-98305620D01*
X137916353Y-97930173D01*
X137578554Y-97789906D01*
X137914380Y-97651146D01*
X138289827Y-97276353D01*
X138493268Y-96786413D01*
X138493731Y-96255914D01*
X138291146Y-95765620D01*
X137916353Y-95390173D01*
X137495617Y-95215468D01*
X137878458Y-95057282D01*
X138236026Y-94700337D01*
X138429779Y-94233727D01*
X138430220Y-93728490D01*
X138237282Y-93261542D01*
X137880337Y-92903974D01*
X137495557Y-92744200D01*
X137914380Y-92571146D01*
X138289827Y-92196353D01*
X138493268Y-91706413D01*
X138493731Y-91175914D01*
X138291146Y-90685620D01*
X137916353Y-90310173D01*
X137578554Y-90169906D01*
X137914380Y-90031146D01*
X138289827Y-89656353D01*
X138493268Y-89166413D01*
X138493731Y-88635914D01*
X138291146Y-88145620D01*
X137916353Y-87770173D01*
X137578554Y-87629906D01*
X137914380Y-87491146D01*
X138289827Y-87116353D01*
X138493268Y-86626413D01*
X138493731Y-86095914D01*
X138291146Y-85605620D01*
X137916353Y-85230173D01*
X137578554Y-85089906D01*
X137914380Y-84951146D01*
X138289827Y-84576353D01*
X138493268Y-84086413D01*
X138493731Y-83555914D01*
X138291146Y-83065620D01*
X137916353Y-82690173D01*
X137578554Y-82549906D01*
X137914380Y-82411146D01*
X138289827Y-82036353D01*
X138493268Y-81546413D01*
X138493731Y-81015914D01*
X138291146Y-80525620D01*
X137916353Y-80150173D01*
X137578554Y-80009906D01*
X137914380Y-79871146D01*
X138289827Y-79496353D01*
X138493268Y-79006413D01*
X138493731Y-78475914D01*
X138291146Y-77985620D01*
X137916353Y-77610173D01*
X137578554Y-77469906D01*
X137914380Y-77331146D01*
X138289827Y-76956353D01*
X138493268Y-76466413D01*
X138493731Y-75935914D01*
X138291146Y-75445620D01*
X137916353Y-75070173D01*
X137578554Y-74929906D01*
X137914380Y-74791146D01*
X138289827Y-74416353D01*
X138493268Y-73926413D01*
X138493731Y-73395914D01*
X138291146Y-72905620D01*
X137916353Y-72530173D01*
X137578554Y-72389906D01*
X137914380Y-72251146D01*
X138289827Y-71876353D01*
X138493268Y-71386413D01*
X138493731Y-70855914D01*
X138291146Y-70365620D01*
X137916353Y-69990173D01*
X137578554Y-69849906D01*
X137914380Y-69711146D01*
X138289827Y-69336353D01*
X138493268Y-68846413D01*
X138493731Y-68315914D01*
X138291146Y-67825620D01*
X137916353Y-67450173D01*
X137578554Y-67309906D01*
X137914380Y-67171146D01*
X138289827Y-66796353D01*
X138493268Y-66306413D01*
X138493731Y-65775914D01*
X138291146Y-65285620D01*
X137916353Y-64910173D01*
X137578554Y-64769906D01*
X137914380Y-64631146D01*
X138289827Y-64256353D01*
X138493268Y-63766413D01*
X138493731Y-63235914D01*
X138291146Y-62745620D01*
X137916353Y-62370173D01*
X137578554Y-62229906D01*
X137914380Y-62091146D01*
X138289827Y-61716353D01*
X138493268Y-61226413D01*
X138493731Y-60695914D01*
X138291146Y-60205620D01*
X137916353Y-59830173D01*
X137578554Y-59689906D01*
X137914380Y-59551146D01*
X138289827Y-59176353D01*
X138493268Y-58686413D01*
X138493731Y-58155914D01*
X138291146Y-57665620D01*
X137916353Y-57290173D01*
X137578554Y-57149906D01*
X137914380Y-57011146D01*
X138289827Y-56636353D01*
X138493268Y-56146413D01*
X138493731Y-55615914D01*
X138291146Y-55125620D01*
X137916353Y-54750173D01*
X137426413Y-54546732D01*
X136895914Y-54546269D01*
X136405620Y-54748854D01*
X136030173Y-55123647D01*
X135826732Y-55613587D01*
X135826269Y-56144086D01*
X136028854Y-56634380D01*
X136403647Y-57009827D01*
X136741446Y-57150094D01*
X136405620Y-57288854D01*
X136030173Y-57663647D01*
X135826732Y-58153587D01*
X135826269Y-58684086D01*
X136028854Y-59174380D01*
X136403647Y-59549827D01*
X136741446Y-59690094D01*
X136405620Y-59828854D01*
X136030173Y-60203647D01*
X135826732Y-60693587D01*
X135826269Y-61224086D01*
X136028854Y-61714380D01*
X136403647Y-62089827D01*
X136741446Y-62230094D01*
X136405620Y-62368854D01*
X136030173Y-62743647D01*
X135826732Y-63233587D01*
X135826269Y-63764086D01*
X136028854Y-64254380D01*
X136403647Y-64629827D01*
X136741446Y-64770094D01*
X136405620Y-64908854D01*
X136030173Y-65283647D01*
X135826732Y-65773587D01*
X135826269Y-66304086D01*
X136028854Y-66794380D01*
X136403647Y-67169827D01*
X136741446Y-67310094D01*
X136405620Y-67448854D01*
X136030173Y-67823647D01*
X135826732Y-68313587D01*
X135826269Y-68844086D01*
X136028854Y-69334380D01*
X136403647Y-69709827D01*
X136741446Y-69850094D01*
X136405620Y-69988854D01*
X136030173Y-70363647D01*
X135826732Y-70853587D01*
X135826269Y-71384086D01*
X136028854Y-71874380D01*
X136403647Y-72249827D01*
X136741446Y-72390094D01*
X136405620Y-72528854D01*
X136030173Y-72903647D01*
X135826732Y-73393587D01*
X135826269Y-73924086D01*
X136028854Y-74414380D01*
X136403647Y-74789827D01*
X136741446Y-74930094D01*
X136405620Y-75068854D01*
X136030173Y-75443647D01*
X135826732Y-75933587D01*
X135826269Y-76464086D01*
X136028854Y-76954380D01*
X136403647Y-77329827D01*
X136741446Y-77470094D01*
X136405620Y-77608854D01*
X136030173Y-77983647D01*
X135826732Y-78473587D01*
X135826269Y-79004086D01*
X136028854Y-79494380D01*
X136403647Y-79869827D01*
X136741446Y-80010094D01*
X136405620Y-80148854D01*
X136030173Y-80523647D01*
X135826732Y-81013587D01*
X135826465Y-81318969D01*
X135549460Y-81203946D01*
X135216003Y-81203655D01*
X134907818Y-81330995D01*
X134671823Y-81566578D01*
X134543946Y-81874540D01*
X134543655Y-82207997D01*
X129690926Y-82207997D01*
X129743054Y-82082460D01*
X129743345Y-81749003D01*
X129616005Y-81440818D01*
X129380422Y-81204823D01*
X129072460Y-81076946D01*
X128739003Y-81076655D01*
X128430818Y-81203995D01*
X128194823Y-81439578D01*
X128066946Y-81747540D01*
X128066655Y-82080997D01*
X125298055Y-82080997D01*
X125298345Y-81749003D01*
X125171005Y-81440818D01*
X124935422Y-81204823D01*
X124627460Y-81076946D01*
X124294003Y-81076655D01*
X123985818Y-81203995D01*
X123749823Y-81439578D01*
X123621946Y-81747540D01*
X123621655Y-82080997D01*
X118313055Y-82080997D01*
X118313345Y-81749003D01*
X118186005Y-81440818D01*
X117950422Y-81204823D01*
X117642460Y-81076946D01*
X117309003Y-81076655D01*
X117000818Y-81203995D01*
X116764823Y-81439578D01*
X116636946Y-81747540D01*
X116636655Y-82080997D01*
X114503055Y-82080997D01*
X114503345Y-81749003D01*
X114376005Y-81440818D01*
X114140422Y-81204823D01*
X113832460Y-81076946D01*
X113499003Y-81076655D01*
X113190818Y-81203995D01*
X112954823Y-81439578D01*
X112826946Y-81747540D01*
X112826655Y-82080997D01*
X110305105Y-82080997D01*
X110349827Y-82036353D01*
X110553268Y-81546413D01*
X110553731Y-81015914D01*
X110351146Y-80525620D01*
X110255690Y-80429997D01*
X111937655Y-80429997D01*
X112064995Y-80738182D01*
X112300578Y-80974177D01*
X112608540Y-81102054D01*
X112941997Y-81102345D01*
X113250182Y-80975005D01*
X113486177Y-80739422D01*
X113614054Y-80431460D01*
X113614276Y-80175997D01*
X115747655Y-80175997D01*
X115874995Y-80484182D01*
X116110578Y-80720177D01*
X116418540Y-80848054D01*
X116751997Y-80848345D01*
X117060182Y-80721005D01*
X117296177Y-80485422D01*
X117424054Y-80177460D01*
X117424055Y-80175997D01*
X128955655Y-80175997D01*
X129082995Y-80484182D01*
X129318578Y-80720177D01*
X129626540Y-80848054D01*
X129959997Y-80848345D01*
X130268182Y-80721005D01*
X130504177Y-80485422D01*
X130527191Y-80429997D01*
X132765655Y-80429997D01*
X132892995Y-80738182D01*
X133128578Y-80974177D01*
X133436540Y-81102054D01*
X133769997Y-81102345D01*
X134078182Y-80975005D01*
X134314177Y-80739422D01*
X134442054Y-80431460D01*
X134442345Y-80098003D01*
X134315005Y-79789818D01*
X134079422Y-79553823D01*
X133771460Y-79425946D01*
X133438003Y-79425655D01*
X133129818Y-79552995D01*
X132893823Y-79788578D01*
X132765946Y-80096540D01*
X132765655Y-80429997D01*
X130527191Y-80429997D01*
X130632054Y-80177460D01*
X130632345Y-79844003D01*
X130505005Y-79535818D01*
X130269422Y-79299823D01*
X129961460Y-79171946D01*
X129628003Y-79171655D01*
X129319818Y-79298995D01*
X129083823Y-79534578D01*
X128955946Y-79842540D01*
X128955655Y-80175997D01*
X117424055Y-80175997D01*
X117424345Y-79844003D01*
X117297005Y-79535818D01*
X117061422Y-79299823D01*
X116753460Y-79171946D01*
X116420003Y-79171655D01*
X116111818Y-79298995D01*
X115875823Y-79534578D01*
X115747946Y-79842540D01*
X115747655Y-80175997D01*
X113614276Y-80175997D01*
X113614345Y-80098003D01*
X113487005Y-79789818D01*
X113251422Y-79553823D01*
X112943460Y-79425946D01*
X112610003Y-79425655D01*
X112301818Y-79552995D01*
X112065823Y-79788578D01*
X111937946Y-80096540D01*
X111937655Y-80429997D01*
X110255690Y-80429997D01*
X109976353Y-80150173D01*
X109638554Y-80009906D01*
X109974380Y-79871146D01*
X110349827Y-79496353D01*
X110553268Y-79006413D01*
X110553731Y-78475914D01*
X110521537Y-78397997D01*
X111683655Y-78397997D01*
X111810995Y-78706182D01*
X112046578Y-78942177D01*
X112354540Y-79070054D01*
X112687997Y-79070345D01*
X112996182Y-78943005D01*
X113033254Y-78905997D01*
X123939155Y-78905997D01*
X124066495Y-79214182D01*
X124302078Y-79450177D01*
X124610040Y-79578054D01*
X124943497Y-79578345D01*
X125251682Y-79451005D01*
X125487677Y-79215422D01*
X125615554Y-78907460D01*
X125615845Y-78574003D01*
X125543121Y-78397997D01*
X132765655Y-78397997D01*
X132892995Y-78706182D01*
X133128578Y-78942177D01*
X133436540Y-79070054D01*
X133769997Y-79070345D01*
X134078182Y-78943005D01*
X134314177Y-78707422D01*
X134442054Y-78399460D01*
X134442345Y-78066003D01*
X134315005Y-77757818D01*
X134079422Y-77521823D01*
X133771460Y-77393946D01*
X133438003Y-77393655D01*
X133129818Y-77520995D01*
X132893823Y-77756578D01*
X132765946Y-78064540D01*
X132765655Y-78397997D01*
X125543121Y-78397997D01*
X125488505Y-78265818D01*
X125252922Y-78029823D01*
X124944960Y-77901946D01*
X124611503Y-77901655D01*
X124303318Y-78028995D01*
X124067323Y-78264578D01*
X123939446Y-78572540D01*
X123939155Y-78905997D01*
X113033254Y-78905997D01*
X113232177Y-78707422D01*
X113360054Y-78399460D01*
X113360345Y-78066003D01*
X113233005Y-77757818D01*
X112997422Y-77521823D01*
X112689460Y-77393946D01*
X112356003Y-77393655D01*
X112047818Y-77520995D01*
X111811823Y-77756578D01*
X111683946Y-78064540D01*
X111683655Y-78397997D01*
X110521537Y-78397997D01*
X110351146Y-77985620D01*
X109976353Y-77610173D01*
X109638554Y-77469906D01*
X109974380Y-77331146D01*
X110349827Y-76956353D01*
X110553268Y-76466413D01*
X110553731Y-75935914D01*
X110351146Y-75445620D01*
X109976353Y-75070173D01*
X109638554Y-74929906D01*
X109974380Y-74791146D01*
X110349827Y-74416353D01*
X110553268Y-73926413D01*
X110553731Y-73395914D01*
X110416586Y-73063997D01*
X111683655Y-73063997D01*
X111810995Y-73372182D01*
X112046578Y-73608177D01*
X112354540Y-73736054D01*
X112687997Y-73736345D01*
X112996182Y-73609005D01*
X113232177Y-73373422D01*
X113360054Y-73065460D01*
X113360055Y-73063997D01*
X133019655Y-73063997D01*
X133146995Y-73372182D01*
X133382578Y-73608177D01*
X133690540Y-73736054D01*
X134023997Y-73736345D01*
X134332182Y-73609005D01*
X134568177Y-73373422D01*
X134696054Y-73065460D01*
X134696345Y-72732003D01*
X134569005Y-72423818D01*
X134333422Y-72187823D01*
X134025460Y-72059946D01*
X133692003Y-72059655D01*
X133383818Y-72186995D01*
X133147823Y-72422578D01*
X133019946Y-72730540D01*
X133019655Y-73063997D01*
X113360055Y-73063997D01*
X113360345Y-72732003D01*
X113233005Y-72423818D01*
X112997422Y-72187823D01*
X112689460Y-72059946D01*
X112356003Y-72059655D01*
X112047818Y-72186995D01*
X111811823Y-72422578D01*
X111683946Y-72730540D01*
X111683655Y-73063997D01*
X110416586Y-73063997D01*
X110351146Y-72905620D01*
X109976353Y-72530173D01*
X109638554Y-72389906D01*
X109974380Y-72251146D01*
X110349827Y-71876353D01*
X110553268Y-71386413D01*
X110553577Y-71031997D01*
X111937655Y-71031997D01*
X112064995Y-71340182D01*
X112300578Y-71576177D01*
X112608540Y-71704054D01*
X112941997Y-71704345D01*
X113250182Y-71577005D01*
X113486177Y-71341422D01*
X113509191Y-71285997D01*
X115747655Y-71285997D01*
X115874995Y-71594182D01*
X116110578Y-71830177D01*
X116418540Y-71958054D01*
X116751997Y-71958345D01*
X117060182Y-71831005D01*
X117296177Y-71595422D01*
X117424054Y-71287460D01*
X117424055Y-71285997D01*
X128955655Y-71285997D01*
X129082995Y-71594182D01*
X129318578Y-71830177D01*
X129626540Y-71958054D01*
X129959997Y-71958345D01*
X130268182Y-71831005D01*
X130504177Y-71595422D01*
X130632054Y-71287460D01*
X130632276Y-71031997D01*
X132765655Y-71031997D01*
X132892995Y-71340182D01*
X133128578Y-71576177D01*
X133436540Y-71704054D01*
X133769997Y-71704345D01*
X134078182Y-71577005D01*
X134314177Y-71341422D01*
X134442054Y-71033460D01*
X134442345Y-70700003D01*
X134315005Y-70391818D01*
X134079422Y-70155823D01*
X133771460Y-70027946D01*
X133438003Y-70027655D01*
X133129818Y-70154995D01*
X132893823Y-70390578D01*
X132765946Y-70698540D01*
X132765655Y-71031997D01*
X130632276Y-71031997D01*
X130632345Y-70954003D01*
X130505005Y-70645818D01*
X130269422Y-70409823D01*
X129961460Y-70281946D01*
X129628003Y-70281655D01*
X129319818Y-70408995D01*
X129083823Y-70644578D01*
X128955946Y-70952540D01*
X128955655Y-71285997D01*
X117424055Y-71285997D01*
X117424345Y-70954003D01*
X117297005Y-70645818D01*
X117061422Y-70409823D01*
X116753460Y-70281946D01*
X116420003Y-70281655D01*
X116111818Y-70408995D01*
X115875823Y-70644578D01*
X115747946Y-70952540D01*
X115747655Y-71285997D01*
X113509191Y-71285997D01*
X113614054Y-71033460D01*
X113614345Y-70700003D01*
X113487005Y-70391818D01*
X113251422Y-70155823D01*
X112943460Y-70027946D01*
X112610003Y-70027655D01*
X112301818Y-70154995D01*
X112065823Y-70390578D01*
X111937946Y-70698540D01*
X111937655Y-71031997D01*
X110553577Y-71031997D01*
X110553731Y-70855914D01*
X110351146Y-70365620D01*
X109976353Y-69990173D01*
X109638554Y-69849906D01*
X109974380Y-69711146D01*
X110305105Y-69380997D01*
X112826655Y-69380997D01*
X112953995Y-69689182D01*
X113189578Y-69925177D01*
X113497540Y-70053054D01*
X113830997Y-70053345D01*
X114139182Y-69926005D01*
X114375177Y-69690422D01*
X114503054Y-69382460D01*
X114503055Y-69380997D01*
X116636655Y-69380997D01*
X116763995Y-69689182D01*
X116999578Y-69925177D01*
X117307540Y-70053054D01*
X117640997Y-70053345D01*
X117949182Y-69926005D01*
X118185177Y-69690422D01*
X118313054Y-69382460D01*
X118313055Y-69380997D01*
X123621655Y-69380997D01*
X123748995Y-69689182D01*
X123984578Y-69925177D01*
X124292540Y-70053054D01*
X124625997Y-70053345D01*
X124934182Y-69926005D01*
X125170177Y-69690422D01*
X125298054Y-69382460D01*
X125298055Y-69380997D01*
X128066655Y-69380997D01*
X128193995Y-69689182D01*
X128429578Y-69925177D01*
X128737540Y-70053054D01*
X129070997Y-70053345D01*
X129379182Y-69926005D01*
X129615177Y-69690422D01*
X129743054Y-69382460D01*
X129743055Y-69380997D01*
X131876655Y-69380997D01*
X132003995Y-69689182D01*
X132239578Y-69925177D01*
X132547540Y-70053054D01*
X132880997Y-70053345D01*
X133189182Y-69926005D01*
X133425177Y-69690422D01*
X133553054Y-69382460D01*
X133553345Y-69049003D01*
X133426005Y-68740818D01*
X133190422Y-68504823D01*
X132882460Y-68376946D01*
X132549003Y-68376655D01*
X132240818Y-68503995D01*
X132004823Y-68739578D01*
X131876946Y-69047540D01*
X131876655Y-69380997D01*
X129743055Y-69380997D01*
X129743345Y-69049003D01*
X129616005Y-68740818D01*
X129380422Y-68504823D01*
X129072460Y-68376946D01*
X128739003Y-68376655D01*
X128430818Y-68503995D01*
X128194823Y-68739578D01*
X128066946Y-69047540D01*
X128066655Y-69380997D01*
X125298055Y-69380997D01*
X125298345Y-69049003D01*
X125171005Y-68740818D01*
X124935422Y-68504823D01*
X124627460Y-68376946D01*
X124294003Y-68376655D01*
X123985818Y-68503995D01*
X123749823Y-68739578D01*
X123621946Y-69047540D01*
X123621655Y-69380997D01*
X118313055Y-69380997D01*
X118313345Y-69049003D01*
X118186005Y-68740818D01*
X117950422Y-68504823D01*
X117642460Y-68376946D01*
X117309003Y-68376655D01*
X117000818Y-68503995D01*
X116764823Y-68739578D01*
X116636946Y-69047540D01*
X116636655Y-69380997D01*
X114503055Y-69380997D01*
X114503345Y-69049003D01*
X114376005Y-68740818D01*
X114140422Y-68504823D01*
X113832460Y-68376946D01*
X113499003Y-68376655D01*
X113190818Y-68503995D01*
X112954823Y-68739578D01*
X112826946Y-69047540D01*
X112826655Y-69380997D01*
X110305105Y-69380997D01*
X110349827Y-69336353D01*
X110553268Y-68846413D01*
X110553731Y-68315914D01*
X110351146Y-67825620D01*
X110255690Y-67729997D01*
X111937655Y-67729997D01*
X112064995Y-68038182D01*
X112300578Y-68274177D01*
X112608540Y-68402054D01*
X112941997Y-68402345D01*
X113250182Y-68275005D01*
X113486177Y-68039422D01*
X113614054Y-67731460D01*
X113614276Y-67475997D01*
X115747655Y-67475997D01*
X115874995Y-67784182D01*
X116110578Y-68020177D01*
X116418540Y-68148054D01*
X116751997Y-68148345D01*
X117060182Y-68021005D01*
X117296177Y-67785422D01*
X117424054Y-67477460D01*
X117424055Y-67475997D01*
X128955655Y-67475997D01*
X129082995Y-67784182D01*
X129318578Y-68020177D01*
X129626540Y-68148054D01*
X129959997Y-68148345D01*
X130268182Y-68021005D01*
X130504177Y-67785422D01*
X130527191Y-67729997D01*
X132765655Y-67729997D01*
X132892995Y-68038182D01*
X133128578Y-68274177D01*
X133436540Y-68402054D01*
X133769997Y-68402345D01*
X134078182Y-68275005D01*
X134314177Y-68039422D01*
X134442054Y-67731460D01*
X134442345Y-67398003D01*
X134315005Y-67089818D01*
X134079422Y-66853823D01*
X133771460Y-66725946D01*
X133438003Y-66725655D01*
X133129818Y-66852995D01*
X132893823Y-67088578D01*
X132765946Y-67396540D01*
X132765655Y-67729997D01*
X130527191Y-67729997D01*
X130632054Y-67477460D01*
X130632345Y-67144003D01*
X130505005Y-66835818D01*
X130269422Y-66599823D01*
X129961460Y-66471946D01*
X129628003Y-66471655D01*
X129319818Y-66598995D01*
X129083823Y-66834578D01*
X128955946Y-67142540D01*
X128955655Y-67475997D01*
X117424055Y-67475997D01*
X117424345Y-67144003D01*
X117297005Y-66835818D01*
X117061422Y-66599823D01*
X116753460Y-66471946D01*
X116420003Y-66471655D01*
X116111818Y-66598995D01*
X115875823Y-66834578D01*
X115747946Y-67142540D01*
X115747655Y-67475997D01*
X113614276Y-67475997D01*
X113614345Y-67398003D01*
X113487005Y-67089818D01*
X113251422Y-66853823D01*
X112943460Y-66725946D01*
X112610003Y-66725655D01*
X112301818Y-66852995D01*
X112065823Y-67088578D01*
X111937946Y-67396540D01*
X111937655Y-67729997D01*
X110255690Y-67729997D01*
X109976353Y-67450173D01*
X109638554Y-67309906D01*
X109974380Y-67171146D01*
X110349827Y-66796353D01*
X110553268Y-66306413D01*
X110553731Y-65775914D01*
X110521537Y-65697997D01*
X111683655Y-65697997D01*
X111810995Y-66006182D01*
X112046578Y-66242177D01*
X112354540Y-66370054D01*
X112687997Y-66370345D01*
X112996182Y-66243005D01*
X113033254Y-66205997D01*
X123939155Y-66205997D01*
X124066495Y-66514182D01*
X124302078Y-66750177D01*
X124610040Y-66878054D01*
X124943497Y-66878345D01*
X125251682Y-66751005D01*
X125487677Y-66515422D01*
X125615554Y-66207460D01*
X125615845Y-65874003D01*
X125543121Y-65697997D01*
X133019655Y-65697997D01*
X133146995Y-66006182D01*
X133382578Y-66242177D01*
X133690540Y-66370054D01*
X134023997Y-66370345D01*
X134332182Y-66243005D01*
X134568177Y-66007422D01*
X134696054Y-65699460D01*
X134696345Y-65366003D01*
X134569005Y-65057818D01*
X134333422Y-64821823D01*
X134025460Y-64693946D01*
X133692003Y-64693655D01*
X133383818Y-64820995D01*
X133147823Y-65056578D01*
X133019946Y-65364540D01*
X133019655Y-65697997D01*
X125543121Y-65697997D01*
X125488505Y-65565818D01*
X125252922Y-65329823D01*
X124944960Y-65201946D01*
X124611503Y-65201655D01*
X124303318Y-65328995D01*
X124067323Y-65564578D01*
X123939446Y-65872540D01*
X123939155Y-66205997D01*
X113033254Y-66205997D01*
X113232177Y-66007422D01*
X113360054Y-65699460D01*
X113360345Y-65366003D01*
X113233005Y-65057818D01*
X112997422Y-64821823D01*
X112689460Y-64693946D01*
X112356003Y-64693655D01*
X112047818Y-64820995D01*
X111811823Y-65056578D01*
X111683946Y-65364540D01*
X111683655Y-65697997D01*
X110521537Y-65697997D01*
X110351146Y-65285620D01*
X109976353Y-64910173D01*
X109638554Y-64769906D01*
X109974380Y-64631146D01*
X110349827Y-64256353D01*
X110553268Y-63766413D01*
X110553731Y-63235914D01*
X110416586Y-62903997D01*
X111683655Y-62903997D01*
X111810995Y-63212182D01*
X112046578Y-63448177D01*
X112354540Y-63576054D01*
X112687997Y-63576345D01*
X112996182Y-63449005D01*
X113232177Y-63213422D01*
X113360054Y-62905460D01*
X113360055Y-62903997D01*
X133019655Y-62903997D01*
X133146995Y-63212182D01*
X133382578Y-63448177D01*
X133690540Y-63576054D01*
X134023997Y-63576345D01*
X134332182Y-63449005D01*
X134568177Y-63213422D01*
X134696054Y-62905460D01*
X134696345Y-62572003D01*
X134569005Y-62263818D01*
X134333422Y-62027823D01*
X134025460Y-61899946D01*
X133692003Y-61899655D01*
X133383818Y-62026995D01*
X133147823Y-62262578D01*
X133019946Y-62570540D01*
X133019655Y-62903997D01*
X113360055Y-62903997D01*
X113360345Y-62572003D01*
X113233005Y-62263818D01*
X112997422Y-62027823D01*
X112689460Y-61899946D01*
X112356003Y-61899655D01*
X112047818Y-62026995D01*
X111811823Y-62262578D01*
X111683946Y-62570540D01*
X111683655Y-62903997D01*
X110416586Y-62903997D01*
X110351146Y-62745620D01*
X109976353Y-62370173D01*
X109638554Y-62229906D01*
X109974380Y-62091146D01*
X110349827Y-61716353D01*
X110553268Y-61226413D01*
X110553577Y-60871997D01*
X111937655Y-60871997D01*
X112064995Y-61180182D01*
X112300578Y-61416177D01*
X112608540Y-61544054D01*
X112941997Y-61544345D01*
X113250182Y-61417005D01*
X113486177Y-61181422D01*
X113509191Y-61125997D01*
X116001655Y-61125997D01*
X116128995Y-61434182D01*
X116364578Y-61670177D01*
X116672540Y-61798054D01*
X117005997Y-61798345D01*
X117314182Y-61671005D01*
X117550177Y-61435422D01*
X117573191Y-61379997D01*
X128955655Y-61379997D01*
X129082995Y-61688182D01*
X129318578Y-61924177D01*
X129626540Y-62052054D01*
X129959997Y-62052345D01*
X130268182Y-61925005D01*
X130504177Y-61689422D01*
X130632054Y-61381460D01*
X130632345Y-61048003D01*
X130559621Y-60871997D01*
X132765655Y-60871997D01*
X132892995Y-61180182D01*
X133128578Y-61416177D01*
X133436540Y-61544054D01*
X133769997Y-61544345D01*
X134078182Y-61417005D01*
X134314177Y-61181422D01*
X134442054Y-60873460D01*
X134442345Y-60540003D01*
X134315005Y-60231818D01*
X134079422Y-59995823D01*
X133771460Y-59867946D01*
X133438003Y-59867655D01*
X133129818Y-59994995D01*
X132893823Y-60230578D01*
X132765946Y-60538540D01*
X132765655Y-60871997D01*
X130559621Y-60871997D01*
X130505005Y-60739818D01*
X130269422Y-60503823D01*
X129961460Y-60375946D01*
X129628003Y-60375655D01*
X129319818Y-60502995D01*
X129083823Y-60738578D01*
X128955946Y-61046540D01*
X128955655Y-61379997D01*
X117573191Y-61379997D01*
X117678054Y-61127460D01*
X117678345Y-60794003D01*
X117551005Y-60485818D01*
X117315422Y-60249823D01*
X117007460Y-60121946D01*
X116674003Y-60121655D01*
X116365818Y-60248995D01*
X116129823Y-60484578D01*
X116001946Y-60792540D01*
X116001655Y-61125997D01*
X113509191Y-61125997D01*
X113614054Y-60873460D01*
X113614345Y-60540003D01*
X113487005Y-60231818D01*
X113251422Y-59995823D01*
X112943460Y-59867946D01*
X112610003Y-59867655D01*
X112301818Y-59994995D01*
X112065823Y-60230578D01*
X111937946Y-60538540D01*
X111937655Y-60871997D01*
X110553577Y-60871997D01*
X110553731Y-60695914D01*
X110351146Y-60205620D01*
X109976353Y-59830173D01*
X109638554Y-59689906D01*
X109974380Y-59551146D01*
X110305105Y-59220997D01*
X112826655Y-59220997D01*
X112953995Y-59529182D01*
X113189578Y-59765177D01*
X113497540Y-59893054D01*
X113830997Y-59893345D01*
X114139182Y-59766005D01*
X114375177Y-59530422D01*
X114503054Y-59222460D01*
X114503055Y-59220997D01*
X116319155Y-59220997D01*
X116446495Y-59529182D01*
X116682078Y-59765177D01*
X116990040Y-59893054D01*
X117323497Y-59893345D01*
X117631682Y-59766005D01*
X117867677Y-59530422D01*
X117995554Y-59222460D01*
X117995555Y-59220997D01*
X123621655Y-59220997D01*
X123748995Y-59529182D01*
X123984578Y-59765177D01*
X124292540Y-59893054D01*
X124625997Y-59893345D01*
X124934182Y-59766005D01*
X125170177Y-59530422D01*
X125298054Y-59222460D01*
X125298055Y-59220997D01*
X128066655Y-59220997D01*
X128193995Y-59529182D01*
X128429578Y-59765177D01*
X128737540Y-59893054D01*
X129070997Y-59893345D01*
X129379182Y-59766005D01*
X129615177Y-59530422D01*
X129743054Y-59222460D01*
X129743055Y-59220997D01*
X131876655Y-59220997D01*
X132003995Y-59529182D01*
X132239578Y-59765177D01*
X132547540Y-59893054D01*
X132880997Y-59893345D01*
X133189182Y-59766005D01*
X133425177Y-59530422D01*
X133553054Y-59222460D01*
X133553345Y-58889003D01*
X133426005Y-58580818D01*
X133190422Y-58344823D01*
X132882460Y-58216946D01*
X132549003Y-58216655D01*
X132240818Y-58343995D01*
X132004823Y-58579578D01*
X131876946Y-58887540D01*
X131876655Y-59220997D01*
X129743055Y-59220997D01*
X129743345Y-58889003D01*
X129616005Y-58580818D01*
X129380422Y-58344823D01*
X129072460Y-58216946D01*
X128739003Y-58216655D01*
X128430818Y-58343995D01*
X128194823Y-58579578D01*
X128066946Y-58887540D01*
X128066655Y-59220997D01*
X125298055Y-59220997D01*
X125298345Y-58889003D01*
X125171005Y-58580818D01*
X124935422Y-58344823D01*
X124627460Y-58216946D01*
X124294003Y-58216655D01*
X123985818Y-58343995D01*
X123749823Y-58579578D01*
X123621946Y-58887540D01*
X123621655Y-59220997D01*
X117995555Y-59220997D01*
X117995845Y-58889003D01*
X117868505Y-58580818D01*
X117632922Y-58344823D01*
X117324960Y-58216946D01*
X116991503Y-58216655D01*
X116683318Y-58343995D01*
X116447323Y-58579578D01*
X116319446Y-58887540D01*
X116319155Y-59220997D01*
X114503055Y-59220997D01*
X114503345Y-58889003D01*
X114376005Y-58580818D01*
X114140422Y-58344823D01*
X113832460Y-58216946D01*
X113499003Y-58216655D01*
X113190818Y-58343995D01*
X112954823Y-58579578D01*
X112826946Y-58887540D01*
X112826655Y-59220997D01*
X110305105Y-59220997D01*
X110349827Y-59176353D01*
X110553268Y-58686413D01*
X110553731Y-58155914D01*
X110351146Y-57665620D01*
X110255690Y-57569997D01*
X111937655Y-57569997D01*
X112064995Y-57878182D01*
X112300578Y-58114177D01*
X112608540Y-58242054D01*
X112941997Y-58242345D01*
X113250182Y-58115005D01*
X113486177Y-57879422D01*
X113614054Y-57571460D01*
X113614276Y-57315997D01*
X116001655Y-57315997D01*
X116128995Y-57624182D01*
X116364578Y-57860177D01*
X116672540Y-57988054D01*
X117005997Y-57988345D01*
X117314182Y-57861005D01*
X117550177Y-57625422D01*
X117678054Y-57317460D01*
X117678055Y-57315997D01*
X128955655Y-57315997D01*
X129082995Y-57624182D01*
X129318578Y-57860177D01*
X129626540Y-57988054D01*
X129959997Y-57988345D01*
X130268182Y-57861005D01*
X130504177Y-57625422D01*
X130527191Y-57569997D01*
X132765655Y-57569997D01*
X132892995Y-57878182D01*
X133128578Y-58114177D01*
X133436540Y-58242054D01*
X133769997Y-58242345D01*
X134078182Y-58115005D01*
X134314177Y-57879422D01*
X134442054Y-57571460D01*
X134442345Y-57238003D01*
X134315005Y-56929818D01*
X134079422Y-56693823D01*
X133771460Y-56565946D01*
X133438003Y-56565655D01*
X133129818Y-56692995D01*
X132893823Y-56928578D01*
X132765946Y-57236540D01*
X132765655Y-57569997D01*
X130527191Y-57569997D01*
X130632054Y-57317460D01*
X130632345Y-56984003D01*
X130505005Y-56675818D01*
X130269422Y-56439823D01*
X129961460Y-56311946D01*
X129628003Y-56311655D01*
X129319818Y-56438995D01*
X129083823Y-56674578D01*
X128955946Y-56982540D01*
X128955655Y-57315997D01*
X117678055Y-57315997D01*
X117678345Y-56984003D01*
X117551005Y-56675818D01*
X117315422Y-56439823D01*
X117007460Y-56311946D01*
X116674003Y-56311655D01*
X116365818Y-56438995D01*
X116129823Y-56674578D01*
X116001946Y-56982540D01*
X116001655Y-57315997D01*
X113614276Y-57315997D01*
X113614345Y-57238003D01*
X113487005Y-56929818D01*
X113251422Y-56693823D01*
X112943460Y-56565946D01*
X112610003Y-56565655D01*
X112301818Y-56692995D01*
X112065823Y-56928578D01*
X111937946Y-57236540D01*
X111937655Y-57569997D01*
X110255690Y-57569997D01*
X109976353Y-57290173D01*
X109638554Y-57149906D01*
X109974380Y-57011146D01*
X110349827Y-56636353D01*
X110553268Y-56146413D01*
X110553731Y-55615914D01*
X110521537Y-55537997D01*
X111683655Y-55537997D01*
X111810995Y-55846182D01*
X112046578Y-56082177D01*
X112354540Y-56210054D01*
X112687997Y-56210345D01*
X112996182Y-56083005D01*
X113033254Y-56045997D01*
X123939155Y-56045997D01*
X124066495Y-56354182D01*
X124302078Y-56590177D01*
X124610040Y-56718054D01*
X124943497Y-56718345D01*
X125251682Y-56591005D01*
X125487677Y-56355422D01*
X125615554Y-56047460D01*
X125615776Y-55791997D01*
X133019655Y-55791997D01*
X133146995Y-56100182D01*
X133382578Y-56336177D01*
X133690540Y-56464054D01*
X134023997Y-56464345D01*
X134332182Y-56337005D01*
X134568177Y-56101422D01*
X134696054Y-55793460D01*
X134696345Y-55460003D01*
X134569005Y-55151818D01*
X134333422Y-54915823D01*
X134025460Y-54787946D01*
X133692003Y-54787655D01*
X133383818Y-54914995D01*
X133147823Y-55150578D01*
X133019946Y-55458540D01*
X133019655Y-55791997D01*
X125615776Y-55791997D01*
X125615845Y-55714003D01*
X125488505Y-55405818D01*
X125252922Y-55169823D01*
X124944960Y-55041946D01*
X124611503Y-55041655D01*
X124303318Y-55168995D01*
X124067323Y-55404578D01*
X123939446Y-55712540D01*
X123939155Y-56045997D01*
X113033254Y-56045997D01*
X113232177Y-55847422D01*
X113360054Y-55539460D01*
X113360345Y-55206003D01*
X113233005Y-54897818D01*
X112997422Y-54661823D01*
X112689460Y-54533946D01*
X112356003Y-54533655D01*
X112047818Y-54660995D01*
X111811823Y-54896578D01*
X111683946Y-55204540D01*
X111683655Y-55537997D01*
X110521537Y-55537997D01*
X110351146Y-55125620D01*
X109976353Y-54750173D01*
X109486413Y-54546732D01*
X108955914Y-54546269D01*
X108465620Y-54748854D01*
X108090173Y-55123647D01*
X107886732Y-55613587D01*
X107886269Y-56144086D01*
X107390000Y-56144086D01*
X107390000Y-54050000D01*
X138990000Y-54050000D01*
X138990000Y-118670000D01*
M02*
