G04 #@! TF.FileFunction,Soldermask,Bot*
%FSLAX46Y46*%
G04 Gerber Fmt 4.6, Leading zero omitted, Abs format (unit mm)*
G04 Created by KiCad (PCBNEW 4.0.2-stable) date 9/14/2021 9:27:19 PM*
%MOMM*%
G01*
G04 APERTURE LIST*
%ADD10C,0.100000*%
%ADD11C,1.900000*%
%ADD12C,5.200000*%
%ADD13C,2.000000*%
%ADD14R,1.900000X1.900000*%
%ADD15C,1.900000*%
%ADD16O,1.900000X1.900000*%
%ADD17C,1.724000*%
%ADD18C,4.000000*%
G04 APERTURE END LIST*
D10*
X78546356Y-63817611D02*
X78546356Y-113817611D01*
X78546356Y-63817611D02*
G75*
G02X81546356Y-60817611I3000000J0D01*
G01*
X140546356Y-60817611D02*
X81546356Y-60817611D01*
X140546356Y-60817611D02*
G75*
G02X143546356Y-63817611I0J-3000000D01*
G01*
X143546356Y-113817611D02*
X143546356Y-63817611D01*
X81546356Y-116817611D02*
G75*
G02X78546356Y-113817611I0J3000000D01*
G01*
X81546356Y-116817611D02*
X140546356Y-116817611D01*
X143546351Y-113822847D02*
G75*
G02X140546356Y-116817611I-2999995J5236D01*
G01*
D11*
X104140000Y-71120000D03*
X106680000Y-71120000D03*
X109220000Y-71120000D03*
X111760000Y-71120000D03*
X114300000Y-71120000D03*
X116840000Y-71120000D03*
X119380000Y-71120000D03*
X121920000Y-71120000D03*
X124460000Y-71120000D03*
X127000000Y-71120000D03*
X133359410Y-73660000D03*
X133359410Y-76200000D03*
X133359410Y-78740000D03*
X133359410Y-81280000D03*
X133359410Y-83820000D03*
X133359410Y-86360000D03*
X133359410Y-88900000D03*
X133359410Y-91440000D03*
X138430000Y-91440000D03*
X138430000Y-88900000D03*
X138430000Y-86360000D03*
X138430000Y-83820000D03*
X138430000Y-81280000D03*
X138430000Y-78740000D03*
X138430000Y-76200000D03*
X138430000Y-73660000D03*
X135890000Y-73660000D03*
X135890000Y-76200000D03*
X135890000Y-78740000D03*
X135890000Y-81280000D03*
X135890000Y-83820000D03*
X135890000Y-86360000D03*
X135890000Y-88900000D03*
X135890000Y-91440000D03*
D12*
X82046356Y-64317611D03*
X140040000Y-64330000D03*
X82040000Y-113320000D03*
X140030000Y-113310000D03*
D13*
X82550000Y-104060000D03*
X82550000Y-99060000D03*
D14*
X86868000Y-65659000D03*
D15*
X86868000Y-63119000D02*
X86868000Y-63119000D01*
D16*
X89408000Y-65659000D03*
D15*
X89408000Y-63119000D02*
X89408000Y-63119000D01*
D16*
X91948000Y-65659000D03*
D15*
X91948000Y-63119000D02*
X91948000Y-63119000D01*
D16*
X94488000Y-65659000D03*
X94488000Y-63119000D03*
D15*
X97028000Y-65659000D02*
X97028000Y-65659000D01*
D16*
X97028000Y-63119000D03*
X99568000Y-65659000D03*
X99568000Y-63119000D03*
X102108000Y-65659000D03*
D15*
X102108000Y-63119000D02*
X102108000Y-63119000D01*
D16*
X104648000Y-65659000D03*
X104648000Y-63119000D03*
D15*
X107188000Y-65659000D02*
X107188000Y-65659000D01*
D16*
X107188000Y-63119000D03*
X109728000Y-65659000D03*
D15*
X109728000Y-63119000D02*
X109728000Y-63119000D01*
D16*
X112268000Y-65659000D03*
X112268000Y-63119000D03*
X114808000Y-65659000D03*
X114808000Y-63119000D03*
X117348000Y-65659000D03*
X117348000Y-63119000D03*
X119888000Y-65659000D03*
X119888000Y-63119000D03*
X122428000Y-65659000D03*
D15*
X122428000Y-63119000D02*
X122428000Y-63119000D01*
D16*
X124968000Y-65659000D03*
X124968000Y-63119000D03*
X127508000Y-65659000D03*
D15*
X127508000Y-63119000D02*
X127508000Y-63119000D01*
D16*
X130048000Y-65659000D03*
X130048000Y-63119000D03*
X132588000Y-65659000D03*
X132588000Y-63119000D03*
D15*
X135128000Y-65659000D02*
X135128000Y-65659000D01*
D16*
X135128000Y-63119000D03*
D17*
X92710000Y-89530000D03*
D18*
X86360000Y-81280000D03*
X86360000Y-91440000D03*
D17*
X92710000Y-86990000D03*
X92710000Y-84450000D03*
X95250000Y-88260000D03*
X95250000Y-85720000D03*
X95250000Y-83180000D03*
M02*
