G04 #@! TF.FileFunction,Copper,L2,Bot,Signal*
%FSLAX46Y46*%
G04 Gerber Fmt 4.6, Leading zero omitted, Abs format (unit mm)*
G04 Created by KiCad (PCBNEW 4.0.2-stable) date 9/14/2021 9:27:19 PM*
%MOMM*%
G01*
G04 APERTURE LIST*
%ADD10C,0.100000*%
%ADD11C,1.700000*%
%ADD12C,5.000000*%
%ADD13C,1.800000*%
%ADD14R,1.700000X1.700000*%
%ADD15C,1.700000*%
%ADD16O,1.700000X1.700000*%
%ADD17C,1.524000*%
%ADD18C,3.800000*%
%ADD19C,0.635000*%
%ADD20C,0.381000*%
%ADD21C,0.254000*%
G04 APERTURE END LIST*
D10*
X78546356Y-63817611D02*
X78546356Y-113817611D01*
X78546356Y-63817611D02*
G75*
G02X81546356Y-60817611I3000000J0D01*
G01*
X140546356Y-60817611D02*
X81546356Y-60817611D01*
X140546356Y-60817611D02*
G75*
G02X143546356Y-63817611I0J-3000000D01*
G01*
X143546356Y-113817611D02*
X143546356Y-63817611D01*
X81546356Y-116817611D02*
G75*
G02X78546356Y-113817611I0J3000000D01*
G01*
X81546356Y-116817611D02*
X140546356Y-116817611D01*
X143546351Y-113822847D02*
G75*
G02X140546356Y-116817611I-2999995J5236D01*
G01*
D11*
X104140000Y-71120000D03*
X106680000Y-71120000D03*
X109220000Y-71120000D03*
X111760000Y-71120000D03*
X114300000Y-71120000D03*
X116840000Y-71120000D03*
X119380000Y-71120000D03*
X121920000Y-71120000D03*
X124460000Y-71120000D03*
X127000000Y-71120000D03*
X133359410Y-73660000D03*
X133359410Y-76200000D03*
X133359410Y-78740000D03*
X133359410Y-81280000D03*
X133359410Y-83820000D03*
X133359410Y-86360000D03*
X133359410Y-88900000D03*
X133359410Y-91440000D03*
X138430000Y-91440000D03*
X138430000Y-88900000D03*
X138430000Y-86360000D03*
X138430000Y-83820000D03*
X138430000Y-81280000D03*
X138430000Y-78740000D03*
X138430000Y-76200000D03*
X138430000Y-73660000D03*
X135890000Y-73660000D03*
X135890000Y-76200000D03*
X135890000Y-78740000D03*
X135890000Y-81280000D03*
X135890000Y-83820000D03*
X135890000Y-86360000D03*
X135890000Y-88900000D03*
X135890000Y-91440000D03*
D12*
X82046356Y-64317611D03*
X140040000Y-64330000D03*
X82040000Y-113320000D03*
X140030000Y-113310000D03*
D13*
X82550000Y-104060000D03*
X82550000Y-99060000D03*
D14*
X86868000Y-65659000D03*
D15*
X86868000Y-63119000D02*
X86868000Y-63119000D01*
D16*
X89408000Y-65659000D03*
D15*
X89408000Y-63119000D02*
X89408000Y-63119000D01*
D16*
X91948000Y-65659000D03*
D15*
X91948000Y-63119000D02*
X91948000Y-63119000D01*
D16*
X94488000Y-65659000D03*
X94488000Y-63119000D03*
D15*
X97028000Y-65659000D02*
X97028000Y-65659000D01*
D16*
X97028000Y-63119000D03*
X99568000Y-65659000D03*
X99568000Y-63119000D03*
X102108000Y-65659000D03*
D15*
X102108000Y-63119000D02*
X102108000Y-63119000D01*
D16*
X104648000Y-65659000D03*
X104648000Y-63119000D03*
D15*
X107188000Y-65659000D02*
X107188000Y-65659000D01*
D16*
X107188000Y-63119000D03*
X109728000Y-65659000D03*
D15*
X109728000Y-63119000D02*
X109728000Y-63119000D01*
D16*
X112268000Y-65659000D03*
X112268000Y-63119000D03*
X114808000Y-65659000D03*
X114808000Y-63119000D03*
X117348000Y-65659000D03*
X117348000Y-63119000D03*
X119888000Y-65659000D03*
X119888000Y-63119000D03*
X122428000Y-65659000D03*
D15*
X122428000Y-63119000D02*
X122428000Y-63119000D01*
D16*
X124968000Y-65659000D03*
X124968000Y-63119000D03*
X127508000Y-65659000D03*
D15*
X127508000Y-63119000D02*
X127508000Y-63119000D01*
D16*
X130048000Y-65659000D03*
X130048000Y-63119000D03*
X132588000Y-65659000D03*
X132588000Y-63119000D03*
D15*
X135128000Y-65659000D02*
X135128000Y-65659000D01*
D16*
X135128000Y-63119000D03*
D17*
X92710000Y-89530000D03*
D18*
X86360000Y-81280000D03*
X86360000Y-91440000D03*
D17*
X92710000Y-86990000D03*
X92710000Y-84450000D03*
X95250000Y-88260000D03*
X95250000Y-85720000D03*
X95250000Y-83180000D03*
D19*
X94869000Y-107315000D03*
X89535000Y-71120000D03*
X89535000Y-74930000D03*
X142240000Y-78105000D03*
X142240000Y-87490000D03*
X96520000Y-98425000D03*
X90170000Y-107696000D03*
X83439000Y-73914000D03*
X83439000Y-71247000D03*
X107772200Y-98755200D03*
X95786617Y-71148617D03*
X95885000Y-69596000D03*
X94996000Y-72263000D03*
X93157000Y-70800000D03*
X117475000Y-86995000D03*
X117475000Y-85725000D03*
X117475000Y-84455000D03*
X117475000Y-83185000D03*
X117475000Y-81915000D03*
X117475000Y-80645000D03*
X117475000Y-79375000D03*
X118237000Y-78359000D03*
X118237000Y-95250000D03*
X92456000Y-102438200D03*
X93980000Y-100750000D03*
D20*
X95786617Y-71148617D02*
X94897617Y-71148617D01*
X94897617Y-71148617D02*
X90257999Y-66508999D01*
X90257999Y-66508999D02*
X89408000Y-65659000D01*
X91948000Y-65659000D02*
X95885000Y-69596000D01*
D21*
X94488000Y-65659000D02*
X93256999Y-64427999D01*
X93256999Y-64427999D02*
X93256999Y-62318001D01*
X93256999Y-62318001D02*
X94361000Y-61214000D01*
X94361000Y-61214000D02*
X127254000Y-61214000D01*
X127254000Y-61214000D02*
X132969000Y-61214000D01*
X133858000Y-73161410D02*
X133359410Y-73660000D01*
X133858000Y-62103000D02*
X133858000Y-73161410D01*
X132969000Y-61214000D02*
X133858000Y-62103000D01*
D20*
X94620000Y-72263000D02*
X93157000Y-70800000D01*
X94996000Y-72263000D02*
X94620000Y-72263000D01*
D21*
X109855000Y-75565000D02*
X104481132Y-75565000D01*
X104481132Y-75565000D02*
X99568000Y-70651868D01*
X113623283Y-79333283D02*
X109855000Y-75565000D01*
X113623283Y-83143283D02*
X113623283Y-79333283D01*
X117475000Y-86995000D02*
X113623283Y-83143283D01*
X99568000Y-65659000D02*
X99568000Y-69850000D01*
X99568000Y-70651868D02*
X99568000Y-69850000D01*
X100838000Y-71203434D02*
X100838000Y-70485000D01*
X100838000Y-70485000D02*
X100838000Y-65107118D01*
X117475000Y-85725000D02*
X114300000Y-82550000D01*
X114300000Y-82550000D02*
X114300000Y-78740000D01*
X114300000Y-78740000D02*
X110490000Y-74930000D01*
X110490000Y-74930000D02*
X104608132Y-74930000D01*
X104608132Y-74930000D02*
X100838000Y-71159868D01*
X100838000Y-71159868D02*
X100838000Y-70485000D01*
X100838000Y-65107118D02*
X99568000Y-63837118D01*
X99568000Y-63837118D02*
X99568000Y-63119000D01*
X102108000Y-65659000D02*
X102108000Y-71711434D01*
X102108000Y-71711434D02*
X104691566Y-74295000D01*
X114935000Y-78105000D02*
X114935000Y-81915000D01*
X104691566Y-74295000D02*
X111125000Y-74295000D01*
X111125000Y-74295000D02*
X114935000Y-78105000D01*
X114935000Y-81915000D02*
X117475000Y-84455000D01*
X115570000Y-77470000D02*
X111760000Y-73660000D01*
X115570000Y-81280000D02*
X115570000Y-77470000D01*
X117475000Y-83185000D02*
X115570000Y-81280000D01*
X104648000Y-65659000D02*
X102616010Y-67690990D01*
X104858118Y-73660000D02*
X111760000Y-73660000D01*
X102616010Y-71417892D02*
X104858118Y-73660000D01*
X102616010Y-67690990D02*
X102616010Y-71417892D01*
X112395000Y-73025000D02*
X106680000Y-73025000D01*
X106680000Y-73025000D02*
X105410000Y-71755000D01*
X116205000Y-76835000D02*
X112395000Y-73025000D01*
X116205000Y-80645000D02*
X116205000Y-76835000D01*
X117475000Y-81915000D02*
X116205000Y-80645000D01*
X105879001Y-66249881D02*
X105410000Y-66718882D01*
X105879001Y-64350001D02*
X105879001Y-66249881D01*
X104648000Y-63119000D02*
X105879001Y-64350001D01*
X105410000Y-66718882D02*
X105410000Y-71755000D01*
X116776499Y-79946499D02*
X117475000Y-80645000D01*
X116776499Y-76219933D02*
X116776499Y-79946499D01*
X113073556Y-72516990D02*
X116776499Y-76219933D01*
X108795108Y-72516990D02*
X113073556Y-72516990D01*
X107988999Y-67271001D02*
X107988999Y-71710881D01*
X108419001Y-66840999D02*
X107988999Y-67271001D01*
X108419001Y-64350001D02*
X108419001Y-66840999D01*
X107988999Y-71710881D02*
X108795108Y-72516990D01*
X107188000Y-63119000D02*
X108419001Y-64350001D01*
D20*
X109220000Y-71120000D02*
X109220000Y-66167000D01*
X109220000Y-66167000D02*
X109728000Y-65659000D01*
X111760000Y-71120000D02*
X111760000Y-66167000D01*
X111760000Y-66167000D02*
X112268000Y-65659000D01*
D21*
X117475000Y-76200000D02*
X117475000Y-79375000D01*
X113030000Y-71755000D02*
X117475000Y-76200000D01*
X113499001Y-64350001D02*
X112268000Y-63119000D01*
X113499001Y-67310000D02*
X113499001Y-64350001D01*
X113030000Y-67779001D02*
X113499001Y-67310000D01*
X113030000Y-71755000D02*
X113030000Y-67779001D01*
D20*
X114300000Y-71120000D02*
X114300000Y-66167000D01*
X114300000Y-66167000D02*
X114808000Y-65659000D01*
D21*
X116205001Y-70485001D02*
X116840000Y-71120000D01*
X116116999Y-70396999D02*
X116205001Y-70485001D01*
X114808000Y-63837118D02*
X116116999Y-65146117D01*
X114808000Y-63119000D02*
X114808000Y-63837118D01*
X116116999Y-65146117D02*
X116116999Y-70396999D01*
X117348000Y-63119000D02*
X118656999Y-64427999D01*
X118656999Y-64427999D02*
X118656999Y-70396999D01*
X118656999Y-70396999D02*
X118745001Y-70485001D01*
X118745001Y-70485001D02*
X119380000Y-71120000D01*
X118237000Y-78359000D02*
X118237000Y-95250000D01*
D20*
X91440000Y-88260000D02*
X92710000Y-86990000D01*
X91440000Y-91440000D02*
X91440000Y-88260000D01*
X92456000Y-92456000D02*
X91440000Y-91440000D01*
X92456000Y-102438200D02*
X92456000Y-92456000D01*
X95250000Y-85720000D02*
X93980000Y-86990000D01*
X93980000Y-86990000D02*
X93980000Y-91440000D01*
X93980000Y-91440000D02*
X93091010Y-92328990D01*
X93091010Y-92328990D02*
X93091010Y-99861010D01*
X93091010Y-99861010D02*
X93980000Y-100750000D01*
D21*
G36*
X92933165Y-61923415D02*
X92890753Y-61951754D01*
X92862414Y-61994166D01*
X92862411Y-61994169D01*
X92800366Y-62087026D01*
X92791687Y-62095705D01*
X92714918Y-61847363D01*
X92304892Y-61677514D01*
X91726092Y-61650664D01*
X91181076Y-61847355D01*
X91103842Y-62095237D01*
X91948000Y-62939395D01*
X91962143Y-62925253D01*
X92141748Y-63104858D01*
X92127605Y-63119000D01*
X92141748Y-63133143D01*
X91962143Y-63312748D01*
X91948000Y-63298605D01*
X91104312Y-64142293D01*
X91181082Y-64390637D01*
X91458508Y-64505558D01*
X91060499Y-64771499D01*
X90788424Y-65178688D01*
X90692884Y-65659000D01*
X90788424Y-66139312D01*
X90973459Y-66416237D01*
X90701912Y-66144690D01*
X90701910Y-66144687D01*
X90588972Y-66031749D01*
X90663116Y-65659000D01*
X90567576Y-65178688D01*
X90295501Y-64771499D01*
X89888312Y-64499424D01*
X89529239Y-64428000D01*
X89286761Y-64428000D01*
X88927688Y-64499424D01*
X88520499Y-64771499D01*
X88248424Y-65178688D01*
X88152884Y-65659000D01*
X88248424Y-66139312D01*
X88520499Y-66546501D01*
X88927688Y-66818576D01*
X89286761Y-66890000D01*
X89529239Y-66890000D01*
X89780749Y-66839972D01*
X89893687Y-66952910D01*
X89893690Y-66952912D01*
X93042277Y-70101500D01*
X93018060Y-70101500D01*
X92761332Y-70207841D01*
X92564841Y-70404332D01*
X92458500Y-70661060D01*
X92458500Y-70938940D01*
X92564841Y-71195668D01*
X92761332Y-71392159D01*
X93018060Y-71498500D01*
X93047278Y-71498500D01*
X94176089Y-72627312D01*
X94207972Y-72675028D01*
X94397012Y-72801341D01*
X94563714Y-72834500D01*
X94563718Y-72834500D01*
X94583635Y-72838462D01*
X94600332Y-72855159D01*
X94857060Y-72961500D01*
X95134940Y-72961500D01*
X95391668Y-72855159D01*
X95588159Y-72658668D01*
X95694500Y-72401940D01*
X95694500Y-72124060D01*
X95588159Y-71867332D01*
X95511564Y-71790737D01*
X95647677Y-71847117D01*
X95925557Y-71847117D01*
X96182285Y-71740776D01*
X96378776Y-71544285D01*
X96485117Y-71287557D01*
X96485117Y-71009677D01*
X96378776Y-70752949D01*
X96182285Y-70556458D01*
X95925557Y-70450117D01*
X95647677Y-70450117D01*
X95390949Y-70556458D01*
X95370290Y-70577117D01*
X95134340Y-70577117D01*
X91190763Y-66633541D01*
X91467688Y-66818576D01*
X91826761Y-66890000D01*
X92069239Y-66890000D01*
X92320749Y-66839972D01*
X95186500Y-69705723D01*
X95186500Y-69734940D01*
X95292841Y-69991668D01*
X95489332Y-70188159D01*
X95746060Y-70294500D01*
X96023940Y-70294500D01*
X96280668Y-70188159D01*
X96477159Y-69991668D01*
X96583500Y-69734940D01*
X96583500Y-69457060D01*
X96477159Y-69200332D01*
X96280668Y-69003841D01*
X96023940Y-68897500D01*
X95994723Y-68897500D01*
X93730763Y-66633541D01*
X94007688Y-66818576D01*
X94366761Y-66890000D01*
X94609239Y-66890000D01*
X94968312Y-66818576D01*
X95172273Y-66682293D01*
X96184312Y-66682293D01*
X96261082Y-66930637D01*
X96671108Y-67100486D01*
X97249908Y-67127336D01*
X97794924Y-66930645D01*
X97872158Y-66682763D01*
X97028000Y-65838605D01*
X96184312Y-66682293D01*
X95172273Y-66682293D01*
X95375501Y-66546501D01*
X95641442Y-66148492D01*
X95756363Y-66425918D01*
X96004707Y-66502688D01*
X96848395Y-65659000D01*
X97207605Y-65659000D01*
X98051763Y-66503158D01*
X98299645Y-66425924D01*
X98406525Y-66129767D01*
X98408424Y-66139312D01*
X98680499Y-66546501D01*
X99060000Y-66800076D01*
X99060001Y-69799968D01*
X99060000Y-70601840D01*
X99050049Y-70651868D01*
X99060000Y-70701896D01*
X99060000Y-70701899D01*
X99089475Y-70850079D01*
X99201753Y-71018115D01*
X99244168Y-71046456D01*
X104086546Y-75888835D01*
X104114885Y-75931247D01*
X104157297Y-75959586D01*
X104157299Y-75959588D01*
X104282920Y-76043525D01*
X104431100Y-76073000D01*
X104431104Y-76073000D01*
X104481132Y-76082951D01*
X104531160Y-76073000D01*
X109644580Y-76073000D01*
X113115284Y-79543705D01*
X113115283Y-83093255D01*
X113105332Y-83143283D01*
X113115283Y-83193311D01*
X113115283Y-83193314D01*
X113144758Y-83341494D01*
X113257036Y-83509530D01*
X113299451Y-83537871D01*
X116776500Y-87014920D01*
X116776500Y-87133940D01*
X116882841Y-87390668D01*
X117079332Y-87587159D01*
X117336060Y-87693500D01*
X117613940Y-87693500D01*
X117729001Y-87645840D01*
X117729001Y-94770172D01*
X117644841Y-94854332D01*
X117538500Y-95111060D01*
X117538500Y-95388940D01*
X117644841Y-95645668D01*
X117841332Y-95842159D01*
X118098060Y-95948500D01*
X118375940Y-95948500D01*
X118632668Y-95842159D01*
X118829159Y-95645668D01*
X118935500Y-95388940D01*
X118935500Y-95111060D01*
X118829159Y-94854332D01*
X118745000Y-94770173D01*
X118745000Y-91195139D01*
X132128410Y-91195139D01*
X132128410Y-91684861D01*
X132315818Y-92137306D01*
X132662104Y-92483592D01*
X133114549Y-92671000D01*
X133604271Y-92671000D01*
X134055832Y-92483958D01*
X135025647Y-92483958D01*
X135105920Y-92735259D01*
X135661279Y-92936718D01*
X136251458Y-92910315D01*
X136674080Y-92735259D01*
X136754353Y-92483958D01*
X135890000Y-91619605D01*
X135025647Y-92483958D01*
X134055832Y-92483958D01*
X134056716Y-92483592D01*
X134403002Y-92137306D01*
X134480900Y-91949243D01*
X134594741Y-92224080D01*
X134846042Y-92304353D01*
X135710395Y-91440000D01*
X136069605Y-91440000D01*
X136933958Y-92304353D01*
X137185259Y-92224080D01*
X137295954Y-91918929D01*
X137386408Y-92137306D01*
X137732694Y-92483592D01*
X138185139Y-92671000D01*
X138674861Y-92671000D01*
X139127306Y-92483592D01*
X139473592Y-92137306D01*
X139661000Y-91684861D01*
X139661000Y-91195139D01*
X139473592Y-90742694D01*
X139127306Y-90396408D01*
X138674861Y-90209000D01*
X138185139Y-90209000D01*
X137732694Y-90396408D01*
X137386408Y-90742694D01*
X137303805Y-90942116D01*
X137185259Y-90655920D01*
X136933958Y-90575647D01*
X136069605Y-91440000D01*
X135710395Y-91440000D01*
X134846042Y-90575647D01*
X134594741Y-90655920D01*
X134488440Y-90948960D01*
X134403002Y-90742694D01*
X134056716Y-90396408D01*
X133604271Y-90209000D01*
X133114549Y-90209000D01*
X132662104Y-90396408D01*
X132315818Y-90742694D01*
X132128410Y-91195139D01*
X118745000Y-91195139D01*
X118745000Y-88655139D01*
X132128410Y-88655139D01*
X132128410Y-89144861D01*
X132315818Y-89597306D01*
X132662104Y-89943592D01*
X133114549Y-90131000D01*
X133604271Y-90131000D01*
X134055832Y-89943958D01*
X135025647Y-89943958D01*
X135097852Y-90170000D01*
X135025647Y-90396042D01*
X135890000Y-91260395D01*
X136754353Y-90396042D01*
X136682148Y-90170000D01*
X136754353Y-89943958D01*
X135890000Y-89079605D01*
X135025647Y-89943958D01*
X134055832Y-89943958D01*
X134056716Y-89943592D01*
X134403002Y-89597306D01*
X134480900Y-89409243D01*
X134594741Y-89684080D01*
X134846042Y-89764353D01*
X135710395Y-88900000D01*
X136069605Y-88900000D01*
X136933958Y-89764353D01*
X137185259Y-89684080D01*
X137295954Y-89378929D01*
X137386408Y-89597306D01*
X137732694Y-89943592D01*
X138185139Y-90131000D01*
X138674861Y-90131000D01*
X139127306Y-89943592D01*
X139473592Y-89597306D01*
X139661000Y-89144861D01*
X139661000Y-88655139D01*
X139473592Y-88202694D01*
X139127306Y-87856408D01*
X138674861Y-87669000D01*
X138185139Y-87669000D01*
X137732694Y-87856408D01*
X137386408Y-88202694D01*
X137303805Y-88402116D01*
X137185259Y-88115920D01*
X136933958Y-88035647D01*
X136069605Y-88900000D01*
X135710395Y-88900000D01*
X134846042Y-88035647D01*
X134594741Y-88115920D01*
X134488440Y-88408960D01*
X134403002Y-88202694D01*
X134056716Y-87856408D01*
X133604271Y-87669000D01*
X133114549Y-87669000D01*
X132662104Y-87856408D01*
X132315818Y-88202694D01*
X132128410Y-88655139D01*
X118745000Y-88655139D01*
X118745000Y-86115139D01*
X132128410Y-86115139D01*
X132128410Y-86604861D01*
X132315818Y-87057306D01*
X132662104Y-87403592D01*
X133114549Y-87591000D01*
X133604271Y-87591000D01*
X134055832Y-87403958D01*
X135025647Y-87403958D01*
X135097852Y-87630000D01*
X135025647Y-87856042D01*
X135890000Y-88720395D01*
X136754353Y-87856042D01*
X136682148Y-87630000D01*
X136754353Y-87403958D01*
X135890000Y-86539605D01*
X135025647Y-87403958D01*
X134055832Y-87403958D01*
X134056716Y-87403592D01*
X134403002Y-87057306D01*
X134480900Y-86869243D01*
X134594741Y-87144080D01*
X134846042Y-87224353D01*
X135710395Y-86360000D01*
X136069605Y-86360000D01*
X136933958Y-87224353D01*
X137185259Y-87144080D01*
X137295954Y-86838929D01*
X137386408Y-87057306D01*
X137732694Y-87403592D01*
X138185139Y-87591000D01*
X138674861Y-87591000D01*
X139127306Y-87403592D01*
X139473592Y-87057306D01*
X139661000Y-86604861D01*
X139661000Y-86115139D01*
X139473592Y-85662694D01*
X139127306Y-85316408D01*
X138674861Y-85129000D01*
X138185139Y-85129000D01*
X137732694Y-85316408D01*
X137386408Y-85662694D01*
X137303805Y-85862116D01*
X137185259Y-85575920D01*
X136933958Y-85495647D01*
X136069605Y-86360000D01*
X135710395Y-86360000D01*
X134846042Y-85495647D01*
X134594741Y-85575920D01*
X134488440Y-85868960D01*
X134403002Y-85662694D01*
X134056716Y-85316408D01*
X133604271Y-85129000D01*
X133114549Y-85129000D01*
X132662104Y-85316408D01*
X132315818Y-85662694D01*
X132128410Y-86115139D01*
X118745000Y-86115139D01*
X118745000Y-83575139D01*
X132128410Y-83575139D01*
X132128410Y-84064861D01*
X132315818Y-84517306D01*
X132662104Y-84863592D01*
X133114549Y-85051000D01*
X133604271Y-85051000D01*
X134055832Y-84863958D01*
X135025647Y-84863958D01*
X135097852Y-85090000D01*
X135025647Y-85316042D01*
X135890000Y-86180395D01*
X136754353Y-85316042D01*
X136682148Y-85090000D01*
X136754353Y-84863958D01*
X135890000Y-83999605D01*
X135025647Y-84863958D01*
X134055832Y-84863958D01*
X134056716Y-84863592D01*
X134403002Y-84517306D01*
X134480900Y-84329243D01*
X134594741Y-84604080D01*
X134846042Y-84684353D01*
X135710395Y-83820000D01*
X136069605Y-83820000D01*
X136933958Y-84684353D01*
X137185259Y-84604080D01*
X137295954Y-84298929D01*
X137386408Y-84517306D01*
X137732694Y-84863592D01*
X138185139Y-85051000D01*
X138674861Y-85051000D01*
X139127306Y-84863592D01*
X139473592Y-84517306D01*
X139661000Y-84064861D01*
X139661000Y-83575139D01*
X139473592Y-83122694D01*
X139127306Y-82776408D01*
X138674861Y-82589000D01*
X138185139Y-82589000D01*
X137732694Y-82776408D01*
X137386408Y-83122694D01*
X137303805Y-83322116D01*
X137185259Y-83035920D01*
X136933958Y-82955647D01*
X136069605Y-83820000D01*
X135710395Y-83820000D01*
X134846042Y-82955647D01*
X134594741Y-83035920D01*
X134488440Y-83328960D01*
X134403002Y-83122694D01*
X134056716Y-82776408D01*
X133604271Y-82589000D01*
X133114549Y-82589000D01*
X132662104Y-82776408D01*
X132315818Y-83122694D01*
X132128410Y-83575139D01*
X118745000Y-83575139D01*
X118745000Y-81035139D01*
X132128410Y-81035139D01*
X132128410Y-81524861D01*
X132315818Y-81977306D01*
X132662104Y-82323592D01*
X133114549Y-82511000D01*
X133604271Y-82511000D01*
X134055832Y-82323958D01*
X135025647Y-82323958D01*
X135097852Y-82550000D01*
X135025647Y-82776042D01*
X135890000Y-83640395D01*
X136754353Y-82776042D01*
X136682148Y-82550000D01*
X136754353Y-82323958D01*
X135890000Y-81459605D01*
X135025647Y-82323958D01*
X134055832Y-82323958D01*
X134056716Y-82323592D01*
X134403002Y-81977306D01*
X134480900Y-81789243D01*
X134594741Y-82064080D01*
X134846042Y-82144353D01*
X135710395Y-81280000D01*
X136069605Y-81280000D01*
X136933958Y-82144353D01*
X137185259Y-82064080D01*
X137295954Y-81758929D01*
X137386408Y-81977306D01*
X137732694Y-82323592D01*
X138185139Y-82511000D01*
X138674861Y-82511000D01*
X139127306Y-82323592D01*
X139473592Y-81977306D01*
X139661000Y-81524861D01*
X139661000Y-81035139D01*
X139473592Y-80582694D01*
X139127306Y-80236408D01*
X138674861Y-80049000D01*
X138185139Y-80049000D01*
X137732694Y-80236408D01*
X137386408Y-80582694D01*
X137303805Y-80782116D01*
X137185259Y-80495920D01*
X136933958Y-80415647D01*
X136069605Y-81280000D01*
X135710395Y-81280000D01*
X134846042Y-80415647D01*
X134594741Y-80495920D01*
X134488440Y-80788960D01*
X134403002Y-80582694D01*
X134056716Y-80236408D01*
X133604271Y-80049000D01*
X133114549Y-80049000D01*
X132662104Y-80236408D01*
X132315818Y-80582694D01*
X132128410Y-81035139D01*
X118745000Y-81035139D01*
X118745000Y-78838827D01*
X118829159Y-78754668D01*
X118935500Y-78497940D01*
X118935500Y-78495139D01*
X132128410Y-78495139D01*
X132128410Y-78984861D01*
X132315818Y-79437306D01*
X132662104Y-79783592D01*
X133114549Y-79971000D01*
X133604271Y-79971000D01*
X134055832Y-79783958D01*
X135025647Y-79783958D01*
X135097852Y-80010000D01*
X135025647Y-80236042D01*
X135890000Y-81100395D01*
X136754353Y-80236042D01*
X136682148Y-80010000D01*
X136754353Y-79783958D01*
X135890000Y-78919605D01*
X135025647Y-79783958D01*
X134055832Y-79783958D01*
X134056716Y-79783592D01*
X134403002Y-79437306D01*
X134480900Y-79249243D01*
X134594741Y-79524080D01*
X134846042Y-79604353D01*
X135710395Y-78740000D01*
X136069605Y-78740000D01*
X136933958Y-79604353D01*
X137185259Y-79524080D01*
X137295954Y-79218929D01*
X137386408Y-79437306D01*
X137732694Y-79783592D01*
X138185139Y-79971000D01*
X138674861Y-79971000D01*
X139127306Y-79783592D01*
X139473592Y-79437306D01*
X139661000Y-78984861D01*
X139661000Y-78495139D01*
X139473592Y-78042694D01*
X139127306Y-77696408D01*
X138674861Y-77509000D01*
X138185139Y-77509000D01*
X137732694Y-77696408D01*
X137386408Y-78042694D01*
X137303805Y-78242116D01*
X137185259Y-77955920D01*
X136933958Y-77875647D01*
X136069605Y-78740000D01*
X135710395Y-78740000D01*
X134846042Y-77875647D01*
X134594741Y-77955920D01*
X134488440Y-78248960D01*
X134403002Y-78042694D01*
X134056716Y-77696408D01*
X133604271Y-77509000D01*
X133114549Y-77509000D01*
X132662104Y-77696408D01*
X132315818Y-78042694D01*
X132128410Y-78495139D01*
X118935500Y-78495139D01*
X118935500Y-78220060D01*
X118829159Y-77963332D01*
X118632668Y-77766841D01*
X118375940Y-77660500D01*
X118098060Y-77660500D01*
X117983000Y-77708160D01*
X117983000Y-76250027D01*
X117992951Y-76199999D01*
X117983000Y-76149969D01*
X117983000Y-76149968D01*
X117953525Y-76001788D01*
X117922356Y-75955139D01*
X132128410Y-75955139D01*
X132128410Y-76444861D01*
X132315818Y-76897306D01*
X132662104Y-77243592D01*
X133114549Y-77431000D01*
X133604271Y-77431000D01*
X134055832Y-77243958D01*
X135025647Y-77243958D01*
X135097852Y-77470000D01*
X135025647Y-77696042D01*
X135890000Y-78560395D01*
X136754353Y-77696042D01*
X136682148Y-77470000D01*
X136754353Y-77243958D01*
X135890000Y-76379605D01*
X135025647Y-77243958D01*
X134055832Y-77243958D01*
X134056716Y-77243592D01*
X134403002Y-76897306D01*
X134480900Y-76709243D01*
X134594741Y-76984080D01*
X134846042Y-77064353D01*
X135710395Y-76200000D01*
X136069605Y-76200000D01*
X136933958Y-77064353D01*
X137185259Y-76984080D01*
X137295954Y-76678929D01*
X137386408Y-76897306D01*
X137732694Y-77243592D01*
X138185139Y-77431000D01*
X138674861Y-77431000D01*
X139127306Y-77243592D01*
X139473592Y-76897306D01*
X139661000Y-76444861D01*
X139661000Y-75955139D01*
X139473592Y-75502694D01*
X139127306Y-75156408D01*
X138674861Y-74969000D01*
X138185139Y-74969000D01*
X137732694Y-75156408D01*
X137386408Y-75502694D01*
X137303805Y-75702116D01*
X137185259Y-75415920D01*
X136933958Y-75335647D01*
X136069605Y-76200000D01*
X135710395Y-76200000D01*
X134846042Y-75335647D01*
X134594741Y-75415920D01*
X134488440Y-75708960D01*
X134403002Y-75502694D01*
X134056716Y-75156408D01*
X133604271Y-74969000D01*
X133114549Y-74969000D01*
X132662104Y-75156408D01*
X132315818Y-75502694D01*
X132128410Y-75955139D01*
X117922356Y-75955139D01*
X117869588Y-75876167D01*
X117869586Y-75876165D01*
X117841247Y-75833753D01*
X117798836Y-75805415D01*
X114344420Y-72351000D01*
X114544861Y-72351000D01*
X114997306Y-72163592D01*
X115343592Y-71817306D01*
X115531000Y-71364861D01*
X115531000Y-70875139D01*
X115343592Y-70422694D01*
X114997306Y-70076408D01*
X114871500Y-70024298D01*
X114871500Y-66890000D01*
X114929239Y-66890000D01*
X115288312Y-66818576D01*
X115608999Y-66604300D01*
X115609000Y-70346966D01*
X115599048Y-70396999D01*
X115638474Y-70595210D01*
X115691857Y-70675104D01*
X115609000Y-70875139D01*
X115609000Y-71364861D01*
X115796408Y-71817306D01*
X116142694Y-72163592D01*
X116595139Y-72351000D01*
X117084861Y-72351000D01*
X117537306Y-72163592D01*
X117883592Y-71817306D01*
X118071000Y-71364861D01*
X118071000Y-70875139D01*
X117883592Y-70422694D01*
X117537306Y-70076408D01*
X117084861Y-69889000D01*
X116624999Y-69889000D01*
X116624999Y-66948837D01*
X116991110Y-67100476D01*
X117221000Y-66979155D01*
X117221000Y-65786000D01*
X117201000Y-65786000D01*
X117201000Y-65532000D01*
X117221000Y-65532000D01*
X117221000Y-65512000D01*
X117475000Y-65512000D01*
X117475000Y-65532000D01*
X117495000Y-65532000D01*
X117495000Y-65786000D01*
X117475000Y-65786000D01*
X117475000Y-66979155D01*
X117704890Y-67100476D01*
X118114924Y-66930645D01*
X118148999Y-66899591D01*
X118149000Y-70346966D01*
X118139048Y-70396999D01*
X118178474Y-70595210D01*
X118231857Y-70675104D01*
X118149000Y-70875139D01*
X118149000Y-71364861D01*
X118336408Y-71817306D01*
X118682694Y-72163592D01*
X119135139Y-72351000D01*
X119624861Y-72351000D01*
X120077306Y-72163592D01*
X120423592Y-71817306D01*
X120611000Y-71364861D01*
X120611000Y-70875139D01*
X120689000Y-70875139D01*
X120689000Y-71364861D01*
X120876408Y-71817306D01*
X121222694Y-72163592D01*
X121675139Y-72351000D01*
X122164861Y-72351000D01*
X122617306Y-72163592D01*
X122963592Y-71817306D01*
X123151000Y-71364861D01*
X123151000Y-70875139D01*
X123229000Y-70875139D01*
X123229000Y-71364861D01*
X123416408Y-71817306D01*
X123762694Y-72163592D01*
X124215139Y-72351000D01*
X124704861Y-72351000D01*
X125156422Y-72163958D01*
X126135647Y-72163958D01*
X126215920Y-72415259D01*
X126771279Y-72616718D01*
X127361458Y-72590315D01*
X127784080Y-72415259D01*
X127864353Y-72163958D01*
X127000000Y-71299605D01*
X126135647Y-72163958D01*
X125156422Y-72163958D01*
X125157306Y-72163592D01*
X125503592Y-71817306D01*
X125586195Y-71617884D01*
X125704741Y-71904080D01*
X125956042Y-71984353D01*
X126820395Y-71120000D01*
X127179605Y-71120000D01*
X128043958Y-71984353D01*
X128295259Y-71904080D01*
X128496718Y-71348721D01*
X128470315Y-70758542D01*
X128295259Y-70335920D01*
X128043958Y-70255647D01*
X127179605Y-71120000D01*
X126820395Y-71120000D01*
X125956042Y-70255647D01*
X125704741Y-70335920D01*
X125594046Y-70641071D01*
X125503592Y-70422694D01*
X125157306Y-70076408D01*
X125156423Y-70076042D01*
X126135647Y-70076042D01*
X127000000Y-70940395D01*
X127864353Y-70076042D01*
X127784080Y-69824741D01*
X127228721Y-69623282D01*
X126638542Y-69649685D01*
X126215920Y-69824741D01*
X126135647Y-70076042D01*
X125156423Y-70076042D01*
X124704861Y-69889000D01*
X124215139Y-69889000D01*
X123762694Y-70076408D01*
X123416408Y-70422694D01*
X123229000Y-70875139D01*
X123151000Y-70875139D01*
X122963592Y-70422694D01*
X122617306Y-70076408D01*
X122164861Y-69889000D01*
X121675139Y-69889000D01*
X121222694Y-70076408D01*
X120876408Y-70422694D01*
X120689000Y-70875139D01*
X120611000Y-70875139D01*
X120423592Y-70422694D01*
X120077306Y-70076408D01*
X119624861Y-69889000D01*
X119164999Y-69889000D01*
X119164999Y-66656416D01*
X119407688Y-66818576D01*
X119766761Y-66890000D01*
X120009239Y-66890000D01*
X120368312Y-66818576D01*
X120775501Y-66546501D01*
X121047576Y-66139312D01*
X121143116Y-65659000D01*
X121172884Y-65659000D01*
X121268424Y-66139312D01*
X121540499Y-66546501D01*
X121947688Y-66818576D01*
X122306761Y-66890000D01*
X122549239Y-66890000D01*
X122908312Y-66818576D01*
X123315501Y-66546501D01*
X123587576Y-66139312D01*
X123683116Y-65659000D01*
X123712884Y-65659000D01*
X123808424Y-66139312D01*
X124080499Y-66546501D01*
X124487688Y-66818576D01*
X124846761Y-66890000D01*
X125089239Y-66890000D01*
X125448312Y-66818576D01*
X125855501Y-66546501D01*
X126127576Y-66139312D01*
X126223116Y-65659000D01*
X126252884Y-65659000D01*
X126348424Y-66139312D01*
X126620499Y-66546501D01*
X127027688Y-66818576D01*
X127386761Y-66890000D01*
X127629239Y-66890000D01*
X127988312Y-66818576D01*
X128395501Y-66546501D01*
X128667576Y-66139312D01*
X128763116Y-65659000D01*
X128792884Y-65659000D01*
X128888424Y-66139312D01*
X129160499Y-66546501D01*
X129567688Y-66818576D01*
X129926761Y-66890000D01*
X130169239Y-66890000D01*
X130528312Y-66818576D01*
X130935501Y-66546501D01*
X131207576Y-66139312D01*
X131303116Y-65659000D01*
X131207576Y-65178688D01*
X130935501Y-64771499D01*
X130528312Y-64499424D01*
X130169239Y-64428000D01*
X129926761Y-64428000D01*
X129567688Y-64499424D01*
X129160499Y-64771499D01*
X128888424Y-65178688D01*
X128792884Y-65659000D01*
X128763116Y-65659000D01*
X128667576Y-65178688D01*
X128395501Y-64771499D01*
X127988312Y-64499424D01*
X127978767Y-64497525D01*
X128274924Y-64390645D01*
X128352158Y-64142763D01*
X127508000Y-63298605D01*
X126664312Y-64142293D01*
X126741082Y-64390637D01*
X127018508Y-64505558D01*
X126620499Y-64771499D01*
X126348424Y-65178688D01*
X126252884Y-65659000D01*
X126223116Y-65659000D01*
X126127576Y-65178688D01*
X125855501Y-64771499D01*
X125448312Y-64499424D01*
X125089239Y-64428000D01*
X124846761Y-64428000D01*
X124487688Y-64499424D01*
X124080499Y-64771499D01*
X123808424Y-65178688D01*
X123712884Y-65659000D01*
X123683116Y-65659000D01*
X123587576Y-65178688D01*
X123315501Y-64771499D01*
X122908312Y-64499424D01*
X122898767Y-64497525D01*
X123194924Y-64390645D01*
X123272158Y-64142763D01*
X122428000Y-63298605D01*
X121584312Y-64142293D01*
X121661082Y-64390637D01*
X121938508Y-64505558D01*
X121540499Y-64771499D01*
X121268424Y-65178688D01*
X121172884Y-65659000D01*
X121143116Y-65659000D01*
X121047576Y-65178688D01*
X120775501Y-64771499D01*
X120368312Y-64499424D01*
X120009239Y-64428000D01*
X119766761Y-64428000D01*
X119407688Y-64499424D01*
X119164999Y-64661584D01*
X119164999Y-64478026D01*
X119174950Y-64427998D01*
X119164999Y-64377968D01*
X119164999Y-64377967D01*
X119135524Y-64229787D01*
X119108381Y-64189165D01*
X119051587Y-64104166D01*
X119051585Y-64104164D01*
X119023246Y-64061752D01*
X118980835Y-64033414D01*
X118514073Y-63566652D01*
X118603116Y-63119000D01*
X118632884Y-63119000D01*
X118728424Y-63599312D01*
X119000499Y-64006501D01*
X119407688Y-64278576D01*
X119766761Y-64350000D01*
X120009239Y-64350000D01*
X120368312Y-64278576D01*
X120775501Y-64006501D01*
X121041442Y-63608492D01*
X121156363Y-63885918D01*
X121404707Y-63962688D01*
X122248395Y-63119000D01*
X122607605Y-63119000D01*
X123451763Y-63963158D01*
X123699645Y-63885924D01*
X123806525Y-63589767D01*
X123808424Y-63599312D01*
X124080499Y-64006501D01*
X124487688Y-64278576D01*
X124846761Y-64350000D01*
X125089239Y-64350000D01*
X125448312Y-64278576D01*
X125855501Y-64006501D01*
X126121442Y-63608492D01*
X126236363Y-63885918D01*
X126484707Y-63962688D01*
X127328395Y-63119000D01*
X127687605Y-63119000D01*
X128531763Y-63963158D01*
X128779645Y-63885924D01*
X128886525Y-63589767D01*
X128888424Y-63599312D01*
X129160499Y-64006501D01*
X129567688Y-64278576D01*
X129926761Y-64350000D01*
X130169239Y-64350000D01*
X130528312Y-64278576D01*
X130935501Y-64006501D01*
X131207576Y-63599312D01*
X131303116Y-63119000D01*
X131207576Y-62638688D01*
X130935501Y-62231499D01*
X130528312Y-61959424D01*
X130169239Y-61888000D01*
X129926761Y-61888000D01*
X129567688Y-61959424D01*
X129160499Y-62231499D01*
X128894558Y-62629508D01*
X128779637Y-62352082D01*
X128531293Y-62275312D01*
X127687605Y-63119000D01*
X127328395Y-63119000D01*
X126484237Y-62274842D01*
X126236355Y-62352076D01*
X126129475Y-62648233D01*
X126127576Y-62638688D01*
X125855501Y-62231499D01*
X125448312Y-61959424D01*
X125089239Y-61888000D01*
X124846761Y-61888000D01*
X124487688Y-61959424D01*
X124080499Y-62231499D01*
X123814558Y-62629508D01*
X123699637Y-62352082D01*
X123451293Y-62275312D01*
X122607605Y-63119000D01*
X122248395Y-63119000D01*
X121404237Y-62274842D01*
X121156355Y-62352076D01*
X121049475Y-62648233D01*
X121047576Y-62638688D01*
X120775501Y-62231499D01*
X120368312Y-61959424D01*
X120009239Y-61888000D01*
X119766761Y-61888000D01*
X119407688Y-61959424D01*
X119000499Y-62231499D01*
X118728424Y-62638688D01*
X118632884Y-63119000D01*
X118603116Y-63119000D01*
X118507576Y-62638688D01*
X118235501Y-62231499D01*
X117828312Y-61959424D01*
X117469239Y-61888000D01*
X117226761Y-61888000D01*
X116867688Y-61959424D01*
X116460499Y-62231499D01*
X116188424Y-62638688D01*
X116092884Y-63119000D01*
X116188424Y-63599312D01*
X116460499Y-64006501D01*
X116858512Y-64272445D01*
X116581076Y-64387355D01*
X116317167Y-64627864D01*
X115695622Y-64006320D01*
X115967576Y-63599312D01*
X116063116Y-63119000D01*
X115967576Y-62638688D01*
X115695501Y-62231499D01*
X115288312Y-61959424D01*
X114929239Y-61888000D01*
X114686761Y-61888000D01*
X114327688Y-61959424D01*
X113920499Y-62231499D01*
X113648424Y-62638688D01*
X113552884Y-63119000D01*
X113648424Y-63599312D01*
X113920499Y-64006501D01*
X114327688Y-64278576D01*
X114581530Y-64329068D01*
X114681507Y-64429045D01*
X114327688Y-64499424D01*
X114007001Y-64713700D01*
X114007001Y-64400028D01*
X114016952Y-64350000D01*
X114007001Y-64299970D01*
X114007001Y-64299969D01*
X113977526Y-64151789D01*
X113865248Y-63983754D01*
X113822833Y-63955413D01*
X113434072Y-63566652D01*
X113523116Y-63119000D01*
X113427576Y-62638688D01*
X113155501Y-62231499D01*
X112748312Y-61959424D01*
X112389239Y-61888000D01*
X112146761Y-61888000D01*
X111787688Y-61959424D01*
X111380499Y-62231499D01*
X111114558Y-62629508D01*
X110999637Y-62352082D01*
X110751293Y-62275312D01*
X109907605Y-63119000D01*
X110751763Y-63963158D01*
X110999645Y-63885924D01*
X111106525Y-63589767D01*
X111108424Y-63599312D01*
X111380499Y-64006501D01*
X111787688Y-64278576D01*
X112146761Y-64350000D01*
X112389239Y-64350000D01*
X112715652Y-64285072D01*
X112991002Y-64560422D01*
X112991002Y-64661584D01*
X112748312Y-64499424D01*
X112389239Y-64428000D01*
X112146761Y-64428000D01*
X111787688Y-64499424D01*
X111380499Y-64771499D01*
X111108424Y-65178688D01*
X111012884Y-65659000D01*
X111108424Y-66139312D01*
X111188501Y-66259156D01*
X111188500Y-70024298D01*
X111062694Y-70076408D01*
X110716408Y-70422694D01*
X110529000Y-70875139D01*
X110529000Y-71364861D01*
X110716408Y-71817306D01*
X110908092Y-72008990D01*
X110071908Y-72008990D01*
X110263592Y-71817306D01*
X110451000Y-71364861D01*
X110451000Y-70875139D01*
X110263592Y-70422694D01*
X109917306Y-70076408D01*
X109791500Y-70024298D01*
X109791500Y-66890000D01*
X109849239Y-66890000D01*
X110208312Y-66818576D01*
X110615501Y-66546501D01*
X110887576Y-66139312D01*
X110983116Y-65659000D01*
X110887576Y-65178688D01*
X110615501Y-64771499D01*
X110208312Y-64499424D01*
X110198767Y-64497525D01*
X110494924Y-64390645D01*
X110572158Y-64142763D01*
X109728000Y-63298605D01*
X109713858Y-63312748D01*
X109534253Y-63133143D01*
X109548395Y-63119000D01*
X108704237Y-62274842D01*
X108456355Y-62352076D01*
X108349475Y-62648233D01*
X108347576Y-62638688D01*
X108075501Y-62231499D01*
X107668312Y-61959424D01*
X107309239Y-61888000D01*
X107066761Y-61888000D01*
X106707688Y-61959424D01*
X106300499Y-62231499D01*
X106028424Y-62638688D01*
X105932884Y-63119000D01*
X106028424Y-63599312D01*
X106300499Y-64006501D01*
X106707688Y-64278576D01*
X107066761Y-64350000D01*
X107309239Y-64350000D01*
X107635652Y-64285072D01*
X107911001Y-64560421D01*
X107911001Y-64661584D01*
X107668312Y-64499424D01*
X107309239Y-64428000D01*
X107066761Y-64428000D01*
X106707688Y-64499424D01*
X106387001Y-64713700D01*
X106387001Y-64400028D01*
X106396952Y-64350000D01*
X106387001Y-64299970D01*
X106387001Y-64299969D01*
X106357526Y-64151789D01*
X106245248Y-63983754D01*
X106202834Y-63955414D01*
X105814072Y-63566652D01*
X105903116Y-63119000D01*
X105807576Y-62638688D01*
X105535501Y-62231499D01*
X105128312Y-61959424D01*
X104769239Y-61888000D01*
X104526761Y-61888000D01*
X104167688Y-61959424D01*
X103760499Y-62231499D01*
X103494558Y-62629508D01*
X103379637Y-62352082D01*
X103131293Y-62275312D01*
X102287605Y-63119000D01*
X103131763Y-63963158D01*
X103379645Y-63885924D01*
X103486525Y-63589767D01*
X103488424Y-63599312D01*
X103760499Y-64006501D01*
X104167688Y-64278576D01*
X104526761Y-64350000D01*
X104769239Y-64350000D01*
X105095652Y-64285072D01*
X105371001Y-64560421D01*
X105371001Y-64661584D01*
X105128312Y-64499424D01*
X104769239Y-64428000D01*
X104526761Y-64428000D01*
X104167688Y-64499424D01*
X103760499Y-64771499D01*
X103488424Y-65178688D01*
X103392884Y-65659000D01*
X103481928Y-66106652D01*
X102616000Y-66972580D01*
X102616000Y-66800075D01*
X102995501Y-66546501D01*
X103267576Y-66139312D01*
X103363116Y-65659000D01*
X103267576Y-65178688D01*
X102995501Y-64771499D01*
X102588312Y-64499424D01*
X102578767Y-64497525D01*
X102874924Y-64390645D01*
X102952158Y-64142763D01*
X102108000Y-63298605D01*
X101264312Y-64142293D01*
X101341082Y-64390637D01*
X101618508Y-64505558D01*
X101223412Y-64769553D01*
X101204247Y-64740871D01*
X101161835Y-64712532D01*
X100455622Y-64006320D01*
X100721442Y-63608492D01*
X100836363Y-63885918D01*
X101084707Y-63962688D01*
X101928395Y-63119000D01*
X101084237Y-62274842D01*
X100836355Y-62352076D01*
X100729475Y-62648233D01*
X100727576Y-62638688D01*
X100455501Y-62231499D01*
X100048312Y-61959424D01*
X99689239Y-61888000D01*
X99446761Y-61888000D01*
X99087688Y-61959424D01*
X98680499Y-62231499D01*
X98408424Y-62638688D01*
X98312884Y-63119000D01*
X98408424Y-63599312D01*
X98680499Y-64006501D01*
X99087688Y-64278576D01*
X99341530Y-64329068D01*
X99441507Y-64429045D01*
X99087688Y-64499424D01*
X98680499Y-64771499D01*
X98414558Y-65169508D01*
X98299637Y-64892082D01*
X98051293Y-64815312D01*
X97207605Y-65659000D01*
X96848395Y-65659000D01*
X96004237Y-64814842D01*
X95756355Y-64892076D01*
X95649475Y-65188233D01*
X95647576Y-65178688D01*
X95375501Y-64771499D01*
X94968312Y-64499424D01*
X94609239Y-64428000D01*
X94366761Y-64428000D01*
X94040348Y-64492928D01*
X93764999Y-64217579D01*
X93764999Y-64116416D01*
X94007688Y-64278576D01*
X94366761Y-64350000D01*
X94609239Y-64350000D01*
X94968312Y-64278576D01*
X95375501Y-64006501D01*
X95647576Y-63599312D01*
X95743116Y-63119000D01*
X95772884Y-63119000D01*
X95868424Y-63599312D01*
X96140499Y-64006501D01*
X96547688Y-64278576D01*
X96557233Y-64280475D01*
X96261076Y-64387355D01*
X96183842Y-64635237D01*
X97028000Y-65479395D01*
X97871688Y-64635707D01*
X97794918Y-64387363D01*
X97517492Y-64272442D01*
X97915501Y-64006501D01*
X98187576Y-63599312D01*
X98283116Y-63119000D01*
X98187576Y-62638688D01*
X97915501Y-62231499D01*
X97508312Y-61959424D01*
X97149239Y-61888000D01*
X96906761Y-61888000D01*
X96547688Y-61959424D01*
X96140499Y-62231499D01*
X95868424Y-62638688D01*
X95772884Y-63119000D01*
X95743116Y-63119000D01*
X95647576Y-62638688D01*
X95375501Y-62231499D01*
X94968312Y-61959424D01*
X94609239Y-61888000D01*
X94405421Y-61888000D01*
X94571421Y-61722000D01*
X101688425Y-61722000D01*
X101341076Y-61847355D01*
X101263842Y-62095237D01*
X102108000Y-62939395D01*
X102951688Y-62095707D01*
X102874918Y-61847363D01*
X102572284Y-61722000D01*
X109308425Y-61722000D01*
X108961076Y-61847355D01*
X108883842Y-62095237D01*
X109728000Y-62939395D01*
X110571688Y-62095707D01*
X110494918Y-61847363D01*
X110192284Y-61722000D01*
X122008425Y-61722000D01*
X121661076Y-61847355D01*
X121583842Y-62095237D01*
X122428000Y-62939395D01*
X123271688Y-62095707D01*
X123194918Y-61847363D01*
X122892284Y-61722000D01*
X127088425Y-61722000D01*
X126741076Y-61847355D01*
X126663842Y-62095237D01*
X127508000Y-62939395D01*
X128351688Y-62095707D01*
X128274918Y-61847363D01*
X127972284Y-61722000D01*
X132758580Y-61722000D01*
X132978049Y-61941470D01*
X132709239Y-61888000D01*
X132466761Y-61888000D01*
X132107688Y-61959424D01*
X131700499Y-62231499D01*
X131428424Y-62638688D01*
X131332884Y-63119000D01*
X131428424Y-63599312D01*
X131700499Y-64006501D01*
X132107688Y-64278576D01*
X132466761Y-64350000D01*
X132709239Y-64350000D01*
X133068312Y-64278576D01*
X133350000Y-64090358D01*
X133350000Y-64687642D01*
X133068312Y-64499424D01*
X132709239Y-64428000D01*
X132466761Y-64428000D01*
X132107688Y-64499424D01*
X131700499Y-64771499D01*
X131428424Y-65178688D01*
X131332884Y-65659000D01*
X131428424Y-66139312D01*
X131700499Y-66546501D01*
X132107688Y-66818576D01*
X132466761Y-66890000D01*
X132709239Y-66890000D01*
X133068312Y-66818576D01*
X133350000Y-66630358D01*
X133350001Y-72429000D01*
X133114549Y-72429000D01*
X132662104Y-72616408D01*
X132315818Y-72962694D01*
X132128410Y-73415139D01*
X132128410Y-73904861D01*
X132315818Y-74357306D01*
X132662104Y-74703592D01*
X133114549Y-74891000D01*
X133604271Y-74891000D01*
X134055832Y-74703958D01*
X135025647Y-74703958D01*
X135097852Y-74930000D01*
X135025647Y-75156042D01*
X135890000Y-76020395D01*
X136754353Y-75156042D01*
X136682148Y-74930000D01*
X136754353Y-74703958D01*
X135890000Y-73839605D01*
X135025647Y-74703958D01*
X134055832Y-74703958D01*
X134056716Y-74703592D01*
X134403002Y-74357306D01*
X134480900Y-74169243D01*
X134594741Y-74444080D01*
X134846042Y-74524353D01*
X135710395Y-73660000D01*
X136069605Y-73660000D01*
X136933958Y-74524353D01*
X137185259Y-74444080D01*
X137295954Y-74138929D01*
X137386408Y-74357306D01*
X137732694Y-74703592D01*
X138185139Y-74891000D01*
X138674861Y-74891000D01*
X139127306Y-74703592D01*
X139473592Y-74357306D01*
X139661000Y-73904861D01*
X139661000Y-73415139D01*
X139473592Y-72962694D01*
X139127306Y-72616408D01*
X138674861Y-72429000D01*
X138185139Y-72429000D01*
X137732694Y-72616408D01*
X137386408Y-72962694D01*
X137303805Y-73162116D01*
X137185259Y-72875920D01*
X136933958Y-72795647D01*
X136069605Y-73660000D01*
X135710395Y-73660000D01*
X134846042Y-72795647D01*
X134594741Y-72875920D01*
X134488440Y-73168960D01*
X134403002Y-72962694D01*
X134366000Y-72925692D01*
X134366000Y-72616042D01*
X135025647Y-72616042D01*
X135890000Y-73480395D01*
X136754353Y-72616042D01*
X136674080Y-72364741D01*
X136118721Y-72163282D01*
X135528542Y-72189685D01*
X135105920Y-72364741D01*
X135025647Y-72616042D01*
X134366000Y-72616042D01*
X134366000Y-66932674D01*
X134771108Y-67100486D01*
X135349908Y-67127336D01*
X135894924Y-66930645D01*
X135972158Y-66682763D01*
X135128000Y-65838605D01*
X135113858Y-65852748D01*
X134934253Y-65673143D01*
X134948395Y-65659000D01*
X135307605Y-65659000D01*
X136151763Y-66503158D01*
X136399645Y-66425924D01*
X136596336Y-65880908D01*
X136569486Y-65302108D01*
X136399637Y-64892082D01*
X136151293Y-64815312D01*
X135307605Y-65659000D01*
X134948395Y-65659000D01*
X134934253Y-65644858D01*
X135113858Y-65465253D01*
X135128000Y-65479395D01*
X135971688Y-64635707D01*
X135894918Y-64387363D01*
X135617492Y-64272442D01*
X136015501Y-64006501D01*
X136182257Y-63756933D01*
X137159000Y-63756933D01*
X137159000Y-64903067D01*
X137597606Y-65961955D01*
X138408045Y-66772394D01*
X139466933Y-67211000D01*
X140613067Y-67211000D01*
X141671955Y-66772394D01*
X142482394Y-65961955D01*
X142921000Y-64903067D01*
X142921000Y-63756933D01*
X142482394Y-62698045D01*
X141671955Y-61887606D01*
X140613067Y-61449000D01*
X139466933Y-61449000D01*
X138408045Y-61887606D01*
X137597606Y-62698045D01*
X137159000Y-63756933D01*
X136182257Y-63756933D01*
X136287576Y-63599312D01*
X136383116Y-63119000D01*
X136287576Y-62638688D01*
X136015501Y-62231499D01*
X135608312Y-61959424D01*
X135249239Y-61888000D01*
X135006761Y-61888000D01*
X134647688Y-61959424D01*
X134367236Y-62146816D01*
X134375951Y-62103000D01*
X134366000Y-62052972D01*
X134366000Y-62052968D01*
X134336525Y-61904788D01*
X134252588Y-61779167D01*
X134252586Y-61779165D01*
X134224247Y-61736753D01*
X134181835Y-61708415D01*
X133668031Y-61194611D01*
X140524450Y-61194611D01*
X141149193Y-61267448D01*
X141719684Y-61474528D01*
X142227241Y-61807296D01*
X142644630Y-62247903D01*
X142949463Y-62772711D01*
X143126885Y-63358511D01*
X143169357Y-63834406D01*
X143169356Y-113800571D01*
X143095462Y-114424894D01*
X142887386Y-114995029D01*
X142553733Y-115502002D01*
X142112398Y-115918623D01*
X141587060Y-116222537D01*
X141000798Y-116398983D01*
X140529726Y-116440611D01*
X81568262Y-116440611D01*
X80943520Y-116367774D01*
X80373031Y-116160697D01*
X79865469Y-115827924D01*
X79448083Y-115387322D01*
X79143249Y-114862511D01*
X78965829Y-114276715D01*
X78923356Y-113800826D01*
X78923356Y-112746933D01*
X79159000Y-112746933D01*
X79159000Y-113893067D01*
X79597606Y-114951955D01*
X80408045Y-115762394D01*
X81466933Y-116201000D01*
X82613067Y-116201000D01*
X83671955Y-115762394D01*
X84482394Y-114951955D01*
X84921000Y-113893067D01*
X84921000Y-112746933D01*
X84916858Y-112736933D01*
X137149000Y-112736933D01*
X137149000Y-113883067D01*
X137587606Y-114941955D01*
X138398045Y-115752394D01*
X139456933Y-116191000D01*
X140603067Y-116191000D01*
X141661955Y-115752394D01*
X142472394Y-114941955D01*
X142911000Y-113883067D01*
X142911000Y-112736933D01*
X142472394Y-111678045D01*
X141661955Y-110867606D01*
X140603067Y-110429000D01*
X139456933Y-110429000D01*
X138398045Y-110867606D01*
X137587606Y-111678045D01*
X137149000Y-112736933D01*
X84916858Y-112736933D01*
X84482394Y-111688045D01*
X83671955Y-110877606D01*
X82613067Y-110439000D01*
X81466933Y-110439000D01*
X80408045Y-110877606D01*
X79597606Y-111688045D01*
X79159000Y-112746933D01*
X78923356Y-112746933D01*
X78923356Y-103805193D01*
X81269000Y-103805193D01*
X81269000Y-104314807D01*
X81464021Y-104785628D01*
X81824372Y-105145979D01*
X82295193Y-105341000D01*
X82804807Y-105341000D01*
X83275628Y-105145979D01*
X83635979Y-104785628D01*
X83831000Y-104314807D01*
X83831000Y-103805193D01*
X83635979Y-103334372D01*
X83275628Y-102974021D01*
X82804807Y-102779000D01*
X82295193Y-102779000D01*
X81824372Y-102974021D01*
X81464021Y-103334372D01*
X81269000Y-103805193D01*
X78923356Y-103805193D01*
X78923356Y-98805193D01*
X81269000Y-98805193D01*
X81269000Y-99314807D01*
X81464021Y-99785628D01*
X81824372Y-100145979D01*
X82295193Y-100341000D01*
X82804807Y-100341000D01*
X83275628Y-100145979D01*
X83635979Y-99785628D01*
X83831000Y-99314807D01*
X83831000Y-98805193D01*
X83635979Y-98334372D01*
X83275628Y-97974021D01*
X82804807Y-97779000D01*
X82295193Y-97779000D01*
X81824372Y-97974021D01*
X81464021Y-98334372D01*
X81269000Y-98805193D01*
X78923356Y-98805193D01*
X78923356Y-90986281D01*
X84079000Y-90986281D01*
X84079000Y-91893719D01*
X84426262Y-92732082D01*
X85067918Y-93373738D01*
X85906281Y-93721000D01*
X86813719Y-93721000D01*
X87652082Y-93373738D01*
X88293738Y-92732082D01*
X88641000Y-91893719D01*
X88641000Y-90986281D01*
X88293738Y-90147918D01*
X87652082Y-89506262D01*
X86813719Y-89159000D01*
X85906281Y-89159000D01*
X85067918Y-89506262D01*
X84426262Y-90147918D01*
X84079000Y-90986281D01*
X78923356Y-90986281D01*
X78923356Y-88260000D01*
X90857305Y-88260000D01*
X90868501Y-88316286D01*
X90868500Y-91383719D01*
X90857305Y-91440000D01*
X90868500Y-91496281D01*
X90868500Y-91496285D01*
X90901659Y-91662987D01*
X91027972Y-91852028D01*
X91075691Y-91883913D01*
X91884501Y-92692724D01*
X91884500Y-102021873D01*
X91863841Y-102042532D01*
X91757500Y-102299260D01*
X91757500Y-102577140D01*
X91863841Y-102833868D01*
X92060332Y-103030359D01*
X92317060Y-103136700D01*
X92594940Y-103136700D01*
X92851668Y-103030359D01*
X93048159Y-102833868D01*
X93154500Y-102577140D01*
X93154500Y-102299260D01*
X93048159Y-102042532D01*
X93027500Y-102021873D01*
X93027500Y-100605722D01*
X93281500Y-100859723D01*
X93281500Y-100888940D01*
X93387841Y-101145668D01*
X93584332Y-101342159D01*
X93841060Y-101448500D01*
X94118940Y-101448500D01*
X94375668Y-101342159D01*
X94572159Y-101145668D01*
X94678500Y-100888940D01*
X94678500Y-100611060D01*
X94572159Y-100354332D01*
X94375668Y-100157841D01*
X94118940Y-100051500D01*
X94089723Y-100051500D01*
X93662510Y-99624288D01*
X93662510Y-92565712D01*
X94344312Y-91883911D01*
X94392028Y-91852028D01*
X94433040Y-91790649D01*
X94518341Y-91662989D01*
X94526970Y-91619605D01*
X94551500Y-91496286D01*
X94551500Y-91496283D01*
X94562695Y-91440000D01*
X94551500Y-91383718D01*
X94551500Y-89494043D01*
X95042302Y-89669144D01*
X95597368Y-89641362D01*
X95981143Y-89482397D01*
X96050608Y-89240213D01*
X95250000Y-88439605D01*
X95235858Y-88453748D01*
X95056253Y-88274143D01*
X95070395Y-88260000D01*
X95429605Y-88260000D01*
X96230213Y-89060608D01*
X96472397Y-88991143D01*
X96659144Y-88467698D01*
X96631362Y-87912632D01*
X96472397Y-87528857D01*
X96230213Y-87459392D01*
X95429605Y-88260000D01*
X95070395Y-88260000D01*
X95056253Y-88245858D01*
X95235858Y-88066253D01*
X95250000Y-88080395D01*
X96050608Y-87279787D01*
X95981143Y-87037603D01*
X95484011Y-86860244D01*
X95897458Y-86688989D01*
X96218989Y-86367458D01*
X96393000Y-85947357D01*
X96393000Y-85492643D01*
X96218989Y-85072542D01*
X95897458Y-84751011D01*
X95477357Y-84577000D01*
X95022643Y-84577000D01*
X94602542Y-84751011D01*
X94281011Y-85072542D01*
X94107000Y-85492643D01*
X94107000Y-85947357D01*
X94138463Y-86023315D01*
X93720066Y-86441712D01*
X93678989Y-86342542D01*
X93357458Y-86021011D01*
X92937357Y-85847000D01*
X92744931Y-85847000D01*
X93057368Y-85831362D01*
X93441143Y-85672397D01*
X93510608Y-85430213D01*
X92710000Y-84629605D01*
X91909392Y-85430213D01*
X91978857Y-85672397D01*
X92475989Y-85849756D01*
X92062542Y-86021011D01*
X91741011Y-86342542D01*
X91567000Y-86762643D01*
X91567000Y-87217357D01*
X91598463Y-87293315D01*
X91075689Y-87816089D01*
X91027973Y-87847972D01*
X90996090Y-87895688D01*
X90996089Y-87895689D01*
X90901660Y-88037012D01*
X90857305Y-88260000D01*
X78923356Y-88260000D01*
X78923356Y-84242302D01*
X91300856Y-84242302D01*
X91328638Y-84797368D01*
X91487603Y-85181143D01*
X91729787Y-85250608D01*
X92530395Y-84450000D01*
X92889605Y-84450000D01*
X93690213Y-85250608D01*
X93932397Y-85181143D01*
X94119144Y-84657698D01*
X94091362Y-84102632D01*
X93932397Y-83718857D01*
X93690213Y-83649392D01*
X92889605Y-84450000D01*
X92530395Y-84450000D01*
X91729787Y-83649392D01*
X91487603Y-83718857D01*
X91300856Y-84242302D01*
X78923356Y-84242302D01*
X78923356Y-80826281D01*
X84079000Y-80826281D01*
X84079000Y-81733719D01*
X84426262Y-82572082D01*
X85067918Y-83213738D01*
X85906281Y-83561000D01*
X86813719Y-83561000D01*
X87033926Y-83469787D01*
X91909392Y-83469787D01*
X92710000Y-84270395D01*
X93510608Y-83469787D01*
X93441143Y-83227603D01*
X92917698Y-83040856D01*
X92362632Y-83068638D01*
X91978857Y-83227603D01*
X91909392Y-83469787D01*
X87033926Y-83469787D01*
X87652082Y-83213738D01*
X87913177Y-82952643D01*
X94107000Y-82952643D01*
X94107000Y-83407357D01*
X94281011Y-83827458D01*
X94602542Y-84148989D01*
X95022643Y-84323000D01*
X95477357Y-84323000D01*
X95897458Y-84148989D01*
X96218989Y-83827458D01*
X96393000Y-83407357D01*
X96393000Y-82952643D01*
X96218989Y-82532542D01*
X95897458Y-82211011D01*
X95477357Y-82037000D01*
X95022643Y-82037000D01*
X94602542Y-82211011D01*
X94281011Y-82532542D01*
X94107000Y-82952643D01*
X87913177Y-82952643D01*
X88293738Y-82572082D01*
X88641000Y-81733719D01*
X88641000Y-80826281D01*
X88293738Y-79987918D01*
X87652082Y-79346262D01*
X86813719Y-78999000D01*
X85906281Y-78999000D01*
X85067918Y-79346262D01*
X84426262Y-79987918D01*
X84079000Y-80826281D01*
X78923356Y-80826281D01*
X78923356Y-63839517D01*
X78934428Y-63744544D01*
X79165356Y-63744544D01*
X79165356Y-64890678D01*
X79603962Y-65949566D01*
X80414401Y-66760005D01*
X81473289Y-67198611D01*
X82619423Y-67198611D01*
X83678311Y-66760005D01*
X84488750Y-65949566D01*
X84927356Y-64890678D01*
X84927356Y-64809000D01*
X85629536Y-64809000D01*
X85629536Y-66509000D01*
X85659106Y-66657659D01*
X85743314Y-66783686D01*
X85869341Y-66867894D01*
X86018000Y-66897464D01*
X87718000Y-66897464D01*
X87866659Y-66867894D01*
X87992686Y-66783686D01*
X88076894Y-66657659D01*
X88106464Y-66509000D01*
X88106464Y-64809000D01*
X88076894Y-64660341D01*
X87992686Y-64534314D01*
X87866659Y-64450106D01*
X87718000Y-64420536D01*
X86018000Y-64420536D01*
X85869341Y-64450106D01*
X85743314Y-64534314D01*
X85659106Y-64660341D01*
X85629536Y-64809000D01*
X84927356Y-64809000D01*
X84927356Y-63744544D01*
X84668248Y-63119000D01*
X85612884Y-63119000D01*
X85708424Y-63599312D01*
X85980499Y-64006501D01*
X86387688Y-64278576D01*
X86746761Y-64350000D01*
X86989239Y-64350000D01*
X87348312Y-64278576D01*
X87755501Y-64006501D01*
X88027576Y-63599312D01*
X88123116Y-63119000D01*
X88152884Y-63119000D01*
X88248424Y-63599312D01*
X88520499Y-64006501D01*
X88927688Y-64278576D01*
X89286761Y-64350000D01*
X89529239Y-64350000D01*
X89888312Y-64278576D01*
X90295501Y-64006501D01*
X90561442Y-63608492D01*
X90676363Y-63885918D01*
X90924707Y-63962688D01*
X91768395Y-63119000D01*
X90924237Y-62274842D01*
X90676355Y-62352076D01*
X90569475Y-62648233D01*
X90567576Y-62638688D01*
X90295501Y-62231499D01*
X89888312Y-61959424D01*
X89529239Y-61888000D01*
X89286761Y-61888000D01*
X88927688Y-61959424D01*
X88520499Y-62231499D01*
X88248424Y-62638688D01*
X88152884Y-63119000D01*
X88123116Y-63119000D01*
X88027576Y-62638688D01*
X87755501Y-62231499D01*
X87348312Y-61959424D01*
X86989239Y-61888000D01*
X86746761Y-61888000D01*
X86387688Y-61959424D01*
X85980499Y-62231499D01*
X85708424Y-62638688D01*
X85612884Y-63119000D01*
X84668248Y-63119000D01*
X84488750Y-62685656D01*
X83678311Y-61875217D01*
X82619423Y-61436611D01*
X81473289Y-61436611D01*
X80414401Y-61875217D01*
X79603962Y-62685656D01*
X79165356Y-63744544D01*
X78934428Y-63744544D01*
X78996193Y-63214774D01*
X79203273Y-62644283D01*
X79536041Y-62136726D01*
X79976648Y-61719337D01*
X80501456Y-61414504D01*
X81087256Y-61237082D01*
X81563140Y-61194611D01*
X93661968Y-61194611D01*
X92933165Y-61923415D01*
X92933165Y-61923415D01*
G37*
X92933165Y-61923415D02*
X92890753Y-61951754D01*
X92862414Y-61994166D01*
X92862411Y-61994169D01*
X92800366Y-62087026D01*
X92791687Y-62095705D01*
X92714918Y-61847363D01*
X92304892Y-61677514D01*
X91726092Y-61650664D01*
X91181076Y-61847355D01*
X91103842Y-62095237D01*
X91948000Y-62939395D01*
X91962143Y-62925253D01*
X92141748Y-63104858D01*
X92127605Y-63119000D01*
X92141748Y-63133143D01*
X91962143Y-63312748D01*
X91948000Y-63298605D01*
X91104312Y-64142293D01*
X91181082Y-64390637D01*
X91458508Y-64505558D01*
X91060499Y-64771499D01*
X90788424Y-65178688D01*
X90692884Y-65659000D01*
X90788424Y-66139312D01*
X90973459Y-66416237D01*
X90701912Y-66144690D01*
X90701910Y-66144687D01*
X90588972Y-66031749D01*
X90663116Y-65659000D01*
X90567576Y-65178688D01*
X90295501Y-64771499D01*
X89888312Y-64499424D01*
X89529239Y-64428000D01*
X89286761Y-64428000D01*
X88927688Y-64499424D01*
X88520499Y-64771499D01*
X88248424Y-65178688D01*
X88152884Y-65659000D01*
X88248424Y-66139312D01*
X88520499Y-66546501D01*
X88927688Y-66818576D01*
X89286761Y-66890000D01*
X89529239Y-66890000D01*
X89780749Y-66839972D01*
X89893687Y-66952910D01*
X89893690Y-66952912D01*
X93042277Y-70101500D01*
X93018060Y-70101500D01*
X92761332Y-70207841D01*
X92564841Y-70404332D01*
X92458500Y-70661060D01*
X92458500Y-70938940D01*
X92564841Y-71195668D01*
X92761332Y-71392159D01*
X93018060Y-71498500D01*
X93047278Y-71498500D01*
X94176089Y-72627312D01*
X94207972Y-72675028D01*
X94397012Y-72801341D01*
X94563714Y-72834500D01*
X94563718Y-72834500D01*
X94583635Y-72838462D01*
X94600332Y-72855159D01*
X94857060Y-72961500D01*
X95134940Y-72961500D01*
X95391668Y-72855159D01*
X95588159Y-72658668D01*
X95694500Y-72401940D01*
X95694500Y-72124060D01*
X95588159Y-71867332D01*
X95511564Y-71790737D01*
X95647677Y-71847117D01*
X95925557Y-71847117D01*
X96182285Y-71740776D01*
X96378776Y-71544285D01*
X96485117Y-71287557D01*
X96485117Y-71009677D01*
X96378776Y-70752949D01*
X96182285Y-70556458D01*
X95925557Y-70450117D01*
X95647677Y-70450117D01*
X95390949Y-70556458D01*
X95370290Y-70577117D01*
X95134340Y-70577117D01*
X91190763Y-66633541D01*
X91467688Y-66818576D01*
X91826761Y-66890000D01*
X92069239Y-66890000D01*
X92320749Y-66839972D01*
X95186500Y-69705723D01*
X95186500Y-69734940D01*
X95292841Y-69991668D01*
X95489332Y-70188159D01*
X95746060Y-70294500D01*
X96023940Y-70294500D01*
X96280668Y-70188159D01*
X96477159Y-69991668D01*
X96583500Y-69734940D01*
X96583500Y-69457060D01*
X96477159Y-69200332D01*
X96280668Y-69003841D01*
X96023940Y-68897500D01*
X95994723Y-68897500D01*
X93730763Y-66633541D01*
X94007688Y-66818576D01*
X94366761Y-66890000D01*
X94609239Y-66890000D01*
X94968312Y-66818576D01*
X95172273Y-66682293D01*
X96184312Y-66682293D01*
X96261082Y-66930637D01*
X96671108Y-67100486D01*
X97249908Y-67127336D01*
X97794924Y-66930645D01*
X97872158Y-66682763D01*
X97028000Y-65838605D01*
X96184312Y-66682293D01*
X95172273Y-66682293D01*
X95375501Y-66546501D01*
X95641442Y-66148492D01*
X95756363Y-66425918D01*
X96004707Y-66502688D01*
X96848395Y-65659000D01*
X97207605Y-65659000D01*
X98051763Y-66503158D01*
X98299645Y-66425924D01*
X98406525Y-66129767D01*
X98408424Y-66139312D01*
X98680499Y-66546501D01*
X99060000Y-66800076D01*
X99060001Y-69799968D01*
X99060000Y-70601840D01*
X99050049Y-70651868D01*
X99060000Y-70701896D01*
X99060000Y-70701899D01*
X99089475Y-70850079D01*
X99201753Y-71018115D01*
X99244168Y-71046456D01*
X104086546Y-75888835D01*
X104114885Y-75931247D01*
X104157297Y-75959586D01*
X104157299Y-75959588D01*
X104282920Y-76043525D01*
X104431100Y-76073000D01*
X104431104Y-76073000D01*
X104481132Y-76082951D01*
X104531160Y-76073000D01*
X109644580Y-76073000D01*
X113115284Y-79543705D01*
X113115283Y-83093255D01*
X113105332Y-83143283D01*
X113115283Y-83193311D01*
X113115283Y-83193314D01*
X113144758Y-83341494D01*
X113257036Y-83509530D01*
X113299451Y-83537871D01*
X116776500Y-87014920D01*
X116776500Y-87133940D01*
X116882841Y-87390668D01*
X117079332Y-87587159D01*
X117336060Y-87693500D01*
X117613940Y-87693500D01*
X117729001Y-87645840D01*
X117729001Y-94770172D01*
X117644841Y-94854332D01*
X117538500Y-95111060D01*
X117538500Y-95388940D01*
X117644841Y-95645668D01*
X117841332Y-95842159D01*
X118098060Y-95948500D01*
X118375940Y-95948500D01*
X118632668Y-95842159D01*
X118829159Y-95645668D01*
X118935500Y-95388940D01*
X118935500Y-95111060D01*
X118829159Y-94854332D01*
X118745000Y-94770173D01*
X118745000Y-91195139D01*
X132128410Y-91195139D01*
X132128410Y-91684861D01*
X132315818Y-92137306D01*
X132662104Y-92483592D01*
X133114549Y-92671000D01*
X133604271Y-92671000D01*
X134055832Y-92483958D01*
X135025647Y-92483958D01*
X135105920Y-92735259D01*
X135661279Y-92936718D01*
X136251458Y-92910315D01*
X136674080Y-92735259D01*
X136754353Y-92483958D01*
X135890000Y-91619605D01*
X135025647Y-92483958D01*
X134055832Y-92483958D01*
X134056716Y-92483592D01*
X134403002Y-92137306D01*
X134480900Y-91949243D01*
X134594741Y-92224080D01*
X134846042Y-92304353D01*
X135710395Y-91440000D01*
X136069605Y-91440000D01*
X136933958Y-92304353D01*
X137185259Y-92224080D01*
X137295954Y-91918929D01*
X137386408Y-92137306D01*
X137732694Y-92483592D01*
X138185139Y-92671000D01*
X138674861Y-92671000D01*
X139127306Y-92483592D01*
X139473592Y-92137306D01*
X139661000Y-91684861D01*
X139661000Y-91195139D01*
X139473592Y-90742694D01*
X139127306Y-90396408D01*
X138674861Y-90209000D01*
X138185139Y-90209000D01*
X137732694Y-90396408D01*
X137386408Y-90742694D01*
X137303805Y-90942116D01*
X137185259Y-90655920D01*
X136933958Y-90575647D01*
X136069605Y-91440000D01*
X135710395Y-91440000D01*
X134846042Y-90575647D01*
X134594741Y-90655920D01*
X134488440Y-90948960D01*
X134403002Y-90742694D01*
X134056716Y-90396408D01*
X133604271Y-90209000D01*
X133114549Y-90209000D01*
X132662104Y-90396408D01*
X132315818Y-90742694D01*
X132128410Y-91195139D01*
X118745000Y-91195139D01*
X118745000Y-88655139D01*
X132128410Y-88655139D01*
X132128410Y-89144861D01*
X132315818Y-89597306D01*
X132662104Y-89943592D01*
X133114549Y-90131000D01*
X133604271Y-90131000D01*
X134055832Y-89943958D01*
X135025647Y-89943958D01*
X135097852Y-90170000D01*
X135025647Y-90396042D01*
X135890000Y-91260395D01*
X136754353Y-90396042D01*
X136682148Y-90170000D01*
X136754353Y-89943958D01*
X135890000Y-89079605D01*
X135025647Y-89943958D01*
X134055832Y-89943958D01*
X134056716Y-89943592D01*
X134403002Y-89597306D01*
X134480900Y-89409243D01*
X134594741Y-89684080D01*
X134846042Y-89764353D01*
X135710395Y-88900000D01*
X136069605Y-88900000D01*
X136933958Y-89764353D01*
X137185259Y-89684080D01*
X137295954Y-89378929D01*
X137386408Y-89597306D01*
X137732694Y-89943592D01*
X138185139Y-90131000D01*
X138674861Y-90131000D01*
X139127306Y-89943592D01*
X139473592Y-89597306D01*
X139661000Y-89144861D01*
X139661000Y-88655139D01*
X139473592Y-88202694D01*
X139127306Y-87856408D01*
X138674861Y-87669000D01*
X138185139Y-87669000D01*
X137732694Y-87856408D01*
X137386408Y-88202694D01*
X137303805Y-88402116D01*
X137185259Y-88115920D01*
X136933958Y-88035647D01*
X136069605Y-88900000D01*
X135710395Y-88900000D01*
X134846042Y-88035647D01*
X134594741Y-88115920D01*
X134488440Y-88408960D01*
X134403002Y-88202694D01*
X134056716Y-87856408D01*
X133604271Y-87669000D01*
X133114549Y-87669000D01*
X132662104Y-87856408D01*
X132315818Y-88202694D01*
X132128410Y-88655139D01*
X118745000Y-88655139D01*
X118745000Y-86115139D01*
X132128410Y-86115139D01*
X132128410Y-86604861D01*
X132315818Y-87057306D01*
X132662104Y-87403592D01*
X133114549Y-87591000D01*
X133604271Y-87591000D01*
X134055832Y-87403958D01*
X135025647Y-87403958D01*
X135097852Y-87630000D01*
X135025647Y-87856042D01*
X135890000Y-88720395D01*
X136754353Y-87856042D01*
X136682148Y-87630000D01*
X136754353Y-87403958D01*
X135890000Y-86539605D01*
X135025647Y-87403958D01*
X134055832Y-87403958D01*
X134056716Y-87403592D01*
X134403002Y-87057306D01*
X134480900Y-86869243D01*
X134594741Y-87144080D01*
X134846042Y-87224353D01*
X135710395Y-86360000D01*
X136069605Y-86360000D01*
X136933958Y-87224353D01*
X137185259Y-87144080D01*
X137295954Y-86838929D01*
X137386408Y-87057306D01*
X137732694Y-87403592D01*
X138185139Y-87591000D01*
X138674861Y-87591000D01*
X139127306Y-87403592D01*
X139473592Y-87057306D01*
X139661000Y-86604861D01*
X139661000Y-86115139D01*
X139473592Y-85662694D01*
X139127306Y-85316408D01*
X138674861Y-85129000D01*
X138185139Y-85129000D01*
X137732694Y-85316408D01*
X137386408Y-85662694D01*
X137303805Y-85862116D01*
X137185259Y-85575920D01*
X136933958Y-85495647D01*
X136069605Y-86360000D01*
X135710395Y-86360000D01*
X134846042Y-85495647D01*
X134594741Y-85575920D01*
X134488440Y-85868960D01*
X134403002Y-85662694D01*
X134056716Y-85316408D01*
X133604271Y-85129000D01*
X133114549Y-85129000D01*
X132662104Y-85316408D01*
X132315818Y-85662694D01*
X132128410Y-86115139D01*
X118745000Y-86115139D01*
X118745000Y-83575139D01*
X132128410Y-83575139D01*
X132128410Y-84064861D01*
X132315818Y-84517306D01*
X132662104Y-84863592D01*
X133114549Y-85051000D01*
X133604271Y-85051000D01*
X134055832Y-84863958D01*
X135025647Y-84863958D01*
X135097852Y-85090000D01*
X135025647Y-85316042D01*
X135890000Y-86180395D01*
X136754353Y-85316042D01*
X136682148Y-85090000D01*
X136754353Y-84863958D01*
X135890000Y-83999605D01*
X135025647Y-84863958D01*
X134055832Y-84863958D01*
X134056716Y-84863592D01*
X134403002Y-84517306D01*
X134480900Y-84329243D01*
X134594741Y-84604080D01*
X134846042Y-84684353D01*
X135710395Y-83820000D01*
X136069605Y-83820000D01*
X136933958Y-84684353D01*
X137185259Y-84604080D01*
X137295954Y-84298929D01*
X137386408Y-84517306D01*
X137732694Y-84863592D01*
X138185139Y-85051000D01*
X138674861Y-85051000D01*
X139127306Y-84863592D01*
X139473592Y-84517306D01*
X139661000Y-84064861D01*
X139661000Y-83575139D01*
X139473592Y-83122694D01*
X139127306Y-82776408D01*
X138674861Y-82589000D01*
X138185139Y-82589000D01*
X137732694Y-82776408D01*
X137386408Y-83122694D01*
X137303805Y-83322116D01*
X137185259Y-83035920D01*
X136933958Y-82955647D01*
X136069605Y-83820000D01*
X135710395Y-83820000D01*
X134846042Y-82955647D01*
X134594741Y-83035920D01*
X134488440Y-83328960D01*
X134403002Y-83122694D01*
X134056716Y-82776408D01*
X133604271Y-82589000D01*
X133114549Y-82589000D01*
X132662104Y-82776408D01*
X132315818Y-83122694D01*
X132128410Y-83575139D01*
X118745000Y-83575139D01*
X118745000Y-81035139D01*
X132128410Y-81035139D01*
X132128410Y-81524861D01*
X132315818Y-81977306D01*
X132662104Y-82323592D01*
X133114549Y-82511000D01*
X133604271Y-82511000D01*
X134055832Y-82323958D01*
X135025647Y-82323958D01*
X135097852Y-82550000D01*
X135025647Y-82776042D01*
X135890000Y-83640395D01*
X136754353Y-82776042D01*
X136682148Y-82550000D01*
X136754353Y-82323958D01*
X135890000Y-81459605D01*
X135025647Y-82323958D01*
X134055832Y-82323958D01*
X134056716Y-82323592D01*
X134403002Y-81977306D01*
X134480900Y-81789243D01*
X134594741Y-82064080D01*
X134846042Y-82144353D01*
X135710395Y-81280000D01*
X136069605Y-81280000D01*
X136933958Y-82144353D01*
X137185259Y-82064080D01*
X137295954Y-81758929D01*
X137386408Y-81977306D01*
X137732694Y-82323592D01*
X138185139Y-82511000D01*
X138674861Y-82511000D01*
X139127306Y-82323592D01*
X139473592Y-81977306D01*
X139661000Y-81524861D01*
X139661000Y-81035139D01*
X139473592Y-80582694D01*
X139127306Y-80236408D01*
X138674861Y-80049000D01*
X138185139Y-80049000D01*
X137732694Y-80236408D01*
X137386408Y-80582694D01*
X137303805Y-80782116D01*
X137185259Y-80495920D01*
X136933958Y-80415647D01*
X136069605Y-81280000D01*
X135710395Y-81280000D01*
X134846042Y-80415647D01*
X134594741Y-80495920D01*
X134488440Y-80788960D01*
X134403002Y-80582694D01*
X134056716Y-80236408D01*
X133604271Y-80049000D01*
X133114549Y-80049000D01*
X132662104Y-80236408D01*
X132315818Y-80582694D01*
X132128410Y-81035139D01*
X118745000Y-81035139D01*
X118745000Y-78838827D01*
X118829159Y-78754668D01*
X118935500Y-78497940D01*
X118935500Y-78495139D01*
X132128410Y-78495139D01*
X132128410Y-78984861D01*
X132315818Y-79437306D01*
X132662104Y-79783592D01*
X133114549Y-79971000D01*
X133604271Y-79971000D01*
X134055832Y-79783958D01*
X135025647Y-79783958D01*
X135097852Y-80010000D01*
X135025647Y-80236042D01*
X135890000Y-81100395D01*
X136754353Y-80236042D01*
X136682148Y-80010000D01*
X136754353Y-79783958D01*
X135890000Y-78919605D01*
X135025647Y-79783958D01*
X134055832Y-79783958D01*
X134056716Y-79783592D01*
X134403002Y-79437306D01*
X134480900Y-79249243D01*
X134594741Y-79524080D01*
X134846042Y-79604353D01*
X135710395Y-78740000D01*
X136069605Y-78740000D01*
X136933958Y-79604353D01*
X137185259Y-79524080D01*
X137295954Y-79218929D01*
X137386408Y-79437306D01*
X137732694Y-79783592D01*
X138185139Y-79971000D01*
X138674861Y-79971000D01*
X139127306Y-79783592D01*
X139473592Y-79437306D01*
X139661000Y-78984861D01*
X139661000Y-78495139D01*
X139473592Y-78042694D01*
X139127306Y-77696408D01*
X138674861Y-77509000D01*
X138185139Y-77509000D01*
X137732694Y-77696408D01*
X137386408Y-78042694D01*
X137303805Y-78242116D01*
X137185259Y-77955920D01*
X136933958Y-77875647D01*
X136069605Y-78740000D01*
X135710395Y-78740000D01*
X134846042Y-77875647D01*
X134594741Y-77955920D01*
X134488440Y-78248960D01*
X134403002Y-78042694D01*
X134056716Y-77696408D01*
X133604271Y-77509000D01*
X133114549Y-77509000D01*
X132662104Y-77696408D01*
X132315818Y-78042694D01*
X132128410Y-78495139D01*
X118935500Y-78495139D01*
X118935500Y-78220060D01*
X118829159Y-77963332D01*
X118632668Y-77766841D01*
X118375940Y-77660500D01*
X118098060Y-77660500D01*
X117983000Y-77708160D01*
X117983000Y-76250027D01*
X117992951Y-76199999D01*
X117983000Y-76149969D01*
X117983000Y-76149968D01*
X117953525Y-76001788D01*
X117922356Y-75955139D01*
X132128410Y-75955139D01*
X132128410Y-76444861D01*
X132315818Y-76897306D01*
X132662104Y-77243592D01*
X133114549Y-77431000D01*
X133604271Y-77431000D01*
X134055832Y-77243958D01*
X135025647Y-77243958D01*
X135097852Y-77470000D01*
X135025647Y-77696042D01*
X135890000Y-78560395D01*
X136754353Y-77696042D01*
X136682148Y-77470000D01*
X136754353Y-77243958D01*
X135890000Y-76379605D01*
X135025647Y-77243958D01*
X134055832Y-77243958D01*
X134056716Y-77243592D01*
X134403002Y-76897306D01*
X134480900Y-76709243D01*
X134594741Y-76984080D01*
X134846042Y-77064353D01*
X135710395Y-76200000D01*
X136069605Y-76200000D01*
X136933958Y-77064353D01*
X137185259Y-76984080D01*
X137295954Y-76678929D01*
X137386408Y-76897306D01*
X137732694Y-77243592D01*
X138185139Y-77431000D01*
X138674861Y-77431000D01*
X139127306Y-77243592D01*
X139473592Y-76897306D01*
X139661000Y-76444861D01*
X139661000Y-75955139D01*
X139473592Y-75502694D01*
X139127306Y-75156408D01*
X138674861Y-74969000D01*
X138185139Y-74969000D01*
X137732694Y-75156408D01*
X137386408Y-75502694D01*
X137303805Y-75702116D01*
X137185259Y-75415920D01*
X136933958Y-75335647D01*
X136069605Y-76200000D01*
X135710395Y-76200000D01*
X134846042Y-75335647D01*
X134594741Y-75415920D01*
X134488440Y-75708960D01*
X134403002Y-75502694D01*
X134056716Y-75156408D01*
X133604271Y-74969000D01*
X133114549Y-74969000D01*
X132662104Y-75156408D01*
X132315818Y-75502694D01*
X132128410Y-75955139D01*
X117922356Y-75955139D01*
X117869588Y-75876167D01*
X117869586Y-75876165D01*
X117841247Y-75833753D01*
X117798836Y-75805415D01*
X114344420Y-72351000D01*
X114544861Y-72351000D01*
X114997306Y-72163592D01*
X115343592Y-71817306D01*
X115531000Y-71364861D01*
X115531000Y-70875139D01*
X115343592Y-70422694D01*
X114997306Y-70076408D01*
X114871500Y-70024298D01*
X114871500Y-66890000D01*
X114929239Y-66890000D01*
X115288312Y-66818576D01*
X115608999Y-66604300D01*
X115609000Y-70346966D01*
X115599048Y-70396999D01*
X115638474Y-70595210D01*
X115691857Y-70675104D01*
X115609000Y-70875139D01*
X115609000Y-71364861D01*
X115796408Y-71817306D01*
X116142694Y-72163592D01*
X116595139Y-72351000D01*
X117084861Y-72351000D01*
X117537306Y-72163592D01*
X117883592Y-71817306D01*
X118071000Y-71364861D01*
X118071000Y-70875139D01*
X117883592Y-70422694D01*
X117537306Y-70076408D01*
X117084861Y-69889000D01*
X116624999Y-69889000D01*
X116624999Y-66948837D01*
X116991110Y-67100476D01*
X117221000Y-66979155D01*
X117221000Y-65786000D01*
X117201000Y-65786000D01*
X117201000Y-65532000D01*
X117221000Y-65532000D01*
X117221000Y-65512000D01*
X117475000Y-65512000D01*
X117475000Y-65532000D01*
X117495000Y-65532000D01*
X117495000Y-65786000D01*
X117475000Y-65786000D01*
X117475000Y-66979155D01*
X117704890Y-67100476D01*
X118114924Y-66930645D01*
X118148999Y-66899591D01*
X118149000Y-70346966D01*
X118139048Y-70396999D01*
X118178474Y-70595210D01*
X118231857Y-70675104D01*
X118149000Y-70875139D01*
X118149000Y-71364861D01*
X118336408Y-71817306D01*
X118682694Y-72163592D01*
X119135139Y-72351000D01*
X119624861Y-72351000D01*
X120077306Y-72163592D01*
X120423592Y-71817306D01*
X120611000Y-71364861D01*
X120611000Y-70875139D01*
X120689000Y-70875139D01*
X120689000Y-71364861D01*
X120876408Y-71817306D01*
X121222694Y-72163592D01*
X121675139Y-72351000D01*
X122164861Y-72351000D01*
X122617306Y-72163592D01*
X122963592Y-71817306D01*
X123151000Y-71364861D01*
X123151000Y-70875139D01*
X123229000Y-70875139D01*
X123229000Y-71364861D01*
X123416408Y-71817306D01*
X123762694Y-72163592D01*
X124215139Y-72351000D01*
X124704861Y-72351000D01*
X125156422Y-72163958D01*
X126135647Y-72163958D01*
X126215920Y-72415259D01*
X126771279Y-72616718D01*
X127361458Y-72590315D01*
X127784080Y-72415259D01*
X127864353Y-72163958D01*
X127000000Y-71299605D01*
X126135647Y-72163958D01*
X125156422Y-72163958D01*
X125157306Y-72163592D01*
X125503592Y-71817306D01*
X125586195Y-71617884D01*
X125704741Y-71904080D01*
X125956042Y-71984353D01*
X126820395Y-71120000D01*
X127179605Y-71120000D01*
X128043958Y-71984353D01*
X128295259Y-71904080D01*
X128496718Y-71348721D01*
X128470315Y-70758542D01*
X128295259Y-70335920D01*
X128043958Y-70255647D01*
X127179605Y-71120000D01*
X126820395Y-71120000D01*
X125956042Y-70255647D01*
X125704741Y-70335920D01*
X125594046Y-70641071D01*
X125503592Y-70422694D01*
X125157306Y-70076408D01*
X125156423Y-70076042D01*
X126135647Y-70076042D01*
X127000000Y-70940395D01*
X127864353Y-70076042D01*
X127784080Y-69824741D01*
X127228721Y-69623282D01*
X126638542Y-69649685D01*
X126215920Y-69824741D01*
X126135647Y-70076042D01*
X125156423Y-70076042D01*
X124704861Y-69889000D01*
X124215139Y-69889000D01*
X123762694Y-70076408D01*
X123416408Y-70422694D01*
X123229000Y-70875139D01*
X123151000Y-70875139D01*
X122963592Y-70422694D01*
X122617306Y-70076408D01*
X122164861Y-69889000D01*
X121675139Y-69889000D01*
X121222694Y-70076408D01*
X120876408Y-70422694D01*
X120689000Y-70875139D01*
X120611000Y-70875139D01*
X120423592Y-70422694D01*
X120077306Y-70076408D01*
X119624861Y-69889000D01*
X119164999Y-69889000D01*
X119164999Y-66656416D01*
X119407688Y-66818576D01*
X119766761Y-66890000D01*
X120009239Y-66890000D01*
X120368312Y-66818576D01*
X120775501Y-66546501D01*
X121047576Y-66139312D01*
X121143116Y-65659000D01*
X121172884Y-65659000D01*
X121268424Y-66139312D01*
X121540499Y-66546501D01*
X121947688Y-66818576D01*
X122306761Y-66890000D01*
X122549239Y-66890000D01*
X122908312Y-66818576D01*
X123315501Y-66546501D01*
X123587576Y-66139312D01*
X123683116Y-65659000D01*
X123712884Y-65659000D01*
X123808424Y-66139312D01*
X124080499Y-66546501D01*
X124487688Y-66818576D01*
X124846761Y-66890000D01*
X125089239Y-66890000D01*
X125448312Y-66818576D01*
X125855501Y-66546501D01*
X126127576Y-66139312D01*
X126223116Y-65659000D01*
X126252884Y-65659000D01*
X126348424Y-66139312D01*
X126620499Y-66546501D01*
X127027688Y-66818576D01*
X127386761Y-66890000D01*
X127629239Y-66890000D01*
X127988312Y-66818576D01*
X128395501Y-66546501D01*
X128667576Y-66139312D01*
X128763116Y-65659000D01*
X128792884Y-65659000D01*
X128888424Y-66139312D01*
X129160499Y-66546501D01*
X129567688Y-66818576D01*
X129926761Y-66890000D01*
X130169239Y-66890000D01*
X130528312Y-66818576D01*
X130935501Y-66546501D01*
X131207576Y-66139312D01*
X131303116Y-65659000D01*
X131207576Y-65178688D01*
X130935501Y-64771499D01*
X130528312Y-64499424D01*
X130169239Y-64428000D01*
X129926761Y-64428000D01*
X129567688Y-64499424D01*
X129160499Y-64771499D01*
X128888424Y-65178688D01*
X128792884Y-65659000D01*
X128763116Y-65659000D01*
X128667576Y-65178688D01*
X128395501Y-64771499D01*
X127988312Y-64499424D01*
X127978767Y-64497525D01*
X128274924Y-64390645D01*
X128352158Y-64142763D01*
X127508000Y-63298605D01*
X126664312Y-64142293D01*
X126741082Y-64390637D01*
X127018508Y-64505558D01*
X126620499Y-64771499D01*
X126348424Y-65178688D01*
X126252884Y-65659000D01*
X126223116Y-65659000D01*
X126127576Y-65178688D01*
X125855501Y-64771499D01*
X125448312Y-64499424D01*
X125089239Y-64428000D01*
X124846761Y-64428000D01*
X124487688Y-64499424D01*
X124080499Y-64771499D01*
X123808424Y-65178688D01*
X123712884Y-65659000D01*
X123683116Y-65659000D01*
X123587576Y-65178688D01*
X123315501Y-64771499D01*
X122908312Y-64499424D01*
X122898767Y-64497525D01*
X123194924Y-64390645D01*
X123272158Y-64142763D01*
X122428000Y-63298605D01*
X121584312Y-64142293D01*
X121661082Y-64390637D01*
X121938508Y-64505558D01*
X121540499Y-64771499D01*
X121268424Y-65178688D01*
X121172884Y-65659000D01*
X121143116Y-65659000D01*
X121047576Y-65178688D01*
X120775501Y-64771499D01*
X120368312Y-64499424D01*
X120009239Y-64428000D01*
X119766761Y-64428000D01*
X119407688Y-64499424D01*
X119164999Y-64661584D01*
X119164999Y-64478026D01*
X119174950Y-64427998D01*
X119164999Y-64377968D01*
X119164999Y-64377967D01*
X119135524Y-64229787D01*
X119108381Y-64189165D01*
X119051587Y-64104166D01*
X119051585Y-64104164D01*
X119023246Y-64061752D01*
X118980835Y-64033414D01*
X118514073Y-63566652D01*
X118603116Y-63119000D01*
X118632884Y-63119000D01*
X118728424Y-63599312D01*
X119000499Y-64006501D01*
X119407688Y-64278576D01*
X119766761Y-64350000D01*
X120009239Y-64350000D01*
X120368312Y-64278576D01*
X120775501Y-64006501D01*
X121041442Y-63608492D01*
X121156363Y-63885918D01*
X121404707Y-63962688D01*
X122248395Y-63119000D01*
X122607605Y-63119000D01*
X123451763Y-63963158D01*
X123699645Y-63885924D01*
X123806525Y-63589767D01*
X123808424Y-63599312D01*
X124080499Y-64006501D01*
X124487688Y-64278576D01*
X124846761Y-64350000D01*
X125089239Y-64350000D01*
X125448312Y-64278576D01*
X125855501Y-64006501D01*
X126121442Y-63608492D01*
X126236363Y-63885918D01*
X126484707Y-63962688D01*
X127328395Y-63119000D01*
X127687605Y-63119000D01*
X128531763Y-63963158D01*
X128779645Y-63885924D01*
X128886525Y-63589767D01*
X128888424Y-63599312D01*
X129160499Y-64006501D01*
X129567688Y-64278576D01*
X129926761Y-64350000D01*
X130169239Y-64350000D01*
X130528312Y-64278576D01*
X130935501Y-64006501D01*
X131207576Y-63599312D01*
X131303116Y-63119000D01*
X131207576Y-62638688D01*
X130935501Y-62231499D01*
X130528312Y-61959424D01*
X130169239Y-61888000D01*
X129926761Y-61888000D01*
X129567688Y-61959424D01*
X129160499Y-62231499D01*
X128894558Y-62629508D01*
X128779637Y-62352082D01*
X128531293Y-62275312D01*
X127687605Y-63119000D01*
X127328395Y-63119000D01*
X126484237Y-62274842D01*
X126236355Y-62352076D01*
X126129475Y-62648233D01*
X126127576Y-62638688D01*
X125855501Y-62231499D01*
X125448312Y-61959424D01*
X125089239Y-61888000D01*
X124846761Y-61888000D01*
X124487688Y-61959424D01*
X124080499Y-62231499D01*
X123814558Y-62629508D01*
X123699637Y-62352082D01*
X123451293Y-62275312D01*
X122607605Y-63119000D01*
X122248395Y-63119000D01*
X121404237Y-62274842D01*
X121156355Y-62352076D01*
X121049475Y-62648233D01*
X121047576Y-62638688D01*
X120775501Y-62231499D01*
X120368312Y-61959424D01*
X120009239Y-61888000D01*
X119766761Y-61888000D01*
X119407688Y-61959424D01*
X119000499Y-62231499D01*
X118728424Y-62638688D01*
X118632884Y-63119000D01*
X118603116Y-63119000D01*
X118507576Y-62638688D01*
X118235501Y-62231499D01*
X117828312Y-61959424D01*
X117469239Y-61888000D01*
X117226761Y-61888000D01*
X116867688Y-61959424D01*
X116460499Y-62231499D01*
X116188424Y-62638688D01*
X116092884Y-63119000D01*
X116188424Y-63599312D01*
X116460499Y-64006501D01*
X116858512Y-64272445D01*
X116581076Y-64387355D01*
X116317167Y-64627864D01*
X115695622Y-64006320D01*
X115967576Y-63599312D01*
X116063116Y-63119000D01*
X115967576Y-62638688D01*
X115695501Y-62231499D01*
X115288312Y-61959424D01*
X114929239Y-61888000D01*
X114686761Y-61888000D01*
X114327688Y-61959424D01*
X113920499Y-62231499D01*
X113648424Y-62638688D01*
X113552884Y-63119000D01*
X113648424Y-63599312D01*
X113920499Y-64006501D01*
X114327688Y-64278576D01*
X114581530Y-64329068D01*
X114681507Y-64429045D01*
X114327688Y-64499424D01*
X114007001Y-64713700D01*
X114007001Y-64400028D01*
X114016952Y-64350000D01*
X114007001Y-64299970D01*
X114007001Y-64299969D01*
X113977526Y-64151789D01*
X113865248Y-63983754D01*
X113822833Y-63955413D01*
X113434072Y-63566652D01*
X113523116Y-63119000D01*
X113427576Y-62638688D01*
X113155501Y-62231499D01*
X112748312Y-61959424D01*
X112389239Y-61888000D01*
X112146761Y-61888000D01*
X111787688Y-61959424D01*
X111380499Y-62231499D01*
X111114558Y-62629508D01*
X110999637Y-62352082D01*
X110751293Y-62275312D01*
X109907605Y-63119000D01*
X110751763Y-63963158D01*
X110999645Y-63885924D01*
X111106525Y-63589767D01*
X111108424Y-63599312D01*
X111380499Y-64006501D01*
X111787688Y-64278576D01*
X112146761Y-64350000D01*
X112389239Y-64350000D01*
X112715652Y-64285072D01*
X112991002Y-64560422D01*
X112991002Y-64661584D01*
X112748312Y-64499424D01*
X112389239Y-64428000D01*
X112146761Y-64428000D01*
X111787688Y-64499424D01*
X111380499Y-64771499D01*
X111108424Y-65178688D01*
X111012884Y-65659000D01*
X111108424Y-66139312D01*
X111188501Y-66259156D01*
X111188500Y-70024298D01*
X111062694Y-70076408D01*
X110716408Y-70422694D01*
X110529000Y-70875139D01*
X110529000Y-71364861D01*
X110716408Y-71817306D01*
X110908092Y-72008990D01*
X110071908Y-72008990D01*
X110263592Y-71817306D01*
X110451000Y-71364861D01*
X110451000Y-70875139D01*
X110263592Y-70422694D01*
X109917306Y-70076408D01*
X109791500Y-70024298D01*
X109791500Y-66890000D01*
X109849239Y-66890000D01*
X110208312Y-66818576D01*
X110615501Y-66546501D01*
X110887576Y-66139312D01*
X110983116Y-65659000D01*
X110887576Y-65178688D01*
X110615501Y-64771499D01*
X110208312Y-64499424D01*
X110198767Y-64497525D01*
X110494924Y-64390645D01*
X110572158Y-64142763D01*
X109728000Y-63298605D01*
X109713858Y-63312748D01*
X109534253Y-63133143D01*
X109548395Y-63119000D01*
X108704237Y-62274842D01*
X108456355Y-62352076D01*
X108349475Y-62648233D01*
X108347576Y-62638688D01*
X108075501Y-62231499D01*
X107668312Y-61959424D01*
X107309239Y-61888000D01*
X107066761Y-61888000D01*
X106707688Y-61959424D01*
X106300499Y-62231499D01*
X106028424Y-62638688D01*
X105932884Y-63119000D01*
X106028424Y-63599312D01*
X106300499Y-64006501D01*
X106707688Y-64278576D01*
X107066761Y-64350000D01*
X107309239Y-64350000D01*
X107635652Y-64285072D01*
X107911001Y-64560421D01*
X107911001Y-64661584D01*
X107668312Y-64499424D01*
X107309239Y-64428000D01*
X107066761Y-64428000D01*
X106707688Y-64499424D01*
X106387001Y-64713700D01*
X106387001Y-64400028D01*
X106396952Y-64350000D01*
X106387001Y-64299970D01*
X106387001Y-64299969D01*
X106357526Y-64151789D01*
X106245248Y-63983754D01*
X106202834Y-63955414D01*
X105814072Y-63566652D01*
X105903116Y-63119000D01*
X105807576Y-62638688D01*
X105535501Y-62231499D01*
X105128312Y-61959424D01*
X104769239Y-61888000D01*
X104526761Y-61888000D01*
X104167688Y-61959424D01*
X103760499Y-62231499D01*
X103494558Y-62629508D01*
X103379637Y-62352082D01*
X103131293Y-62275312D01*
X102287605Y-63119000D01*
X103131763Y-63963158D01*
X103379645Y-63885924D01*
X103486525Y-63589767D01*
X103488424Y-63599312D01*
X103760499Y-64006501D01*
X104167688Y-64278576D01*
X104526761Y-64350000D01*
X104769239Y-64350000D01*
X105095652Y-64285072D01*
X105371001Y-64560421D01*
X105371001Y-64661584D01*
X105128312Y-64499424D01*
X104769239Y-64428000D01*
X104526761Y-64428000D01*
X104167688Y-64499424D01*
X103760499Y-64771499D01*
X103488424Y-65178688D01*
X103392884Y-65659000D01*
X103481928Y-66106652D01*
X102616000Y-66972580D01*
X102616000Y-66800075D01*
X102995501Y-66546501D01*
X103267576Y-66139312D01*
X103363116Y-65659000D01*
X103267576Y-65178688D01*
X102995501Y-64771499D01*
X102588312Y-64499424D01*
X102578767Y-64497525D01*
X102874924Y-64390645D01*
X102952158Y-64142763D01*
X102108000Y-63298605D01*
X101264312Y-64142293D01*
X101341082Y-64390637D01*
X101618508Y-64505558D01*
X101223412Y-64769553D01*
X101204247Y-64740871D01*
X101161835Y-64712532D01*
X100455622Y-64006320D01*
X100721442Y-63608492D01*
X100836363Y-63885918D01*
X101084707Y-63962688D01*
X101928395Y-63119000D01*
X101084237Y-62274842D01*
X100836355Y-62352076D01*
X100729475Y-62648233D01*
X100727576Y-62638688D01*
X100455501Y-62231499D01*
X100048312Y-61959424D01*
X99689239Y-61888000D01*
X99446761Y-61888000D01*
X99087688Y-61959424D01*
X98680499Y-62231499D01*
X98408424Y-62638688D01*
X98312884Y-63119000D01*
X98408424Y-63599312D01*
X98680499Y-64006501D01*
X99087688Y-64278576D01*
X99341530Y-64329068D01*
X99441507Y-64429045D01*
X99087688Y-64499424D01*
X98680499Y-64771499D01*
X98414558Y-65169508D01*
X98299637Y-64892082D01*
X98051293Y-64815312D01*
X97207605Y-65659000D01*
X96848395Y-65659000D01*
X96004237Y-64814842D01*
X95756355Y-64892076D01*
X95649475Y-65188233D01*
X95647576Y-65178688D01*
X95375501Y-64771499D01*
X94968312Y-64499424D01*
X94609239Y-64428000D01*
X94366761Y-64428000D01*
X94040348Y-64492928D01*
X93764999Y-64217579D01*
X93764999Y-64116416D01*
X94007688Y-64278576D01*
X94366761Y-64350000D01*
X94609239Y-64350000D01*
X94968312Y-64278576D01*
X95375501Y-64006501D01*
X95647576Y-63599312D01*
X95743116Y-63119000D01*
X95772884Y-63119000D01*
X95868424Y-63599312D01*
X96140499Y-64006501D01*
X96547688Y-64278576D01*
X96557233Y-64280475D01*
X96261076Y-64387355D01*
X96183842Y-64635237D01*
X97028000Y-65479395D01*
X97871688Y-64635707D01*
X97794918Y-64387363D01*
X97517492Y-64272442D01*
X97915501Y-64006501D01*
X98187576Y-63599312D01*
X98283116Y-63119000D01*
X98187576Y-62638688D01*
X97915501Y-62231499D01*
X97508312Y-61959424D01*
X97149239Y-61888000D01*
X96906761Y-61888000D01*
X96547688Y-61959424D01*
X96140499Y-62231499D01*
X95868424Y-62638688D01*
X95772884Y-63119000D01*
X95743116Y-63119000D01*
X95647576Y-62638688D01*
X95375501Y-62231499D01*
X94968312Y-61959424D01*
X94609239Y-61888000D01*
X94405421Y-61888000D01*
X94571421Y-61722000D01*
X101688425Y-61722000D01*
X101341076Y-61847355D01*
X101263842Y-62095237D01*
X102108000Y-62939395D01*
X102951688Y-62095707D01*
X102874918Y-61847363D01*
X102572284Y-61722000D01*
X109308425Y-61722000D01*
X108961076Y-61847355D01*
X108883842Y-62095237D01*
X109728000Y-62939395D01*
X110571688Y-62095707D01*
X110494918Y-61847363D01*
X110192284Y-61722000D01*
X122008425Y-61722000D01*
X121661076Y-61847355D01*
X121583842Y-62095237D01*
X122428000Y-62939395D01*
X123271688Y-62095707D01*
X123194918Y-61847363D01*
X122892284Y-61722000D01*
X127088425Y-61722000D01*
X126741076Y-61847355D01*
X126663842Y-62095237D01*
X127508000Y-62939395D01*
X128351688Y-62095707D01*
X128274918Y-61847363D01*
X127972284Y-61722000D01*
X132758580Y-61722000D01*
X132978049Y-61941470D01*
X132709239Y-61888000D01*
X132466761Y-61888000D01*
X132107688Y-61959424D01*
X131700499Y-62231499D01*
X131428424Y-62638688D01*
X131332884Y-63119000D01*
X131428424Y-63599312D01*
X131700499Y-64006501D01*
X132107688Y-64278576D01*
X132466761Y-64350000D01*
X132709239Y-64350000D01*
X133068312Y-64278576D01*
X133350000Y-64090358D01*
X133350000Y-64687642D01*
X133068312Y-64499424D01*
X132709239Y-64428000D01*
X132466761Y-64428000D01*
X132107688Y-64499424D01*
X131700499Y-64771499D01*
X131428424Y-65178688D01*
X131332884Y-65659000D01*
X131428424Y-66139312D01*
X131700499Y-66546501D01*
X132107688Y-66818576D01*
X132466761Y-66890000D01*
X132709239Y-66890000D01*
X133068312Y-66818576D01*
X133350000Y-66630358D01*
X133350001Y-72429000D01*
X133114549Y-72429000D01*
X132662104Y-72616408D01*
X132315818Y-72962694D01*
X132128410Y-73415139D01*
X132128410Y-73904861D01*
X132315818Y-74357306D01*
X132662104Y-74703592D01*
X133114549Y-74891000D01*
X133604271Y-74891000D01*
X134055832Y-74703958D01*
X135025647Y-74703958D01*
X135097852Y-74930000D01*
X135025647Y-75156042D01*
X135890000Y-76020395D01*
X136754353Y-75156042D01*
X136682148Y-74930000D01*
X136754353Y-74703958D01*
X135890000Y-73839605D01*
X135025647Y-74703958D01*
X134055832Y-74703958D01*
X134056716Y-74703592D01*
X134403002Y-74357306D01*
X134480900Y-74169243D01*
X134594741Y-74444080D01*
X134846042Y-74524353D01*
X135710395Y-73660000D01*
X136069605Y-73660000D01*
X136933958Y-74524353D01*
X137185259Y-74444080D01*
X137295954Y-74138929D01*
X137386408Y-74357306D01*
X137732694Y-74703592D01*
X138185139Y-74891000D01*
X138674861Y-74891000D01*
X139127306Y-74703592D01*
X139473592Y-74357306D01*
X139661000Y-73904861D01*
X139661000Y-73415139D01*
X139473592Y-72962694D01*
X139127306Y-72616408D01*
X138674861Y-72429000D01*
X138185139Y-72429000D01*
X137732694Y-72616408D01*
X137386408Y-72962694D01*
X137303805Y-73162116D01*
X137185259Y-72875920D01*
X136933958Y-72795647D01*
X136069605Y-73660000D01*
X135710395Y-73660000D01*
X134846042Y-72795647D01*
X134594741Y-72875920D01*
X134488440Y-73168960D01*
X134403002Y-72962694D01*
X134366000Y-72925692D01*
X134366000Y-72616042D01*
X135025647Y-72616042D01*
X135890000Y-73480395D01*
X136754353Y-72616042D01*
X136674080Y-72364741D01*
X136118721Y-72163282D01*
X135528542Y-72189685D01*
X135105920Y-72364741D01*
X135025647Y-72616042D01*
X134366000Y-72616042D01*
X134366000Y-66932674D01*
X134771108Y-67100486D01*
X135349908Y-67127336D01*
X135894924Y-66930645D01*
X135972158Y-66682763D01*
X135128000Y-65838605D01*
X135113858Y-65852748D01*
X134934253Y-65673143D01*
X134948395Y-65659000D01*
X135307605Y-65659000D01*
X136151763Y-66503158D01*
X136399645Y-66425924D01*
X136596336Y-65880908D01*
X136569486Y-65302108D01*
X136399637Y-64892082D01*
X136151293Y-64815312D01*
X135307605Y-65659000D01*
X134948395Y-65659000D01*
X134934253Y-65644858D01*
X135113858Y-65465253D01*
X135128000Y-65479395D01*
X135971688Y-64635707D01*
X135894918Y-64387363D01*
X135617492Y-64272442D01*
X136015501Y-64006501D01*
X136182257Y-63756933D01*
X137159000Y-63756933D01*
X137159000Y-64903067D01*
X137597606Y-65961955D01*
X138408045Y-66772394D01*
X139466933Y-67211000D01*
X140613067Y-67211000D01*
X141671955Y-66772394D01*
X142482394Y-65961955D01*
X142921000Y-64903067D01*
X142921000Y-63756933D01*
X142482394Y-62698045D01*
X141671955Y-61887606D01*
X140613067Y-61449000D01*
X139466933Y-61449000D01*
X138408045Y-61887606D01*
X137597606Y-62698045D01*
X137159000Y-63756933D01*
X136182257Y-63756933D01*
X136287576Y-63599312D01*
X136383116Y-63119000D01*
X136287576Y-62638688D01*
X136015501Y-62231499D01*
X135608312Y-61959424D01*
X135249239Y-61888000D01*
X135006761Y-61888000D01*
X134647688Y-61959424D01*
X134367236Y-62146816D01*
X134375951Y-62103000D01*
X134366000Y-62052972D01*
X134366000Y-62052968D01*
X134336525Y-61904788D01*
X134252588Y-61779167D01*
X134252586Y-61779165D01*
X134224247Y-61736753D01*
X134181835Y-61708415D01*
X133668031Y-61194611D01*
X140524450Y-61194611D01*
X141149193Y-61267448D01*
X141719684Y-61474528D01*
X142227241Y-61807296D01*
X142644630Y-62247903D01*
X142949463Y-62772711D01*
X143126885Y-63358511D01*
X143169357Y-63834406D01*
X143169356Y-113800571D01*
X143095462Y-114424894D01*
X142887386Y-114995029D01*
X142553733Y-115502002D01*
X142112398Y-115918623D01*
X141587060Y-116222537D01*
X141000798Y-116398983D01*
X140529726Y-116440611D01*
X81568262Y-116440611D01*
X80943520Y-116367774D01*
X80373031Y-116160697D01*
X79865469Y-115827924D01*
X79448083Y-115387322D01*
X79143249Y-114862511D01*
X78965829Y-114276715D01*
X78923356Y-113800826D01*
X78923356Y-112746933D01*
X79159000Y-112746933D01*
X79159000Y-113893067D01*
X79597606Y-114951955D01*
X80408045Y-115762394D01*
X81466933Y-116201000D01*
X82613067Y-116201000D01*
X83671955Y-115762394D01*
X84482394Y-114951955D01*
X84921000Y-113893067D01*
X84921000Y-112746933D01*
X84916858Y-112736933D01*
X137149000Y-112736933D01*
X137149000Y-113883067D01*
X137587606Y-114941955D01*
X138398045Y-115752394D01*
X139456933Y-116191000D01*
X140603067Y-116191000D01*
X141661955Y-115752394D01*
X142472394Y-114941955D01*
X142911000Y-113883067D01*
X142911000Y-112736933D01*
X142472394Y-111678045D01*
X141661955Y-110867606D01*
X140603067Y-110429000D01*
X139456933Y-110429000D01*
X138398045Y-110867606D01*
X137587606Y-111678045D01*
X137149000Y-112736933D01*
X84916858Y-112736933D01*
X84482394Y-111688045D01*
X83671955Y-110877606D01*
X82613067Y-110439000D01*
X81466933Y-110439000D01*
X80408045Y-110877606D01*
X79597606Y-111688045D01*
X79159000Y-112746933D01*
X78923356Y-112746933D01*
X78923356Y-103805193D01*
X81269000Y-103805193D01*
X81269000Y-104314807D01*
X81464021Y-104785628D01*
X81824372Y-105145979D01*
X82295193Y-105341000D01*
X82804807Y-105341000D01*
X83275628Y-105145979D01*
X83635979Y-104785628D01*
X83831000Y-104314807D01*
X83831000Y-103805193D01*
X83635979Y-103334372D01*
X83275628Y-102974021D01*
X82804807Y-102779000D01*
X82295193Y-102779000D01*
X81824372Y-102974021D01*
X81464021Y-103334372D01*
X81269000Y-103805193D01*
X78923356Y-103805193D01*
X78923356Y-98805193D01*
X81269000Y-98805193D01*
X81269000Y-99314807D01*
X81464021Y-99785628D01*
X81824372Y-100145979D01*
X82295193Y-100341000D01*
X82804807Y-100341000D01*
X83275628Y-100145979D01*
X83635979Y-99785628D01*
X83831000Y-99314807D01*
X83831000Y-98805193D01*
X83635979Y-98334372D01*
X83275628Y-97974021D01*
X82804807Y-97779000D01*
X82295193Y-97779000D01*
X81824372Y-97974021D01*
X81464021Y-98334372D01*
X81269000Y-98805193D01*
X78923356Y-98805193D01*
X78923356Y-90986281D01*
X84079000Y-90986281D01*
X84079000Y-91893719D01*
X84426262Y-92732082D01*
X85067918Y-93373738D01*
X85906281Y-93721000D01*
X86813719Y-93721000D01*
X87652082Y-93373738D01*
X88293738Y-92732082D01*
X88641000Y-91893719D01*
X88641000Y-90986281D01*
X88293738Y-90147918D01*
X87652082Y-89506262D01*
X86813719Y-89159000D01*
X85906281Y-89159000D01*
X85067918Y-89506262D01*
X84426262Y-90147918D01*
X84079000Y-90986281D01*
X78923356Y-90986281D01*
X78923356Y-88260000D01*
X90857305Y-88260000D01*
X90868501Y-88316286D01*
X90868500Y-91383719D01*
X90857305Y-91440000D01*
X90868500Y-91496281D01*
X90868500Y-91496285D01*
X90901659Y-91662987D01*
X91027972Y-91852028D01*
X91075691Y-91883913D01*
X91884501Y-92692724D01*
X91884500Y-102021873D01*
X91863841Y-102042532D01*
X91757500Y-102299260D01*
X91757500Y-102577140D01*
X91863841Y-102833868D01*
X92060332Y-103030359D01*
X92317060Y-103136700D01*
X92594940Y-103136700D01*
X92851668Y-103030359D01*
X93048159Y-102833868D01*
X93154500Y-102577140D01*
X93154500Y-102299260D01*
X93048159Y-102042532D01*
X93027500Y-102021873D01*
X93027500Y-100605722D01*
X93281500Y-100859723D01*
X93281500Y-100888940D01*
X93387841Y-101145668D01*
X93584332Y-101342159D01*
X93841060Y-101448500D01*
X94118940Y-101448500D01*
X94375668Y-101342159D01*
X94572159Y-101145668D01*
X94678500Y-100888940D01*
X94678500Y-100611060D01*
X94572159Y-100354332D01*
X94375668Y-100157841D01*
X94118940Y-100051500D01*
X94089723Y-100051500D01*
X93662510Y-99624288D01*
X93662510Y-92565712D01*
X94344312Y-91883911D01*
X94392028Y-91852028D01*
X94433040Y-91790649D01*
X94518341Y-91662989D01*
X94526970Y-91619605D01*
X94551500Y-91496286D01*
X94551500Y-91496283D01*
X94562695Y-91440000D01*
X94551500Y-91383718D01*
X94551500Y-89494043D01*
X95042302Y-89669144D01*
X95597368Y-89641362D01*
X95981143Y-89482397D01*
X96050608Y-89240213D01*
X95250000Y-88439605D01*
X95235858Y-88453748D01*
X95056253Y-88274143D01*
X95070395Y-88260000D01*
X95429605Y-88260000D01*
X96230213Y-89060608D01*
X96472397Y-88991143D01*
X96659144Y-88467698D01*
X96631362Y-87912632D01*
X96472397Y-87528857D01*
X96230213Y-87459392D01*
X95429605Y-88260000D01*
X95070395Y-88260000D01*
X95056253Y-88245858D01*
X95235858Y-88066253D01*
X95250000Y-88080395D01*
X96050608Y-87279787D01*
X95981143Y-87037603D01*
X95484011Y-86860244D01*
X95897458Y-86688989D01*
X96218989Y-86367458D01*
X96393000Y-85947357D01*
X96393000Y-85492643D01*
X96218989Y-85072542D01*
X95897458Y-84751011D01*
X95477357Y-84577000D01*
X95022643Y-84577000D01*
X94602542Y-84751011D01*
X94281011Y-85072542D01*
X94107000Y-85492643D01*
X94107000Y-85947357D01*
X94138463Y-86023315D01*
X93720066Y-86441712D01*
X93678989Y-86342542D01*
X93357458Y-86021011D01*
X92937357Y-85847000D01*
X92744931Y-85847000D01*
X93057368Y-85831362D01*
X93441143Y-85672397D01*
X93510608Y-85430213D01*
X92710000Y-84629605D01*
X91909392Y-85430213D01*
X91978857Y-85672397D01*
X92475989Y-85849756D01*
X92062542Y-86021011D01*
X91741011Y-86342542D01*
X91567000Y-86762643D01*
X91567000Y-87217357D01*
X91598463Y-87293315D01*
X91075689Y-87816089D01*
X91027973Y-87847972D01*
X90996090Y-87895688D01*
X90996089Y-87895689D01*
X90901660Y-88037012D01*
X90857305Y-88260000D01*
X78923356Y-88260000D01*
X78923356Y-84242302D01*
X91300856Y-84242302D01*
X91328638Y-84797368D01*
X91487603Y-85181143D01*
X91729787Y-85250608D01*
X92530395Y-84450000D01*
X92889605Y-84450000D01*
X93690213Y-85250608D01*
X93932397Y-85181143D01*
X94119144Y-84657698D01*
X94091362Y-84102632D01*
X93932397Y-83718857D01*
X93690213Y-83649392D01*
X92889605Y-84450000D01*
X92530395Y-84450000D01*
X91729787Y-83649392D01*
X91487603Y-83718857D01*
X91300856Y-84242302D01*
X78923356Y-84242302D01*
X78923356Y-80826281D01*
X84079000Y-80826281D01*
X84079000Y-81733719D01*
X84426262Y-82572082D01*
X85067918Y-83213738D01*
X85906281Y-83561000D01*
X86813719Y-83561000D01*
X87033926Y-83469787D01*
X91909392Y-83469787D01*
X92710000Y-84270395D01*
X93510608Y-83469787D01*
X93441143Y-83227603D01*
X92917698Y-83040856D01*
X92362632Y-83068638D01*
X91978857Y-83227603D01*
X91909392Y-83469787D01*
X87033926Y-83469787D01*
X87652082Y-83213738D01*
X87913177Y-82952643D01*
X94107000Y-82952643D01*
X94107000Y-83407357D01*
X94281011Y-83827458D01*
X94602542Y-84148989D01*
X95022643Y-84323000D01*
X95477357Y-84323000D01*
X95897458Y-84148989D01*
X96218989Y-83827458D01*
X96393000Y-83407357D01*
X96393000Y-82952643D01*
X96218989Y-82532542D01*
X95897458Y-82211011D01*
X95477357Y-82037000D01*
X95022643Y-82037000D01*
X94602542Y-82211011D01*
X94281011Y-82532542D01*
X94107000Y-82952643D01*
X87913177Y-82952643D01*
X88293738Y-82572082D01*
X88641000Y-81733719D01*
X88641000Y-80826281D01*
X88293738Y-79987918D01*
X87652082Y-79346262D01*
X86813719Y-78999000D01*
X85906281Y-78999000D01*
X85067918Y-79346262D01*
X84426262Y-79987918D01*
X84079000Y-80826281D01*
X78923356Y-80826281D01*
X78923356Y-63839517D01*
X78934428Y-63744544D01*
X79165356Y-63744544D01*
X79165356Y-64890678D01*
X79603962Y-65949566D01*
X80414401Y-66760005D01*
X81473289Y-67198611D01*
X82619423Y-67198611D01*
X83678311Y-66760005D01*
X84488750Y-65949566D01*
X84927356Y-64890678D01*
X84927356Y-64809000D01*
X85629536Y-64809000D01*
X85629536Y-66509000D01*
X85659106Y-66657659D01*
X85743314Y-66783686D01*
X85869341Y-66867894D01*
X86018000Y-66897464D01*
X87718000Y-66897464D01*
X87866659Y-66867894D01*
X87992686Y-66783686D01*
X88076894Y-66657659D01*
X88106464Y-66509000D01*
X88106464Y-64809000D01*
X88076894Y-64660341D01*
X87992686Y-64534314D01*
X87866659Y-64450106D01*
X87718000Y-64420536D01*
X86018000Y-64420536D01*
X85869341Y-64450106D01*
X85743314Y-64534314D01*
X85659106Y-64660341D01*
X85629536Y-64809000D01*
X84927356Y-64809000D01*
X84927356Y-63744544D01*
X84668248Y-63119000D01*
X85612884Y-63119000D01*
X85708424Y-63599312D01*
X85980499Y-64006501D01*
X86387688Y-64278576D01*
X86746761Y-64350000D01*
X86989239Y-64350000D01*
X87348312Y-64278576D01*
X87755501Y-64006501D01*
X88027576Y-63599312D01*
X88123116Y-63119000D01*
X88152884Y-63119000D01*
X88248424Y-63599312D01*
X88520499Y-64006501D01*
X88927688Y-64278576D01*
X89286761Y-64350000D01*
X89529239Y-64350000D01*
X89888312Y-64278576D01*
X90295501Y-64006501D01*
X90561442Y-63608492D01*
X90676363Y-63885918D01*
X90924707Y-63962688D01*
X91768395Y-63119000D01*
X90924237Y-62274842D01*
X90676355Y-62352076D01*
X90569475Y-62648233D01*
X90567576Y-62638688D01*
X90295501Y-62231499D01*
X89888312Y-61959424D01*
X89529239Y-61888000D01*
X89286761Y-61888000D01*
X88927688Y-61959424D01*
X88520499Y-62231499D01*
X88248424Y-62638688D01*
X88152884Y-63119000D01*
X88123116Y-63119000D01*
X88027576Y-62638688D01*
X87755501Y-62231499D01*
X87348312Y-61959424D01*
X86989239Y-61888000D01*
X86746761Y-61888000D01*
X86387688Y-61959424D01*
X85980499Y-62231499D01*
X85708424Y-62638688D01*
X85612884Y-63119000D01*
X84668248Y-63119000D01*
X84488750Y-62685656D01*
X83678311Y-61875217D01*
X82619423Y-61436611D01*
X81473289Y-61436611D01*
X80414401Y-61875217D01*
X79603962Y-62685656D01*
X79165356Y-63744544D01*
X78934428Y-63744544D01*
X78996193Y-63214774D01*
X79203273Y-62644283D01*
X79536041Y-62136726D01*
X79976648Y-61719337D01*
X80501456Y-61414504D01*
X81087256Y-61237082D01*
X81563140Y-61194611D01*
X93661968Y-61194611D01*
X92933165Y-61923415D01*
M02*
