G04 #@! TF.FileFunction,Legend,Top*
%FSLAX46Y46*%
G04 Gerber Fmt 4.6, Leading zero omitted, Abs format (unit mm)*
G04 Created by KiCad (PCBNEW 4.0.2-stable) date 9/14/2021 9:27:19 PM*
%MOMM*%
G01*
G04 APERTURE LIST*
%ADD10C,0.100000*%
%ADD11C,0.300000*%
%ADD12C,0.444500*%
%ADD13C,0.381000*%
%ADD14C,0.150000*%
G04 APERTURE END LIST*
D10*
D11*
X129067858Y-92118571D02*
X129067858Y-90618571D01*
X129639286Y-90618571D01*
X129782144Y-90690000D01*
X129853572Y-90761429D01*
X129925001Y-90904286D01*
X129925001Y-91118571D01*
X129853572Y-91261429D01*
X129782144Y-91332857D01*
X129639286Y-91404286D01*
X129067858Y-91404286D01*
X130853572Y-90618571D02*
X130996429Y-90618571D01*
X131139286Y-90690000D01*
X131210715Y-90761429D01*
X131282144Y-90904286D01*
X131353572Y-91190000D01*
X131353572Y-91547143D01*
X131282144Y-91832857D01*
X131210715Y-91975714D01*
X131139286Y-92047143D01*
X130996429Y-92118571D01*
X130853572Y-92118571D01*
X130710715Y-92047143D01*
X130639286Y-91975714D01*
X130567858Y-91832857D01*
X130496429Y-91547143D01*
X130496429Y-91190000D01*
X130567858Y-90904286D01*
X130639286Y-90761429D01*
X130710715Y-90690000D01*
X130853572Y-90618571D01*
X129067858Y-89578571D02*
X129067858Y-88078571D01*
X129639286Y-88078571D01*
X129782144Y-88150000D01*
X129853572Y-88221429D01*
X129925001Y-88364286D01*
X129925001Y-88578571D01*
X129853572Y-88721429D01*
X129782144Y-88792857D01*
X129639286Y-88864286D01*
X129067858Y-88864286D01*
X131353572Y-89578571D02*
X130496429Y-89578571D01*
X130925001Y-89578571D02*
X130925001Y-88078571D01*
X130782144Y-88292857D01*
X130639286Y-88435714D01*
X130496429Y-88507143D01*
X129067858Y-87038571D02*
X129067858Y-85538571D01*
X129639286Y-85538571D01*
X129782144Y-85610000D01*
X129853572Y-85681429D01*
X129925001Y-85824286D01*
X129925001Y-86038571D01*
X129853572Y-86181429D01*
X129782144Y-86252857D01*
X129639286Y-86324286D01*
X129067858Y-86324286D01*
X130496429Y-85681429D02*
X130567858Y-85610000D01*
X130710715Y-85538571D01*
X131067858Y-85538571D01*
X131210715Y-85610000D01*
X131282144Y-85681429D01*
X131353572Y-85824286D01*
X131353572Y-85967143D01*
X131282144Y-86181429D01*
X130425001Y-87038571D01*
X131353572Y-87038571D01*
X129067858Y-84498571D02*
X129067858Y-82998571D01*
X129639286Y-82998571D01*
X129782144Y-83070000D01*
X129853572Y-83141429D01*
X129925001Y-83284286D01*
X129925001Y-83498571D01*
X129853572Y-83641429D01*
X129782144Y-83712857D01*
X129639286Y-83784286D01*
X129067858Y-83784286D01*
X130425001Y-82998571D02*
X131353572Y-82998571D01*
X130853572Y-83570000D01*
X131067858Y-83570000D01*
X131210715Y-83641429D01*
X131282144Y-83712857D01*
X131353572Y-83855714D01*
X131353572Y-84212857D01*
X131282144Y-84355714D01*
X131210715Y-84427143D01*
X131067858Y-84498571D01*
X130639286Y-84498571D01*
X130496429Y-84427143D01*
X130425001Y-84355714D01*
X129077268Y-81958571D02*
X129077268Y-80458571D01*
X129648696Y-80458571D01*
X129791554Y-80530000D01*
X129862982Y-80601429D01*
X129934411Y-80744286D01*
X129934411Y-80958571D01*
X129862982Y-81101429D01*
X129791554Y-81172857D01*
X129648696Y-81244286D01*
X129077268Y-81244286D01*
X131220125Y-80958571D02*
X131220125Y-81958571D01*
X130862982Y-80387143D02*
X130505839Y-81458571D01*
X131434411Y-81458571D01*
X129077268Y-79418571D02*
X129077268Y-77918571D01*
X129648696Y-77918571D01*
X129791554Y-77990000D01*
X129862982Y-78061429D01*
X129934411Y-78204286D01*
X129934411Y-78418571D01*
X129862982Y-78561429D01*
X129791554Y-78632857D01*
X129648696Y-78704286D01*
X129077268Y-78704286D01*
X131291554Y-77918571D02*
X130577268Y-77918571D01*
X130505839Y-78632857D01*
X130577268Y-78561429D01*
X130720125Y-78490000D01*
X131077268Y-78490000D01*
X131220125Y-78561429D01*
X131291554Y-78632857D01*
X131362982Y-78775714D01*
X131362982Y-79132857D01*
X131291554Y-79275714D01*
X131220125Y-79347143D01*
X131077268Y-79418571D01*
X130720125Y-79418571D01*
X130577268Y-79347143D01*
X130505839Y-79275714D01*
X129077268Y-76878571D02*
X129077268Y-75378571D01*
X129648696Y-75378571D01*
X129791554Y-75450000D01*
X129862982Y-75521429D01*
X129934411Y-75664286D01*
X129934411Y-75878571D01*
X129862982Y-76021429D01*
X129791554Y-76092857D01*
X129648696Y-76164286D01*
X129077268Y-76164286D01*
X131220125Y-75378571D02*
X130934411Y-75378571D01*
X130791554Y-75450000D01*
X130720125Y-75521429D01*
X130577268Y-75735714D01*
X130505839Y-76021429D01*
X130505839Y-76592857D01*
X130577268Y-76735714D01*
X130648696Y-76807143D01*
X130791554Y-76878571D01*
X131077268Y-76878571D01*
X131220125Y-76807143D01*
X131291554Y-76735714D01*
X131362982Y-76592857D01*
X131362982Y-76235714D01*
X131291554Y-76092857D01*
X131220125Y-76021429D01*
X131077268Y-75950000D01*
X130791554Y-75950000D01*
X130648696Y-76021429D01*
X130577268Y-76092857D01*
X130505839Y-76235714D01*
D12*
X107865333Y-109827483D02*
X107865333Y-108049483D01*
X107865333Y-109742817D02*
X107696000Y-109827483D01*
X107357333Y-109827483D01*
X107188000Y-109742817D01*
X107103333Y-109658150D01*
X107018667Y-109488817D01*
X107018667Y-108980817D01*
X107103333Y-108811483D01*
X107188000Y-108726817D01*
X107357333Y-108642150D01*
X107696000Y-108642150D01*
X107865333Y-108726817D01*
X109389334Y-109742817D02*
X109220000Y-109827483D01*
X108881334Y-109827483D01*
X108712000Y-109742817D01*
X108627334Y-109573483D01*
X108627334Y-108896150D01*
X108712000Y-108726817D01*
X108881334Y-108642150D01*
X109220000Y-108642150D01*
X109389334Y-108726817D01*
X109474000Y-108896150D01*
X109474000Y-109065483D01*
X108627334Y-109234817D01*
X110998000Y-109742817D02*
X110828667Y-109827483D01*
X110490000Y-109827483D01*
X110320667Y-109742817D01*
X110236000Y-109658150D01*
X110151334Y-109488817D01*
X110151334Y-108980817D01*
X110236000Y-108811483D01*
X110320667Y-108726817D01*
X110490000Y-108642150D01*
X110828667Y-108642150D01*
X110998000Y-108726817D01*
X112014000Y-109827483D02*
X111844667Y-109742817D01*
X111760000Y-109658150D01*
X111675334Y-109488817D01*
X111675334Y-108980817D01*
X111760000Y-108811483D01*
X111844667Y-108726817D01*
X112014000Y-108642150D01*
X112268000Y-108642150D01*
X112437334Y-108726817D01*
X112522000Y-108811483D01*
X112606667Y-108980817D01*
X112606667Y-109488817D01*
X112522000Y-109658150D01*
X112437334Y-109742817D01*
X112268000Y-109827483D01*
X112014000Y-109827483D01*
X115146668Y-110420150D02*
X115146668Y-107880150D01*
X117771334Y-109827483D02*
X117771334Y-108049483D01*
X118194668Y-108049483D01*
X118448668Y-108134150D01*
X118618001Y-108303483D01*
X118702668Y-108472817D01*
X118787334Y-108811483D01*
X118787334Y-109065483D01*
X118702668Y-109404150D01*
X118618001Y-109573483D01*
X118448668Y-109742817D01*
X118194668Y-109827483D01*
X117771334Y-109827483D01*
X119549334Y-109827483D02*
X119549334Y-108049483D01*
X120565334Y-109827483D01*
X120565334Y-108049483D01*
X123190002Y-110420150D02*
X123190002Y-107880150D01*
X126153335Y-108049483D02*
X126322668Y-108049483D01*
X126492002Y-108134150D01*
X126576668Y-108218817D01*
X126661335Y-108388150D01*
X126746002Y-108726817D01*
X126746002Y-109150150D01*
X126661335Y-109488817D01*
X126576668Y-109658150D01*
X126492002Y-109742817D01*
X126322668Y-109827483D01*
X126153335Y-109827483D01*
X125984002Y-109742817D01*
X125899335Y-109658150D01*
X125814668Y-109488817D01*
X125730002Y-109150150D01*
X125730002Y-108726817D01*
X125814668Y-108388150D01*
X125899335Y-108218817D01*
X125984002Y-108134150D01*
X126153335Y-108049483D01*
X128354668Y-108049483D02*
X127508001Y-108049483D01*
X127423335Y-108896150D01*
X127508001Y-108811483D01*
X127677335Y-108726817D01*
X128100668Y-108726817D01*
X128270001Y-108811483D01*
X128354668Y-108896150D01*
X128439335Y-109065483D01*
X128439335Y-109488817D01*
X128354668Y-109658150D01*
X128270001Y-109742817D01*
X128100668Y-109827483D01*
X127677335Y-109827483D01*
X127508001Y-109742817D01*
X127423335Y-109658150D01*
X130471334Y-107964817D02*
X128947334Y-110250817D01*
X130979335Y-108218817D02*
X131064001Y-108134150D01*
X131233335Y-108049483D01*
X131656668Y-108049483D01*
X131826001Y-108134150D01*
X131910668Y-108218817D01*
X131995335Y-108388150D01*
X131995335Y-108557483D01*
X131910668Y-108811483D01*
X130894668Y-109827483D01*
X131995335Y-109827483D01*
X133688668Y-109827483D02*
X132672668Y-109827483D01*
X133180668Y-109827483D02*
X133180668Y-108049483D01*
X133011334Y-108303483D01*
X132842001Y-108472817D01*
X132672668Y-108557483D01*
X108119333Y-112761183D02*
X107526667Y-111914517D01*
X107103333Y-112761183D02*
X107103333Y-110983183D01*
X107780667Y-110983183D01*
X107950000Y-111067850D01*
X108034667Y-111152517D01*
X108119333Y-111321850D01*
X108119333Y-111575850D01*
X108034667Y-111745183D01*
X107950000Y-111829850D01*
X107780667Y-111914517D01*
X107103333Y-111914517D01*
X109558667Y-112676517D02*
X109389333Y-112761183D01*
X109050667Y-112761183D01*
X108881333Y-112676517D01*
X108796667Y-112507183D01*
X108796667Y-111829850D01*
X108881333Y-111660517D01*
X109050667Y-111575850D01*
X109389333Y-111575850D01*
X109558667Y-111660517D01*
X109643333Y-111829850D01*
X109643333Y-111999183D01*
X108796667Y-112168517D01*
X110236000Y-111575850D02*
X110659333Y-112761183D01*
X111082667Y-111575850D01*
X113030001Y-112253183D02*
X113876667Y-112253183D01*
X112860667Y-112761183D02*
X113453334Y-110983183D01*
X114046001Y-112761183D01*
D11*
X129077268Y-74288221D02*
X129077268Y-72788221D01*
X129648696Y-72788221D01*
X129791554Y-72859650D01*
X129862982Y-72931079D01*
X129934411Y-73073936D01*
X129934411Y-73288221D01*
X129862982Y-73431079D01*
X129791554Y-73502507D01*
X129648696Y-73573936D01*
X129077268Y-73573936D01*
X130434411Y-72788221D02*
X131434411Y-72788221D01*
X130791554Y-74288221D01*
X141319287Y-72203571D02*
X140605001Y-72203571D01*
X140533572Y-72917857D01*
X140605001Y-72846429D01*
X140747858Y-72775000D01*
X141105001Y-72775000D01*
X141247858Y-72846429D01*
X141319287Y-72917857D01*
X141390715Y-73060714D01*
X141390715Y-73417857D01*
X141319287Y-73560714D01*
X141247858Y-73632143D01*
X141105001Y-73703571D01*
X140747858Y-73703571D01*
X140605001Y-73632143D01*
X140533572Y-73560714D01*
X141819286Y-72203571D02*
X142319286Y-73703571D01*
X142819286Y-72203571D01*
X138477858Y-93158571D02*
X139406429Y-93158571D01*
X138906429Y-93730000D01*
X139120715Y-93730000D01*
X139263572Y-93801429D01*
X139335001Y-93872857D01*
X139406429Y-94015714D01*
X139406429Y-94372857D01*
X139335001Y-94515714D01*
X139263572Y-94587143D01*
X139120715Y-94658571D01*
X138692143Y-94658571D01*
X138549286Y-94587143D01*
X138477858Y-94515714D01*
X139835000Y-93158571D02*
X140335000Y-94658571D01*
X140835000Y-93158571D01*
X141192143Y-93158571D02*
X142120714Y-93158571D01*
X141620714Y-93730000D01*
X141835000Y-93730000D01*
X141977857Y-93801429D01*
X142049286Y-93872857D01*
X142120714Y-94015714D01*
X142120714Y-94372857D01*
X142049286Y-94515714D01*
X141977857Y-94587143D01*
X141835000Y-94658571D01*
X141406428Y-94658571D01*
X141263571Y-94587143D01*
X141192143Y-94515714D01*
D13*
X135128000Y-96985666D02*
X135043333Y-97155000D01*
X135043333Y-97409000D01*
X135128000Y-97663000D01*
X135297333Y-97832333D01*
X135466667Y-97917000D01*
X135805333Y-98001666D01*
X136059333Y-98001666D01*
X136398000Y-97917000D01*
X136567333Y-97832333D01*
X136736667Y-97663000D01*
X136821333Y-97409000D01*
X136821333Y-97239666D01*
X136736667Y-96985666D01*
X136652000Y-96901000D01*
X136059333Y-96901000D01*
X136059333Y-97239666D01*
X136821333Y-96139000D02*
X135043333Y-96139000D01*
X136821333Y-95123000D01*
X135043333Y-95123000D01*
X136821333Y-94276333D02*
X135043333Y-94276333D01*
X135043333Y-93852999D01*
X135128000Y-93598999D01*
X135297333Y-93429666D01*
X135466667Y-93344999D01*
X135805333Y-93260333D01*
X136059333Y-93260333D01*
X136398000Y-93344999D01*
X136567333Y-93429666D01*
X136736667Y-93598999D01*
X136821333Y-93852999D01*
X136821333Y-94276333D01*
X133900334Y-68326000D02*
X133731000Y-68241333D01*
X133477000Y-68241333D01*
X133223000Y-68326000D01*
X133053667Y-68495333D01*
X132969000Y-68664667D01*
X132884334Y-69003333D01*
X132884334Y-69257333D01*
X132969000Y-69596000D01*
X133053667Y-69765333D01*
X133223000Y-69934667D01*
X133477000Y-70019333D01*
X133646334Y-70019333D01*
X133900334Y-69934667D01*
X133985000Y-69850000D01*
X133985000Y-69257333D01*
X133646334Y-69257333D01*
X134747000Y-70019333D02*
X134747000Y-68241333D01*
X135763000Y-70019333D01*
X135763000Y-68241333D01*
X136609667Y-70019333D02*
X136609667Y-68241333D01*
X137033001Y-68241333D01*
X137287001Y-68326000D01*
X137456334Y-68495333D01*
X137541001Y-68664667D01*
X137625667Y-69003333D01*
X137625667Y-69257333D01*
X137541001Y-69596000D01*
X137456334Y-69765333D01*
X137287001Y-69934667D01*
X137033001Y-70019333D01*
X136609667Y-70019333D01*
D10*
X78546356Y-63817611D02*
X78546356Y-113817611D01*
X78546356Y-63817611D02*
G75*
G02X81546356Y-60817611I3000000J0D01*
G01*
X140546356Y-60817611D02*
X81546356Y-60817611D01*
X140546356Y-60817611D02*
G75*
G02X143546356Y-63817611I0J-3000000D01*
G01*
X143546356Y-113817611D02*
X143546356Y-63817611D01*
X81546356Y-116817611D02*
G75*
G02X78546356Y-113817611I0J3000000D01*
G01*
X81546356Y-116817611D02*
X140546356Y-116817611D01*
X143546351Y-113822847D02*
G75*
G02X140546356Y-116817611I-2999995J5236D01*
G01*
D14*
X84949164Y-73023574D02*
X84949164Y-72223574D01*
X84949164Y-72223574D02*
X83349164Y-72223574D01*
X83349164Y-72223574D02*
X83349164Y-73023574D01*
X83349164Y-73023574D02*
X84949164Y-73023574D01*
X84949164Y-70483574D02*
X84949164Y-69683574D01*
X84949164Y-69683574D02*
X83349164Y-69683574D01*
X83349164Y-69683574D02*
X83349164Y-70483574D01*
X83349164Y-70483574D02*
X84949164Y-70483574D01*
X142852500Y-81010000D02*
X142852500Y-79010000D01*
X142852500Y-79010000D02*
X141602500Y-79010000D01*
X141602500Y-79010000D02*
X141602500Y-81010000D01*
X141602500Y-81010000D02*
X142852500Y-81010000D01*
X96631000Y-105178500D02*
X94631000Y-105178500D01*
X94631000Y-105178500D02*
X94631000Y-106428500D01*
X94631000Y-106428500D02*
X96631000Y-106428500D01*
X96631000Y-106428500D02*
X96631000Y-105178500D01*
X141627500Y-84725000D02*
X141627500Y-86725000D01*
X141627500Y-86725000D02*
X142877500Y-86725000D01*
X142877500Y-86725000D02*
X142877500Y-84725000D01*
X142877500Y-84725000D02*
X141627500Y-84725000D01*
X89557500Y-104410000D02*
X90807500Y-104410000D01*
X90807500Y-104410000D02*
X90807500Y-106410000D01*
X90807500Y-106410000D02*
X89557500Y-106410000D01*
X89557500Y-106410000D02*
X89557500Y-104410000D01*
X109623500Y-95139000D02*
X110873500Y-95139000D01*
X110873500Y-95139000D02*
X110873500Y-97139000D01*
X110873500Y-97139000D02*
X109623500Y-97139000D01*
X109623500Y-97139000D02*
X109623500Y-95139000D01*
X104785000Y-104138400D02*
X106035000Y-104138400D01*
X106035000Y-104138400D02*
X106035000Y-106138400D01*
X106035000Y-106138400D02*
X104785000Y-106138400D01*
X104785000Y-106138400D02*
X104785000Y-104138400D01*
X90782500Y-98790000D02*
X89532500Y-98790000D01*
X89532500Y-98790000D02*
X89532500Y-96790000D01*
X89532500Y-96790000D02*
X90782500Y-96790000D01*
X90782500Y-96790000D02*
X90782500Y-98790000D01*
X104410000Y-98402500D02*
X104410000Y-97152500D01*
X104410000Y-97152500D02*
X106410000Y-97152500D01*
X106410000Y-97152500D02*
X106410000Y-98402500D01*
X106410000Y-98402500D02*
X104410000Y-98402500D01*
X89557500Y-100600000D02*
X90807500Y-100600000D01*
X90807500Y-100600000D02*
X90807500Y-102600000D01*
X90807500Y-102600000D02*
X89557500Y-102600000D01*
X89557500Y-102600000D02*
X89557500Y-100600000D01*
X87975600Y-76318800D02*
X86725600Y-76318800D01*
X86725600Y-76318800D02*
X86725600Y-74318800D01*
X86725600Y-74318800D02*
X87975600Y-74318800D01*
X87975600Y-74318800D02*
X87975600Y-76318800D01*
X87988500Y-70977000D02*
X86738500Y-70977000D01*
X86738500Y-70977000D02*
X86738500Y-68977000D01*
X86738500Y-68977000D02*
X87988500Y-68977000D01*
X87988500Y-68977000D02*
X87988500Y-70977000D01*
X128270000Y-72390000D02*
X128270000Y-69850000D01*
X128270000Y-69850000D02*
X102870000Y-69850000D01*
X102870000Y-69850000D02*
X102870000Y-72390000D01*
X102870000Y-72390000D02*
X128270000Y-72390000D01*
X132089410Y-92710000D02*
X134629410Y-92710000D01*
X134629410Y-92710000D02*
X134629410Y-72390000D01*
X134629410Y-72390000D02*
X132089410Y-72390000D01*
X132089410Y-72390000D02*
X132089410Y-92710000D01*
X139700000Y-72390000D02*
X137160000Y-72390000D01*
X137160000Y-72390000D02*
X137160000Y-92710000D01*
X137160000Y-92710000D02*
X139700000Y-92710000D01*
X139700000Y-92710000D02*
X139700000Y-72390000D01*
X134620000Y-92710000D02*
X137160000Y-92710000D01*
X137160000Y-92710000D02*
X137160000Y-72390000D01*
X137160000Y-72390000D02*
X134620000Y-72390000D01*
X134620000Y-72390000D02*
X134620000Y-92710000D01*
X101510000Y-103900000D02*
G75*
G03X101510000Y-103900000I-750000J0D01*
G01*
X101360000Y-103900000D02*
G75*
G03X101360000Y-103900000I-600000J0D01*
G01*
X101220109Y-103900000D02*
G75*
G03X101220109Y-103900000I-460109J0D01*
G01*
X101078904Y-103900000D02*
G75*
G03X101078904Y-103900000I-318904J0D01*
G01*
X100801231Y-103900000D02*
G75*
G03X100801231Y-103900000I-41231J0D01*
G01*
X100934642Y-103900000D02*
G75*
G03X100934642Y-103900000I-174642J0D01*
G01*
X100805000Y-103906000D02*
X97315000Y-103906000D01*
X97315000Y-103906000D02*
X97315000Y-99294000D01*
X100805000Y-99294000D02*
X97315000Y-99294000D01*
X100805000Y-103906000D02*
X100805000Y-99294000D01*
X78550000Y-97060000D02*
X86550000Y-97060000D01*
X86550000Y-97060000D02*
X86550000Y-106060000D01*
X78550000Y-106060000D02*
X86550000Y-106060000D01*
X78550000Y-97060000D02*
X78550000Y-106060000D01*
X107480000Y-102465000D02*
G75*
G03X107480000Y-102465000I-100000J0D01*
G01*
X106030000Y-102425000D02*
X106030000Y-99505000D01*
X107330000Y-102425000D02*
X106030000Y-102425000D01*
X107330000Y-99505000D02*
X107330000Y-102425000D01*
X106030000Y-99505000D02*
X107330000Y-99505000D01*
X91605000Y-75160000D02*
G75*
G03X91605000Y-75160000I-100000J0D01*
G01*
X90155000Y-75120000D02*
X90155000Y-72200000D01*
X91455000Y-75120000D02*
X90155000Y-75120000D01*
X91455000Y-72200000D02*
X91455000Y-75120000D01*
X90155000Y-72200000D02*
X91455000Y-72200000D01*
X91605000Y-71350000D02*
G75*
G03X91605000Y-71350000I-100000J0D01*
G01*
X90155000Y-71310000D02*
X90155000Y-68390000D01*
X91455000Y-71310000D02*
X90155000Y-71310000D01*
X91455000Y-68390000D02*
X91455000Y-71310000D01*
X90155000Y-68390000D02*
X91455000Y-68390000D01*
X78480000Y-79760000D02*
X78480000Y-92960000D01*
X96480000Y-92960000D02*
X78480000Y-92960000D01*
X96480000Y-79760000D02*
X96480000Y-92960000D01*
X96480000Y-79760000D02*
X78480000Y-79760000D01*
X81303905Y-74366381D02*
X81303905Y-73366381D01*
X81542000Y-73366381D01*
X81684858Y-73414000D01*
X81780096Y-73509238D01*
X81827715Y-73604476D01*
X81875334Y-73794952D01*
X81875334Y-73937810D01*
X81827715Y-74128286D01*
X81780096Y-74223524D01*
X81684858Y-74318762D01*
X81542000Y-74366381D01*
X81303905Y-74366381D01*
X82256286Y-73461619D02*
X82303905Y-73414000D01*
X82399143Y-73366381D01*
X82637239Y-73366381D01*
X82732477Y-73414000D01*
X82780096Y-73461619D01*
X82827715Y-73556857D01*
X82827715Y-73652095D01*
X82780096Y-73794952D01*
X82208667Y-74366381D01*
X82827715Y-74366381D01*
X85796429Y-72262952D02*
X85796429Y-71501047D01*
X86177381Y-71881999D02*
X85415476Y-71881999D01*
X81788048Y-72588429D02*
X82549953Y-72588429D01*
X81303905Y-71699381D02*
X81303905Y-70699381D01*
X81542000Y-70699381D01*
X81684858Y-70747000D01*
X81780096Y-70842238D01*
X81827715Y-70937476D01*
X81875334Y-71127952D01*
X81875334Y-71270810D01*
X81827715Y-71461286D01*
X81780096Y-71556524D01*
X81684858Y-71651762D01*
X81542000Y-71699381D01*
X81303905Y-71699381D01*
X82827715Y-71699381D02*
X82256286Y-71699381D01*
X82542000Y-71699381D02*
X82542000Y-70699381D01*
X82446762Y-70842238D01*
X82351524Y-70937476D01*
X82256286Y-70985095D01*
X85796429Y-69722952D02*
X85796429Y-68961047D01*
X86177381Y-69341999D02*
X85415476Y-69341999D01*
X81788048Y-70048429D02*
X82549953Y-70048429D01*
X142073334Y-77192143D02*
X142025715Y-77239762D01*
X141882858Y-77287381D01*
X141787620Y-77287381D01*
X141644762Y-77239762D01*
X141549524Y-77144524D01*
X141501905Y-77049286D01*
X141454286Y-76858810D01*
X141454286Y-76715952D01*
X141501905Y-76525476D01*
X141549524Y-76430238D01*
X141644762Y-76335000D01*
X141787620Y-76287381D01*
X141882858Y-76287381D01*
X142025715Y-76335000D01*
X142073334Y-76382619D01*
X142406667Y-76287381D02*
X143025715Y-76287381D01*
X142692381Y-76668333D01*
X142835239Y-76668333D01*
X142930477Y-76715952D01*
X142978096Y-76763571D01*
X143025715Y-76858810D01*
X143025715Y-77096905D01*
X142978096Y-77192143D01*
X142930477Y-77239762D01*
X142835239Y-77287381D01*
X142549524Y-77287381D01*
X142454286Y-77239762D01*
X142406667Y-77192143D01*
X98258334Y-106148143D02*
X98210715Y-106195762D01*
X98067858Y-106243381D01*
X97972620Y-106243381D01*
X97829762Y-106195762D01*
X97734524Y-106100524D01*
X97686905Y-106005286D01*
X97639286Y-105814810D01*
X97639286Y-105671952D01*
X97686905Y-105481476D01*
X97734524Y-105386238D01*
X97829762Y-105291000D01*
X97972620Y-105243381D01*
X98067858Y-105243381D01*
X98210715Y-105291000D01*
X98258334Y-105338619D01*
X98639286Y-105338619D02*
X98686905Y-105291000D01*
X98782143Y-105243381D01*
X99020239Y-105243381D01*
X99115477Y-105291000D01*
X99163096Y-105338619D01*
X99210715Y-105433857D01*
X99210715Y-105529095D01*
X99163096Y-105671952D01*
X98591667Y-106243381D01*
X99210715Y-106243381D01*
X142073334Y-89257143D02*
X142025715Y-89304762D01*
X141882858Y-89352381D01*
X141787620Y-89352381D01*
X141644762Y-89304762D01*
X141549524Y-89209524D01*
X141501905Y-89114286D01*
X141454286Y-88923810D01*
X141454286Y-88780952D01*
X141501905Y-88590476D01*
X141549524Y-88495238D01*
X141644762Y-88400000D01*
X141787620Y-88352381D01*
X141882858Y-88352381D01*
X142025715Y-88400000D01*
X142073334Y-88447619D01*
X143025715Y-89352381D02*
X142454286Y-89352381D01*
X142740000Y-89352381D02*
X142740000Y-88352381D01*
X142644762Y-88495238D01*
X142549524Y-88590476D01*
X142454286Y-88638095D01*
X87368143Y-105862381D02*
X87034809Y-105386190D01*
X86796714Y-105862381D02*
X86796714Y-104862381D01*
X87177667Y-104862381D01*
X87272905Y-104910000D01*
X87320524Y-104957619D01*
X87368143Y-105052857D01*
X87368143Y-105195714D01*
X87320524Y-105290952D01*
X87272905Y-105338571D01*
X87177667Y-105386190D01*
X86796714Y-105386190D01*
X88320524Y-105862381D02*
X87749095Y-105862381D01*
X88034809Y-105862381D02*
X88034809Y-104862381D01*
X87939571Y-105005238D01*
X87844333Y-105100476D01*
X87749095Y-105148095D01*
X88939571Y-104862381D02*
X89034810Y-104862381D01*
X89130048Y-104910000D01*
X89177667Y-104957619D01*
X89225286Y-105052857D01*
X89272905Y-105243333D01*
X89272905Y-105481429D01*
X89225286Y-105671905D01*
X89177667Y-105767143D01*
X89130048Y-105814762D01*
X89034810Y-105862381D01*
X88939571Y-105862381D01*
X88844333Y-105814762D01*
X88796714Y-105767143D01*
X88749095Y-105671905D01*
X88701476Y-105481429D01*
X88701476Y-105243333D01*
X88749095Y-105052857D01*
X88796714Y-104957619D01*
X88844333Y-104910000D01*
X88939571Y-104862381D01*
X110688381Y-93765666D02*
X110212190Y-94099000D01*
X110688381Y-94337095D02*
X109688381Y-94337095D01*
X109688381Y-93956142D01*
X109736000Y-93860904D01*
X109783619Y-93813285D01*
X109878857Y-93765666D01*
X110021714Y-93765666D01*
X110116952Y-93813285D01*
X110164571Y-93860904D01*
X110212190Y-93956142D01*
X110212190Y-94337095D01*
X109688381Y-92908523D02*
X109688381Y-93099000D01*
X109736000Y-93194238D01*
X109783619Y-93241857D01*
X109926476Y-93337095D01*
X110116952Y-93384714D01*
X110497905Y-93384714D01*
X110593143Y-93337095D01*
X110640762Y-93289476D01*
X110688381Y-93194238D01*
X110688381Y-93003761D01*
X110640762Y-92908523D01*
X110593143Y-92860904D01*
X110497905Y-92813285D01*
X110259810Y-92813285D01*
X110164571Y-92860904D01*
X110116952Y-92908523D01*
X110069333Y-93003761D01*
X110069333Y-93194238D01*
X110116952Y-93289476D01*
X110164571Y-93337095D01*
X110259810Y-93384714D01*
X101833643Y-106860781D02*
X101500309Y-106384590D01*
X101262214Y-106860781D02*
X101262214Y-105860781D01*
X101643167Y-105860781D01*
X101738405Y-105908400D01*
X101786024Y-105956019D01*
X101833643Y-106051257D01*
X101833643Y-106194114D01*
X101786024Y-106289352D01*
X101738405Y-106336971D01*
X101643167Y-106384590D01*
X101262214Y-106384590D01*
X102786024Y-106860781D02*
X102214595Y-106860781D01*
X102500309Y-106860781D02*
X102500309Y-105860781D01*
X102405071Y-106003638D01*
X102309833Y-106098876D01*
X102214595Y-106146495D01*
X103166976Y-105956019D02*
X103214595Y-105908400D01*
X103309833Y-105860781D01*
X103547929Y-105860781D01*
X103643167Y-105908400D01*
X103690786Y-105956019D01*
X103738405Y-106051257D01*
X103738405Y-106146495D01*
X103690786Y-106289352D01*
X103119357Y-106860781D01*
X103738405Y-106860781D01*
X87844334Y-98242381D02*
X87511000Y-97766190D01*
X87272905Y-98242381D02*
X87272905Y-97242381D01*
X87653858Y-97242381D01*
X87749096Y-97290000D01*
X87796715Y-97337619D01*
X87844334Y-97432857D01*
X87844334Y-97575714D01*
X87796715Y-97670952D01*
X87749096Y-97718571D01*
X87653858Y-97766190D01*
X87272905Y-97766190D01*
X88749096Y-97242381D02*
X88272905Y-97242381D01*
X88225286Y-97718571D01*
X88272905Y-97670952D01*
X88368143Y-97623333D01*
X88606239Y-97623333D01*
X88701477Y-97670952D01*
X88749096Y-97718571D01*
X88796715Y-97813810D01*
X88796715Y-98051905D01*
X88749096Y-98147143D01*
X88701477Y-98194762D01*
X88606239Y-98242381D01*
X88368143Y-98242381D01*
X88272905Y-98194762D01*
X88225286Y-98147143D01*
X102703334Y-98242381D02*
X102370000Y-97766190D01*
X102131905Y-98242381D02*
X102131905Y-97242381D01*
X102512858Y-97242381D01*
X102608096Y-97290000D01*
X102655715Y-97337619D01*
X102703334Y-97432857D01*
X102703334Y-97575714D01*
X102655715Y-97670952D01*
X102608096Y-97718571D01*
X102512858Y-97766190D01*
X102131905Y-97766190D01*
X103560477Y-97575714D02*
X103560477Y-98242381D01*
X103322381Y-97194762D02*
X103084286Y-97909048D01*
X103703334Y-97909048D01*
X87844334Y-102052381D02*
X87511000Y-101576190D01*
X87272905Y-102052381D02*
X87272905Y-101052381D01*
X87653858Y-101052381D01*
X87749096Y-101100000D01*
X87796715Y-101147619D01*
X87844334Y-101242857D01*
X87844334Y-101385714D01*
X87796715Y-101480952D01*
X87749096Y-101528571D01*
X87653858Y-101576190D01*
X87272905Y-101576190D01*
X88177667Y-101052381D02*
X88796715Y-101052381D01*
X88463381Y-101433333D01*
X88606239Y-101433333D01*
X88701477Y-101480952D01*
X88749096Y-101528571D01*
X88796715Y-101623810D01*
X88796715Y-101861905D01*
X88749096Y-101957143D01*
X88701477Y-102004762D01*
X88606239Y-102052381D01*
X88320524Y-102052381D01*
X88225286Y-102004762D01*
X88177667Y-101957143D01*
X87196434Y-78438181D02*
X86863100Y-77961990D01*
X86625005Y-78438181D02*
X86625005Y-77438181D01*
X87005958Y-77438181D01*
X87101196Y-77485800D01*
X87148815Y-77533419D01*
X87196434Y-77628657D01*
X87196434Y-77771514D01*
X87148815Y-77866752D01*
X87101196Y-77914371D01*
X87005958Y-77961990D01*
X86625005Y-77961990D01*
X87577386Y-77533419D02*
X87625005Y-77485800D01*
X87720243Y-77438181D01*
X87958339Y-77438181D01*
X88053577Y-77485800D01*
X88101196Y-77533419D01*
X88148815Y-77628657D01*
X88148815Y-77723895D01*
X88101196Y-77866752D01*
X87529767Y-78438181D01*
X88148815Y-78438181D01*
X87209334Y-68143381D02*
X86876000Y-67667190D01*
X86637905Y-68143381D02*
X86637905Y-67143381D01*
X87018858Y-67143381D01*
X87114096Y-67191000D01*
X87161715Y-67238619D01*
X87209334Y-67333857D01*
X87209334Y-67476714D01*
X87161715Y-67571952D01*
X87114096Y-67619571D01*
X87018858Y-67667190D01*
X86637905Y-67667190D01*
X88161715Y-68143381D02*
X87590286Y-68143381D01*
X87876000Y-68143381D02*
X87876000Y-67143381D01*
X87780762Y-67286238D01*
X87685524Y-67381476D01*
X87590286Y-67429095D01*
X113966667Y-68032381D02*
X113966667Y-68746667D01*
X113919047Y-68889524D01*
X113823809Y-68984762D01*
X113680952Y-69032381D01*
X113585714Y-69032381D01*
X114395238Y-68127619D02*
X114442857Y-68080000D01*
X114538095Y-68032381D01*
X114776191Y-68032381D01*
X114871429Y-68080000D01*
X114919048Y-68127619D01*
X114966667Y-68222857D01*
X114966667Y-68318095D01*
X114919048Y-68460952D01*
X114347619Y-69032381D01*
X114966667Y-69032381D01*
X133016667Y-71207381D02*
X133016667Y-71921667D01*
X132969047Y-72064524D01*
X132873809Y-72159762D01*
X132730952Y-72207381D01*
X132635714Y-72207381D01*
X133397619Y-71207381D02*
X134016667Y-71207381D01*
X133683333Y-71588333D01*
X133826191Y-71588333D01*
X133921429Y-71635952D01*
X133969048Y-71683571D01*
X134016667Y-71778810D01*
X134016667Y-72016905D01*
X133969048Y-72112143D01*
X133921429Y-72159762D01*
X133826191Y-72207381D01*
X133540476Y-72207381D01*
X133445238Y-72159762D01*
X133397619Y-72112143D01*
X138096667Y-71207381D02*
X138096667Y-71921667D01*
X138049047Y-72064524D01*
X137953809Y-72159762D01*
X137810952Y-72207381D01*
X137715714Y-72207381D01*
X139049048Y-71207381D02*
X138572857Y-71207381D01*
X138525238Y-71683571D01*
X138572857Y-71635952D01*
X138668095Y-71588333D01*
X138906191Y-71588333D01*
X139001429Y-71635952D01*
X139049048Y-71683571D01*
X139096667Y-71778810D01*
X139096667Y-72016905D01*
X139049048Y-72112143D01*
X139001429Y-72159762D01*
X138906191Y-72207381D01*
X138668095Y-72207381D01*
X138572857Y-72159762D01*
X138525238Y-72112143D01*
X135556667Y-71207381D02*
X135556667Y-71921667D01*
X135509047Y-72064524D01*
X135413809Y-72159762D01*
X135270952Y-72207381D01*
X135175714Y-72207381D01*
X136461429Y-71540714D02*
X136461429Y-72207381D01*
X136223333Y-71159762D02*
X135985238Y-71874048D01*
X136604286Y-71874048D01*
X98298095Y-97877381D02*
X98298095Y-98686905D01*
X98345714Y-98782143D01*
X98393333Y-98829762D01*
X98488571Y-98877381D01*
X98679048Y-98877381D01*
X98774286Y-98829762D01*
X98821905Y-98782143D01*
X98869524Y-98686905D01*
X98869524Y-97877381D01*
X99869524Y-98877381D02*
X99298095Y-98877381D01*
X99583809Y-98877381D02*
X99583809Y-97877381D01*
X99488571Y-98020238D01*
X99393333Y-98115476D01*
X99298095Y-98163095D01*
X81284451Y-64769992D02*
X81284451Y-63769992D01*
X81284451Y-64246182D02*
X81855880Y-64246182D01*
X81855880Y-64769992D02*
X81855880Y-63769992D01*
X82855880Y-64769992D02*
X82284451Y-64769992D01*
X82570165Y-64769992D02*
X82570165Y-63769992D01*
X82474927Y-63912849D01*
X82379689Y-64008087D01*
X82284451Y-64055706D01*
X139278095Y-64782381D02*
X139278095Y-63782381D01*
X139278095Y-64258571D02*
X139849524Y-64258571D01*
X139849524Y-64782381D02*
X139849524Y-63782381D01*
X140278095Y-63877619D02*
X140325714Y-63830000D01*
X140420952Y-63782381D01*
X140659048Y-63782381D01*
X140754286Y-63830000D01*
X140801905Y-63877619D01*
X140849524Y-63972857D01*
X140849524Y-64068095D01*
X140801905Y-64210952D01*
X140230476Y-64782381D01*
X140849524Y-64782381D01*
X81278095Y-113772381D02*
X81278095Y-112772381D01*
X81278095Y-113248571D02*
X81849524Y-113248571D01*
X81849524Y-113772381D02*
X81849524Y-112772381D01*
X82230476Y-112772381D02*
X82849524Y-112772381D01*
X82516190Y-113153333D01*
X82659048Y-113153333D01*
X82754286Y-113200952D01*
X82801905Y-113248571D01*
X82849524Y-113343810D01*
X82849524Y-113581905D01*
X82801905Y-113677143D01*
X82754286Y-113724762D01*
X82659048Y-113772381D01*
X82373333Y-113772381D01*
X82278095Y-113724762D01*
X82230476Y-113677143D01*
X139268095Y-113762381D02*
X139268095Y-112762381D01*
X139268095Y-113238571D02*
X139839524Y-113238571D01*
X139839524Y-113762381D02*
X139839524Y-112762381D01*
X140744286Y-113095714D02*
X140744286Y-113762381D01*
X140506190Y-112714762D02*
X140268095Y-113429048D01*
X140887143Y-113429048D01*
X79676667Y-95337381D02*
X79676667Y-96051667D01*
X79629047Y-96194524D01*
X79533809Y-96289762D01*
X79390952Y-96337381D01*
X79295714Y-96337381D01*
X80057619Y-95337381D02*
X80724286Y-95337381D01*
X80295714Y-96337381D01*
X110394762Y-101512619D02*
X110299524Y-101465000D01*
X110204286Y-101369762D01*
X110061429Y-101226905D01*
X109966190Y-101179286D01*
X109870952Y-101179286D01*
X109918571Y-101417381D02*
X109823333Y-101369762D01*
X109728095Y-101274524D01*
X109680476Y-101084048D01*
X109680476Y-100750714D01*
X109728095Y-100560238D01*
X109823333Y-100465000D01*
X109918571Y-100417381D01*
X110109048Y-100417381D01*
X110204286Y-100465000D01*
X110299524Y-100560238D01*
X110347143Y-100750714D01*
X110347143Y-101084048D01*
X110299524Y-101274524D01*
X110204286Y-101369762D01*
X110109048Y-101417381D01*
X109918571Y-101417381D01*
X111251905Y-100417381D02*
X110775714Y-100417381D01*
X110728095Y-100893571D01*
X110775714Y-100845952D01*
X110870952Y-100798333D01*
X111109048Y-100798333D01*
X111204286Y-100845952D01*
X111251905Y-100893571D01*
X111299524Y-100988810D01*
X111299524Y-101226905D01*
X111251905Y-101322143D01*
X111204286Y-101369762D01*
X111109048Y-101417381D01*
X110870952Y-101417381D01*
X110775714Y-101369762D01*
X110728095Y-101322143D01*
X90709762Y-76874619D02*
X90614524Y-76827000D01*
X90519286Y-76731762D01*
X90376429Y-76588905D01*
X90281190Y-76541286D01*
X90185952Y-76541286D01*
X90233571Y-76779381D02*
X90138333Y-76731762D01*
X90043095Y-76636524D01*
X89995476Y-76446048D01*
X89995476Y-76112714D01*
X90043095Y-75922238D01*
X90138333Y-75827000D01*
X90233571Y-75779381D01*
X90424048Y-75779381D01*
X90519286Y-75827000D01*
X90614524Y-75922238D01*
X90662143Y-76112714D01*
X90662143Y-76446048D01*
X90614524Y-76636524D01*
X90519286Y-76731762D01*
X90424048Y-76779381D01*
X90233571Y-76779381D01*
X91519286Y-76112714D02*
X91519286Y-76779381D01*
X91281190Y-75731762D02*
X91043095Y-76446048D01*
X91662143Y-76446048D01*
X93757762Y-70397619D02*
X93662524Y-70350000D01*
X93567286Y-70254762D01*
X93424429Y-70111905D01*
X93329190Y-70064286D01*
X93233952Y-70064286D01*
X93281571Y-70302381D02*
X93186333Y-70254762D01*
X93091095Y-70159524D01*
X93043476Y-69969048D01*
X93043476Y-69635714D01*
X93091095Y-69445238D01*
X93186333Y-69350000D01*
X93281571Y-69302381D01*
X93472048Y-69302381D01*
X93567286Y-69350000D01*
X93662524Y-69445238D01*
X93710143Y-69635714D01*
X93710143Y-69969048D01*
X93662524Y-70159524D01*
X93567286Y-70254762D01*
X93472048Y-70302381D01*
X93281571Y-70302381D01*
X94043476Y-69302381D02*
X94662524Y-69302381D01*
X94329190Y-69683333D01*
X94472048Y-69683333D01*
X94567286Y-69730952D01*
X94614905Y-69778571D01*
X94662524Y-69873810D01*
X94662524Y-70111905D01*
X94614905Y-70207143D01*
X94567286Y-70254762D01*
X94472048Y-70302381D01*
X94186333Y-70302381D01*
X94091095Y-70254762D01*
X94043476Y-70207143D01*
X79676667Y-78192381D02*
X79676667Y-78906667D01*
X79629047Y-79049524D01*
X79533809Y-79144762D01*
X79390952Y-79192381D01*
X79295714Y-79192381D01*
X80581429Y-78192381D02*
X80390952Y-78192381D01*
X80295714Y-78240000D01*
X80248095Y-78287619D01*
X80152857Y-78430476D01*
X80105238Y-78620952D01*
X80105238Y-79001905D01*
X80152857Y-79097143D01*
X80200476Y-79144762D01*
X80295714Y-79192381D01*
X80486191Y-79192381D01*
X80581429Y-79144762D01*
X80629048Y-79097143D01*
X80676667Y-79001905D01*
X80676667Y-78763810D01*
X80629048Y-78668571D01*
X80581429Y-78620952D01*
X80486191Y-78573333D01*
X80295714Y-78573333D01*
X80200476Y-78620952D01*
X80152857Y-78668571D01*
X80105238Y-78763810D01*
M02*
