G04 #@! TF.FileFunction,Copper,L1,Top,Signal*
%FSLAX46Y46*%
G04 Gerber Fmt 4.6, Leading zero omitted, Abs format (unit mm)*
G04 Created by KiCad (PCBNEW 4.0.2-stable) date 9/14/2021 9:27:19 PM*
%MOMM*%
G01*
G04 APERTURE LIST*
%ADD10C,0.100000*%
%ADD11R,0.800000X0.800000*%
%ADD12R,1.500000X1.000000*%
%ADD13R,1.000000X1.500000*%
%ADD14C,1.700000*%
%ADD15R,1.505000X0.802000*%
%ADD16C,5.000000*%
%ADD17C,1.800000*%
%ADD18R,1.400000X1.000000*%
%ADD19R,1.700000X1.700000*%
%ADD20C,1.700000*%
%ADD21O,1.700000X1.700000*%
%ADD22C,1.524000*%
%ADD23C,3.800000*%
%ADD24C,0.635000*%
%ADD25C,0.381000*%
%ADD26C,0.254000*%
G04 APERTURE END LIST*
D10*
X78546356Y-63817611D02*
X78546356Y-113817611D01*
X78546356Y-63817611D02*
G75*
G02X81546356Y-60817611I3000000J0D01*
G01*
X140546356Y-60817611D02*
X81546356Y-60817611D01*
X140546356Y-60817611D02*
G75*
G02X143546356Y-63817611I0J-3000000D01*
G01*
X143546356Y-113817611D02*
X143546356Y-63817611D01*
X81546356Y-116817611D02*
G75*
G02X78546356Y-113817611I0J3000000D01*
G01*
X81546356Y-116817611D02*
X140546356Y-116817611D01*
X143546351Y-113822847D02*
G75*
G02X140546356Y-116817611I-2999995J5236D01*
G01*
D11*
X83376000Y-72644000D03*
X85026000Y-72644000D03*
X83376000Y-70104000D03*
X85026000Y-70104000D03*
D12*
X142240000Y-79085000D03*
X142240000Y-80935000D03*
D13*
X94706000Y-105791000D03*
X96556000Y-105791000D03*
D12*
X142240000Y-86650000D03*
X142240000Y-84800000D03*
X90182500Y-106510000D03*
X90182500Y-104310000D03*
X110248500Y-97239000D03*
X110248500Y-95039000D03*
X105410000Y-106238400D03*
X105410000Y-104038400D03*
X90157500Y-96690000D03*
X90157500Y-98890000D03*
D13*
X106510000Y-97777500D03*
X104310000Y-97777500D03*
D12*
X90182500Y-102700000D03*
X90182500Y-100500000D03*
X87350600Y-74218800D03*
X87350600Y-76418800D03*
X87363500Y-68877000D03*
X87363500Y-71077000D03*
D14*
X104140000Y-71120000D03*
X106680000Y-71120000D03*
X109220000Y-71120000D03*
X111760000Y-71120000D03*
X114300000Y-71120000D03*
X116840000Y-71120000D03*
X119380000Y-71120000D03*
X121920000Y-71120000D03*
X124460000Y-71120000D03*
X127000000Y-71120000D03*
X133359410Y-73660000D03*
X133359410Y-76200000D03*
X133359410Y-78740000D03*
X133359410Y-81280000D03*
X133359410Y-83820000D03*
X133359410Y-86360000D03*
X133359410Y-88900000D03*
X133359410Y-91440000D03*
X138430000Y-91440000D03*
X138430000Y-88900000D03*
X138430000Y-86360000D03*
X138430000Y-83820000D03*
X138430000Y-81280000D03*
X138430000Y-78740000D03*
X138430000Y-76200000D03*
X138430000Y-73660000D03*
X135890000Y-73660000D03*
X135890000Y-76200000D03*
X135890000Y-78740000D03*
X135890000Y-81280000D03*
X135890000Y-83820000D03*
X135890000Y-86360000D03*
X135890000Y-88900000D03*
X135890000Y-91440000D03*
D15*
X101557500Y-103505000D03*
X101557500Y-102235000D03*
X101557500Y-100965000D03*
X101557500Y-99695000D03*
X96562500Y-99695000D03*
X96562500Y-100965000D03*
X96562500Y-102235000D03*
X96562500Y-103505000D03*
D16*
X82046356Y-64317611D03*
X140040000Y-64330000D03*
X82040000Y-113320000D03*
X140030000Y-113310000D03*
D17*
X82550000Y-104060000D03*
X82550000Y-99060000D03*
D18*
X107780000Y-101915000D03*
X107780000Y-100015000D03*
X105580000Y-100965000D03*
X91905000Y-74610000D03*
X91905000Y-72710000D03*
X89705000Y-73660000D03*
X91905000Y-70800000D03*
X91905000Y-68900000D03*
X89705000Y-69850000D03*
D19*
X86868000Y-65659000D03*
D20*
X86868000Y-63119000D02*
X86868000Y-63119000D01*
D21*
X89408000Y-65659000D03*
D20*
X89408000Y-63119000D02*
X89408000Y-63119000D01*
D21*
X91948000Y-65659000D03*
D20*
X91948000Y-63119000D02*
X91948000Y-63119000D01*
D21*
X94488000Y-65659000D03*
X94488000Y-63119000D03*
D20*
X97028000Y-65659000D02*
X97028000Y-65659000D01*
D21*
X97028000Y-63119000D03*
X99568000Y-65659000D03*
X99568000Y-63119000D03*
X102108000Y-65659000D03*
D20*
X102108000Y-63119000D02*
X102108000Y-63119000D01*
D21*
X104648000Y-65659000D03*
X104648000Y-63119000D03*
D20*
X107188000Y-65659000D02*
X107188000Y-65659000D01*
D21*
X107188000Y-63119000D03*
X109728000Y-65659000D03*
D20*
X109728000Y-63119000D02*
X109728000Y-63119000D01*
D21*
X112268000Y-65659000D03*
X112268000Y-63119000D03*
X114808000Y-65659000D03*
X114808000Y-63119000D03*
X117348000Y-65659000D03*
X117348000Y-63119000D03*
X119888000Y-65659000D03*
X119888000Y-63119000D03*
X122428000Y-65659000D03*
D20*
X122428000Y-63119000D02*
X122428000Y-63119000D01*
D21*
X124968000Y-65659000D03*
X124968000Y-63119000D03*
X127508000Y-65659000D03*
D20*
X127508000Y-63119000D02*
X127508000Y-63119000D01*
D21*
X130048000Y-65659000D03*
X130048000Y-63119000D03*
X132588000Y-65659000D03*
X132588000Y-63119000D03*
D20*
X135128000Y-65659000D02*
X135128000Y-65659000D01*
D21*
X135128000Y-63119000D03*
D22*
X92710000Y-89530000D03*
D23*
X86360000Y-81280000D03*
X86360000Y-91440000D03*
D22*
X92710000Y-86990000D03*
X92710000Y-84450000D03*
X95250000Y-88260000D03*
X95250000Y-85720000D03*
X95250000Y-83180000D03*
D24*
X94869000Y-107315000D03*
X89535000Y-71120000D03*
X89535000Y-74930000D03*
X142240000Y-78105000D03*
X142240000Y-87490000D03*
X96520000Y-98425000D03*
X90170000Y-107696000D03*
X83439000Y-73914000D03*
X83439000Y-71247000D03*
X107772200Y-98755200D03*
X95786617Y-71148617D03*
X95885000Y-69596000D03*
X94996000Y-72263000D03*
X93157000Y-70800000D03*
X117475000Y-86995000D03*
X117475000Y-85725000D03*
X117475000Y-84455000D03*
X117475000Y-83185000D03*
X117475000Y-81915000D03*
X117475000Y-80645000D03*
X117475000Y-79375000D03*
X118237000Y-78359000D03*
X118237000Y-95250000D03*
X92456000Y-102438200D03*
X93980000Y-100750000D03*
D25*
X94856000Y-105410000D02*
X94856000Y-107302000D01*
X94856000Y-107302000D02*
X94869000Y-107315000D01*
X89705000Y-69850000D02*
X89705000Y-70950000D01*
X89705000Y-70950000D02*
X89535000Y-71120000D01*
X89705000Y-73660000D02*
X89705000Y-74760000D01*
X89705000Y-74760000D02*
X89535000Y-74930000D01*
X142240000Y-79235000D02*
X142240000Y-78105000D01*
X142240000Y-86360000D02*
X142240000Y-87490000D01*
X90182500Y-106260000D02*
X90182500Y-107683500D01*
X96562500Y-99695000D02*
X96562500Y-98467500D01*
X96562500Y-98467500D02*
X96520000Y-98425000D01*
X83376000Y-72644000D02*
X83376000Y-73851000D01*
X83376000Y-73851000D02*
X83439000Y-73914000D01*
X83376000Y-70104000D02*
X83376000Y-71184000D01*
X83376000Y-71184000D02*
X83439000Y-71247000D01*
X107780000Y-99230000D02*
X107780000Y-100015000D01*
X107772200Y-98755200D02*
X107780000Y-99230000D01*
X142380000Y-80645000D02*
X142240000Y-80785000D01*
X92212500Y-68592500D02*
X91905000Y-68900000D01*
X91905000Y-68900000D02*
X91882000Y-68877000D01*
X91882000Y-68877000D02*
X87363500Y-68877000D01*
X86253000Y-68877000D02*
X85026000Y-70104000D01*
X87363500Y-68877000D02*
X86253000Y-68877000D01*
X91905000Y-72710000D02*
X91882000Y-72687000D01*
X91905000Y-72710000D02*
X91882000Y-72687000D01*
X85450000Y-72687000D02*
X85407000Y-72644000D01*
X85092000Y-72710000D02*
X85026000Y-72644000D01*
X87350600Y-74218800D02*
X87350600Y-72710000D01*
X91905000Y-72710000D02*
X87350600Y-72710000D01*
X87350600Y-72710000D02*
X85092000Y-72710000D01*
X104140000Y-71120000D02*
X95815234Y-71120000D01*
X95815234Y-71120000D02*
X95786617Y-71148617D01*
X95885000Y-69596000D02*
X104648000Y-69596000D01*
X104648000Y-69596000D02*
X105156000Y-69596000D01*
X105156000Y-69596000D02*
X106680000Y-71120000D01*
X104560000Y-97777500D02*
X102628500Y-97777500D01*
X102628500Y-97777500D02*
X102235010Y-98170990D01*
X100330000Y-72263000D02*
X94996000Y-72263000D01*
X102235010Y-74168010D02*
X102235010Y-98170990D01*
X100330000Y-72263000D02*
X102235010Y-74168010D01*
X101557500Y-98848500D02*
X102235000Y-98171000D01*
X102235010Y-98170990D02*
X102235000Y-98171000D01*
X101557500Y-98913000D02*
X101557500Y-98848500D01*
X91905000Y-70800000D02*
X92710000Y-70800000D01*
X92710000Y-70800000D02*
X93157000Y-70800000D01*
X101557500Y-98913000D02*
X101557500Y-99695000D01*
D26*
X94488000Y-63119000D02*
X93218000Y-64389000D01*
D25*
X93218000Y-70739000D02*
X93157000Y-70800000D01*
X93218000Y-66548000D02*
X93218000Y-70739000D01*
D26*
X93218000Y-64389000D02*
X93218000Y-66548000D01*
D25*
X101557500Y-103505000D02*
X100424000Y-103505000D01*
X100424000Y-103505000D02*
X100360499Y-103441499D01*
X100360499Y-103441499D02*
X100360499Y-98775499D01*
X100360499Y-98775499D02*
X101600000Y-97535998D01*
X101600000Y-97535998D02*
X101600000Y-74640000D01*
X101600000Y-74640000D02*
X100330000Y-73370000D01*
X100330000Y-73370000D02*
X99024000Y-73370000D01*
X99024000Y-73370000D02*
X93345000Y-73370000D01*
X93345000Y-73370000D02*
X93345000Y-72512602D01*
X93345000Y-72512602D02*
X94485801Y-71371801D01*
X93345000Y-73370000D02*
X92105000Y-74610000D01*
X92105000Y-74610000D02*
X91905000Y-74610000D01*
D26*
X97028000Y-63119000D02*
X95758000Y-64389000D01*
X95758000Y-64389000D02*
X95758000Y-66675000D01*
D25*
X95758000Y-66675000D02*
X94488000Y-67945000D01*
X94488000Y-71369602D02*
X94485801Y-71371801D01*
X94488000Y-67945000D02*
X94488000Y-71369602D01*
X94485801Y-71371801D02*
X94483602Y-71374000D01*
X132270499Y-90360499D02*
X128905000Y-86995000D01*
X128905000Y-86995000D02*
X117475000Y-86995000D01*
X133359410Y-91440000D02*
X132279909Y-90360499D01*
X132279909Y-90360499D02*
X132270499Y-90360499D01*
X130184410Y-85725000D02*
X117475000Y-85725000D01*
X133359410Y-88900000D02*
X130184410Y-85725000D01*
X130809990Y-84454990D02*
X130809980Y-84455000D01*
X130809980Y-84455000D02*
X117475000Y-84455000D01*
X132715000Y-86360000D02*
X130809990Y-84454990D01*
X133359410Y-86360000D02*
X132715000Y-86360000D01*
X130810000Y-83185000D02*
X117475000Y-83185000D01*
X131445000Y-83820000D02*
X130810000Y-83185000D01*
X133359410Y-83820000D02*
X131445000Y-83820000D01*
X131445000Y-81280000D02*
X130810000Y-81915000D01*
X130810000Y-81915000D02*
X117475000Y-81915000D01*
X133359410Y-81280000D02*
X131445000Y-81280000D01*
X130556385Y-80645000D02*
X117475000Y-80645000D01*
X133359410Y-78740000D02*
X132461385Y-78740000D01*
X132461385Y-78740000D02*
X130556385Y-80645000D01*
X130184410Y-79375000D02*
X117475000Y-79375000D01*
X133359410Y-76200000D02*
X130184410Y-79375000D01*
D26*
X122428000Y-65659000D02*
X122428000Y-66167000D01*
X122428000Y-66167000D02*
X123190000Y-66929000D01*
X123190000Y-66929000D02*
X123190000Y-73406000D01*
X123190000Y-73406000D02*
X118237000Y-78359000D01*
D25*
X110248500Y-95289000D02*
X118198000Y-95289000D01*
X118198000Y-95289000D02*
X118237000Y-95250000D01*
X90182500Y-102450000D02*
X84160000Y-102450000D01*
X84160000Y-102450000D02*
X82550000Y-104060000D01*
X90182500Y-102450000D02*
X90182500Y-104560000D01*
X92456000Y-102438200D02*
X96347500Y-102450000D01*
X96347500Y-102450000D02*
X96562500Y-102235000D01*
X90182500Y-102450000D02*
X92456000Y-102438200D01*
X90157500Y-98640000D02*
X90157500Y-100725000D01*
X90157500Y-100725000D02*
X90182500Y-100750000D01*
X90182500Y-100750000D02*
X93980000Y-100750000D01*
X93980000Y-100750000D02*
X96347500Y-100750000D01*
X96347500Y-100750000D02*
X96562500Y-100965000D01*
X82550000Y-99060000D02*
X84240000Y-100750000D01*
X84240000Y-100750000D02*
X90182500Y-100750000D01*
X105422500Y-103798000D02*
X105422500Y-101122500D01*
X105422500Y-101122500D02*
X105580000Y-100965000D01*
X105580000Y-100965000D02*
X104140000Y-100965000D01*
X104140000Y-100965000D02*
X101557500Y-100965000D01*
X102691000Y-102235000D02*
X103961000Y-100965000D01*
X101557500Y-102235000D02*
X102691000Y-102235000D01*
X103961000Y-100965000D02*
X104140000Y-100965000D01*
X105397500Y-100782500D02*
X105580000Y-100965000D01*
X106260000Y-97777500D02*
X107795262Y-97777500D01*
X108393002Y-97777500D02*
X107795262Y-97777500D01*
X108393002Y-97777500D02*
X109051501Y-98435999D01*
X109051501Y-100970499D02*
X107980000Y-101915000D01*
X110248500Y-97239000D02*
X109051501Y-98435999D01*
X109051501Y-100970499D02*
X109051501Y-98435999D01*
X107980000Y-101915000D02*
X107780000Y-101915000D01*
X108082500Y-101612500D02*
X107780000Y-101915000D01*
D26*
G36*
X141166098Y-61195925D02*
X141752592Y-61408812D01*
X142274385Y-61750915D01*
X142703477Y-62203874D01*
X143016862Y-62743405D01*
X143198928Y-63344540D01*
X143242357Y-63831156D01*
X143242357Y-78295394D01*
X143138659Y-78226106D01*
X142990000Y-78196536D01*
X142938500Y-78196536D01*
X142938500Y-77966060D01*
X142832159Y-77709332D01*
X142635668Y-77512841D01*
X142378940Y-77406500D01*
X142101060Y-77406500D01*
X141844332Y-77512841D01*
X141647841Y-77709332D01*
X141541500Y-77966060D01*
X141541500Y-78196536D01*
X141490000Y-78196536D01*
X141341341Y-78226106D01*
X141215314Y-78310314D01*
X141131106Y-78436341D01*
X141101536Y-78585000D01*
X141101536Y-79585000D01*
X141131106Y-79733659D01*
X141215314Y-79859686D01*
X141216952Y-79860781D01*
X141130301Y-79896673D01*
X140951673Y-80075302D01*
X140855000Y-80308691D01*
X140855000Y-80649250D01*
X141013750Y-80808000D01*
X142113000Y-80808000D01*
X142113000Y-80788000D01*
X142367000Y-80788000D01*
X142367000Y-80808000D01*
X142387000Y-80808000D01*
X142387000Y-81062000D01*
X142367000Y-81062000D01*
X142367000Y-81911250D01*
X142525750Y-82070000D01*
X143116310Y-82070000D01*
X143242357Y-82017790D01*
X143242357Y-82423000D01*
X139262716Y-82423000D01*
X139294353Y-82323958D01*
X138430000Y-81459605D01*
X137565647Y-82323958D01*
X137597284Y-82423000D01*
X136347313Y-82423000D01*
X136587306Y-82323592D01*
X136933592Y-81977306D01*
X137016195Y-81777884D01*
X137134741Y-82064080D01*
X137386042Y-82144353D01*
X138250395Y-81280000D01*
X138609605Y-81280000D01*
X139473958Y-82144353D01*
X139725259Y-82064080D01*
X139926718Y-81508721D01*
X139913835Y-81220750D01*
X140855000Y-81220750D01*
X140855000Y-81561309D01*
X140951673Y-81794698D01*
X141130301Y-81973327D01*
X141363690Y-82070000D01*
X141954250Y-82070000D01*
X142113000Y-81911250D01*
X142113000Y-81062000D01*
X141013750Y-81062000D01*
X140855000Y-81220750D01*
X139913835Y-81220750D01*
X139900315Y-80918542D01*
X139725259Y-80495920D01*
X139473958Y-80415647D01*
X138609605Y-81280000D01*
X138250395Y-81280000D01*
X137386042Y-80415647D01*
X137134741Y-80495920D01*
X137024046Y-80801071D01*
X136933592Y-80582694D01*
X136587306Y-80236408D01*
X136134861Y-80049000D01*
X135645139Y-80049000D01*
X135192694Y-80236408D01*
X134846408Y-80582694D01*
X134659000Y-81035139D01*
X134659000Y-81524861D01*
X134846408Y-81977306D01*
X135192694Y-82323592D01*
X135432687Y-82423000D01*
X133816723Y-82423000D01*
X134056716Y-82323592D01*
X134403002Y-81977306D01*
X134590410Y-81524861D01*
X134590410Y-81035139D01*
X134403002Y-80582694D01*
X134056716Y-80236408D01*
X133604271Y-80049000D01*
X133114549Y-80049000D01*
X132662104Y-80236408D01*
X132315818Y-80582694D01*
X132263708Y-80708500D01*
X131501282Y-80708500D01*
X131445000Y-80697305D01*
X131388718Y-80708500D01*
X131388714Y-80708500D01*
X131279354Y-80730253D01*
X132444060Y-79565548D01*
X132662104Y-79783592D01*
X133114549Y-79971000D01*
X133604271Y-79971000D01*
X134056716Y-79783592D01*
X134403002Y-79437306D01*
X134590410Y-78984861D01*
X134590410Y-78495139D01*
X134659000Y-78495139D01*
X134659000Y-78984861D01*
X134846408Y-79437306D01*
X135192694Y-79783592D01*
X135645139Y-79971000D01*
X136134861Y-79971000D01*
X136586422Y-79783958D01*
X137565647Y-79783958D01*
X137637852Y-80010000D01*
X137565647Y-80236042D01*
X138430000Y-81100395D01*
X139294353Y-80236042D01*
X139222148Y-80010000D01*
X139294353Y-79783958D01*
X138430000Y-78919605D01*
X137565647Y-79783958D01*
X136586422Y-79783958D01*
X136587306Y-79783592D01*
X136933592Y-79437306D01*
X137016195Y-79237884D01*
X137134741Y-79524080D01*
X137386042Y-79604353D01*
X138250395Y-78740000D01*
X138609605Y-78740000D01*
X139473958Y-79604353D01*
X139725259Y-79524080D01*
X139926718Y-78968721D01*
X139900315Y-78378542D01*
X139725259Y-77955920D01*
X139473958Y-77875647D01*
X138609605Y-78740000D01*
X138250395Y-78740000D01*
X137386042Y-77875647D01*
X137134741Y-77955920D01*
X137024046Y-78261071D01*
X136933592Y-78042694D01*
X136587306Y-77696408D01*
X136134861Y-77509000D01*
X135645139Y-77509000D01*
X135192694Y-77696408D01*
X134846408Y-78042694D01*
X134659000Y-78495139D01*
X134590410Y-78495139D01*
X134403002Y-78042694D01*
X134056716Y-77696408D01*
X133604271Y-77509000D01*
X133114549Y-77509000D01*
X132677674Y-77689959D01*
X132988743Y-77378890D01*
X133114549Y-77431000D01*
X133604271Y-77431000D01*
X134056716Y-77243592D01*
X134403002Y-76897306D01*
X134590410Y-76444861D01*
X134590410Y-75955139D01*
X134659000Y-75955139D01*
X134659000Y-76444861D01*
X134846408Y-76897306D01*
X135192694Y-77243592D01*
X135645139Y-77431000D01*
X136134861Y-77431000D01*
X136586422Y-77243958D01*
X137565647Y-77243958D01*
X137637852Y-77470000D01*
X137565647Y-77696042D01*
X138430000Y-78560395D01*
X139294353Y-77696042D01*
X139222148Y-77470000D01*
X139294353Y-77243958D01*
X138430000Y-76379605D01*
X137565647Y-77243958D01*
X136586422Y-77243958D01*
X136587306Y-77243592D01*
X136933592Y-76897306D01*
X137016195Y-76697884D01*
X137134741Y-76984080D01*
X137386042Y-77064353D01*
X138250395Y-76200000D01*
X138609605Y-76200000D01*
X139473958Y-77064353D01*
X139725259Y-76984080D01*
X139926718Y-76428721D01*
X139900315Y-75838542D01*
X139725259Y-75415920D01*
X139473958Y-75335647D01*
X138609605Y-76200000D01*
X138250395Y-76200000D01*
X137386042Y-75335647D01*
X137134741Y-75415920D01*
X137024046Y-75721071D01*
X136933592Y-75502694D01*
X136587306Y-75156408D01*
X136134861Y-74969000D01*
X135645139Y-74969000D01*
X135192694Y-75156408D01*
X134846408Y-75502694D01*
X134659000Y-75955139D01*
X134590410Y-75955139D01*
X134403002Y-75502694D01*
X134056716Y-75156408D01*
X133604271Y-74969000D01*
X133114549Y-74969000D01*
X132662104Y-75156408D01*
X132315818Y-75502694D01*
X132128410Y-75955139D01*
X132128410Y-76444861D01*
X132180520Y-76570667D01*
X129947688Y-78803500D01*
X123317000Y-78803500D01*
X123317000Y-73997421D01*
X123513835Y-73800586D01*
X123556247Y-73772247D01*
X123584586Y-73729835D01*
X123584588Y-73729833D01*
X123668525Y-73604212D01*
X123692300Y-73484686D01*
X123698000Y-73456032D01*
X123698000Y-73456028D01*
X123706133Y-73415139D01*
X132128410Y-73415139D01*
X132128410Y-73904861D01*
X132315818Y-74357306D01*
X132662104Y-74703592D01*
X133114549Y-74891000D01*
X133604271Y-74891000D01*
X134056716Y-74703592D01*
X134403002Y-74357306D01*
X134590410Y-73904861D01*
X134590410Y-73415139D01*
X134659000Y-73415139D01*
X134659000Y-73904861D01*
X134846408Y-74357306D01*
X135192694Y-74703592D01*
X135645139Y-74891000D01*
X136134861Y-74891000D01*
X136586422Y-74703958D01*
X137565647Y-74703958D01*
X137637852Y-74930000D01*
X137565647Y-75156042D01*
X138430000Y-76020395D01*
X139294353Y-75156042D01*
X139222148Y-74930000D01*
X139294353Y-74703958D01*
X138430000Y-73839605D01*
X137565647Y-74703958D01*
X136586422Y-74703958D01*
X136587306Y-74703592D01*
X136933592Y-74357306D01*
X137016195Y-74157884D01*
X137134741Y-74444080D01*
X137386042Y-74524353D01*
X138250395Y-73660000D01*
X138609605Y-73660000D01*
X139473958Y-74524353D01*
X139725259Y-74444080D01*
X139926718Y-73888721D01*
X139900315Y-73298542D01*
X139725259Y-72875920D01*
X139473958Y-72795647D01*
X138609605Y-73660000D01*
X138250395Y-73660000D01*
X137386042Y-72795647D01*
X137134741Y-72875920D01*
X137024046Y-73181071D01*
X136933592Y-72962694D01*
X136587306Y-72616408D01*
X136586423Y-72616042D01*
X137565647Y-72616042D01*
X138430000Y-73480395D01*
X139294353Y-72616042D01*
X139214080Y-72364741D01*
X138658721Y-72163282D01*
X138068542Y-72189685D01*
X137645920Y-72364741D01*
X137565647Y-72616042D01*
X136586423Y-72616042D01*
X136134861Y-72429000D01*
X135645139Y-72429000D01*
X135192694Y-72616408D01*
X134846408Y-72962694D01*
X134659000Y-73415139D01*
X134590410Y-73415139D01*
X134403002Y-72962694D01*
X134056716Y-72616408D01*
X133604271Y-72429000D01*
X133114549Y-72429000D01*
X132662104Y-72616408D01*
X132315818Y-72962694D01*
X132128410Y-73415139D01*
X123706133Y-73415139D01*
X123707951Y-73406000D01*
X123698000Y-73355972D01*
X123698000Y-72423269D01*
X124231279Y-72616718D01*
X124821458Y-72590315D01*
X125244080Y-72415259D01*
X125324353Y-72163958D01*
X124460000Y-71299605D01*
X124445858Y-71313748D01*
X124266253Y-71134143D01*
X124280395Y-71120000D01*
X124639605Y-71120000D01*
X125503958Y-71984353D01*
X125755259Y-71904080D01*
X125865954Y-71598929D01*
X125956408Y-71817306D01*
X126302694Y-72163592D01*
X126755139Y-72351000D01*
X127244861Y-72351000D01*
X127697306Y-72163592D01*
X128043592Y-71817306D01*
X128231000Y-71364861D01*
X128231000Y-70875139D01*
X128043592Y-70422694D01*
X127697306Y-70076408D01*
X127244861Y-69889000D01*
X126755139Y-69889000D01*
X126302694Y-70076408D01*
X125956408Y-70422694D01*
X125873805Y-70622116D01*
X125755259Y-70335920D01*
X125503958Y-70255647D01*
X124639605Y-71120000D01*
X124280395Y-71120000D01*
X124266253Y-71105858D01*
X124445858Y-70926253D01*
X124460000Y-70940395D01*
X125324353Y-70076042D01*
X125244080Y-69824741D01*
X124688721Y-69623282D01*
X124098542Y-69649685D01*
X123698000Y-69815595D01*
X123698000Y-66979028D01*
X123707951Y-66929000D01*
X123698000Y-66878972D01*
X123698000Y-66878968D01*
X123668525Y-66730788D01*
X123611554Y-66645525D01*
X123584588Y-66605167D01*
X123584586Y-66605165D01*
X123556247Y-66562753D01*
X123513835Y-66534415D01*
X123399784Y-66420363D01*
X123587576Y-66139312D01*
X123683116Y-65659000D01*
X123712884Y-65659000D01*
X123808424Y-66139312D01*
X124080499Y-66546501D01*
X124487688Y-66818576D01*
X124846761Y-66890000D01*
X125089239Y-66890000D01*
X125448312Y-66818576D01*
X125855501Y-66546501D01*
X126127576Y-66139312D01*
X126223116Y-65659000D01*
X126252884Y-65659000D01*
X126348424Y-66139312D01*
X126620499Y-66546501D01*
X127027688Y-66818576D01*
X127386761Y-66890000D01*
X127629239Y-66890000D01*
X127988312Y-66818576D01*
X128395501Y-66546501D01*
X128667576Y-66139312D01*
X128763116Y-65659000D01*
X128792884Y-65659000D01*
X128888424Y-66139312D01*
X129160499Y-66546501D01*
X129567688Y-66818576D01*
X129926761Y-66890000D01*
X130169239Y-66890000D01*
X130528312Y-66818576D01*
X130935501Y-66546501D01*
X131207576Y-66139312D01*
X131303116Y-65659000D01*
X131332884Y-65659000D01*
X131428424Y-66139312D01*
X131700499Y-66546501D01*
X132107688Y-66818576D01*
X132466761Y-66890000D01*
X132709239Y-66890000D01*
X133068312Y-66818576D01*
X133475501Y-66546501D01*
X133747576Y-66139312D01*
X133843116Y-65659000D01*
X133872884Y-65659000D01*
X133968424Y-66139312D01*
X134240499Y-66546501D01*
X134647688Y-66818576D01*
X135006761Y-66890000D01*
X135249239Y-66890000D01*
X135608312Y-66818576D01*
X136015501Y-66546501D01*
X136287576Y-66139312D01*
X136383116Y-65659000D01*
X136287576Y-65178688D01*
X136015501Y-64771499D01*
X135608312Y-64499424D01*
X135249239Y-64428000D01*
X135006761Y-64428000D01*
X134647688Y-64499424D01*
X134240499Y-64771499D01*
X133968424Y-65178688D01*
X133872884Y-65659000D01*
X133843116Y-65659000D01*
X133747576Y-65178688D01*
X133475501Y-64771499D01*
X133068312Y-64499424D01*
X132709239Y-64428000D01*
X132466761Y-64428000D01*
X132107688Y-64499424D01*
X131700499Y-64771499D01*
X131428424Y-65178688D01*
X131332884Y-65659000D01*
X131303116Y-65659000D01*
X131207576Y-65178688D01*
X130935501Y-64771499D01*
X130528312Y-64499424D01*
X130169239Y-64428000D01*
X129926761Y-64428000D01*
X129567688Y-64499424D01*
X129160499Y-64771499D01*
X128888424Y-65178688D01*
X128792884Y-65659000D01*
X128763116Y-65659000D01*
X128667576Y-65178688D01*
X128395501Y-64771499D01*
X127988312Y-64499424D01*
X127629239Y-64428000D01*
X127386761Y-64428000D01*
X127027688Y-64499424D01*
X126620499Y-64771499D01*
X126348424Y-65178688D01*
X126252884Y-65659000D01*
X126223116Y-65659000D01*
X126127576Y-65178688D01*
X125855501Y-64771499D01*
X125448312Y-64499424D01*
X125089239Y-64428000D01*
X124846761Y-64428000D01*
X124487688Y-64499424D01*
X124080499Y-64771499D01*
X123808424Y-65178688D01*
X123712884Y-65659000D01*
X123683116Y-65659000D01*
X123587576Y-65178688D01*
X123317000Y-64773742D01*
X123317000Y-64770000D01*
X123307333Y-64721399D01*
X123279803Y-64680197D01*
X123238601Y-64652667D01*
X123190000Y-64643000D01*
X123123189Y-64643000D01*
X122908312Y-64499424D01*
X122549239Y-64428000D01*
X122306761Y-64428000D01*
X121947688Y-64499424D01*
X121732811Y-64643000D01*
X120583189Y-64643000D01*
X120368312Y-64499424D01*
X120009239Y-64428000D01*
X119766761Y-64428000D01*
X119407688Y-64499424D01*
X119192811Y-64643000D01*
X118043189Y-64643000D01*
X117828312Y-64499424D01*
X117469239Y-64428000D01*
X117226761Y-64428000D01*
X116867688Y-64499424D01*
X116652811Y-64643000D01*
X115503189Y-64643000D01*
X115288312Y-64499424D01*
X114929239Y-64428000D01*
X114686761Y-64428000D01*
X114327688Y-64499424D01*
X114112811Y-64643000D01*
X112963189Y-64643000D01*
X112748312Y-64499424D01*
X112389239Y-64428000D01*
X112146761Y-64428000D01*
X111787688Y-64499424D01*
X111572811Y-64643000D01*
X110423189Y-64643000D01*
X110208312Y-64499424D01*
X109849239Y-64428000D01*
X109606761Y-64428000D01*
X109247688Y-64499424D01*
X109032811Y-64643000D01*
X107883189Y-64643000D01*
X107668312Y-64499424D01*
X107309239Y-64428000D01*
X107066761Y-64428000D01*
X106707688Y-64499424D01*
X106492811Y-64643000D01*
X105343189Y-64643000D01*
X105128312Y-64499424D01*
X104769239Y-64428000D01*
X104526761Y-64428000D01*
X104167688Y-64499424D01*
X103952811Y-64643000D01*
X102803189Y-64643000D01*
X102588312Y-64499424D01*
X102229239Y-64428000D01*
X101986761Y-64428000D01*
X101627688Y-64499424D01*
X101220499Y-64771499D01*
X100948424Y-65178688D01*
X100852884Y-65659000D01*
X100948424Y-66139312D01*
X101220499Y-66546501D01*
X101473000Y-66715217D01*
X101473000Y-67183000D01*
X96058223Y-67183000D01*
X96201911Y-67039312D01*
X96296340Y-66897989D01*
X96339770Y-66679650D01*
X96547688Y-66818576D01*
X96906761Y-66890000D01*
X97149239Y-66890000D01*
X97508312Y-66818576D01*
X97915501Y-66546501D01*
X98187576Y-66139312D01*
X98283116Y-65659000D01*
X98312884Y-65659000D01*
X98408424Y-66139312D01*
X98680499Y-66546501D01*
X99087688Y-66818576D01*
X99446761Y-66890000D01*
X99689239Y-66890000D01*
X100048312Y-66818576D01*
X100455501Y-66546501D01*
X100727576Y-66139312D01*
X100823116Y-65659000D01*
X100727576Y-65178688D01*
X100455501Y-64771499D01*
X100048312Y-64499424D01*
X99689239Y-64428000D01*
X99446761Y-64428000D01*
X99087688Y-64499424D01*
X98680499Y-64771499D01*
X98408424Y-65178688D01*
X98312884Y-65659000D01*
X98283116Y-65659000D01*
X98187576Y-65178688D01*
X97915501Y-64771499D01*
X97508312Y-64499424D01*
X97149239Y-64428000D01*
X96906761Y-64428000D01*
X96547688Y-64499424D01*
X96266000Y-64687642D01*
X96266000Y-64599420D01*
X96580348Y-64285072D01*
X96906761Y-64350000D01*
X97149239Y-64350000D01*
X97508312Y-64278576D01*
X97915501Y-64006501D01*
X98187576Y-63599312D01*
X98283116Y-63119000D01*
X98312884Y-63119000D01*
X98408424Y-63599312D01*
X98680499Y-64006501D01*
X99087688Y-64278576D01*
X99446761Y-64350000D01*
X99689239Y-64350000D01*
X100048312Y-64278576D01*
X100455501Y-64006501D01*
X100727576Y-63599312D01*
X100823116Y-63119000D01*
X100852884Y-63119000D01*
X100948424Y-63599312D01*
X101220499Y-64006501D01*
X101627688Y-64278576D01*
X101986761Y-64350000D01*
X102229239Y-64350000D01*
X102588312Y-64278576D01*
X102995501Y-64006501D01*
X103267576Y-63599312D01*
X103363116Y-63119000D01*
X103392884Y-63119000D01*
X103488424Y-63599312D01*
X103760499Y-64006501D01*
X104167688Y-64278576D01*
X104526761Y-64350000D01*
X104769239Y-64350000D01*
X105128312Y-64278576D01*
X105535501Y-64006501D01*
X105807576Y-63599312D01*
X105903116Y-63119000D01*
X105932884Y-63119000D01*
X106028424Y-63599312D01*
X106300499Y-64006501D01*
X106707688Y-64278576D01*
X107066761Y-64350000D01*
X107309239Y-64350000D01*
X107668312Y-64278576D01*
X108075501Y-64006501D01*
X108347576Y-63599312D01*
X108443116Y-63119000D01*
X108472884Y-63119000D01*
X108568424Y-63599312D01*
X108840499Y-64006501D01*
X109247688Y-64278576D01*
X109606761Y-64350000D01*
X109849239Y-64350000D01*
X110208312Y-64278576D01*
X110615501Y-64006501D01*
X110887576Y-63599312D01*
X110983116Y-63119000D01*
X111012884Y-63119000D01*
X111108424Y-63599312D01*
X111380499Y-64006501D01*
X111787688Y-64278576D01*
X112146761Y-64350000D01*
X112389239Y-64350000D01*
X112748312Y-64278576D01*
X113155501Y-64006501D01*
X113427576Y-63599312D01*
X113523116Y-63119000D01*
X113552884Y-63119000D01*
X113648424Y-63599312D01*
X113920499Y-64006501D01*
X114327688Y-64278576D01*
X114686761Y-64350000D01*
X114929239Y-64350000D01*
X115288312Y-64278576D01*
X115695501Y-64006501D01*
X115967576Y-63599312D01*
X116063116Y-63119000D01*
X116092884Y-63119000D01*
X116188424Y-63599312D01*
X116460499Y-64006501D01*
X116867688Y-64278576D01*
X117226761Y-64350000D01*
X117469239Y-64350000D01*
X117828312Y-64278576D01*
X118235501Y-64006501D01*
X118507576Y-63599312D01*
X118603116Y-63119000D01*
X118632884Y-63119000D01*
X118728424Y-63599312D01*
X119000499Y-64006501D01*
X119407688Y-64278576D01*
X119766761Y-64350000D01*
X120009239Y-64350000D01*
X120368312Y-64278576D01*
X120775501Y-64006501D01*
X121047576Y-63599312D01*
X121143116Y-63119000D01*
X121172884Y-63119000D01*
X121268424Y-63599312D01*
X121540499Y-64006501D01*
X121947688Y-64278576D01*
X122306761Y-64350000D01*
X122549239Y-64350000D01*
X122908312Y-64278576D01*
X123315501Y-64006501D01*
X123587576Y-63599312D01*
X123683116Y-63119000D01*
X123712884Y-63119000D01*
X123808424Y-63599312D01*
X124080499Y-64006501D01*
X124487688Y-64278576D01*
X124846761Y-64350000D01*
X125089239Y-64350000D01*
X125448312Y-64278576D01*
X125855501Y-64006501D01*
X126127576Y-63599312D01*
X126223116Y-63119000D01*
X126252884Y-63119000D01*
X126348424Y-63599312D01*
X126620499Y-64006501D01*
X127027688Y-64278576D01*
X127386761Y-64350000D01*
X127629239Y-64350000D01*
X127988312Y-64278576D01*
X128395501Y-64006501D01*
X128667576Y-63599312D01*
X128763116Y-63119000D01*
X128792884Y-63119000D01*
X128888424Y-63599312D01*
X129160499Y-64006501D01*
X129567688Y-64278576D01*
X129926761Y-64350000D01*
X130169239Y-64350000D01*
X130528312Y-64278576D01*
X130935501Y-64006501D01*
X131207576Y-63599312D01*
X131303116Y-63119000D01*
X131332884Y-63119000D01*
X131428424Y-63599312D01*
X131700499Y-64006501D01*
X132107688Y-64278576D01*
X132466761Y-64350000D01*
X132709239Y-64350000D01*
X133068312Y-64278576D01*
X133475501Y-64006501D01*
X133747576Y-63599312D01*
X133843116Y-63119000D01*
X133872884Y-63119000D01*
X133968424Y-63599312D01*
X134240499Y-64006501D01*
X134647688Y-64278576D01*
X135006761Y-64350000D01*
X135249239Y-64350000D01*
X135608312Y-64278576D01*
X136015501Y-64006501D01*
X136182257Y-63756933D01*
X137159000Y-63756933D01*
X137159000Y-64903067D01*
X137597606Y-65961955D01*
X138408045Y-66772394D01*
X139466933Y-67211000D01*
X140613067Y-67211000D01*
X141671955Y-66772394D01*
X142482394Y-65961955D01*
X142921000Y-64903067D01*
X142921000Y-63756933D01*
X142482394Y-62698045D01*
X141671955Y-61887606D01*
X140613067Y-61449000D01*
X139466933Y-61449000D01*
X138408045Y-61887606D01*
X137597606Y-62698045D01*
X137159000Y-63756933D01*
X136182257Y-63756933D01*
X136287576Y-63599312D01*
X136383116Y-63119000D01*
X136287576Y-62638688D01*
X136015501Y-62231499D01*
X135608312Y-61959424D01*
X135249239Y-61888000D01*
X135006761Y-61888000D01*
X134647688Y-61959424D01*
X134240499Y-62231499D01*
X133968424Y-62638688D01*
X133872884Y-63119000D01*
X133843116Y-63119000D01*
X133747576Y-62638688D01*
X133475501Y-62231499D01*
X133068312Y-61959424D01*
X132709239Y-61888000D01*
X132466761Y-61888000D01*
X132107688Y-61959424D01*
X131700499Y-62231499D01*
X131428424Y-62638688D01*
X131332884Y-63119000D01*
X131303116Y-63119000D01*
X131207576Y-62638688D01*
X130935501Y-62231499D01*
X130528312Y-61959424D01*
X130169239Y-61888000D01*
X129926761Y-61888000D01*
X129567688Y-61959424D01*
X129160499Y-62231499D01*
X128888424Y-62638688D01*
X128792884Y-63119000D01*
X128763116Y-63119000D01*
X128667576Y-62638688D01*
X128395501Y-62231499D01*
X127988312Y-61959424D01*
X127629239Y-61888000D01*
X127386761Y-61888000D01*
X127027688Y-61959424D01*
X126620499Y-62231499D01*
X126348424Y-62638688D01*
X126252884Y-63119000D01*
X126223116Y-63119000D01*
X126127576Y-62638688D01*
X125855501Y-62231499D01*
X125448312Y-61959424D01*
X125089239Y-61888000D01*
X124846761Y-61888000D01*
X124487688Y-61959424D01*
X124080499Y-62231499D01*
X123808424Y-62638688D01*
X123712884Y-63119000D01*
X123683116Y-63119000D01*
X123587576Y-62638688D01*
X123315501Y-62231499D01*
X122908312Y-61959424D01*
X122549239Y-61888000D01*
X122306761Y-61888000D01*
X121947688Y-61959424D01*
X121540499Y-62231499D01*
X121268424Y-62638688D01*
X121172884Y-63119000D01*
X121143116Y-63119000D01*
X121047576Y-62638688D01*
X120775501Y-62231499D01*
X120368312Y-61959424D01*
X120009239Y-61888000D01*
X119766761Y-61888000D01*
X119407688Y-61959424D01*
X119000499Y-62231499D01*
X118728424Y-62638688D01*
X118632884Y-63119000D01*
X118603116Y-63119000D01*
X118507576Y-62638688D01*
X118235501Y-62231499D01*
X117828312Y-61959424D01*
X117469239Y-61888000D01*
X117226761Y-61888000D01*
X116867688Y-61959424D01*
X116460499Y-62231499D01*
X116188424Y-62638688D01*
X116092884Y-63119000D01*
X116063116Y-63119000D01*
X115967576Y-62638688D01*
X115695501Y-62231499D01*
X115288312Y-61959424D01*
X114929239Y-61888000D01*
X114686761Y-61888000D01*
X114327688Y-61959424D01*
X113920499Y-62231499D01*
X113648424Y-62638688D01*
X113552884Y-63119000D01*
X113523116Y-63119000D01*
X113427576Y-62638688D01*
X113155501Y-62231499D01*
X112748312Y-61959424D01*
X112389239Y-61888000D01*
X112146761Y-61888000D01*
X111787688Y-61959424D01*
X111380499Y-62231499D01*
X111108424Y-62638688D01*
X111012884Y-63119000D01*
X110983116Y-63119000D01*
X110887576Y-62638688D01*
X110615501Y-62231499D01*
X110208312Y-61959424D01*
X109849239Y-61888000D01*
X109606761Y-61888000D01*
X109247688Y-61959424D01*
X108840499Y-62231499D01*
X108568424Y-62638688D01*
X108472884Y-63119000D01*
X108443116Y-63119000D01*
X108347576Y-62638688D01*
X108075501Y-62231499D01*
X107668312Y-61959424D01*
X107309239Y-61888000D01*
X107066761Y-61888000D01*
X106707688Y-61959424D01*
X106300499Y-62231499D01*
X106028424Y-62638688D01*
X105932884Y-63119000D01*
X105903116Y-63119000D01*
X105807576Y-62638688D01*
X105535501Y-62231499D01*
X105128312Y-61959424D01*
X104769239Y-61888000D01*
X104526761Y-61888000D01*
X104167688Y-61959424D01*
X103760499Y-62231499D01*
X103488424Y-62638688D01*
X103392884Y-63119000D01*
X103363116Y-63119000D01*
X103267576Y-62638688D01*
X102995501Y-62231499D01*
X102588312Y-61959424D01*
X102229239Y-61888000D01*
X101986761Y-61888000D01*
X101627688Y-61959424D01*
X101220499Y-62231499D01*
X100948424Y-62638688D01*
X100852884Y-63119000D01*
X100823116Y-63119000D01*
X100727576Y-62638688D01*
X100455501Y-62231499D01*
X100048312Y-61959424D01*
X99689239Y-61888000D01*
X99446761Y-61888000D01*
X99087688Y-61959424D01*
X98680499Y-62231499D01*
X98408424Y-62638688D01*
X98312884Y-63119000D01*
X98283116Y-63119000D01*
X98187576Y-62638688D01*
X97915501Y-62231499D01*
X97508312Y-61959424D01*
X97149239Y-61888000D01*
X96906761Y-61888000D01*
X96547688Y-61959424D01*
X96140499Y-62231499D01*
X95868424Y-62638688D01*
X95772884Y-63119000D01*
X95861928Y-63566652D01*
X95434168Y-63994412D01*
X95391753Y-64022753D01*
X95279475Y-64190789D01*
X95250000Y-64338969D01*
X95250000Y-64338972D01*
X95240049Y-64389000D01*
X95250000Y-64439028D01*
X95250000Y-64687642D01*
X94968312Y-64499424D01*
X94609239Y-64428000D01*
X94366761Y-64428000D01*
X94007688Y-64499424D01*
X93726000Y-64687642D01*
X93726000Y-64599420D01*
X94040348Y-64285072D01*
X94366761Y-64350000D01*
X94609239Y-64350000D01*
X94968312Y-64278576D01*
X95375501Y-64006501D01*
X95647576Y-63599312D01*
X95743116Y-63119000D01*
X95647576Y-62638688D01*
X95375501Y-62231499D01*
X94968312Y-61959424D01*
X94609239Y-61888000D01*
X94366761Y-61888000D01*
X94007688Y-61959424D01*
X93600499Y-62231499D01*
X93328424Y-62638688D01*
X93232884Y-63119000D01*
X93321928Y-63566652D01*
X92894168Y-63994412D01*
X92851753Y-64022753D01*
X92739475Y-64190789D01*
X92710000Y-64338969D01*
X92710000Y-64338972D01*
X92700049Y-64389000D01*
X92710000Y-64439028D01*
X92710000Y-64687642D01*
X92428312Y-64499424D01*
X92069239Y-64428000D01*
X91826761Y-64428000D01*
X91467688Y-64499424D01*
X91252811Y-64643000D01*
X90103189Y-64643000D01*
X89897492Y-64505558D01*
X90174918Y-64390637D01*
X90251688Y-64142293D01*
X89408000Y-63298605D01*
X88563842Y-64142763D01*
X88641076Y-64390645D01*
X88937233Y-64497525D01*
X88927688Y-64499424D01*
X88712811Y-64643000D01*
X88065307Y-64643000D01*
X87992686Y-64534314D01*
X87866659Y-64450106D01*
X87718000Y-64420536D01*
X87552098Y-64420536D01*
X87634924Y-64390645D01*
X87712158Y-64142763D01*
X86868000Y-63298605D01*
X86024312Y-64142293D01*
X86101082Y-64390637D01*
X86173260Y-64420536D01*
X86018000Y-64420536D01*
X85869341Y-64450106D01*
X85743314Y-64534314D01*
X85670693Y-64643000D01*
X85217000Y-64643000D01*
X85217000Y-62897092D01*
X85399664Y-62897092D01*
X85426514Y-63475892D01*
X85596363Y-63885918D01*
X85844707Y-63962688D01*
X86688395Y-63119000D01*
X87047605Y-63119000D01*
X87891763Y-63963158D01*
X88138000Y-63886437D01*
X88384237Y-63963158D01*
X89228395Y-63119000D01*
X89587605Y-63119000D01*
X90431293Y-63962688D01*
X90679637Y-63885918D01*
X90794558Y-63608492D01*
X91060499Y-64006501D01*
X91467688Y-64278576D01*
X91826761Y-64350000D01*
X92069239Y-64350000D01*
X92428312Y-64278576D01*
X92835501Y-64006501D01*
X93107576Y-63599312D01*
X93203116Y-63119000D01*
X93107576Y-62638688D01*
X92835501Y-62231499D01*
X92428312Y-61959424D01*
X92069239Y-61888000D01*
X91826761Y-61888000D01*
X91467688Y-61959424D01*
X91060499Y-62231499D01*
X90788424Y-62638688D01*
X90786525Y-62648233D01*
X90679645Y-62352076D01*
X90431763Y-62274842D01*
X89587605Y-63119000D01*
X89228395Y-63119000D01*
X88384707Y-62275312D01*
X88138000Y-62351576D01*
X87891293Y-62275312D01*
X87047605Y-63119000D01*
X86688395Y-63119000D01*
X85844237Y-62274842D01*
X85596355Y-62352076D01*
X85399664Y-62897092D01*
X85217000Y-62897092D01*
X85217000Y-62095237D01*
X86023842Y-62095237D01*
X86868000Y-62939395D01*
X87711688Y-62095707D01*
X88564312Y-62095707D01*
X89408000Y-62939395D01*
X90252158Y-62095237D01*
X90174924Y-61847355D01*
X89629908Y-61650664D01*
X89051108Y-61677514D01*
X88641082Y-61847363D01*
X88564312Y-62095707D01*
X87711688Y-62095707D01*
X87634918Y-61847363D01*
X87224892Y-61677514D01*
X86646092Y-61650664D01*
X86101076Y-61847355D01*
X86023842Y-62095237D01*
X85217000Y-62095237D01*
X85217000Y-61121611D01*
X140528692Y-61121611D01*
X141166098Y-61195925D01*
X141166098Y-61195925D01*
G37*
X141166098Y-61195925D02*
X141752592Y-61408812D01*
X142274385Y-61750915D01*
X142703477Y-62203874D01*
X143016862Y-62743405D01*
X143198928Y-63344540D01*
X143242357Y-63831156D01*
X143242357Y-78295394D01*
X143138659Y-78226106D01*
X142990000Y-78196536D01*
X142938500Y-78196536D01*
X142938500Y-77966060D01*
X142832159Y-77709332D01*
X142635668Y-77512841D01*
X142378940Y-77406500D01*
X142101060Y-77406500D01*
X141844332Y-77512841D01*
X141647841Y-77709332D01*
X141541500Y-77966060D01*
X141541500Y-78196536D01*
X141490000Y-78196536D01*
X141341341Y-78226106D01*
X141215314Y-78310314D01*
X141131106Y-78436341D01*
X141101536Y-78585000D01*
X141101536Y-79585000D01*
X141131106Y-79733659D01*
X141215314Y-79859686D01*
X141216952Y-79860781D01*
X141130301Y-79896673D01*
X140951673Y-80075302D01*
X140855000Y-80308691D01*
X140855000Y-80649250D01*
X141013750Y-80808000D01*
X142113000Y-80808000D01*
X142113000Y-80788000D01*
X142367000Y-80788000D01*
X142367000Y-80808000D01*
X142387000Y-80808000D01*
X142387000Y-81062000D01*
X142367000Y-81062000D01*
X142367000Y-81911250D01*
X142525750Y-82070000D01*
X143116310Y-82070000D01*
X143242357Y-82017790D01*
X143242357Y-82423000D01*
X139262716Y-82423000D01*
X139294353Y-82323958D01*
X138430000Y-81459605D01*
X137565647Y-82323958D01*
X137597284Y-82423000D01*
X136347313Y-82423000D01*
X136587306Y-82323592D01*
X136933592Y-81977306D01*
X137016195Y-81777884D01*
X137134741Y-82064080D01*
X137386042Y-82144353D01*
X138250395Y-81280000D01*
X138609605Y-81280000D01*
X139473958Y-82144353D01*
X139725259Y-82064080D01*
X139926718Y-81508721D01*
X139913835Y-81220750D01*
X140855000Y-81220750D01*
X140855000Y-81561309D01*
X140951673Y-81794698D01*
X141130301Y-81973327D01*
X141363690Y-82070000D01*
X141954250Y-82070000D01*
X142113000Y-81911250D01*
X142113000Y-81062000D01*
X141013750Y-81062000D01*
X140855000Y-81220750D01*
X139913835Y-81220750D01*
X139900315Y-80918542D01*
X139725259Y-80495920D01*
X139473958Y-80415647D01*
X138609605Y-81280000D01*
X138250395Y-81280000D01*
X137386042Y-80415647D01*
X137134741Y-80495920D01*
X137024046Y-80801071D01*
X136933592Y-80582694D01*
X136587306Y-80236408D01*
X136134861Y-80049000D01*
X135645139Y-80049000D01*
X135192694Y-80236408D01*
X134846408Y-80582694D01*
X134659000Y-81035139D01*
X134659000Y-81524861D01*
X134846408Y-81977306D01*
X135192694Y-82323592D01*
X135432687Y-82423000D01*
X133816723Y-82423000D01*
X134056716Y-82323592D01*
X134403002Y-81977306D01*
X134590410Y-81524861D01*
X134590410Y-81035139D01*
X134403002Y-80582694D01*
X134056716Y-80236408D01*
X133604271Y-80049000D01*
X133114549Y-80049000D01*
X132662104Y-80236408D01*
X132315818Y-80582694D01*
X132263708Y-80708500D01*
X131501282Y-80708500D01*
X131445000Y-80697305D01*
X131388718Y-80708500D01*
X131388714Y-80708500D01*
X131279354Y-80730253D01*
X132444060Y-79565548D01*
X132662104Y-79783592D01*
X133114549Y-79971000D01*
X133604271Y-79971000D01*
X134056716Y-79783592D01*
X134403002Y-79437306D01*
X134590410Y-78984861D01*
X134590410Y-78495139D01*
X134659000Y-78495139D01*
X134659000Y-78984861D01*
X134846408Y-79437306D01*
X135192694Y-79783592D01*
X135645139Y-79971000D01*
X136134861Y-79971000D01*
X136586422Y-79783958D01*
X137565647Y-79783958D01*
X137637852Y-80010000D01*
X137565647Y-80236042D01*
X138430000Y-81100395D01*
X139294353Y-80236042D01*
X139222148Y-80010000D01*
X139294353Y-79783958D01*
X138430000Y-78919605D01*
X137565647Y-79783958D01*
X136586422Y-79783958D01*
X136587306Y-79783592D01*
X136933592Y-79437306D01*
X137016195Y-79237884D01*
X137134741Y-79524080D01*
X137386042Y-79604353D01*
X138250395Y-78740000D01*
X138609605Y-78740000D01*
X139473958Y-79604353D01*
X139725259Y-79524080D01*
X139926718Y-78968721D01*
X139900315Y-78378542D01*
X139725259Y-77955920D01*
X139473958Y-77875647D01*
X138609605Y-78740000D01*
X138250395Y-78740000D01*
X137386042Y-77875647D01*
X137134741Y-77955920D01*
X137024046Y-78261071D01*
X136933592Y-78042694D01*
X136587306Y-77696408D01*
X136134861Y-77509000D01*
X135645139Y-77509000D01*
X135192694Y-77696408D01*
X134846408Y-78042694D01*
X134659000Y-78495139D01*
X134590410Y-78495139D01*
X134403002Y-78042694D01*
X134056716Y-77696408D01*
X133604271Y-77509000D01*
X133114549Y-77509000D01*
X132677674Y-77689959D01*
X132988743Y-77378890D01*
X133114549Y-77431000D01*
X133604271Y-77431000D01*
X134056716Y-77243592D01*
X134403002Y-76897306D01*
X134590410Y-76444861D01*
X134590410Y-75955139D01*
X134659000Y-75955139D01*
X134659000Y-76444861D01*
X134846408Y-76897306D01*
X135192694Y-77243592D01*
X135645139Y-77431000D01*
X136134861Y-77431000D01*
X136586422Y-77243958D01*
X137565647Y-77243958D01*
X137637852Y-77470000D01*
X137565647Y-77696042D01*
X138430000Y-78560395D01*
X139294353Y-77696042D01*
X139222148Y-77470000D01*
X139294353Y-77243958D01*
X138430000Y-76379605D01*
X137565647Y-77243958D01*
X136586422Y-77243958D01*
X136587306Y-77243592D01*
X136933592Y-76897306D01*
X137016195Y-76697884D01*
X137134741Y-76984080D01*
X137386042Y-77064353D01*
X138250395Y-76200000D01*
X138609605Y-76200000D01*
X139473958Y-77064353D01*
X139725259Y-76984080D01*
X139926718Y-76428721D01*
X139900315Y-75838542D01*
X139725259Y-75415920D01*
X139473958Y-75335647D01*
X138609605Y-76200000D01*
X138250395Y-76200000D01*
X137386042Y-75335647D01*
X137134741Y-75415920D01*
X137024046Y-75721071D01*
X136933592Y-75502694D01*
X136587306Y-75156408D01*
X136134861Y-74969000D01*
X135645139Y-74969000D01*
X135192694Y-75156408D01*
X134846408Y-75502694D01*
X134659000Y-75955139D01*
X134590410Y-75955139D01*
X134403002Y-75502694D01*
X134056716Y-75156408D01*
X133604271Y-74969000D01*
X133114549Y-74969000D01*
X132662104Y-75156408D01*
X132315818Y-75502694D01*
X132128410Y-75955139D01*
X132128410Y-76444861D01*
X132180520Y-76570667D01*
X129947688Y-78803500D01*
X123317000Y-78803500D01*
X123317000Y-73997421D01*
X123513835Y-73800586D01*
X123556247Y-73772247D01*
X123584586Y-73729835D01*
X123584588Y-73729833D01*
X123668525Y-73604212D01*
X123692300Y-73484686D01*
X123698000Y-73456032D01*
X123698000Y-73456028D01*
X123706133Y-73415139D01*
X132128410Y-73415139D01*
X132128410Y-73904861D01*
X132315818Y-74357306D01*
X132662104Y-74703592D01*
X133114549Y-74891000D01*
X133604271Y-74891000D01*
X134056716Y-74703592D01*
X134403002Y-74357306D01*
X134590410Y-73904861D01*
X134590410Y-73415139D01*
X134659000Y-73415139D01*
X134659000Y-73904861D01*
X134846408Y-74357306D01*
X135192694Y-74703592D01*
X135645139Y-74891000D01*
X136134861Y-74891000D01*
X136586422Y-74703958D01*
X137565647Y-74703958D01*
X137637852Y-74930000D01*
X137565647Y-75156042D01*
X138430000Y-76020395D01*
X139294353Y-75156042D01*
X139222148Y-74930000D01*
X139294353Y-74703958D01*
X138430000Y-73839605D01*
X137565647Y-74703958D01*
X136586422Y-74703958D01*
X136587306Y-74703592D01*
X136933592Y-74357306D01*
X137016195Y-74157884D01*
X137134741Y-74444080D01*
X137386042Y-74524353D01*
X138250395Y-73660000D01*
X138609605Y-73660000D01*
X139473958Y-74524353D01*
X139725259Y-74444080D01*
X139926718Y-73888721D01*
X139900315Y-73298542D01*
X139725259Y-72875920D01*
X139473958Y-72795647D01*
X138609605Y-73660000D01*
X138250395Y-73660000D01*
X137386042Y-72795647D01*
X137134741Y-72875920D01*
X137024046Y-73181071D01*
X136933592Y-72962694D01*
X136587306Y-72616408D01*
X136586423Y-72616042D01*
X137565647Y-72616042D01*
X138430000Y-73480395D01*
X139294353Y-72616042D01*
X139214080Y-72364741D01*
X138658721Y-72163282D01*
X138068542Y-72189685D01*
X137645920Y-72364741D01*
X137565647Y-72616042D01*
X136586423Y-72616042D01*
X136134861Y-72429000D01*
X135645139Y-72429000D01*
X135192694Y-72616408D01*
X134846408Y-72962694D01*
X134659000Y-73415139D01*
X134590410Y-73415139D01*
X134403002Y-72962694D01*
X134056716Y-72616408D01*
X133604271Y-72429000D01*
X133114549Y-72429000D01*
X132662104Y-72616408D01*
X132315818Y-72962694D01*
X132128410Y-73415139D01*
X123706133Y-73415139D01*
X123707951Y-73406000D01*
X123698000Y-73355972D01*
X123698000Y-72423269D01*
X124231279Y-72616718D01*
X124821458Y-72590315D01*
X125244080Y-72415259D01*
X125324353Y-72163958D01*
X124460000Y-71299605D01*
X124445858Y-71313748D01*
X124266253Y-71134143D01*
X124280395Y-71120000D01*
X124639605Y-71120000D01*
X125503958Y-71984353D01*
X125755259Y-71904080D01*
X125865954Y-71598929D01*
X125956408Y-71817306D01*
X126302694Y-72163592D01*
X126755139Y-72351000D01*
X127244861Y-72351000D01*
X127697306Y-72163592D01*
X128043592Y-71817306D01*
X128231000Y-71364861D01*
X128231000Y-70875139D01*
X128043592Y-70422694D01*
X127697306Y-70076408D01*
X127244861Y-69889000D01*
X126755139Y-69889000D01*
X126302694Y-70076408D01*
X125956408Y-70422694D01*
X125873805Y-70622116D01*
X125755259Y-70335920D01*
X125503958Y-70255647D01*
X124639605Y-71120000D01*
X124280395Y-71120000D01*
X124266253Y-71105858D01*
X124445858Y-70926253D01*
X124460000Y-70940395D01*
X125324353Y-70076042D01*
X125244080Y-69824741D01*
X124688721Y-69623282D01*
X124098542Y-69649685D01*
X123698000Y-69815595D01*
X123698000Y-66979028D01*
X123707951Y-66929000D01*
X123698000Y-66878972D01*
X123698000Y-66878968D01*
X123668525Y-66730788D01*
X123611554Y-66645525D01*
X123584588Y-66605167D01*
X123584586Y-66605165D01*
X123556247Y-66562753D01*
X123513835Y-66534415D01*
X123399784Y-66420363D01*
X123587576Y-66139312D01*
X123683116Y-65659000D01*
X123712884Y-65659000D01*
X123808424Y-66139312D01*
X124080499Y-66546501D01*
X124487688Y-66818576D01*
X124846761Y-66890000D01*
X125089239Y-66890000D01*
X125448312Y-66818576D01*
X125855501Y-66546501D01*
X126127576Y-66139312D01*
X126223116Y-65659000D01*
X126252884Y-65659000D01*
X126348424Y-66139312D01*
X126620499Y-66546501D01*
X127027688Y-66818576D01*
X127386761Y-66890000D01*
X127629239Y-66890000D01*
X127988312Y-66818576D01*
X128395501Y-66546501D01*
X128667576Y-66139312D01*
X128763116Y-65659000D01*
X128792884Y-65659000D01*
X128888424Y-66139312D01*
X129160499Y-66546501D01*
X129567688Y-66818576D01*
X129926761Y-66890000D01*
X130169239Y-66890000D01*
X130528312Y-66818576D01*
X130935501Y-66546501D01*
X131207576Y-66139312D01*
X131303116Y-65659000D01*
X131332884Y-65659000D01*
X131428424Y-66139312D01*
X131700499Y-66546501D01*
X132107688Y-66818576D01*
X132466761Y-66890000D01*
X132709239Y-66890000D01*
X133068312Y-66818576D01*
X133475501Y-66546501D01*
X133747576Y-66139312D01*
X133843116Y-65659000D01*
X133872884Y-65659000D01*
X133968424Y-66139312D01*
X134240499Y-66546501D01*
X134647688Y-66818576D01*
X135006761Y-66890000D01*
X135249239Y-66890000D01*
X135608312Y-66818576D01*
X136015501Y-66546501D01*
X136287576Y-66139312D01*
X136383116Y-65659000D01*
X136287576Y-65178688D01*
X136015501Y-64771499D01*
X135608312Y-64499424D01*
X135249239Y-64428000D01*
X135006761Y-64428000D01*
X134647688Y-64499424D01*
X134240499Y-64771499D01*
X133968424Y-65178688D01*
X133872884Y-65659000D01*
X133843116Y-65659000D01*
X133747576Y-65178688D01*
X133475501Y-64771499D01*
X133068312Y-64499424D01*
X132709239Y-64428000D01*
X132466761Y-64428000D01*
X132107688Y-64499424D01*
X131700499Y-64771499D01*
X131428424Y-65178688D01*
X131332884Y-65659000D01*
X131303116Y-65659000D01*
X131207576Y-65178688D01*
X130935501Y-64771499D01*
X130528312Y-64499424D01*
X130169239Y-64428000D01*
X129926761Y-64428000D01*
X129567688Y-64499424D01*
X129160499Y-64771499D01*
X128888424Y-65178688D01*
X128792884Y-65659000D01*
X128763116Y-65659000D01*
X128667576Y-65178688D01*
X128395501Y-64771499D01*
X127988312Y-64499424D01*
X127629239Y-64428000D01*
X127386761Y-64428000D01*
X127027688Y-64499424D01*
X126620499Y-64771499D01*
X126348424Y-65178688D01*
X126252884Y-65659000D01*
X126223116Y-65659000D01*
X126127576Y-65178688D01*
X125855501Y-64771499D01*
X125448312Y-64499424D01*
X125089239Y-64428000D01*
X124846761Y-64428000D01*
X124487688Y-64499424D01*
X124080499Y-64771499D01*
X123808424Y-65178688D01*
X123712884Y-65659000D01*
X123683116Y-65659000D01*
X123587576Y-65178688D01*
X123317000Y-64773742D01*
X123317000Y-64770000D01*
X123307333Y-64721399D01*
X123279803Y-64680197D01*
X123238601Y-64652667D01*
X123190000Y-64643000D01*
X123123189Y-64643000D01*
X122908312Y-64499424D01*
X122549239Y-64428000D01*
X122306761Y-64428000D01*
X121947688Y-64499424D01*
X121732811Y-64643000D01*
X120583189Y-64643000D01*
X120368312Y-64499424D01*
X120009239Y-64428000D01*
X119766761Y-64428000D01*
X119407688Y-64499424D01*
X119192811Y-64643000D01*
X118043189Y-64643000D01*
X117828312Y-64499424D01*
X117469239Y-64428000D01*
X117226761Y-64428000D01*
X116867688Y-64499424D01*
X116652811Y-64643000D01*
X115503189Y-64643000D01*
X115288312Y-64499424D01*
X114929239Y-64428000D01*
X114686761Y-64428000D01*
X114327688Y-64499424D01*
X114112811Y-64643000D01*
X112963189Y-64643000D01*
X112748312Y-64499424D01*
X112389239Y-64428000D01*
X112146761Y-64428000D01*
X111787688Y-64499424D01*
X111572811Y-64643000D01*
X110423189Y-64643000D01*
X110208312Y-64499424D01*
X109849239Y-64428000D01*
X109606761Y-64428000D01*
X109247688Y-64499424D01*
X109032811Y-64643000D01*
X107883189Y-64643000D01*
X107668312Y-64499424D01*
X107309239Y-64428000D01*
X107066761Y-64428000D01*
X106707688Y-64499424D01*
X106492811Y-64643000D01*
X105343189Y-64643000D01*
X105128312Y-64499424D01*
X104769239Y-64428000D01*
X104526761Y-64428000D01*
X104167688Y-64499424D01*
X103952811Y-64643000D01*
X102803189Y-64643000D01*
X102588312Y-64499424D01*
X102229239Y-64428000D01*
X101986761Y-64428000D01*
X101627688Y-64499424D01*
X101220499Y-64771499D01*
X100948424Y-65178688D01*
X100852884Y-65659000D01*
X100948424Y-66139312D01*
X101220499Y-66546501D01*
X101473000Y-66715217D01*
X101473000Y-67183000D01*
X96058223Y-67183000D01*
X96201911Y-67039312D01*
X96296340Y-66897989D01*
X96339770Y-66679650D01*
X96547688Y-66818576D01*
X96906761Y-66890000D01*
X97149239Y-66890000D01*
X97508312Y-66818576D01*
X97915501Y-66546501D01*
X98187576Y-66139312D01*
X98283116Y-65659000D01*
X98312884Y-65659000D01*
X98408424Y-66139312D01*
X98680499Y-66546501D01*
X99087688Y-66818576D01*
X99446761Y-66890000D01*
X99689239Y-66890000D01*
X100048312Y-66818576D01*
X100455501Y-66546501D01*
X100727576Y-66139312D01*
X100823116Y-65659000D01*
X100727576Y-65178688D01*
X100455501Y-64771499D01*
X100048312Y-64499424D01*
X99689239Y-64428000D01*
X99446761Y-64428000D01*
X99087688Y-64499424D01*
X98680499Y-64771499D01*
X98408424Y-65178688D01*
X98312884Y-65659000D01*
X98283116Y-65659000D01*
X98187576Y-65178688D01*
X97915501Y-64771499D01*
X97508312Y-64499424D01*
X97149239Y-64428000D01*
X96906761Y-64428000D01*
X96547688Y-64499424D01*
X96266000Y-64687642D01*
X96266000Y-64599420D01*
X96580348Y-64285072D01*
X96906761Y-64350000D01*
X97149239Y-64350000D01*
X97508312Y-64278576D01*
X97915501Y-64006501D01*
X98187576Y-63599312D01*
X98283116Y-63119000D01*
X98312884Y-63119000D01*
X98408424Y-63599312D01*
X98680499Y-64006501D01*
X99087688Y-64278576D01*
X99446761Y-64350000D01*
X99689239Y-64350000D01*
X100048312Y-64278576D01*
X100455501Y-64006501D01*
X100727576Y-63599312D01*
X100823116Y-63119000D01*
X100852884Y-63119000D01*
X100948424Y-63599312D01*
X101220499Y-64006501D01*
X101627688Y-64278576D01*
X101986761Y-64350000D01*
X102229239Y-64350000D01*
X102588312Y-64278576D01*
X102995501Y-64006501D01*
X103267576Y-63599312D01*
X103363116Y-63119000D01*
X103392884Y-63119000D01*
X103488424Y-63599312D01*
X103760499Y-64006501D01*
X104167688Y-64278576D01*
X104526761Y-64350000D01*
X104769239Y-64350000D01*
X105128312Y-64278576D01*
X105535501Y-64006501D01*
X105807576Y-63599312D01*
X105903116Y-63119000D01*
X105932884Y-63119000D01*
X106028424Y-63599312D01*
X106300499Y-64006501D01*
X106707688Y-64278576D01*
X107066761Y-64350000D01*
X107309239Y-64350000D01*
X107668312Y-64278576D01*
X108075501Y-64006501D01*
X108347576Y-63599312D01*
X108443116Y-63119000D01*
X108472884Y-63119000D01*
X108568424Y-63599312D01*
X108840499Y-64006501D01*
X109247688Y-64278576D01*
X109606761Y-64350000D01*
X109849239Y-64350000D01*
X110208312Y-64278576D01*
X110615501Y-64006501D01*
X110887576Y-63599312D01*
X110983116Y-63119000D01*
X111012884Y-63119000D01*
X111108424Y-63599312D01*
X111380499Y-64006501D01*
X111787688Y-64278576D01*
X112146761Y-64350000D01*
X112389239Y-64350000D01*
X112748312Y-64278576D01*
X113155501Y-64006501D01*
X113427576Y-63599312D01*
X113523116Y-63119000D01*
X113552884Y-63119000D01*
X113648424Y-63599312D01*
X113920499Y-64006501D01*
X114327688Y-64278576D01*
X114686761Y-64350000D01*
X114929239Y-64350000D01*
X115288312Y-64278576D01*
X115695501Y-64006501D01*
X115967576Y-63599312D01*
X116063116Y-63119000D01*
X116092884Y-63119000D01*
X116188424Y-63599312D01*
X116460499Y-64006501D01*
X116867688Y-64278576D01*
X117226761Y-64350000D01*
X117469239Y-64350000D01*
X117828312Y-64278576D01*
X118235501Y-64006501D01*
X118507576Y-63599312D01*
X118603116Y-63119000D01*
X118632884Y-63119000D01*
X118728424Y-63599312D01*
X119000499Y-64006501D01*
X119407688Y-64278576D01*
X119766761Y-64350000D01*
X120009239Y-64350000D01*
X120368312Y-64278576D01*
X120775501Y-64006501D01*
X121047576Y-63599312D01*
X121143116Y-63119000D01*
X121172884Y-63119000D01*
X121268424Y-63599312D01*
X121540499Y-64006501D01*
X121947688Y-64278576D01*
X122306761Y-64350000D01*
X122549239Y-64350000D01*
X122908312Y-64278576D01*
X123315501Y-64006501D01*
X123587576Y-63599312D01*
X123683116Y-63119000D01*
X123712884Y-63119000D01*
X123808424Y-63599312D01*
X124080499Y-64006501D01*
X124487688Y-64278576D01*
X124846761Y-64350000D01*
X125089239Y-64350000D01*
X125448312Y-64278576D01*
X125855501Y-64006501D01*
X126127576Y-63599312D01*
X126223116Y-63119000D01*
X126252884Y-63119000D01*
X126348424Y-63599312D01*
X126620499Y-64006501D01*
X127027688Y-64278576D01*
X127386761Y-64350000D01*
X127629239Y-64350000D01*
X127988312Y-64278576D01*
X128395501Y-64006501D01*
X128667576Y-63599312D01*
X128763116Y-63119000D01*
X128792884Y-63119000D01*
X128888424Y-63599312D01*
X129160499Y-64006501D01*
X129567688Y-64278576D01*
X129926761Y-64350000D01*
X130169239Y-64350000D01*
X130528312Y-64278576D01*
X130935501Y-64006501D01*
X131207576Y-63599312D01*
X131303116Y-63119000D01*
X131332884Y-63119000D01*
X131428424Y-63599312D01*
X131700499Y-64006501D01*
X132107688Y-64278576D01*
X132466761Y-64350000D01*
X132709239Y-64350000D01*
X133068312Y-64278576D01*
X133475501Y-64006501D01*
X133747576Y-63599312D01*
X133843116Y-63119000D01*
X133872884Y-63119000D01*
X133968424Y-63599312D01*
X134240499Y-64006501D01*
X134647688Y-64278576D01*
X135006761Y-64350000D01*
X135249239Y-64350000D01*
X135608312Y-64278576D01*
X136015501Y-64006501D01*
X136182257Y-63756933D01*
X137159000Y-63756933D01*
X137159000Y-64903067D01*
X137597606Y-65961955D01*
X138408045Y-66772394D01*
X139466933Y-67211000D01*
X140613067Y-67211000D01*
X141671955Y-66772394D01*
X142482394Y-65961955D01*
X142921000Y-64903067D01*
X142921000Y-63756933D01*
X142482394Y-62698045D01*
X141671955Y-61887606D01*
X140613067Y-61449000D01*
X139466933Y-61449000D01*
X138408045Y-61887606D01*
X137597606Y-62698045D01*
X137159000Y-63756933D01*
X136182257Y-63756933D01*
X136287576Y-63599312D01*
X136383116Y-63119000D01*
X136287576Y-62638688D01*
X136015501Y-62231499D01*
X135608312Y-61959424D01*
X135249239Y-61888000D01*
X135006761Y-61888000D01*
X134647688Y-61959424D01*
X134240499Y-62231499D01*
X133968424Y-62638688D01*
X133872884Y-63119000D01*
X133843116Y-63119000D01*
X133747576Y-62638688D01*
X133475501Y-62231499D01*
X133068312Y-61959424D01*
X132709239Y-61888000D01*
X132466761Y-61888000D01*
X132107688Y-61959424D01*
X131700499Y-62231499D01*
X131428424Y-62638688D01*
X131332884Y-63119000D01*
X131303116Y-63119000D01*
X131207576Y-62638688D01*
X130935501Y-62231499D01*
X130528312Y-61959424D01*
X130169239Y-61888000D01*
X129926761Y-61888000D01*
X129567688Y-61959424D01*
X129160499Y-62231499D01*
X128888424Y-62638688D01*
X128792884Y-63119000D01*
X128763116Y-63119000D01*
X128667576Y-62638688D01*
X128395501Y-62231499D01*
X127988312Y-61959424D01*
X127629239Y-61888000D01*
X127386761Y-61888000D01*
X127027688Y-61959424D01*
X126620499Y-62231499D01*
X126348424Y-62638688D01*
X126252884Y-63119000D01*
X126223116Y-63119000D01*
X126127576Y-62638688D01*
X125855501Y-62231499D01*
X125448312Y-61959424D01*
X125089239Y-61888000D01*
X124846761Y-61888000D01*
X124487688Y-61959424D01*
X124080499Y-62231499D01*
X123808424Y-62638688D01*
X123712884Y-63119000D01*
X123683116Y-63119000D01*
X123587576Y-62638688D01*
X123315501Y-62231499D01*
X122908312Y-61959424D01*
X122549239Y-61888000D01*
X122306761Y-61888000D01*
X121947688Y-61959424D01*
X121540499Y-62231499D01*
X121268424Y-62638688D01*
X121172884Y-63119000D01*
X121143116Y-63119000D01*
X121047576Y-62638688D01*
X120775501Y-62231499D01*
X120368312Y-61959424D01*
X120009239Y-61888000D01*
X119766761Y-61888000D01*
X119407688Y-61959424D01*
X119000499Y-62231499D01*
X118728424Y-62638688D01*
X118632884Y-63119000D01*
X118603116Y-63119000D01*
X118507576Y-62638688D01*
X118235501Y-62231499D01*
X117828312Y-61959424D01*
X117469239Y-61888000D01*
X117226761Y-61888000D01*
X116867688Y-61959424D01*
X116460499Y-62231499D01*
X116188424Y-62638688D01*
X116092884Y-63119000D01*
X116063116Y-63119000D01*
X115967576Y-62638688D01*
X115695501Y-62231499D01*
X115288312Y-61959424D01*
X114929239Y-61888000D01*
X114686761Y-61888000D01*
X114327688Y-61959424D01*
X113920499Y-62231499D01*
X113648424Y-62638688D01*
X113552884Y-63119000D01*
X113523116Y-63119000D01*
X113427576Y-62638688D01*
X113155501Y-62231499D01*
X112748312Y-61959424D01*
X112389239Y-61888000D01*
X112146761Y-61888000D01*
X111787688Y-61959424D01*
X111380499Y-62231499D01*
X111108424Y-62638688D01*
X111012884Y-63119000D01*
X110983116Y-63119000D01*
X110887576Y-62638688D01*
X110615501Y-62231499D01*
X110208312Y-61959424D01*
X109849239Y-61888000D01*
X109606761Y-61888000D01*
X109247688Y-61959424D01*
X108840499Y-62231499D01*
X108568424Y-62638688D01*
X108472884Y-63119000D01*
X108443116Y-63119000D01*
X108347576Y-62638688D01*
X108075501Y-62231499D01*
X107668312Y-61959424D01*
X107309239Y-61888000D01*
X107066761Y-61888000D01*
X106707688Y-61959424D01*
X106300499Y-62231499D01*
X106028424Y-62638688D01*
X105932884Y-63119000D01*
X105903116Y-63119000D01*
X105807576Y-62638688D01*
X105535501Y-62231499D01*
X105128312Y-61959424D01*
X104769239Y-61888000D01*
X104526761Y-61888000D01*
X104167688Y-61959424D01*
X103760499Y-62231499D01*
X103488424Y-62638688D01*
X103392884Y-63119000D01*
X103363116Y-63119000D01*
X103267576Y-62638688D01*
X102995501Y-62231499D01*
X102588312Y-61959424D01*
X102229239Y-61888000D01*
X101986761Y-61888000D01*
X101627688Y-61959424D01*
X101220499Y-62231499D01*
X100948424Y-62638688D01*
X100852884Y-63119000D01*
X100823116Y-63119000D01*
X100727576Y-62638688D01*
X100455501Y-62231499D01*
X100048312Y-61959424D01*
X99689239Y-61888000D01*
X99446761Y-61888000D01*
X99087688Y-61959424D01*
X98680499Y-62231499D01*
X98408424Y-62638688D01*
X98312884Y-63119000D01*
X98283116Y-63119000D01*
X98187576Y-62638688D01*
X97915501Y-62231499D01*
X97508312Y-61959424D01*
X97149239Y-61888000D01*
X96906761Y-61888000D01*
X96547688Y-61959424D01*
X96140499Y-62231499D01*
X95868424Y-62638688D01*
X95772884Y-63119000D01*
X95861928Y-63566652D01*
X95434168Y-63994412D01*
X95391753Y-64022753D01*
X95279475Y-64190789D01*
X95250000Y-64338969D01*
X95250000Y-64338972D01*
X95240049Y-64389000D01*
X95250000Y-64439028D01*
X95250000Y-64687642D01*
X94968312Y-64499424D01*
X94609239Y-64428000D01*
X94366761Y-64428000D01*
X94007688Y-64499424D01*
X93726000Y-64687642D01*
X93726000Y-64599420D01*
X94040348Y-64285072D01*
X94366761Y-64350000D01*
X94609239Y-64350000D01*
X94968312Y-64278576D01*
X95375501Y-64006501D01*
X95647576Y-63599312D01*
X95743116Y-63119000D01*
X95647576Y-62638688D01*
X95375501Y-62231499D01*
X94968312Y-61959424D01*
X94609239Y-61888000D01*
X94366761Y-61888000D01*
X94007688Y-61959424D01*
X93600499Y-62231499D01*
X93328424Y-62638688D01*
X93232884Y-63119000D01*
X93321928Y-63566652D01*
X92894168Y-63994412D01*
X92851753Y-64022753D01*
X92739475Y-64190789D01*
X92710000Y-64338969D01*
X92710000Y-64338972D01*
X92700049Y-64389000D01*
X92710000Y-64439028D01*
X92710000Y-64687642D01*
X92428312Y-64499424D01*
X92069239Y-64428000D01*
X91826761Y-64428000D01*
X91467688Y-64499424D01*
X91252811Y-64643000D01*
X90103189Y-64643000D01*
X89897492Y-64505558D01*
X90174918Y-64390637D01*
X90251688Y-64142293D01*
X89408000Y-63298605D01*
X88563842Y-64142763D01*
X88641076Y-64390645D01*
X88937233Y-64497525D01*
X88927688Y-64499424D01*
X88712811Y-64643000D01*
X88065307Y-64643000D01*
X87992686Y-64534314D01*
X87866659Y-64450106D01*
X87718000Y-64420536D01*
X87552098Y-64420536D01*
X87634924Y-64390645D01*
X87712158Y-64142763D01*
X86868000Y-63298605D01*
X86024312Y-64142293D01*
X86101082Y-64390637D01*
X86173260Y-64420536D01*
X86018000Y-64420536D01*
X85869341Y-64450106D01*
X85743314Y-64534314D01*
X85670693Y-64643000D01*
X85217000Y-64643000D01*
X85217000Y-62897092D01*
X85399664Y-62897092D01*
X85426514Y-63475892D01*
X85596363Y-63885918D01*
X85844707Y-63962688D01*
X86688395Y-63119000D01*
X87047605Y-63119000D01*
X87891763Y-63963158D01*
X88138000Y-63886437D01*
X88384237Y-63963158D01*
X89228395Y-63119000D01*
X89587605Y-63119000D01*
X90431293Y-63962688D01*
X90679637Y-63885918D01*
X90794558Y-63608492D01*
X91060499Y-64006501D01*
X91467688Y-64278576D01*
X91826761Y-64350000D01*
X92069239Y-64350000D01*
X92428312Y-64278576D01*
X92835501Y-64006501D01*
X93107576Y-63599312D01*
X93203116Y-63119000D01*
X93107576Y-62638688D01*
X92835501Y-62231499D01*
X92428312Y-61959424D01*
X92069239Y-61888000D01*
X91826761Y-61888000D01*
X91467688Y-61959424D01*
X91060499Y-62231499D01*
X90788424Y-62638688D01*
X90786525Y-62648233D01*
X90679645Y-62352076D01*
X90431763Y-62274842D01*
X89587605Y-63119000D01*
X89228395Y-63119000D01*
X88384707Y-62275312D01*
X88138000Y-62351576D01*
X87891293Y-62275312D01*
X87047605Y-63119000D01*
X86688395Y-63119000D01*
X85844237Y-62274842D01*
X85596355Y-62352076D01*
X85399664Y-62897092D01*
X85217000Y-62897092D01*
X85217000Y-62095237D01*
X86023842Y-62095237D01*
X86868000Y-62939395D01*
X87711688Y-62095707D01*
X88564312Y-62095707D01*
X89408000Y-62939395D01*
X90252158Y-62095237D01*
X90174924Y-61847355D01*
X89629908Y-61650664D01*
X89051108Y-61677514D01*
X88641082Y-61847363D01*
X88564312Y-62095707D01*
X87711688Y-62095707D01*
X87634918Y-61847363D01*
X87224892Y-61677514D01*
X86646092Y-61650664D01*
X86101076Y-61847355D01*
X86023842Y-62095237D01*
X85217000Y-62095237D01*
X85217000Y-61121611D01*
X140528692Y-61121611D01*
X141166098Y-61195925D01*
G36*
X84328000Y-62524906D02*
X83678311Y-61875217D01*
X82619423Y-61436611D01*
X81473289Y-61436611D01*
X80414401Y-61875217D01*
X79603962Y-62685656D01*
X79165356Y-63744544D01*
X79165356Y-64890678D01*
X79603962Y-65949566D01*
X80414401Y-66760005D01*
X81473289Y-67198611D01*
X82619423Y-67198611D01*
X83678311Y-66760005D01*
X84488750Y-65949566D01*
X84490744Y-65944750D01*
X85383000Y-65944750D01*
X85383000Y-66635309D01*
X85479673Y-66868698D01*
X85658301Y-67047327D01*
X85891690Y-67144000D01*
X86582250Y-67144000D01*
X86741000Y-66985250D01*
X86741000Y-65786000D01*
X85541750Y-65786000D01*
X85383000Y-65944750D01*
X84490744Y-65944750D01*
X84661712Y-65532000D01*
X87015000Y-65532000D01*
X87015000Y-65786000D01*
X86995000Y-65786000D01*
X86995000Y-66985250D01*
X87153750Y-67144000D01*
X87844310Y-67144000D01*
X88077699Y-67047327D01*
X88256327Y-66868698D01*
X88353000Y-66635309D01*
X88353000Y-66295821D01*
X88520499Y-66546501D01*
X88927688Y-66818576D01*
X89286761Y-66890000D01*
X89529239Y-66890000D01*
X89888312Y-66818576D01*
X90295501Y-66546501D01*
X90567576Y-66139312D01*
X90663116Y-65659000D01*
X90637854Y-65532000D01*
X90678000Y-65532000D01*
X90678000Y-67945000D01*
X90687667Y-67993601D01*
X90715197Y-68034803D01*
X90756399Y-68062333D01*
X90805000Y-68072000D01*
X91010105Y-68072000D01*
X90930314Y-68125314D01*
X90846106Y-68251341D01*
X90835333Y-68305500D01*
X88487742Y-68305500D01*
X88472394Y-68228341D01*
X88388186Y-68102314D01*
X88262159Y-68018106D01*
X88113500Y-67988536D01*
X86613500Y-67988536D01*
X86464841Y-68018106D01*
X86338814Y-68102314D01*
X86254606Y-68228341D01*
X86241011Y-68296690D01*
X86196718Y-68305500D01*
X86196714Y-68305500D01*
X86030012Y-68338659D01*
X85840972Y-68464972D01*
X85809089Y-68512688D01*
X85006242Y-69315536D01*
X84626000Y-69315536D01*
X84477341Y-69345106D01*
X84351314Y-69429314D01*
X84267106Y-69555341D01*
X84237536Y-69704000D01*
X84237536Y-70504000D01*
X84267106Y-70652659D01*
X84351314Y-70778686D01*
X84477341Y-70862894D01*
X84626000Y-70892464D01*
X85426000Y-70892464D01*
X85574659Y-70862894D01*
X85700686Y-70778686D01*
X85784894Y-70652659D01*
X85814464Y-70504000D01*
X85814464Y-70450691D01*
X85978500Y-70450691D01*
X85978500Y-70791250D01*
X86137250Y-70950000D01*
X87236500Y-70950000D01*
X87236500Y-70100750D01*
X87077750Y-69942000D01*
X86487190Y-69942000D01*
X86253801Y-70038673D01*
X86075173Y-70217302D01*
X85978500Y-70450691D01*
X85814464Y-70450691D01*
X85814464Y-70123758D01*
X86317875Y-69620348D01*
X86338814Y-69651686D01*
X86464841Y-69735894D01*
X86613500Y-69765464D01*
X88113500Y-69765464D01*
X88262159Y-69735894D01*
X88388186Y-69651686D01*
X88472394Y-69525659D01*
X88487742Y-69448500D01*
X88616536Y-69448500D01*
X88616536Y-70182011D01*
X88473199Y-70038673D01*
X88239810Y-69942000D01*
X87649250Y-69942000D01*
X87490500Y-70100750D01*
X87490500Y-70950000D01*
X88589750Y-70950000D01*
X88748500Y-70791250D01*
X88748500Y-70636837D01*
X88856341Y-70708894D01*
X88942164Y-70725965D01*
X88836500Y-70981060D01*
X88836500Y-71258940D01*
X88942841Y-71515668D01*
X89139332Y-71712159D01*
X89396060Y-71818500D01*
X89673940Y-71818500D01*
X89930668Y-71712159D01*
X90127159Y-71515668D01*
X90233500Y-71258940D01*
X90233500Y-71187716D01*
X90243341Y-71172988D01*
X90276500Y-71006286D01*
X90276500Y-71006282D01*
X90287695Y-70950001D01*
X90276500Y-70893720D01*
X90276500Y-70738464D01*
X90405000Y-70738464D01*
X90553659Y-70708894D01*
X90679686Y-70624686D01*
X90763894Y-70498659D01*
X90793464Y-70350000D01*
X90793464Y-69448500D01*
X90826183Y-69448500D01*
X90846106Y-69548659D01*
X90930314Y-69674686D01*
X91056341Y-69758894D01*
X91205000Y-69788464D01*
X92605000Y-69788464D01*
X92646501Y-69780209D01*
X92646501Y-69919791D01*
X92605000Y-69911536D01*
X91205000Y-69911536D01*
X91056341Y-69941106D01*
X90930314Y-70025314D01*
X90846106Y-70151341D01*
X90816536Y-70300000D01*
X90816536Y-71300000D01*
X90846106Y-71448659D01*
X90930314Y-71574686D01*
X91056341Y-71658894D01*
X91205000Y-71688464D01*
X92605000Y-71688464D01*
X92753659Y-71658894D01*
X92879686Y-71574686D01*
X92949552Y-71470123D01*
X93018060Y-71498500D01*
X93295940Y-71498500D01*
X93552668Y-71392159D01*
X93749159Y-71195668D01*
X93855500Y-70938940D01*
X93855500Y-70661060D01*
X93789500Y-70501723D01*
X93789500Y-68072000D01*
X93916500Y-68072000D01*
X93916501Y-71132878D01*
X92980689Y-72068691D01*
X92967155Y-72077734D01*
X92963894Y-72061341D01*
X92879686Y-71935314D01*
X92753659Y-71851106D01*
X92605000Y-71821536D01*
X91205000Y-71821536D01*
X91056341Y-71851106D01*
X90930314Y-71935314D01*
X90846106Y-72061341D01*
X90830758Y-72138500D01*
X88417254Y-72138500D01*
X88473199Y-72115327D01*
X88651827Y-71936698D01*
X88748500Y-71703309D01*
X88748500Y-71362750D01*
X88589750Y-71204000D01*
X87490500Y-71204000D01*
X87490500Y-71224000D01*
X87236500Y-71224000D01*
X87236500Y-71204000D01*
X86137250Y-71204000D01*
X85978500Y-71362750D01*
X85978500Y-71703309D01*
X86075173Y-71936698D01*
X86253801Y-72115327D01*
X86309746Y-72138500D01*
X85793479Y-72138500D01*
X85784894Y-72095341D01*
X85700686Y-71969314D01*
X85574659Y-71885106D01*
X85426000Y-71855536D01*
X84626000Y-71855536D01*
X84477341Y-71885106D01*
X84351314Y-71969314D01*
X84267106Y-72095341D01*
X84237536Y-72244000D01*
X84237536Y-73044000D01*
X84267106Y-73192659D01*
X84351314Y-73318686D01*
X84477341Y-73402894D01*
X84626000Y-73432464D01*
X85426000Y-73432464D01*
X85574659Y-73402894D01*
X85700686Y-73318686D01*
X85725533Y-73281500D01*
X86779101Y-73281500D01*
X86779101Y-73330336D01*
X86600600Y-73330336D01*
X86451941Y-73359906D01*
X86325914Y-73444114D01*
X86241706Y-73570141D01*
X86212136Y-73718800D01*
X86212136Y-74718800D01*
X86241706Y-74867459D01*
X86325914Y-74993486D01*
X86451941Y-75077694D01*
X86600600Y-75107264D01*
X88100600Y-75107264D01*
X88249259Y-75077694D01*
X88375286Y-74993486D01*
X88459494Y-74867459D01*
X88489064Y-74718800D01*
X88489064Y-73718800D01*
X88459494Y-73570141D01*
X88375286Y-73444114D01*
X88249259Y-73359906D01*
X88100600Y-73330336D01*
X87922100Y-73330336D01*
X87922100Y-73281500D01*
X88616536Y-73281500D01*
X88616536Y-74160000D01*
X88646106Y-74308659D01*
X88730314Y-74434686D01*
X88856341Y-74518894D01*
X88942164Y-74535965D01*
X88836500Y-74791060D01*
X88836500Y-75068940D01*
X88942841Y-75325668D01*
X89139332Y-75522159D01*
X89396060Y-75628500D01*
X89673940Y-75628500D01*
X89930668Y-75522159D01*
X90127159Y-75325668D01*
X90233500Y-75068940D01*
X90233500Y-74997716D01*
X90243341Y-74982988D01*
X90276500Y-74816286D01*
X90276500Y-74816282D01*
X90287695Y-74760001D01*
X90276500Y-74703720D01*
X90276500Y-74548464D01*
X90405000Y-74548464D01*
X90553659Y-74518894D01*
X90679686Y-74434686D01*
X90763894Y-74308659D01*
X90793464Y-74160000D01*
X90793464Y-73281500D01*
X90830758Y-73281500D01*
X90846106Y-73358659D01*
X90930314Y-73484686D01*
X91056341Y-73568894D01*
X91205000Y-73598464D01*
X92308314Y-73598464D01*
X92185242Y-73721536D01*
X91205000Y-73721536D01*
X91056341Y-73751106D01*
X90930314Y-73835314D01*
X90846106Y-73961341D01*
X90816536Y-74110000D01*
X90816536Y-75110000D01*
X90846106Y-75258659D01*
X90930314Y-75384686D01*
X91056341Y-75468894D01*
X91205000Y-75498464D01*
X92605000Y-75498464D01*
X92753659Y-75468894D01*
X92879686Y-75384686D01*
X92963894Y-75258659D01*
X92993464Y-75110000D01*
X92993464Y-74529758D01*
X93581723Y-73941500D01*
X100093278Y-73941500D01*
X101028501Y-74876724D01*
X101028500Y-97299275D01*
X99996188Y-98331588D01*
X99948472Y-98363471D01*
X99916589Y-98411187D01*
X99916588Y-98411188D01*
X99822159Y-98552511D01*
X99777804Y-98775499D01*
X99789000Y-98831785D01*
X99788999Y-103385218D01*
X99777804Y-103441499D01*
X99788999Y-103497780D01*
X99788999Y-103497784D01*
X99822158Y-103664486D01*
X99948471Y-103853527D01*
X99986537Y-103878962D01*
X100011972Y-103917028D01*
X100201012Y-104043341D01*
X100367714Y-104076500D01*
X100367719Y-104076500D01*
X100424000Y-104087695D01*
X100462997Y-104079938D01*
X100530314Y-104180686D01*
X100656341Y-104264894D01*
X100805000Y-104294464D01*
X102310000Y-104294464D01*
X102458659Y-104264894D01*
X102584686Y-104180686D01*
X102668894Y-104054659D01*
X102698464Y-103906000D01*
X102698464Y-103104000D01*
X102668894Y-102955341D01*
X102611871Y-102870000D01*
X102652003Y-102809938D01*
X102691000Y-102817695D01*
X102747281Y-102806500D01*
X102747286Y-102806500D01*
X102913988Y-102773341D01*
X103103028Y-102647028D01*
X103134913Y-102599309D01*
X104197723Y-101536500D01*
X104505758Y-101536500D01*
X104521106Y-101613659D01*
X104605314Y-101739686D01*
X104731341Y-101823894D01*
X104851001Y-101847696D01*
X104851000Y-103149936D01*
X104660000Y-103149936D01*
X104511341Y-103179506D01*
X104385314Y-103263714D01*
X104301106Y-103389741D01*
X104271536Y-103538400D01*
X104271536Y-104538400D01*
X104301106Y-104687059D01*
X104385314Y-104813086D01*
X104511341Y-104897294D01*
X104660000Y-104926864D01*
X106160000Y-104926864D01*
X106308659Y-104897294D01*
X106434686Y-104813086D01*
X106518894Y-104687059D01*
X106548464Y-104538400D01*
X106548464Y-103538400D01*
X106518894Y-103389741D01*
X106434686Y-103263714D01*
X106308659Y-103179506D01*
X106160000Y-103149936D01*
X105994000Y-103149936D01*
X105994000Y-101853464D01*
X106280000Y-101853464D01*
X106428659Y-101823894D01*
X106554686Y-101739686D01*
X106638894Y-101613659D01*
X106668464Y-101465000D01*
X106668464Y-100465000D01*
X106638894Y-100316341D01*
X106554686Y-100190314D01*
X106428659Y-100106106D01*
X106280000Y-100076536D01*
X104880000Y-100076536D01*
X104731341Y-100106106D01*
X104605314Y-100190314D01*
X104521106Y-100316341D01*
X104505758Y-100393500D01*
X104017280Y-100393500D01*
X103960999Y-100382305D01*
X103904718Y-100393500D01*
X102654300Y-100393500D01*
X102611871Y-100330000D01*
X102668894Y-100244659D01*
X102698464Y-100096000D01*
X102698464Y-99294000D01*
X102668894Y-99145341D01*
X102584686Y-99019314D01*
X102458659Y-98935106D01*
X102310000Y-98905536D01*
X102308687Y-98905536D01*
X102599322Y-98614901D01*
X102647038Y-98583018D01*
X102678922Y-98535300D01*
X102865223Y-98349000D01*
X103421536Y-98349000D01*
X103421536Y-98527500D01*
X103451106Y-98676159D01*
X103535314Y-98802186D01*
X103661341Y-98886394D01*
X103810000Y-98915964D01*
X104810000Y-98915964D01*
X104958659Y-98886394D01*
X105084686Y-98802186D01*
X105168894Y-98676159D01*
X105198464Y-98527500D01*
X105198464Y-97027500D01*
X105621536Y-97027500D01*
X105621536Y-98527500D01*
X105651106Y-98676159D01*
X105735314Y-98802186D01*
X105861341Y-98886394D01*
X106010000Y-98915964D01*
X107010000Y-98915964D01*
X107077203Y-98902597D01*
X107169962Y-99126536D01*
X107080000Y-99126536D01*
X106931341Y-99156106D01*
X106805314Y-99240314D01*
X106721106Y-99366341D01*
X106691536Y-99515000D01*
X106691536Y-100515000D01*
X106721106Y-100663659D01*
X106805314Y-100789686D01*
X106931341Y-100873894D01*
X107080000Y-100903464D01*
X108263280Y-100903464D01*
X108123660Y-101026536D01*
X107080000Y-101026536D01*
X106931341Y-101056106D01*
X106805314Y-101140314D01*
X106721106Y-101266341D01*
X106691536Y-101415000D01*
X106691536Y-102415000D01*
X106721106Y-102563659D01*
X106805314Y-102689686D01*
X106931341Y-102773894D01*
X107080000Y-102803464D01*
X108480000Y-102803464D01*
X108628659Y-102773894D01*
X108754686Y-102689686D01*
X108838894Y-102563659D01*
X108868464Y-102415000D01*
X108868464Y-101893674D01*
X109400766Y-101424464D01*
X109463529Y-101382527D01*
X109516694Y-101302960D01*
X109574756Y-101226893D01*
X109579518Y-101208937D01*
X109589842Y-101193487D01*
X109608514Y-101099615D01*
X109633043Y-101007135D01*
X109623001Y-100932323D01*
X109623001Y-98672721D01*
X110168259Y-98127464D01*
X110998500Y-98127464D01*
X111147159Y-98097894D01*
X111273186Y-98013686D01*
X111357394Y-97887659D01*
X111386964Y-97739000D01*
X111386964Y-96739000D01*
X111357394Y-96590341D01*
X111273186Y-96464314D01*
X111147159Y-96380106D01*
X110998500Y-96350536D01*
X109498500Y-96350536D01*
X109349841Y-96380106D01*
X109223814Y-96464314D01*
X109139606Y-96590341D01*
X109110036Y-96739000D01*
X109110036Y-97569242D01*
X109051501Y-97627777D01*
X108836915Y-97413191D01*
X108805030Y-97365472D01*
X108615990Y-97239159D01*
X108449288Y-97206000D01*
X108449283Y-97206000D01*
X108393002Y-97194805D01*
X108336721Y-97206000D01*
X107398464Y-97206000D01*
X107398464Y-97027500D01*
X107368894Y-96878841D01*
X107284686Y-96752814D01*
X107158659Y-96668606D01*
X107010000Y-96639036D01*
X106010000Y-96639036D01*
X105861341Y-96668606D01*
X105735314Y-96752814D01*
X105651106Y-96878841D01*
X105621536Y-97027500D01*
X105198464Y-97027500D01*
X105168894Y-96878841D01*
X105084686Y-96752814D01*
X104958659Y-96668606D01*
X104810000Y-96639036D01*
X103810000Y-96639036D01*
X103661341Y-96668606D01*
X103535314Y-96752814D01*
X103451106Y-96878841D01*
X103421536Y-97027500D01*
X103421536Y-97206000D01*
X102806510Y-97206000D01*
X102806510Y-94539000D01*
X109110036Y-94539000D01*
X109110036Y-95539000D01*
X109139606Y-95687659D01*
X109223814Y-95813686D01*
X109349841Y-95897894D01*
X109498500Y-95927464D01*
X110998500Y-95927464D01*
X111147159Y-95897894D01*
X111203123Y-95860500D01*
X117885611Y-95860500D01*
X118098060Y-95948500D01*
X118375940Y-95948500D01*
X118632668Y-95842159D01*
X118829159Y-95645668D01*
X118935500Y-95388940D01*
X118935500Y-95111060D01*
X118829159Y-94854332D01*
X118632668Y-94657841D01*
X118375940Y-94551500D01*
X118098060Y-94551500D01*
X117841332Y-94657841D01*
X117781673Y-94717500D01*
X111386964Y-94717500D01*
X111386964Y-94539000D01*
X111357394Y-94390341D01*
X111273186Y-94264314D01*
X111147159Y-94180106D01*
X110998500Y-94150536D01*
X109498500Y-94150536D01*
X109349841Y-94180106D01*
X109223814Y-94264314D01*
X109139606Y-94390341D01*
X109110036Y-94539000D01*
X102806510Y-94539000D01*
X102806510Y-74224291D01*
X102817705Y-74168010D01*
X102806510Y-74111729D01*
X102806510Y-74111724D01*
X102773351Y-73945022D01*
X102647038Y-73755982D01*
X102599323Y-73724100D01*
X100773913Y-71898691D01*
X100742028Y-71850972D01*
X100552988Y-71724659D01*
X100386286Y-71691500D01*
X103044298Y-71691500D01*
X103096408Y-71817306D01*
X103442694Y-72163592D01*
X103895139Y-72351000D01*
X104384861Y-72351000D01*
X104837306Y-72163592D01*
X105183592Y-71817306D01*
X105371000Y-71364861D01*
X105371000Y-70875139D01*
X105190041Y-70438263D01*
X105501110Y-70749333D01*
X105449000Y-70875139D01*
X105449000Y-71364861D01*
X105636408Y-71817306D01*
X105982694Y-72163592D01*
X106435139Y-72351000D01*
X106924861Y-72351000D01*
X107377306Y-72163592D01*
X107723592Y-71817306D01*
X107911000Y-71364861D01*
X107911000Y-70875139D01*
X107989000Y-70875139D01*
X107989000Y-71364861D01*
X108176408Y-71817306D01*
X108522694Y-72163592D01*
X108975139Y-72351000D01*
X109464861Y-72351000D01*
X109917306Y-72163592D01*
X110263592Y-71817306D01*
X110451000Y-71364861D01*
X110451000Y-70875139D01*
X110529000Y-70875139D01*
X110529000Y-71364861D01*
X110716408Y-71817306D01*
X111062694Y-72163592D01*
X111515139Y-72351000D01*
X112004861Y-72351000D01*
X112457306Y-72163592D01*
X112803592Y-71817306D01*
X112991000Y-71364861D01*
X112991000Y-70875139D01*
X113069000Y-70875139D01*
X113069000Y-71364861D01*
X113256408Y-71817306D01*
X113602694Y-72163592D01*
X114055139Y-72351000D01*
X114544861Y-72351000D01*
X114997306Y-72163592D01*
X115343592Y-71817306D01*
X115531000Y-71364861D01*
X115531000Y-70875139D01*
X115609000Y-70875139D01*
X115609000Y-71364861D01*
X115796408Y-71817306D01*
X116142694Y-72163592D01*
X116595139Y-72351000D01*
X117084861Y-72351000D01*
X117537306Y-72163592D01*
X117883592Y-71817306D01*
X118071000Y-71364861D01*
X118071000Y-70875139D01*
X118149000Y-70875139D01*
X118149000Y-71364861D01*
X118336408Y-71817306D01*
X118682694Y-72163592D01*
X119135139Y-72351000D01*
X119624861Y-72351000D01*
X120077306Y-72163592D01*
X120423592Y-71817306D01*
X120509617Y-71609623D01*
X120699930Y-72016609D01*
X121135920Y-72415259D01*
X121558542Y-72590315D01*
X121793000Y-72469380D01*
X121793000Y-71247000D01*
X120611000Y-71247000D01*
X120611000Y-70993000D01*
X121793000Y-70993000D01*
X121793000Y-69770620D01*
X121558542Y-69649685D01*
X121023391Y-69899930D01*
X120624741Y-70335920D01*
X120506195Y-70622116D01*
X120423592Y-70422694D01*
X120077306Y-70076408D01*
X119624861Y-69889000D01*
X119135139Y-69889000D01*
X118682694Y-70076408D01*
X118336408Y-70422694D01*
X118149000Y-70875139D01*
X118071000Y-70875139D01*
X117883592Y-70422694D01*
X117537306Y-70076408D01*
X117084861Y-69889000D01*
X116595139Y-69889000D01*
X116142694Y-70076408D01*
X115796408Y-70422694D01*
X115609000Y-70875139D01*
X115531000Y-70875139D01*
X115343592Y-70422694D01*
X114997306Y-70076408D01*
X114544861Y-69889000D01*
X114055139Y-69889000D01*
X113602694Y-70076408D01*
X113256408Y-70422694D01*
X113069000Y-70875139D01*
X112991000Y-70875139D01*
X112803592Y-70422694D01*
X112457306Y-70076408D01*
X112004861Y-69889000D01*
X111515139Y-69889000D01*
X111062694Y-70076408D01*
X110716408Y-70422694D01*
X110529000Y-70875139D01*
X110451000Y-70875139D01*
X110263592Y-70422694D01*
X109917306Y-70076408D01*
X109464861Y-69889000D01*
X108975139Y-69889000D01*
X108522694Y-70076408D01*
X108176408Y-70422694D01*
X107989000Y-70875139D01*
X107911000Y-70875139D01*
X107723592Y-70422694D01*
X107377306Y-70076408D01*
X106924861Y-69889000D01*
X106435139Y-69889000D01*
X106309333Y-69941110D01*
X105599913Y-69231691D01*
X105568028Y-69183972D01*
X105378988Y-69057659D01*
X105212286Y-69024500D01*
X105212281Y-69024500D01*
X105156000Y-69013305D01*
X105099719Y-69024500D01*
X96301327Y-69024500D01*
X96280668Y-69003841D01*
X96023940Y-68897500D01*
X95746060Y-68897500D01*
X95489332Y-69003841D01*
X95292841Y-69200332D01*
X95186500Y-69457060D01*
X95186500Y-69734940D01*
X95292841Y-69991668D01*
X95489332Y-70188159D01*
X95746060Y-70294500D01*
X96023940Y-70294500D01*
X96280668Y-70188159D01*
X96301327Y-70167500D01*
X103351602Y-70167500D01*
X103096408Y-70422694D01*
X103044298Y-70548500D01*
X96163073Y-70548500D01*
X95925557Y-70450117D01*
X95647677Y-70450117D01*
X95390949Y-70556458D01*
X95194458Y-70752949D01*
X95088117Y-71009677D01*
X95088117Y-71287557D01*
X95194458Y-71544285D01*
X95271053Y-71620880D01*
X95134940Y-71564500D01*
X95031928Y-71564500D01*
X95059500Y-71425888D01*
X95059500Y-71425884D01*
X95070695Y-71369602D01*
X95059500Y-71313320D01*
X95059500Y-68181722D01*
X95169222Y-68072000D01*
X102235000Y-68072000D01*
X102283601Y-68062333D01*
X102324803Y-68034803D01*
X102352333Y-67993601D01*
X102362000Y-67945000D01*
X102362000Y-66863592D01*
X102588312Y-66818576D01*
X102995501Y-66546501D01*
X103267576Y-66139312D01*
X103363116Y-65659000D01*
X103337854Y-65532000D01*
X103418146Y-65532000D01*
X103392884Y-65659000D01*
X103488424Y-66139312D01*
X103760499Y-66546501D01*
X104167688Y-66818576D01*
X104526761Y-66890000D01*
X104769239Y-66890000D01*
X105128312Y-66818576D01*
X105331570Y-66682763D01*
X106343842Y-66682763D01*
X106421076Y-66930645D01*
X106966092Y-67127336D01*
X107544892Y-67100486D01*
X107954918Y-66930637D01*
X108031688Y-66682293D01*
X107188000Y-65838605D01*
X106343842Y-66682763D01*
X105331570Y-66682763D01*
X105535501Y-66546501D01*
X105807576Y-66139312D01*
X105809475Y-66129767D01*
X105916355Y-66425924D01*
X106164237Y-66503158D01*
X107008395Y-65659000D01*
X106994253Y-65644858D01*
X107107110Y-65532000D01*
X107268890Y-65532000D01*
X107381748Y-65644858D01*
X107367605Y-65659000D01*
X108211293Y-66502688D01*
X108459637Y-66425918D01*
X108574558Y-66148492D01*
X108840499Y-66546501D01*
X109247688Y-66818576D01*
X109606761Y-66890000D01*
X109849239Y-66890000D01*
X110208312Y-66818576D01*
X110615501Y-66546501D01*
X110887576Y-66139312D01*
X110983116Y-65659000D01*
X110957854Y-65532000D01*
X111038146Y-65532000D01*
X111012884Y-65659000D01*
X111108424Y-66139312D01*
X111380499Y-66546501D01*
X111787688Y-66818576D01*
X112146761Y-66890000D01*
X112389239Y-66890000D01*
X112748312Y-66818576D01*
X113155501Y-66546501D01*
X113427576Y-66139312D01*
X113523116Y-65659000D01*
X113497854Y-65532000D01*
X113578146Y-65532000D01*
X113552884Y-65659000D01*
X113648424Y-66139312D01*
X113920499Y-66546501D01*
X114327688Y-66818576D01*
X114686761Y-66890000D01*
X114929239Y-66890000D01*
X115288312Y-66818576D01*
X115695501Y-66546501D01*
X115967576Y-66139312D01*
X116063116Y-65659000D01*
X116037854Y-65532000D01*
X116118146Y-65532000D01*
X116092884Y-65659000D01*
X116188424Y-66139312D01*
X116460499Y-66546501D01*
X116867688Y-66818576D01*
X117226761Y-66890000D01*
X117469239Y-66890000D01*
X117828312Y-66818576D01*
X118235501Y-66546501D01*
X118507576Y-66139312D01*
X118603116Y-65659000D01*
X118577854Y-65532000D01*
X118658146Y-65532000D01*
X118632884Y-65659000D01*
X118728424Y-66139312D01*
X119000499Y-66546501D01*
X119407688Y-66818576D01*
X119766761Y-66890000D01*
X120009239Y-66890000D01*
X120368312Y-66818576D01*
X120775501Y-66546501D01*
X121047576Y-66139312D01*
X121143116Y-65659000D01*
X121117854Y-65532000D01*
X121198146Y-65532000D01*
X121172884Y-65659000D01*
X121268424Y-66139312D01*
X121540499Y-66546501D01*
X121947688Y-66818576D01*
X122306761Y-66890000D01*
X122428000Y-66890000D01*
X122428000Y-69710385D01*
X122281458Y-69649685D01*
X122047000Y-69770620D01*
X122047000Y-70813392D01*
X121934141Y-70926251D01*
X122113749Y-71105859D01*
X122226608Y-70993000D01*
X122428000Y-70993000D01*
X122428000Y-71247000D01*
X122226608Y-71247000D01*
X122113749Y-71134141D01*
X121934141Y-71313749D01*
X122047000Y-71426608D01*
X122047000Y-72469380D01*
X122281458Y-72590315D01*
X122428000Y-72521790D01*
X122428000Y-73449579D01*
X118217080Y-77660500D01*
X118098060Y-77660500D01*
X117841332Y-77766841D01*
X117644841Y-77963332D01*
X117538500Y-78220060D01*
X117538500Y-78497940D01*
X117612463Y-78676500D01*
X117336060Y-78676500D01*
X117079332Y-78782841D01*
X116882841Y-78979332D01*
X116776500Y-79236060D01*
X116776500Y-79513940D01*
X116882841Y-79770668D01*
X117079332Y-79967159D01*
X117182759Y-80010000D01*
X117079332Y-80052841D01*
X116882841Y-80249332D01*
X116776500Y-80506060D01*
X116776500Y-80783940D01*
X116882841Y-81040668D01*
X117079332Y-81237159D01*
X117182759Y-81280000D01*
X117079332Y-81322841D01*
X116882841Y-81519332D01*
X116776500Y-81776060D01*
X116776500Y-82053940D01*
X116882841Y-82310668D01*
X117079332Y-82507159D01*
X117182759Y-82550000D01*
X117079332Y-82592841D01*
X116882841Y-82789332D01*
X116776500Y-83046060D01*
X116776500Y-83323940D01*
X116882841Y-83580668D01*
X117079332Y-83777159D01*
X117182759Y-83820000D01*
X117079332Y-83862841D01*
X116882841Y-84059332D01*
X116776500Y-84316060D01*
X116776500Y-84593940D01*
X116882841Y-84850668D01*
X117079332Y-85047159D01*
X117182759Y-85090000D01*
X117079332Y-85132841D01*
X116882841Y-85329332D01*
X116776500Y-85586060D01*
X116776500Y-85863940D01*
X116882841Y-86120668D01*
X117079332Y-86317159D01*
X117182759Y-86360000D01*
X117079332Y-86402841D01*
X116882841Y-86599332D01*
X116776500Y-86856060D01*
X116776500Y-87133940D01*
X116882841Y-87390668D01*
X117079332Y-87587159D01*
X117336060Y-87693500D01*
X117613940Y-87693500D01*
X117870668Y-87587159D01*
X117891327Y-87566500D01*
X128668278Y-87566500D01*
X131826587Y-90724810D01*
X131858471Y-90772527D01*
X131934548Y-90823361D01*
X132180520Y-91069333D01*
X132128410Y-91195139D01*
X132128410Y-91684861D01*
X132315818Y-92137306D01*
X132662104Y-92483592D01*
X133114549Y-92671000D01*
X133604271Y-92671000D01*
X134056716Y-92483592D01*
X134403002Y-92137306D01*
X134590410Y-91684861D01*
X134590410Y-91195139D01*
X134659000Y-91195139D01*
X134659000Y-91684861D01*
X134846408Y-92137306D01*
X135192694Y-92483592D01*
X135645139Y-92671000D01*
X136134861Y-92671000D01*
X136586422Y-92483958D01*
X137565647Y-92483958D01*
X137645920Y-92735259D01*
X138201279Y-92936718D01*
X138791458Y-92910315D01*
X139214080Y-92735259D01*
X139294353Y-92483958D01*
X138430000Y-91619605D01*
X137565647Y-92483958D01*
X136586422Y-92483958D01*
X136587306Y-92483592D01*
X136933592Y-92137306D01*
X137016195Y-91937884D01*
X137134741Y-92224080D01*
X137386042Y-92304353D01*
X138250395Y-91440000D01*
X138609605Y-91440000D01*
X139473958Y-92304353D01*
X139725259Y-92224080D01*
X139926718Y-91668721D01*
X139900315Y-91078542D01*
X139725259Y-90655920D01*
X139473958Y-90575647D01*
X138609605Y-91440000D01*
X138250395Y-91440000D01*
X137386042Y-90575647D01*
X137134741Y-90655920D01*
X137024046Y-90961071D01*
X136933592Y-90742694D01*
X136587306Y-90396408D01*
X136134861Y-90209000D01*
X135645139Y-90209000D01*
X135192694Y-90396408D01*
X134846408Y-90742694D01*
X134659000Y-91195139D01*
X134590410Y-91195139D01*
X134403002Y-90742694D01*
X134056716Y-90396408D01*
X133604271Y-90209000D01*
X133114549Y-90209000D01*
X132988743Y-90261110D01*
X132723822Y-89996190D01*
X132698846Y-89958811D01*
X133114549Y-90131000D01*
X133604271Y-90131000D01*
X134056716Y-89943592D01*
X134403002Y-89597306D01*
X134590410Y-89144861D01*
X134590410Y-88655139D01*
X134659000Y-88655139D01*
X134659000Y-89144861D01*
X134846408Y-89597306D01*
X135192694Y-89943592D01*
X135645139Y-90131000D01*
X136134861Y-90131000D01*
X136586422Y-89943958D01*
X137565647Y-89943958D01*
X137637852Y-90170000D01*
X137565647Y-90396042D01*
X138430000Y-91260395D01*
X139294353Y-90396042D01*
X139222148Y-90170000D01*
X139294353Y-89943958D01*
X138430000Y-89079605D01*
X137565647Y-89943958D01*
X136586422Y-89943958D01*
X136587306Y-89943592D01*
X136933592Y-89597306D01*
X137016195Y-89397884D01*
X137134741Y-89684080D01*
X137386042Y-89764353D01*
X138250395Y-88900000D01*
X138609605Y-88900000D01*
X139473958Y-89764353D01*
X139725259Y-89684080D01*
X139926718Y-89128721D01*
X139900315Y-88538542D01*
X139725259Y-88115920D01*
X139473958Y-88035647D01*
X138609605Y-88900000D01*
X138250395Y-88900000D01*
X137386042Y-88035647D01*
X137134741Y-88115920D01*
X137024046Y-88421071D01*
X136933592Y-88202694D01*
X136587306Y-87856408D01*
X136134861Y-87669000D01*
X135645139Y-87669000D01*
X135192694Y-87856408D01*
X134846408Y-88202694D01*
X134659000Y-88655139D01*
X134590410Y-88655139D01*
X134403002Y-88202694D01*
X134056716Y-87856408D01*
X133604271Y-87669000D01*
X133114549Y-87669000D01*
X132988743Y-87721110D01*
X132677674Y-87410041D01*
X133114549Y-87591000D01*
X133604271Y-87591000D01*
X134056716Y-87403592D01*
X134403002Y-87057306D01*
X134590410Y-86604861D01*
X134590410Y-86115139D01*
X134659000Y-86115139D01*
X134659000Y-86604861D01*
X134846408Y-87057306D01*
X135192694Y-87403592D01*
X135645139Y-87591000D01*
X136134861Y-87591000D01*
X136586422Y-87403958D01*
X137565647Y-87403958D01*
X137637852Y-87630000D01*
X137565647Y-87856042D01*
X138430000Y-88720395D01*
X139294353Y-87856042D01*
X139222148Y-87630000D01*
X139294353Y-87403958D01*
X138430000Y-86539605D01*
X137565647Y-87403958D01*
X136586422Y-87403958D01*
X136587306Y-87403592D01*
X136933592Y-87057306D01*
X137016195Y-86857884D01*
X137134741Y-87144080D01*
X137386042Y-87224353D01*
X138250395Y-86360000D01*
X138609605Y-86360000D01*
X139473958Y-87224353D01*
X139725259Y-87144080D01*
X139926718Y-86588721D01*
X139900315Y-85998542D01*
X139725259Y-85575920D01*
X139473958Y-85495647D01*
X138609605Y-86360000D01*
X138250395Y-86360000D01*
X137386042Y-85495647D01*
X137134741Y-85575920D01*
X137024046Y-85881071D01*
X136933592Y-85662694D01*
X136587306Y-85316408D01*
X136134861Y-85129000D01*
X135645139Y-85129000D01*
X135192694Y-85316408D01*
X134846408Y-85662694D01*
X134659000Y-86115139D01*
X134590410Y-86115139D01*
X134403002Y-85662694D01*
X134056716Y-85316408D01*
X133604271Y-85129000D01*
X133114549Y-85129000D01*
X132662104Y-85316408D01*
X132570867Y-85407645D01*
X131554722Y-84391500D01*
X132263708Y-84391500D01*
X132315818Y-84517306D01*
X132662104Y-84863592D01*
X133114549Y-85051000D01*
X133604271Y-85051000D01*
X134056716Y-84863592D01*
X134403002Y-84517306D01*
X134590410Y-84064861D01*
X134590410Y-83575139D01*
X134481415Y-83312000D01*
X134767995Y-83312000D01*
X134659000Y-83575139D01*
X134659000Y-84064861D01*
X134846408Y-84517306D01*
X135192694Y-84863592D01*
X135645139Y-85051000D01*
X136134861Y-85051000D01*
X136586422Y-84863958D01*
X137565647Y-84863958D01*
X137637852Y-85090000D01*
X137565647Y-85316042D01*
X138430000Y-86180395D01*
X139294353Y-85316042D01*
X139222148Y-85090000D01*
X139294353Y-84863958D01*
X138430000Y-83999605D01*
X137565647Y-84863958D01*
X136586422Y-84863958D01*
X136587306Y-84863592D01*
X136933592Y-84517306D01*
X137016195Y-84317884D01*
X137134741Y-84604080D01*
X137386042Y-84684353D01*
X138250395Y-83820000D01*
X138236253Y-83805858D01*
X138415858Y-83626253D01*
X138430000Y-83640395D01*
X138444143Y-83626253D01*
X138623748Y-83805858D01*
X138609605Y-83820000D01*
X139473958Y-84684353D01*
X139725259Y-84604080D01*
X139881384Y-84173691D01*
X140855000Y-84173691D01*
X140855000Y-84514250D01*
X141013750Y-84673000D01*
X142113000Y-84673000D01*
X142113000Y-83823750D01*
X141954250Y-83665000D01*
X141363690Y-83665000D01*
X141130301Y-83761673D01*
X140951673Y-83940302D01*
X140855000Y-84173691D01*
X139881384Y-84173691D01*
X139926718Y-84048721D01*
X139900315Y-83458542D01*
X139839615Y-83312000D01*
X143242357Y-83312000D01*
X143242357Y-83717210D01*
X143116310Y-83665000D01*
X142525750Y-83665000D01*
X142367000Y-83823750D01*
X142367000Y-84673000D01*
X142387000Y-84673000D01*
X142387000Y-84927000D01*
X142367000Y-84927000D01*
X142367000Y-84947000D01*
X142113000Y-84947000D01*
X142113000Y-84927000D01*
X141013750Y-84927000D01*
X140855000Y-85085750D01*
X140855000Y-85426309D01*
X140951673Y-85659698D01*
X141130301Y-85838327D01*
X141216952Y-85874219D01*
X141215314Y-85875314D01*
X141131106Y-86001341D01*
X141101536Y-86150000D01*
X141101536Y-87150000D01*
X141131106Y-87298659D01*
X141215314Y-87424686D01*
X141341341Y-87508894D01*
X141490000Y-87538464D01*
X141541500Y-87538464D01*
X141541500Y-87628940D01*
X141647841Y-87885668D01*
X141844332Y-88082159D01*
X142101060Y-88188500D01*
X142378940Y-88188500D01*
X142635668Y-88082159D01*
X142832159Y-87885668D01*
X142938500Y-87628940D01*
X142938500Y-87538464D01*
X142990000Y-87538464D01*
X143138659Y-87508894D01*
X143242357Y-87439606D01*
X143242356Y-113804876D01*
X143166956Y-114441926D01*
X142953045Y-115028051D01*
X142610033Y-115549243D01*
X142156321Y-115977549D01*
X141616250Y-116289986D01*
X141014668Y-116471042D01*
X140532949Y-116513611D01*
X81564021Y-116513611D01*
X80926614Y-116439297D01*
X80340122Y-116226411D01*
X79818329Y-115884309D01*
X79389235Y-115431348D01*
X79075850Y-114891815D01*
X78893785Y-114290686D01*
X78850356Y-113804077D01*
X78850356Y-112746933D01*
X79159000Y-112746933D01*
X79159000Y-113893067D01*
X79597606Y-114951955D01*
X80408045Y-115762394D01*
X81466933Y-116201000D01*
X82613067Y-116201000D01*
X83671955Y-115762394D01*
X84482394Y-114951955D01*
X84921000Y-113893067D01*
X84921000Y-112746933D01*
X84916858Y-112736933D01*
X137149000Y-112736933D01*
X137149000Y-113883067D01*
X137587606Y-114941955D01*
X138398045Y-115752394D01*
X139456933Y-116191000D01*
X140603067Y-116191000D01*
X141661955Y-115752394D01*
X142472394Y-114941955D01*
X142911000Y-113883067D01*
X142911000Y-112736933D01*
X142472394Y-111678045D01*
X141661955Y-110867606D01*
X140603067Y-110429000D01*
X139456933Y-110429000D01*
X138398045Y-110867606D01*
X137587606Y-111678045D01*
X137149000Y-112736933D01*
X84916858Y-112736933D01*
X84482394Y-111688045D01*
X83671955Y-110877606D01*
X82613067Y-110439000D01*
X81466933Y-110439000D01*
X80408045Y-110877606D01*
X79597606Y-111688045D01*
X79159000Y-112746933D01*
X78850356Y-112746933D01*
X78850356Y-106010000D01*
X89044036Y-106010000D01*
X89044036Y-107010000D01*
X89073606Y-107158659D01*
X89157814Y-107284686D01*
X89283841Y-107368894D01*
X89432500Y-107398464D01*
X89537193Y-107398464D01*
X89471500Y-107557060D01*
X89471500Y-107834940D01*
X89577841Y-108091668D01*
X89774332Y-108288159D01*
X90031060Y-108394500D01*
X90308940Y-108394500D01*
X90565668Y-108288159D01*
X90762159Y-108091668D01*
X90868500Y-107834940D01*
X90868500Y-107557060D01*
X90802807Y-107398464D01*
X90932500Y-107398464D01*
X91081159Y-107368894D01*
X91207186Y-107284686D01*
X91291394Y-107158659D01*
X91320964Y-107010000D01*
X91320964Y-106010000D01*
X91291394Y-105861341D01*
X91207186Y-105735314D01*
X91081159Y-105651106D01*
X90932500Y-105621536D01*
X89432500Y-105621536D01*
X89283841Y-105651106D01*
X89157814Y-105735314D01*
X89073606Y-105861341D01*
X89044036Y-106010000D01*
X78850356Y-106010000D01*
X78850356Y-98805193D01*
X81269000Y-98805193D01*
X81269000Y-99314807D01*
X81464021Y-99785628D01*
X81824372Y-100145979D01*
X82295193Y-100341000D01*
X82804807Y-100341000D01*
X82958935Y-100277158D01*
X83796088Y-101114311D01*
X83827972Y-101162028D01*
X84017012Y-101288341D01*
X84183714Y-101321500D01*
X84183719Y-101321500D01*
X84240000Y-101332695D01*
X84296281Y-101321500D01*
X89227877Y-101321500D01*
X89283841Y-101358894D01*
X89432500Y-101388464D01*
X90932500Y-101388464D01*
X91081159Y-101358894D01*
X91137123Y-101321500D01*
X93563673Y-101321500D01*
X93584332Y-101342159D01*
X93841060Y-101448500D01*
X94118940Y-101448500D01*
X94375668Y-101342159D01*
X94396327Y-101321500D01*
X95421536Y-101321500D01*
X95421536Y-101366000D01*
X95451106Y-101514659D01*
X95508129Y-101600000D01*
X95451106Y-101685341D01*
X95421536Y-101834000D01*
X95421536Y-101875690D01*
X92873591Y-101867964D01*
X92851668Y-101846041D01*
X92594940Y-101739700D01*
X92317060Y-101739700D01*
X92060332Y-101846041D01*
X92037508Y-101868865D01*
X91129754Y-101873576D01*
X91081159Y-101841106D01*
X90932500Y-101811536D01*
X89432500Y-101811536D01*
X89283841Y-101841106D01*
X89227877Y-101878500D01*
X84216282Y-101878500D01*
X84160000Y-101867305D01*
X84103717Y-101878500D01*
X84103714Y-101878500D01*
X83975574Y-101903989D01*
X83937011Y-101911659D01*
X83795688Y-102006089D01*
X83747972Y-102037972D01*
X83716089Y-102085688D01*
X82958935Y-102842842D01*
X82804807Y-102779000D01*
X82295193Y-102779000D01*
X81824372Y-102974021D01*
X81464021Y-103334372D01*
X81269000Y-103805193D01*
X81269000Y-104314807D01*
X81464021Y-104785628D01*
X81824372Y-105145979D01*
X82295193Y-105341000D01*
X82804807Y-105341000D01*
X83275628Y-105145979D01*
X83635979Y-104785628D01*
X83831000Y-104314807D01*
X83831000Y-103805193D01*
X83767158Y-103651065D01*
X84396723Y-103021500D01*
X89044036Y-103021500D01*
X89044036Y-103200000D01*
X89073606Y-103348659D01*
X89157814Y-103474686D01*
X89203182Y-103505000D01*
X89157814Y-103535314D01*
X89073606Y-103661341D01*
X89044036Y-103810000D01*
X89044036Y-104810000D01*
X89073606Y-104958659D01*
X89157814Y-105084686D01*
X89283841Y-105168894D01*
X89432500Y-105198464D01*
X90932500Y-105198464D01*
X91081159Y-105168894D01*
X91207186Y-105084686D01*
X91236375Y-105041000D01*
X93817536Y-105041000D01*
X93817536Y-106541000D01*
X93847106Y-106689659D01*
X93931314Y-106815686D01*
X94057341Y-106899894D01*
X94206000Y-106929464D01*
X94272644Y-106929464D01*
X94170500Y-107176060D01*
X94170500Y-107453940D01*
X94276841Y-107710668D01*
X94473332Y-107907159D01*
X94730060Y-108013500D01*
X95007940Y-108013500D01*
X95264668Y-107907159D01*
X95461159Y-107710668D01*
X95567500Y-107453940D01*
X95567500Y-107176060D01*
X95461159Y-106919332D01*
X95427500Y-106885673D01*
X95427500Y-106851224D01*
X95480686Y-106815686D01*
X95481781Y-106814048D01*
X95517673Y-106900699D01*
X95696302Y-107079327D01*
X95929691Y-107176000D01*
X96270250Y-107176000D01*
X96429000Y-107017250D01*
X96429000Y-105918000D01*
X96683000Y-105918000D01*
X96683000Y-107017250D01*
X96841750Y-107176000D01*
X97182309Y-107176000D01*
X97415698Y-107079327D01*
X97594327Y-106900699D01*
X97691000Y-106667310D01*
X97691000Y-106524150D01*
X104025000Y-106524150D01*
X104025000Y-106864709D01*
X104121673Y-107098098D01*
X104300301Y-107276727D01*
X104533690Y-107373400D01*
X105124250Y-107373400D01*
X105283000Y-107214650D01*
X105283000Y-106365400D01*
X105537000Y-106365400D01*
X105537000Y-107214650D01*
X105695750Y-107373400D01*
X106286310Y-107373400D01*
X106519699Y-107276727D01*
X106698327Y-107098098D01*
X106795000Y-106864709D01*
X106795000Y-106524150D01*
X106636250Y-106365400D01*
X105537000Y-106365400D01*
X105283000Y-106365400D01*
X104183750Y-106365400D01*
X104025000Y-106524150D01*
X97691000Y-106524150D01*
X97691000Y-106076750D01*
X97532250Y-105918000D01*
X96683000Y-105918000D01*
X96429000Y-105918000D01*
X96409000Y-105918000D01*
X96409000Y-105664000D01*
X96429000Y-105664000D01*
X96429000Y-104564750D01*
X96683000Y-104564750D01*
X96683000Y-105664000D01*
X97532250Y-105664000D01*
X97584159Y-105612091D01*
X104025000Y-105612091D01*
X104025000Y-105952650D01*
X104183750Y-106111400D01*
X105283000Y-106111400D01*
X105283000Y-105262150D01*
X105537000Y-105262150D01*
X105537000Y-106111400D01*
X106636250Y-106111400D01*
X106795000Y-105952650D01*
X106795000Y-105612091D01*
X106698327Y-105378702D01*
X106519699Y-105200073D01*
X106286310Y-105103400D01*
X105695750Y-105103400D01*
X105537000Y-105262150D01*
X105283000Y-105262150D01*
X105124250Y-105103400D01*
X104533690Y-105103400D01*
X104300301Y-105200073D01*
X104121673Y-105378702D01*
X104025000Y-105612091D01*
X97584159Y-105612091D01*
X97691000Y-105505250D01*
X97691000Y-104914690D01*
X97594327Y-104681301D01*
X97450301Y-104537276D01*
X97674699Y-104444327D01*
X97853327Y-104265698D01*
X97950000Y-104032309D01*
X97950000Y-103790750D01*
X97791250Y-103632000D01*
X96689500Y-103632000D01*
X96689500Y-104382250D01*
X96777500Y-104470250D01*
X96683000Y-104564750D01*
X96429000Y-104564750D01*
X96341000Y-104476750D01*
X96435500Y-104382250D01*
X96435500Y-103632000D01*
X95333750Y-103632000D01*
X95175000Y-103790750D01*
X95175000Y-104032309D01*
X95271673Y-104265698D01*
X95450301Y-104444327D01*
X95665507Y-104533468D01*
X95517673Y-104681301D01*
X95481781Y-104767952D01*
X95480686Y-104766314D01*
X95354659Y-104682106D01*
X95206000Y-104652536D01*
X94206000Y-104652536D01*
X94057341Y-104682106D01*
X93931314Y-104766314D01*
X93847106Y-104892341D01*
X93817536Y-105041000D01*
X91236375Y-105041000D01*
X91291394Y-104958659D01*
X91320964Y-104810000D01*
X91320964Y-103810000D01*
X91291394Y-103661341D01*
X91207186Y-103535314D01*
X91161818Y-103505000D01*
X91207186Y-103474686D01*
X91291394Y-103348659D01*
X91320964Y-103200000D01*
X91320964Y-103015598D01*
X92041830Y-103011857D01*
X92060332Y-103030359D01*
X92317060Y-103136700D01*
X92594940Y-103136700D01*
X92851668Y-103030359D01*
X92871066Y-103010961D01*
X95175000Y-103017947D01*
X95175000Y-103219250D01*
X95333750Y-103378000D01*
X96435500Y-103378000D01*
X96435500Y-103358000D01*
X96689500Y-103358000D01*
X96689500Y-103378000D01*
X97791250Y-103378000D01*
X97950000Y-103219250D01*
X97950000Y-102977691D01*
X97853327Y-102744302D01*
X97703464Y-102594438D01*
X97703464Y-101834000D01*
X97673894Y-101685341D01*
X97616871Y-101600000D01*
X97673894Y-101514659D01*
X97703464Y-101366000D01*
X97703464Y-100564000D01*
X97673894Y-100415341D01*
X97616871Y-100330000D01*
X97673894Y-100244659D01*
X97703464Y-100096000D01*
X97703464Y-99294000D01*
X97673894Y-99145341D01*
X97589686Y-99019314D01*
X97463659Y-98935106D01*
X97315000Y-98905536D01*
X97134000Y-98905536D01*
X97134000Y-98767940D01*
X97218500Y-98563940D01*
X97218500Y-98286060D01*
X97112159Y-98029332D01*
X96915668Y-97832841D01*
X96658940Y-97726500D01*
X96381060Y-97726500D01*
X96124332Y-97832841D01*
X95927841Y-98029332D01*
X95821500Y-98286060D01*
X95821500Y-98563940D01*
X95927841Y-98820668D01*
X95991001Y-98883828D01*
X95991001Y-98905536D01*
X95810000Y-98905536D01*
X95661341Y-98935106D01*
X95535314Y-99019314D01*
X95451106Y-99145341D01*
X95421536Y-99294000D01*
X95421536Y-100096000D01*
X95437946Y-100178500D01*
X94396327Y-100178500D01*
X94375668Y-100157841D01*
X94118940Y-100051500D01*
X93841060Y-100051500D01*
X93584332Y-100157841D01*
X93563673Y-100178500D01*
X91320964Y-100178500D01*
X91320964Y-100000000D01*
X91291394Y-99851341D01*
X91207186Y-99725314D01*
X91149318Y-99686648D01*
X91182186Y-99664686D01*
X91266394Y-99538659D01*
X91295964Y-99390000D01*
X91295964Y-98390000D01*
X91266394Y-98241341D01*
X91182186Y-98115314D01*
X91056159Y-98031106D01*
X90907500Y-98001536D01*
X89407500Y-98001536D01*
X89258841Y-98031106D01*
X89132814Y-98115314D01*
X89048606Y-98241341D01*
X89019036Y-98390000D01*
X89019036Y-99390000D01*
X89048606Y-99538659D01*
X89132814Y-99664686D01*
X89190682Y-99703352D01*
X89157814Y-99725314D01*
X89073606Y-99851341D01*
X89044036Y-100000000D01*
X89044036Y-100178500D01*
X84476723Y-100178500D01*
X83767158Y-99468935D01*
X83831000Y-99314807D01*
X83831000Y-98805193D01*
X83635979Y-98334372D01*
X83275628Y-97974021D01*
X82804807Y-97779000D01*
X82295193Y-97779000D01*
X81824372Y-97974021D01*
X81464021Y-98334372D01*
X81269000Y-98805193D01*
X78850356Y-98805193D01*
X78850356Y-96975750D01*
X88772500Y-96975750D01*
X88772500Y-97316309D01*
X88869173Y-97549698D01*
X89047801Y-97728327D01*
X89281190Y-97825000D01*
X89871750Y-97825000D01*
X90030500Y-97666250D01*
X90030500Y-96817000D01*
X90284500Y-96817000D01*
X90284500Y-97666250D01*
X90443250Y-97825000D01*
X91033810Y-97825000D01*
X91267199Y-97728327D01*
X91445827Y-97549698D01*
X91542500Y-97316309D01*
X91542500Y-96975750D01*
X91383750Y-96817000D01*
X90284500Y-96817000D01*
X90030500Y-96817000D01*
X88931250Y-96817000D01*
X88772500Y-96975750D01*
X78850356Y-96975750D01*
X78850356Y-96063691D01*
X88772500Y-96063691D01*
X88772500Y-96404250D01*
X88931250Y-96563000D01*
X90030500Y-96563000D01*
X90030500Y-95713750D01*
X90284500Y-95713750D01*
X90284500Y-96563000D01*
X91383750Y-96563000D01*
X91542500Y-96404250D01*
X91542500Y-96063691D01*
X91445827Y-95830302D01*
X91267199Y-95651673D01*
X91033810Y-95555000D01*
X90443250Y-95555000D01*
X90284500Y-95713750D01*
X90030500Y-95713750D01*
X89871750Y-95555000D01*
X89281190Y-95555000D01*
X89047801Y-95651673D01*
X88869173Y-95830302D01*
X88772500Y-96063691D01*
X78850356Y-96063691D01*
X78850356Y-90986281D01*
X84079000Y-90986281D01*
X84079000Y-91893719D01*
X84426262Y-92732082D01*
X85067918Y-93373738D01*
X85906281Y-93721000D01*
X86813719Y-93721000D01*
X87652082Y-93373738D01*
X88293738Y-92732082D01*
X88641000Y-91893719D01*
X88641000Y-90986281D01*
X88293738Y-90147918D01*
X87652082Y-89506262D01*
X87160504Y-89302643D01*
X91567000Y-89302643D01*
X91567000Y-89757357D01*
X91741011Y-90177458D01*
X92062542Y-90498989D01*
X92482643Y-90673000D01*
X92937357Y-90673000D01*
X93357458Y-90498989D01*
X93678989Y-90177458D01*
X93853000Y-89757357D01*
X93853000Y-89302643D01*
X93678989Y-88882542D01*
X93357458Y-88561011D01*
X92937357Y-88387000D01*
X92482643Y-88387000D01*
X92062542Y-88561011D01*
X91741011Y-88882542D01*
X91567000Y-89302643D01*
X87160504Y-89302643D01*
X86813719Y-89159000D01*
X85906281Y-89159000D01*
X85067918Y-89506262D01*
X84426262Y-90147918D01*
X84079000Y-90986281D01*
X78850356Y-90986281D01*
X78850356Y-86762643D01*
X91567000Y-86762643D01*
X91567000Y-87217357D01*
X91741011Y-87637458D01*
X92062542Y-87958989D01*
X92482643Y-88133000D01*
X92937357Y-88133000D01*
X93179640Y-88032643D01*
X94107000Y-88032643D01*
X94107000Y-88487357D01*
X94281011Y-88907458D01*
X94602542Y-89228989D01*
X95022643Y-89403000D01*
X95477357Y-89403000D01*
X95897458Y-89228989D01*
X96218989Y-88907458D01*
X96393000Y-88487357D01*
X96393000Y-88032643D01*
X96218989Y-87612542D01*
X95897458Y-87291011D01*
X95477357Y-87117000D01*
X95022643Y-87117000D01*
X94602542Y-87291011D01*
X94281011Y-87612542D01*
X94107000Y-88032643D01*
X93179640Y-88032643D01*
X93357458Y-87958989D01*
X93678989Y-87637458D01*
X93853000Y-87217357D01*
X93853000Y-86762643D01*
X93678989Y-86342542D01*
X93357458Y-86021011D01*
X92937357Y-85847000D01*
X92482643Y-85847000D01*
X92062542Y-86021011D01*
X91741011Y-86342542D01*
X91567000Y-86762643D01*
X78850356Y-86762643D01*
X78850356Y-84222643D01*
X91567000Y-84222643D01*
X91567000Y-84677357D01*
X91741011Y-85097458D01*
X92062542Y-85418989D01*
X92482643Y-85593000D01*
X92937357Y-85593000D01*
X93179640Y-85492643D01*
X94107000Y-85492643D01*
X94107000Y-85947357D01*
X94281011Y-86367458D01*
X94602542Y-86688989D01*
X95022643Y-86863000D01*
X95477357Y-86863000D01*
X95897458Y-86688989D01*
X96218989Y-86367458D01*
X96393000Y-85947357D01*
X96393000Y-85492643D01*
X96218989Y-85072542D01*
X95897458Y-84751011D01*
X95477357Y-84577000D01*
X95022643Y-84577000D01*
X94602542Y-84751011D01*
X94281011Y-85072542D01*
X94107000Y-85492643D01*
X93179640Y-85492643D01*
X93357458Y-85418989D01*
X93678989Y-85097458D01*
X93853000Y-84677357D01*
X93853000Y-84222643D01*
X93678989Y-83802542D01*
X93357458Y-83481011D01*
X92937357Y-83307000D01*
X92482643Y-83307000D01*
X92062542Y-83481011D01*
X91741011Y-83802542D01*
X91567000Y-84222643D01*
X78850356Y-84222643D01*
X78850356Y-80826281D01*
X84079000Y-80826281D01*
X84079000Y-81733719D01*
X84426262Y-82572082D01*
X85067918Y-83213738D01*
X85906281Y-83561000D01*
X86813719Y-83561000D01*
X87652082Y-83213738D01*
X87913177Y-82952643D01*
X94107000Y-82952643D01*
X94107000Y-83407357D01*
X94281011Y-83827458D01*
X94602542Y-84148989D01*
X95022643Y-84323000D01*
X95477357Y-84323000D01*
X95897458Y-84148989D01*
X96218989Y-83827458D01*
X96393000Y-83407357D01*
X96393000Y-82952643D01*
X96218989Y-82532542D01*
X95897458Y-82211011D01*
X95477357Y-82037000D01*
X95022643Y-82037000D01*
X94602542Y-82211011D01*
X94281011Y-82532542D01*
X94107000Y-82952643D01*
X87913177Y-82952643D01*
X88293738Y-82572082D01*
X88641000Y-81733719D01*
X88641000Y-80826281D01*
X88293738Y-79987918D01*
X87652082Y-79346262D01*
X86813719Y-78999000D01*
X85906281Y-78999000D01*
X85067918Y-79346262D01*
X84426262Y-79987918D01*
X84079000Y-80826281D01*
X78850356Y-80826281D01*
X78850356Y-76704550D01*
X85965600Y-76704550D01*
X85965600Y-77045109D01*
X86062273Y-77278498D01*
X86240901Y-77457127D01*
X86474290Y-77553800D01*
X87064850Y-77553800D01*
X87223600Y-77395050D01*
X87223600Y-76545800D01*
X87477600Y-76545800D01*
X87477600Y-77395050D01*
X87636350Y-77553800D01*
X88226910Y-77553800D01*
X88460299Y-77457127D01*
X88638927Y-77278498D01*
X88735600Y-77045109D01*
X88735600Y-76704550D01*
X88576850Y-76545800D01*
X87477600Y-76545800D01*
X87223600Y-76545800D01*
X86124350Y-76545800D01*
X85965600Y-76704550D01*
X78850356Y-76704550D01*
X78850356Y-75792491D01*
X85965600Y-75792491D01*
X85965600Y-76133050D01*
X86124350Y-76291800D01*
X87223600Y-76291800D01*
X87223600Y-75442550D01*
X87477600Y-75442550D01*
X87477600Y-76291800D01*
X88576850Y-76291800D01*
X88735600Y-76133050D01*
X88735600Y-75792491D01*
X88638927Y-75559102D01*
X88460299Y-75380473D01*
X88226910Y-75283800D01*
X87636350Y-75283800D01*
X87477600Y-75442550D01*
X87223600Y-75442550D01*
X87064850Y-75283800D01*
X86474290Y-75283800D01*
X86240901Y-75380473D01*
X86062273Y-75559102D01*
X85965600Y-75792491D01*
X78850356Y-75792491D01*
X78850356Y-69704000D01*
X82587536Y-69704000D01*
X82587536Y-70504000D01*
X82617106Y-70652659D01*
X82701314Y-70778686D01*
X82804501Y-70847633D01*
X82804501Y-70953550D01*
X82740500Y-71108060D01*
X82740500Y-71385940D01*
X82846841Y-71642668D01*
X83043332Y-71839159D01*
X83082869Y-71855536D01*
X82976000Y-71855536D01*
X82827341Y-71885106D01*
X82701314Y-71969314D01*
X82617106Y-72095341D01*
X82587536Y-72244000D01*
X82587536Y-73044000D01*
X82617106Y-73192659D01*
X82701314Y-73318686D01*
X82804501Y-73387633D01*
X82804501Y-73620550D01*
X82740500Y-73775060D01*
X82740500Y-74052940D01*
X82846841Y-74309668D01*
X83043332Y-74506159D01*
X83300060Y-74612500D01*
X83577940Y-74612500D01*
X83834668Y-74506159D01*
X84031159Y-74309668D01*
X84137500Y-74052940D01*
X84137500Y-73775060D01*
X84031159Y-73518332D01*
X83947500Y-73434673D01*
X83947500Y-73387632D01*
X84050686Y-73318686D01*
X84134894Y-73192659D01*
X84164464Y-73044000D01*
X84164464Y-72244000D01*
X84134894Y-72095341D01*
X84050686Y-71969314D01*
X83924659Y-71885106D01*
X83788924Y-71858107D01*
X83834668Y-71839159D01*
X84031159Y-71642668D01*
X84137500Y-71385940D01*
X84137500Y-71108060D01*
X84031159Y-70851332D01*
X83995432Y-70815605D01*
X84050686Y-70778686D01*
X84134894Y-70652659D01*
X84164464Y-70504000D01*
X84164464Y-69704000D01*
X84134894Y-69555341D01*
X84050686Y-69429314D01*
X83924659Y-69345106D01*
X83776000Y-69315536D01*
X82976000Y-69315536D01*
X82827341Y-69345106D01*
X82701314Y-69429314D01*
X82617106Y-69555341D01*
X82587536Y-69704000D01*
X78850356Y-69704000D01*
X78850356Y-63835275D01*
X78924670Y-63197869D01*
X79137557Y-62611375D01*
X79479660Y-62089582D01*
X79932619Y-61660490D01*
X80472150Y-61347105D01*
X81073285Y-61165039D01*
X81559889Y-61121611D01*
X84328000Y-61121611D01*
X84328000Y-62524906D01*
X84328000Y-62524906D01*
G37*
X84328000Y-62524906D02*
X83678311Y-61875217D01*
X82619423Y-61436611D01*
X81473289Y-61436611D01*
X80414401Y-61875217D01*
X79603962Y-62685656D01*
X79165356Y-63744544D01*
X79165356Y-64890678D01*
X79603962Y-65949566D01*
X80414401Y-66760005D01*
X81473289Y-67198611D01*
X82619423Y-67198611D01*
X83678311Y-66760005D01*
X84488750Y-65949566D01*
X84490744Y-65944750D01*
X85383000Y-65944750D01*
X85383000Y-66635309D01*
X85479673Y-66868698D01*
X85658301Y-67047327D01*
X85891690Y-67144000D01*
X86582250Y-67144000D01*
X86741000Y-66985250D01*
X86741000Y-65786000D01*
X85541750Y-65786000D01*
X85383000Y-65944750D01*
X84490744Y-65944750D01*
X84661712Y-65532000D01*
X87015000Y-65532000D01*
X87015000Y-65786000D01*
X86995000Y-65786000D01*
X86995000Y-66985250D01*
X87153750Y-67144000D01*
X87844310Y-67144000D01*
X88077699Y-67047327D01*
X88256327Y-66868698D01*
X88353000Y-66635309D01*
X88353000Y-66295821D01*
X88520499Y-66546501D01*
X88927688Y-66818576D01*
X89286761Y-66890000D01*
X89529239Y-66890000D01*
X89888312Y-66818576D01*
X90295501Y-66546501D01*
X90567576Y-66139312D01*
X90663116Y-65659000D01*
X90637854Y-65532000D01*
X90678000Y-65532000D01*
X90678000Y-67945000D01*
X90687667Y-67993601D01*
X90715197Y-68034803D01*
X90756399Y-68062333D01*
X90805000Y-68072000D01*
X91010105Y-68072000D01*
X90930314Y-68125314D01*
X90846106Y-68251341D01*
X90835333Y-68305500D01*
X88487742Y-68305500D01*
X88472394Y-68228341D01*
X88388186Y-68102314D01*
X88262159Y-68018106D01*
X88113500Y-67988536D01*
X86613500Y-67988536D01*
X86464841Y-68018106D01*
X86338814Y-68102314D01*
X86254606Y-68228341D01*
X86241011Y-68296690D01*
X86196718Y-68305500D01*
X86196714Y-68305500D01*
X86030012Y-68338659D01*
X85840972Y-68464972D01*
X85809089Y-68512688D01*
X85006242Y-69315536D01*
X84626000Y-69315536D01*
X84477341Y-69345106D01*
X84351314Y-69429314D01*
X84267106Y-69555341D01*
X84237536Y-69704000D01*
X84237536Y-70504000D01*
X84267106Y-70652659D01*
X84351314Y-70778686D01*
X84477341Y-70862894D01*
X84626000Y-70892464D01*
X85426000Y-70892464D01*
X85574659Y-70862894D01*
X85700686Y-70778686D01*
X85784894Y-70652659D01*
X85814464Y-70504000D01*
X85814464Y-70450691D01*
X85978500Y-70450691D01*
X85978500Y-70791250D01*
X86137250Y-70950000D01*
X87236500Y-70950000D01*
X87236500Y-70100750D01*
X87077750Y-69942000D01*
X86487190Y-69942000D01*
X86253801Y-70038673D01*
X86075173Y-70217302D01*
X85978500Y-70450691D01*
X85814464Y-70450691D01*
X85814464Y-70123758D01*
X86317875Y-69620348D01*
X86338814Y-69651686D01*
X86464841Y-69735894D01*
X86613500Y-69765464D01*
X88113500Y-69765464D01*
X88262159Y-69735894D01*
X88388186Y-69651686D01*
X88472394Y-69525659D01*
X88487742Y-69448500D01*
X88616536Y-69448500D01*
X88616536Y-70182011D01*
X88473199Y-70038673D01*
X88239810Y-69942000D01*
X87649250Y-69942000D01*
X87490500Y-70100750D01*
X87490500Y-70950000D01*
X88589750Y-70950000D01*
X88748500Y-70791250D01*
X88748500Y-70636837D01*
X88856341Y-70708894D01*
X88942164Y-70725965D01*
X88836500Y-70981060D01*
X88836500Y-71258940D01*
X88942841Y-71515668D01*
X89139332Y-71712159D01*
X89396060Y-71818500D01*
X89673940Y-71818500D01*
X89930668Y-71712159D01*
X90127159Y-71515668D01*
X90233500Y-71258940D01*
X90233500Y-71187716D01*
X90243341Y-71172988D01*
X90276500Y-71006286D01*
X90276500Y-71006282D01*
X90287695Y-70950001D01*
X90276500Y-70893720D01*
X90276500Y-70738464D01*
X90405000Y-70738464D01*
X90553659Y-70708894D01*
X90679686Y-70624686D01*
X90763894Y-70498659D01*
X90793464Y-70350000D01*
X90793464Y-69448500D01*
X90826183Y-69448500D01*
X90846106Y-69548659D01*
X90930314Y-69674686D01*
X91056341Y-69758894D01*
X91205000Y-69788464D01*
X92605000Y-69788464D01*
X92646501Y-69780209D01*
X92646501Y-69919791D01*
X92605000Y-69911536D01*
X91205000Y-69911536D01*
X91056341Y-69941106D01*
X90930314Y-70025314D01*
X90846106Y-70151341D01*
X90816536Y-70300000D01*
X90816536Y-71300000D01*
X90846106Y-71448659D01*
X90930314Y-71574686D01*
X91056341Y-71658894D01*
X91205000Y-71688464D01*
X92605000Y-71688464D01*
X92753659Y-71658894D01*
X92879686Y-71574686D01*
X92949552Y-71470123D01*
X93018060Y-71498500D01*
X93295940Y-71498500D01*
X93552668Y-71392159D01*
X93749159Y-71195668D01*
X93855500Y-70938940D01*
X93855500Y-70661060D01*
X93789500Y-70501723D01*
X93789500Y-68072000D01*
X93916500Y-68072000D01*
X93916501Y-71132878D01*
X92980689Y-72068691D01*
X92967155Y-72077734D01*
X92963894Y-72061341D01*
X92879686Y-71935314D01*
X92753659Y-71851106D01*
X92605000Y-71821536D01*
X91205000Y-71821536D01*
X91056341Y-71851106D01*
X90930314Y-71935314D01*
X90846106Y-72061341D01*
X90830758Y-72138500D01*
X88417254Y-72138500D01*
X88473199Y-72115327D01*
X88651827Y-71936698D01*
X88748500Y-71703309D01*
X88748500Y-71362750D01*
X88589750Y-71204000D01*
X87490500Y-71204000D01*
X87490500Y-71224000D01*
X87236500Y-71224000D01*
X87236500Y-71204000D01*
X86137250Y-71204000D01*
X85978500Y-71362750D01*
X85978500Y-71703309D01*
X86075173Y-71936698D01*
X86253801Y-72115327D01*
X86309746Y-72138500D01*
X85793479Y-72138500D01*
X85784894Y-72095341D01*
X85700686Y-71969314D01*
X85574659Y-71885106D01*
X85426000Y-71855536D01*
X84626000Y-71855536D01*
X84477341Y-71885106D01*
X84351314Y-71969314D01*
X84267106Y-72095341D01*
X84237536Y-72244000D01*
X84237536Y-73044000D01*
X84267106Y-73192659D01*
X84351314Y-73318686D01*
X84477341Y-73402894D01*
X84626000Y-73432464D01*
X85426000Y-73432464D01*
X85574659Y-73402894D01*
X85700686Y-73318686D01*
X85725533Y-73281500D01*
X86779101Y-73281500D01*
X86779101Y-73330336D01*
X86600600Y-73330336D01*
X86451941Y-73359906D01*
X86325914Y-73444114D01*
X86241706Y-73570141D01*
X86212136Y-73718800D01*
X86212136Y-74718800D01*
X86241706Y-74867459D01*
X86325914Y-74993486D01*
X86451941Y-75077694D01*
X86600600Y-75107264D01*
X88100600Y-75107264D01*
X88249259Y-75077694D01*
X88375286Y-74993486D01*
X88459494Y-74867459D01*
X88489064Y-74718800D01*
X88489064Y-73718800D01*
X88459494Y-73570141D01*
X88375286Y-73444114D01*
X88249259Y-73359906D01*
X88100600Y-73330336D01*
X87922100Y-73330336D01*
X87922100Y-73281500D01*
X88616536Y-73281500D01*
X88616536Y-74160000D01*
X88646106Y-74308659D01*
X88730314Y-74434686D01*
X88856341Y-74518894D01*
X88942164Y-74535965D01*
X88836500Y-74791060D01*
X88836500Y-75068940D01*
X88942841Y-75325668D01*
X89139332Y-75522159D01*
X89396060Y-75628500D01*
X89673940Y-75628500D01*
X89930668Y-75522159D01*
X90127159Y-75325668D01*
X90233500Y-75068940D01*
X90233500Y-74997716D01*
X90243341Y-74982988D01*
X90276500Y-74816286D01*
X90276500Y-74816282D01*
X90287695Y-74760001D01*
X90276500Y-74703720D01*
X90276500Y-74548464D01*
X90405000Y-74548464D01*
X90553659Y-74518894D01*
X90679686Y-74434686D01*
X90763894Y-74308659D01*
X90793464Y-74160000D01*
X90793464Y-73281500D01*
X90830758Y-73281500D01*
X90846106Y-73358659D01*
X90930314Y-73484686D01*
X91056341Y-73568894D01*
X91205000Y-73598464D01*
X92308314Y-73598464D01*
X92185242Y-73721536D01*
X91205000Y-73721536D01*
X91056341Y-73751106D01*
X90930314Y-73835314D01*
X90846106Y-73961341D01*
X90816536Y-74110000D01*
X90816536Y-75110000D01*
X90846106Y-75258659D01*
X90930314Y-75384686D01*
X91056341Y-75468894D01*
X91205000Y-75498464D01*
X92605000Y-75498464D01*
X92753659Y-75468894D01*
X92879686Y-75384686D01*
X92963894Y-75258659D01*
X92993464Y-75110000D01*
X92993464Y-74529758D01*
X93581723Y-73941500D01*
X100093278Y-73941500D01*
X101028501Y-74876724D01*
X101028500Y-97299275D01*
X99996188Y-98331588D01*
X99948472Y-98363471D01*
X99916589Y-98411187D01*
X99916588Y-98411188D01*
X99822159Y-98552511D01*
X99777804Y-98775499D01*
X99789000Y-98831785D01*
X99788999Y-103385218D01*
X99777804Y-103441499D01*
X99788999Y-103497780D01*
X99788999Y-103497784D01*
X99822158Y-103664486D01*
X99948471Y-103853527D01*
X99986537Y-103878962D01*
X100011972Y-103917028D01*
X100201012Y-104043341D01*
X100367714Y-104076500D01*
X100367719Y-104076500D01*
X100424000Y-104087695D01*
X100462997Y-104079938D01*
X100530314Y-104180686D01*
X100656341Y-104264894D01*
X100805000Y-104294464D01*
X102310000Y-104294464D01*
X102458659Y-104264894D01*
X102584686Y-104180686D01*
X102668894Y-104054659D01*
X102698464Y-103906000D01*
X102698464Y-103104000D01*
X102668894Y-102955341D01*
X102611871Y-102870000D01*
X102652003Y-102809938D01*
X102691000Y-102817695D01*
X102747281Y-102806500D01*
X102747286Y-102806500D01*
X102913988Y-102773341D01*
X103103028Y-102647028D01*
X103134913Y-102599309D01*
X104197723Y-101536500D01*
X104505758Y-101536500D01*
X104521106Y-101613659D01*
X104605314Y-101739686D01*
X104731341Y-101823894D01*
X104851001Y-101847696D01*
X104851000Y-103149936D01*
X104660000Y-103149936D01*
X104511341Y-103179506D01*
X104385314Y-103263714D01*
X104301106Y-103389741D01*
X104271536Y-103538400D01*
X104271536Y-104538400D01*
X104301106Y-104687059D01*
X104385314Y-104813086D01*
X104511341Y-104897294D01*
X104660000Y-104926864D01*
X106160000Y-104926864D01*
X106308659Y-104897294D01*
X106434686Y-104813086D01*
X106518894Y-104687059D01*
X106548464Y-104538400D01*
X106548464Y-103538400D01*
X106518894Y-103389741D01*
X106434686Y-103263714D01*
X106308659Y-103179506D01*
X106160000Y-103149936D01*
X105994000Y-103149936D01*
X105994000Y-101853464D01*
X106280000Y-101853464D01*
X106428659Y-101823894D01*
X106554686Y-101739686D01*
X106638894Y-101613659D01*
X106668464Y-101465000D01*
X106668464Y-100465000D01*
X106638894Y-100316341D01*
X106554686Y-100190314D01*
X106428659Y-100106106D01*
X106280000Y-100076536D01*
X104880000Y-100076536D01*
X104731341Y-100106106D01*
X104605314Y-100190314D01*
X104521106Y-100316341D01*
X104505758Y-100393500D01*
X104017280Y-100393500D01*
X103960999Y-100382305D01*
X103904718Y-100393500D01*
X102654300Y-100393500D01*
X102611871Y-100330000D01*
X102668894Y-100244659D01*
X102698464Y-100096000D01*
X102698464Y-99294000D01*
X102668894Y-99145341D01*
X102584686Y-99019314D01*
X102458659Y-98935106D01*
X102310000Y-98905536D01*
X102308687Y-98905536D01*
X102599322Y-98614901D01*
X102647038Y-98583018D01*
X102678922Y-98535300D01*
X102865223Y-98349000D01*
X103421536Y-98349000D01*
X103421536Y-98527500D01*
X103451106Y-98676159D01*
X103535314Y-98802186D01*
X103661341Y-98886394D01*
X103810000Y-98915964D01*
X104810000Y-98915964D01*
X104958659Y-98886394D01*
X105084686Y-98802186D01*
X105168894Y-98676159D01*
X105198464Y-98527500D01*
X105198464Y-97027500D01*
X105621536Y-97027500D01*
X105621536Y-98527500D01*
X105651106Y-98676159D01*
X105735314Y-98802186D01*
X105861341Y-98886394D01*
X106010000Y-98915964D01*
X107010000Y-98915964D01*
X107077203Y-98902597D01*
X107169962Y-99126536D01*
X107080000Y-99126536D01*
X106931341Y-99156106D01*
X106805314Y-99240314D01*
X106721106Y-99366341D01*
X106691536Y-99515000D01*
X106691536Y-100515000D01*
X106721106Y-100663659D01*
X106805314Y-100789686D01*
X106931341Y-100873894D01*
X107080000Y-100903464D01*
X108263280Y-100903464D01*
X108123660Y-101026536D01*
X107080000Y-101026536D01*
X106931341Y-101056106D01*
X106805314Y-101140314D01*
X106721106Y-101266341D01*
X106691536Y-101415000D01*
X106691536Y-102415000D01*
X106721106Y-102563659D01*
X106805314Y-102689686D01*
X106931341Y-102773894D01*
X107080000Y-102803464D01*
X108480000Y-102803464D01*
X108628659Y-102773894D01*
X108754686Y-102689686D01*
X108838894Y-102563659D01*
X108868464Y-102415000D01*
X108868464Y-101893674D01*
X109400766Y-101424464D01*
X109463529Y-101382527D01*
X109516694Y-101302960D01*
X109574756Y-101226893D01*
X109579518Y-101208937D01*
X109589842Y-101193487D01*
X109608514Y-101099615D01*
X109633043Y-101007135D01*
X109623001Y-100932323D01*
X109623001Y-98672721D01*
X110168259Y-98127464D01*
X110998500Y-98127464D01*
X111147159Y-98097894D01*
X111273186Y-98013686D01*
X111357394Y-97887659D01*
X111386964Y-97739000D01*
X111386964Y-96739000D01*
X111357394Y-96590341D01*
X111273186Y-96464314D01*
X111147159Y-96380106D01*
X110998500Y-96350536D01*
X109498500Y-96350536D01*
X109349841Y-96380106D01*
X109223814Y-96464314D01*
X109139606Y-96590341D01*
X109110036Y-96739000D01*
X109110036Y-97569242D01*
X109051501Y-97627777D01*
X108836915Y-97413191D01*
X108805030Y-97365472D01*
X108615990Y-97239159D01*
X108449288Y-97206000D01*
X108449283Y-97206000D01*
X108393002Y-97194805D01*
X108336721Y-97206000D01*
X107398464Y-97206000D01*
X107398464Y-97027500D01*
X107368894Y-96878841D01*
X107284686Y-96752814D01*
X107158659Y-96668606D01*
X107010000Y-96639036D01*
X106010000Y-96639036D01*
X105861341Y-96668606D01*
X105735314Y-96752814D01*
X105651106Y-96878841D01*
X105621536Y-97027500D01*
X105198464Y-97027500D01*
X105168894Y-96878841D01*
X105084686Y-96752814D01*
X104958659Y-96668606D01*
X104810000Y-96639036D01*
X103810000Y-96639036D01*
X103661341Y-96668606D01*
X103535314Y-96752814D01*
X103451106Y-96878841D01*
X103421536Y-97027500D01*
X103421536Y-97206000D01*
X102806510Y-97206000D01*
X102806510Y-94539000D01*
X109110036Y-94539000D01*
X109110036Y-95539000D01*
X109139606Y-95687659D01*
X109223814Y-95813686D01*
X109349841Y-95897894D01*
X109498500Y-95927464D01*
X110998500Y-95927464D01*
X111147159Y-95897894D01*
X111203123Y-95860500D01*
X117885611Y-95860500D01*
X118098060Y-95948500D01*
X118375940Y-95948500D01*
X118632668Y-95842159D01*
X118829159Y-95645668D01*
X118935500Y-95388940D01*
X118935500Y-95111060D01*
X118829159Y-94854332D01*
X118632668Y-94657841D01*
X118375940Y-94551500D01*
X118098060Y-94551500D01*
X117841332Y-94657841D01*
X117781673Y-94717500D01*
X111386964Y-94717500D01*
X111386964Y-94539000D01*
X111357394Y-94390341D01*
X111273186Y-94264314D01*
X111147159Y-94180106D01*
X110998500Y-94150536D01*
X109498500Y-94150536D01*
X109349841Y-94180106D01*
X109223814Y-94264314D01*
X109139606Y-94390341D01*
X109110036Y-94539000D01*
X102806510Y-94539000D01*
X102806510Y-74224291D01*
X102817705Y-74168010D01*
X102806510Y-74111729D01*
X102806510Y-74111724D01*
X102773351Y-73945022D01*
X102647038Y-73755982D01*
X102599323Y-73724100D01*
X100773913Y-71898691D01*
X100742028Y-71850972D01*
X100552988Y-71724659D01*
X100386286Y-71691500D01*
X103044298Y-71691500D01*
X103096408Y-71817306D01*
X103442694Y-72163592D01*
X103895139Y-72351000D01*
X104384861Y-72351000D01*
X104837306Y-72163592D01*
X105183592Y-71817306D01*
X105371000Y-71364861D01*
X105371000Y-70875139D01*
X105190041Y-70438263D01*
X105501110Y-70749333D01*
X105449000Y-70875139D01*
X105449000Y-71364861D01*
X105636408Y-71817306D01*
X105982694Y-72163592D01*
X106435139Y-72351000D01*
X106924861Y-72351000D01*
X107377306Y-72163592D01*
X107723592Y-71817306D01*
X107911000Y-71364861D01*
X107911000Y-70875139D01*
X107989000Y-70875139D01*
X107989000Y-71364861D01*
X108176408Y-71817306D01*
X108522694Y-72163592D01*
X108975139Y-72351000D01*
X109464861Y-72351000D01*
X109917306Y-72163592D01*
X110263592Y-71817306D01*
X110451000Y-71364861D01*
X110451000Y-70875139D01*
X110529000Y-70875139D01*
X110529000Y-71364861D01*
X110716408Y-71817306D01*
X111062694Y-72163592D01*
X111515139Y-72351000D01*
X112004861Y-72351000D01*
X112457306Y-72163592D01*
X112803592Y-71817306D01*
X112991000Y-71364861D01*
X112991000Y-70875139D01*
X113069000Y-70875139D01*
X113069000Y-71364861D01*
X113256408Y-71817306D01*
X113602694Y-72163592D01*
X114055139Y-72351000D01*
X114544861Y-72351000D01*
X114997306Y-72163592D01*
X115343592Y-71817306D01*
X115531000Y-71364861D01*
X115531000Y-70875139D01*
X115609000Y-70875139D01*
X115609000Y-71364861D01*
X115796408Y-71817306D01*
X116142694Y-72163592D01*
X116595139Y-72351000D01*
X117084861Y-72351000D01*
X117537306Y-72163592D01*
X117883592Y-71817306D01*
X118071000Y-71364861D01*
X118071000Y-70875139D01*
X118149000Y-70875139D01*
X118149000Y-71364861D01*
X118336408Y-71817306D01*
X118682694Y-72163592D01*
X119135139Y-72351000D01*
X119624861Y-72351000D01*
X120077306Y-72163592D01*
X120423592Y-71817306D01*
X120509617Y-71609623D01*
X120699930Y-72016609D01*
X121135920Y-72415259D01*
X121558542Y-72590315D01*
X121793000Y-72469380D01*
X121793000Y-71247000D01*
X120611000Y-71247000D01*
X120611000Y-70993000D01*
X121793000Y-70993000D01*
X121793000Y-69770620D01*
X121558542Y-69649685D01*
X121023391Y-69899930D01*
X120624741Y-70335920D01*
X120506195Y-70622116D01*
X120423592Y-70422694D01*
X120077306Y-70076408D01*
X119624861Y-69889000D01*
X119135139Y-69889000D01*
X118682694Y-70076408D01*
X118336408Y-70422694D01*
X118149000Y-70875139D01*
X118071000Y-70875139D01*
X117883592Y-70422694D01*
X117537306Y-70076408D01*
X117084861Y-69889000D01*
X116595139Y-69889000D01*
X116142694Y-70076408D01*
X115796408Y-70422694D01*
X115609000Y-70875139D01*
X115531000Y-70875139D01*
X115343592Y-70422694D01*
X114997306Y-70076408D01*
X114544861Y-69889000D01*
X114055139Y-69889000D01*
X113602694Y-70076408D01*
X113256408Y-70422694D01*
X113069000Y-70875139D01*
X112991000Y-70875139D01*
X112803592Y-70422694D01*
X112457306Y-70076408D01*
X112004861Y-69889000D01*
X111515139Y-69889000D01*
X111062694Y-70076408D01*
X110716408Y-70422694D01*
X110529000Y-70875139D01*
X110451000Y-70875139D01*
X110263592Y-70422694D01*
X109917306Y-70076408D01*
X109464861Y-69889000D01*
X108975139Y-69889000D01*
X108522694Y-70076408D01*
X108176408Y-70422694D01*
X107989000Y-70875139D01*
X107911000Y-70875139D01*
X107723592Y-70422694D01*
X107377306Y-70076408D01*
X106924861Y-69889000D01*
X106435139Y-69889000D01*
X106309333Y-69941110D01*
X105599913Y-69231691D01*
X105568028Y-69183972D01*
X105378988Y-69057659D01*
X105212286Y-69024500D01*
X105212281Y-69024500D01*
X105156000Y-69013305D01*
X105099719Y-69024500D01*
X96301327Y-69024500D01*
X96280668Y-69003841D01*
X96023940Y-68897500D01*
X95746060Y-68897500D01*
X95489332Y-69003841D01*
X95292841Y-69200332D01*
X95186500Y-69457060D01*
X95186500Y-69734940D01*
X95292841Y-69991668D01*
X95489332Y-70188159D01*
X95746060Y-70294500D01*
X96023940Y-70294500D01*
X96280668Y-70188159D01*
X96301327Y-70167500D01*
X103351602Y-70167500D01*
X103096408Y-70422694D01*
X103044298Y-70548500D01*
X96163073Y-70548500D01*
X95925557Y-70450117D01*
X95647677Y-70450117D01*
X95390949Y-70556458D01*
X95194458Y-70752949D01*
X95088117Y-71009677D01*
X95088117Y-71287557D01*
X95194458Y-71544285D01*
X95271053Y-71620880D01*
X95134940Y-71564500D01*
X95031928Y-71564500D01*
X95059500Y-71425888D01*
X95059500Y-71425884D01*
X95070695Y-71369602D01*
X95059500Y-71313320D01*
X95059500Y-68181722D01*
X95169222Y-68072000D01*
X102235000Y-68072000D01*
X102283601Y-68062333D01*
X102324803Y-68034803D01*
X102352333Y-67993601D01*
X102362000Y-67945000D01*
X102362000Y-66863592D01*
X102588312Y-66818576D01*
X102995501Y-66546501D01*
X103267576Y-66139312D01*
X103363116Y-65659000D01*
X103337854Y-65532000D01*
X103418146Y-65532000D01*
X103392884Y-65659000D01*
X103488424Y-66139312D01*
X103760499Y-66546501D01*
X104167688Y-66818576D01*
X104526761Y-66890000D01*
X104769239Y-66890000D01*
X105128312Y-66818576D01*
X105331570Y-66682763D01*
X106343842Y-66682763D01*
X106421076Y-66930645D01*
X106966092Y-67127336D01*
X107544892Y-67100486D01*
X107954918Y-66930637D01*
X108031688Y-66682293D01*
X107188000Y-65838605D01*
X106343842Y-66682763D01*
X105331570Y-66682763D01*
X105535501Y-66546501D01*
X105807576Y-66139312D01*
X105809475Y-66129767D01*
X105916355Y-66425924D01*
X106164237Y-66503158D01*
X107008395Y-65659000D01*
X106994253Y-65644858D01*
X107107110Y-65532000D01*
X107268890Y-65532000D01*
X107381748Y-65644858D01*
X107367605Y-65659000D01*
X108211293Y-66502688D01*
X108459637Y-66425918D01*
X108574558Y-66148492D01*
X108840499Y-66546501D01*
X109247688Y-66818576D01*
X109606761Y-66890000D01*
X109849239Y-66890000D01*
X110208312Y-66818576D01*
X110615501Y-66546501D01*
X110887576Y-66139312D01*
X110983116Y-65659000D01*
X110957854Y-65532000D01*
X111038146Y-65532000D01*
X111012884Y-65659000D01*
X111108424Y-66139312D01*
X111380499Y-66546501D01*
X111787688Y-66818576D01*
X112146761Y-66890000D01*
X112389239Y-66890000D01*
X112748312Y-66818576D01*
X113155501Y-66546501D01*
X113427576Y-66139312D01*
X113523116Y-65659000D01*
X113497854Y-65532000D01*
X113578146Y-65532000D01*
X113552884Y-65659000D01*
X113648424Y-66139312D01*
X113920499Y-66546501D01*
X114327688Y-66818576D01*
X114686761Y-66890000D01*
X114929239Y-66890000D01*
X115288312Y-66818576D01*
X115695501Y-66546501D01*
X115967576Y-66139312D01*
X116063116Y-65659000D01*
X116037854Y-65532000D01*
X116118146Y-65532000D01*
X116092884Y-65659000D01*
X116188424Y-66139312D01*
X116460499Y-66546501D01*
X116867688Y-66818576D01*
X117226761Y-66890000D01*
X117469239Y-66890000D01*
X117828312Y-66818576D01*
X118235501Y-66546501D01*
X118507576Y-66139312D01*
X118603116Y-65659000D01*
X118577854Y-65532000D01*
X118658146Y-65532000D01*
X118632884Y-65659000D01*
X118728424Y-66139312D01*
X119000499Y-66546501D01*
X119407688Y-66818576D01*
X119766761Y-66890000D01*
X120009239Y-66890000D01*
X120368312Y-66818576D01*
X120775501Y-66546501D01*
X121047576Y-66139312D01*
X121143116Y-65659000D01*
X121117854Y-65532000D01*
X121198146Y-65532000D01*
X121172884Y-65659000D01*
X121268424Y-66139312D01*
X121540499Y-66546501D01*
X121947688Y-66818576D01*
X122306761Y-66890000D01*
X122428000Y-66890000D01*
X122428000Y-69710385D01*
X122281458Y-69649685D01*
X122047000Y-69770620D01*
X122047000Y-70813392D01*
X121934141Y-70926251D01*
X122113749Y-71105859D01*
X122226608Y-70993000D01*
X122428000Y-70993000D01*
X122428000Y-71247000D01*
X122226608Y-71247000D01*
X122113749Y-71134141D01*
X121934141Y-71313749D01*
X122047000Y-71426608D01*
X122047000Y-72469380D01*
X122281458Y-72590315D01*
X122428000Y-72521790D01*
X122428000Y-73449579D01*
X118217080Y-77660500D01*
X118098060Y-77660500D01*
X117841332Y-77766841D01*
X117644841Y-77963332D01*
X117538500Y-78220060D01*
X117538500Y-78497940D01*
X117612463Y-78676500D01*
X117336060Y-78676500D01*
X117079332Y-78782841D01*
X116882841Y-78979332D01*
X116776500Y-79236060D01*
X116776500Y-79513940D01*
X116882841Y-79770668D01*
X117079332Y-79967159D01*
X117182759Y-80010000D01*
X117079332Y-80052841D01*
X116882841Y-80249332D01*
X116776500Y-80506060D01*
X116776500Y-80783940D01*
X116882841Y-81040668D01*
X117079332Y-81237159D01*
X117182759Y-81280000D01*
X117079332Y-81322841D01*
X116882841Y-81519332D01*
X116776500Y-81776060D01*
X116776500Y-82053940D01*
X116882841Y-82310668D01*
X117079332Y-82507159D01*
X117182759Y-82550000D01*
X117079332Y-82592841D01*
X116882841Y-82789332D01*
X116776500Y-83046060D01*
X116776500Y-83323940D01*
X116882841Y-83580668D01*
X117079332Y-83777159D01*
X117182759Y-83820000D01*
X117079332Y-83862841D01*
X116882841Y-84059332D01*
X116776500Y-84316060D01*
X116776500Y-84593940D01*
X116882841Y-84850668D01*
X117079332Y-85047159D01*
X117182759Y-85090000D01*
X117079332Y-85132841D01*
X116882841Y-85329332D01*
X116776500Y-85586060D01*
X116776500Y-85863940D01*
X116882841Y-86120668D01*
X117079332Y-86317159D01*
X117182759Y-86360000D01*
X117079332Y-86402841D01*
X116882841Y-86599332D01*
X116776500Y-86856060D01*
X116776500Y-87133940D01*
X116882841Y-87390668D01*
X117079332Y-87587159D01*
X117336060Y-87693500D01*
X117613940Y-87693500D01*
X117870668Y-87587159D01*
X117891327Y-87566500D01*
X128668278Y-87566500D01*
X131826587Y-90724810D01*
X131858471Y-90772527D01*
X131934548Y-90823361D01*
X132180520Y-91069333D01*
X132128410Y-91195139D01*
X132128410Y-91684861D01*
X132315818Y-92137306D01*
X132662104Y-92483592D01*
X133114549Y-92671000D01*
X133604271Y-92671000D01*
X134056716Y-92483592D01*
X134403002Y-92137306D01*
X134590410Y-91684861D01*
X134590410Y-91195139D01*
X134659000Y-91195139D01*
X134659000Y-91684861D01*
X134846408Y-92137306D01*
X135192694Y-92483592D01*
X135645139Y-92671000D01*
X136134861Y-92671000D01*
X136586422Y-92483958D01*
X137565647Y-92483958D01*
X137645920Y-92735259D01*
X138201279Y-92936718D01*
X138791458Y-92910315D01*
X139214080Y-92735259D01*
X139294353Y-92483958D01*
X138430000Y-91619605D01*
X137565647Y-92483958D01*
X136586422Y-92483958D01*
X136587306Y-92483592D01*
X136933592Y-92137306D01*
X137016195Y-91937884D01*
X137134741Y-92224080D01*
X137386042Y-92304353D01*
X138250395Y-91440000D01*
X138609605Y-91440000D01*
X139473958Y-92304353D01*
X139725259Y-92224080D01*
X139926718Y-91668721D01*
X139900315Y-91078542D01*
X139725259Y-90655920D01*
X139473958Y-90575647D01*
X138609605Y-91440000D01*
X138250395Y-91440000D01*
X137386042Y-90575647D01*
X137134741Y-90655920D01*
X137024046Y-90961071D01*
X136933592Y-90742694D01*
X136587306Y-90396408D01*
X136134861Y-90209000D01*
X135645139Y-90209000D01*
X135192694Y-90396408D01*
X134846408Y-90742694D01*
X134659000Y-91195139D01*
X134590410Y-91195139D01*
X134403002Y-90742694D01*
X134056716Y-90396408D01*
X133604271Y-90209000D01*
X133114549Y-90209000D01*
X132988743Y-90261110D01*
X132723822Y-89996190D01*
X132698846Y-89958811D01*
X133114549Y-90131000D01*
X133604271Y-90131000D01*
X134056716Y-89943592D01*
X134403002Y-89597306D01*
X134590410Y-89144861D01*
X134590410Y-88655139D01*
X134659000Y-88655139D01*
X134659000Y-89144861D01*
X134846408Y-89597306D01*
X135192694Y-89943592D01*
X135645139Y-90131000D01*
X136134861Y-90131000D01*
X136586422Y-89943958D01*
X137565647Y-89943958D01*
X137637852Y-90170000D01*
X137565647Y-90396042D01*
X138430000Y-91260395D01*
X139294353Y-90396042D01*
X139222148Y-90170000D01*
X139294353Y-89943958D01*
X138430000Y-89079605D01*
X137565647Y-89943958D01*
X136586422Y-89943958D01*
X136587306Y-89943592D01*
X136933592Y-89597306D01*
X137016195Y-89397884D01*
X137134741Y-89684080D01*
X137386042Y-89764353D01*
X138250395Y-88900000D01*
X138609605Y-88900000D01*
X139473958Y-89764353D01*
X139725259Y-89684080D01*
X139926718Y-89128721D01*
X139900315Y-88538542D01*
X139725259Y-88115920D01*
X139473958Y-88035647D01*
X138609605Y-88900000D01*
X138250395Y-88900000D01*
X137386042Y-88035647D01*
X137134741Y-88115920D01*
X137024046Y-88421071D01*
X136933592Y-88202694D01*
X136587306Y-87856408D01*
X136134861Y-87669000D01*
X135645139Y-87669000D01*
X135192694Y-87856408D01*
X134846408Y-88202694D01*
X134659000Y-88655139D01*
X134590410Y-88655139D01*
X134403002Y-88202694D01*
X134056716Y-87856408D01*
X133604271Y-87669000D01*
X133114549Y-87669000D01*
X132988743Y-87721110D01*
X132677674Y-87410041D01*
X133114549Y-87591000D01*
X133604271Y-87591000D01*
X134056716Y-87403592D01*
X134403002Y-87057306D01*
X134590410Y-86604861D01*
X134590410Y-86115139D01*
X134659000Y-86115139D01*
X134659000Y-86604861D01*
X134846408Y-87057306D01*
X135192694Y-87403592D01*
X135645139Y-87591000D01*
X136134861Y-87591000D01*
X136586422Y-87403958D01*
X137565647Y-87403958D01*
X137637852Y-87630000D01*
X137565647Y-87856042D01*
X138430000Y-88720395D01*
X139294353Y-87856042D01*
X139222148Y-87630000D01*
X139294353Y-87403958D01*
X138430000Y-86539605D01*
X137565647Y-87403958D01*
X136586422Y-87403958D01*
X136587306Y-87403592D01*
X136933592Y-87057306D01*
X137016195Y-86857884D01*
X137134741Y-87144080D01*
X137386042Y-87224353D01*
X138250395Y-86360000D01*
X138609605Y-86360000D01*
X139473958Y-87224353D01*
X139725259Y-87144080D01*
X139926718Y-86588721D01*
X139900315Y-85998542D01*
X139725259Y-85575920D01*
X139473958Y-85495647D01*
X138609605Y-86360000D01*
X138250395Y-86360000D01*
X137386042Y-85495647D01*
X137134741Y-85575920D01*
X137024046Y-85881071D01*
X136933592Y-85662694D01*
X136587306Y-85316408D01*
X136134861Y-85129000D01*
X135645139Y-85129000D01*
X135192694Y-85316408D01*
X134846408Y-85662694D01*
X134659000Y-86115139D01*
X134590410Y-86115139D01*
X134403002Y-85662694D01*
X134056716Y-85316408D01*
X133604271Y-85129000D01*
X133114549Y-85129000D01*
X132662104Y-85316408D01*
X132570867Y-85407645D01*
X131554722Y-84391500D01*
X132263708Y-84391500D01*
X132315818Y-84517306D01*
X132662104Y-84863592D01*
X133114549Y-85051000D01*
X133604271Y-85051000D01*
X134056716Y-84863592D01*
X134403002Y-84517306D01*
X134590410Y-84064861D01*
X134590410Y-83575139D01*
X134481415Y-83312000D01*
X134767995Y-83312000D01*
X134659000Y-83575139D01*
X134659000Y-84064861D01*
X134846408Y-84517306D01*
X135192694Y-84863592D01*
X135645139Y-85051000D01*
X136134861Y-85051000D01*
X136586422Y-84863958D01*
X137565647Y-84863958D01*
X137637852Y-85090000D01*
X137565647Y-85316042D01*
X138430000Y-86180395D01*
X139294353Y-85316042D01*
X139222148Y-85090000D01*
X139294353Y-84863958D01*
X138430000Y-83999605D01*
X137565647Y-84863958D01*
X136586422Y-84863958D01*
X136587306Y-84863592D01*
X136933592Y-84517306D01*
X137016195Y-84317884D01*
X137134741Y-84604080D01*
X137386042Y-84684353D01*
X138250395Y-83820000D01*
X138236253Y-83805858D01*
X138415858Y-83626253D01*
X138430000Y-83640395D01*
X138444143Y-83626253D01*
X138623748Y-83805858D01*
X138609605Y-83820000D01*
X139473958Y-84684353D01*
X139725259Y-84604080D01*
X139881384Y-84173691D01*
X140855000Y-84173691D01*
X140855000Y-84514250D01*
X141013750Y-84673000D01*
X142113000Y-84673000D01*
X142113000Y-83823750D01*
X141954250Y-83665000D01*
X141363690Y-83665000D01*
X141130301Y-83761673D01*
X140951673Y-83940302D01*
X140855000Y-84173691D01*
X139881384Y-84173691D01*
X139926718Y-84048721D01*
X139900315Y-83458542D01*
X139839615Y-83312000D01*
X143242357Y-83312000D01*
X143242357Y-83717210D01*
X143116310Y-83665000D01*
X142525750Y-83665000D01*
X142367000Y-83823750D01*
X142367000Y-84673000D01*
X142387000Y-84673000D01*
X142387000Y-84927000D01*
X142367000Y-84927000D01*
X142367000Y-84947000D01*
X142113000Y-84947000D01*
X142113000Y-84927000D01*
X141013750Y-84927000D01*
X140855000Y-85085750D01*
X140855000Y-85426309D01*
X140951673Y-85659698D01*
X141130301Y-85838327D01*
X141216952Y-85874219D01*
X141215314Y-85875314D01*
X141131106Y-86001341D01*
X141101536Y-86150000D01*
X141101536Y-87150000D01*
X141131106Y-87298659D01*
X141215314Y-87424686D01*
X141341341Y-87508894D01*
X141490000Y-87538464D01*
X141541500Y-87538464D01*
X141541500Y-87628940D01*
X141647841Y-87885668D01*
X141844332Y-88082159D01*
X142101060Y-88188500D01*
X142378940Y-88188500D01*
X142635668Y-88082159D01*
X142832159Y-87885668D01*
X142938500Y-87628940D01*
X142938500Y-87538464D01*
X142990000Y-87538464D01*
X143138659Y-87508894D01*
X143242357Y-87439606D01*
X143242356Y-113804876D01*
X143166956Y-114441926D01*
X142953045Y-115028051D01*
X142610033Y-115549243D01*
X142156321Y-115977549D01*
X141616250Y-116289986D01*
X141014668Y-116471042D01*
X140532949Y-116513611D01*
X81564021Y-116513611D01*
X80926614Y-116439297D01*
X80340122Y-116226411D01*
X79818329Y-115884309D01*
X79389235Y-115431348D01*
X79075850Y-114891815D01*
X78893785Y-114290686D01*
X78850356Y-113804077D01*
X78850356Y-112746933D01*
X79159000Y-112746933D01*
X79159000Y-113893067D01*
X79597606Y-114951955D01*
X80408045Y-115762394D01*
X81466933Y-116201000D01*
X82613067Y-116201000D01*
X83671955Y-115762394D01*
X84482394Y-114951955D01*
X84921000Y-113893067D01*
X84921000Y-112746933D01*
X84916858Y-112736933D01*
X137149000Y-112736933D01*
X137149000Y-113883067D01*
X137587606Y-114941955D01*
X138398045Y-115752394D01*
X139456933Y-116191000D01*
X140603067Y-116191000D01*
X141661955Y-115752394D01*
X142472394Y-114941955D01*
X142911000Y-113883067D01*
X142911000Y-112736933D01*
X142472394Y-111678045D01*
X141661955Y-110867606D01*
X140603067Y-110429000D01*
X139456933Y-110429000D01*
X138398045Y-110867606D01*
X137587606Y-111678045D01*
X137149000Y-112736933D01*
X84916858Y-112736933D01*
X84482394Y-111688045D01*
X83671955Y-110877606D01*
X82613067Y-110439000D01*
X81466933Y-110439000D01*
X80408045Y-110877606D01*
X79597606Y-111688045D01*
X79159000Y-112746933D01*
X78850356Y-112746933D01*
X78850356Y-106010000D01*
X89044036Y-106010000D01*
X89044036Y-107010000D01*
X89073606Y-107158659D01*
X89157814Y-107284686D01*
X89283841Y-107368894D01*
X89432500Y-107398464D01*
X89537193Y-107398464D01*
X89471500Y-107557060D01*
X89471500Y-107834940D01*
X89577841Y-108091668D01*
X89774332Y-108288159D01*
X90031060Y-108394500D01*
X90308940Y-108394500D01*
X90565668Y-108288159D01*
X90762159Y-108091668D01*
X90868500Y-107834940D01*
X90868500Y-107557060D01*
X90802807Y-107398464D01*
X90932500Y-107398464D01*
X91081159Y-107368894D01*
X91207186Y-107284686D01*
X91291394Y-107158659D01*
X91320964Y-107010000D01*
X91320964Y-106010000D01*
X91291394Y-105861341D01*
X91207186Y-105735314D01*
X91081159Y-105651106D01*
X90932500Y-105621536D01*
X89432500Y-105621536D01*
X89283841Y-105651106D01*
X89157814Y-105735314D01*
X89073606Y-105861341D01*
X89044036Y-106010000D01*
X78850356Y-106010000D01*
X78850356Y-98805193D01*
X81269000Y-98805193D01*
X81269000Y-99314807D01*
X81464021Y-99785628D01*
X81824372Y-100145979D01*
X82295193Y-100341000D01*
X82804807Y-100341000D01*
X82958935Y-100277158D01*
X83796088Y-101114311D01*
X83827972Y-101162028D01*
X84017012Y-101288341D01*
X84183714Y-101321500D01*
X84183719Y-101321500D01*
X84240000Y-101332695D01*
X84296281Y-101321500D01*
X89227877Y-101321500D01*
X89283841Y-101358894D01*
X89432500Y-101388464D01*
X90932500Y-101388464D01*
X91081159Y-101358894D01*
X91137123Y-101321500D01*
X93563673Y-101321500D01*
X93584332Y-101342159D01*
X93841060Y-101448500D01*
X94118940Y-101448500D01*
X94375668Y-101342159D01*
X94396327Y-101321500D01*
X95421536Y-101321500D01*
X95421536Y-101366000D01*
X95451106Y-101514659D01*
X95508129Y-101600000D01*
X95451106Y-101685341D01*
X95421536Y-101834000D01*
X95421536Y-101875690D01*
X92873591Y-101867964D01*
X92851668Y-101846041D01*
X92594940Y-101739700D01*
X92317060Y-101739700D01*
X92060332Y-101846041D01*
X92037508Y-101868865D01*
X91129754Y-101873576D01*
X91081159Y-101841106D01*
X90932500Y-101811536D01*
X89432500Y-101811536D01*
X89283841Y-101841106D01*
X89227877Y-101878500D01*
X84216282Y-101878500D01*
X84160000Y-101867305D01*
X84103717Y-101878500D01*
X84103714Y-101878500D01*
X83975574Y-101903989D01*
X83937011Y-101911659D01*
X83795688Y-102006089D01*
X83747972Y-102037972D01*
X83716089Y-102085688D01*
X82958935Y-102842842D01*
X82804807Y-102779000D01*
X82295193Y-102779000D01*
X81824372Y-102974021D01*
X81464021Y-103334372D01*
X81269000Y-103805193D01*
X81269000Y-104314807D01*
X81464021Y-104785628D01*
X81824372Y-105145979D01*
X82295193Y-105341000D01*
X82804807Y-105341000D01*
X83275628Y-105145979D01*
X83635979Y-104785628D01*
X83831000Y-104314807D01*
X83831000Y-103805193D01*
X83767158Y-103651065D01*
X84396723Y-103021500D01*
X89044036Y-103021500D01*
X89044036Y-103200000D01*
X89073606Y-103348659D01*
X89157814Y-103474686D01*
X89203182Y-103505000D01*
X89157814Y-103535314D01*
X89073606Y-103661341D01*
X89044036Y-103810000D01*
X89044036Y-104810000D01*
X89073606Y-104958659D01*
X89157814Y-105084686D01*
X89283841Y-105168894D01*
X89432500Y-105198464D01*
X90932500Y-105198464D01*
X91081159Y-105168894D01*
X91207186Y-105084686D01*
X91236375Y-105041000D01*
X93817536Y-105041000D01*
X93817536Y-106541000D01*
X93847106Y-106689659D01*
X93931314Y-106815686D01*
X94057341Y-106899894D01*
X94206000Y-106929464D01*
X94272644Y-106929464D01*
X94170500Y-107176060D01*
X94170500Y-107453940D01*
X94276841Y-107710668D01*
X94473332Y-107907159D01*
X94730060Y-108013500D01*
X95007940Y-108013500D01*
X95264668Y-107907159D01*
X95461159Y-107710668D01*
X95567500Y-107453940D01*
X95567500Y-107176060D01*
X95461159Y-106919332D01*
X95427500Y-106885673D01*
X95427500Y-106851224D01*
X95480686Y-106815686D01*
X95481781Y-106814048D01*
X95517673Y-106900699D01*
X95696302Y-107079327D01*
X95929691Y-107176000D01*
X96270250Y-107176000D01*
X96429000Y-107017250D01*
X96429000Y-105918000D01*
X96683000Y-105918000D01*
X96683000Y-107017250D01*
X96841750Y-107176000D01*
X97182309Y-107176000D01*
X97415698Y-107079327D01*
X97594327Y-106900699D01*
X97691000Y-106667310D01*
X97691000Y-106524150D01*
X104025000Y-106524150D01*
X104025000Y-106864709D01*
X104121673Y-107098098D01*
X104300301Y-107276727D01*
X104533690Y-107373400D01*
X105124250Y-107373400D01*
X105283000Y-107214650D01*
X105283000Y-106365400D01*
X105537000Y-106365400D01*
X105537000Y-107214650D01*
X105695750Y-107373400D01*
X106286310Y-107373400D01*
X106519699Y-107276727D01*
X106698327Y-107098098D01*
X106795000Y-106864709D01*
X106795000Y-106524150D01*
X106636250Y-106365400D01*
X105537000Y-106365400D01*
X105283000Y-106365400D01*
X104183750Y-106365400D01*
X104025000Y-106524150D01*
X97691000Y-106524150D01*
X97691000Y-106076750D01*
X97532250Y-105918000D01*
X96683000Y-105918000D01*
X96429000Y-105918000D01*
X96409000Y-105918000D01*
X96409000Y-105664000D01*
X96429000Y-105664000D01*
X96429000Y-104564750D01*
X96683000Y-104564750D01*
X96683000Y-105664000D01*
X97532250Y-105664000D01*
X97584159Y-105612091D01*
X104025000Y-105612091D01*
X104025000Y-105952650D01*
X104183750Y-106111400D01*
X105283000Y-106111400D01*
X105283000Y-105262150D01*
X105537000Y-105262150D01*
X105537000Y-106111400D01*
X106636250Y-106111400D01*
X106795000Y-105952650D01*
X106795000Y-105612091D01*
X106698327Y-105378702D01*
X106519699Y-105200073D01*
X106286310Y-105103400D01*
X105695750Y-105103400D01*
X105537000Y-105262150D01*
X105283000Y-105262150D01*
X105124250Y-105103400D01*
X104533690Y-105103400D01*
X104300301Y-105200073D01*
X104121673Y-105378702D01*
X104025000Y-105612091D01*
X97584159Y-105612091D01*
X97691000Y-105505250D01*
X97691000Y-104914690D01*
X97594327Y-104681301D01*
X97450301Y-104537276D01*
X97674699Y-104444327D01*
X97853327Y-104265698D01*
X97950000Y-104032309D01*
X97950000Y-103790750D01*
X97791250Y-103632000D01*
X96689500Y-103632000D01*
X96689500Y-104382250D01*
X96777500Y-104470250D01*
X96683000Y-104564750D01*
X96429000Y-104564750D01*
X96341000Y-104476750D01*
X96435500Y-104382250D01*
X96435500Y-103632000D01*
X95333750Y-103632000D01*
X95175000Y-103790750D01*
X95175000Y-104032309D01*
X95271673Y-104265698D01*
X95450301Y-104444327D01*
X95665507Y-104533468D01*
X95517673Y-104681301D01*
X95481781Y-104767952D01*
X95480686Y-104766314D01*
X95354659Y-104682106D01*
X95206000Y-104652536D01*
X94206000Y-104652536D01*
X94057341Y-104682106D01*
X93931314Y-104766314D01*
X93847106Y-104892341D01*
X93817536Y-105041000D01*
X91236375Y-105041000D01*
X91291394Y-104958659D01*
X91320964Y-104810000D01*
X91320964Y-103810000D01*
X91291394Y-103661341D01*
X91207186Y-103535314D01*
X91161818Y-103505000D01*
X91207186Y-103474686D01*
X91291394Y-103348659D01*
X91320964Y-103200000D01*
X91320964Y-103015598D01*
X92041830Y-103011857D01*
X92060332Y-103030359D01*
X92317060Y-103136700D01*
X92594940Y-103136700D01*
X92851668Y-103030359D01*
X92871066Y-103010961D01*
X95175000Y-103017947D01*
X95175000Y-103219250D01*
X95333750Y-103378000D01*
X96435500Y-103378000D01*
X96435500Y-103358000D01*
X96689500Y-103358000D01*
X96689500Y-103378000D01*
X97791250Y-103378000D01*
X97950000Y-103219250D01*
X97950000Y-102977691D01*
X97853327Y-102744302D01*
X97703464Y-102594438D01*
X97703464Y-101834000D01*
X97673894Y-101685341D01*
X97616871Y-101600000D01*
X97673894Y-101514659D01*
X97703464Y-101366000D01*
X97703464Y-100564000D01*
X97673894Y-100415341D01*
X97616871Y-100330000D01*
X97673894Y-100244659D01*
X97703464Y-100096000D01*
X97703464Y-99294000D01*
X97673894Y-99145341D01*
X97589686Y-99019314D01*
X97463659Y-98935106D01*
X97315000Y-98905536D01*
X97134000Y-98905536D01*
X97134000Y-98767940D01*
X97218500Y-98563940D01*
X97218500Y-98286060D01*
X97112159Y-98029332D01*
X96915668Y-97832841D01*
X96658940Y-97726500D01*
X96381060Y-97726500D01*
X96124332Y-97832841D01*
X95927841Y-98029332D01*
X95821500Y-98286060D01*
X95821500Y-98563940D01*
X95927841Y-98820668D01*
X95991001Y-98883828D01*
X95991001Y-98905536D01*
X95810000Y-98905536D01*
X95661341Y-98935106D01*
X95535314Y-99019314D01*
X95451106Y-99145341D01*
X95421536Y-99294000D01*
X95421536Y-100096000D01*
X95437946Y-100178500D01*
X94396327Y-100178500D01*
X94375668Y-100157841D01*
X94118940Y-100051500D01*
X93841060Y-100051500D01*
X93584332Y-100157841D01*
X93563673Y-100178500D01*
X91320964Y-100178500D01*
X91320964Y-100000000D01*
X91291394Y-99851341D01*
X91207186Y-99725314D01*
X91149318Y-99686648D01*
X91182186Y-99664686D01*
X91266394Y-99538659D01*
X91295964Y-99390000D01*
X91295964Y-98390000D01*
X91266394Y-98241341D01*
X91182186Y-98115314D01*
X91056159Y-98031106D01*
X90907500Y-98001536D01*
X89407500Y-98001536D01*
X89258841Y-98031106D01*
X89132814Y-98115314D01*
X89048606Y-98241341D01*
X89019036Y-98390000D01*
X89019036Y-99390000D01*
X89048606Y-99538659D01*
X89132814Y-99664686D01*
X89190682Y-99703352D01*
X89157814Y-99725314D01*
X89073606Y-99851341D01*
X89044036Y-100000000D01*
X89044036Y-100178500D01*
X84476723Y-100178500D01*
X83767158Y-99468935D01*
X83831000Y-99314807D01*
X83831000Y-98805193D01*
X83635979Y-98334372D01*
X83275628Y-97974021D01*
X82804807Y-97779000D01*
X82295193Y-97779000D01*
X81824372Y-97974021D01*
X81464021Y-98334372D01*
X81269000Y-98805193D01*
X78850356Y-98805193D01*
X78850356Y-96975750D01*
X88772500Y-96975750D01*
X88772500Y-97316309D01*
X88869173Y-97549698D01*
X89047801Y-97728327D01*
X89281190Y-97825000D01*
X89871750Y-97825000D01*
X90030500Y-97666250D01*
X90030500Y-96817000D01*
X90284500Y-96817000D01*
X90284500Y-97666250D01*
X90443250Y-97825000D01*
X91033810Y-97825000D01*
X91267199Y-97728327D01*
X91445827Y-97549698D01*
X91542500Y-97316309D01*
X91542500Y-96975750D01*
X91383750Y-96817000D01*
X90284500Y-96817000D01*
X90030500Y-96817000D01*
X88931250Y-96817000D01*
X88772500Y-96975750D01*
X78850356Y-96975750D01*
X78850356Y-96063691D01*
X88772500Y-96063691D01*
X88772500Y-96404250D01*
X88931250Y-96563000D01*
X90030500Y-96563000D01*
X90030500Y-95713750D01*
X90284500Y-95713750D01*
X90284500Y-96563000D01*
X91383750Y-96563000D01*
X91542500Y-96404250D01*
X91542500Y-96063691D01*
X91445827Y-95830302D01*
X91267199Y-95651673D01*
X91033810Y-95555000D01*
X90443250Y-95555000D01*
X90284500Y-95713750D01*
X90030500Y-95713750D01*
X89871750Y-95555000D01*
X89281190Y-95555000D01*
X89047801Y-95651673D01*
X88869173Y-95830302D01*
X88772500Y-96063691D01*
X78850356Y-96063691D01*
X78850356Y-90986281D01*
X84079000Y-90986281D01*
X84079000Y-91893719D01*
X84426262Y-92732082D01*
X85067918Y-93373738D01*
X85906281Y-93721000D01*
X86813719Y-93721000D01*
X87652082Y-93373738D01*
X88293738Y-92732082D01*
X88641000Y-91893719D01*
X88641000Y-90986281D01*
X88293738Y-90147918D01*
X87652082Y-89506262D01*
X87160504Y-89302643D01*
X91567000Y-89302643D01*
X91567000Y-89757357D01*
X91741011Y-90177458D01*
X92062542Y-90498989D01*
X92482643Y-90673000D01*
X92937357Y-90673000D01*
X93357458Y-90498989D01*
X93678989Y-90177458D01*
X93853000Y-89757357D01*
X93853000Y-89302643D01*
X93678989Y-88882542D01*
X93357458Y-88561011D01*
X92937357Y-88387000D01*
X92482643Y-88387000D01*
X92062542Y-88561011D01*
X91741011Y-88882542D01*
X91567000Y-89302643D01*
X87160504Y-89302643D01*
X86813719Y-89159000D01*
X85906281Y-89159000D01*
X85067918Y-89506262D01*
X84426262Y-90147918D01*
X84079000Y-90986281D01*
X78850356Y-90986281D01*
X78850356Y-86762643D01*
X91567000Y-86762643D01*
X91567000Y-87217357D01*
X91741011Y-87637458D01*
X92062542Y-87958989D01*
X92482643Y-88133000D01*
X92937357Y-88133000D01*
X93179640Y-88032643D01*
X94107000Y-88032643D01*
X94107000Y-88487357D01*
X94281011Y-88907458D01*
X94602542Y-89228989D01*
X95022643Y-89403000D01*
X95477357Y-89403000D01*
X95897458Y-89228989D01*
X96218989Y-88907458D01*
X96393000Y-88487357D01*
X96393000Y-88032643D01*
X96218989Y-87612542D01*
X95897458Y-87291011D01*
X95477357Y-87117000D01*
X95022643Y-87117000D01*
X94602542Y-87291011D01*
X94281011Y-87612542D01*
X94107000Y-88032643D01*
X93179640Y-88032643D01*
X93357458Y-87958989D01*
X93678989Y-87637458D01*
X93853000Y-87217357D01*
X93853000Y-86762643D01*
X93678989Y-86342542D01*
X93357458Y-86021011D01*
X92937357Y-85847000D01*
X92482643Y-85847000D01*
X92062542Y-86021011D01*
X91741011Y-86342542D01*
X91567000Y-86762643D01*
X78850356Y-86762643D01*
X78850356Y-84222643D01*
X91567000Y-84222643D01*
X91567000Y-84677357D01*
X91741011Y-85097458D01*
X92062542Y-85418989D01*
X92482643Y-85593000D01*
X92937357Y-85593000D01*
X93179640Y-85492643D01*
X94107000Y-85492643D01*
X94107000Y-85947357D01*
X94281011Y-86367458D01*
X94602542Y-86688989D01*
X95022643Y-86863000D01*
X95477357Y-86863000D01*
X95897458Y-86688989D01*
X96218989Y-86367458D01*
X96393000Y-85947357D01*
X96393000Y-85492643D01*
X96218989Y-85072542D01*
X95897458Y-84751011D01*
X95477357Y-84577000D01*
X95022643Y-84577000D01*
X94602542Y-84751011D01*
X94281011Y-85072542D01*
X94107000Y-85492643D01*
X93179640Y-85492643D01*
X93357458Y-85418989D01*
X93678989Y-85097458D01*
X93853000Y-84677357D01*
X93853000Y-84222643D01*
X93678989Y-83802542D01*
X93357458Y-83481011D01*
X92937357Y-83307000D01*
X92482643Y-83307000D01*
X92062542Y-83481011D01*
X91741011Y-83802542D01*
X91567000Y-84222643D01*
X78850356Y-84222643D01*
X78850356Y-80826281D01*
X84079000Y-80826281D01*
X84079000Y-81733719D01*
X84426262Y-82572082D01*
X85067918Y-83213738D01*
X85906281Y-83561000D01*
X86813719Y-83561000D01*
X87652082Y-83213738D01*
X87913177Y-82952643D01*
X94107000Y-82952643D01*
X94107000Y-83407357D01*
X94281011Y-83827458D01*
X94602542Y-84148989D01*
X95022643Y-84323000D01*
X95477357Y-84323000D01*
X95897458Y-84148989D01*
X96218989Y-83827458D01*
X96393000Y-83407357D01*
X96393000Y-82952643D01*
X96218989Y-82532542D01*
X95897458Y-82211011D01*
X95477357Y-82037000D01*
X95022643Y-82037000D01*
X94602542Y-82211011D01*
X94281011Y-82532542D01*
X94107000Y-82952643D01*
X87913177Y-82952643D01*
X88293738Y-82572082D01*
X88641000Y-81733719D01*
X88641000Y-80826281D01*
X88293738Y-79987918D01*
X87652082Y-79346262D01*
X86813719Y-78999000D01*
X85906281Y-78999000D01*
X85067918Y-79346262D01*
X84426262Y-79987918D01*
X84079000Y-80826281D01*
X78850356Y-80826281D01*
X78850356Y-76704550D01*
X85965600Y-76704550D01*
X85965600Y-77045109D01*
X86062273Y-77278498D01*
X86240901Y-77457127D01*
X86474290Y-77553800D01*
X87064850Y-77553800D01*
X87223600Y-77395050D01*
X87223600Y-76545800D01*
X87477600Y-76545800D01*
X87477600Y-77395050D01*
X87636350Y-77553800D01*
X88226910Y-77553800D01*
X88460299Y-77457127D01*
X88638927Y-77278498D01*
X88735600Y-77045109D01*
X88735600Y-76704550D01*
X88576850Y-76545800D01*
X87477600Y-76545800D01*
X87223600Y-76545800D01*
X86124350Y-76545800D01*
X85965600Y-76704550D01*
X78850356Y-76704550D01*
X78850356Y-75792491D01*
X85965600Y-75792491D01*
X85965600Y-76133050D01*
X86124350Y-76291800D01*
X87223600Y-76291800D01*
X87223600Y-75442550D01*
X87477600Y-75442550D01*
X87477600Y-76291800D01*
X88576850Y-76291800D01*
X88735600Y-76133050D01*
X88735600Y-75792491D01*
X88638927Y-75559102D01*
X88460299Y-75380473D01*
X88226910Y-75283800D01*
X87636350Y-75283800D01*
X87477600Y-75442550D01*
X87223600Y-75442550D01*
X87064850Y-75283800D01*
X86474290Y-75283800D01*
X86240901Y-75380473D01*
X86062273Y-75559102D01*
X85965600Y-75792491D01*
X78850356Y-75792491D01*
X78850356Y-69704000D01*
X82587536Y-69704000D01*
X82587536Y-70504000D01*
X82617106Y-70652659D01*
X82701314Y-70778686D01*
X82804501Y-70847633D01*
X82804501Y-70953550D01*
X82740500Y-71108060D01*
X82740500Y-71385940D01*
X82846841Y-71642668D01*
X83043332Y-71839159D01*
X83082869Y-71855536D01*
X82976000Y-71855536D01*
X82827341Y-71885106D01*
X82701314Y-71969314D01*
X82617106Y-72095341D01*
X82587536Y-72244000D01*
X82587536Y-73044000D01*
X82617106Y-73192659D01*
X82701314Y-73318686D01*
X82804501Y-73387633D01*
X82804501Y-73620550D01*
X82740500Y-73775060D01*
X82740500Y-74052940D01*
X82846841Y-74309668D01*
X83043332Y-74506159D01*
X83300060Y-74612500D01*
X83577940Y-74612500D01*
X83834668Y-74506159D01*
X84031159Y-74309668D01*
X84137500Y-74052940D01*
X84137500Y-73775060D01*
X84031159Y-73518332D01*
X83947500Y-73434673D01*
X83947500Y-73387632D01*
X84050686Y-73318686D01*
X84134894Y-73192659D01*
X84164464Y-73044000D01*
X84164464Y-72244000D01*
X84134894Y-72095341D01*
X84050686Y-71969314D01*
X83924659Y-71885106D01*
X83788924Y-71858107D01*
X83834668Y-71839159D01*
X84031159Y-71642668D01*
X84137500Y-71385940D01*
X84137500Y-71108060D01*
X84031159Y-70851332D01*
X83995432Y-70815605D01*
X84050686Y-70778686D01*
X84134894Y-70652659D01*
X84164464Y-70504000D01*
X84164464Y-69704000D01*
X84134894Y-69555341D01*
X84050686Y-69429314D01*
X83924659Y-69345106D01*
X83776000Y-69315536D01*
X82976000Y-69315536D01*
X82827341Y-69345106D01*
X82701314Y-69429314D01*
X82617106Y-69555341D01*
X82587536Y-69704000D01*
X78850356Y-69704000D01*
X78850356Y-63835275D01*
X78924670Y-63197869D01*
X79137557Y-62611375D01*
X79479660Y-62089582D01*
X79932619Y-61660490D01*
X80472150Y-61347105D01*
X81073285Y-61165039D01*
X81559889Y-61121611D01*
X84328000Y-61121611D01*
X84328000Y-62524906D01*
M02*
