%TF.GenerationSoftware,KiCad,Pcbnew,4.0.2-stable*%
%TF.CreationDate,2021-11-10T19:01:32-08:00*%
%TF.ProjectId,ADC,4144432E6B696361645F706362000000,rev?*%
%TF.FileFunction,Soldermask,Bot*%
%FSLAX46Y46*%
G04 Gerber Fmt 4.6, Leading zero omitted, Abs format (unit mm)*
G04 Created by KiCad (PCBNEW 4.0.2-stable) date 11/10/2021 7:01:32 PM*
%MOMM*%
G01*
G04 APERTURE LIST*
%ADD10C,0.100000*%
%ADD11C,0.150000*%
G04 APERTURE END LIST*
D10*
D11*
X106680000Y-119380000D02*
X106680000Y-53340000D01*
X139700000Y-119380000D02*
X106680000Y-119380000D01*
X139700000Y-53340000D02*
X139700000Y-119380000D01*
X106680000Y-53340000D02*
X139700000Y-53340000D01*
D10*
G36*
X109298702Y-116091198D02*
X109442646Y-116120745D01*
X109578110Y-116177689D01*
X109699932Y-116259860D01*
X109803477Y-116364130D01*
X109884793Y-116486520D01*
X109884794Y-116486523D01*
X109940791Y-116622380D01*
X109962561Y-116732326D01*
X109967263Y-116756070D01*
X109969333Y-116766527D01*
X109966989Y-116934367D01*
X109966949Y-116934543D01*
X109934434Y-117077661D01*
X109874665Y-117211904D01*
X109789963Y-117331976D01*
X109739421Y-117380106D01*
X109683548Y-117433314D01*
X109621512Y-117472683D01*
X109559477Y-117512052D01*
X109422477Y-117565190D01*
X109277762Y-117590708D01*
X109130850Y-117587630D01*
X108987337Y-117556077D01*
X108951240Y-117540306D01*
X108852678Y-117497246D01*
X108852675Y-117497244D01*
X108732012Y-117413382D01*
X108629935Y-117307678D01*
X108550335Y-117184162D01*
X108496242Y-117047538D01*
X108469715Y-116903004D01*
X108471766Y-116756070D01*
X108502318Y-116612337D01*
X108531262Y-116544807D01*
X108560206Y-116477275D01*
X108643225Y-116356028D01*
X108748214Y-116253216D01*
X108871172Y-116172754D01*
X108889052Y-116165530D01*
X109007417Y-116117707D01*
X109151761Y-116090172D01*
X109298702Y-116091198D01*
X109298702Y-116091198D01*
G37*
G36*
X137238702Y-116091198D02*
X137382646Y-116120745D01*
X137518110Y-116177689D01*
X137639932Y-116259860D01*
X137743477Y-116364130D01*
X137824793Y-116486520D01*
X137824794Y-116486523D01*
X137880791Y-116622380D01*
X137902561Y-116732326D01*
X137907263Y-116756070D01*
X137909333Y-116766527D01*
X137906989Y-116934367D01*
X137906949Y-116934543D01*
X137874434Y-117077661D01*
X137814665Y-117211904D01*
X137729963Y-117331976D01*
X137679421Y-117380106D01*
X137623548Y-117433314D01*
X137561512Y-117472683D01*
X137499477Y-117512052D01*
X137362477Y-117565190D01*
X137217762Y-117590708D01*
X137070850Y-117587630D01*
X136927337Y-117556077D01*
X136891240Y-117540306D01*
X136792678Y-117497246D01*
X136792675Y-117497244D01*
X136672012Y-117413382D01*
X136569935Y-117307678D01*
X136490335Y-117184162D01*
X136436242Y-117047538D01*
X136409715Y-116903004D01*
X136411766Y-116756070D01*
X136442318Y-116612337D01*
X136471262Y-116544807D01*
X136500206Y-116477275D01*
X136583225Y-116356028D01*
X136688214Y-116253216D01*
X136811172Y-116172754D01*
X136829052Y-116165530D01*
X136947417Y-116117707D01*
X137091761Y-116090172D01*
X137238702Y-116091198D01*
X137238702Y-116091198D01*
G37*
G36*
X137238702Y-113551198D02*
X137382646Y-113580745D01*
X137518110Y-113637689D01*
X137639932Y-113719860D01*
X137743477Y-113824130D01*
X137824793Y-113946520D01*
X137824794Y-113946523D01*
X137880791Y-114082380D01*
X137902561Y-114192326D01*
X137907263Y-114216070D01*
X137909333Y-114226527D01*
X137906989Y-114394367D01*
X137906949Y-114394543D01*
X137874434Y-114537661D01*
X137814665Y-114671904D01*
X137729963Y-114791976D01*
X137679421Y-114840106D01*
X137623548Y-114893314D01*
X137561513Y-114932682D01*
X137499477Y-114972052D01*
X137362477Y-115025190D01*
X137217762Y-115050708D01*
X137070850Y-115047630D01*
X136927337Y-115016077D01*
X136891240Y-115000306D01*
X136792678Y-114957246D01*
X136792675Y-114957244D01*
X136672012Y-114873382D01*
X136569935Y-114767678D01*
X136490335Y-114644162D01*
X136436242Y-114507538D01*
X136409715Y-114363004D01*
X136411766Y-114216070D01*
X136442318Y-114072337D01*
X136471262Y-114004807D01*
X136500206Y-113937275D01*
X136583225Y-113816028D01*
X136688214Y-113713216D01*
X136811172Y-113632754D01*
X136829052Y-113625530D01*
X136947417Y-113577707D01*
X137091761Y-113550172D01*
X137238702Y-113551198D01*
X137238702Y-113551198D01*
G37*
G36*
X109298702Y-113551198D02*
X109442646Y-113580745D01*
X109578110Y-113637689D01*
X109699932Y-113719860D01*
X109803477Y-113824130D01*
X109884793Y-113946520D01*
X109884794Y-113946523D01*
X109940791Y-114082380D01*
X109962561Y-114192326D01*
X109967263Y-114216070D01*
X109969333Y-114226527D01*
X109966989Y-114394367D01*
X109966949Y-114394543D01*
X109934434Y-114537661D01*
X109874665Y-114671904D01*
X109789963Y-114791976D01*
X109739421Y-114840106D01*
X109683548Y-114893314D01*
X109621513Y-114932682D01*
X109559477Y-114972052D01*
X109422477Y-115025190D01*
X109277762Y-115050708D01*
X109130850Y-115047630D01*
X108987337Y-115016077D01*
X108951240Y-115000306D01*
X108852678Y-114957246D01*
X108852675Y-114957244D01*
X108732012Y-114873382D01*
X108629935Y-114767678D01*
X108550335Y-114644162D01*
X108496242Y-114507538D01*
X108469715Y-114363004D01*
X108471766Y-114216070D01*
X108502318Y-114072337D01*
X108531262Y-114004807D01*
X108560206Y-113937275D01*
X108643225Y-113816028D01*
X108748214Y-113713216D01*
X108871172Y-113632754D01*
X108889052Y-113625530D01*
X109007417Y-113577707D01*
X109151761Y-113550172D01*
X109298702Y-113551198D01*
X109298702Y-113551198D01*
G37*
G36*
X137238702Y-111011198D02*
X137382646Y-111040745D01*
X137518110Y-111097689D01*
X137639932Y-111179860D01*
X137743477Y-111284130D01*
X137824793Y-111406520D01*
X137824794Y-111406523D01*
X137880791Y-111542380D01*
X137902561Y-111652326D01*
X137907263Y-111676070D01*
X137909333Y-111686527D01*
X137906989Y-111854367D01*
X137906949Y-111854543D01*
X137874434Y-111997661D01*
X137814665Y-112131904D01*
X137729963Y-112251976D01*
X137679421Y-112300107D01*
X137623548Y-112353314D01*
X137561513Y-112392682D01*
X137499477Y-112432052D01*
X137362477Y-112485190D01*
X137217762Y-112510708D01*
X137070850Y-112507630D01*
X136927337Y-112476077D01*
X136891240Y-112460306D01*
X136792678Y-112417246D01*
X136792675Y-112417244D01*
X136672012Y-112333382D01*
X136569935Y-112227678D01*
X136490335Y-112104162D01*
X136436242Y-111967538D01*
X136409715Y-111823004D01*
X136411766Y-111676070D01*
X136442318Y-111532337D01*
X136471262Y-111464807D01*
X136500206Y-111397275D01*
X136583225Y-111276028D01*
X136688214Y-111173216D01*
X136811172Y-111092754D01*
X136829052Y-111085530D01*
X136947417Y-111037707D01*
X137091761Y-111010172D01*
X137238702Y-111011198D01*
X137238702Y-111011198D01*
G37*
G36*
X109298702Y-111011198D02*
X109442646Y-111040745D01*
X109578110Y-111097689D01*
X109699932Y-111179860D01*
X109803477Y-111284130D01*
X109884793Y-111406520D01*
X109884794Y-111406523D01*
X109940791Y-111542380D01*
X109962561Y-111652326D01*
X109967263Y-111676070D01*
X109969333Y-111686527D01*
X109966989Y-111854367D01*
X109966949Y-111854543D01*
X109934434Y-111997661D01*
X109874665Y-112131904D01*
X109789963Y-112251976D01*
X109739421Y-112300107D01*
X109683548Y-112353314D01*
X109621513Y-112392682D01*
X109559477Y-112432052D01*
X109422477Y-112485190D01*
X109277762Y-112510708D01*
X109130850Y-112507630D01*
X108987337Y-112476077D01*
X108951240Y-112460306D01*
X108852678Y-112417246D01*
X108852675Y-112417244D01*
X108732012Y-112333382D01*
X108629935Y-112227678D01*
X108550335Y-112104162D01*
X108496242Y-111967538D01*
X108469715Y-111823004D01*
X108471766Y-111676070D01*
X108502318Y-111532337D01*
X108531262Y-111464807D01*
X108560206Y-111397275D01*
X108643225Y-111276028D01*
X108748214Y-111173216D01*
X108871172Y-111092754D01*
X108889052Y-111085530D01*
X109007417Y-111037707D01*
X109151761Y-111010172D01*
X109298702Y-111011198D01*
X109298702Y-111011198D01*
G37*
G36*
X109298702Y-108471198D02*
X109442646Y-108500745D01*
X109578110Y-108557689D01*
X109699932Y-108639860D01*
X109803477Y-108744130D01*
X109884793Y-108866520D01*
X109884794Y-108866523D01*
X109940791Y-109002380D01*
X109962561Y-109112326D01*
X109967263Y-109136070D01*
X109969333Y-109146527D01*
X109966989Y-109314367D01*
X109966949Y-109314543D01*
X109934434Y-109457661D01*
X109874665Y-109591904D01*
X109789963Y-109711976D01*
X109739421Y-109760106D01*
X109683548Y-109813314D01*
X109621513Y-109852682D01*
X109559477Y-109892052D01*
X109422477Y-109945190D01*
X109277762Y-109970708D01*
X109130850Y-109967630D01*
X108987337Y-109936077D01*
X108951240Y-109920306D01*
X108852678Y-109877246D01*
X108852675Y-109877244D01*
X108732012Y-109793382D01*
X108629935Y-109687678D01*
X108550335Y-109564162D01*
X108496242Y-109427538D01*
X108469715Y-109283004D01*
X108471766Y-109136070D01*
X108502318Y-108992337D01*
X108560206Y-108857275D01*
X108643225Y-108736028D01*
X108748214Y-108633216D01*
X108871172Y-108552754D01*
X108889052Y-108545530D01*
X109007417Y-108497707D01*
X109151761Y-108470172D01*
X109298702Y-108471198D01*
X109298702Y-108471198D01*
G37*
G36*
X137238702Y-108471198D02*
X137382646Y-108500745D01*
X137518110Y-108557689D01*
X137639932Y-108639860D01*
X137743477Y-108744130D01*
X137824793Y-108866520D01*
X137824794Y-108866523D01*
X137880791Y-109002380D01*
X137902561Y-109112326D01*
X137907263Y-109136070D01*
X137909333Y-109146527D01*
X137906989Y-109314367D01*
X137906949Y-109314543D01*
X137874434Y-109457661D01*
X137814665Y-109591904D01*
X137729963Y-109711976D01*
X137679421Y-109760106D01*
X137623548Y-109813314D01*
X137561513Y-109852682D01*
X137499477Y-109892052D01*
X137362477Y-109945190D01*
X137217762Y-109970708D01*
X137070850Y-109967630D01*
X136927337Y-109936077D01*
X136891240Y-109920306D01*
X136792678Y-109877246D01*
X136792675Y-109877244D01*
X136672012Y-109793382D01*
X136569935Y-109687678D01*
X136490335Y-109564162D01*
X136436242Y-109427538D01*
X136409715Y-109283004D01*
X136411766Y-109136070D01*
X136442318Y-108992337D01*
X136500206Y-108857275D01*
X136583225Y-108736028D01*
X136688214Y-108633216D01*
X136811172Y-108552754D01*
X136829052Y-108545530D01*
X136947417Y-108497707D01*
X137091761Y-108470172D01*
X137238702Y-108471198D01*
X137238702Y-108471198D01*
G37*
G36*
X137238702Y-105931198D02*
X137382646Y-105960745D01*
X137518110Y-106017689D01*
X137639932Y-106099860D01*
X137743477Y-106204130D01*
X137824793Y-106326520D01*
X137824794Y-106326523D01*
X137880791Y-106462380D01*
X137902561Y-106572326D01*
X137907263Y-106596070D01*
X137909333Y-106606527D01*
X137906989Y-106774367D01*
X137906949Y-106774543D01*
X137874434Y-106917661D01*
X137814665Y-107051904D01*
X137729963Y-107171976D01*
X137679421Y-107220106D01*
X137623548Y-107273314D01*
X137561512Y-107312683D01*
X137499477Y-107352052D01*
X137362477Y-107405190D01*
X137217762Y-107430708D01*
X137070850Y-107427630D01*
X136927337Y-107396077D01*
X136891240Y-107380306D01*
X136792678Y-107337246D01*
X136792675Y-107337244D01*
X136672012Y-107253382D01*
X136569935Y-107147678D01*
X136490335Y-107024162D01*
X136436242Y-106887538D01*
X136409715Y-106743004D01*
X136411766Y-106596070D01*
X136442318Y-106452337D01*
X136500206Y-106317275D01*
X136583225Y-106196028D01*
X136688214Y-106093216D01*
X136811172Y-106012754D01*
X136829052Y-106005530D01*
X136947417Y-105957707D01*
X137091761Y-105930172D01*
X137238702Y-105931198D01*
X137238702Y-105931198D01*
G37*
G36*
X109298702Y-105931198D02*
X109442646Y-105960745D01*
X109578110Y-106017689D01*
X109699932Y-106099860D01*
X109803477Y-106204130D01*
X109884793Y-106326520D01*
X109884794Y-106326523D01*
X109940791Y-106462380D01*
X109962561Y-106572326D01*
X109967263Y-106596070D01*
X109969333Y-106606527D01*
X109966989Y-106774367D01*
X109966949Y-106774543D01*
X109934434Y-106917661D01*
X109874665Y-107051904D01*
X109789963Y-107171976D01*
X109739421Y-107220106D01*
X109683548Y-107273314D01*
X109621512Y-107312683D01*
X109559477Y-107352052D01*
X109422477Y-107405190D01*
X109277762Y-107430708D01*
X109130850Y-107427630D01*
X108987337Y-107396077D01*
X108951240Y-107380306D01*
X108852678Y-107337246D01*
X108852675Y-107337244D01*
X108732012Y-107253382D01*
X108629935Y-107147678D01*
X108550335Y-107024162D01*
X108496242Y-106887538D01*
X108469715Y-106743004D01*
X108471766Y-106596070D01*
X108502318Y-106452337D01*
X108560206Y-106317275D01*
X108643225Y-106196028D01*
X108748214Y-106093216D01*
X108871172Y-106012754D01*
X108889052Y-106005530D01*
X109007417Y-105957707D01*
X109151761Y-105930172D01*
X109298702Y-105931198D01*
X109298702Y-105931198D01*
G37*
G36*
X109298702Y-103391198D02*
X109442646Y-103420745D01*
X109578110Y-103477689D01*
X109699932Y-103559860D01*
X109803477Y-103664130D01*
X109884793Y-103786520D01*
X109884794Y-103786523D01*
X109940791Y-103922380D01*
X109962561Y-104032326D01*
X109967263Y-104056070D01*
X109969333Y-104066527D01*
X109966989Y-104234367D01*
X109966949Y-104234543D01*
X109934434Y-104377661D01*
X109874665Y-104511904D01*
X109789963Y-104631976D01*
X109739421Y-104680107D01*
X109683548Y-104733314D01*
X109621512Y-104772683D01*
X109559477Y-104812052D01*
X109422477Y-104865190D01*
X109277762Y-104890708D01*
X109130850Y-104887630D01*
X108987337Y-104856077D01*
X108951240Y-104840306D01*
X108852678Y-104797246D01*
X108852675Y-104797244D01*
X108732012Y-104713382D01*
X108629935Y-104607678D01*
X108550335Y-104484162D01*
X108496242Y-104347538D01*
X108469715Y-104203004D01*
X108471766Y-104056070D01*
X108502318Y-103912337D01*
X108531262Y-103844807D01*
X108560206Y-103777275D01*
X108643225Y-103656028D01*
X108748214Y-103553216D01*
X108871172Y-103472754D01*
X108889052Y-103465530D01*
X109007417Y-103417707D01*
X109151761Y-103390172D01*
X109298702Y-103391198D01*
X109298702Y-103391198D01*
G37*
G36*
X137238702Y-103391198D02*
X137382646Y-103420745D01*
X137518110Y-103477689D01*
X137639932Y-103559860D01*
X137743477Y-103664130D01*
X137824793Y-103786520D01*
X137824794Y-103786523D01*
X137880791Y-103922380D01*
X137902561Y-104032326D01*
X137907263Y-104056070D01*
X137909333Y-104066527D01*
X137906989Y-104234367D01*
X137906949Y-104234543D01*
X137874434Y-104377661D01*
X137814665Y-104511904D01*
X137729963Y-104631976D01*
X137679421Y-104680107D01*
X137623548Y-104733314D01*
X137561512Y-104772683D01*
X137499477Y-104812052D01*
X137362477Y-104865190D01*
X137217762Y-104890708D01*
X137070850Y-104887630D01*
X136927337Y-104856077D01*
X136891240Y-104840306D01*
X136792678Y-104797246D01*
X136792675Y-104797244D01*
X136672012Y-104713382D01*
X136569935Y-104607678D01*
X136490335Y-104484162D01*
X136436242Y-104347538D01*
X136409715Y-104203004D01*
X136411766Y-104056070D01*
X136442318Y-103912337D01*
X136471262Y-103844807D01*
X136500206Y-103777275D01*
X136583225Y-103656028D01*
X136688214Y-103553216D01*
X136811172Y-103472754D01*
X136829052Y-103465530D01*
X136947417Y-103417707D01*
X137091761Y-103390172D01*
X137238702Y-103391198D01*
X137238702Y-103391198D01*
G37*
G36*
X137238702Y-100851198D02*
X137382646Y-100880745D01*
X137518110Y-100937689D01*
X137639932Y-101019860D01*
X137743477Y-101124130D01*
X137824793Y-101246520D01*
X137824794Y-101246523D01*
X137880791Y-101382380D01*
X137902561Y-101492326D01*
X137907263Y-101516070D01*
X137909333Y-101526527D01*
X137906989Y-101694367D01*
X137906949Y-101694543D01*
X137874434Y-101837661D01*
X137814665Y-101971904D01*
X137729963Y-102091976D01*
X137679421Y-102140107D01*
X137623548Y-102193314D01*
X137561513Y-102232682D01*
X137499477Y-102272052D01*
X137362477Y-102325190D01*
X137217762Y-102350708D01*
X137070850Y-102347630D01*
X136927337Y-102316077D01*
X136891240Y-102300306D01*
X136792678Y-102257246D01*
X136792675Y-102257244D01*
X136672012Y-102173382D01*
X136569935Y-102067678D01*
X136490335Y-101944162D01*
X136436242Y-101807538D01*
X136409715Y-101663004D01*
X136411766Y-101516070D01*
X136442318Y-101372337D01*
X136500206Y-101237275D01*
X136583225Y-101116028D01*
X136688214Y-101013216D01*
X136811172Y-100932754D01*
X136829052Y-100925530D01*
X136947417Y-100877707D01*
X137091761Y-100850172D01*
X137238702Y-100851198D01*
X137238702Y-100851198D01*
G37*
G36*
X109298702Y-100851198D02*
X109442646Y-100880745D01*
X109578110Y-100937689D01*
X109699932Y-101019860D01*
X109803477Y-101124130D01*
X109884793Y-101246520D01*
X109884794Y-101246523D01*
X109940791Y-101382380D01*
X109962561Y-101492326D01*
X109967263Y-101516070D01*
X109969333Y-101526527D01*
X109966989Y-101694367D01*
X109966949Y-101694543D01*
X109934434Y-101837661D01*
X109874665Y-101971904D01*
X109789963Y-102091976D01*
X109739421Y-102140107D01*
X109683548Y-102193314D01*
X109621513Y-102232682D01*
X109559477Y-102272052D01*
X109422477Y-102325190D01*
X109277762Y-102350708D01*
X109130850Y-102347630D01*
X108987337Y-102316077D01*
X108951240Y-102300306D01*
X108852678Y-102257246D01*
X108852675Y-102257244D01*
X108732012Y-102173382D01*
X108629935Y-102067678D01*
X108550335Y-101944162D01*
X108496242Y-101807538D01*
X108469715Y-101663004D01*
X108471766Y-101516070D01*
X108502318Y-101372337D01*
X108560206Y-101237275D01*
X108643225Y-101116028D01*
X108748214Y-101013216D01*
X108871172Y-100932754D01*
X108889052Y-100925530D01*
X109007417Y-100877707D01*
X109151761Y-100850172D01*
X109298702Y-100851198D01*
X109298702Y-100851198D01*
G37*
G36*
X109298702Y-98311198D02*
X109442646Y-98340745D01*
X109578110Y-98397689D01*
X109699932Y-98479860D01*
X109803477Y-98584130D01*
X109884793Y-98706520D01*
X109884794Y-98706523D01*
X109940791Y-98842380D01*
X109962561Y-98952326D01*
X109967263Y-98976070D01*
X109969333Y-98986527D01*
X109966989Y-99154367D01*
X109966949Y-99154543D01*
X109934434Y-99297661D01*
X109874665Y-99431904D01*
X109789963Y-99551976D01*
X109739421Y-99600106D01*
X109683548Y-99653314D01*
X109621513Y-99692682D01*
X109559477Y-99732052D01*
X109422477Y-99785190D01*
X109277762Y-99810708D01*
X109130850Y-99807630D01*
X108987337Y-99776077D01*
X108951240Y-99760306D01*
X108852678Y-99717246D01*
X108852675Y-99717244D01*
X108732012Y-99633382D01*
X108629935Y-99527678D01*
X108550335Y-99404162D01*
X108496242Y-99267538D01*
X108469715Y-99123004D01*
X108471766Y-98976070D01*
X108502318Y-98832337D01*
X108560206Y-98697275D01*
X108643225Y-98576028D01*
X108748214Y-98473216D01*
X108871172Y-98392754D01*
X108889052Y-98385530D01*
X109007417Y-98337707D01*
X109151761Y-98310172D01*
X109298702Y-98311198D01*
X109298702Y-98311198D01*
G37*
G36*
X137238702Y-98311198D02*
X137382646Y-98340745D01*
X137518110Y-98397689D01*
X137639932Y-98479860D01*
X137743477Y-98584130D01*
X137824793Y-98706520D01*
X137824794Y-98706523D01*
X137880791Y-98842380D01*
X137902561Y-98952326D01*
X137907263Y-98976070D01*
X137909333Y-98986527D01*
X137906989Y-99154367D01*
X137906949Y-99154543D01*
X137874434Y-99297661D01*
X137814665Y-99431904D01*
X137729963Y-99551976D01*
X137679421Y-99600106D01*
X137623548Y-99653314D01*
X137561513Y-99692682D01*
X137499477Y-99732052D01*
X137362477Y-99785190D01*
X137217762Y-99810708D01*
X137070850Y-99807630D01*
X136927337Y-99776077D01*
X136891240Y-99760306D01*
X136792678Y-99717246D01*
X136792675Y-99717244D01*
X136672012Y-99633382D01*
X136569935Y-99527678D01*
X136490335Y-99404162D01*
X136436242Y-99267538D01*
X136409715Y-99123004D01*
X136411766Y-98976070D01*
X136442318Y-98832337D01*
X136500206Y-98697275D01*
X136583225Y-98576028D01*
X136688214Y-98473216D01*
X136811172Y-98392754D01*
X136829052Y-98385530D01*
X136947417Y-98337707D01*
X137091761Y-98310172D01*
X137238702Y-98311198D01*
X137238702Y-98311198D01*
G37*
G36*
X109298702Y-95771198D02*
X109442646Y-95800745D01*
X109578110Y-95857689D01*
X109699932Y-95939860D01*
X109803477Y-96044130D01*
X109884793Y-96166520D01*
X109884794Y-96166523D01*
X109940791Y-96302380D01*
X109962561Y-96412326D01*
X109967263Y-96436070D01*
X109969333Y-96446527D01*
X109966989Y-96614367D01*
X109966949Y-96614543D01*
X109934434Y-96757661D01*
X109874665Y-96891904D01*
X109789963Y-97011976D01*
X109739421Y-97060106D01*
X109683548Y-97113314D01*
X109621513Y-97152682D01*
X109559477Y-97192052D01*
X109422477Y-97245190D01*
X109277762Y-97270708D01*
X109130850Y-97267630D01*
X108987337Y-97236077D01*
X108951240Y-97220306D01*
X108852678Y-97177246D01*
X108852675Y-97177244D01*
X108732012Y-97093382D01*
X108629935Y-96987678D01*
X108550335Y-96864162D01*
X108496242Y-96727538D01*
X108469715Y-96583004D01*
X108471766Y-96436070D01*
X108502318Y-96292337D01*
X108531262Y-96224807D01*
X108560206Y-96157275D01*
X108643225Y-96036028D01*
X108748214Y-95933216D01*
X108871172Y-95852754D01*
X108889052Y-95845530D01*
X109007417Y-95797707D01*
X109151761Y-95770172D01*
X109298702Y-95771198D01*
X109298702Y-95771198D01*
G37*
G36*
X137238702Y-95771198D02*
X137382646Y-95800745D01*
X137518110Y-95857689D01*
X137639932Y-95939860D01*
X137743477Y-96044130D01*
X137824793Y-96166520D01*
X137824794Y-96166523D01*
X137880791Y-96302380D01*
X137902561Y-96412326D01*
X137907263Y-96436070D01*
X137909333Y-96446527D01*
X137906989Y-96614367D01*
X137906949Y-96614543D01*
X137874434Y-96757661D01*
X137814665Y-96891904D01*
X137729963Y-97011976D01*
X137679421Y-97060106D01*
X137623548Y-97113314D01*
X137561512Y-97152683D01*
X137499477Y-97192052D01*
X137362477Y-97245190D01*
X137217762Y-97270708D01*
X137070850Y-97267630D01*
X136927337Y-97236077D01*
X136891240Y-97220306D01*
X136792678Y-97177246D01*
X136792675Y-97177244D01*
X136672012Y-97093382D01*
X136569935Y-96987678D01*
X136490335Y-96864162D01*
X136436242Y-96727538D01*
X136409715Y-96583004D01*
X136411766Y-96436070D01*
X136442318Y-96292337D01*
X136471262Y-96224807D01*
X136500206Y-96157275D01*
X136583225Y-96036028D01*
X136688214Y-95933216D01*
X136811172Y-95852754D01*
X136829052Y-95845530D01*
X136947417Y-95797707D01*
X137091761Y-95770172D01*
X137238702Y-95771198D01*
X137238702Y-95771198D01*
G37*
G36*
X109292032Y-93294656D02*
X109423778Y-93321699D01*
X109547762Y-93373817D01*
X109659260Y-93449024D01*
X109754030Y-93544458D01*
X109828458Y-93656479D01*
X109879708Y-93780822D01*
X109905795Y-93912574D01*
X109905795Y-93912582D01*
X109905829Y-93912754D01*
X109903684Y-94066369D01*
X109903645Y-94066540D01*
X109903645Y-94066546D01*
X109873889Y-94197521D01*
X109819185Y-94320387D01*
X109741662Y-94430283D01*
X109644265Y-94523033D01*
X109530708Y-94595098D01*
X109405318Y-94643733D01*
X109272867Y-94667089D01*
X109138405Y-94664272D01*
X109007055Y-94635393D01*
X108883803Y-94581546D01*
X108773367Y-94504790D01*
X108679941Y-94408045D01*
X108607086Y-94294996D01*
X108557577Y-94169951D01*
X108533298Y-94037666D01*
X108535176Y-93903183D01*
X108563138Y-93771630D01*
X108616120Y-93648015D01*
X108692104Y-93537043D01*
X108788195Y-93442944D01*
X108900736Y-93369299D01*
X109025431Y-93318919D01*
X109157545Y-93293716D01*
X109292032Y-93294656D01*
X109292032Y-93294656D01*
G37*
G36*
X137232032Y-93294656D02*
X137363778Y-93321699D01*
X137487762Y-93373817D01*
X137599260Y-93449024D01*
X137694030Y-93544458D01*
X137768458Y-93656479D01*
X137819708Y-93780822D01*
X137845795Y-93912574D01*
X137845795Y-93912582D01*
X137845829Y-93912754D01*
X137843684Y-94066369D01*
X137843645Y-94066540D01*
X137843645Y-94066546D01*
X137813889Y-94197521D01*
X137759185Y-94320387D01*
X137681662Y-94430283D01*
X137584265Y-94523033D01*
X137470708Y-94595098D01*
X137345318Y-94643733D01*
X137212867Y-94667089D01*
X137078405Y-94664272D01*
X136947055Y-94635393D01*
X136823803Y-94581546D01*
X136713367Y-94504790D01*
X136619941Y-94408045D01*
X136547086Y-94294996D01*
X136497577Y-94169951D01*
X136473298Y-94037666D01*
X136475176Y-93903183D01*
X136503138Y-93771630D01*
X136556120Y-93648015D01*
X136632104Y-93537043D01*
X136728195Y-93442944D01*
X136840736Y-93369299D01*
X136965431Y-93318919D01*
X137097545Y-93293716D01*
X137232032Y-93294656D01*
X137232032Y-93294656D01*
G37*
G36*
X109298702Y-90691198D02*
X109442646Y-90720745D01*
X109578110Y-90777689D01*
X109699932Y-90859860D01*
X109803477Y-90964130D01*
X109884793Y-91086520D01*
X109884794Y-91086523D01*
X109940791Y-91222380D01*
X109962561Y-91332326D01*
X109967263Y-91356070D01*
X109969333Y-91366527D01*
X109966989Y-91534367D01*
X109966949Y-91534543D01*
X109934434Y-91677661D01*
X109874665Y-91811904D01*
X109789963Y-91931976D01*
X109739421Y-91980107D01*
X109683548Y-92033314D01*
X109621512Y-92072683D01*
X109559477Y-92112052D01*
X109422477Y-92165190D01*
X109277762Y-92190708D01*
X109130850Y-92187630D01*
X108987337Y-92156077D01*
X108951240Y-92140306D01*
X108852678Y-92097246D01*
X108852675Y-92097244D01*
X108732012Y-92013382D01*
X108629935Y-91907678D01*
X108550335Y-91784162D01*
X108496242Y-91647538D01*
X108469715Y-91503004D01*
X108471766Y-91356070D01*
X108502318Y-91212337D01*
X108560206Y-91077275D01*
X108643225Y-90956028D01*
X108748214Y-90853216D01*
X108871172Y-90772754D01*
X108889052Y-90765530D01*
X109007417Y-90717707D01*
X109151761Y-90690172D01*
X109298702Y-90691198D01*
X109298702Y-90691198D01*
G37*
G36*
X137238702Y-90691198D02*
X137382646Y-90720745D01*
X137518110Y-90777689D01*
X137639932Y-90859860D01*
X137743477Y-90964130D01*
X137824793Y-91086520D01*
X137824794Y-91086523D01*
X137880791Y-91222380D01*
X137902561Y-91332326D01*
X137907263Y-91356070D01*
X137909333Y-91366527D01*
X137906989Y-91534367D01*
X137906949Y-91534543D01*
X137874434Y-91677661D01*
X137814665Y-91811904D01*
X137729963Y-91931976D01*
X137679421Y-91980107D01*
X137623548Y-92033314D01*
X137561513Y-92072682D01*
X137499477Y-92112052D01*
X137362477Y-92165190D01*
X137217762Y-92190708D01*
X137070850Y-92187630D01*
X136927337Y-92156077D01*
X136891240Y-92140306D01*
X136792678Y-92097246D01*
X136792675Y-92097244D01*
X136672012Y-92013382D01*
X136569935Y-91907678D01*
X136490335Y-91784162D01*
X136436242Y-91647538D01*
X136409715Y-91503004D01*
X136411766Y-91356070D01*
X136442318Y-91212337D01*
X136500206Y-91077275D01*
X136583225Y-90956028D01*
X136688214Y-90853216D01*
X136811172Y-90772754D01*
X136829052Y-90765530D01*
X136947417Y-90717707D01*
X137091761Y-90690172D01*
X137238702Y-90691198D01*
X137238702Y-90691198D01*
G37*
G36*
X109298702Y-88151198D02*
X109442646Y-88180745D01*
X109578110Y-88237689D01*
X109699932Y-88319860D01*
X109803477Y-88424130D01*
X109884793Y-88546520D01*
X109884794Y-88546523D01*
X109940791Y-88682380D01*
X109962561Y-88792326D01*
X109967263Y-88816070D01*
X109969333Y-88826527D01*
X109966989Y-88994367D01*
X109966949Y-88994543D01*
X109934434Y-89137661D01*
X109874665Y-89271904D01*
X109789963Y-89391976D01*
X109739421Y-89440106D01*
X109683548Y-89493314D01*
X109621513Y-89532682D01*
X109559477Y-89572052D01*
X109422477Y-89625190D01*
X109277762Y-89650708D01*
X109130850Y-89647630D01*
X108987337Y-89616077D01*
X108951240Y-89600306D01*
X108852678Y-89557246D01*
X108852675Y-89557244D01*
X108732012Y-89473382D01*
X108629935Y-89367678D01*
X108550335Y-89244162D01*
X108496242Y-89107538D01*
X108469715Y-88963004D01*
X108471766Y-88816070D01*
X108502318Y-88672337D01*
X108560206Y-88537275D01*
X108643225Y-88416028D01*
X108748214Y-88313216D01*
X108871172Y-88232754D01*
X108889052Y-88225530D01*
X109007417Y-88177707D01*
X109151761Y-88150172D01*
X109298702Y-88151198D01*
X109298702Y-88151198D01*
G37*
G36*
X137238702Y-88151198D02*
X137382646Y-88180745D01*
X137518110Y-88237689D01*
X137639932Y-88319860D01*
X137743477Y-88424130D01*
X137824793Y-88546520D01*
X137824794Y-88546523D01*
X137880791Y-88682380D01*
X137902561Y-88792326D01*
X137907263Y-88816070D01*
X137909333Y-88826527D01*
X137906989Y-88994367D01*
X137906949Y-88994543D01*
X137874434Y-89137661D01*
X137814665Y-89271904D01*
X137729963Y-89391976D01*
X137679421Y-89440106D01*
X137623548Y-89493314D01*
X137561513Y-89532682D01*
X137499477Y-89572052D01*
X137362477Y-89625190D01*
X137217762Y-89650708D01*
X137070850Y-89647630D01*
X136927337Y-89616077D01*
X136891240Y-89600306D01*
X136792678Y-89557246D01*
X136792675Y-89557244D01*
X136672012Y-89473382D01*
X136569935Y-89367678D01*
X136490335Y-89244162D01*
X136436242Y-89107538D01*
X136409715Y-88963004D01*
X136411766Y-88816070D01*
X136442318Y-88672337D01*
X136500206Y-88537275D01*
X136583225Y-88416028D01*
X136688214Y-88313216D01*
X136811172Y-88232754D01*
X136829052Y-88225530D01*
X136947417Y-88177707D01*
X137091761Y-88150172D01*
X137238702Y-88151198D01*
X137238702Y-88151198D01*
G37*
G36*
X109298702Y-85611198D02*
X109442646Y-85640745D01*
X109578110Y-85697689D01*
X109699932Y-85779860D01*
X109803477Y-85884130D01*
X109884793Y-86006520D01*
X109884794Y-86006523D01*
X109940791Y-86142380D01*
X109962561Y-86252326D01*
X109967263Y-86276070D01*
X109969333Y-86286527D01*
X109966989Y-86454367D01*
X109966949Y-86454543D01*
X109934434Y-86597661D01*
X109874665Y-86731904D01*
X109789963Y-86851976D01*
X109739421Y-86900106D01*
X109683548Y-86953314D01*
X109621513Y-86992682D01*
X109559477Y-87032052D01*
X109422477Y-87085190D01*
X109277762Y-87110708D01*
X109130850Y-87107630D01*
X108987337Y-87076077D01*
X108951240Y-87060306D01*
X108852678Y-87017246D01*
X108852675Y-87017244D01*
X108732012Y-86933382D01*
X108629935Y-86827678D01*
X108550335Y-86704162D01*
X108496242Y-86567538D01*
X108469715Y-86423004D01*
X108471766Y-86276070D01*
X108502318Y-86132337D01*
X108531262Y-86064807D01*
X108560206Y-85997275D01*
X108643225Y-85876028D01*
X108748214Y-85773216D01*
X108871172Y-85692754D01*
X108889052Y-85685530D01*
X109007417Y-85637707D01*
X109151761Y-85610172D01*
X109298702Y-85611198D01*
X109298702Y-85611198D01*
G37*
G36*
X137238702Y-85611198D02*
X137382646Y-85640745D01*
X137518110Y-85697689D01*
X137639932Y-85779860D01*
X137743477Y-85884130D01*
X137824793Y-86006520D01*
X137824794Y-86006523D01*
X137880791Y-86142380D01*
X137902561Y-86252326D01*
X137907263Y-86276070D01*
X137909333Y-86286527D01*
X137906989Y-86454367D01*
X137906949Y-86454543D01*
X137874434Y-86597661D01*
X137814665Y-86731904D01*
X137729963Y-86851976D01*
X137679421Y-86900106D01*
X137623548Y-86953314D01*
X137561513Y-86992682D01*
X137499477Y-87032052D01*
X137362477Y-87085190D01*
X137217762Y-87110708D01*
X137070850Y-87107630D01*
X136927337Y-87076077D01*
X136891240Y-87060306D01*
X136792678Y-87017246D01*
X136792675Y-87017244D01*
X136672012Y-86933382D01*
X136569935Y-86827678D01*
X136490335Y-86704162D01*
X136436242Y-86567538D01*
X136409715Y-86423004D01*
X136411766Y-86276070D01*
X136442318Y-86132337D01*
X136471262Y-86064807D01*
X136500206Y-85997275D01*
X136583225Y-85876028D01*
X136688214Y-85773216D01*
X136811172Y-85692754D01*
X136829052Y-85685530D01*
X136947417Y-85637707D01*
X137091761Y-85610172D01*
X137238702Y-85611198D01*
X137238702Y-85611198D01*
G37*
G36*
X109298702Y-83071198D02*
X109442646Y-83100745D01*
X109578110Y-83157689D01*
X109699932Y-83239860D01*
X109803477Y-83344130D01*
X109884793Y-83466520D01*
X109884794Y-83466523D01*
X109940791Y-83602380D01*
X109962561Y-83712326D01*
X109967263Y-83736070D01*
X109969333Y-83746527D01*
X109966989Y-83914367D01*
X109966949Y-83914543D01*
X109934434Y-84057661D01*
X109874665Y-84191904D01*
X109789963Y-84311976D01*
X109739421Y-84360106D01*
X109683548Y-84413314D01*
X109621512Y-84452683D01*
X109559477Y-84492052D01*
X109422477Y-84545190D01*
X109277762Y-84570708D01*
X109130850Y-84567630D01*
X108987337Y-84536077D01*
X108951240Y-84520306D01*
X108852678Y-84477246D01*
X108852675Y-84477244D01*
X108732012Y-84393382D01*
X108629935Y-84287678D01*
X108550335Y-84164162D01*
X108496242Y-84027538D01*
X108469715Y-83883004D01*
X108471766Y-83736070D01*
X108502318Y-83592337D01*
X108560206Y-83457275D01*
X108643225Y-83336028D01*
X108748214Y-83233216D01*
X108871172Y-83152754D01*
X108889052Y-83145530D01*
X109007417Y-83097707D01*
X109151761Y-83070172D01*
X109298702Y-83071198D01*
X109298702Y-83071198D01*
G37*
G36*
X137238702Y-83071198D02*
X137382646Y-83100745D01*
X137518110Y-83157689D01*
X137639932Y-83239860D01*
X137743477Y-83344130D01*
X137824793Y-83466520D01*
X137824794Y-83466523D01*
X137880791Y-83602380D01*
X137902561Y-83712326D01*
X137907263Y-83736070D01*
X137909333Y-83746527D01*
X137906989Y-83914367D01*
X137906949Y-83914543D01*
X137874434Y-84057661D01*
X137814665Y-84191904D01*
X137729963Y-84311976D01*
X137679421Y-84360106D01*
X137623548Y-84413314D01*
X137561512Y-84452683D01*
X137499477Y-84492052D01*
X137362477Y-84545190D01*
X137217762Y-84570708D01*
X137070850Y-84567630D01*
X136927337Y-84536077D01*
X136891240Y-84520306D01*
X136792678Y-84477246D01*
X136792675Y-84477244D01*
X136672012Y-84393382D01*
X136569935Y-84287678D01*
X136490335Y-84164162D01*
X136436242Y-84027538D01*
X136409715Y-83883004D01*
X136411766Y-83736070D01*
X136442318Y-83592337D01*
X136500206Y-83457275D01*
X136583225Y-83336028D01*
X136688214Y-83233216D01*
X136811172Y-83152754D01*
X136829052Y-83145530D01*
X136947417Y-83097707D01*
X137091761Y-83070172D01*
X137238702Y-83071198D01*
X137238702Y-83071198D01*
G37*
G36*
X109298702Y-80531198D02*
X109442646Y-80560745D01*
X109578110Y-80617689D01*
X109699932Y-80699860D01*
X109803477Y-80804130D01*
X109884793Y-80926520D01*
X109884794Y-80926523D01*
X109940791Y-81062380D01*
X109962561Y-81172326D01*
X109967263Y-81196070D01*
X109969333Y-81206527D01*
X109966989Y-81374367D01*
X109966949Y-81374543D01*
X109934434Y-81517661D01*
X109874665Y-81651904D01*
X109789963Y-81771976D01*
X109739421Y-81820107D01*
X109683548Y-81873314D01*
X109621513Y-81912682D01*
X109559477Y-81952052D01*
X109422477Y-82005190D01*
X109277762Y-82030708D01*
X109130850Y-82027630D01*
X108987337Y-81996077D01*
X108951240Y-81980306D01*
X108852678Y-81937246D01*
X108852675Y-81937244D01*
X108732012Y-81853382D01*
X108629935Y-81747678D01*
X108550335Y-81624162D01*
X108496242Y-81487538D01*
X108469715Y-81343004D01*
X108471766Y-81196070D01*
X108502318Y-81052337D01*
X108531262Y-80984807D01*
X108560206Y-80917275D01*
X108643225Y-80796028D01*
X108748214Y-80693216D01*
X108871172Y-80612754D01*
X108889052Y-80605530D01*
X109007417Y-80557707D01*
X109151761Y-80530172D01*
X109298702Y-80531198D01*
X109298702Y-80531198D01*
G37*
G36*
X137238702Y-80531198D02*
X137382646Y-80560745D01*
X137518110Y-80617689D01*
X137639932Y-80699860D01*
X137743477Y-80804130D01*
X137824793Y-80926520D01*
X137824794Y-80926523D01*
X137880791Y-81062380D01*
X137902561Y-81172326D01*
X137907263Y-81196070D01*
X137909333Y-81206527D01*
X137906989Y-81374367D01*
X137906949Y-81374543D01*
X137874434Y-81517661D01*
X137814665Y-81651904D01*
X137729963Y-81771976D01*
X137679421Y-81820107D01*
X137623548Y-81873314D01*
X137561513Y-81912682D01*
X137499477Y-81952052D01*
X137362477Y-82005190D01*
X137217762Y-82030708D01*
X137070850Y-82027630D01*
X136927337Y-81996077D01*
X136891240Y-81980306D01*
X136792678Y-81937246D01*
X136792675Y-81937244D01*
X136672012Y-81853382D01*
X136569935Y-81747678D01*
X136490335Y-81624162D01*
X136436242Y-81487538D01*
X136409715Y-81343004D01*
X136411766Y-81196070D01*
X136442318Y-81052337D01*
X136471262Y-80984807D01*
X136500206Y-80917275D01*
X136583225Y-80796028D01*
X136688214Y-80693216D01*
X136811172Y-80612754D01*
X136829052Y-80605530D01*
X136947417Y-80557707D01*
X137091761Y-80530172D01*
X137238702Y-80531198D01*
X137238702Y-80531198D01*
G37*
G36*
X109298702Y-77991198D02*
X109442646Y-78020745D01*
X109578110Y-78077689D01*
X109699932Y-78159860D01*
X109803477Y-78264130D01*
X109884793Y-78386520D01*
X109884794Y-78386523D01*
X109940791Y-78522380D01*
X109962561Y-78632326D01*
X109967263Y-78656070D01*
X109969333Y-78666527D01*
X109966989Y-78834367D01*
X109966949Y-78834543D01*
X109934434Y-78977661D01*
X109874665Y-79111904D01*
X109789963Y-79231976D01*
X109739421Y-79280107D01*
X109683548Y-79333314D01*
X109621512Y-79372683D01*
X109559477Y-79412052D01*
X109422477Y-79465190D01*
X109277762Y-79490708D01*
X109130850Y-79487630D01*
X108987337Y-79456077D01*
X108951240Y-79440306D01*
X108852678Y-79397246D01*
X108852675Y-79397244D01*
X108732012Y-79313382D01*
X108629935Y-79207678D01*
X108550335Y-79084162D01*
X108496242Y-78947538D01*
X108469715Y-78803004D01*
X108471766Y-78656070D01*
X108502318Y-78512337D01*
X108531262Y-78444807D01*
X108560206Y-78377275D01*
X108643225Y-78256028D01*
X108748214Y-78153216D01*
X108871172Y-78072754D01*
X108889052Y-78065530D01*
X109007417Y-78017707D01*
X109151761Y-77990172D01*
X109298702Y-77991198D01*
X109298702Y-77991198D01*
G37*
G36*
X137238702Y-77991198D02*
X137382646Y-78020745D01*
X137518110Y-78077689D01*
X137639932Y-78159860D01*
X137743477Y-78264130D01*
X137824793Y-78386520D01*
X137824794Y-78386523D01*
X137880791Y-78522380D01*
X137902561Y-78632326D01*
X137907263Y-78656070D01*
X137909333Y-78666527D01*
X137906989Y-78834367D01*
X137906949Y-78834543D01*
X137874434Y-78977661D01*
X137814665Y-79111904D01*
X137729963Y-79231976D01*
X137679421Y-79280107D01*
X137623548Y-79333314D01*
X137561512Y-79372683D01*
X137499477Y-79412052D01*
X137362477Y-79465190D01*
X137217762Y-79490708D01*
X137070850Y-79487630D01*
X136927337Y-79456077D01*
X136891240Y-79440306D01*
X136792678Y-79397246D01*
X136792675Y-79397244D01*
X136672012Y-79313382D01*
X136569935Y-79207678D01*
X136490335Y-79084162D01*
X136436242Y-78947538D01*
X136409715Y-78803004D01*
X136411766Y-78656070D01*
X136442318Y-78512337D01*
X136471262Y-78444807D01*
X136500206Y-78377275D01*
X136583225Y-78256028D01*
X136688214Y-78153216D01*
X136811172Y-78072754D01*
X136829052Y-78065530D01*
X136947417Y-78017707D01*
X137091761Y-77990172D01*
X137238702Y-77991198D01*
X137238702Y-77991198D01*
G37*
G36*
X137238702Y-75451198D02*
X137382646Y-75480745D01*
X137518110Y-75537689D01*
X137639932Y-75619860D01*
X137743477Y-75724130D01*
X137824793Y-75846520D01*
X137824794Y-75846523D01*
X137880791Y-75982380D01*
X137902561Y-76092326D01*
X137907263Y-76116070D01*
X137909333Y-76126527D01*
X137906989Y-76294367D01*
X137906949Y-76294543D01*
X137874434Y-76437661D01*
X137814665Y-76571904D01*
X137729963Y-76691976D01*
X137679421Y-76740106D01*
X137623548Y-76793314D01*
X137561513Y-76832682D01*
X137499477Y-76872052D01*
X137362477Y-76925190D01*
X137217762Y-76950708D01*
X137070850Y-76947630D01*
X136927337Y-76916077D01*
X136891240Y-76900306D01*
X136792678Y-76857246D01*
X136792675Y-76857244D01*
X136672012Y-76773382D01*
X136569935Y-76667678D01*
X136490335Y-76544162D01*
X136436242Y-76407538D01*
X136409715Y-76263004D01*
X136411766Y-76116070D01*
X136442318Y-75972337D01*
X136471262Y-75904807D01*
X136500206Y-75837275D01*
X136583225Y-75716028D01*
X136688214Y-75613216D01*
X136811172Y-75532754D01*
X136829052Y-75525530D01*
X136947417Y-75477707D01*
X137091761Y-75450172D01*
X137238702Y-75451198D01*
X137238702Y-75451198D01*
G37*
G36*
X109298702Y-75451198D02*
X109442646Y-75480745D01*
X109578110Y-75537689D01*
X109699932Y-75619860D01*
X109803477Y-75724130D01*
X109884793Y-75846520D01*
X109884794Y-75846523D01*
X109940791Y-75982380D01*
X109962561Y-76092326D01*
X109967263Y-76116070D01*
X109969333Y-76126527D01*
X109966989Y-76294367D01*
X109966949Y-76294543D01*
X109934434Y-76437661D01*
X109874665Y-76571904D01*
X109789963Y-76691976D01*
X109739421Y-76740106D01*
X109683548Y-76793314D01*
X109621513Y-76832682D01*
X109559477Y-76872052D01*
X109422477Y-76925190D01*
X109277762Y-76950708D01*
X109130850Y-76947630D01*
X108987337Y-76916077D01*
X108951240Y-76900306D01*
X108852678Y-76857246D01*
X108852675Y-76857244D01*
X108732012Y-76773382D01*
X108629935Y-76667678D01*
X108550335Y-76544162D01*
X108496242Y-76407538D01*
X108469715Y-76263004D01*
X108471766Y-76116070D01*
X108502318Y-75972337D01*
X108531262Y-75904807D01*
X108560206Y-75837275D01*
X108643225Y-75716028D01*
X108748214Y-75613216D01*
X108871172Y-75532754D01*
X108889052Y-75525530D01*
X109007417Y-75477707D01*
X109151761Y-75450172D01*
X109298702Y-75451198D01*
X109298702Y-75451198D01*
G37*
G36*
X109298702Y-72911198D02*
X109442646Y-72940745D01*
X109578110Y-72997689D01*
X109699932Y-73079860D01*
X109803477Y-73184130D01*
X109884793Y-73306520D01*
X109884794Y-73306523D01*
X109940791Y-73442380D01*
X109962561Y-73552326D01*
X109967263Y-73576070D01*
X109969333Y-73586527D01*
X109966989Y-73754367D01*
X109966949Y-73754543D01*
X109934434Y-73897661D01*
X109874665Y-74031904D01*
X109789963Y-74151976D01*
X109739421Y-74200107D01*
X109683548Y-74253314D01*
X109621512Y-74292683D01*
X109559477Y-74332052D01*
X109422477Y-74385190D01*
X109277762Y-74410708D01*
X109130850Y-74407630D01*
X108987337Y-74376077D01*
X108951240Y-74360306D01*
X108852678Y-74317246D01*
X108852675Y-74317244D01*
X108732012Y-74233382D01*
X108629935Y-74127678D01*
X108550335Y-74004162D01*
X108496242Y-73867538D01*
X108469715Y-73723004D01*
X108471766Y-73576070D01*
X108502318Y-73432337D01*
X108531262Y-73364807D01*
X108560206Y-73297275D01*
X108643225Y-73176028D01*
X108748214Y-73073216D01*
X108871172Y-72992754D01*
X108889052Y-72985530D01*
X109007417Y-72937707D01*
X109151761Y-72910172D01*
X109298702Y-72911198D01*
X109298702Y-72911198D01*
G37*
G36*
X137238702Y-72911198D02*
X137382646Y-72940745D01*
X137518110Y-72997689D01*
X137639932Y-73079860D01*
X137743477Y-73184130D01*
X137824793Y-73306520D01*
X137824794Y-73306523D01*
X137880791Y-73442380D01*
X137902561Y-73552326D01*
X137907263Y-73576070D01*
X137909333Y-73586527D01*
X137906989Y-73754367D01*
X137906949Y-73754543D01*
X137874434Y-73897661D01*
X137814665Y-74031904D01*
X137729963Y-74151976D01*
X137679421Y-74200107D01*
X137623548Y-74253314D01*
X137561512Y-74292683D01*
X137499477Y-74332052D01*
X137362477Y-74385190D01*
X137217762Y-74410708D01*
X137070850Y-74407630D01*
X136927337Y-74376077D01*
X136891240Y-74360306D01*
X136792678Y-74317246D01*
X136792675Y-74317244D01*
X136672012Y-74233382D01*
X136569935Y-74127678D01*
X136490335Y-74004162D01*
X136436242Y-73867538D01*
X136409715Y-73723004D01*
X136411766Y-73576070D01*
X136442318Y-73432337D01*
X136471262Y-73364807D01*
X136500206Y-73297275D01*
X136583225Y-73176028D01*
X136688214Y-73073216D01*
X136811172Y-72992754D01*
X136829052Y-72985530D01*
X136947417Y-72937707D01*
X137091761Y-72910172D01*
X137238702Y-72911198D01*
X137238702Y-72911198D01*
G37*
G36*
X137238702Y-70371198D02*
X137382646Y-70400745D01*
X137518110Y-70457689D01*
X137639932Y-70539860D01*
X137743477Y-70644130D01*
X137824793Y-70766520D01*
X137824794Y-70766523D01*
X137880791Y-70902380D01*
X137902561Y-71012326D01*
X137907263Y-71036070D01*
X137909333Y-71046527D01*
X137906989Y-71214367D01*
X137906949Y-71214543D01*
X137874434Y-71357661D01*
X137814665Y-71491904D01*
X137729963Y-71611976D01*
X137679421Y-71660107D01*
X137623548Y-71713314D01*
X137561512Y-71752683D01*
X137499477Y-71792052D01*
X137362477Y-71845190D01*
X137217762Y-71870708D01*
X137070850Y-71867630D01*
X136927337Y-71836077D01*
X136891240Y-71820306D01*
X136792678Y-71777246D01*
X136792675Y-71777244D01*
X136672012Y-71693382D01*
X136569935Y-71587678D01*
X136490335Y-71464162D01*
X136436242Y-71327538D01*
X136409715Y-71183004D01*
X136411766Y-71036070D01*
X136442318Y-70892337D01*
X136471262Y-70824807D01*
X136500206Y-70757275D01*
X136583225Y-70636028D01*
X136688214Y-70533216D01*
X136811172Y-70452754D01*
X136829052Y-70445530D01*
X136947417Y-70397707D01*
X137091761Y-70370172D01*
X137238702Y-70371198D01*
X137238702Y-70371198D01*
G37*
G36*
X109298702Y-70371198D02*
X109442646Y-70400745D01*
X109578110Y-70457689D01*
X109699932Y-70539860D01*
X109803477Y-70644130D01*
X109884793Y-70766520D01*
X109884794Y-70766523D01*
X109940791Y-70902380D01*
X109962561Y-71012326D01*
X109967263Y-71036070D01*
X109969333Y-71046527D01*
X109966989Y-71214367D01*
X109966949Y-71214543D01*
X109934434Y-71357661D01*
X109874665Y-71491904D01*
X109789963Y-71611976D01*
X109739421Y-71660107D01*
X109683548Y-71713314D01*
X109621512Y-71752683D01*
X109559477Y-71792052D01*
X109422477Y-71845190D01*
X109277762Y-71870708D01*
X109130850Y-71867630D01*
X108987337Y-71836077D01*
X108951240Y-71820306D01*
X108852678Y-71777246D01*
X108852675Y-71777244D01*
X108732012Y-71693382D01*
X108629935Y-71587678D01*
X108550335Y-71464162D01*
X108496242Y-71327538D01*
X108469715Y-71183004D01*
X108471766Y-71036070D01*
X108502318Y-70892337D01*
X108531262Y-70824807D01*
X108560206Y-70757275D01*
X108643225Y-70636028D01*
X108748214Y-70533216D01*
X108871172Y-70452754D01*
X108889052Y-70445530D01*
X109007417Y-70397707D01*
X109151761Y-70370172D01*
X109298702Y-70371198D01*
X109298702Y-70371198D01*
G37*
G36*
X109298702Y-67831198D02*
X109442646Y-67860745D01*
X109578110Y-67917689D01*
X109699932Y-67999860D01*
X109803477Y-68104130D01*
X109884793Y-68226520D01*
X109884794Y-68226523D01*
X109940791Y-68362380D01*
X109962561Y-68472326D01*
X109967263Y-68496070D01*
X109969333Y-68506527D01*
X109966989Y-68674367D01*
X109966949Y-68674543D01*
X109934434Y-68817661D01*
X109874665Y-68951904D01*
X109789963Y-69071976D01*
X109739421Y-69120107D01*
X109683548Y-69173314D01*
X109621513Y-69212682D01*
X109559477Y-69252052D01*
X109422477Y-69305190D01*
X109277762Y-69330708D01*
X109130850Y-69327630D01*
X108987337Y-69296077D01*
X108951240Y-69280306D01*
X108852678Y-69237246D01*
X108852675Y-69237244D01*
X108732012Y-69153382D01*
X108629935Y-69047678D01*
X108550335Y-68924162D01*
X108496242Y-68787538D01*
X108469715Y-68643004D01*
X108471766Y-68496070D01*
X108502318Y-68352337D01*
X108560206Y-68217275D01*
X108643225Y-68096028D01*
X108748214Y-67993216D01*
X108871172Y-67912754D01*
X108889052Y-67905530D01*
X109007417Y-67857707D01*
X109151761Y-67830172D01*
X109298702Y-67831198D01*
X109298702Y-67831198D01*
G37*
G36*
X137238702Y-67831198D02*
X137382646Y-67860745D01*
X137518110Y-67917689D01*
X137639932Y-67999860D01*
X137743477Y-68104130D01*
X137824793Y-68226520D01*
X137824794Y-68226523D01*
X137880791Y-68362380D01*
X137902561Y-68472326D01*
X137907263Y-68496070D01*
X137909333Y-68506527D01*
X137906989Y-68674367D01*
X137906949Y-68674543D01*
X137874434Y-68817661D01*
X137814665Y-68951904D01*
X137729963Y-69071976D01*
X137679421Y-69120107D01*
X137623548Y-69173314D01*
X137561513Y-69212682D01*
X137499477Y-69252052D01*
X137362477Y-69305190D01*
X137217762Y-69330708D01*
X137070850Y-69327630D01*
X136927337Y-69296077D01*
X136891240Y-69280306D01*
X136792678Y-69237246D01*
X136792675Y-69237244D01*
X136672012Y-69153382D01*
X136569935Y-69047678D01*
X136490335Y-68924162D01*
X136436242Y-68787538D01*
X136409715Y-68643004D01*
X136411766Y-68496070D01*
X136442318Y-68352337D01*
X136500206Y-68217275D01*
X136583225Y-68096028D01*
X136688214Y-67993216D01*
X136811172Y-67912754D01*
X136829052Y-67905530D01*
X136947417Y-67857707D01*
X137091761Y-67830172D01*
X137238702Y-67831198D01*
X137238702Y-67831198D01*
G37*
G36*
X109298702Y-65291198D02*
X109442646Y-65320745D01*
X109578110Y-65377689D01*
X109699932Y-65459860D01*
X109803477Y-65564130D01*
X109884793Y-65686520D01*
X109884794Y-65686523D01*
X109940791Y-65822380D01*
X109962561Y-65932326D01*
X109967263Y-65956070D01*
X109969333Y-65966527D01*
X109966989Y-66134367D01*
X109966949Y-66134543D01*
X109934434Y-66277661D01*
X109874665Y-66411904D01*
X109789963Y-66531976D01*
X109739421Y-66580107D01*
X109683548Y-66633314D01*
X109621513Y-66672682D01*
X109559477Y-66712052D01*
X109422477Y-66765190D01*
X109277762Y-66790708D01*
X109130850Y-66787630D01*
X108987337Y-66756077D01*
X108951240Y-66740306D01*
X108852678Y-66697246D01*
X108852675Y-66697244D01*
X108732012Y-66613382D01*
X108629935Y-66507678D01*
X108550335Y-66384162D01*
X108496242Y-66247538D01*
X108469715Y-66103004D01*
X108471766Y-65956070D01*
X108502318Y-65812337D01*
X108560206Y-65677275D01*
X108643225Y-65556028D01*
X108748214Y-65453216D01*
X108871172Y-65372754D01*
X108889052Y-65365530D01*
X109007417Y-65317707D01*
X109151761Y-65290172D01*
X109298702Y-65291198D01*
X109298702Y-65291198D01*
G37*
G36*
X137238702Y-65291198D02*
X137382646Y-65320745D01*
X137518110Y-65377689D01*
X137639932Y-65459860D01*
X137743477Y-65564130D01*
X137824793Y-65686520D01*
X137824794Y-65686523D01*
X137880791Y-65822380D01*
X137902561Y-65932326D01*
X137907263Y-65956070D01*
X137909333Y-65966527D01*
X137906989Y-66134367D01*
X137906949Y-66134543D01*
X137874434Y-66277661D01*
X137814665Y-66411904D01*
X137729963Y-66531976D01*
X137679421Y-66580107D01*
X137623548Y-66633314D01*
X137561513Y-66672682D01*
X137499477Y-66712052D01*
X137362477Y-66765190D01*
X137217762Y-66790708D01*
X137070850Y-66787630D01*
X136927337Y-66756077D01*
X136891240Y-66740306D01*
X136792678Y-66697246D01*
X136792675Y-66697244D01*
X136672012Y-66613382D01*
X136569935Y-66507678D01*
X136490335Y-66384162D01*
X136436242Y-66247538D01*
X136409715Y-66103004D01*
X136411766Y-65956070D01*
X136442318Y-65812337D01*
X136500206Y-65677275D01*
X136583225Y-65556028D01*
X136688214Y-65453216D01*
X136811172Y-65372754D01*
X136829052Y-65365530D01*
X136947417Y-65317707D01*
X137091761Y-65290172D01*
X137238702Y-65291198D01*
X137238702Y-65291198D01*
G37*
G36*
X109298702Y-62751198D02*
X109442646Y-62780745D01*
X109578110Y-62837689D01*
X109699932Y-62919860D01*
X109803477Y-63024130D01*
X109884793Y-63146520D01*
X109884794Y-63146523D01*
X109940791Y-63282380D01*
X109962561Y-63392326D01*
X109967263Y-63416070D01*
X109969333Y-63426527D01*
X109966989Y-63594367D01*
X109966949Y-63594543D01*
X109934434Y-63737661D01*
X109874665Y-63871904D01*
X109789963Y-63991976D01*
X109739421Y-64040107D01*
X109683548Y-64093314D01*
X109621513Y-64132682D01*
X109559477Y-64172052D01*
X109422477Y-64225190D01*
X109277762Y-64250708D01*
X109130850Y-64247630D01*
X108987337Y-64216077D01*
X108951240Y-64200306D01*
X108852678Y-64157246D01*
X108852675Y-64157244D01*
X108732012Y-64073382D01*
X108629935Y-63967678D01*
X108550335Y-63844162D01*
X108496242Y-63707538D01*
X108469715Y-63563004D01*
X108471766Y-63416070D01*
X108502318Y-63272337D01*
X108531262Y-63204807D01*
X108560206Y-63137275D01*
X108643225Y-63016028D01*
X108748214Y-62913216D01*
X108871172Y-62832754D01*
X108889052Y-62825530D01*
X109007417Y-62777707D01*
X109151761Y-62750172D01*
X109298702Y-62751198D01*
X109298702Y-62751198D01*
G37*
G36*
X137238702Y-62751198D02*
X137382646Y-62780745D01*
X137518110Y-62837689D01*
X137639932Y-62919860D01*
X137743477Y-63024130D01*
X137824793Y-63146520D01*
X137824794Y-63146523D01*
X137880791Y-63282380D01*
X137902561Y-63392326D01*
X137907263Y-63416070D01*
X137909333Y-63426527D01*
X137906989Y-63594367D01*
X137906949Y-63594543D01*
X137874434Y-63737661D01*
X137814665Y-63871904D01*
X137729963Y-63991976D01*
X137679421Y-64040107D01*
X137623548Y-64093314D01*
X137561513Y-64132682D01*
X137499477Y-64172052D01*
X137362477Y-64225190D01*
X137217762Y-64250708D01*
X137070850Y-64247630D01*
X136927337Y-64216077D01*
X136891240Y-64200306D01*
X136792678Y-64157246D01*
X136792675Y-64157244D01*
X136672012Y-64073382D01*
X136569935Y-63967678D01*
X136490335Y-63844162D01*
X136436242Y-63707538D01*
X136409715Y-63563004D01*
X136411766Y-63416070D01*
X136442318Y-63272337D01*
X136471262Y-63204807D01*
X136500206Y-63137275D01*
X136583225Y-63016028D01*
X136688214Y-62913216D01*
X136811172Y-62832754D01*
X136829052Y-62825530D01*
X136947417Y-62777707D01*
X137091761Y-62750172D01*
X137238702Y-62751198D01*
X137238702Y-62751198D01*
G37*
G36*
X137238702Y-60211198D02*
X137382646Y-60240745D01*
X137518110Y-60297689D01*
X137639932Y-60379860D01*
X137743477Y-60484130D01*
X137824793Y-60606520D01*
X137824794Y-60606523D01*
X137880791Y-60742380D01*
X137902561Y-60852326D01*
X137907263Y-60876070D01*
X137909333Y-60886527D01*
X137906989Y-61054367D01*
X137906949Y-61054543D01*
X137874434Y-61197661D01*
X137814665Y-61331904D01*
X137729963Y-61451976D01*
X137679421Y-61500106D01*
X137623548Y-61553314D01*
X137561513Y-61592682D01*
X137499477Y-61632052D01*
X137362477Y-61685190D01*
X137217762Y-61710708D01*
X137070850Y-61707630D01*
X136927337Y-61676077D01*
X136891240Y-61660306D01*
X136792678Y-61617246D01*
X136792675Y-61617244D01*
X136672012Y-61533382D01*
X136569935Y-61427678D01*
X136490335Y-61304162D01*
X136436242Y-61167538D01*
X136409715Y-61023004D01*
X136411766Y-60876070D01*
X136442318Y-60732337D01*
X136500206Y-60597275D01*
X136583225Y-60476028D01*
X136688214Y-60373216D01*
X136811172Y-60292754D01*
X136829052Y-60285530D01*
X136947417Y-60237707D01*
X137091761Y-60210172D01*
X137238702Y-60211198D01*
X137238702Y-60211198D01*
G37*
G36*
X109298702Y-60211198D02*
X109442646Y-60240745D01*
X109578110Y-60297689D01*
X109699932Y-60379860D01*
X109803477Y-60484130D01*
X109884793Y-60606520D01*
X109884794Y-60606523D01*
X109940791Y-60742380D01*
X109962561Y-60852326D01*
X109967263Y-60876070D01*
X109969333Y-60886527D01*
X109966989Y-61054367D01*
X109966949Y-61054543D01*
X109934434Y-61197661D01*
X109874665Y-61331904D01*
X109789963Y-61451976D01*
X109739421Y-61500106D01*
X109683548Y-61553314D01*
X109621513Y-61592682D01*
X109559477Y-61632052D01*
X109422477Y-61685190D01*
X109277762Y-61710708D01*
X109130850Y-61707630D01*
X108987337Y-61676077D01*
X108951240Y-61660306D01*
X108852678Y-61617246D01*
X108852675Y-61617244D01*
X108732012Y-61533382D01*
X108629935Y-61427678D01*
X108550335Y-61304162D01*
X108496242Y-61167538D01*
X108469715Y-61023004D01*
X108471766Y-60876070D01*
X108502318Y-60732337D01*
X108560206Y-60597275D01*
X108643225Y-60476028D01*
X108748214Y-60373216D01*
X108871172Y-60292754D01*
X108889052Y-60285530D01*
X109007417Y-60237707D01*
X109151761Y-60210172D01*
X109298702Y-60211198D01*
X109298702Y-60211198D01*
G37*
G36*
X137238702Y-57671198D02*
X137382646Y-57700745D01*
X137518110Y-57757689D01*
X137639932Y-57839860D01*
X137743477Y-57944130D01*
X137824793Y-58066520D01*
X137824794Y-58066523D01*
X137880791Y-58202380D01*
X137902561Y-58312326D01*
X137907263Y-58336070D01*
X137909333Y-58346527D01*
X137906989Y-58514367D01*
X137906949Y-58514543D01*
X137874434Y-58657661D01*
X137814665Y-58791904D01*
X137729963Y-58911976D01*
X137679421Y-58960106D01*
X137623548Y-59013314D01*
X137561512Y-59052683D01*
X137499477Y-59092052D01*
X137362477Y-59145190D01*
X137217762Y-59170708D01*
X137070850Y-59167630D01*
X136927337Y-59136077D01*
X136891240Y-59120306D01*
X136792678Y-59077246D01*
X136792675Y-59077244D01*
X136672012Y-58993382D01*
X136569935Y-58887678D01*
X136490335Y-58764162D01*
X136436242Y-58627538D01*
X136409715Y-58483004D01*
X136411766Y-58336070D01*
X136442318Y-58192337D01*
X136500206Y-58057275D01*
X136583225Y-57936028D01*
X136688214Y-57833216D01*
X136811172Y-57752754D01*
X136829052Y-57745530D01*
X136947417Y-57697707D01*
X137091761Y-57670172D01*
X137238702Y-57671198D01*
X137238702Y-57671198D01*
G37*
G36*
X109298702Y-57671198D02*
X109442646Y-57700745D01*
X109578110Y-57757689D01*
X109699932Y-57839860D01*
X109803477Y-57944130D01*
X109884793Y-58066520D01*
X109884794Y-58066523D01*
X109940791Y-58202380D01*
X109962561Y-58312326D01*
X109967263Y-58336070D01*
X109969333Y-58346527D01*
X109966989Y-58514367D01*
X109966949Y-58514543D01*
X109934434Y-58657661D01*
X109874665Y-58791904D01*
X109789963Y-58911976D01*
X109739421Y-58960106D01*
X109683548Y-59013314D01*
X109621512Y-59052683D01*
X109559477Y-59092052D01*
X109422477Y-59145190D01*
X109277762Y-59170708D01*
X109130850Y-59167630D01*
X108987337Y-59136077D01*
X108951240Y-59120306D01*
X108852678Y-59077246D01*
X108852675Y-59077244D01*
X108732012Y-58993382D01*
X108629935Y-58887678D01*
X108550335Y-58764162D01*
X108496242Y-58627538D01*
X108469715Y-58483004D01*
X108471766Y-58336070D01*
X108502318Y-58192337D01*
X108560206Y-58057275D01*
X108643225Y-57936028D01*
X108748214Y-57833216D01*
X108871172Y-57752754D01*
X108889052Y-57745530D01*
X109007417Y-57697707D01*
X109151761Y-57670172D01*
X109298702Y-57671198D01*
X109298702Y-57671198D01*
G37*
G36*
X137238702Y-55131198D02*
X137382646Y-55160745D01*
X137518110Y-55217689D01*
X137639932Y-55299860D01*
X137743477Y-55404130D01*
X137824793Y-55526520D01*
X137824794Y-55526523D01*
X137880791Y-55662380D01*
X137902561Y-55772326D01*
X137907263Y-55796070D01*
X137909333Y-55806527D01*
X137906989Y-55974367D01*
X137906949Y-55974543D01*
X137874434Y-56117661D01*
X137814665Y-56251904D01*
X137729963Y-56371976D01*
X137679421Y-56420106D01*
X137623548Y-56473314D01*
X137561513Y-56512682D01*
X137499477Y-56552052D01*
X137362477Y-56605190D01*
X137217762Y-56630708D01*
X137070850Y-56627630D01*
X136927337Y-56596077D01*
X136891240Y-56580306D01*
X136792678Y-56537246D01*
X136792675Y-56537244D01*
X136672012Y-56453382D01*
X136569935Y-56347678D01*
X136490335Y-56224162D01*
X136436242Y-56087538D01*
X136409715Y-55943004D01*
X136411766Y-55796070D01*
X136442318Y-55652337D01*
X136471262Y-55584807D01*
X136500206Y-55517275D01*
X136583225Y-55396028D01*
X136688214Y-55293216D01*
X136811172Y-55212754D01*
X136829052Y-55205530D01*
X136947417Y-55157707D01*
X137091761Y-55130172D01*
X137238702Y-55131198D01*
X137238702Y-55131198D01*
G37*
G36*
X109298702Y-55131198D02*
X109442646Y-55160745D01*
X109578110Y-55217689D01*
X109699932Y-55299860D01*
X109803477Y-55404130D01*
X109884793Y-55526520D01*
X109884794Y-55526523D01*
X109940791Y-55662380D01*
X109962561Y-55772326D01*
X109967263Y-55796070D01*
X109969333Y-55806527D01*
X109966989Y-55974367D01*
X109966949Y-55974543D01*
X109934434Y-56117661D01*
X109874665Y-56251904D01*
X109789963Y-56371976D01*
X109739421Y-56420106D01*
X109683548Y-56473314D01*
X109621513Y-56512682D01*
X109559477Y-56552052D01*
X109422477Y-56605190D01*
X109277762Y-56630708D01*
X109130850Y-56627630D01*
X108987337Y-56596077D01*
X108951240Y-56580306D01*
X108852678Y-56537246D01*
X108852675Y-56537244D01*
X108732012Y-56453382D01*
X108629935Y-56347678D01*
X108550335Y-56224162D01*
X108496242Y-56087538D01*
X108469715Y-55943004D01*
X108471766Y-55796070D01*
X108502318Y-55652337D01*
X108531262Y-55584807D01*
X108560206Y-55517275D01*
X108643225Y-55396028D01*
X108748214Y-55293216D01*
X108871172Y-55212754D01*
X108889052Y-55205530D01*
X109007417Y-55157707D01*
X109151761Y-55130172D01*
X109298702Y-55131198D01*
X109298702Y-55131198D01*
G37*
M02*
