%TF.GenerationSoftware,KiCad,Pcbnew,4.0.2-stable*%
%TF.CreationDate,2021-11-10T19:01:32-08:00*%
%TF.ProjectId,ADC,4144432E6B696361645F706362000000,rev?*%
%TF.FileFunction,Copper,L2,Inr,Plane*%
%FSLAX46Y46*%
G04 Gerber Fmt 4.6, Leading zero omitted, Abs format (unit mm)*
G04 Created by KiCad (PCBNEW 4.0.2-stable) date 11/10/2021 7:01:32 PM*
%MOMM*%
G01*
G04 APERTURE LIST*
%ADD10C,0.100000*%
%ADD11C,0.150000*%
%ADD12C,1.397000*%
%ADD13C,1.270000*%
%ADD14C,0.508000*%
%ADD15C,0.406400*%
%ADD16C,0.254000*%
G04 APERTURE END LIST*
D10*
D11*
X106680000Y-119380000D02*
X106680000Y-53340000D01*
X139700000Y-119380000D02*
X106680000Y-119380000D01*
X139700000Y-53340000D02*
X139700000Y-119380000D01*
X106680000Y-53340000D02*
X139700000Y-53340000D01*
D12*
X109220000Y-55880000D03*
X109220000Y-58420000D03*
X109220000Y-60960000D03*
X109220000Y-63500000D03*
X109220000Y-66040000D03*
X109220000Y-68580000D03*
X109220000Y-71120000D03*
X109220000Y-73660000D03*
X109220000Y-76200000D03*
X109220000Y-78740000D03*
X109220000Y-81280000D03*
X109220000Y-83820000D03*
X109220000Y-86360000D03*
X109220000Y-88900000D03*
X109220000Y-91440000D03*
D13*
X109220000Y-93980000D03*
D12*
X109220000Y-96520000D03*
X109220000Y-99060000D03*
X109220000Y-101600000D03*
X109220000Y-104140000D03*
X109220000Y-106680000D03*
X109220000Y-109220000D03*
X109220000Y-111760000D03*
X109220000Y-114300000D03*
X109220000Y-116840000D03*
X137160000Y-55880000D03*
X137160000Y-58420000D03*
X137160000Y-60960000D03*
X137160000Y-63500000D03*
X137160000Y-66040000D03*
X137160000Y-68580000D03*
X137160000Y-71120000D03*
X137160000Y-73660000D03*
X137160000Y-76200000D03*
X137160000Y-78740000D03*
X137160000Y-81280000D03*
X137160000Y-83820000D03*
X137160000Y-86360000D03*
X137160000Y-88900000D03*
X137160000Y-91440000D03*
D13*
X137160000Y-93980000D03*
D12*
X137160000Y-96520000D03*
X137160000Y-99060000D03*
X137160000Y-101600000D03*
X137160000Y-104140000D03*
X137160000Y-106680000D03*
X137160000Y-109220000D03*
X137160000Y-111760000D03*
X137160000Y-114300000D03*
X137160000Y-116840000D03*
D14*
X123444000Y-114300000D03*
X116586000Y-114300000D03*
X116586000Y-112776000D03*
X116586000Y-111506000D03*
X116586000Y-117094000D03*
X119888000Y-117094000D03*
X118110000Y-117094000D03*
X116586000Y-115824000D03*
X123444000Y-112776000D03*
X123444000Y-117094000D03*
X123444000Y-115824000D03*
X121666000Y-117094000D03*
X119888000Y-111506000D03*
X121666000Y-111506000D03*
X118110000Y-111506000D03*
X123444000Y-111506000D03*
D15*
X115570000Y-106426000D03*
X131064000Y-110490000D03*
X121602500Y-88900000D03*
X121920000Y-92075000D03*
X121920000Y-81915000D03*
X121602500Y-78740000D03*
X121602500Y-66040000D03*
X121920000Y-59055000D03*
X121920000Y-69215000D03*
X121602500Y-55880000D03*
X131064000Y-107442000D03*
X133604000Y-78232000D03*
X133604000Y-80264000D03*
X135382000Y-82042000D03*
X133604000Y-83566000D03*
X133604000Y-85598000D03*
X133604000Y-89408000D03*
X133604000Y-90424000D03*
X135382000Y-92202000D03*
X133604000Y-93980000D03*
X133604000Y-95758000D03*
X127000000Y-98552000D03*
X117856000Y-100838000D03*
X129794000Y-99822000D03*
X134620000Y-110490000D03*
X133858000Y-55626000D03*
X133858000Y-62738000D03*
X112522000Y-88392000D03*
X112522000Y-95758000D03*
X133604000Y-57404000D03*
X133604000Y-60706000D03*
X112776000Y-57404000D03*
X112522000Y-55372000D03*
X112776000Y-60706000D03*
X112522000Y-62738000D03*
X112522000Y-65532000D03*
X112776000Y-67564000D03*
X112776000Y-70866000D03*
X112522000Y-72898000D03*
X133858000Y-65532000D03*
X133604000Y-67564000D03*
X133858000Y-72898000D03*
X133604000Y-70866000D03*
X112522000Y-78232000D03*
X112776000Y-80264000D03*
X112522000Y-85598000D03*
X112776000Y-83566000D03*
X112776000Y-90424000D03*
X112776000Y-93980000D03*
X128905000Y-92075000D03*
X117475000Y-92075000D03*
X124460000Y-92075000D03*
X124777500Y-88900000D03*
X128905000Y-81915000D03*
X124460000Y-81915000D03*
X124777500Y-78740000D03*
X113665000Y-81915000D03*
X117475000Y-81915000D03*
X132715000Y-69215000D03*
X128905000Y-69215000D03*
D14*
X111760000Y-114300000D03*
X131127500Y-115252500D03*
D15*
X116840000Y-108204000D03*
X124777500Y-66040000D03*
X117475000Y-69215000D03*
X113665000Y-69215000D03*
D14*
X128905000Y-116840000D03*
D15*
X124460000Y-59055000D03*
X124460000Y-69215000D03*
X132715000Y-59055000D03*
X128905000Y-59055000D03*
X124777500Y-55880000D03*
X117157500Y-59055000D03*
X113665000Y-59055000D03*
X113665000Y-92075000D03*
X131064000Y-101346000D03*
X116840000Y-57150000D03*
X130302000Y-101854000D03*
X116840000Y-60960000D03*
X132599000Y-102605000D03*
X129794000Y-61214000D03*
X131826000Y-103378000D03*
X129794000Y-57150000D03*
X125984000Y-103886000D03*
X116586000Y-67310000D03*
X125984000Y-104648000D03*
X116586000Y-71120000D03*
X134112000Y-105156000D03*
X129794000Y-71120000D03*
X135890000Y-105918000D03*
X129794000Y-67310000D03*
X122428000Y-104140000D03*
X116586000Y-80010000D03*
X120904000Y-104902000D03*
X116586000Y-83820000D03*
X125984000Y-95504000D03*
X129794000Y-83820000D03*
X125476000Y-96012000D03*
X129794000Y-80010000D03*
X116586000Y-90170000D03*
X116586000Y-103124000D03*
X114554000Y-96774000D03*
X115570000Y-102108000D03*
X124968000Y-98044000D03*
X129794000Y-93980000D03*
X124968000Y-97282000D03*
X129794000Y-89916000D03*
X124968000Y-105664000D03*
X124460000Y-107188000D03*
X110998000Y-107950000D03*
D16*
G36*
X138990000Y-118670000D02*
X107390000Y-118670000D01*
X107390000Y-117774188D01*
X108465417Y-117774188D01*
X108527071Y-118009800D01*
X109027480Y-118185927D01*
X109557199Y-118157148D01*
X109912929Y-118009800D01*
X109974583Y-117774188D01*
X109220000Y-117019605D01*
X108465417Y-117774188D01*
X107390000Y-117774188D01*
X107390000Y-116647480D01*
X107874073Y-116647480D01*
X107902852Y-117177199D01*
X108050200Y-117532929D01*
X108285812Y-117594583D01*
X109040395Y-116840000D01*
X109399605Y-116840000D01*
X110154188Y-117594583D01*
X110389800Y-117532929D01*
X110565927Y-117032520D01*
X110537148Y-116502801D01*
X110389800Y-116147071D01*
X110154188Y-116085417D01*
X109399605Y-116840000D01*
X109040395Y-116840000D01*
X108285812Y-116085417D01*
X108050200Y-116147071D01*
X107874073Y-116647480D01*
X107390000Y-116647480D01*
X107390000Y-104404086D01*
X107886269Y-104404086D01*
X108088854Y-104894380D01*
X108463647Y-105269827D01*
X108801446Y-105410094D01*
X108465620Y-105548854D01*
X108090173Y-105923647D01*
X107886732Y-106413587D01*
X107886269Y-106944086D01*
X108088854Y-107434380D01*
X108463647Y-107809827D01*
X108801446Y-107950094D01*
X108465620Y-108088854D01*
X108090173Y-108463647D01*
X107886732Y-108953587D01*
X107886269Y-109484086D01*
X108088854Y-109974380D01*
X108463647Y-110349827D01*
X108801446Y-110490094D01*
X108465620Y-110628854D01*
X108090173Y-111003647D01*
X107886732Y-111493587D01*
X107886269Y-112024086D01*
X108088854Y-112514380D01*
X108463647Y-112889827D01*
X108801446Y-113030094D01*
X108465620Y-113168854D01*
X108090173Y-113543647D01*
X107886732Y-114033587D01*
X107886269Y-114564086D01*
X108088854Y-115054380D01*
X108463647Y-115429827D01*
X108785118Y-115563314D01*
X108527071Y-115670200D01*
X108465417Y-115905812D01*
X109220000Y-116660395D01*
X109974583Y-115905812D01*
X109912929Y-115670200D01*
X109633688Y-115571917D01*
X109974380Y-115431146D01*
X110349827Y-115056353D01*
X110553268Y-114566413D01*
X110553731Y-114035914D01*
X110351146Y-113545620D01*
X109976353Y-113170173D01*
X109638554Y-113029906D01*
X109974380Y-112891146D01*
X110349827Y-112516353D01*
X110553268Y-112026413D01*
X110553568Y-111682057D01*
X115696846Y-111682057D01*
X115831903Y-112008920D01*
X115963764Y-112141011D01*
X115832782Y-112271764D01*
X115697154Y-112598391D01*
X115696846Y-112952057D01*
X115831903Y-113278920D01*
X116081764Y-113529218D01*
X116102561Y-113537854D01*
X116083080Y-113545903D01*
X115832782Y-113795764D01*
X115697154Y-114122391D01*
X115696846Y-114476057D01*
X115831903Y-114802920D01*
X116081764Y-115053218D01*
X116102561Y-115061854D01*
X116083080Y-115069903D01*
X115832782Y-115319764D01*
X115697154Y-115646391D01*
X115696846Y-116000057D01*
X115831903Y-116326920D01*
X115963764Y-116459011D01*
X115832782Y-116589764D01*
X115697154Y-116916391D01*
X115696846Y-117270057D01*
X115831903Y-117596920D01*
X116081764Y-117847218D01*
X116408391Y-117982846D01*
X116762057Y-117983154D01*
X117088920Y-117848097D01*
X117339218Y-117598236D01*
X117347854Y-117577439D01*
X117355903Y-117596920D01*
X117605764Y-117847218D01*
X117932391Y-117982846D01*
X118286057Y-117983154D01*
X118612920Y-117848097D01*
X118863218Y-117598236D01*
X118998846Y-117271609D01*
X118998847Y-117270060D01*
X119133903Y-117596920D01*
X119383764Y-117847218D01*
X119710391Y-117982846D01*
X120064057Y-117983154D01*
X120390920Y-117848097D01*
X120641218Y-117598236D01*
X120776846Y-117271609D01*
X120776847Y-117270060D01*
X120911903Y-117596920D01*
X121161764Y-117847218D01*
X121488391Y-117982846D01*
X121842057Y-117983154D01*
X122168920Y-117848097D01*
X122419218Y-117598236D01*
X122554846Y-117271609D01*
X122554847Y-117270060D01*
X122689903Y-117596920D01*
X122939764Y-117847218D01*
X123266391Y-117982846D01*
X123620057Y-117983154D01*
X123946920Y-117848097D01*
X124020958Y-117774188D01*
X136405417Y-117774188D01*
X136467071Y-118009800D01*
X136967480Y-118185927D01*
X137497199Y-118157148D01*
X137852929Y-118009800D01*
X137914583Y-117774188D01*
X137160000Y-117019605D01*
X136405417Y-117774188D01*
X124020958Y-117774188D01*
X124197218Y-117598236D01*
X124332846Y-117271609D01*
X124333154Y-116917943D01*
X124221401Y-116647480D01*
X135814073Y-116647480D01*
X135842852Y-117177199D01*
X135990200Y-117532929D01*
X136225812Y-117594583D01*
X136980395Y-116840000D01*
X137339605Y-116840000D01*
X138094188Y-117594583D01*
X138329800Y-117532929D01*
X138505927Y-117032520D01*
X138477148Y-116502801D01*
X138329800Y-116147071D01*
X138094188Y-116085417D01*
X137339605Y-116840000D01*
X136980395Y-116840000D01*
X136225812Y-116085417D01*
X135990200Y-116147071D01*
X135814073Y-116647480D01*
X124221401Y-116647480D01*
X124198097Y-116591080D01*
X124066236Y-116458989D01*
X124197218Y-116328236D01*
X124332846Y-116001609D01*
X124333154Y-115647943D01*
X124198097Y-115321080D01*
X123948236Y-115070782D01*
X123927439Y-115062146D01*
X123946920Y-115054097D01*
X124197218Y-114804236D01*
X124332846Y-114477609D01*
X124333154Y-114123943D01*
X124198097Y-113797080D01*
X123948236Y-113546782D01*
X123927439Y-113538146D01*
X123946920Y-113530097D01*
X124197218Y-113280236D01*
X124332846Y-112953609D01*
X124333154Y-112599943D01*
X124198097Y-112273080D01*
X124066236Y-112140989D01*
X124197218Y-112010236D01*
X124332846Y-111683609D01*
X124333154Y-111329943D01*
X124198097Y-111003080D01*
X123948236Y-110752782D01*
X123715153Y-110655997D01*
X130225655Y-110655997D01*
X130352995Y-110964182D01*
X130588578Y-111200177D01*
X130896540Y-111328054D01*
X131229997Y-111328345D01*
X131538182Y-111201005D01*
X131774177Y-110965422D01*
X131902054Y-110657460D01*
X131902345Y-110324003D01*
X131775005Y-110015818D01*
X131539422Y-109779823D01*
X131231460Y-109651946D01*
X130898003Y-109651655D01*
X130589818Y-109778995D01*
X130353823Y-110014578D01*
X130225946Y-110322540D01*
X130225655Y-110655997D01*
X123715153Y-110655997D01*
X123621609Y-110617154D01*
X123267943Y-110616846D01*
X122941080Y-110751903D01*
X122690782Y-111001764D01*
X122555154Y-111328391D01*
X122555153Y-111329940D01*
X122420097Y-111003080D01*
X122170236Y-110752782D01*
X121843609Y-110617154D01*
X121489943Y-110616846D01*
X121163080Y-110751903D01*
X120912782Y-111001764D01*
X120777154Y-111328391D01*
X120777153Y-111329940D01*
X120642097Y-111003080D01*
X120392236Y-110752782D01*
X120065609Y-110617154D01*
X119711943Y-110616846D01*
X119385080Y-110751903D01*
X119134782Y-111001764D01*
X118999154Y-111328391D01*
X118999153Y-111329940D01*
X118864097Y-111003080D01*
X118614236Y-110752782D01*
X118287609Y-110617154D01*
X117933943Y-110616846D01*
X117607080Y-110751903D01*
X117356782Y-111001764D01*
X117348146Y-111022561D01*
X117340097Y-111003080D01*
X117090236Y-110752782D01*
X116763609Y-110617154D01*
X116409943Y-110616846D01*
X116083080Y-110751903D01*
X115832782Y-111001764D01*
X115697154Y-111328391D01*
X115696846Y-111682057D01*
X110553568Y-111682057D01*
X110553731Y-111495914D01*
X110351146Y-111005620D01*
X109976353Y-110630173D01*
X109638554Y-110489906D01*
X109974380Y-110351146D01*
X110349827Y-109976353D01*
X110553268Y-109486413D01*
X110553731Y-108955914D01*
X110367238Y-108504565D01*
X110522578Y-108660177D01*
X110830540Y-108788054D01*
X111163997Y-108788345D01*
X111472182Y-108661005D01*
X111708177Y-108425422D01*
X111836054Y-108117460D01*
X111836345Y-107784003D01*
X111709005Y-107475818D01*
X111587397Y-107353997D01*
X123621655Y-107353997D01*
X123748995Y-107662182D01*
X123984578Y-107898177D01*
X124292540Y-108026054D01*
X124625997Y-108026345D01*
X124934182Y-107899005D01*
X125170177Y-107663422D01*
X125298054Y-107355460D01*
X125298345Y-107022003D01*
X125171005Y-106713818D01*
X124959749Y-106502193D01*
X125133997Y-106502345D01*
X125442182Y-106375005D01*
X125678177Y-106139422D01*
X125701191Y-106083997D01*
X135051655Y-106083997D01*
X135178995Y-106392182D01*
X135414578Y-106628177D01*
X135722540Y-106756054D01*
X135826433Y-106756145D01*
X135826269Y-106944086D01*
X136028854Y-107434380D01*
X136403647Y-107809827D01*
X136741446Y-107950094D01*
X136405620Y-108088854D01*
X136030173Y-108463647D01*
X135826732Y-108953587D01*
X135826269Y-109484086D01*
X136028854Y-109974380D01*
X136403647Y-110349827D01*
X136741446Y-110490094D01*
X136405620Y-110628854D01*
X136030173Y-111003647D01*
X135826732Y-111493587D01*
X135826269Y-112024086D01*
X136028854Y-112514380D01*
X136403647Y-112889827D01*
X136741446Y-113030094D01*
X136405620Y-113168854D01*
X136030173Y-113543647D01*
X135826732Y-114033587D01*
X135826269Y-114564086D01*
X136028854Y-115054380D01*
X136403647Y-115429827D01*
X136725118Y-115563314D01*
X136467071Y-115670200D01*
X136405417Y-115905812D01*
X137160000Y-116660395D01*
X137914583Y-115905812D01*
X137852929Y-115670200D01*
X137573688Y-115571917D01*
X137914380Y-115431146D01*
X138289827Y-115056353D01*
X138493268Y-114566413D01*
X138493731Y-114035914D01*
X138291146Y-113545620D01*
X137916353Y-113170173D01*
X137578554Y-113029906D01*
X137914380Y-112891146D01*
X138289827Y-112516353D01*
X138493268Y-112026413D01*
X138493731Y-111495914D01*
X138291146Y-111005620D01*
X137916353Y-110630173D01*
X137578554Y-110489906D01*
X137914380Y-110351146D01*
X138289827Y-109976353D01*
X138493268Y-109486413D01*
X138493731Y-108955914D01*
X138291146Y-108465620D01*
X137916353Y-108090173D01*
X137578554Y-107949906D01*
X137914380Y-107811146D01*
X138289827Y-107436353D01*
X138493268Y-106946413D01*
X138493731Y-106415914D01*
X138291146Y-105925620D01*
X137916353Y-105550173D01*
X137578554Y-105409906D01*
X137914380Y-105271146D01*
X138289827Y-104896353D01*
X138493268Y-104406413D01*
X138493731Y-103875914D01*
X138291146Y-103385620D01*
X137916353Y-103010173D01*
X137594882Y-102876686D01*
X137852929Y-102769800D01*
X137914583Y-102534188D01*
X137160000Y-101779605D01*
X136405417Y-102534188D01*
X136467071Y-102769800D01*
X136746312Y-102868083D01*
X136405620Y-103008854D01*
X136030173Y-103383647D01*
X135826732Y-103873587D01*
X135826269Y-104404086D01*
X136028854Y-104894380D01*
X136324992Y-105191035D01*
X136057460Y-105079946D01*
X135724003Y-105079655D01*
X135415818Y-105206995D01*
X135179823Y-105442578D01*
X135051946Y-105750540D01*
X135051655Y-106083997D01*
X125701191Y-106083997D01*
X125806054Y-105831460D01*
X125806345Y-105498003D01*
X125798274Y-105478469D01*
X125816540Y-105486054D01*
X126149997Y-105486345D01*
X126458182Y-105359005D01*
X126495254Y-105321997D01*
X133273655Y-105321997D01*
X133400995Y-105630182D01*
X133636578Y-105866177D01*
X133944540Y-105994054D01*
X134277997Y-105994345D01*
X134586182Y-105867005D01*
X134822177Y-105631422D01*
X134950054Y-105323460D01*
X134950345Y-104990003D01*
X134823005Y-104681818D01*
X134587422Y-104445823D01*
X134279460Y-104317946D01*
X133946003Y-104317655D01*
X133637818Y-104444995D01*
X133401823Y-104680578D01*
X133273946Y-104988540D01*
X133273655Y-105321997D01*
X126495254Y-105321997D01*
X126694177Y-105123422D01*
X126822054Y-104815460D01*
X126822345Y-104482003D01*
X126733446Y-104266852D01*
X126822054Y-104053460D01*
X126822345Y-103720003D01*
X126749621Y-103543997D01*
X130987655Y-103543997D01*
X131114995Y-103852182D01*
X131350578Y-104088177D01*
X131658540Y-104216054D01*
X131991997Y-104216345D01*
X132300182Y-104089005D01*
X132536177Y-103853422D01*
X132664054Y-103545460D01*
X132664143Y-103443257D01*
X132764997Y-103443345D01*
X133073182Y-103316005D01*
X133309177Y-103080422D01*
X133437054Y-102772460D01*
X133437345Y-102439003D01*
X133310005Y-102130818D01*
X133074422Y-101894823D01*
X132766460Y-101766946D01*
X132433003Y-101766655D01*
X132124818Y-101893995D01*
X131888823Y-102129578D01*
X131760946Y-102437540D01*
X131760857Y-102539743D01*
X131660003Y-102539655D01*
X131351818Y-102666995D01*
X131115823Y-102902578D01*
X130987946Y-103210540D01*
X130987655Y-103543997D01*
X126749621Y-103543997D01*
X126695005Y-103411818D01*
X126459422Y-103175823D01*
X126151460Y-103047946D01*
X125818003Y-103047655D01*
X125509818Y-103174995D01*
X125273823Y-103410578D01*
X125145946Y-103718540D01*
X125145655Y-104051997D01*
X125234554Y-104267148D01*
X125145946Y-104480540D01*
X125145655Y-104813997D01*
X125153726Y-104833531D01*
X125135460Y-104825946D01*
X124802003Y-104825655D01*
X124493818Y-104952995D01*
X124257823Y-105188578D01*
X124129946Y-105496540D01*
X124129655Y-105829997D01*
X124256995Y-106138182D01*
X124468251Y-106349807D01*
X124294003Y-106349655D01*
X123985818Y-106476995D01*
X123749823Y-106712578D01*
X123621946Y-107020540D01*
X123621655Y-107353997D01*
X111587397Y-107353997D01*
X111473422Y-107239823D01*
X111165460Y-107111946D01*
X110832003Y-107111655D01*
X110523818Y-107238995D01*
X110366615Y-107395924D01*
X110553268Y-106946413D01*
X110553577Y-106591997D01*
X114731655Y-106591997D01*
X114858995Y-106900182D01*
X115094578Y-107136177D01*
X115402540Y-107264054D01*
X115735997Y-107264345D01*
X116044182Y-107137005D01*
X116280177Y-106901422D01*
X116408054Y-106593460D01*
X116408345Y-106260003D01*
X116281005Y-105951818D01*
X116045422Y-105715823D01*
X115737460Y-105587946D01*
X115404003Y-105587655D01*
X115095818Y-105714995D01*
X114859823Y-105950578D01*
X114731946Y-106258540D01*
X114731655Y-106591997D01*
X110553577Y-106591997D01*
X110553731Y-106415914D01*
X110351146Y-105925620D01*
X109976353Y-105550173D01*
X109638554Y-105409906D01*
X109974380Y-105271146D01*
X110177883Y-105067997D01*
X120065655Y-105067997D01*
X120192995Y-105376182D01*
X120428578Y-105612177D01*
X120736540Y-105740054D01*
X121069997Y-105740345D01*
X121378182Y-105613005D01*
X121614177Y-105377422D01*
X121742054Y-105069460D01*
X121742345Y-104736003D01*
X121615005Y-104427818D01*
X121493397Y-104305997D01*
X121589655Y-104305997D01*
X121716995Y-104614182D01*
X121952578Y-104850177D01*
X122260540Y-104978054D01*
X122593997Y-104978345D01*
X122902182Y-104851005D01*
X123138177Y-104615422D01*
X123266054Y-104307460D01*
X123266345Y-103974003D01*
X123139005Y-103665818D01*
X122903422Y-103429823D01*
X122595460Y-103301946D01*
X122262003Y-103301655D01*
X121953818Y-103428995D01*
X121717823Y-103664578D01*
X121589946Y-103972540D01*
X121589655Y-104305997D01*
X121493397Y-104305997D01*
X121379422Y-104191823D01*
X121071460Y-104063946D01*
X120738003Y-104063655D01*
X120429818Y-104190995D01*
X120193823Y-104426578D01*
X120065946Y-104734540D01*
X120065655Y-105067997D01*
X110177883Y-105067997D01*
X110349827Y-104896353D01*
X110553268Y-104406413D01*
X110553731Y-103875914D01*
X110351146Y-103385620D01*
X109976353Y-103010173D01*
X109654882Y-102876686D01*
X109912929Y-102769800D01*
X109974583Y-102534188D01*
X109220000Y-101779605D01*
X108465417Y-102534188D01*
X108527071Y-102769800D01*
X108806312Y-102868083D01*
X108465620Y-103008854D01*
X108090173Y-103383647D01*
X107886732Y-103873587D01*
X107886269Y-104404086D01*
X107390000Y-104404086D01*
X107390000Y-101407480D01*
X107874073Y-101407480D01*
X107902852Y-101937199D01*
X108050200Y-102292929D01*
X108285812Y-102354583D01*
X109040395Y-101600000D01*
X109399605Y-101600000D01*
X110154188Y-102354583D01*
X110389800Y-102292929D01*
X110396463Y-102273997D01*
X114731655Y-102273997D01*
X114858995Y-102582182D01*
X115094578Y-102818177D01*
X115402540Y-102946054D01*
X115735997Y-102946345D01*
X115755531Y-102938274D01*
X115747946Y-102956540D01*
X115747655Y-103289997D01*
X115874995Y-103598182D01*
X116110578Y-103834177D01*
X116418540Y-103962054D01*
X116751997Y-103962345D01*
X117060182Y-103835005D01*
X117296177Y-103599422D01*
X117424054Y-103291460D01*
X117424345Y-102958003D01*
X117297005Y-102649818D01*
X117061422Y-102413823D01*
X116753460Y-102285946D01*
X116420003Y-102285655D01*
X116400469Y-102293726D01*
X116408054Y-102275460D01*
X116408276Y-102019997D01*
X129463655Y-102019997D01*
X129590995Y-102328182D01*
X129826578Y-102564177D01*
X130134540Y-102692054D01*
X130467997Y-102692345D01*
X130776182Y-102565005D01*
X131012177Y-102329422D01*
X131072475Y-102184208D01*
X131229997Y-102184345D01*
X131538182Y-102057005D01*
X131774177Y-101821422D01*
X131902054Y-101513460D01*
X131902146Y-101407480D01*
X135814073Y-101407480D01*
X135842852Y-101937199D01*
X135990200Y-102292929D01*
X136225812Y-102354583D01*
X136980395Y-101600000D01*
X137339605Y-101600000D01*
X138094188Y-102354583D01*
X138329800Y-102292929D01*
X138505927Y-101792520D01*
X138477148Y-101262801D01*
X138329800Y-100907071D01*
X138094188Y-100845417D01*
X137339605Y-101600000D01*
X136980395Y-101600000D01*
X136225812Y-100845417D01*
X135990200Y-100907071D01*
X135814073Y-101407480D01*
X131902146Y-101407480D01*
X131902345Y-101180003D01*
X131775005Y-100871818D01*
X131539422Y-100635823D01*
X131231460Y-100507946D01*
X130898003Y-100507655D01*
X130589818Y-100634995D01*
X130353823Y-100870578D01*
X130293525Y-101015792D01*
X130136003Y-101015655D01*
X129827818Y-101142995D01*
X129591823Y-101378578D01*
X129463946Y-101686540D01*
X129463655Y-102019997D01*
X116408276Y-102019997D01*
X116408345Y-101942003D01*
X116281005Y-101633818D01*
X116045422Y-101397823D01*
X115737460Y-101269946D01*
X115404003Y-101269655D01*
X115095818Y-101396995D01*
X114859823Y-101632578D01*
X114731946Y-101940540D01*
X114731655Y-102273997D01*
X110396463Y-102273997D01*
X110565927Y-101792520D01*
X110537148Y-101262801D01*
X110389800Y-100907071D01*
X110154188Y-100845417D01*
X109399605Y-101600000D01*
X109040395Y-101600000D01*
X108285812Y-100845417D01*
X108050200Y-100907071D01*
X107874073Y-101407480D01*
X107390000Y-101407480D01*
X107390000Y-99994188D01*
X108465417Y-99994188D01*
X108527071Y-100229800D01*
X108788629Y-100321859D01*
X108527071Y-100430200D01*
X108465417Y-100665812D01*
X109220000Y-101420395D01*
X109974583Y-100665812D01*
X109912929Y-100430200D01*
X109651371Y-100338141D01*
X109912929Y-100229800D01*
X109974583Y-99994188D01*
X136405417Y-99994188D01*
X136467071Y-100229800D01*
X136728629Y-100321859D01*
X136467071Y-100430200D01*
X136405417Y-100665812D01*
X137160000Y-101420395D01*
X137914583Y-100665812D01*
X137852929Y-100430200D01*
X137591371Y-100338141D01*
X137852929Y-100229800D01*
X137914583Y-99994188D01*
X137160000Y-99239605D01*
X136405417Y-99994188D01*
X109974583Y-99994188D01*
X109220000Y-99239605D01*
X108465417Y-99994188D01*
X107390000Y-99994188D01*
X107390000Y-98867480D01*
X107874073Y-98867480D01*
X107902852Y-99397199D01*
X108050200Y-99752929D01*
X108285812Y-99814583D01*
X109040395Y-99060000D01*
X109399605Y-99060000D01*
X110154188Y-99814583D01*
X110389800Y-99752929D01*
X110565927Y-99252520D01*
X110537148Y-98722801D01*
X110389800Y-98367071D01*
X110154188Y-98305417D01*
X109399605Y-99060000D01*
X109040395Y-99060000D01*
X108285812Y-98305417D01*
X108050200Y-98367071D01*
X107874073Y-98867480D01*
X107390000Y-98867480D01*
X107390000Y-96784086D01*
X107886269Y-96784086D01*
X108088854Y-97274380D01*
X108463647Y-97649827D01*
X108785118Y-97783314D01*
X108527071Y-97890200D01*
X108465417Y-98125812D01*
X109220000Y-98880395D01*
X109974583Y-98125812D01*
X109912929Y-97890200D01*
X109633688Y-97791917D01*
X109974380Y-97651146D01*
X110349827Y-97276353D01*
X110489494Y-96939997D01*
X113715655Y-96939997D01*
X113842995Y-97248182D01*
X114078578Y-97484177D01*
X114386540Y-97612054D01*
X114719997Y-97612345D01*
X115028182Y-97485005D01*
X115065254Y-97447997D01*
X124129655Y-97447997D01*
X124218554Y-97663148D01*
X124129946Y-97876540D01*
X124129655Y-98209997D01*
X124256995Y-98518182D01*
X124492578Y-98754177D01*
X124800540Y-98882054D01*
X125133997Y-98882345D01*
X125169972Y-98867480D01*
X135814073Y-98867480D01*
X135842852Y-99397199D01*
X135990200Y-99752929D01*
X136225812Y-99814583D01*
X136980395Y-99060000D01*
X137339605Y-99060000D01*
X138094188Y-99814583D01*
X138329800Y-99752929D01*
X138505927Y-99252520D01*
X138477148Y-98722801D01*
X138329800Y-98367071D01*
X138094188Y-98305417D01*
X137339605Y-99060000D01*
X136980395Y-99060000D01*
X136225812Y-98305417D01*
X135990200Y-98367071D01*
X135814073Y-98867480D01*
X125169972Y-98867480D01*
X125442182Y-98755005D01*
X125678177Y-98519422D01*
X125806054Y-98211460D01*
X125806345Y-97878003D01*
X125717446Y-97662852D01*
X125806054Y-97449460D01*
X125806345Y-97116003D01*
X125688617Y-96831082D01*
X125802355Y-96784086D01*
X135826269Y-96784086D01*
X136028854Y-97274380D01*
X136403647Y-97649827D01*
X136725118Y-97783314D01*
X136467071Y-97890200D01*
X136405417Y-98125812D01*
X137160000Y-98880395D01*
X137914583Y-98125812D01*
X137852929Y-97890200D01*
X137573688Y-97791917D01*
X137914380Y-97651146D01*
X138289827Y-97276353D01*
X138493268Y-96786413D01*
X138493731Y-96255914D01*
X138291146Y-95765620D01*
X137916353Y-95390173D01*
X137512349Y-95222416D01*
X137814697Y-95097179D01*
X137868528Y-94868133D01*
X137160000Y-94159605D01*
X136451472Y-94868133D01*
X136505303Y-95097179D01*
X136834938Y-95211464D01*
X136405620Y-95388854D01*
X136030173Y-95763647D01*
X135826732Y-96253587D01*
X135826269Y-96784086D01*
X125802355Y-96784086D01*
X125950182Y-96723005D01*
X126186177Y-96487422D01*
X126266388Y-96294253D01*
X126458182Y-96215005D01*
X126694177Y-95979422D01*
X126822054Y-95671460D01*
X126822345Y-95338003D01*
X126695005Y-95029818D01*
X126459422Y-94793823D01*
X126151460Y-94665946D01*
X125818003Y-94665655D01*
X125509818Y-94792995D01*
X125273823Y-95028578D01*
X125193612Y-95221747D01*
X125001818Y-95300995D01*
X124765823Y-95536578D01*
X124637946Y-95844540D01*
X124637655Y-96177997D01*
X124755383Y-96462918D01*
X124493818Y-96570995D01*
X124257823Y-96806578D01*
X124129946Y-97114540D01*
X124129655Y-97447997D01*
X115065254Y-97447997D01*
X115264177Y-97249422D01*
X115392054Y-96941460D01*
X115392345Y-96608003D01*
X115265005Y-96299818D01*
X115029422Y-96063823D01*
X114721460Y-95935946D01*
X114388003Y-95935655D01*
X114079818Y-96062995D01*
X113843823Y-96298578D01*
X113715946Y-96606540D01*
X113715655Y-96939997D01*
X110489494Y-96939997D01*
X110553268Y-96786413D01*
X110553731Y-96255914D01*
X110351146Y-95765620D01*
X109976353Y-95390173D01*
X109572349Y-95222416D01*
X109874697Y-95097179D01*
X109928528Y-94868133D01*
X109220000Y-94159605D01*
X108511472Y-94868133D01*
X108565303Y-95097179D01*
X108894938Y-95211464D01*
X108465620Y-95388854D01*
X108090173Y-95763647D01*
X107886732Y-96253587D01*
X107886269Y-96784086D01*
X107390000Y-96784086D01*
X107390000Y-93802664D01*
X107937319Y-93802664D01*
X107967094Y-94307023D01*
X108102821Y-94634697D01*
X108331867Y-94688528D01*
X109040395Y-93980000D01*
X109399605Y-93980000D01*
X110108133Y-94688528D01*
X110337179Y-94634697D01*
X110502681Y-94157336D01*
X110502012Y-94145997D01*
X128955655Y-94145997D01*
X129082995Y-94454182D01*
X129318578Y-94690177D01*
X129626540Y-94818054D01*
X129959997Y-94818345D01*
X130268182Y-94691005D01*
X130504177Y-94455422D01*
X130632054Y-94147460D01*
X130632345Y-93814003D01*
X130627660Y-93802664D01*
X135877319Y-93802664D01*
X135907094Y-94307023D01*
X136042821Y-94634697D01*
X136271867Y-94688528D01*
X136980395Y-93980000D01*
X137339605Y-93980000D01*
X138048133Y-94688528D01*
X138277179Y-94634697D01*
X138442681Y-94157336D01*
X138412906Y-93652977D01*
X138277179Y-93325303D01*
X138048133Y-93271472D01*
X137339605Y-93980000D01*
X136980395Y-93980000D01*
X136271867Y-93271472D01*
X136042821Y-93325303D01*
X135877319Y-93802664D01*
X130627660Y-93802664D01*
X130505005Y-93505818D01*
X130269422Y-93269823D01*
X129961460Y-93141946D01*
X129628003Y-93141655D01*
X129319818Y-93268995D01*
X129083823Y-93504578D01*
X128955946Y-93812540D01*
X128955655Y-94145997D01*
X110502012Y-94145997D01*
X110472906Y-93652977D01*
X110337179Y-93325303D01*
X110108133Y-93271472D01*
X109399605Y-93980000D01*
X109040395Y-93980000D01*
X108331867Y-93271472D01*
X108102821Y-93325303D01*
X107937319Y-93802664D01*
X107390000Y-93802664D01*
X107390000Y-91704086D01*
X107886269Y-91704086D01*
X108088854Y-92194380D01*
X108463647Y-92569827D01*
X108867651Y-92737584D01*
X108565303Y-92862821D01*
X108511472Y-93091867D01*
X109220000Y-93800395D01*
X109928528Y-93091867D01*
X109874697Y-92862821D01*
X109545062Y-92748536D01*
X109974380Y-92571146D01*
X110305105Y-92240997D01*
X121081655Y-92240997D01*
X121208995Y-92549182D01*
X121444578Y-92785177D01*
X121752540Y-92913054D01*
X122085997Y-92913345D01*
X122394182Y-92786005D01*
X122630177Y-92550422D01*
X122758054Y-92242460D01*
X122758345Y-91909003D01*
X122673675Y-91704086D01*
X135826269Y-91704086D01*
X136028854Y-92194380D01*
X136403647Y-92569827D01*
X136807651Y-92737584D01*
X136505303Y-92862821D01*
X136451472Y-93091867D01*
X137160000Y-93800395D01*
X137868528Y-93091867D01*
X137814697Y-92862821D01*
X137485062Y-92748536D01*
X137914380Y-92571146D01*
X138289827Y-92196353D01*
X138493268Y-91706413D01*
X138493731Y-91175914D01*
X138291146Y-90685620D01*
X137916353Y-90310173D01*
X137594882Y-90176686D01*
X137852929Y-90069800D01*
X137914583Y-89834188D01*
X137160000Y-89079605D01*
X136405417Y-89834188D01*
X136467071Y-90069800D01*
X136746312Y-90168083D01*
X136405620Y-90308854D01*
X136030173Y-90683647D01*
X135826732Y-91173587D01*
X135826269Y-91704086D01*
X122673675Y-91704086D01*
X122631005Y-91600818D01*
X122395422Y-91364823D01*
X122087460Y-91236946D01*
X121754003Y-91236655D01*
X121445818Y-91363995D01*
X121209823Y-91599578D01*
X121081946Y-91907540D01*
X121081655Y-92240997D01*
X110305105Y-92240997D01*
X110349827Y-92196353D01*
X110553268Y-91706413D01*
X110553731Y-91175914D01*
X110351146Y-90685620D01*
X110002133Y-90335997D01*
X115747655Y-90335997D01*
X115874995Y-90644182D01*
X116110578Y-90880177D01*
X116418540Y-91008054D01*
X116751997Y-91008345D01*
X117060182Y-90881005D01*
X117296177Y-90645422D01*
X117424054Y-90337460D01*
X117424276Y-90081997D01*
X128955655Y-90081997D01*
X129082995Y-90390182D01*
X129318578Y-90626177D01*
X129626540Y-90754054D01*
X129959997Y-90754345D01*
X130268182Y-90627005D01*
X130504177Y-90391422D01*
X130632054Y-90083460D01*
X130632345Y-89750003D01*
X130505005Y-89441818D01*
X130269422Y-89205823D01*
X129961460Y-89077946D01*
X129628003Y-89077655D01*
X129319818Y-89204995D01*
X129083823Y-89440578D01*
X128955946Y-89748540D01*
X128955655Y-90081997D01*
X117424276Y-90081997D01*
X117424345Y-90004003D01*
X117297005Y-89695818D01*
X117061422Y-89459823D01*
X116753460Y-89331946D01*
X116420003Y-89331655D01*
X116111818Y-89458995D01*
X115875823Y-89694578D01*
X115747946Y-90002540D01*
X115747655Y-90335997D01*
X110002133Y-90335997D01*
X109976353Y-90310173D01*
X109654882Y-90176686D01*
X109912929Y-90069800D01*
X109974583Y-89834188D01*
X109220000Y-89079605D01*
X108465417Y-89834188D01*
X108527071Y-90069800D01*
X108806312Y-90168083D01*
X108465620Y-90308854D01*
X108090173Y-90683647D01*
X107886732Y-91173587D01*
X107886269Y-91704086D01*
X107390000Y-91704086D01*
X107390000Y-88707480D01*
X107874073Y-88707480D01*
X107902852Y-89237199D01*
X108050200Y-89592929D01*
X108285812Y-89654583D01*
X109040395Y-88900000D01*
X109399605Y-88900000D01*
X110154188Y-89654583D01*
X110389800Y-89592929D01*
X110565927Y-89092520D01*
X110564487Y-89065997D01*
X120764155Y-89065997D01*
X120891495Y-89374182D01*
X121127078Y-89610177D01*
X121435040Y-89738054D01*
X121768497Y-89738345D01*
X122076682Y-89611005D01*
X122312677Y-89375422D01*
X122440554Y-89067460D01*
X122440845Y-88734003D01*
X122429886Y-88707480D01*
X135814073Y-88707480D01*
X135842852Y-89237199D01*
X135990200Y-89592929D01*
X136225812Y-89654583D01*
X136980395Y-88900000D01*
X137339605Y-88900000D01*
X138094188Y-89654583D01*
X138329800Y-89592929D01*
X138505927Y-89092520D01*
X138477148Y-88562801D01*
X138329800Y-88207071D01*
X138094188Y-88145417D01*
X137339605Y-88900000D01*
X136980395Y-88900000D01*
X136225812Y-88145417D01*
X135990200Y-88207071D01*
X135814073Y-88707480D01*
X122429886Y-88707480D01*
X122313505Y-88425818D01*
X122077922Y-88189823D01*
X121769960Y-88061946D01*
X121436503Y-88061655D01*
X121128318Y-88188995D01*
X120892323Y-88424578D01*
X120764446Y-88732540D01*
X120764155Y-89065997D01*
X110564487Y-89065997D01*
X110537148Y-88562801D01*
X110389800Y-88207071D01*
X110154188Y-88145417D01*
X109399605Y-88900000D01*
X109040395Y-88900000D01*
X108285812Y-88145417D01*
X108050200Y-88207071D01*
X107874073Y-88707480D01*
X107390000Y-88707480D01*
X107390000Y-86624086D01*
X107886269Y-86624086D01*
X108088854Y-87114380D01*
X108463647Y-87489827D01*
X108785118Y-87623314D01*
X108527071Y-87730200D01*
X108465417Y-87965812D01*
X109220000Y-88720395D01*
X109974583Y-87965812D01*
X109912929Y-87730200D01*
X109633688Y-87631917D01*
X109974380Y-87491146D01*
X110349827Y-87116353D01*
X110553268Y-86626413D01*
X110553270Y-86624086D01*
X135826269Y-86624086D01*
X136028854Y-87114380D01*
X136403647Y-87489827D01*
X136725118Y-87623314D01*
X136467071Y-87730200D01*
X136405417Y-87965812D01*
X137160000Y-88720395D01*
X137914583Y-87965812D01*
X137852929Y-87730200D01*
X137573688Y-87631917D01*
X137914380Y-87491146D01*
X138289827Y-87116353D01*
X138493268Y-86626413D01*
X138493731Y-86095914D01*
X138291146Y-85605620D01*
X137916353Y-85230173D01*
X137594882Y-85096686D01*
X137852929Y-84989800D01*
X137914583Y-84754188D01*
X137160000Y-83999605D01*
X136405417Y-84754188D01*
X136467071Y-84989800D01*
X136746312Y-85088083D01*
X136405620Y-85228854D01*
X136030173Y-85603647D01*
X135826732Y-86093587D01*
X135826269Y-86624086D01*
X110553270Y-86624086D01*
X110553731Y-86095914D01*
X110351146Y-85605620D01*
X109976353Y-85230173D01*
X109654882Y-85096686D01*
X109912929Y-84989800D01*
X109974583Y-84754188D01*
X109220000Y-83999605D01*
X108465417Y-84754188D01*
X108527071Y-84989800D01*
X108806312Y-85088083D01*
X108465620Y-85228854D01*
X108090173Y-85603647D01*
X107886732Y-86093587D01*
X107886269Y-86624086D01*
X107390000Y-86624086D01*
X107390000Y-83627480D01*
X107874073Y-83627480D01*
X107902852Y-84157199D01*
X108050200Y-84512929D01*
X108285812Y-84574583D01*
X109040395Y-83820000D01*
X109399605Y-83820000D01*
X110154188Y-84574583D01*
X110389800Y-84512929D01*
X110565927Y-84012520D01*
X110564487Y-83985997D01*
X115747655Y-83985997D01*
X115874995Y-84294182D01*
X116110578Y-84530177D01*
X116418540Y-84658054D01*
X116751997Y-84658345D01*
X117060182Y-84531005D01*
X117296177Y-84295422D01*
X117424054Y-83987460D01*
X117424055Y-83985997D01*
X128955655Y-83985997D01*
X129082995Y-84294182D01*
X129318578Y-84530177D01*
X129626540Y-84658054D01*
X129959997Y-84658345D01*
X130268182Y-84531005D01*
X130504177Y-84295422D01*
X130632054Y-83987460D01*
X130632345Y-83654003D01*
X130621386Y-83627480D01*
X135814073Y-83627480D01*
X135842852Y-84157199D01*
X135990200Y-84512929D01*
X136225812Y-84574583D01*
X136980395Y-83820000D01*
X137339605Y-83820000D01*
X138094188Y-84574583D01*
X138329800Y-84512929D01*
X138505927Y-84012520D01*
X138477148Y-83482801D01*
X138329800Y-83127071D01*
X138094188Y-83065417D01*
X137339605Y-83820000D01*
X136980395Y-83820000D01*
X136225812Y-83065417D01*
X135990200Y-83127071D01*
X135814073Y-83627480D01*
X130621386Y-83627480D01*
X130505005Y-83345818D01*
X130269422Y-83109823D01*
X129961460Y-82981946D01*
X129628003Y-82981655D01*
X129319818Y-83108995D01*
X129083823Y-83344578D01*
X128955946Y-83652540D01*
X128955655Y-83985997D01*
X117424055Y-83985997D01*
X117424345Y-83654003D01*
X117297005Y-83345818D01*
X117061422Y-83109823D01*
X116753460Y-82981946D01*
X116420003Y-82981655D01*
X116111818Y-83108995D01*
X115875823Y-83344578D01*
X115747946Y-83652540D01*
X115747655Y-83985997D01*
X110564487Y-83985997D01*
X110537148Y-83482801D01*
X110389800Y-83127071D01*
X110154188Y-83065417D01*
X109399605Y-83820000D01*
X109040395Y-83820000D01*
X108285812Y-83065417D01*
X108050200Y-83127071D01*
X107874073Y-83627480D01*
X107390000Y-83627480D01*
X107390000Y-81544086D01*
X107886269Y-81544086D01*
X108088854Y-82034380D01*
X108463647Y-82409827D01*
X108785118Y-82543314D01*
X108527071Y-82650200D01*
X108465417Y-82885812D01*
X109220000Y-83640395D01*
X109974583Y-82885812D01*
X109912929Y-82650200D01*
X109633688Y-82551917D01*
X109974380Y-82411146D01*
X110305105Y-82080997D01*
X121081655Y-82080997D01*
X121208995Y-82389182D01*
X121444578Y-82625177D01*
X121752540Y-82753054D01*
X122085997Y-82753345D01*
X122394182Y-82626005D01*
X122630177Y-82390422D01*
X122758054Y-82082460D01*
X122758345Y-81749003D01*
X122673675Y-81544086D01*
X135826269Y-81544086D01*
X136028854Y-82034380D01*
X136403647Y-82409827D01*
X136725118Y-82543314D01*
X136467071Y-82650200D01*
X136405417Y-82885812D01*
X137160000Y-83640395D01*
X137914583Y-82885812D01*
X137852929Y-82650200D01*
X137573688Y-82551917D01*
X137914380Y-82411146D01*
X138289827Y-82036353D01*
X138493268Y-81546413D01*
X138493731Y-81015914D01*
X138291146Y-80525620D01*
X137916353Y-80150173D01*
X137594882Y-80016686D01*
X137852929Y-79909800D01*
X137914583Y-79674188D01*
X137160000Y-78919605D01*
X136405417Y-79674188D01*
X136467071Y-79909800D01*
X136746312Y-80008083D01*
X136405620Y-80148854D01*
X136030173Y-80523647D01*
X135826732Y-81013587D01*
X135826269Y-81544086D01*
X122673675Y-81544086D01*
X122631005Y-81440818D01*
X122395422Y-81204823D01*
X122087460Y-81076946D01*
X121754003Y-81076655D01*
X121445818Y-81203995D01*
X121209823Y-81439578D01*
X121081946Y-81747540D01*
X121081655Y-82080997D01*
X110305105Y-82080997D01*
X110349827Y-82036353D01*
X110553268Y-81546413D01*
X110553731Y-81015914D01*
X110351146Y-80525620D01*
X110002133Y-80175997D01*
X115747655Y-80175997D01*
X115874995Y-80484182D01*
X116110578Y-80720177D01*
X116418540Y-80848054D01*
X116751997Y-80848345D01*
X117060182Y-80721005D01*
X117296177Y-80485422D01*
X117424054Y-80177460D01*
X117424055Y-80175997D01*
X128955655Y-80175997D01*
X129082995Y-80484182D01*
X129318578Y-80720177D01*
X129626540Y-80848054D01*
X129959997Y-80848345D01*
X130268182Y-80721005D01*
X130504177Y-80485422D01*
X130632054Y-80177460D01*
X130632345Y-79844003D01*
X130505005Y-79535818D01*
X130269422Y-79299823D01*
X129961460Y-79171946D01*
X129628003Y-79171655D01*
X129319818Y-79298995D01*
X129083823Y-79534578D01*
X128955946Y-79842540D01*
X128955655Y-80175997D01*
X117424055Y-80175997D01*
X117424345Y-79844003D01*
X117297005Y-79535818D01*
X117061422Y-79299823D01*
X116753460Y-79171946D01*
X116420003Y-79171655D01*
X116111818Y-79298995D01*
X115875823Y-79534578D01*
X115747946Y-79842540D01*
X115747655Y-80175997D01*
X110002133Y-80175997D01*
X109976353Y-80150173D01*
X109654882Y-80016686D01*
X109912929Y-79909800D01*
X109974583Y-79674188D01*
X109220000Y-78919605D01*
X108465417Y-79674188D01*
X108527071Y-79909800D01*
X108806312Y-80008083D01*
X108465620Y-80148854D01*
X108090173Y-80523647D01*
X107886732Y-81013587D01*
X107886269Y-81544086D01*
X107390000Y-81544086D01*
X107390000Y-78547480D01*
X107874073Y-78547480D01*
X107902852Y-79077199D01*
X108050200Y-79432929D01*
X108285812Y-79494583D01*
X109040395Y-78740000D01*
X109399605Y-78740000D01*
X110154188Y-79494583D01*
X110389800Y-79432929D01*
X110565927Y-78932520D01*
X110564487Y-78905997D01*
X120764155Y-78905997D01*
X120891495Y-79214182D01*
X121127078Y-79450177D01*
X121435040Y-79578054D01*
X121768497Y-79578345D01*
X122076682Y-79451005D01*
X122312677Y-79215422D01*
X122440554Y-78907460D01*
X122440845Y-78574003D01*
X122429886Y-78547480D01*
X135814073Y-78547480D01*
X135842852Y-79077199D01*
X135990200Y-79432929D01*
X136225812Y-79494583D01*
X136980395Y-78740000D01*
X137339605Y-78740000D01*
X138094188Y-79494583D01*
X138329800Y-79432929D01*
X138505927Y-78932520D01*
X138477148Y-78402801D01*
X138329800Y-78047071D01*
X138094188Y-77985417D01*
X137339605Y-78740000D01*
X136980395Y-78740000D01*
X136225812Y-77985417D01*
X135990200Y-78047071D01*
X135814073Y-78547480D01*
X122429886Y-78547480D01*
X122313505Y-78265818D01*
X122077922Y-78029823D01*
X121769960Y-77901946D01*
X121436503Y-77901655D01*
X121128318Y-78028995D01*
X120892323Y-78264578D01*
X120764446Y-78572540D01*
X120764155Y-78905997D01*
X110564487Y-78905997D01*
X110537148Y-78402801D01*
X110389800Y-78047071D01*
X110154188Y-77985417D01*
X109399605Y-78740000D01*
X109040395Y-78740000D01*
X108285812Y-77985417D01*
X108050200Y-78047071D01*
X107874073Y-78547480D01*
X107390000Y-78547480D01*
X107390000Y-77134188D01*
X108465417Y-77134188D01*
X108527071Y-77369800D01*
X108788629Y-77461859D01*
X108527071Y-77570200D01*
X108465417Y-77805812D01*
X109220000Y-78560395D01*
X109974583Y-77805812D01*
X109912929Y-77570200D01*
X109651371Y-77478141D01*
X109912929Y-77369800D01*
X109974583Y-77134188D01*
X136405417Y-77134188D01*
X136467071Y-77369800D01*
X136728629Y-77461859D01*
X136467071Y-77570200D01*
X136405417Y-77805812D01*
X137160000Y-78560395D01*
X137914583Y-77805812D01*
X137852929Y-77570200D01*
X137591371Y-77478141D01*
X137852929Y-77369800D01*
X137914583Y-77134188D01*
X137160000Y-76379605D01*
X136405417Y-77134188D01*
X109974583Y-77134188D01*
X109220000Y-76379605D01*
X108465417Y-77134188D01*
X107390000Y-77134188D01*
X107390000Y-76007480D01*
X107874073Y-76007480D01*
X107902852Y-76537199D01*
X108050200Y-76892929D01*
X108285812Y-76954583D01*
X109040395Y-76200000D01*
X109399605Y-76200000D01*
X110154188Y-76954583D01*
X110389800Y-76892929D01*
X110565927Y-76392520D01*
X110545009Y-76007480D01*
X135814073Y-76007480D01*
X135842852Y-76537199D01*
X135990200Y-76892929D01*
X136225812Y-76954583D01*
X136980395Y-76200000D01*
X137339605Y-76200000D01*
X138094188Y-76954583D01*
X138329800Y-76892929D01*
X138505927Y-76392520D01*
X138477148Y-75862801D01*
X138329800Y-75507071D01*
X138094188Y-75445417D01*
X137339605Y-76200000D01*
X136980395Y-76200000D01*
X136225812Y-75445417D01*
X135990200Y-75507071D01*
X135814073Y-76007480D01*
X110545009Y-76007480D01*
X110537148Y-75862801D01*
X110389800Y-75507071D01*
X110154188Y-75445417D01*
X109399605Y-76200000D01*
X109040395Y-76200000D01*
X108285812Y-75445417D01*
X108050200Y-75507071D01*
X107874073Y-76007480D01*
X107390000Y-76007480D01*
X107390000Y-73924086D01*
X107886269Y-73924086D01*
X108088854Y-74414380D01*
X108463647Y-74789827D01*
X108785118Y-74923314D01*
X108527071Y-75030200D01*
X108465417Y-75265812D01*
X109220000Y-76020395D01*
X109974583Y-75265812D01*
X109912929Y-75030200D01*
X109633688Y-74931917D01*
X109974380Y-74791146D01*
X110349827Y-74416353D01*
X110553268Y-73926413D01*
X110553270Y-73924086D01*
X135826269Y-73924086D01*
X136028854Y-74414380D01*
X136403647Y-74789827D01*
X136725118Y-74923314D01*
X136467071Y-75030200D01*
X136405417Y-75265812D01*
X137160000Y-76020395D01*
X137914583Y-75265812D01*
X137852929Y-75030200D01*
X137573688Y-74931917D01*
X137914380Y-74791146D01*
X138289827Y-74416353D01*
X138493268Y-73926413D01*
X138493731Y-73395914D01*
X138291146Y-72905620D01*
X137916353Y-72530173D01*
X137594882Y-72396686D01*
X137852929Y-72289800D01*
X137914583Y-72054188D01*
X137160000Y-71299605D01*
X136405417Y-72054188D01*
X136467071Y-72289800D01*
X136746312Y-72388083D01*
X136405620Y-72528854D01*
X136030173Y-72903647D01*
X135826732Y-73393587D01*
X135826269Y-73924086D01*
X110553270Y-73924086D01*
X110553731Y-73395914D01*
X110351146Y-72905620D01*
X109976353Y-72530173D01*
X109654882Y-72396686D01*
X109912929Y-72289800D01*
X109974583Y-72054188D01*
X109220000Y-71299605D01*
X108465417Y-72054188D01*
X108527071Y-72289800D01*
X108806312Y-72388083D01*
X108465620Y-72528854D01*
X108090173Y-72903647D01*
X107886732Y-73393587D01*
X107886269Y-73924086D01*
X107390000Y-73924086D01*
X107390000Y-70927480D01*
X107874073Y-70927480D01*
X107902852Y-71457199D01*
X108050200Y-71812929D01*
X108285812Y-71874583D01*
X109040395Y-71120000D01*
X109399605Y-71120000D01*
X110154188Y-71874583D01*
X110389800Y-71812929D01*
X110565927Y-71312520D01*
X110564487Y-71285997D01*
X115747655Y-71285997D01*
X115874995Y-71594182D01*
X116110578Y-71830177D01*
X116418540Y-71958054D01*
X116751997Y-71958345D01*
X117060182Y-71831005D01*
X117296177Y-71595422D01*
X117424054Y-71287460D01*
X117424055Y-71285997D01*
X128955655Y-71285997D01*
X129082995Y-71594182D01*
X129318578Y-71830177D01*
X129626540Y-71958054D01*
X129959997Y-71958345D01*
X130268182Y-71831005D01*
X130504177Y-71595422D01*
X130632054Y-71287460D01*
X130632345Y-70954003D01*
X130621386Y-70927480D01*
X135814073Y-70927480D01*
X135842852Y-71457199D01*
X135990200Y-71812929D01*
X136225812Y-71874583D01*
X136980395Y-71120000D01*
X137339605Y-71120000D01*
X138094188Y-71874583D01*
X138329800Y-71812929D01*
X138505927Y-71312520D01*
X138477148Y-70782801D01*
X138329800Y-70427071D01*
X138094188Y-70365417D01*
X137339605Y-71120000D01*
X136980395Y-71120000D01*
X136225812Y-70365417D01*
X135990200Y-70427071D01*
X135814073Y-70927480D01*
X130621386Y-70927480D01*
X130505005Y-70645818D01*
X130269422Y-70409823D01*
X129961460Y-70281946D01*
X129628003Y-70281655D01*
X129319818Y-70408995D01*
X129083823Y-70644578D01*
X128955946Y-70952540D01*
X128955655Y-71285997D01*
X117424055Y-71285997D01*
X117424345Y-70954003D01*
X117297005Y-70645818D01*
X117061422Y-70409823D01*
X116753460Y-70281946D01*
X116420003Y-70281655D01*
X116111818Y-70408995D01*
X115875823Y-70644578D01*
X115747946Y-70952540D01*
X115747655Y-71285997D01*
X110564487Y-71285997D01*
X110537148Y-70782801D01*
X110389800Y-70427071D01*
X110154188Y-70365417D01*
X109399605Y-71120000D01*
X109040395Y-71120000D01*
X108285812Y-70365417D01*
X108050200Y-70427071D01*
X107874073Y-70927480D01*
X107390000Y-70927480D01*
X107390000Y-68844086D01*
X107886269Y-68844086D01*
X108088854Y-69334380D01*
X108463647Y-69709827D01*
X108785118Y-69843314D01*
X108527071Y-69950200D01*
X108465417Y-70185812D01*
X109220000Y-70940395D01*
X109974583Y-70185812D01*
X109912929Y-69950200D01*
X109633688Y-69851917D01*
X109974380Y-69711146D01*
X110305105Y-69380997D01*
X121081655Y-69380997D01*
X121208995Y-69689182D01*
X121444578Y-69925177D01*
X121752540Y-70053054D01*
X122085997Y-70053345D01*
X122394182Y-69926005D01*
X122630177Y-69690422D01*
X122758054Y-69382460D01*
X122758345Y-69049003D01*
X122673675Y-68844086D01*
X135826269Y-68844086D01*
X136028854Y-69334380D01*
X136403647Y-69709827D01*
X136725118Y-69843314D01*
X136467071Y-69950200D01*
X136405417Y-70185812D01*
X137160000Y-70940395D01*
X137914583Y-70185812D01*
X137852929Y-69950200D01*
X137573688Y-69851917D01*
X137914380Y-69711146D01*
X138289827Y-69336353D01*
X138493268Y-68846413D01*
X138493731Y-68315914D01*
X138291146Y-67825620D01*
X137916353Y-67450173D01*
X137594882Y-67316686D01*
X137852929Y-67209800D01*
X137914583Y-66974188D01*
X137160000Y-66219605D01*
X136405417Y-66974188D01*
X136467071Y-67209800D01*
X136746312Y-67308083D01*
X136405620Y-67448854D01*
X136030173Y-67823647D01*
X135826732Y-68313587D01*
X135826269Y-68844086D01*
X122673675Y-68844086D01*
X122631005Y-68740818D01*
X122395422Y-68504823D01*
X122087460Y-68376946D01*
X121754003Y-68376655D01*
X121445818Y-68503995D01*
X121209823Y-68739578D01*
X121081946Y-69047540D01*
X121081655Y-69380997D01*
X110305105Y-69380997D01*
X110349827Y-69336353D01*
X110553268Y-68846413D01*
X110553731Y-68315914D01*
X110351146Y-67825620D01*
X110002133Y-67475997D01*
X115747655Y-67475997D01*
X115874995Y-67784182D01*
X116110578Y-68020177D01*
X116418540Y-68148054D01*
X116751997Y-68148345D01*
X117060182Y-68021005D01*
X117296177Y-67785422D01*
X117424054Y-67477460D01*
X117424055Y-67475997D01*
X128955655Y-67475997D01*
X129082995Y-67784182D01*
X129318578Y-68020177D01*
X129626540Y-68148054D01*
X129959997Y-68148345D01*
X130268182Y-68021005D01*
X130504177Y-67785422D01*
X130632054Y-67477460D01*
X130632345Y-67144003D01*
X130505005Y-66835818D01*
X130269422Y-66599823D01*
X129961460Y-66471946D01*
X129628003Y-66471655D01*
X129319818Y-66598995D01*
X129083823Y-66834578D01*
X128955946Y-67142540D01*
X128955655Y-67475997D01*
X117424055Y-67475997D01*
X117424345Y-67144003D01*
X117297005Y-66835818D01*
X117061422Y-66599823D01*
X116753460Y-66471946D01*
X116420003Y-66471655D01*
X116111818Y-66598995D01*
X115875823Y-66834578D01*
X115747946Y-67142540D01*
X115747655Y-67475997D01*
X110002133Y-67475997D01*
X109976353Y-67450173D01*
X109654882Y-67316686D01*
X109912929Y-67209800D01*
X109974583Y-66974188D01*
X109220000Y-66219605D01*
X108465417Y-66974188D01*
X108527071Y-67209800D01*
X108806312Y-67308083D01*
X108465620Y-67448854D01*
X108090173Y-67823647D01*
X107886732Y-68313587D01*
X107886269Y-68844086D01*
X107390000Y-68844086D01*
X107390000Y-65847480D01*
X107874073Y-65847480D01*
X107902852Y-66377199D01*
X108050200Y-66732929D01*
X108285812Y-66794583D01*
X109040395Y-66040000D01*
X109399605Y-66040000D01*
X110154188Y-66794583D01*
X110389800Y-66732929D01*
X110565927Y-66232520D01*
X110564487Y-66205997D01*
X120764155Y-66205997D01*
X120891495Y-66514182D01*
X121127078Y-66750177D01*
X121435040Y-66878054D01*
X121768497Y-66878345D01*
X122076682Y-66751005D01*
X122312677Y-66515422D01*
X122440554Y-66207460D01*
X122440845Y-65874003D01*
X122429886Y-65847480D01*
X135814073Y-65847480D01*
X135842852Y-66377199D01*
X135990200Y-66732929D01*
X136225812Y-66794583D01*
X136980395Y-66040000D01*
X137339605Y-66040000D01*
X138094188Y-66794583D01*
X138329800Y-66732929D01*
X138505927Y-66232520D01*
X138477148Y-65702801D01*
X138329800Y-65347071D01*
X138094188Y-65285417D01*
X137339605Y-66040000D01*
X136980395Y-66040000D01*
X136225812Y-65285417D01*
X135990200Y-65347071D01*
X135814073Y-65847480D01*
X122429886Y-65847480D01*
X122313505Y-65565818D01*
X122077922Y-65329823D01*
X121769960Y-65201946D01*
X121436503Y-65201655D01*
X121128318Y-65328995D01*
X120892323Y-65564578D01*
X120764446Y-65872540D01*
X120764155Y-66205997D01*
X110564487Y-66205997D01*
X110537148Y-65702801D01*
X110389800Y-65347071D01*
X110154188Y-65285417D01*
X109399605Y-66040000D01*
X109040395Y-66040000D01*
X108285812Y-65285417D01*
X108050200Y-65347071D01*
X107874073Y-65847480D01*
X107390000Y-65847480D01*
X107390000Y-63764086D01*
X107886269Y-63764086D01*
X108088854Y-64254380D01*
X108463647Y-64629827D01*
X108785118Y-64763314D01*
X108527071Y-64870200D01*
X108465417Y-65105812D01*
X109220000Y-65860395D01*
X109974583Y-65105812D01*
X109912929Y-64870200D01*
X109633688Y-64771917D01*
X109974380Y-64631146D01*
X110349827Y-64256353D01*
X110553268Y-63766413D01*
X110553270Y-63764086D01*
X135826269Y-63764086D01*
X136028854Y-64254380D01*
X136403647Y-64629827D01*
X136725118Y-64763314D01*
X136467071Y-64870200D01*
X136405417Y-65105812D01*
X137160000Y-65860395D01*
X137914583Y-65105812D01*
X137852929Y-64870200D01*
X137573688Y-64771917D01*
X137914380Y-64631146D01*
X138289827Y-64256353D01*
X138493268Y-63766413D01*
X138493731Y-63235914D01*
X138291146Y-62745620D01*
X137916353Y-62370173D01*
X137594882Y-62236686D01*
X137852929Y-62129800D01*
X137914583Y-61894188D01*
X137160000Y-61139605D01*
X136405417Y-61894188D01*
X136467071Y-62129800D01*
X136746312Y-62228083D01*
X136405620Y-62368854D01*
X136030173Y-62743647D01*
X135826732Y-63233587D01*
X135826269Y-63764086D01*
X110553270Y-63764086D01*
X110553731Y-63235914D01*
X110351146Y-62745620D01*
X109976353Y-62370173D01*
X109654882Y-62236686D01*
X109912929Y-62129800D01*
X109974583Y-61894188D01*
X109220000Y-61139605D01*
X108465417Y-61894188D01*
X108527071Y-62129800D01*
X108806312Y-62228083D01*
X108465620Y-62368854D01*
X108090173Y-62743647D01*
X107886732Y-63233587D01*
X107886269Y-63764086D01*
X107390000Y-63764086D01*
X107390000Y-60767480D01*
X107874073Y-60767480D01*
X107902852Y-61297199D01*
X108050200Y-61652929D01*
X108285812Y-61714583D01*
X109040395Y-60960000D01*
X109399605Y-60960000D01*
X110154188Y-61714583D01*
X110389800Y-61652929D01*
X110565927Y-61152520D01*
X110564487Y-61125997D01*
X116001655Y-61125997D01*
X116128995Y-61434182D01*
X116364578Y-61670177D01*
X116672540Y-61798054D01*
X117005997Y-61798345D01*
X117314182Y-61671005D01*
X117550177Y-61435422D01*
X117573191Y-61379997D01*
X128955655Y-61379997D01*
X129082995Y-61688182D01*
X129318578Y-61924177D01*
X129626540Y-62052054D01*
X129959997Y-62052345D01*
X130268182Y-61925005D01*
X130504177Y-61689422D01*
X130632054Y-61381460D01*
X130632345Y-61048003D01*
X130516435Y-60767480D01*
X135814073Y-60767480D01*
X135842852Y-61297199D01*
X135990200Y-61652929D01*
X136225812Y-61714583D01*
X136980395Y-60960000D01*
X137339605Y-60960000D01*
X138094188Y-61714583D01*
X138329800Y-61652929D01*
X138505927Y-61152520D01*
X138477148Y-60622801D01*
X138329800Y-60267071D01*
X138094188Y-60205417D01*
X137339605Y-60960000D01*
X136980395Y-60960000D01*
X136225812Y-60205417D01*
X135990200Y-60267071D01*
X135814073Y-60767480D01*
X130516435Y-60767480D01*
X130505005Y-60739818D01*
X130269422Y-60503823D01*
X129961460Y-60375946D01*
X129628003Y-60375655D01*
X129319818Y-60502995D01*
X129083823Y-60738578D01*
X128955946Y-61046540D01*
X128955655Y-61379997D01*
X117573191Y-61379997D01*
X117678054Y-61127460D01*
X117678345Y-60794003D01*
X117551005Y-60485818D01*
X117315422Y-60249823D01*
X117007460Y-60121946D01*
X116674003Y-60121655D01*
X116365818Y-60248995D01*
X116129823Y-60484578D01*
X116001946Y-60792540D01*
X116001655Y-61125997D01*
X110564487Y-61125997D01*
X110537148Y-60622801D01*
X110389800Y-60267071D01*
X110154188Y-60205417D01*
X109399605Y-60960000D01*
X109040395Y-60960000D01*
X108285812Y-60205417D01*
X108050200Y-60267071D01*
X107874073Y-60767480D01*
X107390000Y-60767480D01*
X107390000Y-58684086D01*
X107886269Y-58684086D01*
X108088854Y-59174380D01*
X108463647Y-59549827D01*
X108785118Y-59683314D01*
X108527071Y-59790200D01*
X108465417Y-60025812D01*
X109220000Y-60780395D01*
X109974583Y-60025812D01*
X109912929Y-59790200D01*
X109633688Y-59691917D01*
X109974380Y-59551146D01*
X110305105Y-59220997D01*
X121081655Y-59220997D01*
X121208995Y-59529182D01*
X121444578Y-59765177D01*
X121752540Y-59893054D01*
X122085997Y-59893345D01*
X122394182Y-59766005D01*
X122630177Y-59530422D01*
X122758054Y-59222460D01*
X122758345Y-58889003D01*
X122673675Y-58684086D01*
X135826269Y-58684086D01*
X136028854Y-59174380D01*
X136403647Y-59549827D01*
X136725118Y-59683314D01*
X136467071Y-59790200D01*
X136405417Y-60025812D01*
X137160000Y-60780395D01*
X137914583Y-60025812D01*
X137852929Y-59790200D01*
X137573688Y-59691917D01*
X137914380Y-59551146D01*
X138289827Y-59176353D01*
X138493268Y-58686413D01*
X138493731Y-58155914D01*
X138291146Y-57665620D01*
X137916353Y-57290173D01*
X137594882Y-57156686D01*
X137852929Y-57049800D01*
X137914583Y-56814188D01*
X137160000Y-56059605D01*
X136405417Y-56814188D01*
X136467071Y-57049800D01*
X136746312Y-57148083D01*
X136405620Y-57288854D01*
X136030173Y-57663647D01*
X135826732Y-58153587D01*
X135826269Y-58684086D01*
X122673675Y-58684086D01*
X122631005Y-58580818D01*
X122395422Y-58344823D01*
X122087460Y-58216946D01*
X121754003Y-58216655D01*
X121445818Y-58343995D01*
X121209823Y-58579578D01*
X121081946Y-58887540D01*
X121081655Y-59220997D01*
X110305105Y-59220997D01*
X110349827Y-59176353D01*
X110553268Y-58686413D01*
X110553731Y-58155914D01*
X110351146Y-57665620D01*
X110002133Y-57315997D01*
X116001655Y-57315997D01*
X116128995Y-57624182D01*
X116364578Y-57860177D01*
X116672540Y-57988054D01*
X117005997Y-57988345D01*
X117314182Y-57861005D01*
X117550177Y-57625422D01*
X117678054Y-57317460D01*
X117678055Y-57315997D01*
X128955655Y-57315997D01*
X129082995Y-57624182D01*
X129318578Y-57860177D01*
X129626540Y-57988054D01*
X129959997Y-57988345D01*
X130268182Y-57861005D01*
X130504177Y-57625422D01*
X130632054Y-57317460D01*
X130632345Y-56984003D01*
X130505005Y-56675818D01*
X130269422Y-56439823D01*
X129961460Y-56311946D01*
X129628003Y-56311655D01*
X129319818Y-56438995D01*
X129083823Y-56674578D01*
X128955946Y-56982540D01*
X128955655Y-57315997D01*
X117678055Y-57315997D01*
X117678345Y-56984003D01*
X117551005Y-56675818D01*
X117315422Y-56439823D01*
X117007460Y-56311946D01*
X116674003Y-56311655D01*
X116365818Y-56438995D01*
X116129823Y-56674578D01*
X116001946Y-56982540D01*
X116001655Y-57315997D01*
X110002133Y-57315997D01*
X109976353Y-57290173D01*
X109654882Y-57156686D01*
X109912929Y-57049800D01*
X109974583Y-56814188D01*
X109220000Y-56059605D01*
X108465417Y-56814188D01*
X108527071Y-57049800D01*
X108806312Y-57148083D01*
X108465620Y-57288854D01*
X108090173Y-57663647D01*
X107886732Y-58153587D01*
X107886269Y-58684086D01*
X107390000Y-58684086D01*
X107390000Y-55687480D01*
X107874073Y-55687480D01*
X107902852Y-56217199D01*
X108050200Y-56572929D01*
X108285812Y-56634583D01*
X109040395Y-55880000D01*
X109399605Y-55880000D01*
X110154188Y-56634583D01*
X110389800Y-56572929D01*
X110565927Y-56072520D01*
X110564487Y-56045997D01*
X120764155Y-56045997D01*
X120891495Y-56354182D01*
X121127078Y-56590177D01*
X121435040Y-56718054D01*
X121768497Y-56718345D01*
X122076682Y-56591005D01*
X122312677Y-56355422D01*
X122440554Y-56047460D01*
X122440845Y-55714003D01*
X122429886Y-55687480D01*
X135814073Y-55687480D01*
X135842852Y-56217199D01*
X135990200Y-56572929D01*
X136225812Y-56634583D01*
X136980395Y-55880000D01*
X137339605Y-55880000D01*
X138094188Y-56634583D01*
X138329800Y-56572929D01*
X138505927Y-56072520D01*
X138477148Y-55542801D01*
X138329800Y-55187071D01*
X138094188Y-55125417D01*
X137339605Y-55880000D01*
X136980395Y-55880000D01*
X136225812Y-55125417D01*
X135990200Y-55187071D01*
X135814073Y-55687480D01*
X122429886Y-55687480D01*
X122313505Y-55405818D01*
X122077922Y-55169823D01*
X121769960Y-55041946D01*
X121436503Y-55041655D01*
X121128318Y-55168995D01*
X120892323Y-55404578D01*
X120764446Y-55712540D01*
X120764155Y-56045997D01*
X110564487Y-56045997D01*
X110537148Y-55542801D01*
X110389800Y-55187071D01*
X110154188Y-55125417D01*
X109399605Y-55880000D01*
X109040395Y-55880000D01*
X108285812Y-55125417D01*
X108050200Y-55187071D01*
X107874073Y-55687480D01*
X107390000Y-55687480D01*
X107390000Y-54945812D01*
X108465417Y-54945812D01*
X109220000Y-55700395D01*
X109974583Y-54945812D01*
X136405417Y-54945812D01*
X137160000Y-55700395D01*
X137914583Y-54945812D01*
X137852929Y-54710200D01*
X137352520Y-54534073D01*
X136822801Y-54562852D01*
X136467071Y-54710200D01*
X136405417Y-54945812D01*
X109974583Y-54945812D01*
X109912929Y-54710200D01*
X109412520Y-54534073D01*
X108882801Y-54562852D01*
X108527071Y-54710200D01*
X108465417Y-54945812D01*
X107390000Y-54945812D01*
X107390000Y-54050000D01*
X138990000Y-54050000D01*
X138990000Y-118670000D01*
X138990000Y-118670000D01*
G37*
X138990000Y-118670000D02*
X107390000Y-118670000D01*
X107390000Y-117774188D01*
X108465417Y-117774188D01*
X108527071Y-118009800D01*
X109027480Y-118185927D01*
X109557199Y-118157148D01*
X109912929Y-118009800D01*
X109974583Y-117774188D01*
X109220000Y-117019605D01*
X108465417Y-117774188D01*
X107390000Y-117774188D01*
X107390000Y-116647480D01*
X107874073Y-116647480D01*
X107902852Y-117177199D01*
X108050200Y-117532929D01*
X108285812Y-117594583D01*
X109040395Y-116840000D01*
X109399605Y-116840000D01*
X110154188Y-117594583D01*
X110389800Y-117532929D01*
X110565927Y-117032520D01*
X110537148Y-116502801D01*
X110389800Y-116147071D01*
X110154188Y-116085417D01*
X109399605Y-116840000D01*
X109040395Y-116840000D01*
X108285812Y-116085417D01*
X108050200Y-116147071D01*
X107874073Y-116647480D01*
X107390000Y-116647480D01*
X107390000Y-104404086D01*
X107886269Y-104404086D01*
X108088854Y-104894380D01*
X108463647Y-105269827D01*
X108801446Y-105410094D01*
X108465620Y-105548854D01*
X108090173Y-105923647D01*
X107886732Y-106413587D01*
X107886269Y-106944086D01*
X108088854Y-107434380D01*
X108463647Y-107809827D01*
X108801446Y-107950094D01*
X108465620Y-108088854D01*
X108090173Y-108463647D01*
X107886732Y-108953587D01*
X107886269Y-109484086D01*
X108088854Y-109974380D01*
X108463647Y-110349827D01*
X108801446Y-110490094D01*
X108465620Y-110628854D01*
X108090173Y-111003647D01*
X107886732Y-111493587D01*
X107886269Y-112024086D01*
X108088854Y-112514380D01*
X108463647Y-112889827D01*
X108801446Y-113030094D01*
X108465620Y-113168854D01*
X108090173Y-113543647D01*
X107886732Y-114033587D01*
X107886269Y-114564086D01*
X108088854Y-115054380D01*
X108463647Y-115429827D01*
X108785118Y-115563314D01*
X108527071Y-115670200D01*
X108465417Y-115905812D01*
X109220000Y-116660395D01*
X109974583Y-115905812D01*
X109912929Y-115670200D01*
X109633688Y-115571917D01*
X109974380Y-115431146D01*
X110349827Y-115056353D01*
X110553268Y-114566413D01*
X110553731Y-114035914D01*
X110351146Y-113545620D01*
X109976353Y-113170173D01*
X109638554Y-113029906D01*
X109974380Y-112891146D01*
X110349827Y-112516353D01*
X110553268Y-112026413D01*
X110553568Y-111682057D01*
X115696846Y-111682057D01*
X115831903Y-112008920D01*
X115963764Y-112141011D01*
X115832782Y-112271764D01*
X115697154Y-112598391D01*
X115696846Y-112952057D01*
X115831903Y-113278920D01*
X116081764Y-113529218D01*
X116102561Y-113537854D01*
X116083080Y-113545903D01*
X115832782Y-113795764D01*
X115697154Y-114122391D01*
X115696846Y-114476057D01*
X115831903Y-114802920D01*
X116081764Y-115053218D01*
X116102561Y-115061854D01*
X116083080Y-115069903D01*
X115832782Y-115319764D01*
X115697154Y-115646391D01*
X115696846Y-116000057D01*
X115831903Y-116326920D01*
X115963764Y-116459011D01*
X115832782Y-116589764D01*
X115697154Y-116916391D01*
X115696846Y-117270057D01*
X115831903Y-117596920D01*
X116081764Y-117847218D01*
X116408391Y-117982846D01*
X116762057Y-117983154D01*
X117088920Y-117848097D01*
X117339218Y-117598236D01*
X117347854Y-117577439D01*
X117355903Y-117596920D01*
X117605764Y-117847218D01*
X117932391Y-117982846D01*
X118286057Y-117983154D01*
X118612920Y-117848097D01*
X118863218Y-117598236D01*
X118998846Y-117271609D01*
X118998847Y-117270060D01*
X119133903Y-117596920D01*
X119383764Y-117847218D01*
X119710391Y-117982846D01*
X120064057Y-117983154D01*
X120390920Y-117848097D01*
X120641218Y-117598236D01*
X120776846Y-117271609D01*
X120776847Y-117270060D01*
X120911903Y-117596920D01*
X121161764Y-117847218D01*
X121488391Y-117982846D01*
X121842057Y-117983154D01*
X122168920Y-117848097D01*
X122419218Y-117598236D01*
X122554846Y-117271609D01*
X122554847Y-117270060D01*
X122689903Y-117596920D01*
X122939764Y-117847218D01*
X123266391Y-117982846D01*
X123620057Y-117983154D01*
X123946920Y-117848097D01*
X124020958Y-117774188D01*
X136405417Y-117774188D01*
X136467071Y-118009800D01*
X136967480Y-118185927D01*
X137497199Y-118157148D01*
X137852929Y-118009800D01*
X137914583Y-117774188D01*
X137160000Y-117019605D01*
X136405417Y-117774188D01*
X124020958Y-117774188D01*
X124197218Y-117598236D01*
X124332846Y-117271609D01*
X124333154Y-116917943D01*
X124221401Y-116647480D01*
X135814073Y-116647480D01*
X135842852Y-117177199D01*
X135990200Y-117532929D01*
X136225812Y-117594583D01*
X136980395Y-116840000D01*
X137339605Y-116840000D01*
X138094188Y-117594583D01*
X138329800Y-117532929D01*
X138505927Y-117032520D01*
X138477148Y-116502801D01*
X138329800Y-116147071D01*
X138094188Y-116085417D01*
X137339605Y-116840000D01*
X136980395Y-116840000D01*
X136225812Y-116085417D01*
X135990200Y-116147071D01*
X135814073Y-116647480D01*
X124221401Y-116647480D01*
X124198097Y-116591080D01*
X124066236Y-116458989D01*
X124197218Y-116328236D01*
X124332846Y-116001609D01*
X124333154Y-115647943D01*
X124198097Y-115321080D01*
X123948236Y-115070782D01*
X123927439Y-115062146D01*
X123946920Y-115054097D01*
X124197218Y-114804236D01*
X124332846Y-114477609D01*
X124333154Y-114123943D01*
X124198097Y-113797080D01*
X123948236Y-113546782D01*
X123927439Y-113538146D01*
X123946920Y-113530097D01*
X124197218Y-113280236D01*
X124332846Y-112953609D01*
X124333154Y-112599943D01*
X124198097Y-112273080D01*
X124066236Y-112140989D01*
X124197218Y-112010236D01*
X124332846Y-111683609D01*
X124333154Y-111329943D01*
X124198097Y-111003080D01*
X123948236Y-110752782D01*
X123715153Y-110655997D01*
X130225655Y-110655997D01*
X130352995Y-110964182D01*
X130588578Y-111200177D01*
X130896540Y-111328054D01*
X131229997Y-111328345D01*
X131538182Y-111201005D01*
X131774177Y-110965422D01*
X131902054Y-110657460D01*
X131902345Y-110324003D01*
X131775005Y-110015818D01*
X131539422Y-109779823D01*
X131231460Y-109651946D01*
X130898003Y-109651655D01*
X130589818Y-109778995D01*
X130353823Y-110014578D01*
X130225946Y-110322540D01*
X130225655Y-110655997D01*
X123715153Y-110655997D01*
X123621609Y-110617154D01*
X123267943Y-110616846D01*
X122941080Y-110751903D01*
X122690782Y-111001764D01*
X122555154Y-111328391D01*
X122555153Y-111329940D01*
X122420097Y-111003080D01*
X122170236Y-110752782D01*
X121843609Y-110617154D01*
X121489943Y-110616846D01*
X121163080Y-110751903D01*
X120912782Y-111001764D01*
X120777154Y-111328391D01*
X120777153Y-111329940D01*
X120642097Y-111003080D01*
X120392236Y-110752782D01*
X120065609Y-110617154D01*
X119711943Y-110616846D01*
X119385080Y-110751903D01*
X119134782Y-111001764D01*
X118999154Y-111328391D01*
X118999153Y-111329940D01*
X118864097Y-111003080D01*
X118614236Y-110752782D01*
X118287609Y-110617154D01*
X117933943Y-110616846D01*
X117607080Y-110751903D01*
X117356782Y-111001764D01*
X117348146Y-111022561D01*
X117340097Y-111003080D01*
X117090236Y-110752782D01*
X116763609Y-110617154D01*
X116409943Y-110616846D01*
X116083080Y-110751903D01*
X115832782Y-111001764D01*
X115697154Y-111328391D01*
X115696846Y-111682057D01*
X110553568Y-111682057D01*
X110553731Y-111495914D01*
X110351146Y-111005620D01*
X109976353Y-110630173D01*
X109638554Y-110489906D01*
X109974380Y-110351146D01*
X110349827Y-109976353D01*
X110553268Y-109486413D01*
X110553731Y-108955914D01*
X110367238Y-108504565D01*
X110522578Y-108660177D01*
X110830540Y-108788054D01*
X111163997Y-108788345D01*
X111472182Y-108661005D01*
X111708177Y-108425422D01*
X111836054Y-108117460D01*
X111836345Y-107784003D01*
X111709005Y-107475818D01*
X111587397Y-107353997D01*
X123621655Y-107353997D01*
X123748995Y-107662182D01*
X123984578Y-107898177D01*
X124292540Y-108026054D01*
X124625997Y-108026345D01*
X124934182Y-107899005D01*
X125170177Y-107663422D01*
X125298054Y-107355460D01*
X125298345Y-107022003D01*
X125171005Y-106713818D01*
X124959749Y-106502193D01*
X125133997Y-106502345D01*
X125442182Y-106375005D01*
X125678177Y-106139422D01*
X125701191Y-106083997D01*
X135051655Y-106083997D01*
X135178995Y-106392182D01*
X135414578Y-106628177D01*
X135722540Y-106756054D01*
X135826433Y-106756145D01*
X135826269Y-106944086D01*
X136028854Y-107434380D01*
X136403647Y-107809827D01*
X136741446Y-107950094D01*
X136405620Y-108088854D01*
X136030173Y-108463647D01*
X135826732Y-108953587D01*
X135826269Y-109484086D01*
X136028854Y-109974380D01*
X136403647Y-110349827D01*
X136741446Y-110490094D01*
X136405620Y-110628854D01*
X136030173Y-111003647D01*
X135826732Y-111493587D01*
X135826269Y-112024086D01*
X136028854Y-112514380D01*
X136403647Y-112889827D01*
X136741446Y-113030094D01*
X136405620Y-113168854D01*
X136030173Y-113543647D01*
X135826732Y-114033587D01*
X135826269Y-114564086D01*
X136028854Y-115054380D01*
X136403647Y-115429827D01*
X136725118Y-115563314D01*
X136467071Y-115670200D01*
X136405417Y-115905812D01*
X137160000Y-116660395D01*
X137914583Y-115905812D01*
X137852929Y-115670200D01*
X137573688Y-115571917D01*
X137914380Y-115431146D01*
X138289827Y-115056353D01*
X138493268Y-114566413D01*
X138493731Y-114035914D01*
X138291146Y-113545620D01*
X137916353Y-113170173D01*
X137578554Y-113029906D01*
X137914380Y-112891146D01*
X138289827Y-112516353D01*
X138493268Y-112026413D01*
X138493731Y-111495914D01*
X138291146Y-111005620D01*
X137916353Y-110630173D01*
X137578554Y-110489906D01*
X137914380Y-110351146D01*
X138289827Y-109976353D01*
X138493268Y-109486413D01*
X138493731Y-108955914D01*
X138291146Y-108465620D01*
X137916353Y-108090173D01*
X137578554Y-107949906D01*
X137914380Y-107811146D01*
X138289827Y-107436353D01*
X138493268Y-106946413D01*
X138493731Y-106415914D01*
X138291146Y-105925620D01*
X137916353Y-105550173D01*
X137578554Y-105409906D01*
X137914380Y-105271146D01*
X138289827Y-104896353D01*
X138493268Y-104406413D01*
X138493731Y-103875914D01*
X138291146Y-103385620D01*
X137916353Y-103010173D01*
X137594882Y-102876686D01*
X137852929Y-102769800D01*
X137914583Y-102534188D01*
X137160000Y-101779605D01*
X136405417Y-102534188D01*
X136467071Y-102769800D01*
X136746312Y-102868083D01*
X136405620Y-103008854D01*
X136030173Y-103383647D01*
X135826732Y-103873587D01*
X135826269Y-104404086D01*
X136028854Y-104894380D01*
X136324992Y-105191035D01*
X136057460Y-105079946D01*
X135724003Y-105079655D01*
X135415818Y-105206995D01*
X135179823Y-105442578D01*
X135051946Y-105750540D01*
X135051655Y-106083997D01*
X125701191Y-106083997D01*
X125806054Y-105831460D01*
X125806345Y-105498003D01*
X125798274Y-105478469D01*
X125816540Y-105486054D01*
X126149997Y-105486345D01*
X126458182Y-105359005D01*
X126495254Y-105321997D01*
X133273655Y-105321997D01*
X133400995Y-105630182D01*
X133636578Y-105866177D01*
X133944540Y-105994054D01*
X134277997Y-105994345D01*
X134586182Y-105867005D01*
X134822177Y-105631422D01*
X134950054Y-105323460D01*
X134950345Y-104990003D01*
X134823005Y-104681818D01*
X134587422Y-104445823D01*
X134279460Y-104317946D01*
X133946003Y-104317655D01*
X133637818Y-104444995D01*
X133401823Y-104680578D01*
X133273946Y-104988540D01*
X133273655Y-105321997D01*
X126495254Y-105321997D01*
X126694177Y-105123422D01*
X126822054Y-104815460D01*
X126822345Y-104482003D01*
X126733446Y-104266852D01*
X126822054Y-104053460D01*
X126822345Y-103720003D01*
X126749621Y-103543997D01*
X130987655Y-103543997D01*
X131114995Y-103852182D01*
X131350578Y-104088177D01*
X131658540Y-104216054D01*
X131991997Y-104216345D01*
X132300182Y-104089005D01*
X132536177Y-103853422D01*
X132664054Y-103545460D01*
X132664143Y-103443257D01*
X132764997Y-103443345D01*
X133073182Y-103316005D01*
X133309177Y-103080422D01*
X133437054Y-102772460D01*
X133437345Y-102439003D01*
X133310005Y-102130818D01*
X133074422Y-101894823D01*
X132766460Y-101766946D01*
X132433003Y-101766655D01*
X132124818Y-101893995D01*
X131888823Y-102129578D01*
X131760946Y-102437540D01*
X131760857Y-102539743D01*
X131660003Y-102539655D01*
X131351818Y-102666995D01*
X131115823Y-102902578D01*
X130987946Y-103210540D01*
X130987655Y-103543997D01*
X126749621Y-103543997D01*
X126695005Y-103411818D01*
X126459422Y-103175823D01*
X126151460Y-103047946D01*
X125818003Y-103047655D01*
X125509818Y-103174995D01*
X125273823Y-103410578D01*
X125145946Y-103718540D01*
X125145655Y-104051997D01*
X125234554Y-104267148D01*
X125145946Y-104480540D01*
X125145655Y-104813997D01*
X125153726Y-104833531D01*
X125135460Y-104825946D01*
X124802003Y-104825655D01*
X124493818Y-104952995D01*
X124257823Y-105188578D01*
X124129946Y-105496540D01*
X124129655Y-105829997D01*
X124256995Y-106138182D01*
X124468251Y-106349807D01*
X124294003Y-106349655D01*
X123985818Y-106476995D01*
X123749823Y-106712578D01*
X123621946Y-107020540D01*
X123621655Y-107353997D01*
X111587397Y-107353997D01*
X111473422Y-107239823D01*
X111165460Y-107111946D01*
X110832003Y-107111655D01*
X110523818Y-107238995D01*
X110366615Y-107395924D01*
X110553268Y-106946413D01*
X110553577Y-106591997D01*
X114731655Y-106591997D01*
X114858995Y-106900182D01*
X115094578Y-107136177D01*
X115402540Y-107264054D01*
X115735997Y-107264345D01*
X116044182Y-107137005D01*
X116280177Y-106901422D01*
X116408054Y-106593460D01*
X116408345Y-106260003D01*
X116281005Y-105951818D01*
X116045422Y-105715823D01*
X115737460Y-105587946D01*
X115404003Y-105587655D01*
X115095818Y-105714995D01*
X114859823Y-105950578D01*
X114731946Y-106258540D01*
X114731655Y-106591997D01*
X110553577Y-106591997D01*
X110553731Y-106415914D01*
X110351146Y-105925620D01*
X109976353Y-105550173D01*
X109638554Y-105409906D01*
X109974380Y-105271146D01*
X110177883Y-105067997D01*
X120065655Y-105067997D01*
X120192995Y-105376182D01*
X120428578Y-105612177D01*
X120736540Y-105740054D01*
X121069997Y-105740345D01*
X121378182Y-105613005D01*
X121614177Y-105377422D01*
X121742054Y-105069460D01*
X121742345Y-104736003D01*
X121615005Y-104427818D01*
X121493397Y-104305997D01*
X121589655Y-104305997D01*
X121716995Y-104614182D01*
X121952578Y-104850177D01*
X122260540Y-104978054D01*
X122593997Y-104978345D01*
X122902182Y-104851005D01*
X123138177Y-104615422D01*
X123266054Y-104307460D01*
X123266345Y-103974003D01*
X123139005Y-103665818D01*
X122903422Y-103429823D01*
X122595460Y-103301946D01*
X122262003Y-103301655D01*
X121953818Y-103428995D01*
X121717823Y-103664578D01*
X121589946Y-103972540D01*
X121589655Y-104305997D01*
X121493397Y-104305997D01*
X121379422Y-104191823D01*
X121071460Y-104063946D01*
X120738003Y-104063655D01*
X120429818Y-104190995D01*
X120193823Y-104426578D01*
X120065946Y-104734540D01*
X120065655Y-105067997D01*
X110177883Y-105067997D01*
X110349827Y-104896353D01*
X110553268Y-104406413D01*
X110553731Y-103875914D01*
X110351146Y-103385620D01*
X109976353Y-103010173D01*
X109654882Y-102876686D01*
X109912929Y-102769800D01*
X109974583Y-102534188D01*
X109220000Y-101779605D01*
X108465417Y-102534188D01*
X108527071Y-102769800D01*
X108806312Y-102868083D01*
X108465620Y-103008854D01*
X108090173Y-103383647D01*
X107886732Y-103873587D01*
X107886269Y-104404086D01*
X107390000Y-104404086D01*
X107390000Y-101407480D01*
X107874073Y-101407480D01*
X107902852Y-101937199D01*
X108050200Y-102292929D01*
X108285812Y-102354583D01*
X109040395Y-101600000D01*
X109399605Y-101600000D01*
X110154188Y-102354583D01*
X110389800Y-102292929D01*
X110396463Y-102273997D01*
X114731655Y-102273997D01*
X114858995Y-102582182D01*
X115094578Y-102818177D01*
X115402540Y-102946054D01*
X115735997Y-102946345D01*
X115755531Y-102938274D01*
X115747946Y-102956540D01*
X115747655Y-103289997D01*
X115874995Y-103598182D01*
X116110578Y-103834177D01*
X116418540Y-103962054D01*
X116751997Y-103962345D01*
X117060182Y-103835005D01*
X117296177Y-103599422D01*
X117424054Y-103291460D01*
X117424345Y-102958003D01*
X117297005Y-102649818D01*
X117061422Y-102413823D01*
X116753460Y-102285946D01*
X116420003Y-102285655D01*
X116400469Y-102293726D01*
X116408054Y-102275460D01*
X116408276Y-102019997D01*
X129463655Y-102019997D01*
X129590995Y-102328182D01*
X129826578Y-102564177D01*
X130134540Y-102692054D01*
X130467997Y-102692345D01*
X130776182Y-102565005D01*
X131012177Y-102329422D01*
X131072475Y-102184208D01*
X131229997Y-102184345D01*
X131538182Y-102057005D01*
X131774177Y-101821422D01*
X131902054Y-101513460D01*
X131902146Y-101407480D01*
X135814073Y-101407480D01*
X135842852Y-101937199D01*
X135990200Y-102292929D01*
X136225812Y-102354583D01*
X136980395Y-101600000D01*
X137339605Y-101600000D01*
X138094188Y-102354583D01*
X138329800Y-102292929D01*
X138505927Y-101792520D01*
X138477148Y-101262801D01*
X138329800Y-100907071D01*
X138094188Y-100845417D01*
X137339605Y-101600000D01*
X136980395Y-101600000D01*
X136225812Y-100845417D01*
X135990200Y-100907071D01*
X135814073Y-101407480D01*
X131902146Y-101407480D01*
X131902345Y-101180003D01*
X131775005Y-100871818D01*
X131539422Y-100635823D01*
X131231460Y-100507946D01*
X130898003Y-100507655D01*
X130589818Y-100634995D01*
X130353823Y-100870578D01*
X130293525Y-101015792D01*
X130136003Y-101015655D01*
X129827818Y-101142995D01*
X129591823Y-101378578D01*
X129463946Y-101686540D01*
X129463655Y-102019997D01*
X116408276Y-102019997D01*
X116408345Y-101942003D01*
X116281005Y-101633818D01*
X116045422Y-101397823D01*
X115737460Y-101269946D01*
X115404003Y-101269655D01*
X115095818Y-101396995D01*
X114859823Y-101632578D01*
X114731946Y-101940540D01*
X114731655Y-102273997D01*
X110396463Y-102273997D01*
X110565927Y-101792520D01*
X110537148Y-101262801D01*
X110389800Y-100907071D01*
X110154188Y-100845417D01*
X109399605Y-101600000D01*
X109040395Y-101600000D01*
X108285812Y-100845417D01*
X108050200Y-100907071D01*
X107874073Y-101407480D01*
X107390000Y-101407480D01*
X107390000Y-99994188D01*
X108465417Y-99994188D01*
X108527071Y-100229800D01*
X108788629Y-100321859D01*
X108527071Y-100430200D01*
X108465417Y-100665812D01*
X109220000Y-101420395D01*
X109974583Y-100665812D01*
X109912929Y-100430200D01*
X109651371Y-100338141D01*
X109912929Y-100229800D01*
X109974583Y-99994188D01*
X136405417Y-99994188D01*
X136467071Y-100229800D01*
X136728629Y-100321859D01*
X136467071Y-100430200D01*
X136405417Y-100665812D01*
X137160000Y-101420395D01*
X137914583Y-100665812D01*
X137852929Y-100430200D01*
X137591371Y-100338141D01*
X137852929Y-100229800D01*
X137914583Y-99994188D01*
X137160000Y-99239605D01*
X136405417Y-99994188D01*
X109974583Y-99994188D01*
X109220000Y-99239605D01*
X108465417Y-99994188D01*
X107390000Y-99994188D01*
X107390000Y-98867480D01*
X107874073Y-98867480D01*
X107902852Y-99397199D01*
X108050200Y-99752929D01*
X108285812Y-99814583D01*
X109040395Y-99060000D01*
X109399605Y-99060000D01*
X110154188Y-99814583D01*
X110389800Y-99752929D01*
X110565927Y-99252520D01*
X110537148Y-98722801D01*
X110389800Y-98367071D01*
X110154188Y-98305417D01*
X109399605Y-99060000D01*
X109040395Y-99060000D01*
X108285812Y-98305417D01*
X108050200Y-98367071D01*
X107874073Y-98867480D01*
X107390000Y-98867480D01*
X107390000Y-96784086D01*
X107886269Y-96784086D01*
X108088854Y-97274380D01*
X108463647Y-97649827D01*
X108785118Y-97783314D01*
X108527071Y-97890200D01*
X108465417Y-98125812D01*
X109220000Y-98880395D01*
X109974583Y-98125812D01*
X109912929Y-97890200D01*
X109633688Y-97791917D01*
X109974380Y-97651146D01*
X110349827Y-97276353D01*
X110489494Y-96939997D01*
X113715655Y-96939997D01*
X113842995Y-97248182D01*
X114078578Y-97484177D01*
X114386540Y-97612054D01*
X114719997Y-97612345D01*
X115028182Y-97485005D01*
X115065254Y-97447997D01*
X124129655Y-97447997D01*
X124218554Y-97663148D01*
X124129946Y-97876540D01*
X124129655Y-98209997D01*
X124256995Y-98518182D01*
X124492578Y-98754177D01*
X124800540Y-98882054D01*
X125133997Y-98882345D01*
X125169972Y-98867480D01*
X135814073Y-98867480D01*
X135842852Y-99397199D01*
X135990200Y-99752929D01*
X136225812Y-99814583D01*
X136980395Y-99060000D01*
X137339605Y-99060000D01*
X138094188Y-99814583D01*
X138329800Y-99752929D01*
X138505927Y-99252520D01*
X138477148Y-98722801D01*
X138329800Y-98367071D01*
X138094188Y-98305417D01*
X137339605Y-99060000D01*
X136980395Y-99060000D01*
X136225812Y-98305417D01*
X135990200Y-98367071D01*
X135814073Y-98867480D01*
X125169972Y-98867480D01*
X125442182Y-98755005D01*
X125678177Y-98519422D01*
X125806054Y-98211460D01*
X125806345Y-97878003D01*
X125717446Y-97662852D01*
X125806054Y-97449460D01*
X125806345Y-97116003D01*
X125688617Y-96831082D01*
X125802355Y-96784086D01*
X135826269Y-96784086D01*
X136028854Y-97274380D01*
X136403647Y-97649827D01*
X136725118Y-97783314D01*
X136467071Y-97890200D01*
X136405417Y-98125812D01*
X137160000Y-98880395D01*
X137914583Y-98125812D01*
X137852929Y-97890200D01*
X137573688Y-97791917D01*
X137914380Y-97651146D01*
X138289827Y-97276353D01*
X138493268Y-96786413D01*
X138493731Y-96255914D01*
X138291146Y-95765620D01*
X137916353Y-95390173D01*
X137512349Y-95222416D01*
X137814697Y-95097179D01*
X137868528Y-94868133D01*
X137160000Y-94159605D01*
X136451472Y-94868133D01*
X136505303Y-95097179D01*
X136834938Y-95211464D01*
X136405620Y-95388854D01*
X136030173Y-95763647D01*
X135826732Y-96253587D01*
X135826269Y-96784086D01*
X125802355Y-96784086D01*
X125950182Y-96723005D01*
X126186177Y-96487422D01*
X126266388Y-96294253D01*
X126458182Y-96215005D01*
X126694177Y-95979422D01*
X126822054Y-95671460D01*
X126822345Y-95338003D01*
X126695005Y-95029818D01*
X126459422Y-94793823D01*
X126151460Y-94665946D01*
X125818003Y-94665655D01*
X125509818Y-94792995D01*
X125273823Y-95028578D01*
X125193612Y-95221747D01*
X125001818Y-95300995D01*
X124765823Y-95536578D01*
X124637946Y-95844540D01*
X124637655Y-96177997D01*
X124755383Y-96462918D01*
X124493818Y-96570995D01*
X124257823Y-96806578D01*
X124129946Y-97114540D01*
X124129655Y-97447997D01*
X115065254Y-97447997D01*
X115264177Y-97249422D01*
X115392054Y-96941460D01*
X115392345Y-96608003D01*
X115265005Y-96299818D01*
X115029422Y-96063823D01*
X114721460Y-95935946D01*
X114388003Y-95935655D01*
X114079818Y-96062995D01*
X113843823Y-96298578D01*
X113715946Y-96606540D01*
X113715655Y-96939997D01*
X110489494Y-96939997D01*
X110553268Y-96786413D01*
X110553731Y-96255914D01*
X110351146Y-95765620D01*
X109976353Y-95390173D01*
X109572349Y-95222416D01*
X109874697Y-95097179D01*
X109928528Y-94868133D01*
X109220000Y-94159605D01*
X108511472Y-94868133D01*
X108565303Y-95097179D01*
X108894938Y-95211464D01*
X108465620Y-95388854D01*
X108090173Y-95763647D01*
X107886732Y-96253587D01*
X107886269Y-96784086D01*
X107390000Y-96784086D01*
X107390000Y-93802664D01*
X107937319Y-93802664D01*
X107967094Y-94307023D01*
X108102821Y-94634697D01*
X108331867Y-94688528D01*
X109040395Y-93980000D01*
X109399605Y-93980000D01*
X110108133Y-94688528D01*
X110337179Y-94634697D01*
X110502681Y-94157336D01*
X110502012Y-94145997D01*
X128955655Y-94145997D01*
X129082995Y-94454182D01*
X129318578Y-94690177D01*
X129626540Y-94818054D01*
X129959997Y-94818345D01*
X130268182Y-94691005D01*
X130504177Y-94455422D01*
X130632054Y-94147460D01*
X130632345Y-93814003D01*
X130627660Y-93802664D01*
X135877319Y-93802664D01*
X135907094Y-94307023D01*
X136042821Y-94634697D01*
X136271867Y-94688528D01*
X136980395Y-93980000D01*
X137339605Y-93980000D01*
X138048133Y-94688528D01*
X138277179Y-94634697D01*
X138442681Y-94157336D01*
X138412906Y-93652977D01*
X138277179Y-93325303D01*
X138048133Y-93271472D01*
X137339605Y-93980000D01*
X136980395Y-93980000D01*
X136271867Y-93271472D01*
X136042821Y-93325303D01*
X135877319Y-93802664D01*
X130627660Y-93802664D01*
X130505005Y-93505818D01*
X130269422Y-93269823D01*
X129961460Y-93141946D01*
X129628003Y-93141655D01*
X129319818Y-93268995D01*
X129083823Y-93504578D01*
X128955946Y-93812540D01*
X128955655Y-94145997D01*
X110502012Y-94145997D01*
X110472906Y-93652977D01*
X110337179Y-93325303D01*
X110108133Y-93271472D01*
X109399605Y-93980000D01*
X109040395Y-93980000D01*
X108331867Y-93271472D01*
X108102821Y-93325303D01*
X107937319Y-93802664D01*
X107390000Y-93802664D01*
X107390000Y-91704086D01*
X107886269Y-91704086D01*
X108088854Y-92194380D01*
X108463647Y-92569827D01*
X108867651Y-92737584D01*
X108565303Y-92862821D01*
X108511472Y-93091867D01*
X109220000Y-93800395D01*
X109928528Y-93091867D01*
X109874697Y-92862821D01*
X109545062Y-92748536D01*
X109974380Y-92571146D01*
X110305105Y-92240997D01*
X121081655Y-92240997D01*
X121208995Y-92549182D01*
X121444578Y-92785177D01*
X121752540Y-92913054D01*
X122085997Y-92913345D01*
X122394182Y-92786005D01*
X122630177Y-92550422D01*
X122758054Y-92242460D01*
X122758345Y-91909003D01*
X122673675Y-91704086D01*
X135826269Y-91704086D01*
X136028854Y-92194380D01*
X136403647Y-92569827D01*
X136807651Y-92737584D01*
X136505303Y-92862821D01*
X136451472Y-93091867D01*
X137160000Y-93800395D01*
X137868528Y-93091867D01*
X137814697Y-92862821D01*
X137485062Y-92748536D01*
X137914380Y-92571146D01*
X138289827Y-92196353D01*
X138493268Y-91706413D01*
X138493731Y-91175914D01*
X138291146Y-90685620D01*
X137916353Y-90310173D01*
X137594882Y-90176686D01*
X137852929Y-90069800D01*
X137914583Y-89834188D01*
X137160000Y-89079605D01*
X136405417Y-89834188D01*
X136467071Y-90069800D01*
X136746312Y-90168083D01*
X136405620Y-90308854D01*
X136030173Y-90683647D01*
X135826732Y-91173587D01*
X135826269Y-91704086D01*
X122673675Y-91704086D01*
X122631005Y-91600818D01*
X122395422Y-91364823D01*
X122087460Y-91236946D01*
X121754003Y-91236655D01*
X121445818Y-91363995D01*
X121209823Y-91599578D01*
X121081946Y-91907540D01*
X121081655Y-92240997D01*
X110305105Y-92240997D01*
X110349827Y-92196353D01*
X110553268Y-91706413D01*
X110553731Y-91175914D01*
X110351146Y-90685620D01*
X110002133Y-90335997D01*
X115747655Y-90335997D01*
X115874995Y-90644182D01*
X116110578Y-90880177D01*
X116418540Y-91008054D01*
X116751997Y-91008345D01*
X117060182Y-90881005D01*
X117296177Y-90645422D01*
X117424054Y-90337460D01*
X117424276Y-90081997D01*
X128955655Y-90081997D01*
X129082995Y-90390182D01*
X129318578Y-90626177D01*
X129626540Y-90754054D01*
X129959997Y-90754345D01*
X130268182Y-90627005D01*
X130504177Y-90391422D01*
X130632054Y-90083460D01*
X130632345Y-89750003D01*
X130505005Y-89441818D01*
X130269422Y-89205823D01*
X129961460Y-89077946D01*
X129628003Y-89077655D01*
X129319818Y-89204995D01*
X129083823Y-89440578D01*
X128955946Y-89748540D01*
X128955655Y-90081997D01*
X117424276Y-90081997D01*
X117424345Y-90004003D01*
X117297005Y-89695818D01*
X117061422Y-89459823D01*
X116753460Y-89331946D01*
X116420003Y-89331655D01*
X116111818Y-89458995D01*
X115875823Y-89694578D01*
X115747946Y-90002540D01*
X115747655Y-90335997D01*
X110002133Y-90335997D01*
X109976353Y-90310173D01*
X109654882Y-90176686D01*
X109912929Y-90069800D01*
X109974583Y-89834188D01*
X109220000Y-89079605D01*
X108465417Y-89834188D01*
X108527071Y-90069800D01*
X108806312Y-90168083D01*
X108465620Y-90308854D01*
X108090173Y-90683647D01*
X107886732Y-91173587D01*
X107886269Y-91704086D01*
X107390000Y-91704086D01*
X107390000Y-88707480D01*
X107874073Y-88707480D01*
X107902852Y-89237199D01*
X108050200Y-89592929D01*
X108285812Y-89654583D01*
X109040395Y-88900000D01*
X109399605Y-88900000D01*
X110154188Y-89654583D01*
X110389800Y-89592929D01*
X110565927Y-89092520D01*
X110564487Y-89065997D01*
X120764155Y-89065997D01*
X120891495Y-89374182D01*
X121127078Y-89610177D01*
X121435040Y-89738054D01*
X121768497Y-89738345D01*
X122076682Y-89611005D01*
X122312677Y-89375422D01*
X122440554Y-89067460D01*
X122440845Y-88734003D01*
X122429886Y-88707480D01*
X135814073Y-88707480D01*
X135842852Y-89237199D01*
X135990200Y-89592929D01*
X136225812Y-89654583D01*
X136980395Y-88900000D01*
X137339605Y-88900000D01*
X138094188Y-89654583D01*
X138329800Y-89592929D01*
X138505927Y-89092520D01*
X138477148Y-88562801D01*
X138329800Y-88207071D01*
X138094188Y-88145417D01*
X137339605Y-88900000D01*
X136980395Y-88900000D01*
X136225812Y-88145417D01*
X135990200Y-88207071D01*
X135814073Y-88707480D01*
X122429886Y-88707480D01*
X122313505Y-88425818D01*
X122077922Y-88189823D01*
X121769960Y-88061946D01*
X121436503Y-88061655D01*
X121128318Y-88188995D01*
X120892323Y-88424578D01*
X120764446Y-88732540D01*
X120764155Y-89065997D01*
X110564487Y-89065997D01*
X110537148Y-88562801D01*
X110389800Y-88207071D01*
X110154188Y-88145417D01*
X109399605Y-88900000D01*
X109040395Y-88900000D01*
X108285812Y-88145417D01*
X108050200Y-88207071D01*
X107874073Y-88707480D01*
X107390000Y-88707480D01*
X107390000Y-86624086D01*
X107886269Y-86624086D01*
X108088854Y-87114380D01*
X108463647Y-87489827D01*
X108785118Y-87623314D01*
X108527071Y-87730200D01*
X108465417Y-87965812D01*
X109220000Y-88720395D01*
X109974583Y-87965812D01*
X109912929Y-87730200D01*
X109633688Y-87631917D01*
X109974380Y-87491146D01*
X110349827Y-87116353D01*
X110553268Y-86626413D01*
X110553270Y-86624086D01*
X135826269Y-86624086D01*
X136028854Y-87114380D01*
X136403647Y-87489827D01*
X136725118Y-87623314D01*
X136467071Y-87730200D01*
X136405417Y-87965812D01*
X137160000Y-88720395D01*
X137914583Y-87965812D01*
X137852929Y-87730200D01*
X137573688Y-87631917D01*
X137914380Y-87491146D01*
X138289827Y-87116353D01*
X138493268Y-86626413D01*
X138493731Y-86095914D01*
X138291146Y-85605620D01*
X137916353Y-85230173D01*
X137594882Y-85096686D01*
X137852929Y-84989800D01*
X137914583Y-84754188D01*
X137160000Y-83999605D01*
X136405417Y-84754188D01*
X136467071Y-84989800D01*
X136746312Y-85088083D01*
X136405620Y-85228854D01*
X136030173Y-85603647D01*
X135826732Y-86093587D01*
X135826269Y-86624086D01*
X110553270Y-86624086D01*
X110553731Y-86095914D01*
X110351146Y-85605620D01*
X109976353Y-85230173D01*
X109654882Y-85096686D01*
X109912929Y-84989800D01*
X109974583Y-84754188D01*
X109220000Y-83999605D01*
X108465417Y-84754188D01*
X108527071Y-84989800D01*
X108806312Y-85088083D01*
X108465620Y-85228854D01*
X108090173Y-85603647D01*
X107886732Y-86093587D01*
X107886269Y-86624086D01*
X107390000Y-86624086D01*
X107390000Y-83627480D01*
X107874073Y-83627480D01*
X107902852Y-84157199D01*
X108050200Y-84512929D01*
X108285812Y-84574583D01*
X109040395Y-83820000D01*
X109399605Y-83820000D01*
X110154188Y-84574583D01*
X110389800Y-84512929D01*
X110565927Y-84012520D01*
X110564487Y-83985997D01*
X115747655Y-83985997D01*
X115874995Y-84294182D01*
X116110578Y-84530177D01*
X116418540Y-84658054D01*
X116751997Y-84658345D01*
X117060182Y-84531005D01*
X117296177Y-84295422D01*
X117424054Y-83987460D01*
X117424055Y-83985997D01*
X128955655Y-83985997D01*
X129082995Y-84294182D01*
X129318578Y-84530177D01*
X129626540Y-84658054D01*
X129959997Y-84658345D01*
X130268182Y-84531005D01*
X130504177Y-84295422D01*
X130632054Y-83987460D01*
X130632345Y-83654003D01*
X130621386Y-83627480D01*
X135814073Y-83627480D01*
X135842852Y-84157199D01*
X135990200Y-84512929D01*
X136225812Y-84574583D01*
X136980395Y-83820000D01*
X137339605Y-83820000D01*
X138094188Y-84574583D01*
X138329800Y-84512929D01*
X138505927Y-84012520D01*
X138477148Y-83482801D01*
X138329800Y-83127071D01*
X138094188Y-83065417D01*
X137339605Y-83820000D01*
X136980395Y-83820000D01*
X136225812Y-83065417D01*
X135990200Y-83127071D01*
X135814073Y-83627480D01*
X130621386Y-83627480D01*
X130505005Y-83345818D01*
X130269422Y-83109823D01*
X129961460Y-82981946D01*
X129628003Y-82981655D01*
X129319818Y-83108995D01*
X129083823Y-83344578D01*
X128955946Y-83652540D01*
X128955655Y-83985997D01*
X117424055Y-83985997D01*
X117424345Y-83654003D01*
X117297005Y-83345818D01*
X117061422Y-83109823D01*
X116753460Y-82981946D01*
X116420003Y-82981655D01*
X116111818Y-83108995D01*
X115875823Y-83344578D01*
X115747946Y-83652540D01*
X115747655Y-83985997D01*
X110564487Y-83985997D01*
X110537148Y-83482801D01*
X110389800Y-83127071D01*
X110154188Y-83065417D01*
X109399605Y-83820000D01*
X109040395Y-83820000D01*
X108285812Y-83065417D01*
X108050200Y-83127071D01*
X107874073Y-83627480D01*
X107390000Y-83627480D01*
X107390000Y-81544086D01*
X107886269Y-81544086D01*
X108088854Y-82034380D01*
X108463647Y-82409827D01*
X108785118Y-82543314D01*
X108527071Y-82650200D01*
X108465417Y-82885812D01*
X109220000Y-83640395D01*
X109974583Y-82885812D01*
X109912929Y-82650200D01*
X109633688Y-82551917D01*
X109974380Y-82411146D01*
X110305105Y-82080997D01*
X121081655Y-82080997D01*
X121208995Y-82389182D01*
X121444578Y-82625177D01*
X121752540Y-82753054D01*
X122085997Y-82753345D01*
X122394182Y-82626005D01*
X122630177Y-82390422D01*
X122758054Y-82082460D01*
X122758345Y-81749003D01*
X122673675Y-81544086D01*
X135826269Y-81544086D01*
X136028854Y-82034380D01*
X136403647Y-82409827D01*
X136725118Y-82543314D01*
X136467071Y-82650200D01*
X136405417Y-82885812D01*
X137160000Y-83640395D01*
X137914583Y-82885812D01*
X137852929Y-82650200D01*
X137573688Y-82551917D01*
X137914380Y-82411146D01*
X138289827Y-82036353D01*
X138493268Y-81546413D01*
X138493731Y-81015914D01*
X138291146Y-80525620D01*
X137916353Y-80150173D01*
X137594882Y-80016686D01*
X137852929Y-79909800D01*
X137914583Y-79674188D01*
X137160000Y-78919605D01*
X136405417Y-79674188D01*
X136467071Y-79909800D01*
X136746312Y-80008083D01*
X136405620Y-80148854D01*
X136030173Y-80523647D01*
X135826732Y-81013587D01*
X135826269Y-81544086D01*
X122673675Y-81544086D01*
X122631005Y-81440818D01*
X122395422Y-81204823D01*
X122087460Y-81076946D01*
X121754003Y-81076655D01*
X121445818Y-81203995D01*
X121209823Y-81439578D01*
X121081946Y-81747540D01*
X121081655Y-82080997D01*
X110305105Y-82080997D01*
X110349827Y-82036353D01*
X110553268Y-81546413D01*
X110553731Y-81015914D01*
X110351146Y-80525620D01*
X110002133Y-80175997D01*
X115747655Y-80175997D01*
X115874995Y-80484182D01*
X116110578Y-80720177D01*
X116418540Y-80848054D01*
X116751997Y-80848345D01*
X117060182Y-80721005D01*
X117296177Y-80485422D01*
X117424054Y-80177460D01*
X117424055Y-80175997D01*
X128955655Y-80175997D01*
X129082995Y-80484182D01*
X129318578Y-80720177D01*
X129626540Y-80848054D01*
X129959997Y-80848345D01*
X130268182Y-80721005D01*
X130504177Y-80485422D01*
X130632054Y-80177460D01*
X130632345Y-79844003D01*
X130505005Y-79535818D01*
X130269422Y-79299823D01*
X129961460Y-79171946D01*
X129628003Y-79171655D01*
X129319818Y-79298995D01*
X129083823Y-79534578D01*
X128955946Y-79842540D01*
X128955655Y-80175997D01*
X117424055Y-80175997D01*
X117424345Y-79844003D01*
X117297005Y-79535818D01*
X117061422Y-79299823D01*
X116753460Y-79171946D01*
X116420003Y-79171655D01*
X116111818Y-79298995D01*
X115875823Y-79534578D01*
X115747946Y-79842540D01*
X115747655Y-80175997D01*
X110002133Y-80175997D01*
X109976353Y-80150173D01*
X109654882Y-80016686D01*
X109912929Y-79909800D01*
X109974583Y-79674188D01*
X109220000Y-78919605D01*
X108465417Y-79674188D01*
X108527071Y-79909800D01*
X108806312Y-80008083D01*
X108465620Y-80148854D01*
X108090173Y-80523647D01*
X107886732Y-81013587D01*
X107886269Y-81544086D01*
X107390000Y-81544086D01*
X107390000Y-78547480D01*
X107874073Y-78547480D01*
X107902852Y-79077199D01*
X108050200Y-79432929D01*
X108285812Y-79494583D01*
X109040395Y-78740000D01*
X109399605Y-78740000D01*
X110154188Y-79494583D01*
X110389800Y-79432929D01*
X110565927Y-78932520D01*
X110564487Y-78905997D01*
X120764155Y-78905997D01*
X120891495Y-79214182D01*
X121127078Y-79450177D01*
X121435040Y-79578054D01*
X121768497Y-79578345D01*
X122076682Y-79451005D01*
X122312677Y-79215422D01*
X122440554Y-78907460D01*
X122440845Y-78574003D01*
X122429886Y-78547480D01*
X135814073Y-78547480D01*
X135842852Y-79077199D01*
X135990200Y-79432929D01*
X136225812Y-79494583D01*
X136980395Y-78740000D01*
X137339605Y-78740000D01*
X138094188Y-79494583D01*
X138329800Y-79432929D01*
X138505927Y-78932520D01*
X138477148Y-78402801D01*
X138329800Y-78047071D01*
X138094188Y-77985417D01*
X137339605Y-78740000D01*
X136980395Y-78740000D01*
X136225812Y-77985417D01*
X135990200Y-78047071D01*
X135814073Y-78547480D01*
X122429886Y-78547480D01*
X122313505Y-78265818D01*
X122077922Y-78029823D01*
X121769960Y-77901946D01*
X121436503Y-77901655D01*
X121128318Y-78028995D01*
X120892323Y-78264578D01*
X120764446Y-78572540D01*
X120764155Y-78905997D01*
X110564487Y-78905997D01*
X110537148Y-78402801D01*
X110389800Y-78047071D01*
X110154188Y-77985417D01*
X109399605Y-78740000D01*
X109040395Y-78740000D01*
X108285812Y-77985417D01*
X108050200Y-78047071D01*
X107874073Y-78547480D01*
X107390000Y-78547480D01*
X107390000Y-77134188D01*
X108465417Y-77134188D01*
X108527071Y-77369800D01*
X108788629Y-77461859D01*
X108527071Y-77570200D01*
X108465417Y-77805812D01*
X109220000Y-78560395D01*
X109974583Y-77805812D01*
X109912929Y-77570200D01*
X109651371Y-77478141D01*
X109912929Y-77369800D01*
X109974583Y-77134188D01*
X136405417Y-77134188D01*
X136467071Y-77369800D01*
X136728629Y-77461859D01*
X136467071Y-77570200D01*
X136405417Y-77805812D01*
X137160000Y-78560395D01*
X137914583Y-77805812D01*
X137852929Y-77570200D01*
X137591371Y-77478141D01*
X137852929Y-77369800D01*
X137914583Y-77134188D01*
X137160000Y-76379605D01*
X136405417Y-77134188D01*
X109974583Y-77134188D01*
X109220000Y-76379605D01*
X108465417Y-77134188D01*
X107390000Y-77134188D01*
X107390000Y-76007480D01*
X107874073Y-76007480D01*
X107902852Y-76537199D01*
X108050200Y-76892929D01*
X108285812Y-76954583D01*
X109040395Y-76200000D01*
X109399605Y-76200000D01*
X110154188Y-76954583D01*
X110389800Y-76892929D01*
X110565927Y-76392520D01*
X110545009Y-76007480D01*
X135814073Y-76007480D01*
X135842852Y-76537199D01*
X135990200Y-76892929D01*
X136225812Y-76954583D01*
X136980395Y-76200000D01*
X137339605Y-76200000D01*
X138094188Y-76954583D01*
X138329800Y-76892929D01*
X138505927Y-76392520D01*
X138477148Y-75862801D01*
X138329800Y-75507071D01*
X138094188Y-75445417D01*
X137339605Y-76200000D01*
X136980395Y-76200000D01*
X136225812Y-75445417D01*
X135990200Y-75507071D01*
X135814073Y-76007480D01*
X110545009Y-76007480D01*
X110537148Y-75862801D01*
X110389800Y-75507071D01*
X110154188Y-75445417D01*
X109399605Y-76200000D01*
X109040395Y-76200000D01*
X108285812Y-75445417D01*
X108050200Y-75507071D01*
X107874073Y-76007480D01*
X107390000Y-76007480D01*
X107390000Y-73924086D01*
X107886269Y-73924086D01*
X108088854Y-74414380D01*
X108463647Y-74789827D01*
X108785118Y-74923314D01*
X108527071Y-75030200D01*
X108465417Y-75265812D01*
X109220000Y-76020395D01*
X109974583Y-75265812D01*
X109912929Y-75030200D01*
X109633688Y-74931917D01*
X109974380Y-74791146D01*
X110349827Y-74416353D01*
X110553268Y-73926413D01*
X110553270Y-73924086D01*
X135826269Y-73924086D01*
X136028854Y-74414380D01*
X136403647Y-74789827D01*
X136725118Y-74923314D01*
X136467071Y-75030200D01*
X136405417Y-75265812D01*
X137160000Y-76020395D01*
X137914583Y-75265812D01*
X137852929Y-75030200D01*
X137573688Y-74931917D01*
X137914380Y-74791146D01*
X138289827Y-74416353D01*
X138493268Y-73926413D01*
X138493731Y-73395914D01*
X138291146Y-72905620D01*
X137916353Y-72530173D01*
X137594882Y-72396686D01*
X137852929Y-72289800D01*
X137914583Y-72054188D01*
X137160000Y-71299605D01*
X136405417Y-72054188D01*
X136467071Y-72289800D01*
X136746312Y-72388083D01*
X136405620Y-72528854D01*
X136030173Y-72903647D01*
X135826732Y-73393587D01*
X135826269Y-73924086D01*
X110553270Y-73924086D01*
X110553731Y-73395914D01*
X110351146Y-72905620D01*
X109976353Y-72530173D01*
X109654882Y-72396686D01*
X109912929Y-72289800D01*
X109974583Y-72054188D01*
X109220000Y-71299605D01*
X108465417Y-72054188D01*
X108527071Y-72289800D01*
X108806312Y-72388083D01*
X108465620Y-72528854D01*
X108090173Y-72903647D01*
X107886732Y-73393587D01*
X107886269Y-73924086D01*
X107390000Y-73924086D01*
X107390000Y-70927480D01*
X107874073Y-70927480D01*
X107902852Y-71457199D01*
X108050200Y-71812929D01*
X108285812Y-71874583D01*
X109040395Y-71120000D01*
X109399605Y-71120000D01*
X110154188Y-71874583D01*
X110389800Y-71812929D01*
X110565927Y-71312520D01*
X110564487Y-71285997D01*
X115747655Y-71285997D01*
X115874995Y-71594182D01*
X116110578Y-71830177D01*
X116418540Y-71958054D01*
X116751997Y-71958345D01*
X117060182Y-71831005D01*
X117296177Y-71595422D01*
X117424054Y-71287460D01*
X117424055Y-71285997D01*
X128955655Y-71285997D01*
X129082995Y-71594182D01*
X129318578Y-71830177D01*
X129626540Y-71958054D01*
X129959997Y-71958345D01*
X130268182Y-71831005D01*
X130504177Y-71595422D01*
X130632054Y-71287460D01*
X130632345Y-70954003D01*
X130621386Y-70927480D01*
X135814073Y-70927480D01*
X135842852Y-71457199D01*
X135990200Y-71812929D01*
X136225812Y-71874583D01*
X136980395Y-71120000D01*
X137339605Y-71120000D01*
X138094188Y-71874583D01*
X138329800Y-71812929D01*
X138505927Y-71312520D01*
X138477148Y-70782801D01*
X138329800Y-70427071D01*
X138094188Y-70365417D01*
X137339605Y-71120000D01*
X136980395Y-71120000D01*
X136225812Y-70365417D01*
X135990200Y-70427071D01*
X135814073Y-70927480D01*
X130621386Y-70927480D01*
X130505005Y-70645818D01*
X130269422Y-70409823D01*
X129961460Y-70281946D01*
X129628003Y-70281655D01*
X129319818Y-70408995D01*
X129083823Y-70644578D01*
X128955946Y-70952540D01*
X128955655Y-71285997D01*
X117424055Y-71285997D01*
X117424345Y-70954003D01*
X117297005Y-70645818D01*
X117061422Y-70409823D01*
X116753460Y-70281946D01*
X116420003Y-70281655D01*
X116111818Y-70408995D01*
X115875823Y-70644578D01*
X115747946Y-70952540D01*
X115747655Y-71285997D01*
X110564487Y-71285997D01*
X110537148Y-70782801D01*
X110389800Y-70427071D01*
X110154188Y-70365417D01*
X109399605Y-71120000D01*
X109040395Y-71120000D01*
X108285812Y-70365417D01*
X108050200Y-70427071D01*
X107874073Y-70927480D01*
X107390000Y-70927480D01*
X107390000Y-68844086D01*
X107886269Y-68844086D01*
X108088854Y-69334380D01*
X108463647Y-69709827D01*
X108785118Y-69843314D01*
X108527071Y-69950200D01*
X108465417Y-70185812D01*
X109220000Y-70940395D01*
X109974583Y-70185812D01*
X109912929Y-69950200D01*
X109633688Y-69851917D01*
X109974380Y-69711146D01*
X110305105Y-69380997D01*
X121081655Y-69380997D01*
X121208995Y-69689182D01*
X121444578Y-69925177D01*
X121752540Y-70053054D01*
X122085997Y-70053345D01*
X122394182Y-69926005D01*
X122630177Y-69690422D01*
X122758054Y-69382460D01*
X122758345Y-69049003D01*
X122673675Y-68844086D01*
X135826269Y-68844086D01*
X136028854Y-69334380D01*
X136403647Y-69709827D01*
X136725118Y-69843314D01*
X136467071Y-69950200D01*
X136405417Y-70185812D01*
X137160000Y-70940395D01*
X137914583Y-70185812D01*
X137852929Y-69950200D01*
X137573688Y-69851917D01*
X137914380Y-69711146D01*
X138289827Y-69336353D01*
X138493268Y-68846413D01*
X138493731Y-68315914D01*
X138291146Y-67825620D01*
X137916353Y-67450173D01*
X137594882Y-67316686D01*
X137852929Y-67209800D01*
X137914583Y-66974188D01*
X137160000Y-66219605D01*
X136405417Y-66974188D01*
X136467071Y-67209800D01*
X136746312Y-67308083D01*
X136405620Y-67448854D01*
X136030173Y-67823647D01*
X135826732Y-68313587D01*
X135826269Y-68844086D01*
X122673675Y-68844086D01*
X122631005Y-68740818D01*
X122395422Y-68504823D01*
X122087460Y-68376946D01*
X121754003Y-68376655D01*
X121445818Y-68503995D01*
X121209823Y-68739578D01*
X121081946Y-69047540D01*
X121081655Y-69380997D01*
X110305105Y-69380997D01*
X110349827Y-69336353D01*
X110553268Y-68846413D01*
X110553731Y-68315914D01*
X110351146Y-67825620D01*
X110002133Y-67475997D01*
X115747655Y-67475997D01*
X115874995Y-67784182D01*
X116110578Y-68020177D01*
X116418540Y-68148054D01*
X116751997Y-68148345D01*
X117060182Y-68021005D01*
X117296177Y-67785422D01*
X117424054Y-67477460D01*
X117424055Y-67475997D01*
X128955655Y-67475997D01*
X129082995Y-67784182D01*
X129318578Y-68020177D01*
X129626540Y-68148054D01*
X129959997Y-68148345D01*
X130268182Y-68021005D01*
X130504177Y-67785422D01*
X130632054Y-67477460D01*
X130632345Y-67144003D01*
X130505005Y-66835818D01*
X130269422Y-66599823D01*
X129961460Y-66471946D01*
X129628003Y-66471655D01*
X129319818Y-66598995D01*
X129083823Y-66834578D01*
X128955946Y-67142540D01*
X128955655Y-67475997D01*
X117424055Y-67475997D01*
X117424345Y-67144003D01*
X117297005Y-66835818D01*
X117061422Y-66599823D01*
X116753460Y-66471946D01*
X116420003Y-66471655D01*
X116111818Y-66598995D01*
X115875823Y-66834578D01*
X115747946Y-67142540D01*
X115747655Y-67475997D01*
X110002133Y-67475997D01*
X109976353Y-67450173D01*
X109654882Y-67316686D01*
X109912929Y-67209800D01*
X109974583Y-66974188D01*
X109220000Y-66219605D01*
X108465417Y-66974188D01*
X108527071Y-67209800D01*
X108806312Y-67308083D01*
X108465620Y-67448854D01*
X108090173Y-67823647D01*
X107886732Y-68313587D01*
X107886269Y-68844086D01*
X107390000Y-68844086D01*
X107390000Y-65847480D01*
X107874073Y-65847480D01*
X107902852Y-66377199D01*
X108050200Y-66732929D01*
X108285812Y-66794583D01*
X109040395Y-66040000D01*
X109399605Y-66040000D01*
X110154188Y-66794583D01*
X110389800Y-66732929D01*
X110565927Y-66232520D01*
X110564487Y-66205997D01*
X120764155Y-66205997D01*
X120891495Y-66514182D01*
X121127078Y-66750177D01*
X121435040Y-66878054D01*
X121768497Y-66878345D01*
X122076682Y-66751005D01*
X122312677Y-66515422D01*
X122440554Y-66207460D01*
X122440845Y-65874003D01*
X122429886Y-65847480D01*
X135814073Y-65847480D01*
X135842852Y-66377199D01*
X135990200Y-66732929D01*
X136225812Y-66794583D01*
X136980395Y-66040000D01*
X137339605Y-66040000D01*
X138094188Y-66794583D01*
X138329800Y-66732929D01*
X138505927Y-66232520D01*
X138477148Y-65702801D01*
X138329800Y-65347071D01*
X138094188Y-65285417D01*
X137339605Y-66040000D01*
X136980395Y-66040000D01*
X136225812Y-65285417D01*
X135990200Y-65347071D01*
X135814073Y-65847480D01*
X122429886Y-65847480D01*
X122313505Y-65565818D01*
X122077922Y-65329823D01*
X121769960Y-65201946D01*
X121436503Y-65201655D01*
X121128318Y-65328995D01*
X120892323Y-65564578D01*
X120764446Y-65872540D01*
X120764155Y-66205997D01*
X110564487Y-66205997D01*
X110537148Y-65702801D01*
X110389800Y-65347071D01*
X110154188Y-65285417D01*
X109399605Y-66040000D01*
X109040395Y-66040000D01*
X108285812Y-65285417D01*
X108050200Y-65347071D01*
X107874073Y-65847480D01*
X107390000Y-65847480D01*
X107390000Y-63764086D01*
X107886269Y-63764086D01*
X108088854Y-64254380D01*
X108463647Y-64629827D01*
X108785118Y-64763314D01*
X108527071Y-64870200D01*
X108465417Y-65105812D01*
X109220000Y-65860395D01*
X109974583Y-65105812D01*
X109912929Y-64870200D01*
X109633688Y-64771917D01*
X109974380Y-64631146D01*
X110349827Y-64256353D01*
X110553268Y-63766413D01*
X110553270Y-63764086D01*
X135826269Y-63764086D01*
X136028854Y-64254380D01*
X136403647Y-64629827D01*
X136725118Y-64763314D01*
X136467071Y-64870200D01*
X136405417Y-65105812D01*
X137160000Y-65860395D01*
X137914583Y-65105812D01*
X137852929Y-64870200D01*
X137573688Y-64771917D01*
X137914380Y-64631146D01*
X138289827Y-64256353D01*
X138493268Y-63766413D01*
X138493731Y-63235914D01*
X138291146Y-62745620D01*
X137916353Y-62370173D01*
X137594882Y-62236686D01*
X137852929Y-62129800D01*
X137914583Y-61894188D01*
X137160000Y-61139605D01*
X136405417Y-61894188D01*
X136467071Y-62129800D01*
X136746312Y-62228083D01*
X136405620Y-62368854D01*
X136030173Y-62743647D01*
X135826732Y-63233587D01*
X135826269Y-63764086D01*
X110553270Y-63764086D01*
X110553731Y-63235914D01*
X110351146Y-62745620D01*
X109976353Y-62370173D01*
X109654882Y-62236686D01*
X109912929Y-62129800D01*
X109974583Y-61894188D01*
X109220000Y-61139605D01*
X108465417Y-61894188D01*
X108527071Y-62129800D01*
X108806312Y-62228083D01*
X108465620Y-62368854D01*
X108090173Y-62743647D01*
X107886732Y-63233587D01*
X107886269Y-63764086D01*
X107390000Y-63764086D01*
X107390000Y-60767480D01*
X107874073Y-60767480D01*
X107902852Y-61297199D01*
X108050200Y-61652929D01*
X108285812Y-61714583D01*
X109040395Y-60960000D01*
X109399605Y-60960000D01*
X110154188Y-61714583D01*
X110389800Y-61652929D01*
X110565927Y-61152520D01*
X110564487Y-61125997D01*
X116001655Y-61125997D01*
X116128995Y-61434182D01*
X116364578Y-61670177D01*
X116672540Y-61798054D01*
X117005997Y-61798345D01*
X117314182Y-61671005D01*
X117550177Y-61435422D01*
X117573191Y-61379997D01*
X128955655Y-61379997D01*
X129082995Y-61688182D01*
X129318578Y-61924177D01*
X129626540Y-62052054D01*
X129959997Y-62052345D01*
X130268182Y-61925005D01*
X130504177Y-61689422D01*
X130632054Y-61381460D01*
X130632345Y-61048003D01*
X130516435Y-60767480D01*
X135814073Y-60767480D01*
X135842852Y-61297199D01*
X135990200Y-61652929D01*
X136225812Y-61714583D01*
X136980395Y-60960000D01*
X137339605Y-60960000D01*
X138094188Y-61714583D01*
X138329800Y-61652929D01*
X138505927Y-61152520D01*
X138477148Y-60622801D01*
X138329800Y-60267071D01*
X138094188Y-60205417D01*
X137339605Y-60960000D01*
X136980395Y-60960000D01*
X136225812Y-60205417D01*
X135990200Y-60267071D01*
X135814073Y-60767480D01*
X130516435Y-60767480D01*
X130505005Y-60739818D01*
X130269422Y-60503823D01*
X129961460Y-60375946D01*
X129628003Y-60375655D01*
X129319818Y-60502995D01*
X129083823Y-60738578D01*
X128955946Y-61046540D01*
X128955655Y-61379997D01*
X117573191Y-61379997D01*
X117678054Y-61127460D01*
X117678345Y-60794003D01*
X117551005Y-60485818D01*
X117315422Y-60249823D01*
X117007460Y-60121946D01*
X116674003Y-60121655D01*
X116365818Y-60248995D01*
X116129823Y-60484578D01*
X116001946Y-60792540D01*
X116001655Y-61125997D01*
X110564487Y-61125997D01*
X110537148Y-60622801D01*
X110389800Y-60267071D01*
X110154188Y-60205417D01*
X109399605Y-60960000D01*
X109040395Y-60960000D01*
X108285812Y-60205417D01*
X108050200Y-60267071D01*
X107874073Y-60767480D01*
X107390000Y-60767480D01*
X107390000Y-58684086D01*
X107886269Y-58684086D01*
X108088854Y-59174380D01*
X108463647Y-59549827D01*
X108785118Y-59683314D01*
X108527071Y-59790200D01*
X108465417Y-60025812D01*
X109220000Y-60780395D01*
X109974583Y-60025812D01*
X109912929Y-59790200D01*
X109633688Y-59691917D01*
X109974380Y-59551146D01*
X110305105Y-59220997D01*
X121081655Y-59220997D01*
X121208995Y-59529182D01*
X121444578Y-59765177D01*
X121752540Y-59893054D01*
X122085997Y-59893345D01*
X122394182Y-59766005D01*
X122630177Y-59530422D01*
X122758054Y-59222460D01*
X122758345Y-58889003D01*
X122673675Y-58684086D01*
X135826269Y-58684086D01*
X136028854Y-59174380D01*
X136403647Y-59549827D01*
X136725118Y-59683314D01*
X136467071Y-59790200D01*
X136405417Y-60025812D01*
X137160000Y-60780395D01*
X137914583Y-60025812D01*
X137852929Y-59790200D01*
X137573688Y-59691917D01*
X137914380Y-59551146D01*
X138289827Y-59176353D01*
X138493268Y-58686413D01*
X138493731Y-58155914D01*
X138291146Y-57665620D01*
X137916353Y-57290173D01*
X137594882Y-57156686D01*
X137852929Y-57049800D01*
X137914583Y-56814188D01*
X137160000Y-56059605D01*
X136405417Y-56814188D01*
X136467071Y-57049800D01*
X136746312Y-57148083D01*
X136405620Y-57288854D01*
X136030173Y-57663647D01*
X135826732Y-58153587D01*
X135826269Y-58684086D01*
X122673675Y-58684086D01*
X122631005Y-58580818D01*
X122395422Y-58344823D01*
X122087460Y-58216946D01*
X121754003Y-58216655D01*
X121445818Y-58343995D01*
X121209823Y-58579578D01*
X121081946Y-58887540D01*
X121081655Y-59220997D01*
X110305105Y-59220997D01*
X110349827Y-59176353D01*
X110553268Y-58686413D01*
X110553731Y-58155914D01*
X110351146Y-57665620D01*
X110002133Y-57315997D01*
X116001655Y-57315997D01*
X116128995Y-57624182D01*
X116364578Y-57860177D01*
X116672540Y-57988054D01*
X117005997Y-57988345D01*
X117314182Y-57861005D01*
X117550177Y-57625422D01*
X117678054Y-57317460D01*
X117678055Y-57315997D01*
X128955655Y-57315997D01*
X129082995Y-57624182D01*
X129318578Y-57860177D01*
X129626540Y-57988054D01*
X129959997Y-57988345D01*
X130268182Y-57861005D01*
X130504177Y-57625422D01*
X130632054Y-57317460D01*
X130632345Y-56984003D01*
X130505005Y-56675818D01*
X130269422Y-56439823D01*
X129961460Y-56311946D01*
X129628003Y-56311655D01*
X129319818Y-56438995D01*
X129083823Y-56674578D01*
X128955946Y-56982540D01*
X128955655Y-57315997D01*
X117678055Y-57315997D01*
X117678345Y-56984003D01*
X117551005Y-56675818D01*
X117315422Y-56439823D01*
X117007460Y-56311946D01*
X116674003Y-56311655D01*
X116365818Y-56438995D01*
X116129823Y-56674578D01*
X116001946Y-56982540D01*
X116001655Y-57315997D01*
X110002133Y-57315997D01*
X109976353Y-57290173D01*
X109654882Y-57156686D01*
X109912929Y-57049800D01*
X109974583Y-56814188D01*
X109220000Y-56059605D01*
X108465417Y-56814188D01*
X108527071Y-57049800D01*
X108806312Y-57148083D01*
X108465620Y-57288854D01*
X108090173Y-57663647D01*
X107886732Y-58153587D01*
X107886269Y-58684086D01*
X107390000Y-58684086D01*
X107390000Y-55687480D01*
X107874073Y-55687480D01*
X107902852Y-56217199D01*
X108050200Y-56572929D01*
X108285812Y-56634583D01*
X109040395Y-55880000D01*
X109399605Y-55880000D01*
X110154188Y-56634583D01*
X110389800Y-56572929D01*
X110565927Y-56072520D01*
X110564487Y-56045997D01*
X120764155Y-56045997D01*
X120891495Y-56354182D01*
X121127078Y-56590177D01*
X121435040Y-56718054D01*
X121768497Y-56718345D01*
X122076682Y-56591005D01*
X122312677Y-56355422D01*
X122440554Y-56047460D01*
X122440845Y-55714003D01*
X122429886Y-55687480D01*
X135814073Y-55687480D01*
X135842852Y-56217199D01*
X135990200Y-56572929D01*
X136225812Y-56634583D01*
X136980395Y-55880000D01*
X137339605Y-55880000D01*
X138094188Y-56634583D01*
X138329800Y-56572929D01*
X138505927Y-56072520D01*
X138477148Y-55542801D01*
X138329800Y-55187071D01*
X138094188Y-55125417D01*
X137339605Y-55880000D01*
X136980395Y-55880000D01*
X136225812Y-55125417D01*
X135990200Y-55187071D01*
X135814073Y-55687480D01*
X122429886Y-55687480D01*
X122313505Y-55405818D01*
X122077922Y-55169823D01*
X121769960Y-55041946D01*
X121436503Y-55041655D01*
X121128318Y-55168995D01*
X120892323Y-55404578D01*
X120764446Y-55712540D01*
X120764155Y-56045997D01*
X110564487Y-56045997D01*
X110537148Y-55542801D01*
X110389800Y-55187071D01*
X110154188Y-55125417D01*
X109399605Y-55880000D01*
X109040395Y-55880000D01*
X108285812Y-55125417D01*
X108050200Y-55187071D01*
X107874073Y-55687480D01*
X107390000Y-55687480D01*
X107390000Y-54945812D01*
X108465417Y-54945812D01*
X109220000Y-55700395D01*
X109974583Y-54945812D01*
X136405417Y-54945812D01*
X137160000Y-55700395D01*
X137914583Y-54945812D01*
X137852929Y-54710200D01*
X137352520Y-54534073D01*
X136822801Y-54562852D01*
X136467071Y-54710200D01*
X136405417Y-54945812D01*
X109974583Y-54945812D01*
X109912929Y-54710200D01*
X109412520Y-54534073D01*
X108882801Y-54562852D01*
X108527071Y-54710200D01*
X108465417Y-54945812D01*
X107390000Y-54945812D01*
X107390000Y-54050000D01*
X138990000Y-54050000D01*
X138990000Y-118670000D01*
M02*
