%TF.GenerationSoftware,KiCad,Pcbnew,4.0.2-stable*%
%TF.CreationDate,2021-11-10T19:01:32-08:00*%
%TF.ProjectId,ADC,4144432E6B696361645F706362000000,rev?*%
%TF.FileFunction,Other,User*%
%FSLAX46Y46*%
G04 Gerber Fmt 4.6, Leading zero omitted, Abs format (unit mm)*
G04 Created by KiCad (PCBNEW 4.0.2-stable) date 11/10/2021 7:01:32 PM*
%MOMM*%
G01*
G04 APERTURE LIST*
%ADD10C,0.100000*%
%ADD11C,0.150000*%
%ADD12C,0.050000*%
G04 APERTURE END LIST*
D10*
D11*
X106680000Y-119380000D02*
X106680000Y-53340000D01*
X139700000Y-119380000D02*
X106680000Y-119380000D01*
X139700000Y-53340000D02*
X139700000Y-119380000D01*
X106680000Y-53340000D02*
X139700000Y-53340000D01*
D12*
X133284000Y-94630000D02*
X131384000Y-94630000D01*
X133284000Y-93330000D02*
X131384000Y-93330000D01*
X133284000Y-94630000D02*
X133284000Y-93330000D01*
X131384000Y-94630000D02*
X131384000Y-93330000D01*
X118760000Y-84140000D02*
X118760000Y-86040000D01*
X117460000Y-84140000D02*
X117460000Y-86040000D01*
X118760000Y-84140000D02*
X117460000Y-84140000D01*
X118760000Y-86040000D02*
X117460000Y-86040000D01*
X129144000Y-63180000D02*
X129144000Y-61280000D01*
X130444000Y-63180000D02*
X130444000Y-61280000D01*
X129144000Y-63180000D02*
X130444000Y-63180000D01*
X129144000Y-61280000D02*
X130444000Y-61280000D01*
X118760000Y-94300000D02*
X118760000Y-96200000D01*
X117460000Y-94300000D02*
X117460000Y-96200000D01*
X118760000Y-94300000D02*
X117460000Y-94300000D01*
X118760000Y-96200000D02*
X117460000Y-96200000D01*
X113096000Y-93330000D02*
X114996000Y-93330000D01*
X113096000Y-94630000D02*
X114996000Y-94630000D01*
X113096000Y-93330000D02*
X113096000Y-94630000D01*
X114996000Y-93330000D02*
X114996000Y-94630000D01*
X131565000Y-109890000D02*
X133865000Y-109890000D01*
X131565000Y-111090000D02*
X133865000Y-111090000D01*
X131565000Y-109890000D02*
X131565000Y-111090000D01*
X133865000Y-109890000D02*
X133865000Y-111090000D01*
X114815000Y-114900000D02*
X112515000Y-114900000D01*
X114815000Y-113700000D02*
X112515000Y-113700000D01*
X114815000Y-114900000D02*
X114815000Y-113700000D01*
X112515000Y-114900000D02*
X112515000Y-113700000D01*
X122040000Y-55280000D02*
X124340000Y-55280000D01*
X122040000Y-56480000D02*
X124340000Y-56480000D01*
X122040000Y-55280000D02*
X122040000Y-56480000D01*
X124340000Y-55280000D02*
X124340000Y-56480000D01*
X115196000Y-55972000D02*
X112896000Y-55972000D01*
X115196000Y-54772000D02*
X112896000Y-54772000D01*
X115196000Y-55972000D02*
X115196000Y-54772000D01*
X112896000Y-55972000D02*
X112896000Y-54772000D01*
X131184000Y-62138000D02*
X133484000Y-62138000D01*
X131184000Y-63338000D02*
X133484000Y-63338000D01*
X131184000Y-62138000D02*
X131184000Y-63338000D01*
X133484000Y-62138000D02*
X133484000Y-63338000D01*
X131184000Y-55026000D02*
X133484000Y-55026000D01*
X131184000Y-56226000D02*
X133484000Y-56226000D01*
X131184000Y-55026000D02*
X131184000Y-56226000D01*
X133484000Y-55026000D02*
X133484000Y-56226000D01*
X122040000Y-65440000D02*
X124340000Y-65440000D01*
X122040000Y-66640000D02*
X124340000Y-66640000D01*
X122040000Y-65440000D02*
X122040000Y-66640000D01*
X124340000Y-65440000D02*
X124340000Y-66640000D01*
X115196000Y-66132000D02*
X112896000Y-66132000D01*
X115196000Y-64932000D02*
X112896000Y-64932000D01*
X115196000Y-66132000D02*
X115196000Y-64932000D01*
X112896000Y-66132000D02*
X112896000Y-64932000D01*
X115196000Y-73498000D02*
X112896000Y-73498000D01*
X115196000Y-72298000D02*
X112896000Y-72298000D01*
X115196000Y-73498000D02*
X115196000Y-72298000D01*
X112896000Y-73498000D02*
X112896000Y-72298000D01*
X131184000Y-72298000D02*
X133484000Y-72298000D01*
X131184000Y-73498000D02*
X133484000Y-73498000D01*
X131184000Y-72298000D02*
X131184000Y-73498000D01*
X133484000Y-72298000D02*
X133484000Y-73498000D01*
X131184000Y-64932000D02*
X133484000Y-64932000D01*
X131184000Y-66132000D02*
X133484000Y-66132000D01*
X131184000Y-64932000D02*
X131184000Y-66132000D01*
X133484000Y-64932000D02*
X133484000Y-66132000D01*
X122040000Y-78140000D02*
X124340000Y-78140000D01*
X122040000Y-79340000D02*
X124340000Y-79340000D01*
X122040000Y-78140000D02*
X122040000Y-79340000D01*
X124340000Y-78140000D02*
X124340000Y-79340000D01*
X115196000Y-78832000D02*
X112896000Y-78832000D01*
X115196000Y-77632000D02*
X112896000Y-77632000D01*
X115196000Y-78832000D02*
X115196000Y-77632000D01*
X112896000Y-78832000D02*
X112896000Y-77632000D01*
X115196000Y-86198000D02*
X112896000Y-86198000D01*
X115196000Y-84998000D02*
X112896000Y-84998000D01*
X115196000Y-86198000D02*
X115196000Y-84998000D01*
X112896000Y-86198000D02*
X112896000Y-84998000D01*
X131184000Y-84998000D02*
X133484000Y-84998000D01*
X131184000Y-86198000D02*
X133484000Y-86198000D01*
X131184000Y-84998000D02*
X131184000Y-86198000D01*
X133484000Y-84998000D02*
X133484000Y-86198000D01*
X131184000Y-77632000D02*
X133484000Y-77632000D01*
X131184000Y-78832000D02*
X133484000Y-78832000D01*
X131184000Y-77632000D02*
X131184000Y-78832000D01*
X133484000Y-77632000D02*
X133484000Y-78832000D01*
X122040000Y-88300000D02*
X124340000Y-88300000D01*
X122040000Y-89500000D02*
X124340000Y-89500000D01*
X122040000Y-88300000D02*
X122040000Y-89500000D01*
X124340000Y-88300000D02*
X124340000Y-89500000D01*
X115196000Y-88992000D02*
X112896000Y-88992000D01*
X115196000Y-87792000D02*
X112896000Y-87792000D01*
X115196000Y-88992000D02*
X115196000Y-87792000D01*
X112896000Y-88992000D02*
X112896000Y-87792000D01*
X115196000Y-96358000D02*
X112896000Y-96358000D01*
X115196000Y-95158000D02*
X112896000Y-95158000D01*
X115196000Y-96358000D02*
X115196000Y-95158000D01*
X112896000Y-96358000D02*
X112896000Y-95158000D01*
X131184000Y-95158000D02*
X133484000Y-95158000D01*
X131184000Y-96358000D02*
X133484000Y-96358000D01*
X131184000Y-95158000D02*
X131184000Y-96358000D01*
X133484000Y-95158000D02*
X133484000Y-96358000D01*
X130236000Y-101234000D02*
X128336000Y-101234000D01*
X130236000Y-99934000D02*
X128336000Y-99934000D01*
X130236000Y-101234000D02*
X130236000Y-99934000D01*
X128336000Y-101234000D02*
X128336000Y-99934000D01*
X113345000Y-59705000D02*
X111445000Y-59705000D01*
X113345000Y-58405000D02*
X111445000Y-58405000D01*
X113345000Y-59705000D02*
X113345000Y-58405000D01*
X111445000Y-59705000D02*
X111445000Y-58405000D01*
X114996000Y-58054000D02*
X113096000Y-58054000D01*
X114996000Y-56754000D02*
X113096000Y-56754000D01*
X114996000Y-58054000D02*
X114996000Y-56754000D01*
X113096000Y-58054000D02*
X113096000Y-56754000D01*
X117714000Y-56830000D02*
X117714000Y-54930000D01*
X119014000Y-56830000D02*
X119014000Y-54930000D01*
X117714000Y-56830000D02*
X119014000Y-56830000D01*
X117714000Y-54930000D02*
X119014000Y-54930000D01*
X117490000Y-54930000D02*
X117490000Y-56830000D01*
X116190000Y-54930000D02*
X116190000Y-56830000D01*
X117490000Y-54930000D02*
X116190000Y-54930000D01*
X117490000Y-56830000D02*
X116190000Y-56830000D01*
X117155000Y-59705000D02*
X115255000Y-59705000D01*
X117155000Y-58405000D02*
X115255000Y-58405000D01*
X117155000Y-59705000D02*
X117155000Y-58405000D01*
X115255000Y-59705000D02*
X115255000Y-58405000D01*
X113096000Y-60056000D02*
X114996000Y-60056000D01*
X113096000Y-61356000D02*
X114996000Y-61356000D01*
X113096000Y-60056000D02*
X113096000Y-61356000D01*
X114996000Y-60056000D02*
X114996000Y-61356000D01*
X119014000Y-61280000D02*
X119014000Y-63180000D01*
X117714000Y-61280000D02*
X117714000Y-63180000D01*
X119014000Y-61280000D02*
X117714000Y-61280000D01*
X119014000Y-63180000D02*
X117714000Y-63180000D01*
X116190000Y-63180000D02*
X116190000Y-61280000D01*
X117490000Y-63180000D02*
X117490000Y-61280000D01*
X116190000Y-63180000D02*
X117490000Y-63180000D01*
X116190000Y-61280000D02*
X117490000Y-61280000D01*
X129225000Y-58405000D02*
X131125000Y-58405000D01*
X129225000Y-59705000D02*
X131125000Y-59705000D01*
X129225000Y-58405000D02*
X129225000Y-59705000D01*
X131125000Y-58405000D02*
X131125000Y-59705000D01*
X133284000Y-61356000D02*
X131384000Y-61356000D01*
X133284000Y-60056000D02*
X131384000Y-60056000D01*
X133284000Y-61356000D02*
X133284000Y-60056000D01*
X131384000Y-61356000D02*
X131384000Y-60056000D01*
X128920000Y-61280000D02*
X128920000Y-63180000D01*
X127620000Y-61280000D02*
X127620000Y-63180000D01*
X128920000Y-61280000D02*
X127620000Y-61280000D01*
X128920000Y-63180000D02*
X127620000Y-63180000D01*
X133035000Y-58405000D02*
X134935000Y-58405000D01*
X133035000Y-59705000D02*
X134935000Y-59705000D01*
X133035000Y-58405000D02*
X133035000Y-59705000D01*
X134935000Y-58405000D02*
X134935000Y-59705000D01*
X133284000Y-58054000D02*
X131384000Y-58054000D01*
X133284000Y-56754000D02*
X131384000Y-56754000D01*
X133284000Y-58054000D02*
X133284000Y-56754000D01*
X131384000Y-58054000D02*
X131384000Y-56754000D01*
X127620000Y-56830000D02*
X127620000Y-54930000D01*
X128920000Y-56830000D02*
X128920000Y-54930000D01*
X127620000Y-56830000D02*
X128920000Y-56830000D01*
X127620000Y-54930000D02*
X128920000Y-54930000D01*
X130444000Y-54930000D02*
X130444000Y-56830000D01*
X129144000Y-54930000D02*
X129144000Y-56830000D01*
X130444000Y-54930000D02*
X129144000Y-54930000D01*
X130444000Y-56830000D02*
X129144000Y-56830000D01*
X113345000Y-69865000D02*
X111445000Y-69865000D01*
X113345000Y-68565000D02*
X111445000Y-68565000D01*
X113345000Y-69865000D02*
X113345000Y-68565000D01*
X111445000Y-69865000D02*
X111445000Y-68565000D01*
X114996000Y-68214000D02*
X113096000Y-68214000D01*
X114996000Y-66914000D02*
X113096000Y-66914000D01*
X114996000Y-68214000D02*
X114996000Y-66914000D01*
X113096000Y-68214000D02*
X113096000Y-66914000D01*
X117460000Y-66990000D02*
X117460000Y-65090000D01*
X118760000Y-66990000D02*
X118760000Y-65090000D01*
X117460000Y-66990000D02*
X118760000Y-66990000D01*
X117460000Y-65090000D02*
X118760000Y-65090000D01*
X117236000Y-65090000D02*
X117236000Y-66990000D01*
X115936000Y-65090000D02*
X115936000Y-66990000D01*
X117236000Y-65090000D02*
X115936000Y-65090000D01*
X117236000Y-66990000D02*
X115936000Y-66990000D01*
X117155000Y-69865000D02*
X115255000Y-69865000D01*
X117155000Y-68565000D02*
X115255000Y-68565000D01*
X117155000Y-69865000D02*
X117155000Y-68565000D01*
X115255000Y-69865000D02*
X115255000Y-68565000D01*
X113096000Y-70216000D02*
X114996000Y-70216000D01*
X113096000Y-71516000D02*
X114996000Y-71516000D01*
X113096000Y-70216000D02*
X113096000Y-71516000D01*
X114996000Y-70216000D02*
X114996000Y-71516000D01*
X118760000Y-71440000D02*
X118760000Y-73340000D01*
X117460000Y-71440000D02*
X117460000Y-73340000D01*
X118760000Y-71440000D02*
X117460000Y-71440000D01*
X118760000Y-73340000D02*
X117460000Y-73340000D01*
X115936000Y-73340000D02*
X115936000Y-71440000D01*
X117236000Y-73340000D02*
X117236000Y-71440000D01*
X115936000Y-73340000D02*
X117236000Y-73340000D01*
X115936000Y-71440000D02*
X117236000Y-71440000D01*
X129225000Y-68565000D02*
X131125000Y-68565000D01*
X129225000Y-69865000D02*
X131125000Y-69865000D01*
X129225000Y-68565000D02*
X129225000Y-69865000D01*
X131125000Y-68565000D02*
X131125000Y-69865000D01*
X133284000Y-71516000D02*
X131384000Y-71516000D01*
X133284000Y-70216000D02*
X131384000Y-70216000D01*
X133284000Y-71516000D02*
X133284000Y-70216000D01*
X131384000Y-71516000D02*
X131384000Y-70216000D01*
X128920000Y-71440000D02*
X128920000Y-73340000D01*
X127620000Y-71440000D02*
X127620000Y-73340000D01*
X128920000Y-71440000D02*
X127620000Y-71440000D01*
X128920000Y-73340000D02*
X127620000Y-73340000D01*
X129144000Y-73340000D02*
X129144000Y-71440000D01*
X130444000Y-73340000D02*
X130444000Y-71440000D01*
X129144000Y-73340000D02*
X130444000Y-73340000D01*
X129144000Y-71440000D02*
X130444000Y-71440000D01*
X133035000Y-68565000D02*
X134935000Y-68565000D01*
X133035000Y-69865000D02*
X134935000Y-69865000D01*
X133035000Y-68565000D02*
X133035000Y-69865000D01*
X134935000Y-68565000D02*
X134935000Y-69865000D01*
X133284000Y-68214000D02*
X131384000Y-68214000D01*
X133284000Y-66914000D02*
X131384000Y-66914000D01*
X133284000Y-68214000D02*
X133284000Y-66914000D01*
X131384000Y-68214000D02*
X131384000Y-66914000D01*
X127620000Y-66990000D02*
X127620000Y-65090000D01*
X128920000Y-66990000D02*
X128920000Y-65090000D01*
X127620000Y-66990000D02*
X128920000Y-66990000D01*
X127620000Y-65090000D02*
X128920000Y-65090000D01*
X130444000Y-65090000D02*
X130444000Y-66990000D01*
X129144000Y-65090000D02*
X129144000Y-66990000D01*
X130444000Y-65090000D02*
X129144000Y-65090000D01*
X130444000Y-66990000D02*
X129144000Y-66990000D01*
X113345000Y-82565000D02*
X111445000Y-82565000D01*
X113345000Y-81265000D02*
X111445000Y-81265000D01*
X113345000Y-82565000D02*
X113345000Y-81265000D01*
X111445000Y-82565000D02*
X111445000Y-81265000D01*
X114996000Y-80914000D02*
X113096000Y-80914000D01*
X114996000Y-79614000D02*
X113096000Y-79614000D01*
X114996000Y-80914000D02*
X114996000Y-79614000D01*
X113096000Y-80914000D02*
X113096000Y-79614000D01*
X117460000Y-79690000D02*
X117460000Y-77790000D01*
X118760000Y-79690000D02*
X118760000Y-77790000D01*
X117460000Y-79690000D02*
X118760000Y-79690000D01*
X117460000Y-77790000D02*
X118760000Y-77790000D01*
X117236000Y-77790000D02*
X117236000Y-79690000D01*
X115936000Y-77790000D02*
X115936000Y-79690000D01*
X117236000Y-77790000D02*
X115936000Y-77790000D01*
X117236000Y-79690000D02*
X115936000Y-79690000D01*
X117155000Y-82565000D02*
X115255000Y-82565000D01*
X117155000Y-81265000D02*
X115255000Y-81265000D01*
X117155000Y-82565000D02*
X117155000Y-81265000D01*
X115255000Y-82565000D02*
X115255000Y-81265000D01*
X113096000Y-82916000D02*
X114996000Y-82916000D01*
X113096000Y-84216000D02*
X114996000Y-84216000D01*
X113096000Y-82916000D02*
X113096000Y-84216000D01*
X114996000Y-82916000D02*
X114996000Y-84216000D01*
X115936000Y-86040000D02*
X115936000Y-84140000D01*
X117236000Y-86040000D02*
X117236000Y-84140000D01*
X115936000Y-86040000D02*
X117236000Y-86040000D01*
X115936000Y-84140000D02*
X117236000Y-84140000D01*
X129225000Y-81265000D02*
X131125000Y-81265000D01*
X129225000Y-82565000D02*
X131125000Y-82565000D01*
X129225000Y-81265000D02*
X129225000Y-82565000D01*
X131125000Y-81265000D02*
X131125000Y-82565000D01*
X133284000Y-84216000D02*
X131384000Y-84216000D01*
X133284000Y-82916000D02*
X131384000Y-82916000D01*
X133284000Y-84216000D02*
X133284000Y-82916000D01*
X131384000Y-84216000D02*
X131384000Y-82916000D01*
X128920000Y-84140000D02*
X128920000Y-86040000D01*
X127620000Y-84140000D02*
X127620000Y-86040000D01*
X128920000Y-84140000D02*
X127620000Y-84140000D01*
X128920000Y-86040000D02*
X127620000Y-86040000D01*
X129144000Y-86040000D02*
X129144000Y-84140000D01*
X130444000Y-86040000D02*
X130444000Y-84140000D01*
X129144000Y-86040000D02*
X130444000Y-86040000D01*
X129144000Y-84140000D02*
X130444000Y-84140000D01*
X134935000Y-82565000D02*
X133035000Y-82565000D01*
X134935000Y-81265000D02*
X133035000Y-81265000D01*
X134935000Y-82565000D02*
X134935000Y-81265000D01*
X133035000Y-82565000D02*
X133035000Y-81265000D01*
X133284000Y-80914000D02*
X131384000Y-80914000D01*
X133284000Y-79614000D02*
X131384000Y-79614000D01*
X133284000Y-80914000D02*
X133284000Y-79614000D01*
X131384000Y-80914000D02*
X131384000Y-79614000D01*
X127620000Y-79690000D02*
X127620000Y-77790000D01*
X128920000Y-79690000D02*
X128920000Y-77790000D01*
X127620000Y-79690000D02*
X128920000Y-79690000D01*
X127620000Y-77790000D02*
X128920000Y-77790000D01*
X130444000Y-77790000D02*
X130444000Y-79690000D01*
X129144000Y-77790000D02*
X129144000Y-79690000D01*
X130444000Y-77790000D02*
X129144000Y-77790000D01*
X130444000Y-79690000D02*
X129144000Y-79690000D01*
X113345000Y-92725000D02*
X111445000Y-92725000D01*
X113345000Y-91425000D02*
X111445000Y-91425000D01*
X113345000Y-92725000D02*
X113345000Y-91425000D01*
X111445000Y-92725000D02*
X111445000Y-91425000D01*
X114996000Y-91074000D02*
X113096000Y-91074000D01*
X114996000Y-89774000D02*
X113096000Y-89774000D01*
X114996000Y-91074000D02*
X114996000Y-89774000D01*
X113096000Y-91074000D02*
X113096000Y-89774000D01*
X117460000Y-89850000D02*
X117460000Y-87950000D01*
X118760000Y-89850000D02*
X118760000Y-87950000D01*
X117460000Y-89850000D02*
X118760000Y-89850000D01*
X117460000Y-87950000D02*
X118760000Y-87950000D01*
X117236000Y-87950000D02*
X117236000Y-89850000D01*
X115936000Y-87950000D02*
X115936000Y-89850000D01*
X117236000Y-87950000D02*
X115936000Y-87950000D01*
X117236000Y-89850000D02*
X115936000Y-89850000D01*
X117155000Y-92725000D02*
X115255000Y-92725000D01*
X117155000Y-91425000D02*
X115255000Y-91425000D01*
X117155000Y-92725000D02*
X117155000Y-91425000D01*
X115255000Y-92725000D02*
X115255000Y-91425000D01*
X115936000Y-96200000D02*
X115936000Y-94300000D01*
X117236000Y-96200000D02*
X117236000Y-94300000D01*
X115936000Y-96200000D02*
X117236000Y-96200000D01*
X115936000Y-94300000D02*
X117236000Y-94300000D01*
X129225000Y-91425000D02*
X131125000Y-91425000D01*
X129225000Y-92725000D02*
X131125000Y-92725000D01*
X129225000Y-91425000D02*
X129225000Y-92725000D01*
X131125000Y-91425000D02*
X131125000Y-92725000D01*
X128920000Y-94300000D02*
X128920000Y-96200000D01*
X127620000Y-94300000D02*
X127620000Y-96200000D01*
X128920000Y-94300000D02*
X127620000Y-94300000D01*
X128920000Y-96200000D02*
X127620000Y-96200000D01*
X129144000Y-96200000D02*
X129144000Y-94300000D01*
X130444000Y-96200000D02*
X130444000Y-94300000D01*
X129144000Y-96200000D02*
X130444000Y-96200000D01*
X129144000Y-94300000D02*
X130444000Y-94300000D01*
X134935000Y-92725000D02*
X133035000Y-92725000D01*
X134935000Y-91425000D02*
X133035000Y-91425000D01*
X134935000Y-92725000D02*
X134935000Y-91425000D01*
X133035000Y-92725000D02*
X133035000Y-91425000D01*
X133284000Y-91074000D02*
X131384000Y-91074000D01*
X133284000Y-89774000D02*
X131384000Y-89774000D01*
X133284000Y-91074000D02*
X133284000Y-89774000D01*
X131384000Y-91074000D02*
X131384000Y-89774000D01*
X127620000Y-89850000D02*
X127620000Y-87950000D01*
X128920000Y-89850000D02*
X128920000Y-87950000D01*
X127620000Y-89850000D02*
X128920000Y-89850000D01*
X127620000Y-87950000D02*
X128920000Y-87950000D01*
X130444000Y-87950000D02*
X130444000Y-89850000D01*
X129144000Y-87950000D02*
X129144000Y-89850000D01*
X130444000Y-87950000D02*
X129144000Y-87950000D01*
X130444000Y-89850000D02*
X129144000Y-89850000D01*
X117440000Y-105847500D02*
X117440000Y-108147500D01*
X116240000Y-105847500D02*
X116240000Y-108147500D01*
X117440000Y-105847500D02*
X116240000Y-105847500D01*
X117440000Y-108147500D02*
X116240000Y-108147500D01*
X131727500Y-112515000D02*
X131727500Y-114815000D01*
X130527500Y-112515000D02*
X130527500Y-114815000D01*
X131727500Y-112515000D02*
X130527500Y-112515000D01*
X131727500Y-114815000D02*
X130527500Y-114815000D01*
X131322000Y-87792000D02*
X133622000Y-87792000D01*
X131322000Y-88992000D02*
X133622000Y-88992000D01*
X131322000Y-87792000D02*
X131322000Y-88992000D01*
X133622000Y-87792000D02*
X133622000Y-88992000D01*
X115196000Y-63338000D02*
X112896000Y-63338000D01*
X115196000Y-62138000D02*
X112896000Y-62138000D01*
X115196000Y-63338000D02*
X115196000Y-62138000D01*
X112896000Y-63338000D02*
X112896000Y-62138000D01*
M02*
