M48
;DRILL file {KiCad 4.0.2-stable} date 11/10/2021 7:01:50 PM
;FORMAT={-:-/ absolute / inch / decimal}
FMAT,2
INCH,TZ
T1C0.006
T2C0.008
T3C0.032
%
G90
G05
M72
T1
X4.37Y-4.25
X4.43Y-2.18
X4.43Y-2.47
X4.43Y-2.58
X4.43Y-2.87
X4.43Y-3.08
X4.43Y-3.37
X4.43Y-3.48
X4.43Y-3.77
X4.44Y-2.26
X4.44Y-2.39
X4.44Y-2.66
X4.44Y-2.79
X4.44Y-3.16
X4.44Y-3.29
X4.44Y-3.56
X4.44Y-3.7
X4.475Y-2.325
X4.475Y-2.725
X4.475Y-3.225
X4.475Y-3.625
X4.51Y-3.81
X4.55Y-4.02
X4.55Y-4.19
X4.59Y-2.65
X4.59Y-2.8
X4.59Y-3.15
X4.59Y-3.3
X4.59Y-3.55
X4.59Y-4.06
X4.6Y-2.25
X4.6Y-2.4
X4.6Y-4.26
X4.6125Y-2.325
X4.625Y-2.725
X4.625Y-3.225
X4.625Y-3.625
X4.64Y-3.97
X4.76Y-4.13
X4.7875Y-2.2
X4.7875Y-2.6
X4.7875Y-3.1
X4.7875Y-3.5
X4.8Y-2.325
X4.8Y-2.725
X4.8Y-3.225
X4.8Y-3.625
X4.82Y-4.1
X4.9Y-2.325
X4.9Y-2.725
X4.9Y-3.225
X4.9Y-3.625
X4.9Y-4.22
X4.9125Y-2.2
X4.9125Y-2.6
X4.9125Y-3.1
X4.9125Y-3.5
X4.92Y-3.83
X4.92Y-3.86
X4.92Y-4.16
X4.94Y-3.78
X4.96Y-3.76
X4.96Y-4.09
X4.96Y-4.12
X5.Y-3.88
X5.075Y-2.325
X5.075Y-2.725
X5.075Y-3.225
X5.075Y-3.625
X5.11Y-2.25
X5.11Y-2.41
X5.11Y-2.65
X5.11Y-2.8
X5.11Y-3.15
X5.11Y-3.3
X5.11Y-3.54
X5.11Y-3.7
X5.11Y-3.93
X5.13Y-4.01
X5.16Y-3.99
X5.16Y-4.23
X5.16Y-4.35
X5.19Y-4.07
X5.2204Y-4.0396
X5.225Y-2.325
X5.225Y-2.725
X5.26Y-2.26
X5.26Y-2.39
X5.26Y-2.66
X5.26Y-2.79
X5.26Y-3.08
X5.26Y-3.16
X5.26Y-3.29
X5.26Y-3.37
X5.26Y-3.52
X5.26Y-3.56
X5.26Y-3.7
X5.26Y-3.77
X5.27Y-2.19
X5.27Y-2.47
X5.27Y-2.58
X5.27Y-2.87
X5.28Y-4.14
X5.3Y-4.35
X5.33Y-3.23
X5.33Y-3.63
X5.35Y-4.17
T2
X4.4Y-4.5
X4.59Y-4.39
X4.59Y-4.44
X4.59Y-4.5
X4.59Y-4.56
X4.59Y-4.61
X4.65Y-4.39
X4.65Y-4.61
X4.72Y-4.39
X4.72Y-4.61
X4.79Y-4.39
X4.79Y-4.61
X4.86Y-4.39
X4.86Y-4.44
X4.86Y-4.5
X4.86Y-4.56
X4.86Y-4.61
X5.075Y-4.6
X5.1625Y-4.5375
T3
X4.3Y-2.2
X4.3Y-2.3
X4.3Y-2.4
X4.3Y-2.5
X4.3Y-2.6
X4.3Y-2.7
X4.3Y-2.8
X4.3Y-2.9
X4.3Y-3.
X4.3Y-3.1
X4.3Y-3.2
X4.3Y-3.3
X4.3Y-3.4
X4.3Y-3.5
X4.3Y-3.6
X4.3Y-3.7
X4.3Y-3.8
X4.3Y-3.9
X4.3Y-4.
X4.3Y-4.1
X4.3Y-4.2
X4.3Y-4.3
X4.3Y-4.4
X4.3Y-4.5
X4.3Y-4.6
X5.4Y-2.2
X5.4Y-2.3
X5.4Y-2.4
X5.4Y-2.5
X5.4Y-2.6
X5.4Y-2.7
X5.4Y-2.8
X5.4Y-2.9
X5.4Y-3.
X5.4Y-3.1
X5.4Y-3.2
X5.4Y-3.3
X5.4Y-3.4
X5.4Y-3.5
X5.4Y-3.6
X5.4Y-3.7
X5.4Y-3.8
X5.4Y-3.9
X5.4Y-4.
X5.4Y-4.1
X5.4Y-4.2
X5.4Y-4.3
X5.4Y-4.4
X5.4Y-4.5
X5.4Y-4.6
T0
M30
